<?xml version="1.0" encoding="utf-8" standalone="no"?>
<!DOCTYPE svg PUBLIC "-//W3C//DTD SVG 1.1//EN"
  "http://www.w3.org/Graphics/SVG/1.1/DTD/svg11.dtd">
<!-- Created with matplotlib (https://matplotlib.org/) -->
<svg height="252pt" version="1.1" viewBox="0 0 504 252" width="504pt" xmlns="http://www.w3.org/2000/svg" xmlns:xlink="http://www.w3.org/1999/xlink">
 <defs>
  <style type="text/css">
*{stroke-linecap:butt;stroke-linejoin:round;}
  </style>
 </defs>
 <g id="figure_1">
  <g id="patch_1">
   <path d="M 0 252 
L 504 252 
L 504 0 
L 0 0 
z
" style="fill:none;"/>
  </g>
  <g id="axes_1">
   <g id="patch_2">
    <path d="M 63 220.5 
L 453.6 220.5 
L 453.6 30.24 
L 63 30.24 
z
" style="fill:none;"/>
   </g>
   <g id="matplotlib.axis_1">
    <g id="xtick_1"/>
    <g id="xtick_2"/>
    <g id="xtick_3"/>
    <g id="xtick_4"/>
    <g id="xtick_5"/>
    <g id="xtick_6"/>
   </g>
   <g id="matplotlib.axis_2">
    <g id="ytick_1"/>
    <g id="ytick_2"/>
    <g id="ytick_3"/>
    <g id="ytick_4"/>
    <g id="ytick_5"/>
    <g id="ytick_6"/>
    <g id="ytick_7"/>
    <g id="ytick_8"/>
   </g>
   <g id="line2d_1">
    <path clip-path="url(#pefcc5b4327)" d="M 63 159.542909 
L 64.5624 156.214447 
L 65.7342 154.273785 
L 66.5154 153.353684 
L 67.2966 152.780826 
L 68.0778 152.579073 
L 68.859 152.754974 
L 69.6402 153.297243 
L 70.4214 154.177232 
L 71.5932 156.029184 
L 73.1556 159.159512 
L 75.8898 164.771912 
L 77.0616 166.606669 
L 77.8428 167.506731 
L 78.624 168.115558 
L 79.4052 168.424237 
L 80.1864 168.441171 
L 80.9676 168.191261 
L 81.7488 167.714154 
L 82.9206 166.688314 
L 86.0454 163.652224 
L 86.8266 163.160033 
L 87.6078 162.870126 
L 88.389 162.807699 
L 89.1702 162.981765 
L 89.9514 163.384456 
L 91.1232 164.359429 
L 92.6856 166.109104 
L 94.6386 168.30238 
L 95.4198 168.953877 
L 96.201 169.375483 
L 96.9822 169.511288 
L 97.7634 169.318058 
L 98.5446 168.76782 
L 99.3258 167.849601 
L 100.107 166.570216 
L 101.2788 164.031855 
L 102.4506 160.888878 
L 104.7942 153.683813 
L 106.7472 147.961312 
L 107.919 145.130005 
L 109.0908 142.938513 
L 109.872 141.866694 
L 110.6532 141.104675 
L 111.4344 140.632139 
L 112.2156 140.413459 
L 112.9968 140.400078 
L 114.1686 140.635478 
L 116.5122 141.218758 
L 117.2934 141.221279 
L 118.0746 141.047306 
L 118.8558 140.667724 
L 119.637 140.069246 
L 120.8088 138.773346 
L 121.9806 137.078152 
L 125.8866 130.904737 
L 126.6678 130.086243 
L 127.449 129.558036 
L 128.2302 129.367184 
L 129.0114 129.546103 
L 129.7926 130.110584 
L 130.5738 131.058735 
L 131.355 132.370921 
L 132.5268 134.937884 
L 134.0892 139.176796 
L 137.6046 149.26333 
L 138.7764 151.947479 
L 139.9482 154.020822 
L 140.7294 155.036539 
L 141.5106 155.765203 
L 142.2918 156.230808 
L 143.073 156.472175 
L 144.2448 156.528083 
L 146.979 156.337404 
L 147.7602 156.484758 
L 148.5414 156.817377 
L 149.3226 157.368275 
L 150.1038 158.155053 
L 151.2756 159.775002 
L 152.4474 161.856823 
L 154.4004 165.934163 
L 156.3534 169.889846 
L 157.5252 171.746658 
L 158.3064 172.640127 
L 159.0876 173.204755 
L 159.8688 173.411623 
L 160.65 173.248762 
L 161.4312 172.721981 
L 162.2124 171.854699 
L 162.9936 170.686789 
L 164.1654 168.493171 
L 168.462 159.628345 
L 169.6338 158.0314 
L 170.415 157.327008 
L 171.1962 156.929955 
L 171.9774 156.837159 
L 172.7586 157.028678 
L 173.5398 157.469183 
L 174.7116 158.488179 
L 178.6176 162.442555 
L 179.3988 162.887236 
L 180.18 163.118443 
L 180.9612 163.121993 
L 181.7424 162.90047 
L 182.5236 162.473235 
L 183.6954 161.527482 
L 186.8202 158.611774 
L 187.6014 158.168252 
L 188.3826 157.973408 
L 189.1638 158.080902 
L 189.945 158.531166 
L 190.7262 159.348968 
L 191.5074 160.541849 
L 192.2886 162.099518 
L 193.4604 165.054913 
L 195.0228 169.885264 
L 199.3194 184.004266 
L 200.4912 186.970447 
L 201.663 189.271069 
L 202.4442 190.420908 
L 203.2254 191.278757 
L 204.0066 191.875601 
L 204.7878 192.25617 
L 205.9596 192.545188 
L 208.3032 192.907632 
L 209.475 193.399268 
L 210.2562 193.953357 
L 211.0374 194.721069 
L 212.2092 196.290452 
L 213.381 198.321891 
L 214.9434 201.535356 
L 217.287 206.463006 
L 218.4588 208.460749 
L 219.24 209.467216 
L 220.0212 210.151999 
L 220.8024 210.477736 
L 221.5836 210.423176 
L 222.3648 209.984523 
L 223.146 209.175813 
L 223.9272 208.028288 
L 225.099 205.777899 
L 226.6614 202.130176 
L 229.3956 195.660687 
L 230.5674 193.47029 
L 231.3486 192.332464 
L 232.1298 191.482548 
L 232.911 190.926953 
L 233.6922 190.654834 
L 234.4734 190.639056 
L 235.2546 190.838081 
L 236.4264 191.420568 
L 239.1606 192.983455 
L 239.9418 193.200448 
L 240.723 193.223105 
L 241.5042 193.02105 
L 242.2854 192.579624 
L 243.0666 191.900915 
L 244.2384 190.483664 
L 245.8008 188.06756 
L 248.1444 184.31911 
L 249.3162 182.903813 
L 250.0974 182.27918 
L 250.8786 181.967582 
L 251.6598 182.002725 
L 252.441 182.401819 
L 253.2222 183.16445 
L 254.0034 184.272437 
L 255.1752 186.500991 
L 256.7376 190.234321 
L 259.8624 198.127037 
L 261.0342 200.483723 
L 261.8154 201.720408 
L 262.5966 202.65436 
L 263.3778 203.274475 
L 264.159 203.587001 
L 264.9402 203.614837 
L 265.7214 203.395891 
L 266.8932 202.717663 
L 270.4086 200.156921 
L 271.1898 199.869947 
L 271.971 199.78193 
L 272.7522 199.912006 
L 273.5334 200.26275 
L 274.3146 200.819859 
L 275.4864 201.97166 
L 279.0018 205.92462 
L 279.783 206.464357 
L 280.5642 206.736701 
L 281.3454 206.690232 
L 282.1266 206.287285 
L 282.9078 205.506232 
L 283.689 204.342867 
L 284.4702 202.810817 
L 285.642 199.893349 
L 287.2044 195.125884 
L 291.1104 182.392642 
L 292.2822 179.321184 
L 293.454 176.881822 
L 294.2352 175.629808 
L 295.0164 174.668149 
L 295.7976 173.970598 
L 296.5788 173.496414 
L 297.7506 173.08657 
L 300.4848 172.422271 
L 301.266 172.026047 
L 302.0472 171.445466 
L 302.8284 170.649804 
L 304.0002 169.024631 
L 305.172 166.90534 
L 306.7344 163.498224 
L 309.8592 156.453719 
L 311.031 154.449946 
L 311.8122 153.477825 
L 312.5934 152.847634 
L 313.3746 152.585879 
L 314.1558 152.701928 
L 314.937 153.187327 
L 315.7182 154.016124 
L 316.4994 155.146161 
L 317.6712 157.280091 
L 321.9678 165.865949 
L 322.749 166.944792 
L 323.5302 167.7477 
L 324.3114 168.254382 
L 325.0926 168.461855 
L 325.8738 168.384284 
L 326.655 168.051836 
L 327.8268 167.174895 
L 329.7798 165.200684 
L 331.3422 163.746829 
L 332.1234 163.225745 
L 332.9046 162.901533 
L 333.6858 162.801842 
L 334.467 162.938331 
L 335.2482 163.305828 
L 336.0294 163.882461 
L 337.2012 165.053831 
L 340.326 168.546287 
L 341.1072 169.12639 
L 341.8884 169.456319 
L 342.6696 169.484147 
L 343.4508 169.171588 
L 344.232 168.496312 
L 345.0132 167.453369 
L 345.7944 166.055639 
L 346.9662 163.36417 
L 348.5286 158.940745 
L 352.4346 147.26821 
L 353.6064 144.572468 
L 354.7782 142.537933 
L 355.5594 141.572932 
L 356.3406 140.912641 
L 357.1218 140.531311 
L 357.903 140.3886 
L 359.0748 140.505125 
L 362.1996 141.23703 
L 362.9808 141.183598 
L 363.762 140.942072 
L 364.5432 140.488566 
L 365.3244 139.815449 
L 366.4962 138.418803 
L 368.0586 136.009012 
L 370.7928 131.574936 
L 371.9646 130.198566 
L 372.7458 129.620631 
L 373.527 129.373472 
L 374.3082 129.491995 
L 375.0894 129.994732 
L 375.8706 130.882639 
L 376.6518 132.138871 
L 377.8236 134.635481 
L 378.9954 137.704875 
L 383.6826 150.837072 
L 384.8544 153.189871 
L 385.6356 154.399973 
L 386.4168 155.316188 
L 387.198 155.951736 
L 387.9792 156.335898 
L 388.7604 156.512002 
L 389.9322 156.507592 
L 392.2758 156.328123 
L 393.057 156.449939 
L 393.8382 156.750468 
L 394.6194 157.265005 
L 395.4006 158.013712 
L 396.1818 159.000254 
L 397.3536 160.892568 
L 398.916 163.99234 
L 401.6502 169.662978 
L 402.822 171.576741 
L 403.6032 172.518873 
L 404.3844 173.138228 
L 405.1656 173.403329 
L 405.9468 173.299428 
L 406.728 172.829486 
L 407.5092 172.014169 
L 408.2904 170.890848 
L 409.4622 168.745786 
L 411.8058 163.662472 
L 413.3682 160.510012 
L 414.54 158.657662 
L 415.3212 157.757397 
L 416.1024 157.156993 
L 416.8836 156.864824 
L 417.6648 156.871955 
L 418.446 157.152991 
L 419.2272 157.667858 
L 420.399 158.762056 
L 423.5238 162.046558 
L 424.6956 162.830111 
L 425.4768 163.096691 
L 426.258 163.136766 
L 427.0392 162.95022 
L 427.8204 162.553784 
L 428.9922 161.641211 
L 432.5076 158.436508 
L 433.2888 158.070995 
L 434.07 157.973745 
L 434.8512 158.194235 
L 435.6324 158.767791 
L 436.4136 159.713441 
L 437.1948 161.032666 
L 437.976 162.709144 
L 439.1478 165.816386 
L 440.7102 170.776325 
L 444.2256 182.514665 
L 445.3974 185.74434 
L 446.5692 188.345294 
L 447.741 190.257915 
L 448.5222 191.160584 
L 449.3034 191.796327 
L 450.0846 192.207862 
L 451.2564 192.525321 
L 453.6 192.874556 
L 453.6 192.874556 
" style="fill:none;stroke:#8cbfb9;stroke-linecap:square;stroke-width:4;"/>
   </g>
   <g id="line2d_2">
    <path clip-path="url(#pefcc5b4327)" d="M 140.107434 -1 
L 140.107777 253 
M 182.693169 253 
L 182.693357 -1 
M 239.774674 -1 
L 239.775057 253 
M 284.863713 253 
L 284.863722 -1 
M 388.652308 -1 
L 388.652454 253 
M 396.28094 253 
L 396.281007 -1 
M 402.303948 -1 
L 402.304064 253 
M 416.821021 253 
L 416.82118 -1 
L 416.82118 -1 
" style="fill:none;stroke:#000000;stroke-dasharray:7.4,3.2;stroke-dashoffset:0;stroke-width:2;"/>
    <defs>
     <path d="M -2.5 2.5 
L 2.5 2.5 
L 2.5 -2.5 
L -2.5 -2.5 
z
" id="m181b80f0d8" style="stroke:#000000;stroke-linejoin:miter;"/>
    </defs>
    <g clip-path="url(#pefcc5b4327)">
     <use style="fill:#ffffff;stroke:#000000;stroke-linejoin:miter;" x="121.954776" xlink:href="#m181b80f0d8" y="-1"/>
     <use style="fill:#ffffff;stroke:#000000;stroke-linejoin:miter;" x="134.366791" xlink:href="#m181b80f0d8" y="18145"/>
     <use style="fill:#ffffff;stroke:#000000;stroke-linejoin:miter;" x="149.187456" xlink:href="#m181b80f0d8" y="18145"/>
     <use style="fill:#ffffff;stroke:#000000;stroke-linejoin:miter;" x="160.65" xlink:href="#m181b80f0d8" y="4117.081924"/>
     <use style="fill:#ffffff;stroke:#000000;stroke-linejoin:miter;" x="180.18" xlink:href="#m181b80f0d8" y="17375.12394"/>
     <use style="fill:#ffffff;stroke:#000000;stroke-linejoin:miter;" x="193.808" xlink:href="#m181b80f0d8" y="-1"/>
     <use style="fill:#ffffff;stroke:#000000;stroke-linejoin:miter;" x="253.416622" xlink:href="#m181b80f0d8" y="-1"/>
     <use style="fill:#ffffff;stroke:#000000;stroke-linejoin:miter;" x="258.3" xlink:href="#m181b80f0d8" y="9203.110676"/>
     <use style="fill:#ffffff;stroke:#000000;stroke-linejoin:miter;" x="277.83" xlink:href="#m181b80f0d8" y="5330.288964"/>
     <use style="fill:#ffffff;stroke:#000000;stroke-linejoin:miter;" x="282.972671" xlink:href="#m181b80f0d8" y="-1"/>
     <use style="fill:#ffffff;stroke:#000000;stroke-linejoin:miter;" x="377.391688" xlink:href="#m181b80f0d8" y="-1"/>
     <use style="fill:#ffffff;stroke:#000000;stroke-linejoin:miter;" x="381.788707" xlink:href="#m181b80f0d8" y="18145"/>
     <use style="fill:#ffffff;stroke:#000000;stroke-linejoin:miter;" x="414.283938" xlink:href="#m181b80f0d8" y="18145"/>
     <use style="fill:#ffffff;stroke:#000000;stroke-linejoin:miter;" x="414.54" xlink:href="#m181b80f0d8" y="17420.110198"/>
     <use style="fill:#ffffff;stroke:#000000;stroke-linejoin:miter;" x="431.01884" xlink:href="#m181b80f0d8" y="-1"/>
    </g>
   </g>
   <g id="line2d_3">
    <path clip-path="url(#pefcc5b4327)" d="M 63 54.512583 
L 64.1718 52.839769 
L 65.3436 51.623746 
L 66.5154 50.841441 
L 67.6872 50.446426 
L 68.859 50.372321 
L 70.0308 50.537314 
L 71.9838 51.092116 
L 73.9368 51.616244 
L 75.1086 51.748752 
L 76.2804 51.659875 
L 77.4522 51.302164 
L 78.624 50.650759 
L 79.7958 49.705181 
L 80.9676 48.489668 
L 82.53 46.534799 
L 87.2172 40.235061 
L 88.389 39.087709 
L 89.5608 38.31223 
L 90.342 38.043539 
L 91.1232 37.997582 
L 91.9044 38.1903 
L 92.6856 38.632923 
L 93.4668 39.331629 
L 94.248 40.287318 
L 95.4198 42.191476 
L 96.5916 44.625222 
L 98.154 48.582567 
L 100.107 54.370936 
L 105.1848 70.126123 
L 106.7472 74.107154 
L 107.919 76.585024 
L 109.0908 78.567947 
L 110.2626 80.030101 
L 111.0438 80.714848 
L 111.825 81.174629 
L 112.6062 81.421003 
L 113.3874 81.470027 
L 114.1686 81.341766 
L 115.3404 80.8691 
L 116.5122 80.141068 
L 118.8558 78.31379 
L 120.8088 76.874153 
L 121.9806 76.221249 
L 123.1524 75.801804 
L 124.3242 75.652684 
L 125.496 75.786873 
L 126.6678 76.19269 
L 127.8396 76.834493 
L 129.402 77.955272 
L 132.9174 80.612783 
L 134.0892 81.195382 
L 134.8704 81.415846 
L 135.6516 81.47226 
L 136.4328 81.342502 
L 137.214 81.008125 
L 137.9952 80.454911 
L 138.7764 79.673308 
L 139.9482 78.064144 
L 141.12 75.938772 
L 142.2918 73.330392 
L 143.8542 69.205715 
L 145.8072 63.302207 
L 150.4944 48.754542 
L 152.0568 44.76814 
L 153.2286 42.307816 
L 154.4004 40.374373 
L 155.1816 39.39834 
L 155.9628 38.679133 
L 156.744 38.216275 
L 157.5252 38.004003 
L 158.3064 38.031478 
L 159.0876 38.28312 
L 159.8688 38.739059 
L 161.0406 39.753532 
L 162.2124 41.08192 
L 164.1654 43.714657 
L 167.2902 47.957123 
L 168.8526 49.647113 
L 170.0244 50.607845 
L 171.1962 51.275074 
L 172.368 51.647962 
L 173.5398 51.750107 
L 174.7116 51.627826 
L 176.274 51.231992 
L 179.0082 50.472144 
L 180.18 50.365219 
L 181.3518 50.521578 
L 182.133 50.811242 
L 182.9142 51.272086 
L 183.6954 51.91934 
L 184.8672 53.262117 
L 186.039 55.063645 
L 187.2108 57.314266 
L 188.7732 60.948532 
L 190.7262 66.283912 
L 196.1946 82.002671 
L 197.757 85.518103 
L 198.9288 87.592014 
L 200.1006 89.108301 
L 200.8818 89.787949 
L 201.663 90.195296 
L 202.4442 90.330145 
L 203.2254 90.19769 
L 204.0066 89.80835 
L 204.7878 89.17748 
L 205.9596 87.8229 
L 207.1314 86.05386 
L 208.6938 83.222449 
L 214.5528 71.966443 
L 215.7246 70.276146 
L 216.8964 68.909087 
L 218.0682 67.877819 
L 219.24 67.169929 
L 220.4118 66.749322 
L 221.5836 66.558919 
L 223.5366 66.546117 
L 225.8802 66.522039 
L 227.052 66.291968 
L 228.2238 65.8061 
L 229.3956 64.998943 
L 230.5674 63.824462 
L 231.7392 62.259465 
L 232.911 60.305664 
L 234.4734 57.146444 
L 236.4264 52.504651 
L 241.5042 39.882781 
L 242.676 37.55703 
L 243.8478 35.675562 
L 244.629 34.708877 
L 245.4102 33.994752 
L 246.1914 33.547072 
L 246.9726 33.374574 
L 247.7538 33.480629 
L 248.535 33.863164 
L 249.3162 34.51471 
L 250.0974 35.422584 
L 251.2692 37.225306 
L 252.441 39.486493 
L 254.0034 43.046741 
L 256.7376 50.029947 
L 259.0812 55.84144 
L 260.6436 59.207633 
L 261.8154 61.344517 
L 262.9872 63.102842 
L 264.159 64.468309 
L 265.3308 65.452011 
L 266.5026 66.089078 
L 267.6744 66.435914 
L 268.8462 66.566219 
L 271.1898 66.527904 
L 272.7522 66.578572 
L 273.924 66.804139 
L 275.0958 67.271195 
L 276.2676 68.03342 
L 277.4394 69.122939 
L 278.6112 70.547874 
L 279.783 72.291301 
L 281.3454 75.036216 
L 283.689 79.706554 
L 286.4232 85.059754 
L 287.9856 87.566504 
L 289.1574 88.993131 
L 289.9386 89.67892 
L 290.7198 90.127534 
L 291.501 90.322497 
L 292.2822 90.252178 
L 293.0634 89.910116 
L 293.8446 89.295212 
L 294.6258 88.411794 
L 295.7976 86.605802 
L 296.9694 84.272741 
L 298.5318 80.478679 
L 300.4848 74.976114 
L 304.7814 62.448403 
L 306.3438 58.57812 
L 307.5156 56.117787 
L 308.6874 54.092203 
L 309.8592 52.523879 
L 311.031 51.409284 
L 312.2028 50.71981 
L 313.3746 50.404152 
L 314.5464 50.391991 
L 315.7182 50.59874 
L 320.4054 51.744165 
L 321.5772 51.681416 
L 322.749 51.353844 
L 323.9208 50.73408 
L 325.0926 49.819015 
L 326.2644 48.630289 
L 327.8268 46.701236 
L 332.9046 39.946629 
L 334.0764 38.875678 
L 334.8576 38.374298 
L 335.6388 38.071894 
L 336.42 37.989281 
L 337.2012 38.143107 
L 337.9824 38.545382 
L 338.7636 39.203104 
L 339.5448 40.118024 
L 340.7166 41.963298 
L 341.8884 44.343362 
L 343.0602 47.198196 
L 344.6226 51.597495 
L 347.3568 60.210191 
L 350.091 68.671544 
L 351.6534 72.873933 
L 352.8252 75.554462 
L 353.997 77.759661 
L 355.1688 79.452176 
L 355.95 80.289206 
L 356.7312 80.896297 
L 357.5124 81.28183 
L 358.2936 81.458944 
L 359.0748 81.445123 
L 359.856 81.261665 
L 361.0278 80.7227 
L 362.5902 79.657834 
L 366.4962 76.708068 
L 367.668 76.103788 
L 368.8398 75.743345 
L 370.0116 75.658324 
L 371.1834 75.856123 
L 372.3552 76.319502 
L 373.527 77.007624 
L 375.48 78.477561 
L 377.8236 80.281916 
L 378.9954 80.972404 
L 380.1672 81.391098 
L 380.9484 81.475207 
L 381.7296 81.376437 
L 382.5108 81.075717 
L 383.292 80.55812 
L 384.0732 79.813329 
L 384.8544 78.83598 
L 386.0262 76.934954 
L 387.198 74.533104 
L 388.7604 70.637436 
L 390.7134 64.915813 
L 396.1818 48.025712 
L 397.7442 44.165948 
L 398.916 41.820567 
L 400.0878 40.013151 
L 400.869 39.124348 
L 401.6502 38.49281 
L 402.4314 38.116243 
L 403.2126 37.987125 
L 403.9938 38.092956 
L 404.775 38.416641 
L 405.5562 38.936969 
L 406.728 40.031271 
L 408.2904 41.925939 
L 413.7588 49.137712 
L 414.9306 50.220798 
L 416.1024 51.018598 
L 417.2742 51.519366 
L 418.446 51.736087 
L 419.6178 51.705394 
L 421.1802 51.382074 
L 424.6956 50.429259 
L 425.8674 50.374602 
L 427.0392 50.602164 
L 427.8204 50.94819 
L 428.6016 51.471052 
L 429.3828 52.184527 
L 430.5546 53.631008 
L 431.7264 55.536337 
L 432.8982 57.884926 
L 434.4606 61.630833 
L 436.4136 67.05855 
L 441.4914 81.691242 
L 443.0538 85.267664 
L 444.2256 87.397315 
L 445.3974 88.975217 
L 446.1786 89.697854 
L 446.9598 90.148723 
L 447.741 90.326762 
L 448.5222 90.236314 
L 449.3034 89.886982 
L 450.0846 89.29336 
L 450.8658 88.474638 
L 452.0376 86.87639 
L 453.6 84.202167 
L 453.6 84.202167 
" style="fill:none;stroke:#da888e;stroke-linecap:square;stroke-width:4;"/>
   </g>
   <g id="line2d_4">
    <path clip-path="url(#pefcc5b4327)" d="M 63 115.290083 
L 64.5624 118.705715 
L 66.1248 121.656572 
L 68.0778 124.838211 
L 70.0308 127.606618 
L 72.3744 130.559836 
L 75.4992 134.10066 
L 78.624 137.313472 
L 81.7488 140.198675 
L 84.8736 142.767256 
L 90.7326 147.18372 
L 94.6386 150.289225 
L 98.154 153.366107 
L 102.06 157.074639 
L 105.5754 160.68792 
L 108.3096 163.775499 
L 110.6532 166.705891 
L 112.9968 169.978795 
L 115.3404 173.67165 
L 117.2934 177.126514 
L 119.2464 180.975787 
L 121.1994 185.273122 
L 123.1524 190.080541 
L 125.1054 195.469989 
L 127.0584 201.5228 
L 129.0114 208.327111 
L 130.9644 215.97328 
L 132.9174 224.546789 
L 134.8704 234.117408 
L 136.8234 244.723167 
L 138.22976 253 
M 175.914217 253 
L 177.8364 244.497851 
L 179.7894 236.7705 
L 181.7424 229.895425 
L 183.6954 223.791741 
L 185.6484 218.380908 
L 187.6014 213.596108 
L 189.5544 209.383324 
L 191.5074 205.697902 
L 193.4604 202.500013 
L 195.4134 199.750415 
L 197.3664 197.406853 
L 199.3194 195.421882 
L 201.2724 193.744064 
L 203.2254 192.32405 
L 205.569 190.907199 
L 207.9126 189.770966 
L 210.2562 188.906841 
L 212.5998 188.317873 
L 214.5528 188.038507 
L 216.5058 187.948621 
L 218.8494 188.084015 
L 221.193 188.481943 
L 223.146 189.024028 
L 225.099 189.778388 
L 227.052 190.770802 
L 229.005 192.026721 
L 230.958 193.568717 
L 232.911 195.41764 
L 234.864 197.596026 
L 236.817 200.13299 
L 238.77 203.07016 
L 240.723 206.467057 
L 242.676 210.402488 
L 244.629 214.969473 
L 246.1914 219.14373 
L 248.1444 225.093228 
L 250.0974 231.9411 
L 252.0504 239.77379 
L 254.0034 248.671183 
L 254.87337 253 
M 300.707468 253 
L 302.4378 244.178269 
L 304.3908 235.263863 
L 306.3438 227.365014 
L 308.2968 220.388549 
L 310.2498 214.241753 
L 312.2028 208.836738 
L 314.1558 204.092545 
L 316.1088 199.935783 
L 318.0618 196.300475 
L 320.0148 193.12769 
L 321.9678 190.365495 
L 323.9208 187.969468 
L 325.8738 185.903416 
L 327.8268 184.139358 
L 329.7798 182.656202 
L 331.7328 181.43759 
L 333.6858 180.469914 
L 335.6388 179.741112 
L 337.5918 179.24025 
L 339.5448 178.957777 
L 341.4978 178.88638 
L 343.4508 179.02224 
L 345.4038 179.366028 
L 347.3568 179.922751 
L 349.3098 180.700323 
L 351.2628 181.707765 
L 353.2158 182.954076 
L 355.1688 184.448169 
L 357.1218 186.199814 
L 359.0748 188.221602 
L 361.0278 190.531924 
L 362.9808 193.158422 
L 364.9338 196.140255 
L 366.8868 199.527137 
L 368.8398 203.374421 
L 370.7928 207.735943 
L 372.7458 212.657022 
L 374.6988 218.168497 
L 376.6518 224.281099 
L 378.9954 232.385677 
L 381.7296 242.780747 
L 384.243746 253 
M 407.694695 253 
L 413.3682 218.253176 
L 415.7118 205.473083 
L 418.0554 194.024441 
L 420.0084 185.502515 
L 421.9614 177.856461 
L 423.9144 171.022125 
L 425.8674 164.933139 
L 427.8204 159.523684 
L 429.7734 154.724553 
L 431.7264 150.458752 
L 434.07 145.923214 
L 436.4136 141.87562 
L 439.5384 136.964909 
L 451.2564 119.056659 
L 453.6 115.287424 
L 453.6 115.287424 
" style="fill:none;stroke:#000000;stroke-dasharray:7.4,3.2;stroke-dashoffset:0;stroke-width:2;"/>
    <defs>
     <path d="M 0 -2.5 
L -2.165064 -1.25 
L -2.165064 1.25 
L -0 2.5 
L 2.165064 1.25 
L 2.165064 -1.25 
z
" id="m9ab24ab9c0" style="stroke:#000000;stroke-linejoin:miter;"/>
    </defs>
    <g clip-path="url(#pefcc5b4327)">
     <use style="fill:#ffffff;stroke:#000000;stroke-linejoin:miter;" x="63" xlink:href="#m9ab24ab9c0" y="115.290083"/>
     <use style="fill:#ffffff;stroke:#000000;stroke-linejoin:miter;" x="82.53" xlink:href="#m9ab24ab9c0" y="140.86782"/>
     <use style="fill:#ffffff;stroke:#000000;stroke-linejoin:miter;" x="102.06" xlink:href="#m9ab24ab9c0" y="157.074639"/>
     <use style="fill:#ffffff;stroke:#000000;stroke-linejoin:miter;" x="121.59" xlink:href="#m9ab24ab9c0" y="186.191643"/>
     <use style="fill:#ffffff;stroke:#000000;stroke-linejoin:miter;" x="141.12" xlink:href="#m9ab24ab9c0" y="271.494621"/>
     <use style="fill:#ffffff;stroke:#000000;stroke-linejoin:miter;" x="160.65" xlink:href="#m9ab24ab9c0" y="336.6984"/>
     <use style="fill:#ffffff;stroke:#000000;stroke-linejoin:miter;" x="180.18" xlink:href="#m9ab24ab9c0" y="235.3298"/>
     <use style="fill:#ffffff;stroke:#000000;stroke-linejoin:miter;" x="199.71" xlink:href="#m9ab24ab9c0" y="195.06341"/>
     <use style="fill:#ffffff;stroke:#000000;stroke-linejoin:miter;" x="219.24" xlink:href="#m9ab24ab9c0" y="188.13199"/>
     <use style="fill:#ffffff;stroke:#000000;stroke-linejoin:miter;" x="238.77" xlink:href="#m9ab24ab9c0" y="203.07016"/>
     <use style="fill:#ffffff;stroke:#000000;stroke-linejoin:miter;" x="258.3" xlink:href="#m9ab24ab9c0" y="272.298238"/>
     <use style="fill:#ffffff;stroke:#000000;stroke-linejoin:miter;" x="277.83" xlink:href="#m9ab24ab9c0" y="391.95151"/>
     <use style="fill:#ffffff;stroke:#000000;stroke-linejoin:miter;" x="297.36" xlink:href="#m9ab24ab9c0" y="272.664211"/>
     <use style="fill:#ffffff;stroke:#000000;stroke-linejoin:miter;" x="316.89" xlink:href="#m9ab24ab9c0" y="198.422541"/>
     <use style="fill:#ffffff;stroke:#000000;stroke-linejoin:miter;" x="336.42" xlink:href="#m9ab24ab9c0" y="179.513986"/>
     <use style="fill:#ffffff;stroke:#000000;stroke-linejoin:miter;" x="355.95" xlink:href="#m9ab24ab9c0" y="185.117307"/>
     <use style="fill:#ffffff;stroke:#000000;stroke-linejoin:miter;" x="375.48" xlink:href="#m9ab24ab9c0" y="220.541613"/>
     <use style="fill:#ffffff;stroke:#000000;stroke-linejoin:miter;" x="395.01" xlink:href="#m9ab24ab9c0" y="290.740675"/>
     <use style="fill:#ffffff;stroke:#000000;stroke-linejoin:miter;" x="414.54" xlink:href="#m9ab24ab9c0" y="211.702114"/>
     <use style="fill:#ffffff;stroke:#000000;stroke-linejoin:miter;" x="434.07" xlink:href="#m9ab24ab9c0" y="145.923214"/>
     <use style="fill:#ffffff;stroke:#000000;stroke-linejoin:miter;" x="453.6" xlink:href="#m9ab24ab9c0" y="115.287424"/>
    </g>
   </g>
   <g id="patch_3">
    <path d="M 63 220.5 
L 63 30.24 
" style="fill:none;stroke:#000000;stroke-linecap:square;stroke-linejoin:miter;stroke-width:0.8;"/>
   </g>
   <g id="patch_4">
    <path d="M 453.6 220.5 
L 453.6 30.24 
" style="fill:none;stroke:#000000;stroke-linecap:square;stroke-linejoin:miter;stroke-width:0.8;"/>
   </g>
   <g id="patch_5">
    <path d="M 63 220.5 
L 453.6 220.5 
" style="fill:none;stroke:#000000;stroke-linecap:square;stroke-linejoin:miter;stroke-width:0.8;"/>
   </g>
   <g id="patch_6">
    <path d="M 63 30.24 
L 453.6 30.24 
" style="fill:none;stroke:#000000;stroke-linecap:square;stroke-linejoin:miter;stroke-width:0.8;"/>
   </g>
  </g>
 </g>
 <defs>
  <clipPath id="pefcc5b4327">
   <rect height="190.26" width="390.6" x="63" y="30.24"/>
  </clipPath>
 </defs>
</svg>
