<?xml version="1.0" encoding="utf-8" standalone="no"?>
<!DOCTYPE svg PUBLIC "-//W3C//DTD SVG 1.1//EN"
  "http://www.w3.org/Graphics/SVG/1.1/DTD/svg11.dtd">
<!-- Created with matplotlib (https://matplotlib.org/) -->
<svg height="252pt" version="1.1" viewBox="0 0 504 252" width="504pt" xmlns="http://www.w3.org/2000/svg" xmlns:xlink="http://www.w3.org/1999/xlink">
 <defs>
  <style type="text/css">
*{stroke-linecap:butt;stroke-linejoin:round;}
  </style>
 </defs>
 <g id="figure_1">
  <g id="patch_1">
   <path d="M 0 252 
L 504 252 
L 504 0 
L 0 0 
z
" style="fill:none;"/>
  </g>
  <g id="axes_1">
   <g id="patch_2">
    <path d="M 63 220.5 
L 453.6 220.5 
L 453.6 30.24 
L 63 30.24 
z
" style="fill:none;"/>
   </g>
   <g id="matplotlib.axis_1">
    <g id="xtick_1"/>
    <g id="xtick_2"/>
    <g id="xtick_3"/>
    <g id="xtick_4"/>
    <g id="xtick_5"/>
    <g id="xtick_6"/>
   </g>
   <g id="matplotlib.axis_2">
    <g id="ytick_1"/>
    <g id="ytick_2"/>
    <g id="ytick_3"/>
    <g id="ytick_4"/>
    <g id="ytick_5"/>
    <g id="ytick_6"/>
    <g id="ytick_7"/>
   </g>
   <g id="line2d_1">
    <path clip-path="url(#pd9cbf6a195)" d="M 63 127.788797 
L 65.7342 124.809642 
L 69.2496 121.321822 
L 76.2804 114.763994 
L 81.3582 110.232208 
L 84.8736 107.375218 
L 89.1702 104.198561 
L 97.7634 98.219668 
L 101.6694 95.699984 
L 105.1848 93.702041 
L 108.7002 91.95845 
L 113.3874 89.896637 
L 119.2464 87.560503 
L 124.3242 85.762049 
L 130.1832 83.946956 
L 143.073 80.265433 
L 152.0568 77.978055 
L 157.9158 76.366041 
L 170.415 72.781127 
L 182.133 69.888459 
L 189.1638 68.34075 
L 195.804 67.108143 
L 200.4912 66.428906 
L 204.3972 66.094247 
L 207.9126 66.01234 
L 212.2092 66.152955 
L 216.8964 66.539641 
L 222.7554 67.267571 
L 234.0828 68.702749 
L 240.3324 69.302569 
L 244.629 69.494747 
L 248.535 69.448172 
L 252.8316 69.169087 
L 257.1282 68.673853 
L 261.8154 67.912702 
L 277.0488 65.252593 
L 283.2984 64.375591 
L 286.8138 64.093419 
L 290.3292 64.021654 
L 294.2352 64.170819 
L 298.1412 64.534143 
L 302.8284 65.200613 
L 316.89 67.592282 
L 323.9208 68.961527 
L 336.0294 71.388577 
L 345.4038 72.971012 
L 363.3714 75.863908 
L 373.527 77.973521 
L 379.386 79.360256 
L 383.6826 80.600651 
L 388.3698 82.19888 
L 395.4006 84.865801 
L 400.869 87.16494 
L 405.9468 89.557732 
L 420.0084 96.541904 
L 423.9144 98.801243 
L 428.211 101.56648 
L 433.6794 105.372144 
L 437.1948 108.05096 
L 439.929 110.393538 
L 442.2726 112.676178 
L 444.6162 115.273909 
L 446.9598 118.201147 
L 449.694 121.975069 
L 453.2094 127.236508 
L 453.6 127.84533 
L 453.6 127.84533 
" style="fill:none;stroke:#257352;stroke-linecap:square;stroke-width:2;"/>
   </g>
   <g id="line2d_2">
    <path clip-path="url(#pd9cbf6a195)" d="M 63 83.009098 
L 64.5624 85.585559 
L 66.1248 87.706346 
L 67.2966 88.961605 
L 68.4684 89.928462 
L 69.6402 90.625362 
L 70.812 91.086428 
L 72.3744 91.420356 
L 77.0616 92.054138 
L 78.2334 92.49373 
L 79.4052 93.124771 
L 80.9676 94.234395 
L 84.0924 96.884755 
L 86.0454 98.384169 
L 87.6078 99.313399 
L 89.1702 99.956279 
L 90.7326 100.330601 
L 92.6856 100.532225 
L 95.4198 100.757326 
L 96.9822 101.123767 
L 98.154 101.598416 
L 99.7164 102.519809 
L 101.2788 103.717861 
L 107.5284 108.852478 
L 109.4814 109.97435 
L 111.4344 110.809631 
L 113.778 111.539726 
L 120.0276 113.317053 
L 127.449 115.794038 
L 129.7926 116.224627 
L 132.1362 116.432269 
L 136.8234 116.529157 
L 139.5576 116.725638 
L 142.2918 117.159986 
L 146.979 117.956671 
L 148.932 118.055473 
L 150.885 117.935835 
L 152.838 117.601247 
L 155.9628 116.780048 
L 158.697 116.138432 
L 160.2594 115.969921 
L 161.8218 115.996369 
L 163.7748 116.275849 
L 167.2902 117.109758 
L 170.415 117.744644 
L 173.1492 118.040424 
L 176.6646 118.154821 
L 180.18 118.312542 
L 182.9142 118.661014 
L 187.2108 119.501017 
L 196.5852 121.501197 
L 198.5382 122.235636 
L 200.4912 123.219921 
L 202.8348 124.68236 
L 207.9126 127.957712 
L 210.6468 129.373679 
L 213.7716 130.71999 
L 217.287 132.012668 
L 219.6306 132.675658 
L 221.5836 133.010246 
L 223.5366 133.115298 
L 225.8802 133.007613 
L 232.911 132.310525 
L 236.0358 131.871081 
L 238.3794 131.297502 
L 240.3324 130.583077 
L 242.676 129.458139 
L 251.6598 124.786981 
L 258.3 121.84882 
L 260.6436 121.021259 
L 262.5966 120.58961 
L 264.159 120.457745 
L 266.112 120.531414 
L 269.6274 120.983412 
L 273.1428 121.347732 
L 278.6112 121.8009 
L 280.1736 122.168763 
L 281.736 122.75045 
L 283.2984 123.547971 
L 285.642 125.027905 
L 291.1104 128.600121 
L 295.0164 130.815897 
L 298.5318 132.583027 
L 300.8754 133.531588 
L 302.8284 134.085678 
L 304.7814 134.391527 
L 307.125 134.484133 
L 314.937 134.509 
L 317.6712 134.883718 
L 324.3114 136.000004 
L 326.2644 136.050496 
L 328.608 135.883902 
L 332.9046 135.279061 
L 337.5918 134.705416 
L 350.4816 133.493918 
L 353.2158 133.602013 
L 355.95 133.954772 
L 359.4654 134.662647 
L 363.762 135.505939 
L 366.4962 135.807884 
L 374.3082 136.445882 
L 376.2612 136.903324 
L 378.2142 137.558492 
L 380.5578 138.579305 
L 386.4168 141.301516 
L 388.3698 141.907607 
L 390.7134 142.402777 
L 395.4006 143.306135 
L 397.7442 144.025188 
L 400.869 145.280244 
L 403.6032 146.324998 
L 405.1656 146.724485 
L 406.728 146.921226 
L 408.681 146.917704 
L 413.3682 146.738382 
L 414.9306 146.936029 
L 416.493 147.351648 
L 418.0554 147.994634 
L 420.0084 149.082267 
L 423.1332 151.181221 
L 425.4768 152.659957 
L 427.4298 153.632022 
L 429.7734 154.515348 
L 432.5076 155.561902 
L 434.07 156.42323 
L 435.2418 157.292792 
L 436.4136 158.404592 
L 437.5854 159.794688 
L 438.7572 161.487364 
L 440.3196 164.225797 
L 441.882 167.468243 
L 444.2256 172.938086 
L 446.5692 178.335081 
L 448.1316 181.426919 
L 449.694 183.961656 
L 451.2564 186.039197 
L 453.6 188.924385 
L 453.6 188.924385 
" style="fill:none;stroke:#257352;stroke-dasharray:7.4,3.2;stroke-dashoffset:0;stroke-width:2;"/>
   </g>
   <g id="line2d_3">
    <path clip-path="url(#pd9cbf6a195)" d="M 63 127.788797 
L 66.1248 124.26122 
L 70.0308 120.215071 
L 80.577 109.754195 
L 84.0924 106.556564 
L 87.9984 103.321935 
L 93.8574 98.817703 
L 99.3258 94.825701 
L 102.4506 92.785996 
L 105.5754 91.008243 
L 109.0908 89.29431 
L 112.9968 87.646043 
L 117.684 85.911493 
L 121.9806 84.53907 
L 126.6678 83.28739 
L 132.5268 81.982498 
L 140.7294 80.398146 
L 148.932 79.063292 
L 155.5722 77.909436 
L 160.65 76.779365 
L 175.1022 73.151183 
L 183.3048 70.880334 
L 194.2416 67.889834 
L 201.663 66.040873 
L 205.569 65.316819 
L 209.0844 64.893059 
L 212.9904 64.645704 
L 217.287 64.594788 
L 221.5836 64.758945 
L 226.6614 65.187776 
L 233.6922 66.023408 
L 245.8008 67.527062 
L 250.488 67.785714 
L 255.5658 67.832784 
L 262.206 67.64864 
L 279.0018 66.849776 
L 286.4232 66.540891 
L 291.501 66.573298 
L 296.5788 66.833365 
L 302.8284 67.400611 
L 315.7182 68.628624 
L 326.2644 69.645879 
L 354.3876 72.749739 
L 359.4654 73.633068 
L 364.5432 74.760896 
L 371.574 76.594457 
L 377.433 78.31289 
L 381.7296 79.808479 
L 385.6356 81.404871 
L 391.4946 84.084042 
L 399.3066 87.887852 
L 405.1656 91.022312 
L 412.587 94.981291 
L 422.352 100.076369 
L 427.0392 102.858337 
L 433.2888 106.845293 
L 437.1948 109.55439 
L 439.929 111.690892 
L 442.2726 113.773611 
L 444.6162 116.148977 
L 446.9598 118.835327 
L 449.694 122.317122 
L 452.8188 126.646804 
L 453.6 127.780506 
L 453.6 127.780506 
" style="fill:none;stroke:#ff6e54;stroke-linecap:square;stroke-width:2;"/>
   </g>
   <g id="line2d_4">
    <path clip-path="url(#pd9cbf6a195)" d="M 63 81.367632 
L 64.5624 83.768287 
L 66.1248 85.726329 
L 67.2966 86.861902 
L 68.4684 87.707278 
L 69.6402 88.27875 
L 70.812 88.609819 
L 72.3744 88.765659 
L 76.671 88.86203 
L 77.8428 89.170211 
L 79.0146 89.698537 
L 80.1864 90.445708 
L 81.7488 91.713018 
L 86.436 95.79466 
L 87.9984 96.775047 
L 89.5608 97.466857 
L 91.1232 97.904995 
L 96.5916 99.108938 
L 97.7634 99.705904 
L 98.9352 100.509626 
L 100.4976 101.875514 
L 102.8412 104.31787 
L 105.966 107.56189 
L 107.919 109.266144 
L 109.872 110.652012 
L 111.825 111.758837 
L 114.5592 113.008751 
L 120.4182 115.580411 
L 125.496 117.863224 
L 127.8396 118.67258 
L 130.1832 119.269875 
L 132.9174 119.745796 
L 143.4636 121.332839 
L 146.1978 121.652227 
L 148.1508 121.689476 
L 150.1038 121.522954 
L 152.0568 121.141474 
L 154.4004 120.431157 
L 160.65 118.329733 
L 162.603 118.036823 
L 164.9466 117.963524 
L 171.5868 117.986782 
L 174.321 117.672378 
L 180.9612 116.731014 
L 183.3048 116.710634 
L 186.4296 116.934223 
L 191.898 117.336968 
L 196.5852 117.646161 
L 198.5382 118.034784 
L 200.1006 118.566933 
L 201.663 119.319635 
L 203.616 120.522537 
L 210.2562 124.907883 
L 212.9904 126.325086 
L 219.24 129.201622 
L 222.7554 130.667666 
L 225.099 131.413327 
L 227.8332 132.040903 
L 232.1298 132.752882 
L 235.6452 133.157874 
L 237.9888 133.20305 
L 239.9418 132.992386 
L 241.8948 132.512587 
L 244.2384 131.638715 
L 251.6598 128.574189 
L 254.7846 127.612509 
L 258.3 126.7722 
L 261.0342 126.321364 
L 263.7684 126.08877 
L 267.6744 126.030247 
L 272.7522 125.924418 
L 279.783 125.664911 
L 281.736 125.864136 
L 283.689 126.277629 
L 286.4232 127.13115 
L 296.9694 130.709058 
L 299.7036 131.39682 
L 302.0472 131.76192 
L 304.3908 131.866295 
L 307.125 131.715702 
L 314.1558 131.16568 
L 317.2806 131.227429 
L 321.1866 131.573049 
L 325.4832 131.930948 
L 328.608 131.960087 
L 341.4978 131.749728 
L 345.7944 132.069479 
L 349.3098 132.539735 
L 352.4346 133.183383 
L 355.1688 133.96054 
L 358.6842 135.224994 
L 363.3714 136.952074 
L 365.715 137.581369 
L 368.4492 138.068844 
L 373.1364 138.824271 
L 375.0894 139.348537 
L 377.0424 140.082872 
L 378.9954 141.034246 
L 382.1202 142.861686 
L 384.8544 144.404065 
L 386.8074 145.239244 
L 388.7604 145.781909 
L 391.104 146.13853 
L 395.4006 146.706307 
L 397.7442 147.290241 
L 403.9938 149.151938 
L 405.5562 149.250441 
L 407.1186 149.099418 
L 409.0716 148.64448 
L 412.9776 147.653042 
L 414.54 147.500986 
L 416.1024 147.573481 
L 417.6648 147.88158 
L 419.2272 148.405645 
L 421.5708 149.480873 
L 425.4768 151.346049 
L 427.4298 152.014525 
L 430.5546 152.768364 
L 432.5076 153.332802 
L 434.07 154.030177 
L 435.2418 154.771947 
L 436.4136 155.747032 
L 437.5854 156.988323 
L 438.7572 158.518454 
L 440.3196 161.019765 
L 441.882 164.009707 
L 444.2256 169.113078 
L 446.9598 175.033728 
L 448.5222 177.925232 
L 450.0846 180.348289 
L 452.4282 183.439969 
L 453.6 185.0105 
L 453.6 185.0105 
" style="fill:none;stroke:#ff6e54;stroke-dasharray:7.4,3.2;stroke-dashoffset:0;stroke-width:2;"/>
   </g>
   <g id="line2d_5">
    <path clip-path="url(#pd9cbf6a195)" d="M 63 127.788797 
L 65.7342 123.637005 
L 69.2496 118.761969 
L 76.2804 109.544748 
L 81.3582 103.131915 
L 84.8736 99.069928 
L 88.7796 94.935134 
L 96.5916 87.112185 
L 100.8882 83.041479 
L 104.013 80.395566 
L 107.1378 78.05862 
L 110.6532 75.722483 
L 115.3404 72.905461 
L 120.0276 70.331128 
L 124.3242 68.224831 
L 129.0114 66.196756 
L 136.8234 63.112309 
L 143.8542 60.523433 
L 150.885 58.22638 
L 156.744 56.215468 
L 173.9304 49.950091 
L 187.2108 45.677907 
L 193.4604 43.940457 
L 198.9288 42.631006 
L 202.4442 42.001605 
L 205.569 41.661609 
L 208.6938 41.535834 
L 212.2092 41.60774 
L 216.5058 41.934929 
L 221.193 42.524245 
L 239.9418 45.138931 
L 243.8478 45.393284 
L 247.3632 45.394279 
L 250.8786 45.181395 
L 254.7846 44.721192 
L 258.6906 44.043972 
L 264.159 42.832014 
L 271.5804 41.213105 
L 279.783 39.691606 
L 283.689 39.149877 
L 286.8138 38.921879 
L 289.9386 38.907248 
L 293.454 39.129512 
L 296.9694 39.580811 
L 300.8754 40.316464 
L 307.125 41.774831 
L 325.8738 46.359435 
L 333.2952 48.269585 
L 340.326 49.826711 
L 348.138 51.334349 
L 357.903 53.210242 
L 362.9808 54.436932 
L 369.621 56.296939 
L 376.2612 58.339711 
L 380.1672 59.745252 
L 383.6826 61.236789 
L 387.5886 63.152133 
L 393.057 66.117321 
L 398.1348 69.085472 
L 402.4314 71.859544 
L 408.2904 75.981648 
L 420.7896 84.989854 
L 424.305 87.92109 
L 428.211 91.475541 
L 433.2888 96.400909 
L 436.8042 100.083487 
L 439.5384 103.272931 
L 441.882 106.362725 
L 444.2256 109.871989 
L 446.5692 113.83278 
L 449.3034 118.960651 
L 452.4282 125.312177 
L 453.6 127.803544 
L 453.6 127.803544 
" style="fill:none;stroke:#8454ff;stroke-linecap:square;stroke-width:2;"/>
   </g>
   <g id="line2d_6">
    <path clip-path="url(#pd9cbf6a195)" d="M 63 65.457062 
L 64.5624 68.962854 
L 65.7342 71.184397 
L 66.906 73.010342 
L 68.0778 74.431765 
L 69.2496 75.465545 
L 70.4214 76.151307 
L 71.5932 76.549656 
L 73.1556 76.775005 
L 76.2804 77.089229 
L 77.4522 77.475312 
L 78.624 78.11986 
L 79.7958 79.036459 
L 81.3582 80.615799 
L 86.436 86.210933 
L 87.6078 87.126205 
L 88.7796 87.814577 
L 89.9514 88.282271 
L 91.5138 88.618728 
L 96.201 89.214418 
L 97.3728 89.714797 
L 98.5446 90.481471 
L 99.7164 91.51683 
L 101.2788 93.242642 
L 107.5284 100.689841 
L 109.0908 102.043094 
L 110.6532 103.127955 
L 112.6062 104.177066 
L 115.3404 105.328233 
L 118.4652 106.667483 
L 121.1994 108.092977 
L 125.8866 110.596978 
L 127.8396 111.38692 
L 129.7926 111.950207 
L 131.7456 112.300841 
L 134.4798 112.552896 
L 137.9952 112.87479 
L 140.3388 113.331132 
L 143.4636 114.231219 
L 146.1978 114.964086 
L 148.1508 115.251065 
L 149.7132 115.275078 
L 151.2756 115.101335 
L 153.2286 114.628033 
L 155.9628 113.66479 
L 158.3064 112.887337 
L 159.8688 112.576194 
L 161.4312 112.507865 
L 162.9936 112.68094 
L 164.9466 113.14437 
L 170.0244 114.508558 
L 172.368 114.831705 
L 174.7116 114.925819 
L 180.9612 115.027062 
L 183.3048 115.371562 
L 187.2108 116.241673 
L 196.5852 118.494809 
L 198.1476 119.175514 
L 199.71 120.075123 
L 201.663 121.510108 
L 204.3972 123.886496 
L 207.522 126.547386 
L 209.8656 128.234881 
L 212.2092 129.651718 
L 215.334 131.257217 
L 218.0682 132.4534 
L 220.4118 133.233173 
L 222.3648 133.623646 
L 224.3178 133.771339 
L 227.052 133.706298 
L 233.3016 133.243683 
L 235.6452 132.913466 
L 237.5982 132.429343 
L 239.1606 131.845119 
L 241.1136 130.843479 
L 243.4572 129.321879 
L 249.7068 125.04216 
L 254.0034 122.512425 
L 258.3 120.205568 
L 260.253 119.374408 
L 261.8154 118.922723 
L 263.3778 118.712889 
L 264.9402 118.743573 
L 266.8932 119.034275 
L 273.1428 120.20531 
L 278.2206 120.892654 
L 279.783 121.360196 
L 281.3454 122.080621 
L 282.9078 123.068801 
L 284.8608 124.597102 
L 291.8916 130.417554 
L 295.7976 133.21518 
L 298.5318 134.95796 
L 300.4848 135.980571 
L 302.0472 136.590138 
L 303.6096 136.978654 
L 305.172 137.14998 
L 307.125 137.124729 
L 314.1558 136.729769 
L 316.4994 136.962299 
L 319.2336 137.487136 
L 323.1396 138.256172 
L 325.0926 138.39905 
L 327.0456 138.303155 
L 329.3892 137.932635 
L 339.1542 136.05028 
L 347.3568 134.938736 
L 349.7004 134.849078 
L 352.044 134.9884 
L 354.3876 135.375889 
L 356.7312 135.988998 
L 360.6372 137.301768 
L 363.762 138.263492 
L 366.1056 138.755718 
L 369.2304 139.152645 
L 372.3552 139.587689 
L 374.3082 140.065426 
L 376.2612 140.792235 
L 378.2142 141.800504 
L 380.1672 143.068551 
L 386.4168 147.443965 
L 388.3698 148.363357 
L 390.3228 149.012436 
L 395.7912 150.635577 
L 397.7442 151.540511 
L 400.0878 152.886709 
L 403.2126 154.670495 
L 404.775 155.288437 
L 405.9468 155.556613 
L 407.5092 155.650762 
L 409.4622 155.461823 
L 412.587 155.094085 
L 414.1494 155.16444 
L 415.3212 155.402714 
L 416.493 155.819614 
L 418.0554 156.656053 
L 419.6178 157.780854 
L 421.9614 159.826823 
L 425.0862 162.553019 
L 426.6486 163.645437 
L 428.211 164.505635 
L 433.2888 167.033601 
L 434.4606 167.995481 
L 435.6324 169.254086 
L 436.8042 170.867225 
L 437.976 172.879098 
L 439.1478 175.315794 
L 440.7102 179.222863 
L 442.2726 183.788732 
L 447.741 200.644993 
L 449.3034 204.285357 
L 450.8658 207.242647 
L 453.6 211.851818 
L 453.6 211.851818 
" style="fill:none;stroke:#8454ff;stroke-dasharray:7.4,3.2;stroke-dashoffset:0;stroke-width:2;"/>
   </g>
   <g id="patch_3">
    <path d="M 63 220.5 
L 63 30.24 
" style="fill:none;stroke:#000000;stroke-linecap:square;stroke-linejoin:miter;stroke-width:0.8;"/>
   </g>
   <g id="patch_4">
    <path d="M 453.6 220.5 
L 453.6 30.24 
" style="fill:none;stroke:#000000;stroke-linecap:square;stroke-linejoin:miter;stroke-width:0.8;"/>
   </g>
   <g id="patch_5">
    <path d="M 63 220.5 
L 453.6 220.5 
" style="fill:none;stroke:#000000;stroke-linecap:square;stroke-linejoin:miter;stroke-width:0.8;"/>
   </g>
   <g id="patch_6">
    <path d="M 63 30.24 
L 453.6 30.24 
" style="fill:none;stroke:#000000;stroke-linecap:square;stroke-linejoin:miter;stroke-width:0.8;"/>
   </g>
  </g>
 </g>
 <defs>
  <clipPath id="pd9cbf6a195">
   <rect height="190.26" width="390.6" x="63" y="30.24"/>
  </clipPath>
 </defs>
</svg>
