<?xml version="1.0" encoding="utf-8" standalone="no"?>
<!DOCTYPE svg PUBLIC "-//W3C//DTD SVG 1.1//EN"
  "http://www.w3.org/Graphics/SVG/1.1/DTD/svg11.dtd">
<!-- Created with matplotlib (https://matplotlib.org/) -->
<svg height="252pt" version="1.1" viewBox="0 0 504 252" width="504pt" xmlns="http://www.w3.org/2000/svg" xmlns:xlink="http://www.w3.org/1999/xlink">
 <defs>
  <style type="text/css">
*{stroke-linecap:butt;stroke-linejoin:round;}
  </style>
 </defs>
 <g id="figure_1">
  <g id="patch_1">
   <path d="M 0 252 
L 504 252 
L 504 0 
L 0 0 
z
" style="fill:none;"/>
  </g>
  <g id="axes_1">
   <g id="patch_2">
    <path d="M 63 220.5 
L 453.6 220.5 
L 453.6 30.24 
L 63 30.24 
z
" style="fill:none;"/>
   </g>
   <g id="matplotlib.axis_1">
    <g id="xtick_1"/>
    <g id="xtick_2"/>
    <g id="xtick_3"/>
    <g id="xtick_4"/>
    <g id="xtick_5"/>
    <g id="xtick_6"/>
   </g>
   <g id="matplotlib.axis_2">
    <g id="ytick_1"/>
    <g id="ytick_2"/>
    <g id="ytick_3"/>
    <g id="ytick_4"/>
    <g id="ytick_5"/>
   </g>
   <g id="line2d_1">
    <path clip-path="url(#pa304c39524)" d="M 63 187.76439 
L 63.7812 185.573683 
L 64.5624 182.442348 
L 65.7342 176.276238 
L 67.2966 166.209611 
L 70.0308 147.954003 
L 71.2026 141.667371 
L 71.9838 138.465736 
L 72.765 136.239485 
L 73.1556 135.530959 
L 73.5462 135.107395 
L 73.9368 134.976122 
L 74.3274 135.140749 
L 74.718 135.600835 
L 75.1086 136.351605 
L 75.8898 138.683287 
L 76.671 142.005593 
L 77.8428 148.388623 
L 80.9676 166.684302 
L 81.7488 169.94969 
L 82.53 172.25179 
L 82.9206 173.007479 
L 83.3112 173.49106 
L 83.7018 173.701996 
L 84.0924 173.644172 
L 84.483 173.325595 
L 84.8736 172.758042 
L 85.6548 170.939739 
L 86.436 168.344598 
L 87.6078 163.421925 
L 90.342 151.126224 
L 91.1232 148.473313 
L 91.9044 146.610074 
L 92.295 146.032909 
L 92.6856 145.718209 
L 93.0762 145.681736 
L 93.4668 145.935624 
L 93.8574 146.487938 
L 94.248 147.342261 
L 95.0292 149.946782 
L 95.8104 153.676665 
L 96.9822 161.015452 
L 100.8882 188.667138 
L 101.6694 192.411325 
L 102.4506 195.025118 
L 102.8412 195.879934 
L 103.2318 196.428453 
L 103.6224 196.672888 
L 104.013 196.619735 
L 104.4036 196.279353 
L 104.7942 195.665509 
L 105.5754 193.6868 
L 106.3566 190.844701 
L 107.5284 185.377989 
L 111.825 163.459933 
L 112.6062 160.783485 
L 113.3874 158.869158 
L 113.778 158.222989 
L 114.1686 157.792164 
L 114.5592 157.578958 
L 114.9498 157.582453 
L 115.3404 157.79842 
L 115.731 158.219258 
L 116.5122 159.628305 
L 117.2934 161.68293 
L 118.4652 165.586538 
L 120.4182 172.455144 
L 121.1994 174.669867 
L 121.9806 176.285038 
L 122.3712 176.821271 
L 122.7618 177.157889 
L 123.1524 177.28491 
L 123.543 177.195637 
L 123.9336 176.886617 
L 124.3242 176.357535 
L 125.1054 174.652684 
L 125.8866 172.134817 
L 126.6678 168.895396 
L 127.8396 162.956253 
L 129.7926 151.468409 
L 131.7456 140.358834 
L 132.9174 135.030116 
L 133.6986 132.372609 
L 134.4798 130.584577 
L 134.8704 130.047689 
L 135.261 129.760307 
L 135.6516 129.72723 
L 136.0422 129.949888 
L 136.4328 130.426104 
L 136.8234 131.149888 
L 137.6046 133.296499 
L 138.3858 136.263065 
L 139.5576 141.829786 
L 142.2918 155.561788 
L 143.073 158.501808 
L 143.8542 160.625282 
L 144.2448 161.34213 
L 144.6354 161.816719 
L 145.026 162.045024 
L 145.4166 162.027082 
L 145.8072 161.766819 
L 146.1978 161.271813 
L 146.979 159.624534 
L 147.7602 157.208267 
L 148.932 152.506672 
L 152.0568 138.682566 
L 152.838 136.179851 
L 153.6192 134.50239 
L 154.0098 134.031998 
L 154.4004 133.833703 
L 154.791 133.923533 
L 155.1816 134.313813 
L 155.5722 135.012682 
L 155.9628 136.023627 
L 156.744 138.970095 
L 157.5252 143.074952 
L 158.697 151.013599 
L 162.603 180.243488 
L 163.3842 184.094352 
L 164.1654 186.725166 
L 164.556 187.555649 
L 164.9466 188.059012 
L 165.3372 188.238619 
L 165.7278 188.102342 
L 166.1184 187.662103 
L 166.509 186.933386 
L 167.2902 184.687309 
L 168.0714 181.540895 
L 169.2432 175.585149 
L 173.1492 154.089555 
L 173.9304 151.069894 
L 174.7116 148.879236 
L 175.1022 148.130128 
L 175.4928 147.624928 
L 175.8834 147.369344 
L 176.274 147.36547 
L 176.6646 147.611555 
L 177.0552 148.101834 
L 177.8364 149.771265 
L 178.6176 152.245471 
L 179.7894 157.036727 
L 182.133 167.289553 
L 182.9142 169.901816 
L 183.6954 171.720916 
L 184.086 172.281041 
L 184.4766 172.588273 
L 184.8672 172.632702 
L 185.2578 172.408429 
L 185.6484 171.913438 
L 186.039 171.14941 
L 186.8202 168.838005 
L 187.6014 165.551862 
L 188.7732 159.065061 
L 190.3356 148.369021 
L 193.4604 125.971092 
L 194.6322 119.472626 
L 195.4134 116.293239 
L 196.1946 114.247148 
L 196.5852 113.694138 
L 196.9758 113.472135 
L 197.3664 113.589453 
L 197.757 114.049841 
L 198.1476 114.852 
L 198.9288 117.448825 
L 199.71 121.25576 
L 200.8818 128.734464 
L 204.0066 150.685427 
L 204.7878 154.598161 
L 205.569 157.299798 
L 205.9596 158.149153 
L 206.3502 158.651477 
L 206.7408 158.804848 
L 207.1314 158.613094 
L 207.522 158.085396 
L 207.9126 157.235846 
L 208.6938 154.649219 
L 209.475 151.045989 
L 210.6468 144.274351 
L 213.381 127.351407 
L 214.1622 123.718358 
L 214.9434 121.239001 
L 215.334 120.53027 
L 215.7246 120.222754 
L 216.1152 120.347136 
L 216.5058 120.929108 
L 216.8964 121.988309 
L 217.287 123.537241 
L 218.0682 128.112485 
L 218.8494 134.575676 
L 220.0212 147.233985 
L 223.5366 190.194714 
L 224.3178 197.037289 
L 225.099 201.992941 
L 225.4896 203.714759 
L 225.8802 204.926383 
L 226.2708 205.63416 
L 226.6614 205.852065 
L 227.052 205.600635 
L 227.4426 204.905886 
L 227.8332 203.798276 
L 228.6144 200.482772 
L 229.3956 195.952296 
L 230.5674 187.576121 
L 234.0828 160.928163 
L 234.864 156.524221 
L 235.6452 153.187312 
L 236.4264 151.084558 
L 236.817 150.532735 
L 237.2076 150.32502 
L 237.5982 150.463603 
L 237.9888 150.945318 
L 238.3794 151.761329 
L 239.1606 154.331523 
L 239.9418 157.986252 
L 241.1136 164.879905 
L 243.4572 179.184299 
L 244.2384 182.733277 
L 245.0196 185.172533 
L 245.4102 185.916241 
L 245.8008 186.322286 
L 246.1914 186.382491 
L 246.582 186.094098 
L 246.9726 185.459415 
L 247.3632 184.48539 
L 248.1444 181.567504 
L 248.9256 177.470845 
L 250.0974 169.506509 
L 251.6598 156.627428 
L 254.394 133.377923 
L 255.5658 125.40171 
L 256.347 121.387651 
L 257.1282 118.684713 
L 257.5188 117.885746 
L 257.9094 117.480946 
L 258.3 117.484335 
L 258.6906 117.904784 
L 259.0812 118.7453 
L 259.4718 120.002383 
L 260.253 123.71662 
L 261.0342 128.872931 
L 262.206 138.639417 
L 264.9402 163.111889 
L 265.7214 168.44722 
L 266.5026 172.394234 
L 267.2838 174.779495 
L 267.6744 175.366364 
L 268.065 175.553285 
L 268.4556 175.351378 
L 268.8462 174.777538 
L 269.2368 173.853746 
L 270.018 171.065535 
L 270.7992 167.238991 
L 271.971 160.20349 
L 274.3146 145.581124 
L 275.0958 141.806945 
L 275.877 139.139704 
L 276.2676 138.315222 
L 276.6582 137.874508 
L 277.0488 137.845843 
L 277.4394 138.252489 
L 277.83 139.111769 
L 278.2206 140.434158 
L 279.0018 144.470771 
L 279.783 150.279084 
L 280.9548 161.765119 
L 284.8608 204.536494 
L 285.642 210.073276 
L 286.4232 213.823015 
L 286.8138 215.00284 
L 287.2044 215.722531 
L 287.595 215.993464 
L 287.9856 215.833086 
L 288.3762 215.263961 
L 288.7668 214.31284 
L 289.548 211.387365 
L 290.3292 207.323128 
L 291.501 199.719341 
L 295.0164 174.890772 
L 296.1882 168.729034 
L 296.9694 165.777267 
L 297.7506 163.891952 
L 298.1412 163.371138 
L 298.5318 163.135798 
L 298.9224 163.184016 
L 299.313 163.50956 
L 299.7036 164.101779 
L 300.4848 166.021479 
L 301.266 168.771249 
L 302.4378 173.930693 
L 304.3908 182.877228 
L 305.172 185.728845 
L 305.9532 187.800278 
L 306.3438 188.489175 
L 306.7344 188.926312 
L 307.125 189.101677 
L 307.5156 189.009507 
L 307.9062 188.648138 
L 308.2968 188.019769 
L 309.078 185.988444 
L 309.8592 182.999067 
L 310.6404 179.176801 
L 311.8122 172.230435 
L 316.4994 142.257466 
L 317.2806 138.913972 
L 318.0618 136.523366 
L 318.4524 135.726164 
L 318.843 135.210868 
L 319.2336 134.985915 
L 319.6242 135.056137 
L 320.0148 135.422417 
L 320.4054 136.081386 
L 321.1866 138.24136 
L 321.9678 141.417623 
L 323.1396 147.652894 
L 326.2644 166.085952 
L 327.0456 169.490463 
L 327.8268 171.954649 
L 328.2174 172.796149 
L 328.608 173.366682 
L 328.9986 173.664247 
L 329.3892 173.691353 
L 329.7798 173.454728 
L 330.1704 172.964989 
L 330.9516 171.285852 
L 331.7328 168.802404 
L 332.9046 163.985205 
L 336.0294 150.146275 
L 336.8106 147.73987 
L 337.5918 146.189112 
L 337.9824 145.788937 
L 338.373 145.662341 
L 338.7636 145.822662 
L 339.1542 146.279307 
L 339.5448 147.03733 
L 340.326 149.453743 
L 341.1072 153.012744 
L 341.8884 157.57046 
L 343.0602 165.768942 
L 345.7944 185.65593 
L 346.5756 190.061485 
L 347.3568 193.434629 
L 348.138 195.640872 
L 348.5286 196.286932 
L 348.9192 196.627718 
L 349.3098 196.668407 
L 349.7004 196.418175 
L 350.091 195.889754 
L 350.8722 194.064294 
L 351.6534 191.347673 
L 352.8252 186.010057 
L 354.7782 175.456973 
L 356.3406 167.364992 
L 357.5124 162.468715 
L 358.2936 160.040963 
L 359.0748 158.405635 
L 359.4654 157.905822 
L 359.856 157.623242 
L 360.2466 157.55801 
L 360.6372 157.706962 
L 361.0278 158.063574 
L 361.809 159.356798 
L 362.5902 161.319098 
L 363.762 165.142589 
L 366.1056 173.266361 
L 366.8868 175.295703 
L 367.668 176.671563 
L 368.0586 177.073005 
L 368.4492 177.267671 
L 368.8398 177.247822 
L 369.2304 177.00898 
L 369.621 176.549843 
L 370.4022 174.980516 
L 371.1834 172.586899 
L 371.9646 169.45494 
L 373.1364 163.63633 
L 375.0894 152.218728 
L 377.0424 141.001219 
L 378.2142 135.525489 
L 378.9954 132.740614 
L 379.7766 130.80679 
L 380.1672 130.191941 
L 380.5578 129.824411 
L 380.9484 129.710008 
L 381.339 129.851266 
L 381.7296 130.247181 
L 382.1202 130.892994 
L 382.9014 132.895705 
L 383.6826 135.742684 
L 384.8544 141.194584 
L 387.5886 155.029193 
L 388.3698 158.084334 
L 389.151 160.347284 
L 389.9322 161.692169 
L 390.3228 161.99911 
L 390.7134 162.059361 
L 391.104 161.875631 
L 391.4946 161.454363 
L 392.2758 159.942078 
L 393.057 157.638299 
L 394.2288 153.05119 
L 397.7442 137.74986 
L 398.5254 135.505642 
L 399.3066 134.153158 
L 399.6972 133.86629 
L 400.0878 133.862818 
L 400.4784 134.156303 
L 400.869 134.756268 
L 401.2596 135.667729 
L 402.0408 138.420181 
L 402.822 142.349475 
L 403.9938 150.090037 
L 405.9468 165.572731 
L 407.5092 177.113996 
L 408.2904 181.684212 
L 409.0716 185.133483 
L 409.8528 187.326646 
L 410.2434 187.934069 
L 410.634 188.216154 
L 411.0246 188.179385 
L 411.4152 187.834447 
L 411.8058 187.195742 
L 412.587 185.110279 
L 413.3682 182.094133 
L 414.54 176.269545 
L 418.446 154.637731 
L 419.2272 151.498695 
L 420.0084 149.167687 
L 420.7896 147.75896 
L 421.1802 147.423461 
L 421.5708 147.339412 
L 421.9614 147.506309 
L 422.352 147.91968 
L 422.7426 148.570955 
L 423.5238 150.532241 
L 424.305 153.24017 
L 425.4768 158.233436 
L 427.4298 166.813883 
L 428.211 169.533932 
L 428.9922 171.491546 
L 429.3828 172.129487 
L 429.7734 172.518542 
L 430.164 172.647512 
L 430.5546 172.509229 
L 430.9452 172.100459 
L 431.3358 171.42173 
L 432.117 169.273944 
L 432.8982 166.136022 
L 433.6794 162.121236 
L 434.8512 154.784236 
L 436.8042 140.585979 
L 438.7572 126.759095 
L 439.929 120.072239 
L 440.7102 116.727931 
L 441.4914 114.490905 
L 441.882 113.834877 
L 442.2726 113.506331 
L 442.6632 113.51493 
L 443.0538 113.865931 
L 443.4444 114.559692 
L 443.835 115.59123 
L 444.6162 118.619084 
L 445.3974 122.793124 
L 446.5692 130.637162 
L 449.3034 149.964863 
L 450.0846 154.051095 
L 450.8658 156.957501 
L 451.2564 157.916015 
L 451.647 158.529372 
L 452.0376 158.793747 
L 452.4282 158.711176 
L 452.8188 158.289181 
L 453.2094 157.540343 
L 453.6 156.481821 
L 453.6 156.481821 
" style="fill:none;stroke:#8cbfb9;stroke-linecap:square;stroke-width:4;"/>
   </g>
   <g id="line2d_2">
    <path clip-path="url(#pa304c39524)" d="M 63 203.823113 
L 64.1718 200.244237 
L 64.953 197.027454 
L 66.1248 191.177794 
L 70.0308 170.14933 
L 71.2026 165.561829 
L 71.9838 163.382697 
L 72.765 162.025197 
L 73.1556 161.677643 
L 73.5462 161.557986 
L 73.9368 161.669485 
L 74.3274 162.011205 
L 74.718 162.579836 
L 75.4992 164.364358 
L 76.2804 166.9207 
L 77.4522 171.837779 
L 80.1864 184.241527 
L 80.9676 186.922725 
L 81.7488 188.878507 
L 82.53 190.023804 
L 82.9206 190.285311 
L 83.3112 190.344429 
L 83.7018 190.208634 
L 84.0924 189.889836 
L 84.8736 188.759551 
L 85.6548 187.087034 
L 86.8266 183.894534 
L 89.5608 175.875843 
L 90.7326 173.260813 
L 91.5138 172.05592 
L 92.295 171.374623 
L 92.6856 171.248548 
L 93.0762 171.271699 
L 93.4668 171.446681 
L 93.8574 171.773502 
L 94.6386 172.870307 
L 95.4198 174.508683 
L 96.5916 177.747841 
L 99.3258 185.971695 
L 100.107 187.655073 
L 100.8882 188.78525 
L 101.2788 189.123586 
L 101.6694 189.308241 
L 102.06 189.342039 
L 102.4506 189.230932 
L 103.2318 188.611199 
L 104.013 187.54279 
L 105.1848 185.346475 
L 109.872 175.506881 
L 111.0438 173.699912 
L 112.2156 172.263537 
L 113.3874 171.171464 
L 114.5592 170.370291 
L 116.1216 169.624165 
L 120.8088 167.72556 
L 123.1524 166.34915 
L 127.0584 164.01687 
L 129.0114 163.111594 
L 130.9644 162.420688 
L 133.308 161.830337 
L 136.4328 161.30009 
L 139.9482 160.694745 
L 141.9012 160.154175 
L 143.4636 159.52821 
L 145.026 158.66435 
L 146.1978 157.81255 
L 147.3696 156.738768 
L 148.5414 155.395107 
L 149.7132 153.737435 
L 150.885 151.741916 
L 152.4474 148.607199 
L 155.1816 142.881837 
L 155.9628 141.636849 
L 156.744 140.781265 
L 157.1346 140.533004 
L 157.5252 140.418628 
L 157.9158 140.444818 
L 158.3064 140.615103 
L 159.0876 141.38289 
L 159.8688 142.672464 
L 161.0406 145.338859 
L 163.7748 152.206364 
L 164.556 153.695126 
L 165.3372 154.819779 
L 166.1184 155.560754 
L 166.8996 155.930378 
L 167.6808 155.963824 
L 168.462 155.71062 
L 169.2432 155.227809 
L 170.415 154.207751 
L 173.5398 151.230787 
L 174.321 150.76263 
L 175.1022 150.519329 
L 175.8834 150.547885 
L 176.6646 150.88019 
L 177.4458 151.527796 
L 178.227 152.477785 
L 179.3988 154.375624 
L 183.3048 161.476436 
L 184.086 162.418115 
L 184.8672 163.088808 
L 185.6484 163.489376 
L 186.4296 163.641279 
L 187.2108 163.580545 
L 188.3826 163.189914 
L 190.3356 162.14842 
L 191.898 161.387211 
L 193.0698 161.083117 
L 193.851 161.081317 
L 194.6322 161.280269 
L 195.4134 161.708154 
L 196.1946 162.382278 
L 196.9758 163.304041 
L 198.1476 165.099772 
L 201.663 171.12833 
L 202.4442 171.937939 
L 203.2254 172.374452 
L 204.0066 172.420722 
L 204.7878 172.10321 
L 205.569 171.483241 
L 206.7408 170.166782 
L 210.6468 165.329727 
L 212.2092 163.854812 
L 214.9434 161.692928 
L 217.287 159.695037 
L 220.4118 156.850241 
L 221.5836 156.143569 
L 222.3648 155.880964 
L 223.146 155.788345 
L 224.3178 155.910805 
L 229.005 156.895672 
L 230.5674 156.794373 
L 234.864 156.217929 
L 235.6452 156.362523 
L 236.4264 156.68922 
L 237.2076 157.236287 
L 237.9888 158.028962 
L 238.77 159.071673 
L 239.9418 161.046403 
L 243.4572 167.504305 
L 244.2384 168.45914 
L 245.0196 169.108369 
L 245.8008 169.448071 
L 246.582 169.502157 
L 247.3632 169.313916 
L 248.535 168.694367 
L 250.0974 167.515814 
L 253.2222 165.087113 
L 254.7846 164.170343 
L 255.9564 163.682076 
L 257.1282 163.388666 
L 258.3 163.301919 
L 259.4718 163.413807 
L 261.0342 163.793721 
L 263.3778 164.407656 
L 264.5496 164.506993 
L 265.7214 164.391214 
L 266.8932 164.074485 
L 268.4556 163.432661 
L 271.5804 161.832566 
L 274.3146 160.205676 
L 278.6112 157.403865 
L 279.3924 157.13576 
L 280.1736 157.056592 
L 280.9548 157.196822 
L 281.736 157.559607 
L 282.9078 158.449538 
L 286.0326 161.248739 
L 287.2044 161.906029 
L 288.3762 162.259884 
L 289.548 162.366786 
L 291.1104 162.262539 
L 294.6258 161.686638 
L 298.5318 161.149039 
L 302.4378 160.843354 
L 307.125 160.707565 
L 313.3746 160.766976 
L 321.1866 160.886997 
L 324.3114 160.6325 
L 329.7798 160.140934 
L 335.2482 159.744051 
L 337.9824 159.316318 
L 345.4038 157.937863 
L 348.9192 157.502372 
L 350.4816 157.10852 
L 352.044 156.498618 
L 353.6064 155.65422 
L 355.5594 154.32367 
L 358.2936 152.402308 
L 359.4654 151.836845 
L 360.2466 151.640299 
L 361.0278 151.627922 
L 361.809 151.822759 
L 362.5902 152.231853 
L 363.3714 152.842419 
L 364.5432 154.057478 
L 367.668 157.549408 
L 368.4492 158.105195 
L 369.2304 158.424655 
L 370.0116 158.477771 
L 370.7928 158.248875 
L 371.574 157.735632 
L 372.3552 156.946002 
L 373.1364 155.896155 
L 374.3082 153.890821 
L 375.8706 150.608656 
L 378.6048 144.517846 
L 379.7766 142.536513 
L 380.5578 141.69475 
L 380.9484 141.456979 
L 381.339 141.357776 
L 381.7296 141.405423 
L 382.1202 141.607981 
L 382.5108 141.969599 
L 383.292 143.174004 
L 384.0732 144.992357 
L 384.8544 147.342445 
L 386.4168 153.07393 
L 388.3698 160.304389 
L 389.5416 163.646657 
L 390.3228 165.215381 
L 391.104 166.197578 
L 391.4946 166.466758 
L 391.8852 166.591604 
L 392.2758 166.578816 
L 392.6664 166.434345 
L 393.4476 165.793513 
L 394.2288 164.75917 
L 395.4006 162.712435 
L 397.7442 158.436319 
L 398.5254 157.468013 
L 399.3066 156.959918 
L 399.6972 156.917685 
L 400.0878 157.032964 
L 400.4784 157.317763 
L 400.869 157.779238 
L 401.6502 159.249023 
L 402.4314 161.436674 
L 403.2126 164.270355 
L 404.3844 169.402618 
L 406.728 179.962727 
L 407.5092 182.624027 
L 408.2904 184.502966 
L 408.681 185.108981 
L 409.0716 185.480884 
L 409.4622 185.61534 
L 409.8528 185.514428 
L 410.2434 185.182618 
L 410.634 184.630091 
L 411.4152 182.911244 
L 412.1964 180.480942 
L 413.3682 175.82172 
L 415.3212 166.5978 
L 417.6648 155.658576 
L 418.8366 151.0926 
L 420.0084 147.518887 
L 420.7896 145.796481 
L 421.5708 144.64875 
L 422.352 144.086108 
L 422.7426 144.017546 
L 423.1332 144.083133 
L 423.9144 144.5751 
L 424.6956 145.458512 
L 426.258 147.828769 
L 427.4298 149.482809 
L 428.211 150.230229 
L 428.9922 150.543096 
L 429.3828 150.507826 
L 429.7734 150.334002 
L 430.164 150.017128 
L 430.9452 148.942046 
L 431.7264 147.282069 
L 432.5076 145.060701 
L 433.6794 140.76729 
L 434.8512 135.481051 
L 436.4136 127.259808 
L 440.7102 103.647891 
L 441.4914 100.520622 
L 442.2726 98.204448 
L 442.6632 97.402928 
L 443.0538 96.864009 
L 443.4444 96.598204 
L 443.835 96.616139 
L 444.2256 96.919094 
L 444.6162 97.505914 
L 445.3974 99.488086 
L 446.1786 102.419106 
L 447.3504 108.05895 
L 449.3034 118.049439 
L 450.0846 121.276364 
L 450.8658 123.656225 
L 451.2564 124.472103 
L 451.647 125.019465 
L 452.0376 125.289871 
L 452.4282 125.280753 
L 452.8188 124.993437 
L 453.6 123.888438 
L 453.6 123.888438 
" style="fill:none;stroke:#000000;stroke-dasharray:7.4,3.2;stroke-dashoffset:0;stroke-width:2;"/>
    <defs>
     <path d="M -2.5 2.5 
L 2.5 2.5 
L 2.5 -2.5 
L -2.5 -2.5 
z
" id="mcf1c4f48d6" style="stroke:#000000;stroke-linejoin:miter;"/>
    </defs>
    <g clip-path="url(#pa304c39524)">
     <use style="fill:#ffffff;stroke:#000000;stroke-linejoin:miter;" x="63" xlink:href="#mcf1c4f48d6" y="203.823113"/>
     <use style="fill:#ffffff;stroke:#000000;stroke-linejoin:miter;" x="82.53" xlink:href="#mcf1c4f48d6" y="190.023804"/>
     <use style="fill:#ffffff;stroke:#000000;stroke-linejoin:miter;" x="102.06" xlink:href="#mcf1c4f48d6" y="189.342039"/>
     <use style="fill:#ffffff;stroke:#000000;stroke-linejoin:miter;" x="121.59" xlink:href="#mcf1c4f48d6" y="167.296159"/>
     <use style="fill:#ffffff;stroke:#000000;stroke-linejoin:miter;" x="141.12" xlink:href="#mcf1c4f48d6" y="160.397643"/>
     <use style="fill:#ffffff;stroke:#000000;stroke-linejoin:miter;" x="160.65" xlink:href="#mcf1c4f48d6" y="144.376728"/>
     <use style="fill:#ffffff;stroke:#000000;stroke-linejoin:miter;" x="180.18" xlink:href="#mcf1c4f48d6" y="155.852434"/>
     <use style="fill:#ffffff;stroke:#000000;stroke-linejoin:miter;" x="199.71" xlink:href="#mcf1c4f48d6" y="167.949059"/>
     <use style="fill:#ffffff;stroke:#000000;stroke-linejoin:miter;" x="219.24" xlink:href="#mcf1c4f48d6" y="157.839871"/>
     <use style="fill:#ffffff;stroke:#000000;stroke-linejoin:miter;" x="238.77" xlink:href="#mcf1c4f48d6" y="159.071673"/>
     <use style="fill:#ffffff;stroke:#000000;stroke-linejoin:miter;" x="258.3" xlink:href="#mcf1c4f48d6" y="163.301919"/>
     <use style="fill:#ffffff;stroke:#000000;stroke-linejoin:miter;" x="277.83" xlink:href="#mcf1c4f48d6" y="157.813783"/>
     <use style="fill:#ffffff;stroke:#000000;stroke-linejoin:miter;" x="297.36" xlink:href="#mcf1c4f48d6" y="161.28456"/>
     <use style="fill:#ffffff;stroke:#000000;stroke-linejoin:miter;" x="316.89" xlink:href="#mcf1c4f48d6" y="160.876989"/>
     <use style="fill:#ffffff;stroke:#000000;stroke-linejoin:miter;" x="336.42" xlink:href="#mcf1c4f48d6" y="159.585998"/>
     <use style="fill:#ffffff;stroke:#000000;stroke-linejoin:miter;" x="355.95" xlink:href="#mcf1c4f48d6" y="154.035673"/>
     <use style="fill:#ffffff;stroke:#000000;stroke-linejoin:miter;" x="375.48" xlink:href="#mcf1c4f48d6" y="151.476123"/>
     <use style="fill:#ffffff;stroke:#000000;stroke-linejoin:miter;" x="395.01" xlink:href="#mcf1c4f48d6" y="163.439134"/>
     <use style="fill:#ffffff;stroke:#000000;stroke-linejoin:miter;" x="414.54" xlink:href="#mcf1c4f48d6" y="170.398972"/>
     <use style="fill:#ffffff;stroke:#000000;stroke-linejoin:miter;" x="434.07" xlink:href="#mcf1c4f48d6" y="139.105713"/>
     <use style="fill:#ffffff;stroke:#000000;stroke-linejoin:miter;" x="453.6" xlink:href="#mcf1c4f48d6" y="123.888438"/>
    </g>
   </g>
   <g id="line2d_3">
    <path clip-path="url(#pa304c39524)" d="M 63 85.86966 
L 65.3436 85.264184 
L 67.2966 85.011196 
L 68.859 85.008091 
L 70.812 85.249086 
L 73.1556 85.818384 
L 77.4522 86.951177 
L 79.4052 87.157468 
L 81.3582 87.087841 
L 84.0924 86.707827 
L 86.8266 86.370202 
L 88.7796 86.328239 
L 90.7326 86.489707 
L 94.248 87.077346 
L 96.201 87.307834 
L 97.7634 87.298683 
L 99.3258 87.067888 
L 101.2788 86.495579 
L 107.919 84.144904 
L 109.872 83.804929 
L 112.2156 83.658702 
L 116.1216 83.733865 
L 118.8558 83.684064 
L 121.59 83.391772 
L 127.0584 82.675953 
L 129.0114 82.655687 
L 130.9644 82.840145 
L 133.308 83.324088 
L 136.8234 84.368896 
L 139.5576 85.086222 
L 141.5106 85.378405 
L 143.8542 85.476727 
L 148.932 85.54386 
L 150.885 85.820941 
L 153.2286 86.409235 
L 158.3064 87.844445 
L 159.8688 87.976128 
L 161.4312 87.858325 
L 162.9936 87.519467 
L 166.1184 86.526518 
L 168.462 85.881131 
L 170.415 85.577787 
L 172.368 85.52267 
L 174.7116 85.729389 
L 179.7894 86.351778 
L 181.7424 86.33324 
L 184.4766 86.035953 
L 187.6014 85.687328 
L 189.5544 85.699531 
L 191.1168 85.917547 
L 192.6792 86.348409 
L 194.2416 86.993638 
L 196.1946 88.057077 
L 201.2724 91.024635 
L 202.8348 91.579907 
L 204.3972 91.882162 
L 206.3502 92.012252 
L 209.0844 92.166891 
L 210.6468 92.461674 
L 212.2092 93.005265 
L 213.7716 93.817781 
L 215.7246 95.136165 
L 218.4588 97.020086 
L 219.6306 97.569973 
L 220.8024 97.824332 
L 221.5836 97.801949 
L 222.7554 97.478508 
L 223.9272 96.853646 
L 225.4896 95.714044 
L 228.6144 93.315554 
L 230.1768 92.416466 
L 231.7392 91.826612 
L 233.3016 91.548297 
L 234.864 91.537946 
L 236.817 91.773248 
L 239.9418 92.168373 
L 241.5042 92.121644 
L 243.0666 91.834259 
L 245.0196 91.201648 
L 248.535 89.956921 
L 250.0974 89.64139 
L 251.6598 89.58485 
L 252.8316 89.736035 
L 254.394 90.203885 
L 255.9564 90.955617 
L 257.9094 92.193239 
L 261.0342 94.247049 
L 262.206 94.803283 
L 263.3778 95.150268 
L 264.5496 95.271683 
L 265.7214 95.191088 
L 267.6744 94.769139 
L 270.4086 94.145491 
L 271.971 94.029998 
L 273.5334 94.178286 
L 275.0958 94.585313 
L 277.4394 95.498771 
L 279.3924 96.180824 
L 280.5642 96.368505 
L 281.736 96.29434 
L 282.9078 95.9223 
L 284.0796 95.267253 
L 285.642 94.064199 
L 290.3292 90.157997 
L 291.8916 89.23954 
L 293.454 88.593178 
L 295.0164 88.19479 
L 296.9694 87.961596 
L 302.8284 87.513428 
L 304.7814 87.038839 
L 311.4216 85.149707 
L 313.3746 84.987815 
L 314.937 85.060184 
L 316.89 85.383683 
L 319.6242 86.124498 
L 322.3584 86.851723 
L 324.3114 87.130892 
L 326.2644 87.129811 
L 328.608 86.849251 
L 332.514 86.352653 
L 334.467 86.338621 
L 336.8106 86.582822 
L 341.8884 87.320733 
L 343.4508 87.275384 
L 345.0132 87.006659 
L 346.9662 86.399389 
L 353.2158 84.174007 
L 355.1688 83.820165 
L 357.5124 83.660663 
L 361.0278 83.722601 
L 364.1526 83.691559 
L 366.8868 83.409469 
L 372.7458 82.662066 
L 374.6988 82.668427 
L 376.6518 82.881456 
L 378.9954 83.394219 
L 386.4168 85.322019 
L 388.3698 85.464787 
L 395.7912 85.728006 
L 397.7442 86.15297 
L 400.869 87.113337 
L 403.2126 87.750971 
L 404.775 87.959769 
L 406.3374 87.924301 
L 407.8998 87.651341 
L 410.2434 86.953324 
L 413.3682 86.000482 
L 415.3212 85.633638 
L 417.2742 85.514064 
L 419.2272 85.621986 
L 422.7426 86.111792 
L 425.0862 86.346119 
L 427.0392 86.340311 
L 429.3828 86.105705 
L 433.2888 85.674585 
L 435.2418 85.72242 
L 436.8042 85.975556 
L 438.3666 86.443531 
L 439.929 87.123481 
L 441.882 88.218324 
L 446.1786 90.785991 
L 447.741 91.425932 
L 449.3034 91.807805 
L 451.2564 91.993534 
L 453.6 92.083632 
L 453.6 92.083632 
" style="fill:none;stroke:#da888e;stroke-linecap:square;stroke-width:4;"/>
   </g>
   <g id="line2d_4">
    <path clip-path="url(#pa304c39524)" d="M 63 73.425139 
L 64.5624 73.336008 
L 65.7342 73.052827 
L 67.2966 72.422488 
L 71.9838 70.25336 
L 73.1556 70.046471 
L 74.3274 70.093306 
L 75.4992 70.412237 
L 76.671 70.985844 
L 78.2334 72.047036 
L 81.3582 74.302809 
L 82.53 74.864865 
L 83.7018 75.153082 
L 84.8736 75.149041 
L 86.0454 74.879647 
L 87.6078 74.222185 
L 90.7326 72.737535 
L 91.9044 72.430676 
L 93.0762 72.392168 
L 94.248 72.671282 
L 95.4198 73.276279 
L 96.5916 74.165864 
L 98.5446 76.012136 
L 100.4976 77.756392 
L 101.6694 78.500638 
L 102.8412 78.923211 
L 104.013 79.013622 
L 105.1848 78.812405 
L 106.7472 78.217346 
L 112.6062 75.536581 
L 114.1686 75.17697 
L 116.1216 74.968627 
L 120.8088 74.627516 
L 122.7618 74.18173 
L 125.496 73.26266 
L 129.7926 71.77507 
L 132.5268 71.082957 
L 135.6516 70.551788 
L 141.9012 69.594339 
L 145.4166 68.750547 
L 154.0098 66.490371 
L 155.5722 66.364637 
L 157.1346 66.475191 
L 158.697 66.835832 
L 160.65 67.54316 
L 163.7748 68.70047 
L 165.3372 69.053926 
L 166.8996 69.190494 
L 168.462 69.122645 
L 170.8056 68.74682 
L 174.7116 68.049768 
L 176.274 68.010476 
L 177.8364 68.208541 
L 179.3988 68.639356 
L 185.2578 70.579488 
L 186.8202 70.704899 
L 188.7732 70.586676 
L 193.851 70.060635 
L 195.0228 70.195573 
L 196.1946 70.527213 
L 197.3664 71.084109 
L 198.5382 71.866637 
L 200.1006 73.185955 
L 202.8348 75.584314 
L 204.0066 76.334403 
L 205.1784 76.801062 
L 206.3502 76.981788 
L 207.522 76.92901 
L 209.475 76.555649 
L 211.8186 76.112317 
L 213.381 76.024211 
L 214.9434 76.143615 
L 218.8494 76.658091 
L 220.0212 76.529544 
L 221.193 76.155834 
L 222.7554 75.329207 
L 226.2708 73.252663 
L 227.8332 72.685761 
L 229.3956 72.395314 
L 231.3486 72.296904 
L 234.4734 72.192053 
L 236.0358 71.885263 
L 237.2076 71.454412 
L 238.3794 70.832366 
L 239.9418 69.747507 
L 243.4572 67.151098 
L 244.629 66.574694 
L 245.8008 66.239958 
L 246.9726 66.144033 
L 248.1444 66.250735 
L 249.7068 66.615164 
L 256.347 68.490364 
L 258.3 68.631162 
L 260.253 68.50321 
L 266.8932 67.703609 
L 270.7992 67.789203 
L 274.7052 67.775021 
L 277.83 67.7914 
L 279.783 68.044063 
L 281.3454 68.456816 
L 284.0796 69.480912 
L 286.4232 70.285507 
L 288.3762 70.706762 
L 290.3292 70.897805 
L 293.0634 70.90483 
L 297.36 70.643081 
L 305.9532 70.078699 
L 310.2498 70.079848 
L 313.7652 70.301501 
L 316.4994 70.678811 
L 319.6242 71.344393 
L 323.1396 72.077028 
L 325.0926 72.250876 
L 327.0456 72.212474 
L 333.6858 71.862895 
L 336.0294 72.058341 
L 343.0602 72.845195 
L 345.7944 72.715259 
L 348.9192 72.58881 
L 350.8722 72.716741 
L 353.2158 73.094261 
L 357.5124 73.860769 
L 359.0748 73.894892 
L 360.6372 73.676953 
L 362.1996 73.191347 
L 364.1526 72.31133 
L 366.8868 71.073844 
L 368.4492 70.63518 
L 369.621 70.500472 
L 371.1834 70.582876 
L 372.7458 70.916282 
L 375.48 71.820067 
L 377.8236 72.519272 
L 379.386 72.745516 
L 380.5578 72.731046 
L 382.1202 72.448123 
L 383.6826 71.907304 
L 389.151 69.7319 
L 390.7134 69.470738 
L 392.2758 69.422958 
L 394.2288 69.588658 
L 399.3066 70.183442 
L 400.869 70.121944 
L 402.4314 69.85705 
L 404.3844 69.2545 
L 408.681 67.68946 
L 409.8528 67.4881 
L 411.0246 67.477064 
L 412.1964 67.675281 
L 413.3682 68.077167 
L 414.9306 68.878188 
L 417.6648 70.654728 
L 419.6178 71.818234 
L 421.1802 72.456368 
L 422.352 72.699135 
L 423.5238 72.732993 
L 425.0862 72.515008 
L 428.211 71.895908 
L 429.3828 71.894164 
L 430.5546 72.133494 
L 431.7264 72.642266 
L 432.8982 73.412429 
L 434.4606 74.773322 
L 439.5384 79.631158 
L 440.7102 80.258078 
L 441.4914 80.471199 
L 442.2726 80.503801 
L 443.0538 80.352536 
L 443.835 80.02533 
L 445.0068 79.250017 
L 446.5692 77.863129 
L 448.9128 75.718689 
L 450.0846 74.907139 
L 451.2564 74.385235 
L 452.4282 74.178647 
L 453.6 74.232659 
L 453.6 74.232659 
" style="fill:none;stroke:#000000;stroke-dasharray:7.4,3.2;stroke-dashoffset:0;stroke-width:2;"/>
    <defs>
     <path d="M 0 -2.5 
L -2.165064 -1.25 
L -2.165064 1.25 
L -0 2.5 
L 2.165064 1.25 
L 2.165064 -1.25 
z
" id="mfdf2566b89" style="stroke:#000000;stroke-linejoin:miter;"/>
    </defs>
    <g clip-path="url(#pa304c39524)">
     <use style="fill:#ffffff;stroke:#000000;stroke-linejoin:miter;" x="63" xlink:href="#mfdf2566b89" y="73.425139"/>
     <use style="fill:#ffffff;stroke:#000000;stroke-linejoin:miter;" x="82.53" xlink:href="#mfdf2566b89" y="74.864865"/>
     <use style="fill:#ffffff;stroke:#000000;stroke-linejoin:miter;" x="102.06" xlink:href="#mfdf2566b89" y="78.67895"/>
     <use style="fill:#ffffff;stroke:#000000;stroke-linejoin:miter;" x="121.59" xlink:href="#mfdf2566b89" y="74.476902"/>
     <use style="fill:#ffffff;stroke:#000000;stroke-linejoin:miter;" x="141.12" xlink:href="#mfdf2566b89" y="69.74813"/>
     <use style="fill:#ffffff;stroke:#000000;stroke-linejoin:miter;" x="160.65" xlink:href="#mfdf2566b89" y="67.54316"/>
     <use style="fill:#ffffff;stroke:#000000;stroke-linejoin:miter;" x="180.18" xlink:href="#mfdf2566b89" y="68.92031"/>
     <use style="fill:#ffffff;stroke:#000000;stroke-linejoin:miter;" x="199.71" xlink:href="#mfdf2566b89" y="72.835262"/>
     <use style="fill:#ffffff;stroke:#000000;stroke-linejoin:miter;" x="219.24" xlink:href="#mfdf2566b89" y="76.640992"/>
     <use style="fill:#ffffff;stroke:#000000;stroke-linejoin:miter;" x="238.77" xlink:href="#mfdf2566b89" y="70.585001"/>
     <use style="fill:#ffffff;stroke:#000000;stroke-linejoin:miter;" x="258.3" xlink:href="#mfdf2566b89" y="68.631162"/>
     <use style="fill:#ffffff;stroke:#000000;stroke-linejoin:miter;" x="277.83" xlink:href="#mfdf2566b89" y="67.7914"/>
     <use style="fill:#ffffff;stroke:#000000;stroke-linejoin:miter;" x="297.36" xlink:href="#mfdf2566b89" y="70.643081"/>
     <use style="fill:#ffffff;stroke:#000000;stroke-linejoin:miter;" x="316.89" xlink:href="#mfdf2566b89" y="70.749873"/>
     <use style="fill:#ffffff;stroke:#000000;stroke-linejoin:miter;" x="336.42" xlink:href="#mfdf2566b89" y="72.108074"/>
     <use style="fill:#ffffff;stroke:#000000;stroke-linejoin:miter;" x="355.95" xlink:href="#mfdf2566b89" y="73.643851"/>
     <use style="fill:#ffffff;stroke:#000000;stroke-linejoin:miter;" x="375.48" xlink:href="#mfdf2566b89" y="71.820067"/>
     <use style="fill:#ffffff;stroke:#000000;stroke-linejoin:miter;" x="395.01" xlink:href="#mfdf2566b89" y="69.696788"/>
     <use style="fill:#ffffff;stroke:#000000;stroke-linejoin:miter;" x="414.54" xlink:href="#mfdf2566b89" y="68.654512"/>
     <use style="fill:#ffffff;stroke:#000000;stroke-linejoin:miter;" x="434.07" xlink:href="#mfdf2566b89" y="74.404088"/>
     <use style="fill:#ffffff;stroke:#000000;stroke-linejoin:miter;" x="453.6" xlink:href="#mfdf2566b89" y="74.232659"/>
    </g>
   </g>
   <g id="line2d_5">
    <path clip-path="url(#pa304c39524)" d="M 63 51.301887 
L 64.953 51.165336 
L 70.4214 50.972485 
L 72.3744 50.627859 
L 74.718 49.971816 
L 82.53 47.492513 
L 92.295 45.175652 
L 93.4668 45.176267 
L 94.6386 45.393673 
L 95.8104 45.880445 
L 96.9822 46.667826 
L 98.154 47.753997 
L 99.7164 49.592788 
L 102.4506 53.33606 
L 104.4036 55.879287 
L 105.966 57.596366 
L 107.5284 58.949795 
L 108.7002 59.714308 
L 109.872 60.270062 
L 111.0438 60.630962 
L 112.6062 60.843925 
L 114.1686 60.807255 
L 116.1216 60.528558 
L 120.4182 59.809819 
L 122.3712 59.731 
L 124.3242 59.856033 
L 127.449 60.321293 
L 130.9644 60.825048 
L 132.9174 60.915786 
L 134.8704 60.771722 
L 136.4328 60.442424 
L 137.9952 59.898125 
L 139.5576 59.134316 
L 141.5106 57.896559 
L 143.8542 56.08018 
L 146.5884 53.637136 
L 149.7132 50.530261 
L 154.791 45.40301 
L 156.3534 44.230718 
L 157.5252 43.64984 
L 158.697 43.392396 
L 159.4782 43.417152 
L 160.2594 43.599268 
L 161.4312 44.144151 
L 162.603 44.954008 
L 164.556 46.634985 
L 166.8996 48.643501 
L 168.462 49.703489 
L 169.6338 50.28222 
L 170.8056 50.659158 
L 171.9774 50.837217 
L 173.1492 50.833485 
L 174.7116 50.599985 
L 180.18 49.442238 
L 181.3518 49.50486 
L 182.5236 49.757074 
L 184.086 50.377427 
L 185.6484 51.262437 
L 187.992 52.883411 
L 193.0698 56.467847 
L 195.4134 57.832848 
L 197.3664 58.733413 
L 198.9288 59.246006 
L 200.4912 59.52286 
L 202.0536 59.519932 
L 203.2254 59.317118 
L 204.3972 58.939236 
L 205.9596 58.17248 
L 207.522 57.126574 
L 209.0844 55.825763 
L 211.0374 53.873441 
L 213.381 51.127036 
L 217.6776 45.923657 
L 218.8494 44.882691 
L 220.0212 44.196876 
L 220.8024 43.970822 
L 221.5836 43.936164 
L 222.3648 44.082494 
L 223.5366 44.58569 
L 225.099 45.58643 
L 227.4426 47.114028 
L 228.6144 47.637462 
L 229.7862 47.900333 
L 230.958 47.863444 
L 232.1298 47.510065 
L 233.3016 46.84244 
L 234.4734 45.881494 
L 236.0358 44.220214 
L 241.1136 38.277267 
L 242.2854 37.460891 
L 243.0666 37.127944 
L 243.8478 36.968746 
L 244.629 36.975715 
L 245.8008 37.260456 
L 246.9726 37.802767 
L 248.9256 39.035245 
L 252.441 41.319731 
L 254.394 42.284565 
L 256.347 42.981723 
L 259.0812 43.676459 
L 261.8154 44.413035 
L 264.159 45.281645 
L 268.065 46.799336 
L 269.6274 47.185452 
L 271.1898 47.375077 
L 273.1428 47.368213 
L 276.6582 47.217183 
L 277.83 47.377023 
L 279.0018 47.776156 
L 280.1736 48.479537 
L 281.3454 49.514169 
L 282.5172 50.853101 
L 284.4702 53.519345 
L 286.8138 56.724153 
L 288.3762 58.460485 
L 289.548 59.44589 
L 290.7198 60.133261 
L 291.8916 60.519878 
L 293.0634 60.614322 
L 294.2352 60.431915 
L 295.407 59.993334 
L 296.5788 59.325781 
L 298.1412 58.14396 
L 300.4848 56.001291 
L 302.8284 53.893814 
L 304.3908 52.762646 
L 305.9532 51.951996 
L 307.5156 51.462082 
L 309.078 51.229979 
L 311.4216 51.156 
L 314.937 51.066009 
L 316.89 50.812485 
L 318.843 50.363356 
L 321.5772 49.481983 
L 326.2644 47.936669 
L 330.9516 46.756934 
L 337.2012 45.228362 
L 338.7636 45.166953 
L 339.9354 45.358598 
L 341.1072 45.814803 
L 342.279 46.569701 
L 343.4508 47.62538 
L 345.0132 49.433428 
L 347.3568 52.62251 
L 349.7004 55.728585 
L 351.2628 57.472412 
L 352.8252 58.856017 
L 353.997 59.643222 
L 355.1688 60.220595 
L 356.3406 60.601341 
L 357.903 60.837022 
L 359.4654 60.817615 
L 361.4184 60.551067 
L 366.1056 59.78653 
L 368.0586 59.736798 
L 370.4022 59.934894 
L 378.2142 60.916226 
L 380.1672 60.789267 
L 381.7296 60.476331 
L 383.292 59.949584 
L 384.8544 59.202935 
L 386.8074 57.983775 
L 389.151 56.183929 
L 391.8852 53.75444 
L 395.01 50.659049 
L 400.0878 45.511389 
L 401.6502 44.309103 
L 402.822 43.697025 
L 403.9938 43.403157 
L 404.775 43.402547 
L 405.5562 43.560019 
L 406.728 44.072289 
L 407.8998 44.858092 
L 409.8528 46.522789 
L 412.587 48.844792 
L 414.1494 49.852259 
L 415.3212 50.385691 
L 416.493 50.716665 
L 417.6648 50.851445 
L 419.2272 50.762683 
L 421.1802 50.345074 
L 424.305 49.570124 
L 425.8674 49.440427 
L 427.0392 49.54531 
L 428.211 49.840759 
L 429.7734 50.511852 
L 431.3358 51.433071 
L 434.07 53.365173 
L 437.976 56.135027 
L 440.3196 57.556334 
L 442.2726 58.521012 
L 443.835 59.100697 
L 445.3974 59.460585 
L 446.9598 59.553937 
L 448.1316 59.427882 
L 449.3034 59.126697 
L 450.8658 58.45731 
L 452.4282 57.500625 
L 453.6 56.60954 
L 453.6 56.60954 
" style="fill:none;stroke:#d2c095;stroke-linecap:square;stroke-width:4;"/>
   </g>
   <g id="line2d_6">
    <path clip-path="url(#pa304c39524)" d="M 63 69.649811 
L 65.7342 69.986272 
L 68.0778 70.032743 
L 71.2026 69.805546 
L 73.5462 69.686762 
L 75.4992 69.82681 
L 77.0616 70.15698 
L 79.0146 70.806691 
L 82.53 72.045418 
L 84.0924 72.327616 
L 85.6548 72.349326 
L 87.2172 72.138065 
L 92.295 71.196719 
L 93.4668 71.281442 
L 94.6386 71.585338 
L 95.8104 72.121968 
L 97.3728 73.155775 
L 101.6694 76.375542 
L 102.8412 76.904388 
L 104.013 77.182254 
L 105.1848 77.222266 
L 106.7472 76.983615 
L 109.0908 76.297943 
L 111.825 75.543891 
L 113.3874 75.315208 
L 114.9498 75.277845 
L 116.9028 75.451199 
L 120.4182 75.810428 
L 121.9806 75.729347 
L 123.543 75.431196 
L 125.496 74.801853 
L 129.402 73.187335 
L 132.5268 72.024828 
L 135.6516 71.131302 
L 138.7764 70.228575 
L 140.3388 69.573424 
L 141.9012 68.670192 
L 143.4636 67.472597 
L 145.026 65.974597 
L 146.979 63.716857 
L 149.3226 60.575895 
L 152.4474 56.348112 
L 153.6192 55.120234 
L 154.4004 54.534983 
L 155.1816 54.195196 
L 155.9628 54.141154 
L 156.744 54.399055 
L 157.5252 54.974199 
L 158.3064 55.847318 
L 159.4782 57.613161 
L 163.7748 64.906744 
L 164.9466 66.136468 
L 165.7278 66.672556 
L 166.509 66.989557 
L 167.2902 67.1073 
L 168.0714 67.053605 
L 169.2432 66.724807 
L 170.8056 66.011741 
L 173.1492 64.935427 
L 174.321 64.63061 
L 175.4928 64.595754 
L 176.6646 64.877492 
L 177.8364 65.477996 
L 179.0082 66.347849 
L 183.6954 70.290864 
L 184.8672 70.838621 
L 186.039 71.108979 
L 187.2108 71.128571 
L 188.7732 70.866337 
L 193.0698 69.888067 
L 194.2416 69.92872 
L 195.4134 70.237081 
L 196.5852 70.862594 
L 197.757 71.823105 
L 198.9288 73.088134 
L 201.2724 76.106021 
L 202.8348 77.941941 
L 204.0066 78.945454 
L 204.7878 79.383276 
L 205.569 79.631684 
L 206.3502 79.706264 
L 207.522 79.557279 
L 209.0844 79.072467 
L 211.428 78.317884 
L 212.9904 78.086143 
L 214.1622 78.113181 
L 215.7246 78.379302 
L 218.4588 78.924645 
L 219.6306 78.868913 
L 220.8024 78.492736 
L 221.9742 77.793664 
L 223.5366 76.528492 
L 225.8802 74.642573 
L 227.052 73.959083 
L 228.2238 73.505889 
L 229.3956 73.264604 
L 230.958 73.18598 
L 234.4734 73.176106 
L 235.6452 72.91668 
L 236.817 72.385712 
L 237.9888 71.525917 
L 239.1606 70.327636 
L 240.723 68.309991 
L 243.4572 64.584526 
L 244.629 63.34983 
L 245.8008 62.504028 
L 246.582 62.17378 
L 247.3632 62.02371 
L 248.535 62.097614 
L 249.7068 62.456771 
L 251.2692 63.221122 
L 255.1752 65.335573 
L 256.347 65.726264 
L 257.5188 65.885319 
L 258.6906 65.760511 
L 259.8624 65.328321 
L 261.0342 64.612344 
L 262.9872 63.030721 
L 264.9402 61.492907 
L 266.112 60.801863 
L 267.2838 60.323585 
L 268.8462 59.943242 
L 273.5334 59.023583 
L 275.877 58.438124 
L 277.0488 58.378779 
L 277.83 58.533397 
L 278.6112 58.900583 
L 279.3924 59.517921 
L 280.1736 60.403006 
L 281.3454 62.2031 
L 282.9078 65.205322 
L 284.8608 68.993234 
L 286.0326 70.826806 
L 287.2044 72.168213 
L 287.9856 72.784533 
L 288.7668 73.199055 
L 289.9386 73.504394 
L 291.1104 73.522428 
L 292.6728 73.261191 
L 295.0164 72.579941 
L 300.4848 70.907949 
L 303.219 70.326313 
L 305.9532 70.001733 
L 308.6874 69.915684 
L 311.4216 70.033595 
L 314.1558 70.368922 
L 316.4994 70.862156 
L 319.6242 71.771341 
L 322.3584 72.5185 
L 323.9208 72.755933 
L 325.4832 72.798414 
L 327.4362 72.622374 
L 332.1234 72.061478 
L 334.0764 72.069103 
L 336.42 72.314928 
L 342.6696 73.17539 
L 345.0132 73.106804 
L 348.5286 72.9384 
L 350.4816 73.09707 
L 352.4346 73.501935 
L 355.5594 74.457534 
L 357.5124 74.972532 
L 359.0748 75.142029 
L 360.2466 75.05011 
L 361.4184 74.738361 
L 362.5902 74.212302 
L 364.1526 73.259664 
L 366.8868 71.496972 
L 368.0586 70.964622 
L 369.2304 70.67798 
L 370.4022 70.673471 
L 371.574 70.95433 
L 372.7458 71.494604 
L 374.3082 72.52875 
L 378.6048 75.668208 
L 379.7766 76.107157 
L 380.5578 76.199855 
L 381.339 76.111445 
L 382.1202 75.83511 
L 382.9014 75.376383 
L 384.0732 74.389945 
L 385.6356 72.701677 
L 387.9792 70.109205 
L 389.151 69.102887 
L 390.3228 68.420889 
L 391.104 68.165863 
L 391.8852 68.069231 
L 393.057 68.193498 
L 394.2288 68.575482 
L 396.5724 69.698351 
L 398.1348 70.327635 
L 399.3066 70.541464 
L 400.0878 70.510898 
L 400.869 70.322875 
L 402.0408 69.738528 
L 403.2126 68.827538 
L 405.1656 66.871239 
L 406.728 65.337724 
L 407.8998 64.473524 
L 408.681 64.110856 
L 409.4622 63.949319 
L 410.2434 63.999305 
L 411.0246 64.257316 
L 411.8058 64.707204 
L 412.9776 65.681947 
L 414.54 67.35046 
L 417.6648 70.777316 
L 418.8366 71.747639 
L 420.0084 72.430684 
L 421.1802 72.800681 
L 422.352 72.870556 
L 423.5238 72.691128 
L 425.4768 72.067983 
L 427.8204 71.344753 
L 428.9922 71.177404 
L 430.164 71.188115 
L 431.7264 71.464689 
L 433.6794 72.104221 
L 437.1948 73.322572 
L 438.7572 73.598893 
L 439.929 73.624434 
L 441.1008 73.479435 
L 442.6632 73.039166 
L 444.6162 72.21395 
L 447.741 70.850744 
L 449.694 70.26763 
L 452.0376 69.854747 
L 453.6 69.649594 
L 453.6 69.649594 
" style="fill:none;stroke:#000000;stroke-dasharray:7.4,3.2;stroke-dashoffset:0;stroke-width:2;"/>
    <defs>
     <path d="M 0 3.535534 
L 2.12132 0 
L 0 -3.535534 
L -2.12132 0 
z
" id="m2f6080cc78" style="stroke:#000000;stroke-linejoin:miter;"/>
    </defs>
    <g clip-path="url(#pa304c39524)">
     <use style="fill:#ffffff;stroke:#000000;stroke-linejoin:miter;" x="63" xlink:href="#m2f6080cc78" y="69.649811"/>
     <use style="fill:#ffffff;stroke:#000000;stroke-linejoin:miter;" x="82.53" xlink:href="#m2f6080cc78" y="72.045418"/>
     <use style="fill:#ffffff;stroke:#000000;stroke-linejoin:miter;" x="102.06" xlink:href="#m2f6080cc78" y="76.578858"/>
     <use style="fill:#ffffff;stroke:#000000;stroke-linejoin:miter;" x="121.59" xlink:href="#m2f6080cc78" y="75.769962"/>
     <use style="fill:#ffffff;stroke:#000000;stroke-linejoin:miter;" x="141.12" xlink:href="#m2f6080cc78" y="69.156776"/>
     <use style="fill:#ffffff;stroke:#000000;stroke-linejoin:miter;" x="160.65" xlink:href="#m2f6080cc78" y="59.713529"/>
     <use style="fill:#ffffff;stroke:#000000;stroke-linejoin:miter;" x="180.18" xlink:href="#m2f6080cc78" y="67.390673"/>
     <use style="fill:#ffffff;stroke:#000000;stroke-linejoin:miter;" x="199.71" xlink:href="#m2f6080cc78" y="74.057825"/>
     <use style="fill:#ffffff;stroke:#000000;stroke-linejoin:miter;" x="219.24" xlink:href="#m2f6080cc78" y="78.920165"/>
     <use style="fill:#ffffff;stroke:#000000;stroke-linejoin:miter;" x="238.77" xlink:href="#m2f6080cc78" y="70.76273"/>
     <use style="fill:#ffffff;stroke:#000000;stroke-linejoin:miter;" x="258.3" xlink:href="#m2f6080cc78" y="65.835921"/>
     <use style="fill:#ffffff;stroke:#000000;stroke-linejoin:miter;" x="277.83" xlink:href="#m2f6080cc78" y="58.533397"/>
     <use style="fill:#ffffff;stroke:#000000;stroke-linejoin:miter;" x="297.36" xlink:href="#m2f6080cc78" y="71.818024"/>
     <use style="fill:#ffffff;stroke:#000000;stroke-linejoin:miter;" x="316.89" xlink:href="#m2f6080cc78" y="70.963146"/>
     <use style="fill:#ffffff;stroke:#000000;stroke-linejoin:miter;" x="336.42" xlink:href="#m2f6080cc78" y="72.314928"/>
     <use style="fill:#ffffff;stroke:#000000;stroke-linejoin:miter;" x="355.95" xlink:href="#m2f6080cc78" y="74.576571"/>
     <use style="fill:#ffffff;stroke:#000000;stroke-linejoin:miter;" x="375.48" xlink:href="#m2f6080cc78" y="73.443893"/>
     <use style="fill:#ffffff;stroke:#000000;stroke-linejoin:miter;" x="395.01" xlink:href="#m2f6080cc78" y="68.925585"/>
     <use style="fill:#ffffff;stroke:#000000;stroke-linejoin:miter;" x="414.54" xlink:href="#m2f6080cc78" y="67.35046"/>
     <use style="fill:#ffffff;stroke:#000000;stroke-linejoin:miter;" x="434.07" xlink:href="#m2f6080cc78" y="72.251827"/>
     <use style="fill:#ffffff;stroke:#000000;stroke-linejoin:miter;" x="453.6" xlink:href="#m2f6080cc78" y="69.649594"/>
    </g>
   </g>
   <g id="patch_3">
    <path d="M 63 220.5 
L 63 30.24 
" style="fill:none;stroke:#000000;stroke-linecap:square;stroke-linejoin:miter;stroke-width:0.8;"/>
   </g>
   <g id="patch_4">
    <path d="M 453.6 220.5 
L 453.6 30.24 
" style="fill:none;stroke:#000000;stroke-linecap:square;stroke-linejoin:miter;stroke-width:0.8;"/>
   </g>
   <g id="patch_5">
    <path d="M 63 220.5 
L 453.6 220.5 
" style="fill:none;stroke:#000000;stroke-linecap:square;stroke-linejoin:miter;stroke-width:0.8;"/>
   </g>
   <g id="patch_6">
    <path d="M 63 30.24 
L 453.6 30.24 
" style="fill:none;stroke:#000000;stroke-linecap:square;stroke-linejoin:miter;stroke-width:0.8;"/>
   </g>
  </g>
 </g>
 <defs>
  <clipPath id="pa304c39524">
   <rect height="190.26" width="390.6" x="63" y="30.24"/>
  </clipPath>
 </defs>
</svg>
