<?xml version="1.0" encoding="utf-8" standalone="no"?>
<!DOCTYPE svg PUBLIC "-//W3C//DTD SVG 1.1//EN"
  "http://www.w3.org/Graphics/SVG/1.1/DTD/svg11.dtd">
<!-- Created with matplotlib (https://matplotlib.org/) -->
<svg height="252pt" version="1.1" viewBox="0 0 504 252" width="504pt" xmlns="http://www.w3.org/2000/svg" xmlns:xlink="http://www.w3.org/1999/xlink">
 <defs>
  <style type="text/css">
*{stroke-linecap:butt;stroke-linejoin:round;}
  </style>
 </defs>
 <g id="figure_1">
  <g id="patch_1">
   <path d="M 0 252 
L 504 252 
L 504 0 
L 0 0 
z
" style="fill:none;"/>
  </g>
  <g id="axes_1">
   <g id="patch_2">
    <path d="M 63 220.5 
L 453.6 220.5 
L 453.6 30.24 
L 63 30.24 
z
" style="fill:none;"/>
   </g>
   <g id="matplotlib.axis_1">
    <g id="xtick_1"/>
    <g id="xtick_2"/>
    <g id="xtick_3"/>
    <g id="xtick_4"/>
    <g id="xtick_5"/>
    <g id="xtick_6"/>
   </g>
   <g id="matplotlib.axis_2">
    <g id="ytick_1"/>
    <g id="ytick_2"/>
    <g id="ytick_3"/>
    <g id="ytick_4"/>
    <g id="ytick_5"/>
    <g id="ytick_6"/>
    <g id="ytick_7"/>
    <g id="ytick_8"/>
   </g>
   <g id="line2d_1">
    <path clip-path="url(#p9a82ce48bc)" d="M 63 161.190398 
L 64.5624 157.951894 
L 65.7342 156.063683 
L 66.5154 155.168449 
L 67.2966 154.611074 
L 68.0778 154.414774 
L 68.859 154.585921 
L 69.6402 155.113533 
L 70.4214 155.969739 
L 71.5932 157.771638 
L 73.1556 160.817363 
L 75.8898 166.278076 
L 77.0616 168.063246 
L 77.8428 168.938981 
L 78.624 169.531353 
L 79.4052 169.83169 
L 80.1864 169.848166 
L 80.9676 169.605011 
L 81.7488 169.140798 
L 82.9206 168.142684 
L 86.0454 165.18865 
L 86.8266 164.709762 
L 87.6078 164.42769 
L 88.389 164.36695 
L 89.1702 164.536312 
L 89.9514 164.92812 
L 91.1232 165.876742 
L 92.6856 167.579129 
L 94.6386 169.713126 
L 95.4198 170.347016 
L 96.201 170.757226 
L 96.9822 170.889361 
L 97.7634 170.701354 
L 98.5446 170.165987 
L 99.3258 169.272585 
L 100.107 168.027778 
L 101.2788 165.558021 
L 102.4506 162.499989 
L 104.7942 155.489656 
L 106.7472 149.921817 
L 107.919 147.167032 
L 109.0908 145.034769 
L 109.872 143.991919 
L 110.6532 143.250495 
L 111.4344 142.79073 
L 112.2156 142.57796 
L 112.9968 142.56494 
L 114.1686 142.793978 
L 116.5122 143.361494 
L 117.2934 143.363948 
L 118.0746 143.194676 
L 118.8558 142.825353 
L 119.637 142.24305 
L 120.8088 140.982175 
L 121.9806 139.332797 
L 125.8866 133.326231 
L 126.6678 132.529858 
L 127.449 132.015927 
L 128.2302 131.830233 
L 129.0114 132.004316 
L 129.7926 132.553541 
L 130.5738 133.476066 
L 131.355 134.752788 
L 132.5268 137.250373 
L 134.0892 141.37472 
L 137.6046 151.188646 
L 138.7764 153.80025 
L 139.9482 155.817557 
L 140.7294 156.805821 
L 141.5106 157.514792 
L 142.2918 157.967814 
L 143.073 158.202657 
L 144.2448 158.257054 
L 146.979 158.071528 
L 147.7602 158.214899 
L 148.5414 158.538529 
L 149.3226 159.074537 
L 150.1038 159.840051 
L 151.2756 161.416218 
L 152.4474 163.441774 
L 154.4004 167.408915 
L 156.3534 171.257688 
L 157.5252 173.064316 
L 158.3064 173.933638 
L 159.0876 174.483005 
L 159.8688 174.684281 
L 160.65 174.525822 
L 161.4312 174.013279 
L 162.2124 173.169436 
L 162.9936 172.033092 
L 164.1654 169.898761 
L 168.462 161.273525 
L 169.6338 159.71974 
L 170.415 159.034386 
L 171.1962 158.648065 
L 171.9774 158.557777 
L 172.7586 158.744119 
L 173.5398 159.172719 
L 174.7116 160.164174 
L 178.6176 164.011675 
L 179.3988 164.444338 
L 180.18 164.669296 
L 180.9612 164.67275 
L 181.7424 164.457214 
L 182.5236 164.041526 
L 183.6954 163.121334 
L 186.8202 160.284429 
L 187.6014 159.852894 
L 188.3826 159.663316 
L 189.1638 159.767905 
L 189.945 160.205999 
L 190.7262 161.001699 
L 191.5074 162.162339 
L 192.2886 163.67791 
L 193.4604 166.553429 
L 195.0228 171.25323 
L 199.3194 184.990637 
L 200.4912 187.876651 
L 201.663 190.115094 
L 202.4442 191.233856 
L 203.2254 192.068521 
L 204.0066 192.649233 
L 204.7878 193.019517 
L 205.9596 193.300724 
L 208.3032 193.653371 
L 209.475 194.13172 
L 210.2562 194.670833 
L 211.0374 195.417797 
L 212.2092 196.944764 
L 213.381 198.9213 
L 214.9434 202.047914 
L 217.287 206.842384 
L 218.4588 208.786134 
L 219.24 209.7654 
L 220.0212 210.431675 
L 220.8024 210.748608 
L 221.5836 210.695522 
L 222.3648 210.268725 
L 223.146 209.481872 
L 223.9272 208.365361 
L 225.099 206.175794 
L 226.6614 202.626658 
L 229.3956 196.33202 
L 230.5674 194.200823 
L 231.3486 193.093748 
L 232.1298 192.266804 
L 232.911 191.726225 
L 233.6922 191.46146 
L 234.4734 191.446108 
L 235.2546 191.639755 
L 236.4264 192.206499 
L 239.1606 193.727145 
L 239.9418 193.938273 
L 240.723 193.960318 
L 241.5042 193.763724 
L 242.2854 193.334228 
L 243.0666 192.673864 
L 244.2384 191.294916 
L 245.8008 188.944113 
L 248.1444 185.296972 
L 249.3162 183.919927 
L 250.0974 183.312176 
L 250.8786 183.008999 
L 251.6598 183.043192 
L 252.441 183.431499 
L 253.2222 184.173518 
L 254.0034 185.25156 
L 255.1752 187.419883 
L 256.7376 191.052312 
L 259.8624 198.731711 
L 261.0342 201.024704 
L 261.8154 202.227965 
L 262.5966 203.136675 
L 263.3778 203.74003 
L 264.159 204.044109 
L 264.9402 204.071193 
L 265.7214 203.858164 
L 266.8932 203.198267 
L 270.4086 200.706734 
L 271.1898 200.427516 
L 271.971 200.341878 
L 272.7522 200.468438 
L 273.5334 200.809703 
L 274.3146 201.351755 
L 275.4864 202.472426 
L 279.0018 206.318549 
L 279.783 206.843699 
L 280.5642 207.108682 
L 281.3454 207.063469 
L 282.1266 206.671412 
L 282.9078 205.911469 
L 283.689 204.779547 
L 284.4702 203.288903 
L 285.642 200.450285 
L 287.2044 195.811671 
L 291.1104 183.42257 
L 292.2822 180.434125 
L 293.454 178.060692 
L 294.2352 176.842516 
L 295.0164 175.906847 
L 295.7976 175.228149 
L 296.5788 174.766781 
L 297.7506 174.368014 
L 300.4848 173.721669 
L 301.266 173.336154 
L 302.0472 172.771264 
L 302.8284 171.997107 
L 304.0002 170.415858 
L 305.172 168.353844 
L 306.7344 165.038812 
L 309.8592 158.184699 
L 311.031 156.235083 
L 311.8122 155.289235 
L 312.5934 154.676076 
L 313.3746 154.421396 
L 314.1558 154.534308 
L 314.937 155.006589 
L 315.7182 155.812986 
L 316.4994 156.912481 
L 317.6712 158.988737 
L 321.9678 167.342545 
L 322.749 168.39223 
L 323.5302 169.173438 
L 324.3114 169.666426 
L 325.0926 169.868292 
L 325.8738 169.792817 
L 326.655 169.469354 
L 327.8268 168.616114 
L 329.7798 166.69526 
L 331.3422 165.280699 
L 332.514 164.59 
L 333.2952 164.381356 
L 334.0764 164.398854 
L 334.8576 164.645696 
L 335.6388 165.108647 
L 336.8106 166.140753 
L 338.7636 168.341346 
L 340.326 169.950441 
L 341.1072 170.514866 
L 341.8884 170.835878 
L 342.6696 170.862954 
L 343.4508 170.558842 
L 344.232 169.901818 
L 345.0132 168.887062 
L 345.7944 167.527108 
L 346.9662 164.908382 
L 348.5286 160.604508 
L 352.4346 149.247447 
L 353.6064 146.624563 
L 354.7782 144.645016 
L 355.5594 143.706096 
L 356.3406 143.063651 
L 357.1218 142.692627 
L 357.903 142.553773 
L 359.0748 142.667149 
L 362.1996 143.379272 
L 362.9808 143.327284 
L 363.762 143.092287 
L 364.5432 142.651037 
L 365.3244 141.996113 
L 366.4962 140.637214 
L 368.0586 138.292553 
L 370.7928 133.978316 
L 371.9646 132.639145 
L 372.7458 132.076831 
L 373.527 131.836352 
L 374.3082 131.951671 
L 375.0894 132.440821 
L 375.8706 133.30473 
L 376.6518 134.52701 
L 377.8236 136.956144 
L 378.9954 139.942581 
L 383.6826 152.719854 
L 384.8544 155.009064 
L 385.6356 156.18646 
L 386.4168 157.077913 
L 387.198 157.696283 
L 387.9792 158.070063 
L 388.7604 158.241407 
L 389.9322 158.237116 
L 392.2758 158.062498 
L 393.057 158.181021 
L 393.8382 158.473428 
L 394.6194 158.974059 
L 395.4006 159.70253 
L 396.5724 161.225736 
L 397.7442 163.209026 
L 399.6972 167.148321 
L 401.6502 171.036952 
L 402.822 172.898991 
L 403.6032 173.81566 
L 404.3844 174.418276 
L 405.1656 174.676212 
L 405.9468 174.575119 
L 406.728 174.117878 
L 407.5092 173.324597 
L 408.2904 172.231636 
L 409.4622 170.144548 
L 411.8058 165.198621 
L 413.3682 162.131363 
L 414.54 160.329077 
L 415.3212 159.453143 
L 416.1024 158.868966 
L 416.8836 158.584693 
L 417.6648 158.591632 
L 418.446 158.865073 
L 419.2272 159.366024 
L 420.399 160.430649 
L 423.5238 163.62638 
L 424.6956 164.388756 
L 425.4768 164.648132 
L 426.258 164.687123 
L 427.0392 164.505619 
L 427.8204 164.119898 
L 428.9922 163.231989 
L 432.5076 160.1139 
L 433.2888 159.758265 
L 434.07 159.663644 
L 434.8512 159.878174 
L 435.6324 160.436229 
L 436.4136 161.356321 
L 437.1948 162.639892 
L 438.3666 165.207447 
L 439.5384 168.431249 
L 441.4914 174.721664 
L 444.2256 183.541296 
L 445.3974 186.683682 
L 446.5692 189.214341 
L 447.741 191.075269 
L 448.5222 191.953541 
L 449.3034 192.572102 
L 450.0846 192.972514 
L 451.2564 193.281394 
L 453.6 193.621189 
L 453.6 193.621189 
" style="fill:none;stroke:#8cbfb9;stroke-linecap:square;stroke-width:4;"/>
   </g>
   <g id="line2d_2">
    <path clip-path="url(#p9a82ce48bc)" d="M 63 161.307492 
L 63 -1 
M 63.7812 -1 
L 63.7812 159.392968 
L 64.953 157.200578 
L 66.1248 155.537199 
L 66.906 154.813573 
L 67.6872 154.440424 
L 68.4684 154.432928 
L 69.2496 154.788307 
L 70.0308 155.485559 
L 70.812 156.488774 
L 71.9838 158.461399 
L 73.5462 161.606859 
L 75.4992 165.546639 
L 76.671 167.485247 
L 77.4522 168.493024 
L 78.2334 169.229993 
L 79.0146 169.678785 
L 79.7958 169.837909 
L 80.577 169.723734 
L 81.3582 169.367216 
L 82.53 168.479249 
L 86.436 164.915347 
L 87.2172 164.53783 
L 87.9984 164.36439 
L 88.7796 164.412222 
L 89.5608 164.690781 
L 90.7326 165.501123 
L 91.9044 166.667507 
L 95.0292 170.011651 
L 95.8104 170.536125 
L 96.5916 170.810021 
L 97.3728 170.785304 
L 98.154 170.425491 
L 98.9352 169.711257 
L 99.7164 168.640164 
L 100.4976 167.226865 
L 101.6694 164.542912 
L 103.2318 160.189275 
L 106.7472 149.890881 
L 107.919 147.14036 
L 108.7002 145.634708 
L 109.872 143.962553 
L 110.6532 143.228623 
L 111.4344 142.769977 
L 112.2156 142.553744 
L 112.9968 142.540253 
L 114.1686 142.763316 
L 116.5122 143.315687 
L 117.684 143.249926 
L 118.4652 142.985207 
L 119.2464 142.505972 
L 120.0276 141.815964 
L 121.1994 140.4166 
L 122.7618 138.045152 
L 125.1054 134.329398 
L 126.2772 132.890994 
L 127.0584 132.216843 
L 127.8396 131.872879 
L 128.6208 131.856673 
L 129.402 132.213768 
L 130.1832 132.957132 
L 130.9644 134.049139 
L 132.1362 136.321994 
L 133.308 139.196524 
L 135.6516 145.850266 
L 137.6046 151.136605 
L 138.7764 153.746084 
L 139.9482 155.765894 
L 140.7294 156.753255 
L 141.5106 157.46431 
L 142.2918 157.921815 
L 143.073 158.162156 
L 144.2448 158.224446 
L 146.979 158.060157 
L 147.7602 158.20589 
L 148.5414 158.532208 
L 149.3226 159.069953 
L 150.1038 159.83632 
L 151.2756 161.41086 
L 152.4474 163.431276 
L 154.4004 167.387697 
L 156.3534 171.221216 
L 157.5252 173.01891 
L 158.3064 173.885871 
L 159.0876 174.431937 
L 159.8688 174.630309 
L 160.65 174.470277 
L 161.4312 173.956783 
L 162.2124 173.113325 
L 162.9936 171.979585 
L 164.1654 169.846641 
L 168.462 161.239697 
L 169.2432 160.145558 
L 170.0244 159.314388 
L 170.8056 158.785482 
L 171.5868 158.545545 
L 172.368 158.608873 
L 173.1492 158.913398 
L 174.321 159.778296 
L 175.8834 161.368583 
L 177.8364 163.361591 
L 179.0082 164.20703 
L 179.7894 164.537974 
L 180.5706 164.651139 
L 181.3518 164.542727 
L 182.133 164.2257 
L 183.3048 163.417097 
L 185.2578 161.588603 
L 186.4296 160.549522 
L 187.6014 159.840241 
L 188.3826 159.656084 
L 189.1638 159.766075 
L 189.945 160.205842 
L 190.7262 160.994241 
L 191.5074 162.157285 
L 192.2886 163.67028 
L 193.4604 166.542134 
L 195.0228 171.234058 
L 199.3194 184.948934 
L 200.4912 187.832699 
L 201.663 190.071256 
L 202.4442 191.191446 
L 203.2254 192.028661 
L 204.0066 192.613371 
L 204.7878 192.987987 
L 205.9596 193.276455 
L 208.6938 193.766952 
L 209.475 194.128634 
L 210.2562 194.668131 
L 211.0374 195.417993 
L 212.2092 196.944346 
L 213.381 198.917543 
L 214.9434 202.037085 
L 217.287 206.817461 
L 218.4588 208.753804 
L 219.24 209.72885 
L 220.0212 210.391941 
L 220.8024 210.706235 
L 221.5836 210.651701 
L 222.3648 210.22485 
L 223.146 209.439234 
L 223.9272 208.324768 
L 225.099 206.139098 
L 226.6614 202.595546 
L 229.3956 196.311071 
L 230.5674 194.184577 
L 231.3486 193.079102 
L 232.1298 192.258261 
L 232.911 191.715764 
L 233.6922 191.454018 
L 234.4734 191.4392 
L 235.2546 191.62872 
L 236.4264 192.190668 
L 239.1606 193.695775 
L 239.9418 193.903641 
L 240.723 193.922818 
L 241.5042 193.724626 
L 242.2854 193.294892 
L 243.0666 192.635468 
L 244.2384 191.260425 
L 245.8008 188.91795 
L 248.1444 185.290147 
L 249.3162 183.920658 
L 250.0974 183.313141 
L 250.8786 183.008205 
L 251.6598 183.04094 
L 252.441 183.429634 
L 253.2222 184.171029 
L 254.0034 185.245057 
L 255.1752 187.411321 
L 256.7376 191.033448 
L 259.8624 198.697016 
L 261.0342 200.986062 
L 261.8154 202.187804 
L 262.5966 203.095762 
L 263.3778 203.700308 
L 264.159 204.006656 
L 264.9402 204.037 
L 265.7214 203.827821 
L 266.8932 203.175178 
L 270.4086 200.703599 
L 271.1898 200.426954 
L 271.971 200.342957 
L 272.7522 200.469772 
L 273.5334 200.810032 
L 274.3146 201.35013 
L 275.4864 202.465964 
L 279.0018 206.290406 
L 279.783 206.810768 
L 280.5642 207.071442 
L 281.3454 207.022777 
L 282.1266 206.628115 
L 282.9078 205.866663 
L 283.689 204.734481 
L 284.4702 203.244951 
L 285.642 200.408994 
L 287.2044 195.775815 
L 291.1104 183.398126 
L 292.2822 180.413655 
L 293.454 178.045624 
L 294.6258 176.329275 
L 295.407 175.525064 
L 296.1882 174.95959 
L 297.36 174.453382 
L 299.313 174.030378 
L 300.4848 173.684141 
L 301.266 173.295011 
L 302.0472 172.727872 
L 302.8284 171.952483 
L 304.0002 170.37094 
L 305.172 168.311238 
L 306.7344 165.005965 
L 309.8592 158.175679 
L 311.031 156.23436 
L 311.8122 155.275903 
L 312.5934 154.669196 
L 313.3746 154.409419 
L 314.1558 154.520652 
L 314.937 154.991654 
L 315.7182 155.796852 
L 316.4994 156.891512 
L 317.6712 158.96203 
L 321.9678 167.294484 
L 322.749 168.343128 
L 323.5302 169.125503 
L 324.3114 169.618452 
L 325.0926 169.821 
L 325.8738 169.746109 
L 326.655 169.427038 
L 327.4362 168.904638 
L 328.608 167.855397 
L 331.3422 165.272129 
L 332.1234 164.767243 
L 332.9046 164.453444 
L 333.6858 164.357816 
L 334.467 164.490514 
L 335.2482 164.846364 
L 336.0294 165.405362 
L 337.2012 166.539401 
L 340.326 169.915281 
L 341.1072 170.474427 
L 341.8884 170.790457 
L 342.6696 170.813697 
L 343.4508 170.506422 
L 344.232 169.84706 
L 345.0132 168.831669 
L 345.7944 167.471936 
L 346.9662 164.854447 
L 348.5286 160.55403 
L 352.4346 149.209228 
L 353.6064 146.593362 
L 354.7782 144.621578 
L 355.5594 143.685195 
L 356.3406 143.04411 
L 357.1218 142.67422 
L 357.903 142.530026 
L 359.0748 142.638316 
L 362.1996 143.331835 
L 362.9808 143.277143 
L 363.762 143.040574 
L 364.5432 142.596352 
L 365.3244 141.938886 
L 366.4962 140.582542 
L 367.668 138.8706 
L 371.1834 133.458618 
L 371.9646 132.624533 
L 372.7458 132.069944 
L 373.527 131.825542 
L 374.3082 131.947373 
L 375.0894 132.425797 
L 375.8706 133.288418 
L 376.6518 134.512735 
L 377.8236 136.93116 
L 379.386 140.989478 
L 382.9014 150.831863 
L 384.0732 153.496287 
L 385.245 155.579893 
L 386.0262 156.614827 
L 386.8074 157.368924 
L 387.5886 157.862155 
L 388.3698 158.131639 
L 389.151 158.227572 
L 390.7134 158.121834 
L 392.2758 158.044956 
L 393.057 158.167129 
L 393.8382 158.463713 
L 394.6194 158.967006 
L 395.4006 159.6932 
L 396.5724 161.212951 
L 397.7442 163.189283 
L 399.3066 166.293371 
L 401.6502 170.989453 
L 402.822 172.849895 
L 403.6032 173.767322 
L 404.3844 174.371838 
L 405.1656 174.631253 
L 405.9468 174.531155 
L 406.728 174.074665 
L 407.5092 173.283855 
L 408.2904 172.191942 
L 409.4622 170.106073 
L 411.8058 165.164001 
L 413.3682 162.092152 
L 414.54 160.291941 
L 415.3212 159.426259 
L 416.1024 158.844319 
L 416.8836 158.552607 
L 417.6648 158.570145 
L 418.446 158.843387 
L 419.2272 159.338065 
L 420.399 160.403544 
L 423.5238 163.58959 
L 424.6956 164.3436 
L 425.4768 164.604621 
L 426.258 164.64001 
L 427.0392 164.453802 
L 427.8204 164.07052 
L 428.9922 163.185861 
L 432.5076 160.091433 
L 433.2888 159.734919 
L 434.07 159.644651 
L 434.8512 159.850111 
L 435.6324 160.399401 
L 436.4136 161.328241 
L 437.1948 162.596466 
L 438.3666 165.15629 
L 439.5384 168.377474 
L 441.1008 173.341 
L 444.2256 183.448576 
L 445.3974 186.58349 
L 446.5692 189.112253 
L 447.741 190.973106 
L 448.5222 191.863395 
L 449.3034 192.514433 
L 450.0846 192.947722 
L 451.2564 193.269639 
L 453.6 193.701416 
L 453.6 193.701416 
" style="fill:none;stroke:#000000;stroke-dasharray:7.4,3.2;stroke-dashoffset:0;stroke-width:2;"/>
    <defs>
     <path d="M -2.5 2.5 
L 2.5 2.5 
L 2.5 -2.5 
L -2.5 -2.5 
z
" id="m187f1885bf" style="stroke:#000000;stroke-linejoin:miter;"/>
    </defs>
    <g clip-path="url(#p9a82ce48bc)">
     <use style="fill:#ffffff;stroke:#000000;stroke-linejoin:miter;" x="63" xlink:href="#m187f1885bf" y="161.307492"/>
     <use style="fill:#ffffff;stroke:#000000;stroke-linejoin:miter;" x="82.53" xlink:href="#m187f1885bf" y="168.479249"/>
     <use style="fill:#ffffff;stroke:#000000;stroke-linejoin:miter;" x="102.06" xlink:href="#m187f1885bf" y="163.5232"/>
     <use style="fill:#ffffff;stroke:#000000;stroke-linejoin:miter;" x="121.59" xlink:href="#m187f1885bf" y="139.865906"/>
     <use style="fill:#ffffff;stroke:#000000;stroke-linejoin:miter;" x="141.12" xlink:href="#m187f1885bf" y="157.144828"/>
     <use style="fill:#ffffff;stroke:#000000;stroke-linejoin:miter;" x="160.65" xlink:href="#m187f1885bf" y="174.470277"/>
     <use style="fill:#ffffff;stroke:#000000;stroke-linejoin:miter;" x="180.18" xlink:href="#m187f1885bf" y="164.619718"/>
     <use style="fill:#ffffff;stroke:#000000;stroke-linejoin:miter;" x="199.71" xlink:href="#m187f1885bf" y="185.977686"/>
     <use style="fill:#ffffff;stroke:#000000;stroke-linejoin:miter;" x="219.24" xlink:href="#m187f1885bf" y="209.72885"/>
     <use style="fill:#ffffff;stroke:#000000;stroke-linejoin:miter;" x="238.77" xlink:href="#m187f1885bf" y="193.533424"/>
     <use style="fill:#ffffff;stroke:#000000;stroke-linejoin:miter;" x="258.3" xlink:href="#m187f1885bf" y="194.994982"/>
     <use style="fill:#ffffff;stroke:#000000;stroke-linejoin:miter;" x="277.83" xlink:href="#m187f1885bf" y="205.156856"/>
     <use style="fill:#ffffff;stroke:#000000;stroke-linejoin:miter;" x="297.36" xlink:href="#m187f1885bf" y="174.453382"/>
     <use style="fill:#ffffff;stroke:#000000;stroke-linejoin:miter;" x="316.89" xlink:href="#m187f1885bf" y="157.535993"/>
     <use style="fill:#ffffff;stroke:#000000;stroke-linejoin:miter;" x="336.42" xlink:href="#m187f1885bf" y="165.749266"/>
     <use style="fill:#ffffff;stroke:#000000;stroke-linejoin:miter;" x="355.95" xlink:href="#m187f1885bf" y="143.33127"/>
     <use style="fill:#ffffff;stroke:#000000;stroke-linejoin:miter;" x="375.48" xlink:href="#m187f1885bf" y="132.81973"/>
     <use style="fill:#ffffff;stroke:#000000;stroke-linejoin:miter;" x="395.01" xlink:href="#m187f1885bf" y="159.299172"/>
     <use style="fill:#ffffff;stroke:#000000;stroke-linejoin:miter;" x="414.54" xlink:href="#m187f1885bf" y="160.291941"/>
     <use style="fill:#ffffff;stroke:#000000;stroke-linejoin:miter;" x="434.07" xlink:href="#m187f1885bf" y="159.644651"/>
     <use style="fill:#ffffff;stroke:#000000;stroke-linejoin:miter;" x="453.6" xlink:href="#m187f1885bf" y="193.701416"/>
    </g>
   </g>
   <g id="line2d_3">
    <path clip-path="url(#p9a82ce48bc)" d="M 63 58.99873 
L 64.1718 57.371126 
L 65.3436 56.187969 
L 66.5154 55.426807 
L 67.6872 55.042469 
L 68.859 54.970366 
L 70.0308 55.1309 
L 71.9838 55.670707 
L 73.9368 56.18067 
L 75.1086 56.309597 
L 76.2804 56.223121 
L 77.4522 55.875078 
L 78.624 55.241279 
L 79.7958 54.321258 
L 80.9676 53.138596 
L 82.53 51.236561 
L 87.2172 45.107086 
L 88.389 43.990744 
L 89.5608 43.236224 
L 90.342 42.974794 
L 91.1232 42.93008 
L 91.9044 43.117589 
L 92.6856 43.54825 
L 93.4668 44.228071 
L 94.248 45.157931 
L 95.4198 47.010625 
L 96.5916 49.378595 
L 98.154 53.228985 
L 100.107 58.86091 
L 105.1848 74.190282 
L 106.7472 78.063717 
L 107.919 80.474617 
L 109.0908 82.403949 
L 110.2626 83.826585 
L 111.0438 84.492826 
L 111.825 84.94018 
L 112.6062 85.179895 
L 113.3874 85.227594 
L 114.1686 85.1028 
L 115.3404 84.642908 
L 116.5122 83.934552 
L 118.8558 82.156661 
L 120.8088 80.755932 
L 121.9806 80.120675 
L 123.1524 79.712566 
L 124.3242 79.567476 
L 125.496 79.698038 
L 126.6678 80.092888 
L 127.8396 80.717344 
L 129.402 81.807832 
L 132.9174 84.393519 
L 134.0892 84.960371 
L 135.261 85.223696 
L 136.0422 85.190495 
L 136.8234 84.966698 
L 137.6046 84.536352 
L 138.3858 83.887845 
L 139.167 83.014285 
L 140.3388 81.279189 
L 141.5106 79.049764 
L 142.6824 76.366729 
L 144.2448 72.198596 
L 146.5884 65.126064 
L 150.1038 54.467975 
L 151.6662 50.419429 
L 152.838 47.867392 
L 154.0098 45.809883 
L 155.1816 44.29298 
L 155.9628 43.593211 
L 156.744 43.142862 
L 157.5252 42.936328 
L 158.3064 42.96306 
L 159.0876 43.2079 
L 159.8688 43.651517 
L 161.0406 44.638571 
L 162.2124 45.931057 
L 164.1654 48.492639 
L 167.2902 52.620444 
L 168.8526 54.264758 
L 170.0244 55.199525 
L 171.1962 55.848721 
L 172.368 56.211531 
L 173.5398 56.310915 
L 174.7116 56.191939 
L 176.274 55.806803 
L 179.0082 55.067492 
L 180.18 54.963457 
L 181.3518 55.115589 
L 182.133 55.397425 
L 182.9142 55.845814 
L 183.6954 56.475574 
L 184.8672 57.78206 
L 186.039 59.534898 
L 187.2108 61.724691 
L 188.7732 65.260734 
L 190.7262 70.451915 
L 196.1946 85.745842 
L 197.757 89.166263 
L 198.9288 91.184122 
L 200.1006 92.659428 
L 200.8818 93.320707 
L 201.663 93.717045 
L 202.4442 93.848249 
L 203.2254 93.719374 
L 204.0066 93.340557 
L 204.7878 92.726738 
L 205.9596 91.408768 
L 207.1314 89.687539 
L 208.6938 86.932653 
L 214.5528 75.980863 
L 215.7246 74.33625 
L 216.8964 73.006138 
L 218.0682 72.002743 
L 219.24 71.313985 
L 220.4118 70.904746 
L 221.5836 70.719488 
L 223.5366 70.707033 
L 225.8802 70.683606 
L 227.052 70.459753 
L 228.2238 69.987016 
L 229.3956 69.201674 
L 230.5674 68.058936 
L 231.7392 66.536236 
L 232.911 64.635241 
L 234.4734 61.561405 
L 236.4264 57.045066 
L 241.5042 44.764327 
L 242.676 42.501435 
L 243.8478 40.670817 
L 245.0196 39.351172 
L 245.8008 38.784587 
L 246.582 38.482139 
L 247.3632 38.449736 
L 248.1444 38.688011 
L 248.9256 39.192309 
L 249.7068 39.952794 
L 250.8786 41.540304 
L 252.0504 43.601277 
L 253.6128 46.931539 
L 255.9564 52.664031 
L 259.0812 60.291671 
L 260.6436 63.566886 
L 261.8154 65.646016 
L 262.9872 67.356819 
L 264.159 68.685381 
L 265.3308 69.642498 
L 266.5026 70.262346 
L 267.6744 70.599808 
L 269.2368 70.736258 
L 273.1428 70.789645 
L 274.3146 71.080476 
L 275.4864 71.625809 
L 276.6582 72.471226 
L 277.83 73.640401 
L 279.0018 75.133153 
L 280.5642 77.58096 
L 282.5172 81.192213 
L 286.4232 88.720301 
L 287.9856 91.159301 
L 289.1574 92.547371 
L 289.9386 93.214625 
L 290.7198 93.651114 
L 291.501 93.840808 
L 292.2822 93.772389 
L 293.0634 93.439573 
L 293.8446 92.841288 
L 294.6258 91.981745 
L 295.7976 90.224564 
L 296.9694 87.954559 
L 298.5318 84.263039 
L 300.4848 78.909192 
L 304.7814 66.720068 
L 306.3438 62.954387 
L 307.5156 60.56055 
L 308.6874 58.589711 
L 309.8592 57.063774 
L 311.031 55.979304 
L 312.2028 55.308463 
L 313.3746 55.001337 
L 314.5464 54.989505 
L 316.1088 55.289492 
L 320.0148 56.27601 
L 321.1866 56.291095 
L 322.3584 56.062348 
L 323.5302 55.555624 
L 324.702 54.759908 
L 325.8738 53.688263 
L 327.4362 51.896728 
L 329.7798 48.749974 
L 332.1234 45.688377 
L 333.2952 44.442128 
L 334.467 43.517739 
L 335.2482 43.123945 
L 336.0294 42.934348 
L 336.8106 42.96724 
L 337.5918 43.236613 
L 338.373 43.751751 
L 339.1542 44.516932 
L 339.9354 45.531259 
L 341.1072 47.505106 
L 342.279 49.98247 
L 343.8414 53.951513 
L 345.7944 59.674569 
L 350.4816 73.853937 
L 352.044 77.781305 
L 353.2158 80.240811 
L 354.3876 82.222916 
L 355.5594 83.699769 
L 356.3406 84.401597 
L 357.1218 84.883178 
L 357.903 85.155025 
L 358.6842 85.232093 
L 359.4654 85.13332 
L 360.6372 84.705147 
L 361.809 84.018729 
L 363.762 82.560186 
L 366.1056 80.83455 
L 367.2774 80.178178 
L 368.4492 79.743857 
L 369.621 79.569823 
L 370.7928 79.671238 
L 371.9646 80.039277 
L 373.1364 80.641659 
L 374.6988 81.713684 
L 378.2142 84.319201 
L 379.386 84.913064 
L 380.5578 85.212655 
L 381.339 85.208074 
L 382.1202 85.015807 
L 382.9014 84.619251 
L 383.6826 84.006076 
L 384.4638 83.168619 
L 385.6356 81.487353 
L 386.8074 79.308921 
L 387.9792 76.671379 
L 389.5416 72.551211 
L 391.8852 65.514569 
L 395.4006 54.81657 
L 396.963 50.716765 
L 398.1348 48.115926 
L 399.3066 46.003289 
L 400.4784 44.427558 
L 401.2596 43.687887 
L 402.0408 43.198059 
L 402.822 42.953274 
L 403.6032 42.943756 
L 404.3844 43.155051 
L 405.1656 43.56846 
L 406.3374 44.51761 
L 407.5092 45.78225 
L 409.4622 48.321549 
L 412.587 52.472841 
L 414.1494 54.149544 
L 415.3212 55.113588 
L 416.493 55.793567 
L 417.6648 56.186102 
L 418.8366 56.311683 
L 420.0084 56.21315 
L 421.5708 55.843191 
L 424.6956 55.025765 
L 425.8674 54.972585 
L 427.0392 55.193998 
L 427.8204 55.530672 
L 428.6016 56.039402 
L 429.7734 57.153228 
L 430.9452 58.709545 
L 432.117 60.71008 
L 433.2888 63.131213 
L 434.8512 66.92676 
L 436.8042 72.324602 
L 441.1008 84.466363 
L 442.6632 88.123477 
L 443.835 90.360811 
L 445.0068 92.080994 
L 445.788 92.914276 
L 446.5692 93.48563 
L 447.3504 93.791384 
L 448.1316 93.833143 
L 448.9128 93.617717 
L 449.694 93.156919 
L 450.4752 92.467237 
L 451.647 91.049931 
L 452.8188 89.250048 
L 453.6 87.885892 
L 453.6 87.885892 
" style="fill:none;stroke:#da888e;stroke-linecap:square;stroke-width:4;"/>
   </g>
   <g id="line2d_4">
    <path clip-path="url(#p9a82ce48bc)" d="M 63 118.133594 
L 63 253 
M 64.097539 253 
L 64.1718 200.238737 
L 64.5624 112.728038 
L 65.3436 75.195395 
L 66.1248 64.369274 
L 66.5154 61.64625 
L 67.2966 58.31532 
L 68.0778 56.746886 
L 68.4684 56.083799 
L 68.859 56.004061 
L 69.2496 55.395614 
L 69.6402 55.630192 
L 70.0308 55.179956 
L 70.4214 55.417064 
L 70.812 55.238343 
L 71.5932 55.405607 
L 71.9838 55.413605 
L 72.3744 55.57146 
L 73.1556 55.706454 
L 74.3274 55.952114 
L 74.718 55.92947 
L 75.1086 56.038774 
L 75.4992 55.928987 
L 75.8898 56.048656 
L 76.2804 55.883813 
L 76.671 55.903042 
L 77.0616 55.718141 
L 77.4522 55.667783 
L 79.7958 54.154298 
L 80.9676 53.042163 
L 83.3112 50.137611 
L 87.6078 44.7395 
L 88.7796 43.735513 
L 89.5608 43.282606 
L 90.342 43.026458 
L 91.1232 42.992641 
L 91.9044 43.187396 
L 92.6856 43.615856 
L 93.4668 44.295515 
L 94.248 45.230045 
L 95.0292 46.406755 
L 96.201 48.612671 
L 97.3728 51.266863 
L 99.3258 56.595053 
L 102.4506 66.215161 
L 104.7942 73.173143 
L 106.3566 77.229092 
L 107.919 80.507552 
L 109.0908 82.433436 
L 109.872 83.446138 
L 111.0438 84.52361 
L 111.825 84.969024 
L 112.6062 85.208378 
L 113.3874 85.255104 
L 114.1686 85.129521 
L 115.3404 84.670357 
L 116.5122 83.962508 
L 118.8558 82.184645 
L 120.8088 80.777273 
L 121.9806 80.138826 
L 123.1524 79.727209 
L 124.3242 79.57884 
L 125.496 79.704994 
L 126.6678 80.096565 
L 128.2302 80.973973 
L 130.1832 82.417579 
L 132.5268 84.153902 
L 133.6986 84.801051 
L 134.8704 85.174731 
L 135.6516 85.227854 
L 136.4328 85.100721 
L 137.214 84.774508 
L 137.9952 84.233509 
L 138.7764 83.47492 
L 139.9482 81.907986 
L 141.12 79.839505 
L 142.2918 77.30059 
L 143.8542 73.287663 
L 145.8072 67.545425 
L 150.4944 53.396822 
L 152.0568 49.521084 
L 153.2286 47.129726 
L 154.4004 45.251385 
L 155.1816 44.301392 
L 155.9628 43.600514 
L 156.744 43.153734 
L 157.5252 42.948011 
L 158.3064 42.974749 
L 159.0876 43.219683 
L 159.8688 43.663428 
L 161.0406 44.649373 
L 162.2124 45.942205 
L 164.1654 48.501771 
L 167.2902 52.624485 
L 168.8526 54.26552 
L 170.0244 55.199914 
L 171.1962 55.851584 
L 172.368 56.218425 
L 173.5398 56.320825 
L 174.7116 56.201391 
L 176.6646 55.698603 
L 179.0082 55.076935 
L 180.18 54.971663 
L 181.3518 55.123265 
L 182.133 55.406421 
L 182.9142 55.850631 
L 184.086 56.866536 
L 185.2578 58.320411 
L 186.4296 60.219355 
L 187.6014 62.546385 
L 189.1638 66.237999 
L 191.1168 71.560668 
L 195.804 84.780947 
L 197.3664 88.383583 
L 198.5382 90.56968 
L 199.71 92.231408 
L 200.4912 93.024193 
L 201.2724 93.55377 
L 202.0536 93.817363 
L 202.8348 93.817886 
L 203.616 93.562878 
L 204.3972 93.064897 
L 205.1784 92.340704 
L 206.3502 90.878881 
L 207.522 89.045092 
L 209.475 85.434029 
L 213.381 77.911027 
L 214.9434 75.407266 
L 216.1152 73.864775 
L 217.287 72.643761 
L 218.4588 71.747326 
L 219.6306 71.156275 
L 220.8024 70.828009 
L 222.3648 70.690607 
L 226.2708 70.634407 
L 227.4426 70.335474 
L 228.6144 69.764409 
L 229.7862 68.863614 
L 230.958 67.594307 
L 232.1298 65.941701 
L 233.3016 63.916349 
L 234.864 60.703698 
L 236.817 56.075227 
L 241.1136 45.594185 
L 242.676 42.498637 
L 243.8478 40.668642 
L 245.0196 39.350308 
L 245.8008 38.784424 
L 246.582 38.482702 
L 247.3632 38.45121 
L 248.1444 38.691063 
L 248.9256 39.194909 
L 249.7068 39.954762 
L 250.8786 41.54118 
L 252.0504 43.601074 
L 253.6128 46.930071 
L 255.9564 52.661318 
L 259.0812 60.287292 
L 260.6436 63.561711 
L 261.8154 65.640672 
L 262.9872 67.351461 
L 264.159 68.67971 
L 265.3308 69.637146 
L 266.5026 70.257524 
L 267.6744 70.59571 
L 269.2368 70.733428 
L 273.1428 70.789831 
L 274.3146 71.081638 
L 275.4864 71.627887 
L 276.6582 72.473892 
L 277.83 73.643642 
L 279.0018 75.136838 
L 280.5642 77.58478 
L 282.5172 81.19582 
L 286.4232 88.722562 
L 287.9856 91.161226 
L 289.1574 92.549053 
L 289.9386 93.216448 
L 290.7198 93.652564 
L 291.501 93.842042 
L 292.2822 93.773938 
L 293.0634 93.440447 
L 293.8446 92.841805 
L 294.6258 91.982052 
L 295.7976 90.224655 
L 296.9694 87.954798 
L 298.5318 84.263668 
L 300.4848 78.910643 
L 304.7814 66.723108 
L 306.3438 62.957639 
L 307.5156 60.563969 
L 308.6874 58.593159 
L 309.8592 57.066929 
L 311.031 55.98181 
L 312.2028 55.310663 
L 313.3746 55.003812 
L 314.5464 54.99201 
L 316.1088 55.2917 
L 320.0148 56.278116 
L 321.1866 56.293329 
L 322.3584 56.06448 
L 323.5302 55.557596 
L 324.702 54.762643 
L 325.8738 53.691515 
L 327.4362 51.899918 
L 329.7798 48.753578 
L 332.1234 45.692045 
L 333.2952 44.445695 
L 334.467 43.521478 
L 335.2482 43.127577 
L 336.0294 42.937811 
L 336.8106 42.970218 
L 337.5918 43.239662 
L 338.373 43.754529 
L 339.1542 44.519072 
L 339.9354 45.532849 
L 341.1072 47.506292 
L 342.279 49.982568 
L 343.8414 53.950988 
L 345.7944 59.673594 
L 350.4816 73.856405 
L 352.044 77.784996 
L 353.2158 80.245001 
L 354.3876 82.225704 
L 355.5594 83.700283 
L 356.3406 84.400341 
L 357.1218 84.879508 
L 357.903 85.15366 
L 358.6842 85.228727 
L 359.4654 85.129797 
L 360.6372 84.702912 
L 361.809 84.017108 
L 363.762 82.560033 
L 366.1056 80.839869 
L 367.2774 80.186412 
L 368.4492 79.753258 
L 369.621 79.580943 
L 370.7928 79.68362 
L 371.9646 80.053231 
L 373.1364 80.657324 
L 374.6988 81.730518 
L 378.6048 84.56321 
L 379.7766 85.066731 
L 380.5578 85.229118 
L 381.339 85.224107 
L 382.1202 85.032249 
L 382.9014 84.635891 
L 383.6826 84.022729 
L 384.4638 83.184196 
L 385.6356 81.504626 
L 386.8074 79.32724 
L 387.9792 76.687781 
L 389.5416 72.565785 
L 391.8852 65.525239 
L 395.4006 54.830271 
L 396.963 50.735891 
L 398.1348 48.152072 
L 399.3066 46.067608 
L 400.0878 44.970602 
L 400.869 44.113602 
L 401.6502 43.507323 
L 402.4314 43.143659 
L 403.2126 43.013837 
L 403.9938 43.115833 
L 404.775 43.429818 
L 405.5562 43.925791 
L 406.3374 44.555894 
L 407.8998 46.243533 
L 410.634 49.882751 
L 412.9776 52.889764 
L 414.1494 54.136665 
L 415.3212 55.11807 
L 416.493 55.805177 
L 417.6648 56.197156 
L 418.8366 56.31681 
L 420.0084 56.208832 
L 421.5708 55.809981 
L 424.6956 54.98099 
L 425.4768 54.891034 
L 427.0392 55.165178 
L 427.8204 55.519802 
L 428.6016 56.028419 
L 429.7734 57.16786 
L 430.9452 58.733627 
L 432.117 60.742697 
L 433.6794 64.087328 
L 435.2418 68.0469 
L 439.5384 80.726618 
L 441.1008 85.270375 
L 443.4444 91.182149 
L 448.1316 100.439759 
L 448.5222 100.576119 
L 448.9128 100.2509 
L 449.3034 98.357185 
L 450.0846 93.060537 
L 450.4752 90.438661 
L 450.8658 89.596447 
L 451.2564 88.324281 
L 451.647 88.180368 
L 452.0376 87.545801 
L 452.8188 87.209157 
L 453.2094 86.868213 
L 453.6 109.460597 
L 453.6 109.460597 
" style="fill:none;stroke:#000000;stroke-dasharray:7.4,3.2;stroke-dashoffset:0;stroke-width:2;"/>
    <defs>
     <path d="M 0 -2.5 
L -2.165064 -1.25 
L -2.165064 1.25 
L -0 2.5 
L 2.165064 1.25 
L 2.165064 -1.25 
z
" id="mabdae0a152" style="stroke:#000000;stroke-linejoin:miter;"/>
    </defs>
    <g clip-path="url(#p9a82ce48bc)">
     <use style="fill:#ffffff;stroke:#000000;stroke-linejoin:miter;" x="63" xlink:href="#mabdae0a152" y="118.133594"/>
     <use style="fill:#ffffff;stroke:#000000;stroke-linejoin:miter;" x="82.53" xlink:href="#mabdae0a152" y="51.168156"/>
     <use style="fill:#ffffff;stroke:#000000;stroke-linejoin:miter;" x="102.06" xlink:href="#mabdae0a152" y="64.996598"/>
     <use style="fill:#ffffff;stroke:#000000;stroke-linejoin:miter;" x="121.59" xlink:href="#mabdae0a152" y="80.330059"/>
     <use style="fill:#ffffff;stroke:#000000;stroke-linejoin:miter;" x="141.12" xlink:href="#mabdae0a152" y="79.839505"/>
     <use style="fill:#ffffff;stroke:#000000;stroke-linejoin:miter;" x="160.65" xlink:href="#mabdae0a152" y="44.282992"/>
     <use style="fill:#ffffff;stroke:#000000;stroke-linejoin:miter;" x="180.18" xlink:href="#mabdae0a152" y="54.971663"/>
     <use style="fill:#ffffff;stroke:#000000;stroke-linejoin:miter;" x="199.71" xlink:href="#mabdae0a152" y="92.231408"/>
     <use style="fill:#ffffff;stroke:#000000;stroke-linejoin:miter;" x="219.24" xlink:href="#mabdae0a152" y="71.321584"/>
     <use style="fill:#ffffff;stroke:#000000;stroke-linejoin:miter;" x="238.77" xlink:href="#mabdae0a152" y="51.160692"/>
     <use style="fill:#ffffff;stroke:#000000;stroke-linejoin:miter;" x="258.3" xlink:href="#mabdae0a152" y="58.476692"/>
     <use style="fill:#ffffff;stroke:#000000;stroke-linejoin:miter;" x="277.83" xlink:href="#mabdae0a152" y="73.643642"/>
     <use style="fill:#ffffff;stroke:#000000;stroke-linejoin:miter;" x="297.36" xlink:href="#mabdae0a152" y="87.096693"/>
     <use style="fill:#ffffff;stroke:#000000;stroke-linejoin:miter;" x="316.89" xlink:href="#mabdae0a152" y="55.515966"/>
     <use style="fill:#ffffff;stroke:#000000;stroke-linejoin:miter;" x="336.42" xlink:href="#mabdae0a152" y="42.925575"/>
     <use style="fill:#ffffff;stroke:#000000;stroke-linejoin:miter;" x="355.95" xlink:href="#mabdae0a152" y="84.077161"/>
     <use style="fill:#ffffff;stroke:#000000;stroke-linejoin:miter;" x="375.48" xlink:href="#mabdae0a152" y="82.328063"/>
     <use style="fill:#ffffff;stroke:#000000;stroke-linejoin:miter;" x="395.01" xlink:href="#mabdae0a152" y="55.93989"/>
     <use style="fill:#ffffff;stroke:#000000;stroke-linejoin:miter;" x="414.54" xlink:href="#mabdae0a152" y="54.481301"/>
     <use style="fill:#ffffff;stroke:#000000;stroke-linejoin:miter;" x="434.07" xlink:href="#mabdae0a152" y="65.017107"/>
     <use style="fill:#ffffff;stroke:#000000;stroke-linejoin:miter;" x="453.6" xlink:href="#mabdae0a152" y="109.460597"/>
    </g>
   </g>
   <g id="patch_3">
    <path d="M 63 220.5 
L 63 30.24 
" style="fill:none;stroke:#000000;stroke-linecap:square;stroke-linejoin:miter;stroke-width:0.8;"/>
   </g>
   <g id="patch_4">
    <path d="M 453.6 220.5 
L 453.6 30.24 
" style="fill:none;stroke:#000000;stroke-linecap:square;stroke-linejoin:miter;stroke-width:0.8;"/>
   </g>
   <g id="patch_5">
    <path d="M 63 220.5 
L 453.6 220.5 
" style="fill:none;stroke:#000000;stroke-linecap:square;stroke-linejoin:miter;stroke-width:0.8;"/>
   </g>
   <g id="patch_6">
    <path d="M 63 30.24 
L 453.6 30.24 
" style="fill:none;stroke:#000000;stroke-linecap:square;stroke-linejoin:miter;stroke-width:0.8;"/>
   </g>
  </g>
 </g>
 <defs>
  <clipPath id="p9a82ce48bc">
   <rect height="190.26" width="390.6" x="63" y="30.24"/>
  </clipPath>
 </defs>
</svg>
