<?xml version="1.0" encoding="utf-8" standalone="no"?>
<!DOCTYPE svg PUBLIC "-//W3C//DTD SVG 1.1//EN"
  "http://www.w3.org/Graphics/SVG/1.1/DTD/svg11.dtd">
<!-- Created with matplotlib (https://matplotlib.org/) -->
<svg height="252pt" version="1.1" viewBox="0 0 504 252" width="504pt" xmlns="http://www.w3.org/2000/svg" xmlns:xlink="http://www.w3.org/1999/xlink">
 <defs>
  <style type="text/css">
*{stroke-linecap:butt;stroke-linejoin:round;}
  </style>
 </defs>
 <g id="figure_1">
  <g id="patch_1">
   <path d="M 0 252 
L 504 252 
L 504 0 
L 0 0 
z
" style="fill:none;"/>
  </g>
  <g id="axes_1">
   <g id="patch_2">
    <path d="M 63 220.5 
L 453.6 220.5 
L 453.6 30.24 
L 63 30.24 
z
" style="fill:none;"/>
   </g>
   <g id="matplotlib.axis_1">
    <g id="xtick_1"/>
    <g id="xtick_2"/>
    <g id="xtick_3"/>
    <g id="xtick_4"/>
    <g id="xtick_5"/>
    <g id="xtick_6"/>
   </g>
   <g id="matplotlib.axis_2">
    <g id="ytick_1"/>
    <g id="ytick_2"/>
    <g id="ytick_3"/>
    <g id="ytick_4"/>
    <g id="ytick_5"/>
   </g>
   <g id="line2d_1">
    <path clip-path="url(#pf3767529ec)" d="M 63 126.922019 
L 65.3436 123.446722 
L 68.0778 119.767008 
L 72.3744 114.419489 
L 86.0454 97.919089 
L 98.154 84.165096 
L 101.2788 80.937453 
L 103.6224 78.804834 
L 105.966 76.938534 
L 108.7002 75.055083 
L 111.825 73.189882 
L 116.1216 70.926138 
L 121.9806 68.121237 
L 129.7926 64.653309 
L 139.167 60.679836 
L 142.6824 59.431108 
L 145.8072 58.54901 
L 149.3226 57.791469 
L 162.2124 55.293376 
L 166.509 54.053917 
L 171.9774 52.221235 
L 179.3988 49.455606 
L 184.086 47.81593 
L 187.992 46.697231 
L 191.898 45.811608 
L 196.9758 44.912214 
L 204.0066 43.929135 
L 216.1152 42.258189 
L 220.8024 41.675732 
L 223.9272 41.525323 
L 226.6614 41.615879 
L 229.7862 41.950634 
L 233.6922 42.619944 
L 242.2854 44.234632 
L 245.0196 44.462909 
L 247.7538 44.452766 
L 250.488 44.214058 
L 253.6128 43.70037 
L 257.1282 42.878776 
L 266.112 40.602107 
L 268.8462 40.225812 
L 271.971 40.044724 
L 275.4864 40.091317 
L 280.1736 40.404141 
L 289.1574 41.038741 
L 297.7506 41.591262 
L 302.0472 42.114533 
L 306.3438 42.884087 
L 311.4216 44.040461 
L 317.2806 45.611665 
L 327.4362 48.423074 
L 330.9516 49.069216 
L 334.467 49.471627 
L 338.7636 49.71207 
L 347.7474 50.109203 
L 351.2628 50.526213 
L 354.7782 51.152742 
L 358.6842 52.080768 
L 363.762 53.554579 
L 371.9646 55.956771 
L 380.1672 58.295175 
L 383.292 59.43464 
L 386.4168 60.829395 
L 389.5416 62.488138 
L 393.057 64.628057 
L 396.5724 67.027773 
L 400.0878 69.690601 
L 404.775 73.560531 
L 409.4622 77.374645 
L 412.9776 79.958064 
L 424.6956 88.254451 
L 428.211 91.220309 
L 431.7264 94.462352 
L 435.2418 98.005516 
L 437.976 101.064737 
L 440.3196 103.994259 
L 442.6632 107.285955 
L 445.0068 110.978647 
L 447.741 115.747972 
L 451.647 123.107903 
L 453.6 126.919522 
L 453.6 126.919522 
" style="fill:none;stroke:#257352;stroke-linecap:square;stroke-width:2;"/>
   </g>
   <g id="line2d_2">
    <path clip-path="url(#pf3767529ec)" d="M 63 65.957627 
L 64.5624 70.018552 
L 66.1248 73.392434 
L 67.2966 75.408558 
L 68.4684 76.973433 
L 69.6402 78.103624 
L 70.812 78.835612 
L 71.9838 79.223925 
L 73.1556 79.340176 
L 74.718 79.223834 
L 77.4522 78.922082 
L 78.624 78.975216 
L 79.7958 79.20578 
L 81.3582 79.775757 
L 84.0924 81.147913 
L 86.0454 82.00851 
L 87.6078 82.432848 
L 89.1702 82.575333 
L 90.7326 82.480496 
L 93.8574 82.17561 
L 95.0292 82.316757 
L 96.201 82.762148 
L 96.9822 83.269039 
L 98.154 84.376376 
L 99.3258 85.893369 
L 100.8882 88.445605 
L 103.2318 92.882256 
L 105.5754 97.236389 
L 107.1378 99.77567 
L 108.7002 101.924117 
L 110.2626 103.66952 
L 111.825 105.040655 
L 113.3874 106.09053 
L 114.9498 106.885172 
L 116.9028 107.626187 
L 119.637 108.404514 
L 123.543 109.279946 
L 126.2772 109.702381 
L 129.0114 109.906916 
L 134.8704 110.175723 
L 136.4328 110.518465 
L 137.9952 111.117151 
L 139.5576 112.006173 
L 141.12 113.162245 
L 143.8542 115.556439 
L 146.5884 117.862251 
L 148.1508 118.927624 
L 149.7132 119.732364 
L 151.2756 120.24513 
L 152.4474 120.428671 
L 153.6192 120.438011 
L 155.1816 120.18663 
L 156.744 119.661083 
L 158.697 118.70929 
L 164.9466 115.360343 
L 167.6808 114.318681 
L 171.5868 113.118792 
L 174.7116 112.362568 
L 176.6646 112.121269 
L 178.227 112.15499 
L 179.7894 112.444396 
L 181.3518 113.000592 
L 182.9142 113.787028 
L 185.6484 115.484335 
L 189.1638 117.664376 
L 191.5074 118.870525 
L 193.851 119.836719 
L 196.5852 120.697188 
L 199.3194 121.321526 
L 202.0536 121.726538 
L 204.7878 121.890789 
L 207.522 121.807352 
L 211.0374 121.436839 
L 214.1622 121.141423 
L 215.7246 121.177681 
L 216.8964 121.366464 
L 218.0682 121.743624 
L 219.24 122.34308 
L 220.4118 123.175588 
L 221.9742 124.606694 
L 224.3178 127.149446 
L 227.052 130.053902 
L 229.005 131.801085 
L 230.958 133.209969 
L 232.5204 134.083959 
L 234.0828 134.709844 
L 235.2546 134.988656 
L 236.4264 135.072647 
L 237.5982 134.929816 
L 238.77 134.532243 
L 239.9418 133.865222 
L 241.1136 132.935617 
L 242.676 131.346913 
L 245.0196 128.502144 
L 248.9256 123.713229 
L 251.2692 121.226183 
L 253.6128 119.090521 
L 255.5658 117.611087 
L 257.1282 116.693352 
L 258.3 116.21949 
L 259.4718 115.982921 
L 260.6436 116.029257 
L 261.8154 116.387707 
L 262.9872 117.058186 
L 264.159 118.005034 
L 265.7214 119.57942 
L 271.1898 125.430358 
L 273.1428 127.058695 
L 275.0958 128.361341 
L 276.6582 129.16415 
L 278.2206 129.740436 
L 279.783 130.073629 
L 281.3454 130.161798 
L 282.9078 130.037662 
L 285.642 129.538873 
L 288.3762 129.084334 
L 290.3292 128.963206 
L 292.2822 129.065802 
L 294.2352 129.406698 
L 296.1882 129.986728 
L 298.1412 130.78881 
L 300.8754 132.181991 
L 305.172 134.408804 
L 307.5156 135.373334 
L 310.6404 136.382912 
L 316.1088 137.85987 
L 318.4524 138.332872 
L 320.0148 138.474001 
L 321.5772 138.387357 
L 322.749 138.134137 
L 323.9208 137.704877 
L 325.4832 136.870956 
L 327.4362 135.501322 
L 334.0764 130.441785 
L 336.0294 129.3247 
L 337.5918 128.640766 
L 339.1542 128.181294 
L 340.7166 127.983757 
L 341.8884 128.025094 
L 343.4508 128.338186 
L 345.0132 128.922189 
L 346.9662 129.945588 
L 349.7004 131.678244 
L 356.7312 136.223074 
L 359.0748 137.486214 
L 361.0278 138.289797 
L 362.5902 138.700193 
L 364.1526 138.870978 
L 365.715 138.809078 
L 367.668 138.481361 
L 372.3552 137.523863 
L 373.9176 137.45016 
L 375.48 137.607154 
L 377.0424 138.037333 
L 378.6048 138.767888 
L 380.1672 139.805522 
L 381.7296 141.127626 
L 383.6826 143.086291 
L 389.151 148.814654 
L 391.8852 151.202394 
L 400.869 158.481059 
L 402.0408 159.1653 
L 403.2126 159.610942 
L 404.3844 159.758836 
L 405.5562 159.579836 
L 406.728 159.086241 
L 407.8998 158.332667 
L 409.8528 156.741179 
L 412.1964 154.842309 
L 413.7588 153.884804 
L 414.9306 153.416989 
L 416.1024 153.194412 
L 417.2742 153.22819 
L 418.446 153.516362 
L 419.6178 154.044612 
L 420.7896 154.78617 
L 422.352 156.037556 
L 425.0862 158.602457 
L 428.211 161.458913 
L 432.8982 165.591295 
L 434.4606 167.371892 
L 436.023 169.586682 
L 437.1948 171.598427 
L 438.7572 174.799257 
L 440.3196 178.586845 
L 442.2726 183.971846 
L 445.3974 192.777613 
L 446.9598 196.438851 
L 448.1316 198.605605 
L 449.3034 200.253203 
L 450.4752 201.465779 
L 452.0376 202.697885 
L 453.6 203.961604 
L 453.6 203.961604 
" style="fill:none;stroke:#257352;stroke-dasharray:7.4,3.2;stroke-dashoffset:0;stroke-width:2;"/>
   </g>
   <g id="line2d_3">
    <path clip-path="url(#pf3767529ec)" d="M 63 126.922019 
L 65.7342 122.566347 
L 68.859 118.019758 
L 72.765 112.748332 
L 77.4522 106.796004 
L 80.9676 102.662957 
L 84.483 98.899106 
L 89.5608 93.872697 
L 94.248 89.125902 
L 104.7942 78.125029 
L 107.5284 75.765255 
L 110.2626 73.680416 
L 113.3874 71.594857 
L 116.5122 69.795348 
L 119.637 68.268672 
L 122.7618 66.991079 
L 126.6678 65.64793 
L 136.8234 62.300159 
L 143.073 59.858454 
L 148.5414 57.828484 
L 153.2286 56.350583 
L 157.9158 55.123903 
L 162.603 54.145463 
L 173.9304 51.953448 
L 177.4458 50.937698 
L 180.9612 49.673204 
L 194.2416 44.585081 
L 197.3664 43.738048 
L 200.1006 43.22112 
L 202.8348 42.953307 
L 205.569 42.919885 
L 209.475 43.130053 
L 215.7246 43.486331 
L 218.8494 43.439622 
L 222.3648 43.141989 
L 230.5674 42.29102 
L 233.6922 42.228402 
L 236.817 42.382121 
L 240.3324 42.797879 
L 249.7068 44.106352 
L 252.8316 44.228508 
L 255.5658 44.119994 
L 258.3 43.779684 
L 261.0342 43.197066 
L 264.159 42.290758 
L 271.5804 40.030128 
L 274.7052 39.357054 
L 277.4394 38.993991 
L 279.783 38.888182 
L 282.1266 38.990997 
L 284.8608 39.35215 
L 288.3762 40.068419 
L 301.266 42.896562 
L 305.5626 43.531847 
L 318.843 45.261595 
L 322.3584 46.108587 
L 326.655 47.41679 
L 332.514 49.207152 
L 336.0294 50.045188 
L 339.1542 50.56674 
L 342.279 50.858571 
L 345.7944 50.956794 
L 353.997 51.076107 
L 357.1218 51.378985 
L 359.856 51.842333 
L 362.9808 52.616522 
L 366.4962 53.75518 
L 371.9646 55.817774 
L 382.1202 59.881715 
L 388.3698 62.624718 
L 393.4476 65.065062 
L 396.963 66.988924 
L 399.6972 68.716677 
L 402.4314 70.701326 
L 405.5562 73.264581 
L 418.446 84.241786 
L 432.8982 96.06759 
L 436.023 98.861525 
L 438.3666 101.208973 
L 440.7102 103.898721 
L 442.6632 106.483973 
L 444.6162 109.432494 
L 446.5692 112.752606 
L 448.9128 117.16834 
L 452.0376 123.574953 
L 453.6 126.928872 
L 453.6 126.928872 
" style="fill:none;stroke:#ff6e54;stroke-linecap:square;stroke-width:2;"/>
   </g>
   <g id="line2d_4">
    <path clip-path="url(#pf3767529ec)" d="M 63 61.699251 
L 64.953 65.970794 
L 66.5154 68.908953 
L 68.0778 71.315098 
L 69.2496 72.769186 
L 70.812 74.298223 
L 72.3744 75.480148 
L 76.671 78.436688 
L 78.2334 79.894324 
L 80.1864 82.098692 
L 83.7018 86.207601 
L 84.8736 87.27938 
L 86.0454 88.079858 
L 87.2172 88.568721 
L 88.389 88.73023 
L 89.5608 88.572819 
L 90.7326 88.129346 
L 92.295 87.198033 
L 95.8104 84.846287 
L 96.9822 84.430089 
L 97.7634 84.355706 
L 98.5446 84.468497 
L 99.3258 84.777348 
L 100.107 85.279504 
L 101.2788 86.363115 
L 102.4506 87.769659 
L 104.4036 90.55505 
L 108.7002 96.892712 
L 111.0438 99.927876 
L 114.1686 103.562127 
L 119.2464 109.080875 
L 121.59 111.333179 
L 123.1524 112.583766 
L 124.7148 113.567842 
L 126.2772 114.255156 
L 127.8396 114.638951 
L 129.402 114.730931 
L 130.9644 114.557118 
L 132.5268 114.157463 
L 134.4798 113.429456 
L 138.3858 111.867233 
L 139.9482 111.490825 
L 141.5106 111.376476 
L 143.073 111.539656 
L 144.6354 111.943514 
L 146.5884 112.680672 
L 151.6662 114.960958 
L 161.8218 119.398761 
L 163.7748 119.937605 
L 165.3372 120.14224 
L 166.8996 120.114381 
L 168.462 119.842289 
L 170.0244 119.324834 
L 171.5868 118.569156 
L 173.1492 117.593703 
L 175.1022 116.125306 
L 179.7894 112.424468 
L 181.3518 111.543466 
L 182.5236 111.09906 
L 183.6954 110.853974 
L 184.8672 110.801177 
L 186.4296 110.994483 
L 187.992 111.432869 
L 189.945 112.24577 
L 191.898 113.307479 
L 193.851 114.634382 
L 195.4134 115.930237 
L 196.9758 117.473122 
L 198.9288 119.756176 
L 204.7878 127.099693 
L 205.9596 128.144504 
L 207.1314 128.936726 
L 208.3032 129.469388 
L 209.475 129.749961 
L 210.6468 129.793066 
L 211.8186 129.61492 
L 212.9904 129.230732 
L 214.1622 128.655319 
L 215.7246 127.623144 
L 217.6776 126.016459 
L 220.8024 123.407879 
L 221.9742 122.695749 
L 223.146 122.240845 
L 224.3178 122.070855 
L 225.4896 122.177376 
L 226.6614 122.526376 
L 228.2238 123.290612 
L 230.1768 124.585531 
L 232.5204 126.451685 
L 239.1606 131.994622 
L 240.3324 132.659065 
L 241.5042 133.105989 
L 242.676 133.303785 
L 243.8478 133.243004 
L 245.0196 132.936519 
L 246.1914 132.413678 
L 247.7538 131.443608 
L 249.7068 129.903566 
L 252.0504 127.702199 
L 254.394 125.166292 
L 257.1282 121.819779 
L 260.6436 117.415525 
L 262.206 115.830268 
L 263.3778 114.956054 
L 264.5496 114.410216 
L 265.7214 114.20674 
L 266.8932 114.324391 
L 268.065 114.718058 
L 269.2368 115.334203 
L 270.7992 116.419674 
L 272.7522 118.100241 
L 274.7052 120.101287 
L 276.6582 122.447787 
L 278.6112 125.144506 
L 283.2984 131.895334 
L 284.8608 133.610059 
L 286.0326 134.58659 
L 287.2044 135.299598 
L 288.3762 135.777635 
L 289.9386 136.119085 
L 291.501 136.208083 
L 293.454 136.071269 
L 295.407 135.728735 
L 297.7506 135.079654 
L 300.0942 134.18593 
L 306.7344 131.427522 
L 308.2968 131.103624 
L 309.8592 131.003003 
L 311.4216 131.141051 
L 312.984 131.522117 
L 314.5464 132.143473 
L 316.1088 132.993844 
L 318.0618 134.334938 
L 323.5302 138.436304 
L 324.702 139.013308 
L 325.8738 139.375538 
L 327.0456 139.505911 
L 328.2174 139.408849 
L 329.3892 139.105189 
L 330.9516 138.430472 
L 332.514 137.51318 
L 334.467 136.112346 
L 336.8106 134.155215 
L 343.4508 128.321509 
L 345.0132 127.41866 
L 346.185 126.988513 
L 347.3568 126.787609 
L 348.5286 126.813427 
L 349.7004 127.0511 
L 350.8722 127.479334 
L 352.4346 128.307974 
L 353.997 129.38775 
L 355.95 131.030523 
L 358.2936 133.329309 
L 363.3714 138.509864 
L 364.9338 139.777455 
L 366.4962 140.755271 
L 368.0586 141.43164 
L 369.621 141.844629 
L 371.574 142.099566 
L 379.386 142.776158 
L 382.9014 143.520682 
L 389.9322 145.260743 
L 391.8852 146.036264 
L 393.4476 146.907476 
L 395.01 148.063926 
L 396.5724 149.538849 
L 398.1348 151.328741 
L 400.0878 153.914618 
L 403.2126 158.143632 
L 404.3844 159.448906 
L 405.5562 160.456461 
L 406.728 161.113442 
L 407.8998 161.413221 
L 409.0716 161.394445 
L 410.2434 161.128804 
L 412.1964 160.373838 
L 415.3212 159.12979 
L 416.8836 158.727857 
L 418.446 158.520481 
L 420.399 158.495059 
L 429.3828 158.968184 
L 430.9452 159.316362 
L 432.117 159.820659 
L 433.2888 160.605094 
L 434.4606 161.729491 
L 435.6324 163.247876 
L 436.8042 165.207114 
L 437.976 167.644037 
L 439.1478 170.579882 
L 440.7102 175.259898 
L 442.2726 180.703882 
L 447.741 200.614207 
L 448.9128 203.801814 
L 450.0846 206.395374 
L 451.2564 208.482083 
L 452.8188 210.773867 
L 453.6 211.851818 
L 453.6 211.851818 
" style="fill:none;stroke:#ff6e54;stroke-dasharray:7.4,3.2;stroke-dashoffset:0;stroke-width:2;"/>
   </g>
   <g id="line2d_5">
    <path clip-path="url(#pf3767529ec)" d="M 63 126.922019 
L 66.1248 123.467781 
L 69.6402 119.954457 
L 73.9368 115.990367 
L 78.624 111.965685 
L 82.1394 109.222086 
L 86.0454 106.463038 
L 95.0292 100.253674 
L 104.7942 93.134555 
L 107.919 91.256705 
L 111.0438 89.632373 
L 114.5592 88.073312 
L 118.0746 86.776051 
L 121.59 85.723254 
L 125.8866 84.690823 
L 137.6046 82.030471 
L 152.4474 78.156359 
L 157.5252 77.21249 
L 162.603 76.509999 
L 173.9304 75.084207 
L 177.8364 74.28898 
L 182.133 73.153416 
L 192.6792 70.206734 
L 196.5852 69.394653 
L 199.71 68.959579 
L 202.8348 68.763617 
L 206.3502 68.804447 
L 218.4588 69.245871 
L 221.9742 69.02412 
L 231.7392 68.234184 
L 235.2546 68.23493 
L 238.77 68.449951 
L 243.8478 69.028417 
L 249.3162 69.594484 
L 252.8316 69.736345 
L 255.9564 69.65504 
L 259.0812 69.342965 
L 262.206 68.796273 
L 267.2838 67.617225 
L 271.971 66.616951 
L 275.4864 66.09899 
L 278.6112 65.876391 
L 281.3454 65.90409 
L 284.4702 66.184824 
L 288.7668 66.847963 
L 299.313 68.564158 
L 304.3908 69.116069 
L 311.4216 69.597574 
L 316.89 70.064362 
L 320.796 70.621075 
L 324.702 71.403548 
L 334.8576 73.57111 
L 338.373 74.043943 
L 341.8884 74.297501 
L 346.185 74.350431 
L 354.3876 74.37451 
L 357.903 74.627714 
L 361.4184 75.11644 
L 364.9338 75.840019 
L 370.0116 77.153496 
L 384.8544 81.33255 
L 392.2758 83.632143 
L 396.5724 85.178134 
L 399.6972 86.51929 
L 402.822 88.10638 
L 406.3374 90.158318 
L 416.8836 96.502193 
L 437.1948 108.158227 
L 439.5384 109.877474 
L 441.882 111.882294 
L 443.835 113.822715 
L 446.1786 116.501468 
L 448.5222 119.5299 
L 451.647 123.959146 
L 453.6 126.875067 
L 453.6 126.875067 
" style="fill:none;stroke:#8454ff;stroke-linecap:square;stroke-width:2;"/>
   </g>
   <g id="line2d_6">
    <path clip-path="url(#pf3767529ec)" d="M 63 81.369046 
L 65.3436 84.906583 
L 66.906 86.898451 
L 68.4684 88.53011 
L 70.0308 89.816416 
L 71.5932 90.823471 
L 74.3274 92.245843 
L 76.671 93.562407 
L 78.624 94.95906 
L 81.3582 97.279276 
L 83.7018 99.148539 
L 85.2642 100.076765 
L 86.436 100.531888 
L 87.6078 100.755696 
L 88.7796 100.744069 
L 89.9514 100.50939 
L 91.5138 99.903021 
L 93.8574 98.632021 
L 95.8104 97.653666 
L 96.9822 97.294535 
L 98.154 97.20248 
L 99.3258 97.420884 
L 100.4976 97.952679 
L 101.6694 98.762541 
L 103.2318 100.165654 
L 105.966 103.037914 
L 109.0908 106.258069 
L 111.825 108.769743 
L 116.1216 112.35491 
L 120.0276 115.388197 
L 121.9806 116.677125 
L 123.9336 117.690131 
L 125.496 118.260592 
L 127.0584 118.605414 
L 128.6208 118.728935 
L 130.1832 118.646113 
L 132.1362 118.28979 
L 134.4798 117.589101 
L 138.7764 116.197509 
L 140.3388 115.908396 
L 141.9012 115.824636 
L 143.4636 115.951607 
L 145.4166 116.356702 
L 148.1508 117.201752 
L 155.1816 119.728651 
L 161.4312 121.984094 
L 163.3842 122.439874 
L 165.3372 122.64251 
L 166.8996 122.598268 
L 168.462 122.365918 
L 170.415 121.816089 
L 172.368 120.994368 
L 174.7116 119.705852 
L 180.18 116.441306 
L 181.7424 115.82111 
L 183.3048 115.460327 
L 184.8672 115.363709 
L 186.4296 115.501467 
L 188.3826 115.935729 
L 190.3356 116.59404 
L 192.6792 117.641816 
L 194.6322 118.756127 
L 196.5852 120.140043 
L 198.5382 121.813194 
L 202.0536 125.245473 
L 204.0066 126.989358 
L 205.569 128.092263 
L 206.7408 128.701548 
L 207.9126 129.11367 
L 209.0844 129.332755 
L 210.2562 129.369378 
L 211.8186 129.155573 
L 213.381 128.665927 
L 214.9434 127.926638 
L 216.8964 126.714627 
L 221.193 123.84845 
L 222.3648 123.331465 
L 223.5366 123.0276 
L 224.7084 122.948699 
L 225.8802 123.080289 
L 227.4426 123.528838 
L 229.005 124.212041 
L 231.3486 125.526241 
L 234.4734 127.588938 
L 238.3794 130.191052 
L 239.9418 131.010973 
L 241.5042 131.565901 
L 242.676 131.766854 
L 243.8478 131.771353 
L 245.0196 131.587179 
L 246.582 131.085087 
L 248.1444 130.348854 
L 250.0974 129.185733 
L 252.441 127.518146 
L 254.7846 125.584254 
L 257.5188 123.026627 
L 261.0342 119.717735 
L 262.5966 118.57156 
L 263.7684 117.964904 
L 264.9402 117.612356 
L 266.112 117.517299 
L 267.2838 117.658377 
L 268.4556 117.999426 
L 270.018 118.697771 
L 271.971 119.861629 
L 273.924 121.286011 
L 275.877 122.969927 
L 277.83 124.926056 
L 284.0796 131.514416 
L 285.642 132.581645 
L 286.8138 133.137827 
L 288.3762 133.587843 
L 289.9386 133.771614 
L 291.8916 133.736446 
L 294.2352 133.433891 
L 296.5788 132.921291 
L 299.313 132.091731 
L 306.3438 129.720324 
L 308.2968 129.413412 
L 309.8592 129.364025 
L 311.4216 129.497395 
L 312.984 129.813529 
L 314.937 130.459317 
L 316.89 131.363577 
L 319.2336 132.711102 
L 323.1396 134.990553 
L 324.702 135.624578 
L 326.2644 135.97351 
L 327.4362 136.030852 
L 328.9986 135.848167 
L 330.561 135.411137 
L 332.514 134.588581 
L 334.8576 133.307765 
L 337.5918 131.527853 
L 343.0602 127.825258 
L 344.6226 127.068837 
L 346.185 126.589449 
L 347.3568 126.431799 
L 348.9192 126.486851 
L 350.4816 126.816644 
L 352.044 127.380495 
L 353.997 128.356461 
L 355.95 129.577344 
L 358.6842 131.585828 
L 363.3714 135.126544 
L 365.3244 136.266727 
L 366.8868 136.930091 
L 368.4492 137.368931 
L 370.4022 137.65536 
L 373.1364 137.761129 
L 378.9954 137.892684 
L 383.292 138.28545 
L 388.7604 138.982481 
L 391.104 139.515799 
L 393.057 140.221569 
L 394.6194 141.015553 
L 396.1818 142.042198 
L 397.7442 143.304736 
L 399.6972 145.162695 
L 403.6032 149.033173 
L 405.1656 150.194946 
L 406.3374 150.786053 
L 407.5092 151.113475 
L 408.681 151.192724 
L 409.8528 151.067087 
L 411.4152 150.683921 
L 416.8836 149.129213 
L 419.2272 148.833814 
L 422.352 148.736256 
L 430.164 148.760816 
L 431.7264 149.122566 
L 432.8982 149.610789 
L 434.07 150.331149 
L 435.2418 151.321421 
L 436.4136 152.615119 
L 437.5854 154.23997 
L 438.7572 156.214655 
L 440.3196 159.395743 
L 441.882 163.146992 
L 444.6162 170.526758 
L 446.5692 175.637051 
L 448.1316 179.110487 
L 449.3034 181.223731 
L 450.4752 182.919871 
L 451.647 184.279885 
L 453.6 186.164247 
L 453.6 186.164247 
" style="fill:none;stroke:#8454ff;stroke-dasharray:7.4,3.2;stroke-dashoffset:0;stroke-width:2;"/>
   </g>
   <g id="patch_3">
    <path d="M 63 220.5 
L 63 30.24 
" style="fill:none;stroke:#000000;stroke-linecap:square;stroke-linejoin:miter;stroke-width:0.8;"/>
   </g>
   <g id="patch_4">
    <path d="M 453.6 220.5 
L 453.6 30.24 
" style="fill:none;stroke:#000000;stroke-linecap:square;stroke-linejoin:miter;stroke-width:0.8;"/>
   </g>
   <g id="patch_5">
    <path d="M 63 220.5 
L 453.6 220.5 
" style="fill:none;stroke:#000000;stroke-linecap:square;stroke-linejoin:miter;stroke-width:0.8;"/>
   </g>
   <g id="patch_6">
    <path d="M 63 30.24 
L 453.6 30.24 
" style="fill:none;stroke:#000000;stroke-linecap:square;stroke-linejoin:miter;stroke-width:0.8;"/>
   </g>
  </g>
 </g>
 <defs>
  <clipPath id="pf3767529ec">
   <rect height="190.26" width="390.6" x="63" y="30.24"/>
  </clipPath>
 </defs>
</svg>
