<?xml version="1.0" encoding="utf-8" standalone="no"?>
<!DOCTYPE svg PUBLIC "-//W3C//DTD SVG 1.1//EN"
  "http://www.w3.org/Graphics/SVG/1.1/DTD/svg11.dtd">
<!-- Created with matplotlib (https://matplotlib.org/) -->
<svg height="252pt" version="1.1" viewBox="0 0 504 252" width="504pt" xmlns="http://www.w3.org/2000/svg" xmlns:xlink="http://www.w3.org/1999/xlink">
 <defs>
  <style type="text/css">
*{stroke-linecap:butt;stroke-linejoin:round;}
  </style>
 </defs>
 <g id="figure_1">
  <g id="patch_1">
   <path d="M 0 252 
L 504 252 
L 504 0 
L 0 0 
z
" style="fill:none;"/>
  </g>
  <g id="axes_1">
   <g id="patch_2">
    <path d="M 63 220.5 
L 453.6 220.5 
L 453.6 30.24 
L 63 30.24 
z
" style="fill:none;"/>
   </g>
   <g id="matplotlib.axis_1">
    <g id="xtick_1"/>
    <g id="xtick_2"/>
    <g id="xtick_3"/>
    <g id="xtick_4"/>
    <g id="xtick_5"/>
    <g id="xtick_6"/>
   </g>
   <g id="matplotlib.axis_2">
    <g id="ytick_1"/>
    <g id="ytick_2"/>
    <g id="ytick_3"/>
    <g id="ytick_4"/>
    <g id="ytick_5"/>
    <g id="ytick_6"/>
    <g id="ytick_7"/>
    <g id="ytick_8"/>
   </g>
   <g id="line2d_1">
    <path clip-path="url(#p12a7ed7226)" d="M 63 161.190398 
L 64.5624 157.951894 
L 65.7342 156.063683 
L 66.5154 155.168449 
L 67.2966 154.611074 
L 68.0778 154.414774 
L 68.859 154.585921 
L 69.6402 155.113533 
L 70.4214 155.969739 
L 71.5932 157.771638 
L 73.1556 160.817363 
L 75.8898 166.278076 
L 77.0616 168.063246 
L 77.8428 168.938981 
L 78.624 169.531353 
L 79.4052 169.83169 
L 80.1864 169.848166 
L 80.9676 169.605011 
L 81.7488 169.140798 
L 82.9206 168.142684 
L 86.0454 165.18865 
L 86.8266 164.709762 
L 87.6078 164.42769 
L 88.389 164.36695 
L 89.1702 164.536312 
L 89.9514 164.92812 
L 91.1232 165.876742 
L 92.6856 167.579129 
L 94.6386 169.713126 
L 95.4198 170.347016 
L 96.201 170.757226 
L 96.9822 170.889361 
L 97.7634 170.701354 
L 98.5446 170.165987 
L 99.3258 169.272585 
L 100.107 168.027778 
L 101.2788 165.558021 
L 102.4506 162.499989 
L 104.7942 155.489656 
L 106.7472 149.921817 
L 107.919 147.167032 
L 109.0908 145.034769 
L 109.872 143.991919 
L 110.6532 143.250495 
L 111.4344 142.79073 
L 112.2156 142.57796 
L 112.9968 142.56494 
L 114.1686 142.793978 
L 116.5122 143.361494 
L 117.2934 143.363948 
L 118.0746 143.194676 
L 118.8558 142.825353 
L 119.637 142.24305 
L 120.8088 140.982175 
L 121.9806 139.332797 
L 125.8866 133.326231 
L 126.6678 132.529858 
L 127.449 132.015927 
L 128.2302 131.830233 
L 129.0114 132.004316 
L 129.7926 132.553541 
L 130.5738 133.476066 
L 131.355 134.752788 
L 132.5268 137.250373 
L 134.0892 141.37472 
L 137.6046 151.188646 
L 138.7764 153.80025 
L 139.9482 155.817557 
L 140.7294 156.805821 
L 141.5106 157.514792 
L 142.2918 157.967814 
L 143.073 158.202657 
L 144.2448 158.257054 
L 146.979 158.071528 
L 147.7602 158.214899 
L 148.5414 158.538529 
L 149.3226 159.074537 
L 150.1038 159.840051 
L 151.2756 161.416218 
L 152.4474 163.441774 
L 154.4004 167.408915 
L 156.3534 171.257688 
L 157.5252 173.064316 
L 158.3064 173.933638 
L 159.0876 174.483005 
L 159.8688 174.684281 
L 160.65 174.525822 
L 161.4312 174.013279 
L 162.2124 173.169436 
L 162.9936 172.033092 
L 164.1654 169.898761 
L 168.462 161.273525 
L 169.6338 159.71974 
L 170.415 159.034386 
L 171.1962 158.648065 
L 171.9774 158.557777 
L 172.7586 158.744119 
L 173.5398 159.172719 
L 174.7116 160.164174 
L 178.6176 164.011675 
L 179.3988 164.444338 
L 180.18 164.669296 
L 180.9612 164.67275 
L 181.7424 164.457214 
L 182.5236 164.041526 
L 183.6954 163.121334 
L 186.8202 160.284429 
L 187.6014 159.852894 
L 188.3826 159.663316 
L 189.1638 159.767905 
L 189.945 160.205999 
L 190.7262 161.001699 
L 191.5074 162.162339 
L 192.2886 163.67791 
L 193.4604 166.553429 
L 195.0228 171.25323 
L 199.3194 184.990637 
L 200.4912 187.876651 
L 201.663 190.115094 
L 202.4442 191.233856 
L 203.2254 192.068521 
L 204.0066 192.649233 
L 204.7878 193.019517 
L 205.9596 193.300724 
L 208.3032 193.653371 
L 209.475 194.13172 
L 210.2562 194.670833 
L 211.0374 195.417797 
L 212.2092 196.944764 
L 213.381 198.9213 
L 214.9434 202.047914 
L 217.287 206.842384 
L 218.4588 208.786134 
L 219.24 209.7654 
L 220.0212 210.431675 
L 220.8024 210.748608 
L 221.5836 210.695522 
L 222.3648 210.268725 
L 223.146 209.481872 
L 223.9272 208.365361 
L 225.099 206.175794 
L 226.6614 202.626658 
L 229.3956 196.33202 
L 230.5674 194.200823 
L 231.3486 193.093748 
L 232.1298 192.266804 
L 232.911 191.726225 
L 233.6922 191.46146 
L 234.4734 191.446108 
L 235.2546 191.639755 
L 236.4264 192.206499 
L 239.1606 193.727145 
L 239.9418 193.938273 
L 240.723 193.960318 
L 241.5042 193.763724 
L 242.2854 193.334228 
L 243.0666 192.673864 
L 244.2384 191.294916 
L 245.8008 188.944113 
L 248.1444 185.296972 
L 249.3162 183.919927 
L 250.0974 183.312176 
L 250.8786 183.008999 
L 251.6598 183.043192 
L 252.441 183.431499 
L 253.2222 184.173518 
L 254.0034 185.25156 
L 255.1752 187.419883 
L 256.7376 191.052312 
L 259.8624 198.731711 
L 261.0342 201.024704 
L 261.8154 202.227965 
L 262.5966 203.136675 
L 263.3778 203.74003 
L 264.159 204.044109 
L 264.9402 204.071193 
L 265.7214 203.858164 
L 266.8932 203.198267 
L 270.4086 200.706734 
L 271.1898 200.427516 
L 271.971 200.341878 
L 272.7522 200.468438 
L 273.5334 200.809703 
L 274.3146 201.351755 
L 275.4864 202.472426 
L 279.0018 206.318549 
L 279.783 206.843699 
L 280.5642 207.108682 
L 281.3454 207.063469 
L 282.1266 206.671412 
L 282.9078 205.911469 
L 283.689 204.779547 
L 284.4702 203.288903 
L 285.642 200.450285 
L 287.2044 195.811671 
L 291.1104 183.42257 
L 292.2822 180.434125 
L 293.454 178.060692 
L 294.2352 176.842516 
L 295.0164 175.906847 
L 295.7976 175.228149 
L 296.5788 174.766781 
L 297.7506 174.368014 
L 300.4848 173.721669 
L 301.266 173.336154 
L 302.0472 172.771264 
L 302.8284 171.997107 
L 304.0002 170.415858 
L 305.172 168.353844 
L 306.7344 165.038812 
L 309.8592 158.184699 
L 311.031 156.235083 
L 311.8122 155.289235 
L 312.5934 154.676076 
L 313.3746 154.421396 
L 314.1558 154.534308 
L 314.937 155.006589 
L 315.7182 155.812986 
L 316.4994 156.912481 
L 317.6712 158.988737 
L 321.9678 167.342545 
L 322.749 168.39223 
L 323.5302 169.173438 
L 324.3114 169.666426 
L 325.0926 169.868292 
L 325.8738 169.792817 
L 326.655 169.469354 
L 327.8268 168.616114 
L 329.7798 166.69526 
L 331.3422 165.280699 
L 332.514 164.59 
L 333.2952 164.381356 
L 334.0764 164.398854 
L 334.8576 164.645696 
L 335.6388 165.108647 
L 336.8106 166.140753 
L 338.7636 168.341346 
L 340.326 169.950441 
L 341.1072 170.514866 
L 341.8884 170.835878 
L 342.6696 170.862954 
L 343.4508 170.558842 
L 344.232 169.901818 
L 345.0132 168.887062 
L 345.7944 167.527108 
L 346.9662 164.908382 
L 348.5286 160.604508 
L 352.4346 149.247447 
L 353.6064 146.624563 
L 354.7782 144.645016 
L 355.5594 143.706096 
L 356.3406 143.063651 
L 357.1218 142.692627 
L 357.903 142.553773 
L 359.0748 142.667149 
L 362.1996 143.379272 
L 362.9808 143.327284 
L 363.762 143.092287 
L 364.5432 142.651037 
L 365.3244 141.996113 
L 366.4962 140.637214 
L 368.0586 138.292553 
L 370.7928 133.978316 
L 371.9646 132.639145 
L 372.7458 132.076831 
L 373.527 131.836352 
L 374.3082 131.951671 
L 375.0894 132.440821 
L 375.8706 133.30473 
L 376.6518 134.52701 
L 377.8236 136.956144 
L 378.9954 139.942581 
L 383.6826 152.719854 
L 384.8544 155.009064 
L 385.6356 156.18646 
L 386.4168 157.077913 
L 387.198 157.696283 
L 387.9792 158.070063 
L 388.7604 158.241407 
L 389.9322 158.237116 
L 392.2758 158.062498 
L 393.057 158.181021 
L 393.8382 158.473428 
L 394.6194 158.974059 
L 395.4006 159.70253 
L 396.5724 161.225736 
L 397.7442 163.209026 
L 399.6972 167.148321 
L 401.6502 171.036952 
L 402.822 172.898991 
L 403.6032 173.81566 
L 404.3844 174.418276 
L 405.1656 174.676212 
L 405.9468 174.575119 
L 406.728 174.117878 
L 407.5092 173.324597 
L 408.2904 172.231636 
L 409.4622 170.144548 
L 411.8058 165.198621 
L 413.3682 162.131363 
L 414.54 160.329077 
L 415.3212 159.453143 
L 416.1024 158.868966 
L 416.8836 158.584693 
L 417.6648 158.591632 
L 418.446 158.865073 
L 419.2272 159.366024 
L 420.399 160.430649 
L 423.5238 163.62638 
L 424.6956 164.388756 
L 425.4768 164.648132 
L 426.258 164.687123 
L 427.0392 164.505619 
L 427.8204 164.119898 
L 428.9922 163.231989 
L 432.5076 160.1139 
L 433.2888 159.758265 
L 434.07 159.663644 
L 434.8512 159.878174 
L 435.6324 160.436229 
L 436.4136 161.356321 
L 437.1948 162.639892 
L 438.3666 165.207447 
L 439.5384 168.431249 
L 441.4914 174.721664 
L 444.2256 183.541296 
L 445.3974 186.683682 
L 446.5692 189.214341 
L 447.741 191.075269 
L 448.5222 191.953541 
L 449.3034 192.572102 
L 450.0846 192.972514 
L 451.2564 193.281394 
L 453.6 193.621189 
L 453.6 193.621189 
" style="fill:none;stroke:#8cbfb9;stroke-linecap:square;stroke-width:4;"/>
   </g>
   <g id="line2d_2">
    <path clip-path="url(#p12a7ed7226)" d="M 63 161.612232 
L 63 253 
M 63.7812 253 
L 63.7812 159.135504 
L 65.7342 155.965497 
L 66.5154 155.091548 
L 67.2966 154.546401 
L 68.0778 154.357611 
L 68.859 154.53343 
L 69.6402 155.063872 
L 70.4214 155.921278 
L 71.5932 157.724258 
L 73.1556 160.766244 
L 75.8898 166.215721 
L 77.0616 168.002029 
L 77.8428 168.875294 
L 78.624 169.465936 
L 79.4052 169.765607 
L 80.1864 169.783132 
L 80.9676 169.542249 
L 81.7488 169.080284 
L 82.9206 168.084362 
L 86.0454 165.143961 
L 86.8266 164.666471 
L 87.6078 164.385343 
L 88.389 164.326359 
L 89.1702 164.49784 
L 89.9514 164.889512 
L 91.1232 165.836647 
L 92.6856 167.532817 
L 94.6386 169.6573 
L 95.4198 170.287001 
L 96.201 170.692635 
L 96.9822 170.820135 
L 97.7634 170.62828 
L 98.5446 170.090817 
L 99.3258 169.197434 
L 100.107 167.954098 
L 101.2788 165.487365 
L 102.4506 162.434476 
L 104.7942 155.436719 
L 106.7472 149.879071 
L 107.919 147.128288 
L 109.0908 144.996418 
L 109.872 143.94977 
L 110.6532 143.20721 
L 111.4344 142.745387 
L 112.2156 142.528375 
L 112.9968 142.511854 
L 114.1686 142.735397 
L 116.5122 143.290333 
L 117.2934 143.289145 
L 118.0746 143.115294 
L 118.8558 142.744212 
L 119.637 142.162846 
L 120.8088 140.899702 
L 121.9806 139.251253 
L 125.8866 133.261872 
L 126.6678 132.469387 
L 127.449 131.959108 
L 128.2302 131.778313 
L 129.0114 131.954661 
L 129.7926 132.505142 
L 130.5738 133.428441 
L 131.355 134.705642 
L 132.5268 137.200009 
L 134.0892 141.319141 
L 137.6046 151.119764 
L 138.7764 153.730439 
L 139.9482 155.749594 
L 140.7294 156.738202 
L 141.5106 157.448801 
L 142.2918 157.905323 
L 143.073 158.143552 
L 144.2448 158.202815 
L 146.979 158.029693 
L 147.7602 158.175732 
L 148.5414 158.501352 
L 149.3226 159.039791 
L 150.1038 159.806488 
L 151.2756 161.383341 
L 152.4474 163.407882 
L 154.4004 167.368774 
L 156.3534 171.206941 
L 157.5252 173.006592 
L 158.3064 173.872233 
L 159.0876 174.418841 
L 159.8688 174.618361 
L 160.65 174.458973 
L 161.4312 173.946339 
L 162.2124 173.103479 
L 162.9936 171.969645 
L 164.1654 169.839065 
L 168.462 161.229888 
L 169.6338 159.67839 
L 170.415 158.992371 
L 171.1962 158.606459 
L 171.9774 158.518853 
L 172.7586 158.70072 
L 173.5398 159.130564 
L 174.7116 160.120542 
L 178.6176 163.951937 
L 179.3988 164.380569 
L 180.18 164.60151 
L 180.9612 164.602795 
L 181.7424 164.386173 
L 182.5236 163.969225 
L 183.6954 163.050577 
L 186.8202 160.220779 
L 187.6014 159.792034 
L 188.3826 159.60523 
L 189.1638 159.716588 
L 189.945 160.160027 
L 190.7262 160.960596 
L 191.5074 162.123726 
L 192.2886 163.639907 
L 193.4604 166.514392 
L 195.0228 171.210167 
L 199.3194 184.933981 
L 200.4912 187.81944 
L 201.663 190.060006 
L 202.4442 191.180927 
L 203.2254 192.018282 
L 204.0066 192.602277 
L 204.7878 192.976177 
L 205.9596 193.262393 
L 208.6938 193.747769 
L 209.475 194.107238 
L 210.2562 194.647998 
L 211.0374 195.396881 
L 212.2092 196.924641 
L 213.381 198.900225 
L 214.9434 202.02315 
L 217.287 206.807069 
L 218.4588 208.744476 
L 219.24 209.719904 
L 220.0212 210.383085 
L 220.8024 210.69772 
L 221.5836 210.643486 
L 222.3648 210.216827 
L 223.146 209.431351 
L 223.9272 208.31725 
L 225.099 206.132909 
L 226.6614 202.592365 
L 229.3956 196.310261 
L 230.5674 194.181426 
L 231.3486 193.075295 
L 232.1298 192.248169 
L 232.911 191.706064 
L 233.6922 191.439257 
L 234.4734 191.421235 
L 235.2546 191.611488 
L 236.4264 192.17238 
L 239.1606 193.678916 
L 239.9418 193.887026 
L 240.723 193.906507 
L 241.5042 193.708253 
L 242.2854 193.277848 
L 243.0666 192.617277 
L 244.2384 191.239936 
L 245.8008 188.893846 
L 248.1444 185.257771 
L 249.3162 183.886004 
L 250.0974 183.281894 
L 250.8786 182.981957 
L 251.6598 183.01814 
L 252.441 183.407442 
L 253.2222 184.149878 
L 254.0034 185.227691 
L 255.1752 187.393097 
L 256.7376 191.019039 
L 259.8624 198.685401 
L 261.0342 200.975335 
L 261.8154 202.177563 
L 262.5966 203.086385 
L 263.3778 203.690929 
L 264.159 203.99684 
L 264.9402 204.026371 
L 265.7214 203.816101 
L 266.8932 203.160959 
L 270.4086 200.683505 
L 271.1898 200.406357 
L 271.971 200.322314 
L 272.7522 200.449645 
L 273.5334 200.790846 
L 274.3146 201.332149 
L 275.4864 202.44994 
L 279.0018 206.279413 
L 279.783 206.80044 
L 280.5642 207.061733 
L 281.3454 207.013341 
L 282.1266 206.618908 
L 282.9078 205.857771 
L 283.689 204.725756 
L 284.4702 203.236107 
L 285.642 200.400698 
L 287.2044 195.768138 
L 291.1104 183.391277 
L 292.2822 180.403813 
L 293.454 178.029975 
L 294.2352 176.810698 
L 295.0164 175.873795 
L 295.7976 175.193578 
L 296.5788 174.730014 
L 297.7506 174.328255 
L 300.4848 173.670036 
L 301.266 173.280177 
L 302.0472 172.7111 
L 302.8284 171.933715 
L 304.0002 170.349123 
L 305.172 168.285762 
L 306.7344 164.971633 
L 309.8592 158.123125 
L 311.031 156.177064 
L 311.8122 155.232372 
L 312.5934 154.623924 
L 313.3746 154.373295 
L 314.1558 154.486725 
L 314.937 154.960789 
L 315.7182 155.766112 
L 316.4994 156.863825 
L 317.6712 158.935637 
L 321.9678 167.277497 
L 323.1396 168.752796 
L 323.9208 169.392488 
L 324.702 169.741499 
L 325.4832 169.804788 
L 326.2644 169.604268 
L 327.0456 169.175411 
L 328.2174 168.21279 
L 331.7328 164.969652 
L 332.514 164.555919 
L 333.2952 164.34879 
L 334.0764 164.367082 
L 334.8576 164.614358 
L 335.6388 165.076784 
L 336.8106 166.105755 
L 339.1542 168.738881 
L 340.326 169.900711 
L 341.1072 170.460691 
L 341.8884 170.776881 
L 342.6696 170.799812 
L 343.4508 170.492948 
L 344.232 169.834088 
L 345.0132 168.818722 
L 345.7944 167.459361 
L 346.9662 164.844097 
L 348.5286 160.547529 
L 352.4346 149.20798 
L 353.6064 146.586527 
L 354.7782 144.6063 
L 355.5594 143.666577 
L 356.3406 143.022078 
L 357.1218 142.647091 
L 357.903 142.505082 
L 359.0748 142.612201 
L 362.1996 143.306785 
L 362.9808 143.251334 
L 363.762 143.013119 
L 364.5432 142.570319 
L 365.3244 141.914025 
L 366.4962 140.55488 
L 368.0586 138.21303 
L 370.7928 133.911913 
L 371.9646 132.579673 
L 372.7458 132.019259 
L 373.527 131.784813 
L 374.3082 131.901977 
L 375.0894 132.393117 
L 375.8706 133.258557 
L 376.6518 134.479588 
L 377.8236 136.906793 
L 378.9954 139.888797 
L 383.6826 152.649477 
L 384.8544 154.938551 
L 385.6356 156.115946 
L 386.4168 157.009846 
L 387.198 157.629938 
L 387.9792 158.00567 
L 388.7604 158.180236 
L 389.9322 158.178798 
L 392.2758 158.013351 
L 393.057 158.134996 
L 393.8382 158.430354 
L 394.6194 158.930292 
L 395.4006 159.661213 
L 396.1818 160.622508 
L 397.3536 162.46196 
L 398.916 165.476143 
L 401.6502 170.981005 
L 402.822 172.838262 
L 403.6032 173.752312 
L 404.3844 174.353135 
L 405.1656 174.610446 
L 405.9468 174.509391 
L 406.728 174.05187 
L 407.5092 173.259921 
L 408.2904 172.17016 
L 409.4622 170.087743 
L 411.4152 165.984218 
L 412.9776 162.797761 
L 414.1494 160.827642 
L 414.9306 159.815494 
L 415.7118 159.08101 
L 416.493 158.646633 
L 417.2742 158.511287 
L 418.0554 158.651965 
L 418.8366 159.044031 
L 420.0084 159.996517 
L 421.9614 162.061621 
L 423.5238 163.570911 
L 424.6956 164.326588 
L 425.4768 164.58285 
L 426.258 164.61904 
L 427.0392 164.434993 
L 427.8204 164.047682 
L 428.9922 163.160747 
L 432.5076 160.050478 
L 433.2888 159.695747 
L 434.07 159.600115 
L 434.8512 159.814331 
L 435.6324 160.372024 
L 436.4136 161.288894 
L 437.1948 162.57013 
L 438.3666 165.133428 
L 439.5384 168.352957 
L 441.4914 174.634307 
L 444.2256 183.446357 
L 445.3974 186.589998 
L 446.5692 189.124315 
L 447.741 190.997701 
L 448.5222 191.886512 
L 449.3034 192.518841 
L 450.0846 192.934458 
L 451.2564 193.254955 
L 453.2094 193.512198 
L 453.6 193.905011 
L 453.6 193.905011 
" style="fill:none;stroke:#000000;stroke-dasharray:7.4,3.2;stroke-dashoffset:0;stroke-width:2;"/>
    <defs>
     <path d="M -2.5 2.5 
L 2.5 2.5 
L 2.5 -2.5 
L -2.5 -2.5 
z
" id="m614de82299" style="stroke:#000000;stroke-linejoin:miter;"/>
    </defs>
    <g clip-path="url(#p12a7ed7226)">
     <use style="fill:#ffffff;stroke:#000000;stroke-linejoin:miter;" x="63" xlink:href="#m614de82299" y="161.612232"/>
     <use style="fill:#ffffff;stroke:#000000;stroke-linejoin:miter;" x="82.53" xlink:href="#m614de82299" y="168.447366"/>
     <use style="fill:#ffffff;stroke:#000000;stroke-linejoin:miter;" x="102.06" xlink:href="#m614de82299" y="163.506058"/>
     <use style="fill:#ffffff;stroke:#000000;stroke-linejoin:miter;" x="121.59" xlink:href="#m614de82299" y="139.836181"/>
     <use style="fill:#ffffff;stroke:#000000;stroke-linejoin:miter;" x="141.12" xlink:href="#m614de82299" y="157.128963"/>
     <use style="fill:#ffffff;stroke:#000000;stroke-linejoin:miter;" x="160.65" xlink:href="#m614de82299" y="174.458973"/>
     <use style="fill:#ffffff;stroke:#000000;stroke-linejoin:miter;" x="180.18" xlink:href="#m614de82299" y="164.60151"/>
     <use style="fill:#ffffff;stroke:#000000;stroke-linejoin:miter;" x="199.71" xlink:href="#m614de82299" y="185.962545"/>
     <use style="fill:#ffffff;stroke:#000000;stroke-linejoin:miter;" x="219.24" xlink:href="#m614de82299" y="209.719904"/>
     <use style="fill:#ffffff;stroke:#000000;stroke-linejoin:miter;" x="238.77" xlink:href="#m614de82299" y="193.517418"/>
     <use style="fill:#ffffff;stroke:#000000;stroke-linejoin:miter;" x="258.3" xlink:href="#m614de82299" y="194.981841"/>
     <use style="fill:#ffffff;stroke:#000000;stroke-linejoin:miter;" x="277.83" xlink:href="#m614de82299" y="205.144743"/>
     <use style="fill:#ffffff;stroke:#000000;stroke-linejoin:miter;" x="297.36" xlink:href="#m614de82299" y="174.433223"/>
     <use style="fill:#ffffff;stroke:#000000;stroke-linejoin:miter;" x="316.89" xlink:href="#m614de82299" y="157.505741"/>
     <use style="fill:#ffffff;stroke:#000000;stroke-linejoin:miter;" x="336.42" xlink:href="#m614de82299" y="165.726426"/>
     <use style="fill:#ffffff;stroke:#000000;stroke-linejoin:miter;" x="355.95" xlink:href="#m614de82299" y="143.307654"/>
     <use style="fill:#ffffff;stroke:#000000;stroke-linejoin:miter;" x="375.48" xlink:href="#m614de82299" y="132.778904"/>
     <use style="fill:#ffffff;stroke:#000000;stroke-linejoin:miter;" x="395.01" xlink:href="#m614de82299" y="159.269168"/>
     <use style="fill:#ffffff;stroke:#000000;stroke-linejoin:miter;" x="414.54" xlink:href="#m614de82299" y="160.286825"/>
     <use style="fill:#ffffff;stroke:#000000;stroke-linejoin:miter;" x="434.07" xlink:href="#m614de82299" y="159.600115"/>
     <use style="fill:#ffffff;stroke:#000000;stroke-linejoin:miter;" x="453.6" xlink:href="#m614de82299" y="193.905011"/>
    </g>
   </g>
   <g id="line2d_3">
    <path clip-path="url(#p12a7ed7226)" d="M 63 58.99873 
L 64.1718 57.371126 
L 65.3436 56.187969 
L 66.5154 55.426807 
L 67.6872 55.042469 
L 68.859 54.970366 
L 70.0308 55.1309 
L 71.9838 55.670707 
L 73.9368 56.18067 
L 75.1086 56.309597 
L 76.2804 56.223121 
L 77.4522 55.875078 
L 78.624 55.241279 
L 79.7958 54.321258 
L 80.9676 53.138596 
L 82.53 51.236561 
L 87.2172 45.107086 
L 88.389 43.990744 
L 89.5608 43.236224 
L 90.342 42.974794 
L 91.1232 42.93008 
L 91.9044 43.117589 
L 92.6856 43.54825 
L 93.4668 44.228071 
L 94.248 45.157931 
L 95.4198 47.010625 
L 96.5916 49.378595 
L 98.154 53.228985 
L 100.107 58.86091 
L 105.1848 74.190282 
L 106.7472 78.063717 
L 107.919 80.474617 
L 109.0908 82.403949 
L 110.2626 83.826585 
L 111.0438 84.492826 
L 111.825 84.94018 
L 112.6062 85.179895 
L 113.3874 85.227594 
L 114.1686 85.1028 
L 115.3404 84.642908 
L 116.5122 83.934552 
L 118.8558 82.156661 
L 120.8088 80.755932 
L 121.9806 80.120675 
L 123.1524 79.712566 
L 124.3242 79.567476 
L 125.496 79.698038 
L 126.6678 80.092888 
L 127.8396 80.717344 
L 129.402 81.807832 
L 132.9174 84.393519 
L 134.0892 84.960371 
L 135.261 85.223696 
L 136.0422 85.190495 
L 136.8234 84.966698 
L 137.6046 84.536352 
L 138.3858 83.887845 
L 139.167 83.014285 
L 140.3388 81.279189 
L 141.5106 79.049764 
L 142.6824 76.366729 
L 144.2448 72.198596 
L 146.5884 65.126064 
L 150.1038 54.467975 
L 151.6662 50.419429 
L 152.838 47.867392 
L 154.0098 45.809883 
L 155.1816 44.29298 
L 155.9628 43.593211 
L 156.744 43.142862 
L 157.5252 42.936328 
L 158.3064 42.96306 
L 159.0876 43.2079 
L 159.8688 43.651517 
L 161.0406 44.638571 
L 162.2124 45.931057 
L 164.1654 48.492639 
L 167.2902 52.620444 
L 168.8526 54.264758 
L 170.0244 55.199525 
L 171.1962 55.848721 
L 172.368 56.211531 
L 173.5398 56.310915 
L 174.7116 56.191939 
L 176.274 55.806803 
L 179.0082 55.067492 
L 180.18 54.963457 
L 181.3518 55.115589 
L 182.133 55.397425 
L 182.9142 55.845814 
L 183.6954 56.475574 
L 184.8672 57.78206 
L 186.039 59.534898 
L 187.2108 61.724691 
L 188.7732 65.260734 
L 190.7262 70.451915 
L 196.1946 85.745842 
L 197.757 89.166263 
L 198.9288 91.184122 
L 200.1006 92.659428 
L 200.8818 93.320707 
L 201.663 93.717045 
L 202.4442 93.848249 
L 203.2254 93.719374 
L 204.0066 93.340557 
L 204.7878 92.726738 
L 205.9596 91.408768 
L 207.1314 89.687539 
L 208.6938 86.932653 
L 214.5528 75.980863 
L 215.7246 74.33625 
L 216.8964 73.006138 
L 218.0682 72.002743 
L 219.24 71.313985 
L 220.4118 70.904746 
L 221.5836 70.719488 
L 223.5366 70.707033 
L 225.8802 70.683606 
L 227.052 70.459753 
L 228.2238 69.987016 
L 229.3956 69.201674 
L 230.5674 68.058936 
L 231.7392 66.536236 
L 232.911 64.635241 
L 234.4734 61.561405 
L 236.4264 57.045066 
L 241.5042 44.764327 
L 242.676 42.501435 
L 243.8478 40.670817 
L 245.0196 39.351172 
L 245.8008 38.784587 
L 246.582 38.482139 
L 247.3632 38.449736 
L 248.1444 38.688011 
L 248.9256 39.192309 
L 249.7068 39.952794 
L 250.8786 41.540304 
L 252.0504 43.601277 
L 253.6128 46.931539 
L 255.9564 52.664031 
L 259.0812 60.291671 
L 260.6436 63.566886 
L 261.8154 65.646016 
L 262.9872 67.356819 
L 264.159 68.685381 
L 265.3308 69.642498 
L 266.5026 70.262346 
L 267.6744 70.599808 
L 269.2368 70.736258 
L 273.1428 70.789645 
L 274.3146 71.080476 
L 275.4864 71.625809 
L 276.6582 72.471226 
L 277.83 73.640401 
L 279.0018 75.133153 
L 280.5642 77.58096 
L 282.5172 81.192213 
L 286.4232 88.720301 
L 287.9856 91.159301 
L 289.1574 92.547371 
L 289.9386 93.214625 
L 290.7198 93.651114 
L 291.501 93.840808 
L 292.2822 93.772389 
L 293.0634 93.439573 
L 293.8446 92.841288 
L 294.6258 91.981745 
L 295.7976 90.224564 
L 296.9694 87.954559 
L 298.5318 84.263039 
L 300.4848 78.909192 
L 304.7814 66.720068 
L 306.3438 62.954387 
L 307.5156 60.56055 
L 308.6874 58.589711 
L 309.8592 57.063774 
L 311.031 55.979304 
L 312.2028 55.308463 
L 313.3746 55.001337 
L 314.5464 54.989505 
L 316.1088 55.289492 
L 320.0148 56.27601 
L 321.1866 56.291095 
L 322.3584 56.062348 
L 323.5302 55.555624 
L 324.702 54.759908 
L 325.8738 53.688263 
L 327.4362 51.896728 
L 329.7798 48.749974 
L 332.1234 45.688377 
L 333.2952 44.442128 
L 334.467 43.517739 
L 335.2482 43.123945 
L 336.0294 42.934348 
L 336.8106 42.96724 
L 337.5918 43.236613 
L 338.373 43.751751 
L 339.1542 44.516932 
L 339.9354 45.531259 
L 341.1072 47.505106 
L 342.279 49.98247 
L 343.8414 53.951513 
L 345.7944 59.674569 
L 350.4816 73.853937 
L 352.044 77.781305 
L 353.2158 80.240811 
L 354.3876 82.222916 
L 355.5594 83.699769 
L 356.3406 84.401597 
L 357.1218 84.883178 
L 357.903 85.155025 
L 358.6842 85.232093 
L 359.4654 85.13332 
L 360.6372 84.705147 
L 361.809 84.018729 
L 363.762 82.560186 
L 366.1056 80.83455 
L 367.2774 80.178178 
L 368.4492 79.743857 
L 369.621 79.569823 
L 370.7928 79.671238 
L 371.9646 80.039277 
L 373.1364 80.641659 
L 374.6988 81.713684 
L 378.2142 84.319201 
L 379.386 84.913064 
L 380.5578 85.212655 
L 381.339 85.208074 
L 382.1202 85.015807 
L 382.9014 84.619251 
L 383.6826 84.006076 
L 384.4638 83.168619 
L 385.6356 81.487353 
L 386.8074 79.308921 
L 387.9792 76.671379 
L 389.5416 72.551211 
L 391.8852 65.514569 
L 395.4006 54.81657 
L 396.963 50.716765 
L 398.1348 48.115926 
L 399.3066 46.003289 
L 400.4784 44.427558 
L 401.2596 43.687887 
L 402.0408 43.198059 
L 402.822 42.953274 
L 403.6032 42.943756 
L 404.3844 43.155051 
L 405.1656 43.56846 
L 406.3374 44.51761 
L 407.5092 45.78225 
L 409.4622 48.321549 
L 412.587 52.472841 
L 414.1494 54.149544 
L 415.3212 55.113588 
L 416.493 55.793567 
L 417.6648 56.186102 
L 418.8366 56.311683 
L 420.0084 56.21315 
L 421.5708 55.843191 
L 424.6956 55.025765 
L 425.8674 54.972585 
L 427.0392 55.193998 
L 427.8204 55.530672 
L 428.6016 56.039402 
L 429.7734 57.153228 
L 430.9452 58.709545 
L 432.117 60.71008 
L 433.2888 63.131213 
L 434.8512 66.92676 
L 436.8042 72.324602 
L 441.1008 84.466363 
L 442.6632 88.123477 
L 443.835 90.360811 
L 445.0068 92.080994 
L 445.788 92.914276 
L 446.5692 93.48563 
L 447.3504 93.791384 
L 448.1316 93.833143 
L 448.9128 93.617717 
L 449.694 93.156919 
L 450.4752 92.467237 
L 451.647 91.049931 
L 452.8188 89.250048 
L 453.6 87.885892 
L 453.6 87.885892 
" style="fill:none;stroke:#da888e;stroke-linecap:square;stroke-width:4;"/>
   </g>
   <g id="line2d_4">
    <path clip-path="url(#p12a7ed7226)" d="M 63 118.133594 
L 63 -1 
M 63.7812 -1 
L 63.7812 253 
M 64.464918 253 
L 64.5624 188.472991 
L 64.953 125.772744 
L 65.3436 89.231403 
L 65.7342 76.617397 
L 66.1248 67.64534 
L 66.5154 63.306656 
L 66.906 60.313031 
L 67.6872 57.304215 
L 68.4684 56.00871 
L 69.6402 55.39882 
L 70.0308 55.308478 
L 71.5932 55.410341 
L 71.9838 55.644559 
L 72.3744 55.591287 
L 72.765 55.804401 
L 73.5462 55.92917 
L 74.718 56.105616 
L 75.1086 56.190446 
L 75.4992 56.084252 
L 75.8898 56.212414 
L 76.2804 56.052765 
L 76.671 56.067259 
L 78.624 55.275557 
L 80.1864 54.060851 
L 81.3582 52.852001 
L 83.7018 49.845094 
L 86.436 46.160398 
L 87.9984 44.456686 
L 89.1702 43.551414 
L 89.9514 43.1855 
L 90.7326 43.024291 
L 91.5138 43.083181 
L 92.295 43.383773 
L 93.0762 43.940628 
L 93.8574 44.748353 
L 94.6386 45.799718 
L 95.8104 47.836679 
L 96.9822 50.36957 
L 98.154 53.31651 
L 100.107 58.945656 
L 105.1848 74.253632 
L 106.7472 78.121071 
L 107.919 80.527999 
L 109.0908 82.455536 
L 110.2626 83.877065 
L 111.0438 84.541179 
L 111.825 84.988294 
L 112.6062 85.226796 
L 113.3874 85.272653 
L 114.1686 85.146487 
L 115.3404 84.684927 
L 116.5122 83.975591 
L 118.8558 82.19575 
L 120.8088 80.792202 
L 121.9806 80.154431 
L 123.1524 79.743072 
L 124.3242 79.594131 
L 125.496 79.719758 
L 126.6678 80.110209 
L 127.8396 80.730721 
L 129.402 81.816758 
L 132.9174 84.395924 
L 134.0892 84.960586 
L 135.261 85.221577 
L 136.0422 85.189015 
L 136.8234 84.963876 
L 137.6046 84.534368 
L 138.3858 83.885361 
L 139.167 83.010196 
L 140.3388 81.275987 
L 141.5106 79.047222 
L 142.6824 76.365408 
L 144.2448 72.198504 
L 146.5884 65.124875 
L 150.1038 54.463904 
L 151.6662 50.41598 
L 152.838 47.86501 
L 154.0098 45.80882 
L 155.1816 44.293915 
L 155.9628 43.594242 
L 156.744 43.146744 
L 157.5252 42.941515 
L 158.3064 42.969756 
L 159.0876 43.215019 
L 159.8688 43.658953 
L 161.0406 44.646417 
L 162.2124 45.938745 
L 164.1654 48.499183 
L 167.2902 52.624517 
L 168.8526 54.267875 
L 170.0244 55.202035 
L 171.1962 55.850785 
L 172.368 56.214267 
L 173.5398 56.316139 
L 174.7116 56.199984 
L 176.6646 55.701868 
L 179.0082 55.082702 
L 180.18 54.978358 
L 181.3518 55.130175 
L 182.133 55.41199 
L 182.9142 55.858245 
L 184.086 56.874789 
L 185.2578 58.328896 
L 186.4296 60.229306 
L 187.6014 62.557718 
L 189.1638 66.247788 
L 191.1168 71.565731 
L 195.804 84.785611 
L 197.3664 88.38816 
L 198.5382 90.573985 
L 199.71 92.236824 
L 200.4912 93.029083 
L 201.2724 93.558481 
L 202.0536 93.822238 
L 202.8348 93.822882 
L 203.616 93.567945 
L 204.3972 93.070067 
L 205.1784 92.346167 
L 206.3502 90.88407 
L 207.522 89.049577 
L 209.0844 86.19643 
L 213.7716 77.2416 
L 215.334 74.857023 
L 216.5058 73.419521 
L 217.6776 72.30727 
L 218.8494 71.516305 
L 220.0212 71.019003 
L 221.193 70.76599 
L 222.7554 70.690945 
L 225.8802 70.686368 
L 227.052 70.461696 
L 228.2238 69.988124 
L 229.3956 69.201619 
L 230.5674 68.058063 
L 231.7392 66.534547 
L 232.911 64.632503 
L 234.4734 61.557281 
L 236.4264 57.039636 
L 241.5042 44.757503 
L 242.676 42.494502 
L 243.8478 40.663778 
L 245.0196 39.343965 
L 245.8008 38.777331 
L 246.582 38.474852 
L 247.3632 38.442477 
L 248.1444 38.680959 
L 248.9256 39.18548 
L 249.7068 39.94617 
L 250.8786 41.534043 
L 252.0504 43.595281 
L 253.6128 46.925546 
L 255.9564 52.65779 
L 259.0812 60.285417 
L 260.6436 63.560679 
L 261.8154 65.640195 
L 262.9872 67.351811 
L 264.159 68.681259 
L 265.3308 69.639526 
L 266.5026 70.260712 
L 267.6744 70.599391 
L 269.2368 70.737345 
L 273.1428 70.793491 
L 274.3146 71.085206 
L 275.4864 71.631255 
L 276.6582 72.477169 
L 277.83 73.646794 
L 279.0018 75.139798 
L 280.5642 77.58746 
L 282.5172 81.197998 
L 286.4232 88.723915 
L 287.9856 91.162531 
L 289.1574 92.550626 
L 289.9386 93.217922 
L 290.7198 93.654406 
L 291.501 93.84438 
L 292.2822 93.776124 
L 293.0634 93.443299 
L 293.8446 92.845291 
L 294.6258 91.985565 
L 295.7976 90.228154 
L 296.9694 87.957603 
L 298.5318 84.265355 
L 300.4848 78.910731 
L 304.7814 66.721427 
L 306.3438 62.95582 
L 307.5156 60.562225 
L 308.6874 58.591669 
L 309.8592 57.066268 
L 311.031 55.982438 
L 312.2028 55.312437 
L 313.3746 55.005812 
L 314.5464 54.994244 
L 316.1088 55.294683 
L 320.0148 56.282429 
L 321.1866 56.29756 
L 322.3584 56.06875 
L 323.5302 55.561441 
L 324.702 54.765227 
L 325.8738 53.693009 
L 327.4362 51.9 
L 329.7798 48.751708 
L 332.1234 45.690087 
L 333.2952 44.444011 
L 334.467 43.519721 
L 335.2482 43.126116 
L 336.0294 42.936815 
L 336.8106 42.968606 
L 337.5918 43.238399 
L 338.373 43.753103 
L 339.1542 44.517638 
L 339.9354 45.531422 
L 341.1072 47.504654 
L 342.279 49.981523 
L 343.8414 53.950221 
L 345.7944 59.673802 
L 350.4816 73.85556 
L 352.044 77.78397 
L 353.2158 80.24383 
L 354.3876 82.226135 
L 355.5594 83.702865 
L 356.3406 84.40485 
L 357.1218 84.887134 
L 357.903 85.158654 
L 358.6842 85.235642 
L 359.4654 85.137417 
L 360.6372 84.709613 
L 361.809 84.023639 
L 363.762 82.566186 
L 366.1056 80.843559 
L 367.668 80.018993 
L 368.8398 79.669527 
L 370.0116 79.589054 
L 371.1834 79.784089 
L 372.3552 80.23767 
L 373.527 80.908952 
L 375.48 82.338361 
L 377.8236 84.094165 
L 378.9954 84.765992 
L 380.1672 85.17568 
L 380.9484 85.258058 
L 381.7296 85.163883 
L 382.5108 84.871 
L 383.292 84.36641 
L 384.0732 83.641315 
L 384.8544 82.69083 
L 386.0262 80.840106 
L 387.198 78.500055 
L 388.3698 75.724478 
L 389.9322 71.464094 
L 392.6664 63.108788 
L 395.4006 54.870275 
L 396.963 50.775081 
L 398.1348 48.175024 
L 399.3066 46.063956 
L 400.4784 44.484576 
L 401.2596 43.740608 
L 402.0408 43.243341 
L 402.822 42.993058 
L 403.6032 42.978051 
L 404.3844 43.181969 
L 405.1656 43.583019 
L 406.3374 44.529171 
L 407.5092 45.780703 
L 409.0716 47.77009 
L 412.587 52.448755 
L 414.1494 54.139374 
L 415.3212 55.111824 
L 416.493 55.800127 
L 417.6648 56.200046 
L 418.8366 56.329106 
L 420.0084 56.22747 
L 421.5708 55.829314 
L 424.6956 54.954238 
L 425.8674 54.912502 
L 426.6486 55.027551 
L 427.8204 55.500393 
L 428.6016 56.021811 
L 429.7734 57.169045 
L 430.9452 58.755623 
L 432.117 60.79304 
L 433.2888 63.258946 
L 434.8512 67.127364 
L 436.8042 72.670115 
L 441.1008 85.412519 
L 443.0538 90.301495 
L 444.2256 92.7577 
L 445.788 95.263151 
L 447.3504 96.730292 
L 448.1316 96.790525 
L 448.5222 96.523103 
L 449.3034 95.304291 
L 449.694 93.567289 
L 450.0846 92.545322 
L 450.4752 90.455739 
L 451.647 86.202263 
L 453.2094 82.338158 
L 453.6 156.475847 
L 453.6 156.475847 
" style="fill:none;stroke:#000000;stroke-dasharray:7.4,3.2;stroke-dashoffset:0;stroke-width:2;"/>
    <defs>
     <path d="M 0 -2.5 
L -2.165064 -1.25 
L -2.165064 1.25 
L -0 2.5 
L 2.165064 1.25 
L 2.165064 -1.25 
z
" id="me346ff5e94" style="stroke:#000000;stroke-linejoin:miter;"/>
    </defs>
    <g clip-path="url(#p12a7ed7226)">
     <use style="fill:#ffffff;stroke:#000000;stroke-linejoin:miter;" x="63" xlink:href="#me346ff5e94" y="118.133594"/>
     <use style="fill:#ffffff;stroke:#000000;stroke-linejoin:miter;" x="82.53" xlink:href="#me346ff5e94" y="51.404971"/>
     <use style="fill:#ffffff;stroke:#000000;stroke-linejoin:miter;" x="102.06" xlink:href="#me346ff5e94" y="65.010397"/>
     <use style="fill:#ffffff;stroke:#000000;stroke-linejoin:miter;" x="121.59" xlink:href="#me346ff5e94" y="80.344928"/>
     <use style="fill:#ffffff;stroke:#000000;stroke-linejoin:miter;" x="141.12" xlink:href="#me346ff5e94" y="79.844122"/>
     <use style="fill:#ffffff;stroke:#000000;stroke-linejoin:miter;" x="160.65" xlink:href="#me346ff5e94" y="44.27869"/>
     <use style="fill:#ffffff;stroke:#000000;stroke-linejoin:miter;" x="180.18" xlink:href="#me346ff5e94" y="54.978358"/>
     <use style="fill:#ffffff;stroke:#000000;stroke-linejoin:miter;" x="199.71" xlink:href="#me346ff5e94" y="92.236824"/>
     <use style="fill:#ffffff;stroke:#000000;stroke-linejoin:miter;" x="219.24" xlink:href="#me346ff5e94" y="71.319994"/>
     <use style="fill:#ffffff;stroke:#000000;stroke-linejoin:miter;" x="238.77" xlink:href="#me346ff5e94" y="51.159647"/>
     <use style="fill:#ffffff;stroke:#000000;stroke-linejoin:miter;" x="258.3" xlink:href="#me346ff5e94" y="58.474461"/>
     <use style="fill:#ffffff;stroke:#000000;stroke-linejoin:miter;" x="277.83" xlink:href="#me346ff5e94" y="73.646794"/>
     <use style="fill:#ffffff;stroke:#000000;stroke-linejoin:miter;" x="297.36" xlink:href="#me346ff5e94" y="87.09932"/>
     <use style="fill:#ffffff;stroke:#000000;stroke-linejoin:miter;" x="316.89" xlink:href="#me346ff5e94" y="55.519742"/>
     <use style="fill:#ffffff;stroke:#000000;stroke-linejoin:miter;" x="336.42" xlink:href="#me346ff5e94" y="42.924182"/>
     <use style="fill:#ffffff;stroke:#000000;stroke-linejoin:miter;" x="355.95" xlink:href="#me346ff5e94" y="84.082332"/>
     <use style="fill:#ffffff;stroke:#000000;stroke-linejoin:miter;" x="375.48" xlink:href="#me346ff5e94" y="82.338361"/>
     <use style="fill:#ffffff;stroke:#000000;stroke-linejoin:miter;" x="395.01" xlink:href="#me346ff5e94" y="55.977706"/>
     <use style="fill:#ffffff;stroke:#000000;stroke-linejoin:miter;" x="414.54" xlink:href="#me346ff5e94" y="54.490248"/>
     <use style="fill:#ffffff;stroke:#000000;stroke-linejoin:miter;" x="434.07" xlink:href="#me346ff5e94" y="65.116572"/>
     <use style="fill:#ffffff;stroke:#000000;stroke-linejoin:miter;" x="453.6" xlink:href="#me346ff5e94" y="156.475847"/>
    </g>
   </g>
   <g id="patch_3">
    <path d="M 63 220.5 
L 63 30.24 
" style="fill:none;stroke:#000000;stroke-linecap:square;stroke-linejoin:miter;stroke-width:0.8;"/>
   </g>
   <g id="patch_4">
    <path d="M 453.6 220.5 
L 453.6 30.24 
" style="fill:none;stroke:#000000;stroke-linecap:square;stroke-linejoin:miter;stroke-width:0.8;"/>
   </g>
   <g id="patch_5">
    <path d="M 63 220.5 
L 453.6 220.5 
" style="fill:none;stroke:#000000;stroke-linecap:square;stroke-linejoin:miter;stroke-width:0.8;"/>
   </g>
   <g id="patch_6">
    <path d="M 63 30.24 
L 453.6 30.24 
" style="fill:none;stroke:#000000;stroke-linecap:square;stroke-linejoin:miter;stroke-width:0.8;"/>
   </g>
  </g>
 </g>
 <defs>
  <clipPath id="p12a7ed7226">
   <rect height="190.26" width="390.6" x="63" y="30.24"/>
  </clipPath>
 </defs>
</svg>
