<?xml version="1.0" encoding="utf-8" standalone="no"?>
<!DOCTYPE svg PUBLIC "-//W3C//DTD SVG 1.1//EN"
  "http://www.w3.org/Graphics/SVG/1.1/DTD/svg11.dtd">
<!-- Created with matplotlib (https://matplotlib.org/) -->
<svg height="252pt" version="1.1" viewBox="0 0 504 252" width="504pt" xmlns="http://www.w3.org/2000/svg" xmlns:xlink="http://www.w3.org/1999/xlink">
 <defs>
  <style type="text/css">
*{stroke-linecap:butt;stroke-linejoin:round;}
  </style>
 </defs>
 <g id="figure_1">
  <g id="patch_1">
   <path d="M 0 252 
L 504 252 
L 504 0 
L 0 0 
z
" style="fill:none;"/>
  </g>
  <g id="axes_1">
   <g id="patch_2">
    <path d="M 63 220.5 
L 453.6 220.5 
L 453.6 30.24 
L 63 30.24 
z
" style="fill:none;"/>
   </g>
   <g id="matplotlib.axis_1">
    <g id="xtick_1"/>
    <g id="xtick_2"/>
    <g id="xtick_3"/>
    <g id="xtick_4"/>
    <g id="xtick_5"/>
    <g id="xtick_6"/>
   </g>
   <g id="matplotlib.axis_2">
    <g id="ytick_1"/>
    <g id="ytick_2"/>
    <g id="ytick_3"/>
    <g id="ytick_4"/>
    <g id="ytick_5"/>
    <g id="ytick_6"/>
   </g>
   <g id="line2d_1">
    <path clip-path="url(#p5ff296f6d8)" d="M 63 131.299194 
L 66.5154 129.125087 
L 70.0308 127.207482 
L 73.9368 125.328493 
L 77.8428 123.700531 
L 81.7488 122.333911 
L 87.2172 120.710378 
L 92.295 119.128017 
L 96.201 117.650961 
L 108.3096 112.772323 
L 111.825 111.756096 
L 115.3404 110.976494 
L 118.8558 110.426993 
L 123.1524 110.010042 
L 135.261 109.027671 
L 139.5576 108.348663 
L 153.6192 105.853235 
L 157.5252 105.514882 
L 161.4312 105.396944 
L 173.9304 105.2268 
L 177.4458 104.858496 
L 181.3518 104.205911 
L 194.6322 101.711302 
L 198.1476 101.412133 
L 201.2724 101.383557 
L 204.7878 101.605786 
L 215.7246 102.556295 
L 218.8494 102.494305 
L 221.9742 102.198853 
L 232.911 100.880898 
L 236.0358 100.818922 
L 239.1606 100.965024 
L 243.0666 101.395332 
L 251.2692 102.400698 
L 254.7846 102.570048 
L 257.9094 102.494553 
L 260.6436 102.223056 
L 263.7684 101.69385 
L 273.924 99.744573 
L 277.0488 99.470395 
L 279.783 99.451296 
L 282.5172 99.650913 
L 286.0326 100.149819 
L 295.0164 101.540031 
L 298.9224 101.888555 
L 302.8284 102.014556 
L 307.9062 101.927661 
L 314.937 101.815059 
L 318.843 101.979181 
L 322.3584 102.346239 
L 326.655 103.041652 
L 334.0764 104.287838 
L 337.9824 104.683557 
L 341.4978 104.799546 
L 345.4038 104.675283 
L 355.5594 104.175113 
L 359.0748 104.278553 
L 362.5902 104.605104 
L 366.4962 105.199311 
L 382.5108 107.914773 
L 388.7604 108.588093 
L 395.4006 109.343617 
L 398.916 109.965038 
L 402.0408 110.737689 
L 405.1656 111.730759 
L 410.634 113.762688 
L 416.1024 115.706598 
L 420.7896 117.144227 
L 425.8674 118.460251 
L 437.5854 121.305475 
L 440.3196 122.293136 
L 442.6632 123.366883 
L 445.0068 124.691209 
L 447.3504 126.267375 
L 450.4752 128.675977 
L 453.6 131.28016 
L 453.6 131.28016 
" style="fill:none;stroke:#257352;stroke-linecap:square;stroke-width:2;"/>
   </g>
   <g id="line2d_2">
    <path clip-path="url(#p5ff296f6d8)" d="M 63 105.61147 
L 67.6872 109.573175 
L 70.4214 111.512863 
L 81.7488 118.817566 
L 83.3112 119.513265 
L 84.8736 119.933676 
L 86.0454 120.046279 
L 87.2172 119.979184 
L 88.389 119.735117 
L 89.9514 119.152355 
L 91.5138 118.318717 
L 94.248 116.513753 
L 96.201 115.287599 
L 97.7634 114.582652 
L 98.9352 114.301695 
L 100.107 114.264168 
L 101.2788 114.467623 
L 102.4506 114.885172 
L 104.013 115.7011 
L 106.3566 117.261921 
L 112.2156 121.615719 
L 118.0746 125.875415 
L 120.4182 127.277012 
L 122.3712 128.143304 
L 123.9336 128.596702 
L 125.496 128.829099 
L 127.0584 128.848566 
L 128.6208 128.670489 
L 130.5738 128.197499 
L 132.5268 127.483615 
L 135.261 126.192547 
L 139.167 124.309005 
L 140.7294 123.777811 
L 142.2918 123.469574 
L 143.8542 123.404246 
L 145.4166 123.566623 
L 147.3696 124.033686 
L 149.7132 124.881782 
L 152.4474 126.159786 
L 155.5722 127.908564 
L 159.8688 130.352442 
L 161.4312 131.016134 
L 162.9936 131.455729 
L 164.556 131.644158 
L 166.1184 131.585226 
L 167.6808 131.300851 
L 169.2432 130.817375 
L 171.1962 129.968019 
L 173.1492 128.883572 
L 175.8834 127.078404 
L 179.3988 124.728272 
L 180.9612 123.903421 
L 182.5236 123.322777 
L 184.086 123.020054 
L 185.6484 122.98945 
L 187.2108 123.199004 
L 188.7732 123.609728 
L 190.7262 124.360768 
L 192.6792 125.35416 
L 194.6322 126.597955 
L 196.5852 128.10473 
L 198.9288 130.207152 
L 202.4442 133.383501 
L 204.0066 134.479358 
L 205.1784 135.08031 
L 206.3502 135.470685 
L 207.522 135.649753 
L 208.6938 135.627845 
L 209.8656 135.419819 
L 211.428 134.877136 
L 212.9904 134.053406 
L 214.5528 132.966809 
L 216.5058 131.285149 
L 221.193 126.933333 
L 222.3648 126.183724 
L 223.5366 125.699745 
L 224.7084 125.496139 
L 225.8802 125.55522 
L 227.052 125.838965 
L 228.6144 126.490199 
L 230.5674 127.616458 
L 232.911 129.275283 
L 236.0358 131.818308 
L 239.5512 134.674237 
L 241.1136 135.68238 
L 242.2854 136.240932 
L 243.4572 136.5979 
L 244.629 136.744085 
L 245.8008 136.68805 
L 247.3632 136.336016 
L 248.9256 135.723961 
L 250.8786 134.673206 
L 252.8316 133.359056 
L 254.7846 131.798452 
L 257.1282 129.615363 
L 262.206 124.627451 
L 263.3778 123.786716 
L 264.5496 123.189592 
L 265.7214 122.861806 
L 266.8932 122.800617 
L 268.065 122.98149 
L 269.2368 123.369221 
L 270.7992 124.148031 
L 272.3616 125.170361 
L 274.3146 126.744497 
L 276.2676 128.630912 
L 278.6112 131.244977 
L 281.736 134.802197 
L 283.2984 136.24421 
L 284.4702 137.056189 
L 285.642 137.609755 
L 286.8138 137.913345 
L 287.9856 137.996907 
L 289.548 137.834467 
L 291.1104 137.440837 
L 293.0634 136.724545 
L 295.407 135.633669 
L 298.5318 133.906756 
L 302.8284 131.510014 
L 304.7814 130.712528 
L 306.3438 130.307508 
L 307.9062 130.13047 
L 309.4686 130.176035 
L 311.031 130.426888 
L 312.984 131.000633 
L 314.937 131.836689 
L 316.89 132.908649 
L 319.6242 134.706717 
L 323.1396 137.021554 
L 324.702 137.789518 
L 326.2644 138.274333 
L 327.4362 138.429674 
L 328.608 138.40867 
L 330.1704 138.131798 
L 331.7328 137.614126 
L 333.6858 136.697101 
L 335.6388 135.541336 
L 338.373 133.621655 
L 343.0602 130.226128 
L 344.6226 129.394858 
L 346.185 128.854765 
L 347.3568 128.660796 
L 348.5286 128.644308 
L 350.091 128.872211 
L 351.6534 129.342054 
L 353.6064 130.200101 
L 355.95 131.535484 
L 358.6842 133.388459 
L 363.3714 136.637426 
L 365.3244 137.669446 
L 366.8868 138.248202 
L 368.4492 138.593094 
L 370.0116 138.723765 
L 371.9646 138.645209 
L 374.3082 138.304922 
L 377.433 137.606848 
L 382.9014 136.09147 
L 385.6356 135.432109 
L 387.5886 135.159261 
L 389.151 135.122172 
L 390.7134 135.276996 
L 392.2758 135.639494 
L 393.8382 136.21721 
L 395.4006 137.012643 
L 396.963 138.02221 
L 398.916 139.55778 
L 402.0408 142.389513 
L 403.9938 144.06077 
L 405.5562 145.118697 
L 406.728 145.675419 
L 407.8998 146.00688 
L 409.0716 146.120745 
L 410.2434 146.045359 
L 411.8058 145.720219 
L 414.1494 144.94709 
L 427.0392 140.236044 
L 428.6016 139.961577 
L 430.164 139.898553 
L 431.7264 140.094623 
L 432.8982 140.434951 
L 434.07 140.956467 
L 435.2418 141.672293 
L 436.4136 142.595254 
L 437.976 144.168034 
L 439.5384 146.146593 
L 441.1008 148.518524 
L 443.0538 151.926552 
L 446.5692 158.251824 
L 448.1316 160.557596 
L 449.3034 161.922134 
L 450.4752 162.960258 
L 451.647 163.709973 
L 453.2094 164.386703 
L 453.6 164.519707 
L 453.6 164.519707 
" style="fill:none;stroke:#257352;stroke-dasharray:7.4,3.2;stroke-dashoffset:0;stroke-width:2;"/>
   </g>
   <g id="line2d_3">
    <path clip-path="url(#p5ff296f6d8)" d="M 63 131.299194 
L 65.3436 127.622363 
L 68.4684 123.176774 
L 82.53 104.226939 
L 86.436 99.225057 
L 90.7326 94.119428 
L 95.4198 88.8899 
L 99.3258 84.850666 
L 102.4506 81.944732 
L 105.5754 79.346934 
L 109.4814 76.412104 
L 115.3404 72.32087 
L 119.637 69.555081 
L 122.7618 67.798942 
L 125.8866 66.314653 
L 129.402 64.92857 
L 134.4798 63.225552 
L 144.6354 59.84745 
L 151.6662 57.574364 
L 157.9158 55.782438 
L 173.5398 51.47524 
L 178.6176 49.647579 
L 184.8672 47.404995 
L 188.7732 46.260605 
L 193.851 45.042595 
L 210.2562 41.461159 
L 213.381 41.090845 
L 216.1152 40.968124 
L 218.8494 41.064904 
L 221.9742 41.426609 
L 232.1298 42.863913 
L 236.0358 43.065451 
L 240.3324 43.054659 
L 256.347 42.577839 
L 259.8624 42.279885 
L 262.9872 41.814182 
L 266.8932 40.999047 
L 273.924 39.502654 
L 277.0488 39.069011 
L 279.783 38.896726 
L 282.5172 38.945087 
L 285.642 39.228065 
L 291.501 40.038592 
L 302.0472 41.672813 
L 307.125 42.725163 
L 312.984 44.188165 
L 324.702 47.212608 
L 328.608 47.907293 
L 333.6858 48.546477 
L 340.7166 49.451031 
L 346.5756 50.485191 
L 354.3876 51.830533 
L 363.3714 53.315842 
L 367.2774 54.214451 
L 370.7928 55.236525 
L 374.3082 56.467594 
L 377.8236 57.914611 
L 381.7296 59.781967 
L 386.4168 62.310342 
L 394.6194 67.03449 
L 398.1348 69.282871 
L 401.2596 71.555441 
L 404.3844 74.119771 
L 415.7118 83.760161 
L 423.5238 90.037499 
L 427.4298 93.536283 
L 431.3358 97.355285 
L 434.8512 101.091809 
L 437.5854 104.277958 
L 440.3196 107.822272 
L 442.6632 111.227221 
L 445.0068 115.009749 
L 447.741 119.863471 
L 451.2564 126.605467 
L 453.6 131.334592 
L 453.6 131.334592 
" style="fill:none;stroke:#ff6e54;stroke-linecap:square;stroke-width:2;"/>
   </g>
   <g id="line2d_4">
    <path clip-path="url(#p5ff296f6d8)" d="M 63 66.89148 
L 64.5624 71.065772 
L 65.7342 73.714714 
L 66.906 75.880157 
L 68.0778 77.536406 
L 69.2496 78.686804 
L 70.0308 79.185782 
L 70.812 79.486335 
L 71.5932 79.607319 
L 72.765 79.504937 
L 73.9368 79.151765 
L 77.4522 77.83123 
L 78.624 77.714482 
L 79.7958 77.899289 
L 80.9676 78.399114 
L 82.1394 79.17781 
L 83.7018 80.522179 
L 88.389 84.799257 
L 90.342 86.15007 
L 93.4668 87.913323 
L 95.4198 89.156697 
L 96.9822 90.447831 
L 98.5446 92.066943 
L 100.4976 94.462142 
L 104.013 98.871892 
L 105.5754 100.48599 
L 107.1378 101.767705 
L 108.7002 102.717754 
L 110.2626 103.388955 
L 112.6062 104.084021 
L 114.9498 104.787046 
L 116.5122 105.479607 
L 118.0746 106.462681 
L 119.637 107.760679 
L 121.59 109.741267 
L 126.2772 114.758087 
L 127.8396 116.109713 
L 129.402 117.188812 
L 130.9644 117.975796 
L 132.5268 118.474339 
L 134.0892 118.707928 
L 135.6516 118.719954 
L 137.9952 118.46744 
L 141.9012 118.006871 
L 143.8542 118.015065 
L 146.1978 118.275559 
L 149.3226 118.886517 
L 159.4782 121.036777 
L 161.8218 121.31025 
L 163.7748 121.332904 
L 165.7278 121.120741 
L 167.6808 120.664293 
L 169.6338 119.986329 
L 172.368 118.774859 
L 175.8834 117.221776 
L 177.4458 116.768397 
L 178.6176 116.607347 
L 179.7894 116.630861 
L 180.9612 116.848078 
L 182.5236 117.415431 
L 184.4766 118.450386 
L 189.1638 121.155837 
L 191.1168 121.954728 
L 192.6792 122.371343 
L 194.2416 122.583831 
L 196.1946 122.5895 
L 198.5382 122.338089 
L 201.2724 122.045511 
L 202.8348 122.070172 
L 204.3972 122.32399 
L 205.9596 122.828752 
L 207.522 123.570931 
L 209.475 124.791501 
L 211.428 126.303429 
L 213.381 128.100022 
L 215.334 130.175696 
L 220.8024 136.236077 
L 221.9742 137.092274 
L 223.146 137.637581 
L 224.3178 137.861058 
L 225.4896 137.790845 
L 226.6614 137.480475 
L 228.2238 136.800175 
L 230.5674 135.466757 
L 236.4264 131.978689 
L 238.3794 131.068919 
L 240.3324 130.422898 
L 241.8948 130.131356 
L 243.8478 130.032948 
L 246.1914 130.17535 
L 250.0974 130.440911 
L 252.0504 130.341995 
L 253.6128 130.069866 
L 255.1752 129.585948 
L 256.7376 128.86371 
L 258.3 127.900152 
L 260.253 126.423397 
L 263.3778 123.977913 
L 264.9402 123.054041 
L 266.112 122.594235 
L 267.2838 122.355495 
L 268.4556 122.333746 
L 269.6274 122.512181 
L 271.1898 123.026297 
L 272.7522 123.821079 
L 274.3146 124.877066 
L 275.877 126.188617 
L 277.83 128.166106 
L 283.689 134.584856 
L 284.8608 135.462319 
L 286.0326 136.110236 
L 287.2044 136.544608 
L 288.7668 136.85654 
L 290.7198 136.970703 
L 296.1882 137.079174 
L 298.1412 137.364362 
L 300.4848 137.956946 
L 303.6096 139.043276 
L 307.9062 140.519102 
L 310.6404 141.225827 
L 313.3746 141.726838 
L 315.7182 141.961693 
L 317.6712 141.953916 
L 319.2336 141.75827 
L 320.796 141.353311 
L 322.3584 140.725038 
L 324.3114 139.672065 
L 328.9986 136.930132 
L 330.561 136.290301 
L 332.1234 135.885522 
L 333.6858 135.728146 
L 335.2482 135.808574 
L 336.8106 136.099678 
L 338.7636 136.688632 
L 343.4508 138.255694 
L 345.0132 138.522785 
L 346.5756 138.582211 
L 348.5286 138.401579 
L 351.6534 137.813436 
L 354.3876 137.368287 
L 356.3406 137.256483 
L 358.2936 137.397896 
L 359.856 137.723355 
L 361.4184 138.244581 
L 363.3714 139.148169 
L 365.715 140.506108 
L 370.7928 143.812154 
L 377.0424 148.061499 
L 381.7296 151.256527 
L 383.6826 152.284839 
L 385.245 152.867439 
L 386.8074 153.231568 
L 389.151 153.509169 
L 391.4946 153.813977 
L 393.057 154.24281 
L 394.2288 154.755192 
L 395.4006 155.461246 
L 396.963 156.720731 
L 398.5254 158.31854 
L 400.869 161.122814 
L 402.822 163.414177 
L 403.9938 164.547961 
L 405.1656 165.379206 
L 405.9468 165.732803 
L 406.728 165.917127 
L 407.5092 165.9365 
L 408.681 165.689536 
L 409.8528 165.184211 
L 411.8058 164.041465 
L 414.1494 162.72087 
L 415.7118 162.137984 
L 416.8836 161.930911 
L 418.0554 161.944412 
L 419.2272 162.183018 
L 420.399 162.636789 
L 421.9614 163.533215 
L 423.9144 164.989276 
L 432.117 171.796135 
L 433.6794 173.380714 
L 435.2418 175.314788 
L 436.8042 177.706667 
L 438.3666 180.627749 
L 439.929 184.090572 
L 441.882 189.057933 
L 445.788 199.371492 
L 447.3504 202.762125 
L 448.5222 204.843189 
L 450.0846 207.089177 
L 453.2094 211.215926 
L 453.6 211.851818 
L 453.6 211.851818 
" style="fill:none;stroke:#ff6e54;stroke-dasharray:7.4,3.2;stroke-dashoffset:0;stroke-width:2;"/>
   </g>
   <g id="line2d_5">
    <path clip-path="url(#p5ff296f6d8)" d="M 63 131.299194 
L 66.1248 127.894548 
L 70.4214 123.59974 
L 79.7958 114.636786 
L 83.3112 111.557486 
L 86.8266 108.787475 
L 91.1232 105.728144 
L 96.5916 102.131394 
L 100.107 100.045559 
L 103.2318 98.446643 
L 106.3566 97.114076 
L 109.872 95.885081 
L 113.778 94.765528 
L 118.0746 93.757873 
L 122.7618 92.894648 
L 127.8396 92.19291 
L 135.261 91.415627 
L 153.2286 89.62915 
L 157.1346 88.952157 
L 161.4312 87.966741 
L 168.0714 86.157846 
L 175.1022 84.055917 
L 180.9612 82.066084 
L 194.6322 77.328348 
L 201.663 75.068909 
L 205.1784 74.172462 
L 208.3032 73.597847 
L 211.8186 73.196271 
L 215.334 73.026174 
L 218.8494 73.084986 
L 222.3648 73.38153 
L 226.2708 73.944774 
L 231.3486 74.905746 
L 237.2076 76.245305 
L 246.582 78.459254 
L 250.8786 79.196571 
L 256.347 79.892148 
L 262.9872 80.514864 
L 268.4556 80.823993 
L 273.5334 80.897522 
L 278.6112 80.744573 
L 284.4702 80.320871 
L 292.6728 79.749613 
L 300.0942 79.478907 
L 318.0618 79.146654 
L 325.4832 79.182955 
L 332.1234 79.458184 
L 339.1542 79.975897 
L 345.0132 80.635189 
L 350.4816 81.471058 
L 355.5594 82.452056 
L 360.2466 83.587547 
L 364.9338 84.958641 
L 373.1364 87.645827 
L 378.9954 89.749996 
L 383.292 91.525088 
L 389.151 94.233461 
L 409.4622 103.725233 
L 414.54 105.819212 
L 423.9144 109.629747 
L 429.7734 112.32886 
L 435.2418 115.069587 
L 438.7572 117.084718 
L 441.4914 118.924845 
L 443.835 120.770538 
L 446.1786 122.903206 
L 448.5222 125.317751 
L 451.2564 128.438082 
L 453.6 131.335161 
L 453.6 131.335161 
" style="fill:none;stroke:#8454ff;stroke-linecap:square;stroke-width:2;"/>
   </g>
   <g id="line2d_6">
    <path clip-path="url(#p5ff296f6d8)" d="M 63 86.579393 
L 64.5624 88.807652 
L 66.1248 90.639184 
L 67.2966 91.709255 
L 68.4684 92.513253 
L 69.6402 93.066381 
L 70.812 93.401008 
L 72.3744 93.593511 
L 76.2804 93.85515 
L 77.4522 94.189387 
L 78.624 94.74173 
L 79.7958 95.520823 
L 81.3582 96.859553 
L 87.2172 102.401966 
L 88.7796 103.449451 
L 90.342 104.252344 
L 92.6856 105.147911 
L 95.4198 106.202996 
L 96.9822 107.066293 
L 98.5446 108.222884 
L 100.107 109.663469 
L 102.8412 112.582378 
L 105.5754 115.445692 
L 107.5284 117.209164 
L 109.4814 118.686985 
L 111.4344 119.911876 
L 114.1686 121.331642 
L 118.8558 123.445294 
L 123.1524 125.207624 
L 125.8866 126.108487 
L 128.6208 126.775715 
L 131.7456 127.28019 
L 135.6516 127.647647 
L 140.7294 127.889443 
L 143.8542 127.856366 
L 146.5884 127.594421 
L 148.932 127.12492 
L 150.885 126.527625 
L 153.2286 125.549518 
L 155.9628 124.110917 
L 159.8688 122.022397 
L 161.8218 121.256544 
L 163.7748 120.755579 
L 166.1184 120.412457 
L 171.1962 119.760487 
L 173.9304 119.131074 
L 179.7894 117.61081 
L 181.7424 117.392097 
L 183.6954 117.392174 
L 186.4296 117.634413 
L 191.1168 118.05558 
L 197.3664 118.403212 
L 198.9288 118.772883 
L 200.4912 119.399634 
L 202.0536 120.307018 
L 204.0066 121.773569 
L 212.2092 128.441549 
L 219.24 133.580238 
L 222.3648 135.838057 
L 224.3178 136.97569 
L 226.2708 137.852315 
L 228.6144 138.653462 
L 234.0828 140.198449 
L 237.2076 140.923158 
L 239.1606 141.123892 
L 240.723 141.049174 
L 242.2854 140.736502 
L 243.8478 140.210034 
L 246.1914 139.169508 
L 250.0974 137.401823 
L 252.441 136.566983 
L 255.1752 135.842626 
L 259.0812 135.086803 
L 262.9872 134.269396 
L 266.5026 133.288752 
L 273.1428 131.157388 
L 281.3454 128.424963 
L 283.2984 128.1288 
L 285.2514 128.106087 
L 287.595 128.363942 
L 292.2822 129.227119 
L 296.9694 129.985394 
L 300.8754 130.388468 
L 304.7814 130.553378 
L 317.2806 130.81007 
L 320.4054 131.208052 
L 323.9208 131.895432 
L 330.9516 133.329796 
L 338.373 134.725042 
L 342.279 135.740075 
L 353.6064 139.022577 
L 356.7312 140.241651 
L 363.762 143.165373 
L 365.715 143.673084 
L 368.0586 144.033169 
L 374.3082 144.784938 
L 376.2612 145.310781 
L 378.2142 146.04658 
L 380.9484 147.340455 
L 384.0732 148.800609 
L 385.6356 149.330534 
L 387.198 149.653187 
L 388.7604 149.770236 
L 391.104 149.674016 
L 395.4006 149.407299 
L 397.7442 149.508483 
L 403.6032 149.948439 
L 405.1656 149.761976 
L 406.728 149.365259 
L 409.0716 148.485958 
L 412.1964 147.281958 
L 414.1494 146.788574 
L 415.7118 146.614018 
L 417.2742 146.647805 
L 418.8366 146.876988 
L 420.7896 147.384689 
L 428.6016 149.748606 
L 432.117 150.635809 
L 433.6794 151.260773 
L 435.2418 152.159359 
L 436.4136 153.062793 
L 437.5854 154.195782 
L 438.7572 155.580403 
L 440.3196 157.835821 
L 441.882 160.539165 
L 443.835 164.403044 
L 447.741 172.301648 
L 449.694 175.609938 
L 452.0376 179.019496 
L 453.6 181.295645 
L 453.6 181.295645 
" style="fill:none;stroke:#8454ff;stroke-dasharray:7.4,3.2;stroke-dashoffset:0;stroke-width:2;"/>
   </g>
   <g id="patch_3">
    <path d="M 63 220.5 
L 63 30.24 
" style="fill:none;stroke:#000000;stroke-linecap:square;stroke-linejoin:miter;stroke-width:0.8;"/>
   </g>
   <g id="patch_4">
    <path d="M 453.6 220.5 
L 453.6 30.24 
" style="fill:none;stroke:#000000;stroke-linecap:square;stroke-linejoin:miter;stroke-width:0.8;"/>
   </g>
   <g id="patch_5">
    <path d="M 63 220.5 
L 453.6 220.5 
" style="fill:none;stroke:#000000;stroke-linecap:square;stroke-linejoin:miter;stroke-width:0.8;"/>
   </g>
   <g id="patch_6">
    <path d="M 63 30.24 
L 453.6 30.24 
" style="fill:none;stroke:#000000;stroke-linecap:square;stroke-linejoin:miter;stroke-width:0.8;"/>
   </g>
  </g>
 </g>
 <defs>
  <clipPath id="p5ff296f6d8">
   <rect height="190.26" width="390.6" x="63" y="30.24"/>
  </clipPath>
 </defs>
</svg>
