<?xml version="1.0" encoding="utf-8" standalone="no"?>
<!DOCTYPE svg PUBLIC "-//W3C//DTD SVG 1.1//EN"
  "http://www.w3.org/Graphics/SVG/1.1/DTD/svg11.dtd">
<!-- Created with matplotlib (https://matplotlib.org/) -->
<svg height="252pt" version="1.1" viewBox="0 0 504 252" width="504pt" xmlns="http://www.w3.org/2000/svg" xmlns:xlink="http://www.w3.org/1999/xlink">
 <defs>
  <style type="text/css">
*{stroke-linecap:butt;stroke-linejoin:round;}
  </style>
 </defs>
 <g id="figure_1">
  <g id="patch_1">
   <path d="M 0 252 
L 504 252 
L 504 0 
L 0 0 
z
" style="fill:none;"/>
  </g>
  <g id="axes_1">
   <g id="patch_2">
    <path d="M 63 220.5 
L 453.6 220.5 
L 453.6 30.24 
L 63 30.24 
z
" style="fill:none;"/>
   </g>
   <g id="matplotlib.axis_1">
    <g id="xtick_1"/>
    <g id="xtick_2"/>
    <g id="xtick_3"/>
    <g id="xtick_4"/>
    <g id="xtick_5"/>
    <g id="xtick_6"/>
   </g>
   <g id="matplotlib.axis_2">
    <g id="ytick_1"/>
    <g id="ytick_2"/>
    <g id="ytick_3"/>
    <g id="ytick_4"/>
    <g id="ytick_5"/>
   </g>
   <g id="line2d_1">
    <path clip-path="url(#p9486bae820)" d="M 63 133.079392 
L 66.1248 129.90939 
L 69.6402 126.651402 
L 73.9368 122.984256 
L 78.2334 119.593002 
L 81.7488 117.067364 
L 85.2642 114.825197 
L 88.7796 112.861942 
L 93.0762 110.735161 
L 102.4506 106.440421 
L 123.1524 96.927518 
L 129.402 94.044563 
L 133.6986 92.299237 
L 137.9952 90.78852 
L 142.2918 89.501732 
L 146.5884 88.441361 
L 150.885 87.60803 
L 156.744 86.726214 
L 164.556 85.536723 
L 169.2432 84.596018 
L 175.1022 83.167581 
L 184.086 80.71643 
L 193.4604 78.194089 
L 197.757 77.288306 
L 201.663 76.681127 
L 205.9596 76.247126 
L 210.2562 76.043373 
L 214.9434 76.061057 
L 221.193 76.34766 
L 236.817 77.381237 
L 247.3632 78.238897 
L 252.441 78.855743 
L 256.7376 79.588636 
L 261.0342 80.551709 
L 265.7214 81.831586 
L 270.7992 83.436125 
L 276.6582 85.537752 
L 283.689 88.056082 
L 287.2044 89.071241 
L 290.7198 89.858149 
L 294.2352 90.428868 
L 298.1412 90.834414 
L 302.4378 91.033759 
L 307.5156 91.018699 
L 321.5772 90.829165 
L 325.8738 91.075646 
L 330.1704 91.558916 
L 334.8576 92.314157 
L 341.4978 93.634452 
L 349.3098 95.164367 
L 353.6064 95.770309 
L 357.903 96.156333 
L 362.9808 96.380153 
L 371.1834 96.466363 
L 377.8236 96.63498 
L 382.1202 96.9528 
L 386.0262 97.4614 
L 389.5416 98.141314 
L 393.057 99.041221 
L 397.3536 100.383964 
L 403.2126 102.467936 
L 410.2434 105.201035 
L 427.8204 112.405472 
L 431.3358 114.098685 
L 434.4606 115.845308 
L 437.5854 117.872462 
L 440.7102 120.198622 
L 443.835 122.83063 
L 446.5692 125.409807 
L 449.3034 128.30192 
L 451.647 131.088377 
L 453.6 133.664947 
L 453.6 133.664947 
" style="fill:none;stroke:#257352;stroke-linecap:square;stroke-width:2;"/>
   </g>
   <g id="line2d_2">
    <path clip-path="url(#p9486bae820)" d="M 63 91.571609 
L 65.3436 94.378189 
L 67.2966 96.390189 
L 69.2496 98.056681 
L 71.2026 99.414763 
L 73.9368 100.998389 
L 77.0616 102.825373 
L 79.0146 104.205122 
L 81.3582 106.172781 
L 87.6078 111.75834 
L 89.5608 113.084011 
L 91.1232 113.903773 
L 92.6856 114.507688 
L 94.6386 114.987031 
L 96.5916 115.222182 
L 99.3258 115.310073 
L 105.1848 115.44418 
L 110.2626 115.586544 
L 112.9968 115.42379 
L 116.1216 114.998655 
L 120.4182 114.383643 
L 122.3712 114.318579 
L 124.3242 114.500619 
L 126.2772 114.957125 
L 128.2302 115.658818 
L 130.9644 116.914181 
L 141.5106 122.020515 
L 151.2756 126.56383 
L 153.2286 127.153914 
L 155.1816 127.517567 
L 157.1346 127.638918 
L 159.0876 127.520157 
L 161.0406 127.177991 
L 163.3842 126.519708 
L 166.8996 125.236306 
L 170.415 123.997645 
L 173.1492 123.282661 
L 175.8834 122.802166 
L 179.7894 122.367025 
L 184.086 122.096807 
L 186.8202 122.14143 
L 188.7732 122.369835 
L 190.7262 122.81317 
L 192.6792 123.481709 
L 195.0228 124.533047 
L 198.9288 126.590654 
L 204.7878 129.625365 
L 211.0374 132.585451 
L 214.1622 133.851069 
L 216.5058 134.577574 
L 218.8494 135.075496 
L 221.5836 135.408701 
L 225.4896 135.608716 
L 242.2854 136.18237 
L 245.4102 136.630589 
L 248.1444 137.251808 
L 250.8786 138.13059 
L 253.6128 139.269457 
L 257.9094 141.372096 
L 261.4248 142.994079 
L 264.5496 144.185774 
L 271.5804 146.506632 
L 274.7052 147.388023 
L 276.6582 147.689156 
L 278.2206 147.686132 
L 279.783 147.412329 
L 281.3454 146.855924 
L 282.9078 146.048254 
L 284.8608 144.785362 
L 294.6258 138.059657 
L 298.5318 135.795527 
L 301.6566 134.208883 
L 304.0002 133.23997 
L 306.3438 132.528712 
L 308.2968 132.152542 
L 310.2498 131.969682 
L 312.5934 131.988282 
L 314.937 132.250495 
L 317.2806 132.752089 
L 319.6242 133.49483 
L 321.9678 134.463895 
L 325.4832 136.203204 
L 329.7798 138.308386 
L 332.514 139.402259 
L 335.2482 140.258996 
L 337.9824 140.880102 
L 340.326 141.196196 
L 342.279 141.261805 
L 344.232 141.103389 
L 346.185 140.696678 
L 348.138 140.055007 
L 350.8722 138.87334 
L 357.903 135.675314 
L 361.0278 134.586654 
L 363.762 133.874516 
L 366.1056 133.472297 
L 368.4492 133.295162 
L 370.7928 133.367652 
L 373.1364 133.693971 
L 375.48 134.258497 
L 377.8236 135.040615 
L 380.1672 136.02982 
L 382.9014 137.447977 
L 385.6356 139.144339 
L 389.9322 142.157189 
L 392.6664 143.969911 
L 395.01 145.240698 
L 396.963 146.051882 
L 399.3066 146.768077 
L 402.4314 147.463376 
L 409.0716 148.675384 
L 411.8058 148.985589 
L 414.1494 149.04943 
L 417.2742 148.886441 
L 420.7896 148.731626 
L 422.7426 148.869003 
L 424.305 149.171627 
L 425.8674 149.682403 
L 427.4298 150.424672 
L 428.9922 151.410381 
L 430.5546 152.63759 
L 432.5076 154.480906 
L 434.8512 157.041449 
L 439.5384 162.625779 
L 443.4444 167.464466 
L 445.3974 170.179739 
L 447.3504 173.306717 
L 448.9128 176.200473 
L 450.8658 180.366562 
L 452.8188 185.087538 
L 453.6 187.08458 
L 453.6 187.08458 
" style="fill:none;stroke:#257352;stroke-dasharray:7.4,3.2;stroke-dashoffset:0;stroke-width:2;"/>
   </g>
   <g id="line2d_3">
    <path clip-path="url(#p9486bae820)" d="M 63 133.079392 
L 66.1248 127.86196 
L 69.6402 122.463937 
L 74.3274 115.728807 
L 79.4052 108.821725 
L 82.9206 104.388172 
L 86.0454 100.797673 
L 89.1702 97.555395 
L 92.6856 94.265726 
L 96.201 91.271825 
L 100.107 88.244419 
L 103.6224 85.813101 
L 106.7472 83.910598 
L 110.2626 82.043381 
L 114.1686 80.228437 
L 119.637 77.962087 
L 125.8866 75.613345 
L 131.355 73.783762 
L 139.167 71.440423 
L 147.3696 68.907736 
L 154.4004 66.49667 
L 159.8688 64.402273 
L 164.1654 62.523913 
L 168.8526 60.217567 
L 192.2886 48.2758 
L 197.3664 45.915128 
L 202.0536 43.971145 
L 207.522 41.949913 
L 211.8186 40.564629 
L 215.334 39.666449 
L 218.0682 39.185332 
L 220.8024 38.928804 
L 223.5366 38.909269 
L 226.2708 39.134237 
L 229.005 39.615185 
L 231.3486 40.240486 
L 234.0828 41.21818 
L 236.817 42.437033 
L 240.3324 44.271321 
L 245.0196 46.998589 
L 250.488 50.446216 
L 256.347 54.425436 
L 262.5966 58.626019 
L 266.5026 60.948912 
L 270.4086 62.984842 
L 274.3146 64.772914 
L 278.2206 66.321548 
L 281.736 67.466178 
L 284.8608 68.250949 
L 287.9856 68.819394 
L 291.501 69.234374 
L 295.407 69.463207 
L 299.313 69.479319 
L 303.6096 69.280052 
L 309.078 68.783169 
L 327.0456 66.928028 
L 330.9516 66.878442 
L 334.467 67.045775 
L 337.9824 67.422684 
L 341.4978 68.012729 
L 345.4038 68.907543 
L 350.091 70.232968 
L 359.4654 73.181002 
L 368.0586 76.067556 
L 384.0732 81.785785 
L 390.7134 84.378534 
L 414.54 94.1903 
L 420.0084 96.864195 
L 424.305 99.188423 
L 427.8204 101.337797 
L 430.5546 103.245565 
L 433.2888 105.423868 
L 436.023 107.914331 
L 438.7572 110.730538 
L 441.4914 113.865692 
L 444.2256 117.321225 
L 446.9598 121.137564 
L 449.3034 124.764715 
L 451.647 128.80718 
L 453.6 132.55659 
L 453.6 132.55659 
" style="fill:none;stroke:#ff6e54;stroke-linecap:square;stroke-width:2;"/>
   </g>
   <g id="line2d_4">
    <path clip-path="url(#p9486bae820)" d="M 63 64.810096 
L 64.953 68.648166 
L 66.5154 71.272502 
L 68.0778 73.443042 
L 69.6402 75.165389 
L 71.2026 76.494454 
L 72.765 77.527805 
L 77.8428 80.536957 
L 79.4052 81.869804 
L 80.9676 83.527746 
L 82.9206 86.004688 
L 89.9514 95.495127 
L 91.9044 97.565981 
L 94.248 99.672082 
L 102.06 106.234183 
L 108.7002 112.527403 
L 110.6532 113.999762 
L 112.6062 115.191715 
L 114.5592 116.115916 
L 116.9028 116.937176 
L 120.0276 117.739754 
L 125.496 119.104503 
L 132.9174 121.112852 
L 135.261 121.466601 
L 137.6046 121.593776 
L 139.9482 121.496689 
L 142.6824 121.155085 
L 149.3226 119.975189 
L 154.4004 118.977875 
L 156.744 118.30316 
L 159.0876 117.409496 
L 161.8218 116.113035 
L 166.509 113.807709 
L 168.462 113.122567 
L 170.0244 112.781097 
L 171.5868 112.628487 
L 173.5398 112.658571 
L 176.6646 112.979401 
L 180.5706 113.333366 
L 183.6954 113.378164 
L 188.3826 113.398596 
L 190.3356 113.614418 
L 192.2886 114.039977 
L 194.6322 114.813296 
L 198.9288 116.581981 
L 202.4442 117.896826 
L 209.475 120.33178 
L 211.0374 121.175208 
L 212.5998 122.250229 
L 214.1622 123.573845 
L 216.1152 125.543077 
L 218.8494 128.697952 
L 223.5366 134.525782 
L 227.4426 139.673998 
L 235.2546 150.299886 
L 236.817 151.980387 
L 238.3794 153.36781 
L 239.9418 154.467631 
L 241.5042 155.325305 
L 243.8478 156.310317 
L 253.2222 159.641708 
L 255.1752 160.066625 
L 256.7376 160.140308 
L 257.9094 159.998842 
L 259.0812 159.676256 
L 260.6436 158.977291 
L 262.206 158.025048 
L 264.9402 156.016916 
L 268.8462 153.149981 
L 271.971 151.184859 
L 277.0488 148.065445 
L 279.3924 146.302088 
L 282.1266 143.942606 
L 286.8138 139.851573 
L 289.548 137.805103 
L 292.2822 136.043647 
L 295.7976 134.055236 
L 300.0942 131.873391 
L 303.219 130.517319 
L 305.9532 129.592732 
L 308.2968 129.022888 
L 311.031 128.595705 
L 313.7652 128.385448 
L 316.4994 128.38353 
L 318.843 128.582915 
L 321.1866 129.026574 
L 323.1396 129.621065 
L 325.0926 130.429624 
L 327.4362 131.647461 
L 330.561 133.545678 
L 337.2012 137.921364 
L 343.8414 142.284377 
L 346.185 143.533289 
L 348.138 144.322765 
L 350.091 144.86121 
L 352.044 145.182006 
L 355.1688 145.422983 
L 360.6372 145.80033 
L 365.715 146.461265 
L 369.621 146.868685 
L 372.7458 146.962812 
L 379.7766 147.038174 
L 382.5108 147.352017 
L 385.6356 147.956058 
L 390.3228 148.907301 
L 392.6664 149.123811 
L 395.01 149.080285 
L 398.1348 148.753562 
L 401.6502 148.436749 
L 403.9938 148.470568 
L 405.9468 148.704012 
L 408.2904 149.221482 
L 411.4152 150.191555 
L 420.7896 153.489158 
L 422.7426 154.476853 
L 424.305 155.483134 
L 425.8674 156.729003 
L 427.4298 158.246474 
L 428.9922 160.051525 
L 430.9452 162.701501 
L 433.2888 166.35976 
L 442.6632 182.085589 
L 444.6162 185.600562 
L 446.1786 188.787817 
L 447.741 192.463258 
L 449.3034 196.742888 
L 450.8658 201.691457 
L 452.8188 208.783603 
L 453.6 211.851818 
L 453.6 211.851818 
" style="fill:none;stroke:#ff6e54;stroke-dasharray:7.4,3.2;stroke-dashoffset:0;stroke-width:2;"/>
   </g>
   <g id="line2d_5">
    <path clip-path="url(#p9486bae820)" d="M 63 133.079392 
L 65.7342 130.941161 
L 68.859 128.771542 
L 72.765 126.343081 
L 77.8428 123.456262 
L 83.7018 120.371342 
L 92.295 116.159984 
L 98.9352 112.774193 
L 109.0908 107.502218 
L 114.1686 105.185478 
L 119.2464 103.105232 
L 123.9336 101.405553 
L 128.2302 100.091303 
L 132.5268 99.032974 
L 137.6046 98.043304 
L 156.3534 94.658922 
L 161.4312 93.393834 
L 166.8996 91.786652 
L 175.8834 89.100688 
L 180.5706 87.976297 
L 184.8672 87.169062 
L 189.1638 86.58721 
L 193.4604 86.240566 
L 198.1476 86.093446 
L 214.5528 85.8046 
L 219.6306 85.32806 
L 233.3016 83.884035 
L 236.817 83.785287 
L 240.3324 83.907663 
L 243.8478 84.258484 
L 247.3632 84.827722 
L 250.8786 85.610816 
L 254.7846 86.72688 
L 259.4718 88.335471 
L 268.4556 91.4807 
L 273.1428 92.858584 
L 277.4394 93.89151 
L 281.3454 94.586571 
L 285.2514 95.029671 
L 289.548 95.285347 
L 296.9694 95.458483 
L 305.172 95.711093 
L 311.031 96.114138 
L 316.89 96.735837 
L 323.1396 97.630752 
L 334.467 99.323754 
L 339.9354 99.865389 
L 345.0132 100.147244 
L 350.8722 100.231715 
L 366.1056 100.298646 
L 370.7928 100.600748 
L 375.48 101.119225 
L 380.5578 101.905577 
L 386.0262 102.981752 
L 394.2288 104.87525 
L 400.4784 106.214769 
L 407.8998 107.543162 
L 415.7118 108.985527 
L 420.399 110.07569 
L 424.305 111.206447 
L 427.4298 112.315964 
L 430.5546 113.666454 
L 433.2888 115.086799 
L 436.023 116.749636 
L 439.1478 118.935538 
L 442.6632 121.705592 
L 446.1786 124.758636 
L 449.694 128.115323 
L 452.8188 131.417569 
L 453.6 132.296729 
L 453.6 132.296729 
" style="fill:none;stroke:#8454ff;stroke-linecap:square;stroke-width:2;"/>
   </g>
   <g id="line2d_6">
    <path clip-path="url(#p9486bae820)" d="M 63 100.652118 
L 64.953 103.328778 
L 66.906 105.604154 
L 68.4684 107.107023 
L 70.0308 108.335231 
L 71.5932 109.31603 
L 73.5462 110.257382 
L 75.8898 111.100596 
L 80.9676 112.571303 
L 85.2642 113.694946 
L 87.6078 114.068461 
L 89.5608 114.156679 
L 91.5138 114.020975 
L 93.8574 113.5988 
L 100.107 112.259359 
L 101.6694 112.215154 
L 103.2318 112.369055 
L 105.1848 112.821104 
L 107.5284 113.634516 
L 116.1216 116.877565 
L 120.8088 118.560198 
L 123.543 119.789024 
L 127.0584 121.66381 
L 131.7456 124.158543 
L 134.0892 125.165073 
L 136.4328 125.932422 
L 138.7764 126.4452 
L 141.12 126.708077 
L 143.4636 126.739055 
L 146.1978 126.523349 
L 149.3226 126.022618 
L 152.838 125.226287 
L 156.3534 124.214435 
L 160.65 122.726559 
L 164.556 121.438205 
L 166.509 121.017663 
L 168.0714 120.866728 
L 169.6338 120.907588 
L 171.1962 121.139913 
L 173.1492 121.662531 
L 175.4928 122.528544 
L 179.7894 124.403464 
L 186.8202 127.687291 
L 194.6322 131.448167 
L 196.9758 132.278236 
L 199.3194 132.84959 
L 201.2724 133.115541 
L 203.2254 133.189988 
L 205.1784 133.073317 
L 207.1314 132.765501 
L 209.475 132.154604 
L 212.2092 131.181325 
L 217.287 129.311704 
L 219.6306 128.731398 
L 221.9742 128.411799 
L 224.3178 128.352469 
L 226.2708 128.504819 
L 228.2238 128.858387 
L 230.1768 129.439943 
L 232.1298 130.270468 
L 234.0828 131.344516 
L 236.4264 132.88838 
L 250.8786 142.968551 
L 254.394 145.216971 
L 256.347 146.237053 
L 257.9094 146.839753 
L 259.4718 147.206403 
L 261.0342 147.323506 
L 262.5966 147.209275 
L 264.5496 146.806916 
L 266.8932 146.076349 
L 270.4086 144.736931 
L 273.924 143.187608 
L 276.6582 141.739776 
L 279.783 139.782648 
L 284.4702 136.793867 
L 286.8138 135.608895 
L 288.7668 134.855604 
L 290.7198 134.312345 
L 293.0634 133.911908 
L 295.407 133.754654 
L 297.7506 133.813983 
L 300.4848 134.121003 
L 303.6096 134.707816 
L 309.4686 136.099737 
L 321.9678 139.07741 
L 324.3114 139.343929 
L 326.2644 139.371364 
L 328.608 139.156916 
L 330.9516 138.714534 
L 334.467 137.785763 
L 340.326 135.952025 
L 347.3568 133.751049 
L 350.091 133.144955 
L 352.4346 132.832757 
L 354.7782 132.72338 
L 357.5124 132.838394 
L 360.2466 133.197047 
L 362.9808 133.790033 
L 365.715 134.602647 
L 369.2304 135.887655 
L 377.0424 138.81102 
L 382.5108 140.548688 
L 386.4168 141.619677 
L 388.7604 142.08111 
L 390.7134 142.28014 
L 392.6664 142.268641 
L 394.6194 142.046915 
L 397.3536 141.475528 
L 403.2126 140.134772 
L 405.5562 139.841329 
L 407.8998 139.770095 
L 410.2434 139.939523 
L 412.587 140.347543 
L 414.9306 140.976528 
L 417.6648 141.965683 
L 420.0084 143.036462 
L 422.352 144.351541 
L 424.305 145.678442 
L 426.258 147.256196 
L 428.211 149.111389 
L 430.5546 151.698519 
L 433.6794 155.588187 
L 437.5854 160.428642 
L 439.929 162.941824 
L 442.2726 165.124153 
L 447.3504 169.724801 
L 449.3034 171.8682 
L 451.2564 174.33065 
L 453.6 177.591238 
L 453.6 177.591238 
" style="fill:none;stroke:#8454ff;stroke-dasharray:7.4,3.2;stroke-dashoffset:0;stroke-width:2;"/>
   </g>
   <g id="patch_3">
    <path d="M 63 220.5 
L 63 30.24 
" style="fill:none;stroke:#000000;stroke-linecap:square;stroke-linejoin:miter;stroke-width:0.8;"/>
   </g>
   <g id="patch_4">
    <path d="M 453.6 220.5 
L 453.6 30.24 
" style="fill:none;stroke:#000000;stroke-linecap:square;stroke-linejoin:miter;stroke-width:0.8;"/>
   </g>
   <g id="patch_5">
    <path d="M 63 220.5 
L 453.6 220.5 
" style="fill:none;stroke:#000000;stroke-linecap:square;stroke-linejoin:miter;stroke-width:0.8;"/>
   </g>
   <g id="patch_6">
    <path d="M 63 30.24 
L 453.6 30.24 
" style="fill:none;stroke:#000000;stroke-linecap:square;stroke-linejoin:miter;stroke-width:0.8;"/>
   </g>
  </g>
 </g>
 <defs>
  <clipPath id="p9486bae820">
   <rect height="190.26" width="390.6" x="63" y="30.24"/>
  </clipPath>
 </defs>
</svg>
