<?xml version="1.0" encoding="utf-8" standalone="no"?>
<!DOCTYPE svg PUBLIC "-//W3C//DTD SVG 1.1//EN"
  "http://www.w3.org/Graphics/SVG/1.1/DTD/svg11.dtd">
<!-- Created with matplotlib (https://matplotlib.org/) -->
<svg height="252pt" version="1.1" viewBox="0 0 504 252" width="504pt" xmlns="http://www.w3.org/2000/svg" xmlns:xlink="http://www.w3.org/1999/xlink">
 <defs>
  <style type="text/css">
*{stroke-linecap:butt;stroke-linejoin:round;}
  </style>
 </defs>
 <g id="figure_1">
  <g id="patch_1">
   <path d="M 0 252 
L 504 252 
L 504 0 
L 0 0 
z
" style="fill:none;"/>
  </g>
  <g id="axes_1">
   <g id="patch_2">
    <path d="M 63 220.5 
L 453.6 220.5 
L 453.6 30.24 
L 63 30.24 
z
" style="fill:none;"/>
   </g>
   <g id="matplotlib.axis_1">
    <g id="xtick_1"/>
    <g id="xtick_2"/>
    <g id="xtick_3"/>
    <g id="xtick_4"/>
    <g id="xtick_5"/>
    <g id="xtick_6"/>
   </g>
   <g id="matplotlib.axis_2">
    <g id="ytick_1"/>
    <g id="ytick_2"/>
    <g id="ytick_3"/>
    <g id="ytick_4"/>
    <g id="ytick_5"/>
    <g id="ytick_6"/>
    <g id="ytick_7"/>
    <g id="ytick_8"/>
    <g id="ytick_9"/>
   </g>
   <g id="line2d_1">
    <path clip-path="url(#p3690316d9e)" d="M 63 165.71605 
L 64.5624 162.890906 
L 65.7342 161.204566 
L 66.5154 160.364223 
L 67.2966 159.787612 
L 68.0778 159.495389 
L 68.859 159.497427 
L 69.6402 159.792233 
L 70.4214 160.366894 
L 71.2026 161.197557 
L 72.3744 162.847235 
L 73.9368 165.561283 
L 77.0616 171.15096 
L 78.2334 172.775551 
L 79.4052 173.94194 
L 80.1864 174.431687 
L 80.9676 174.683757 
L 81.7488 174.704246 
L 82.53 174.509771 
L 83.3112 174.126431 
L 84.483 173.273626 
L 86.436 171.465377 
L 87.9984 170.074838 
L 89.1702 169.275251 
L 90.342 168.790172 
L 91.1232 168.666047 
L 91.9044 168.703507 
L 93.0762 169.037979 
L 94.248 169.635593 
L 97.7634 171.690885 
L 98.5446 171.902964 
L 99.3258 171.929089 
L 100.107 171.733837 
L 100.8882 171.290156 
L 101.6694 170.580829 
L 102.4506 169.599462 
L 103.6224 167.631219 
L 104.7942 165.128256 
L 106.3566 161.163911 
L 110.6532 149.704549 
L 111.825 147.26054 
L 112.9968 145.360662 
L 113.778 144.426648 
L 114.5592 143.763691 
L 115.3404 143.363532 
L 116.1216 143.207393 
L 116.9028 143.267095 
L 118.0746 143.680865 
L 119.637 144.60821 
L 121.9806 146.059287 
L 123.1524 146.521112 
L 124.3242 146.689935 
L 125.496 146.537909 
L 126.6678 146.090099 
L 128.2302 145.169048 
L 130.5738 143.711432 
L 131.7456 143.2801 
L 132.5268 143.204668 
L 133.308 143.342472 
L 134.0892 143.722378 
L 134.8704 144.363961 
L 135.6516 145.276347 
L 136.4328 146.457554 
L 137.6046 148.701492 
L 138.7764 151.428552 
L 140.7294 156.662084 
L 143.4636 164.040837 
L 144.6354 166.722159 
L 145.8072 168.907559 
L 146.979 170.512656 
L 147.7602 171.24356 
L 148.5414 171.707902 
L 149.3226 171.922068 
L 150.1038 171.912373 
L 150.885 171.713637 
L 152.0568 171.153192 
L 155.9628 168.913577 
L 157.1346 168.668479 
L 157.9158 168.698329 
L 158.697 168.890826 
L 159.8688 169.470787 
L 161.0406 170.343762 
L 163.3842 172.52228 
L 164.9466 173.830917 
L 166.1184 174.485762 
L 166.8996 174.69635 
L 167.6808 174.69372 
L 168.462 174.460459 
L 169.2432 173.989604 
L 170.0244 173.285226 
L 171.1962 171.826851 
L 172.368 169.974364 
L 174.7116 165.676393 
L 176.274 162.946058 
L 177.4458 161.273764 
L 178.227 160.424047 
L 179.0082 159.827987 
L 179.7894 159.510273 
L 180.5706 159.484715 
L 181.3518 159.753719 
L 182.133 160.308304 
L 182.9142 161.128639 
L 184.086 162.790289 
L 185.6484 165.595088 
L 189.945 173.809933 
L 191.1168 175.524465 
L 192.2886 176.868825 
L 193.4604 177.850197 
L 194.6322 178.527058 
L 196.1946 179.137104 
L 198.1476 179.891063 
L 199.3194 180.599997 
L 200.4912 181.658852 
L 201.663 183.157197 
L 202.8348 185.13724 
L 204.0066 187.587294 
L 205.569 191.463294 
L 210.6468 204.878854 
L 211.8186 207.129794 
L 212.5998 208.293306 
L 213.381 209.160101 
L 214.1622 209.719368 
L 214.9434 209.971794 
L 215.7246 209.929456 
L 216.5058 209.615185 
L 217.287 209.061433 
L 218.4588 207.872085 
L 220.0212 205.870981 
L 222.3648 202.804339 
L 223.5366 201.569309 
L 224.7084 200.672814 
L 225.4896 200.287225 
L 226.2708 200.072586 
L 227.4426 200.04491 
L 228.6144 200.29897 
L 232.5204 201.543393 
L 233.3016 201.548852 
L 234.0828 201.387453 
L 234.864 201.035652 
L 235.6452 200.479411 
L 236.4264 199.71512 
L 237.5982 198.197339 
L 238.77 196.299126 
L 240.723 192.624317 
L 243.0666 188.312029 
L 244.2384 186.604729 
L 245.0196 185.737754 
L 245.8008 185.127935 
L 246.582 184.798923 
L 247.3632 184.763531 
L 248.1444 185.02314 
L 248.9256 185.567632 
L 249.7068 186.375865 
L 250.8786 188.012106 
L 252.441 190.758822 
L 255.9564 197.30358 
L 257.1282 199.020551 
L 258.3 200.315646 
L 259.0812 200.921666 
L 259.8624 201.321411 
L 260.6436 201.526494 
L 261.4248 201.558296 
L 262.5966 201.348373 
L 264.5496 200.640034 
L 266.112 200.141267 
L 267.2838 200.017887 
L 268.065 200.112559 
L 268.8462 200.371213 
L 269.6274 200.801913 
L 270.7992 201.762 
L 271.971 203.047615 
L 273.924 205.617378 
L 275.877 208.104466 
L 277.0488 209.22698 
L 277.83 209.721815 
L 278.6112 209.967848 
L 279.3924 209.935006 
L 280.1736 209.603173 
L 280.9548 208.963207 
L 281.736 208.017435 
L 282.5172 206.779621 
L 283.689 204.431936 
L 285.2514 200.587386 
L 290.3292 187.129253 
L 291.501 184.75775 
L 292.6728 182.862274 
L 293.8446 181.444912 
L 295.0164 180.454585 
L 296.1882 179.794543 
L 298.1412 179.066941 
L 299.7036 178.427141 
L 300.8754 177.703524 
L 302.0472 176.661795 
L 303.219 175.252011 
L 304.3908 173.47628 
L 305.9532 170.641666 
L 309.8592 163.095419 
L 311.031 161.360857 
L 311.8122 160.48108 
L 312.5934 159.860817 
L 313.3746 159.522351 
L 314.1558 159.477326 
L 314.937 159.726076 
L 315.7182 160.25749 
L 316.4994 161.049401 
L 317.6712 162.652592 
L 319.2336 165.332041 
L 322.3584 170.955814 
L 323.5302 172.623208 
L 324.702 173.842173 
L 325.4832 174.369605 
L 326.2644 174.659402 
L 327.0456 174.715924 
L 327.8268 174.554168 
L 328.608 174.198811 
L 329.7798 173.376654 
L 331.7328 171.584163 
L 333.6858 169.869717 
L 334.8576 169.135023 
L 336.0294 168.729543 
L 336.8106 168.660947 
L 337.5918 168.7517 
L 338.7636 169.154276 
L 340.326 170.042883 
L 342.6696 171.469494 
L 343.8414 171.880619 
L 344.6226 171.938924 
L 345.4038 171.780977 
L 346.185 171.378284 
L 346.9662 170.711981 
L 347.7474 169.773906 
L 348.9192 167.867141 
L 350.091 165.416326 
L 351.6534 161.498502 
L 356.3406 149.106492 
L 357.5124 146.778297 
L 358.6842 145.01191 
L 359.4654 144.170498 
L 360.2466 143.598559 
L 361.0278 143.284155 
L 361.809 143.205155 
L 362.5902 143.330513 
L 363.762 143.816509 
L 365.3244 144.785198 
L 367.2774 145.995828 
L 368.4492 146.485013 
L 369.621 146.687185 
L 370.7928 146.56896 
L 371.9646 146.149813 
L 373.527 145.250485 
L 375.8706 143.774672 
L 377.0424 143.30946 
L 377.8236 143.203269 
L 378.6048 143.304959 
L 379.386 143.64474 
L 380.1672 144.243755 
L 380.9484 145.112852 
L 381.7296 146.251842 
L 382.9014 148.438326 
L 384.0732 151.119818 
L 386.0262 156.315124 
L 388.7604 163.73209 
L 390.3228 167.265979 
L 391.4946 169.325063 
L 392.2758 170.371117 
L 393.057 171.145275 
L 393.8382 171.651246 
L 394.6194 171.903736 
L 395.4006 171.927564 
L 396.1818 171.756306 
L 397.3536 171.223806 
L 401.6502 168.829518 
L 402.822 168.660509 
L 403.6032 168.745683 
L 404.3844 168.992986 
L 405.5562 169.646454 
L 406.728 170.572932 
L 410.634 174.010524 
L 411.8058 174.57998 
L 412.587 174.720484 
L 413.3682 174.640719 
L 414.1494 174.326736 
L 414.9306 173.775295 
L 415.7118 172.994259 
L 416.8836 171.436266 
L 418.446 168.814289 
L 421.9614 162.530307 
L 423.1332 160.957701 
L 423.9144 160.191002 
L 424.6956 159.687541 
L 425.4768 159.46839 
L 426.258 159.543506 
L 427.0392 159.911387 
L 427.8204 160.559268 
L 428.6016 161.463837 
L 429.7734 163.22841 
L 431.3358 166.115911 
L 434.8512 172.949268 
L 436.023 174.814994 
L 437.1948 176.324332 
L 438.3666 177.460955 
L 439.5384 178.261415 
L 440.7102 178.809922 
L 443.835 180.027444 
L 445.0068 180.805926 
L 446.1786 181.958299 
L 447.3504 183.564231 
L 448.5222 185.654058 
L 449.694 188.203535 
L 451.2564 192.175711 
L 453.6 198.68665 
L 453.6 198.68665 
" style="fill:none;stroke:#8cbfb9;stroke-linecap:square;stroke-width:4;"/>
   </g>
   <g id="line2d_2">
    <path clip-path="url(#p3690316d9e)" d="M 63 166.138016 
L 63.3906 164.895739 
L 64.953 162.208904 
L 66.1248 160.686107 
L 66.906 159.971173 
L 67.6872 159.551585 
L 68.0778 159.41371 
L 68.859 159.427663 
L 69.6402 159.733395 
L 70.4214 160.284671 
L 71.5932 161.6186 
L 72.765 163.406155 
L 74.718 166.949481 
L 76.671 170.465887 
L 77.8428 172.225576 
L 78.624 173.175052 
L 79.7958 174.171291 
L 80.577 174.53978 
L 81.3582 174.668628 
L 82.1394 174.572843 
L 82.9206 174.276952 
L 84.0924 173.523868 
L 85.6548 172.149742 
L 87.9984 170.014831 
L 89.1702 169.215662 
L 90.342 168.728069 
L 91.5138 168.599249 
L 92.6856 168.827132 
L 93.8574 169.350025 
L 95.8104 170.521765 
L 96.9822 171.182872 
L 98.154 171.613073 
L 99.3258 171.702133 
L 100.107 171.526016 
L 100.8882 171.144849 
L 101.6694 170.494788 
L 102.4506 169.531531 
L 103.2318 168.293172 
L 104.4036 165.962278 
L 105.5754 163.164807 
L 107.5284 157.871376 
L 110.2626 150.572115 
L 111.4344 147.973173 
L 112.6062 145.888219 
L 113.3874 144.812931 
L 114.1686 144.028483 
L 114.9498 143.49536 
L 115.731 143.227044 
L 116.5122 143.179636 
L 117.2934 143.334082 
L 118.4652 143.846152 
L 120.0276 144.807124 
L 121.9806 145.982761 
L 123.1524 146.436682 
L 124.3242 146.602281 
L 125.496 146.450122 
L 126.6678 146.005134 
L 128.6208 144.843687 
L 130.1832 143.851327 
L 131.355 143.326656 
L 132.1362 143.151025 
L 132.9174 143.186793 
L 133.6986 143.411362 
L 134.4798 143.941208 
L 135.261 144.685281 
L 136.4328 146.357371 
L 137.6046 148.619764 
L 139.167 152.447769 
L 143.8542 164.930341 
L 145.026 167.44965 
L 146.1978 169.449878 
L 146.979 170.454622 
L 147.7602 171.196569 
L 148.5414 171.669163 
L 149.3226 171.899396 
L 150.1038 171.902291 
L 150.885 171.714296 
L 152.0568 171.163358 
L 155.9628 168.898561 
L 156.744 168.685687 
L 157.9158 168.658325 
L 159.0876 169.000527 
L 160.2594 169.686635 
L 161.4312 170.631277 
L 165.3372 174.036375 
L 166.1184 174.435323 
L 166.8996 174.646031 
L 167.6808 174.64515 
L 168.462 174.409394 
L 169.2432 173.936765 
L 170.0244 173.233098 
L 171.1962 171.775456 
L 172.368 169.924236 
L 174.7116 165.638301 
L 176.274 162.92382 
L 177.4458 161.260268 
L 178.227 160.405492 
L 179.0082 159.815242 
L 179.7894 159.49447 
L 180.5706 159.46562 
L 181.3518 159.72793 
L 182.133 160.278112 
L 182.9142 161.088017 
L 184.086 162.741164 
L 185.6484 165.544044 
L 189.945 173.815623 
L 191.1168 175.502132 
L 192.2886 176.81681 
L 193.4604 177.778931 
L 194.6322 178.447923 
L 196.1946 179.063635 
L 198.1476 179.826905 
L 199.3194 180.544191 
L 200.4912 181.612437 
L 201.663 183.120025 
L 202.8348 185.104549 
L 204.0066 187.562484 
L 205.569 191.444274 
L 210.6468 204.836359 
L 211.8186 207.08015 
L 212.5998 208.241193 
L 213.381 209.105261 
L 214.1622 209.663681 
L 214.9434 209.920522 
L 215.7246 209.881456 
L 216.5058 209.569595 
L 217.287 209.018644 
L 218.4588 207.829021 
L 220.0212 205.81469 
L 222.3648 202.75382 
L 223.5366 201.535012 
L 224.7084 200.653268 
L 225.8802 200.14691 
L 226.6614 200.013253 
L 227.8332 200.083255 
L 229.005 200.39722 
L 232.1298 201.438667 
L 233.3016 201.495905 
L 234.0828 201.333473 
L 234.864 200.982436 
L 235.6452 200.427449 
L 236.4264 199.666529 
L 237.5982 198.15365 
L 238.77 196.262927 
L 240.723 192.595162 
L 242.676 188.934261 
L 243.8478 187.087173 
L 245.0196 185.697363 
L 245.8008 185.086079 
L 246.582 184.755187 
L 247.3632 184.718322 
L 248.1444 184.980943 
L 248.9256 185.516789 
L 249.7068 186.331188 
L 250.8786 187.969408 
L 252.0504 189.987225 
L 256.7376 198.415395 
L 257.9094 199.842832 
L 259.0812 200.824287 
L 260.253 201.358905 
L 261.4248 201.506776 
L 262.5966 201.345896 
L 264.159 200.777689 
L 266.112 200.111182 
L 267.2838 199.983529 
L 268.065 200.078668 
L 268.8462 200.338049 
L 269.6274 200.773022 
L 270.7992 201.738188 
L 271.971 203.02944 
L 273.924 205.607356 
L 275.877 208.09497 
L 277.0488 209.209005 
L 277.83 209.697977 
L 278.6112 209.935893 
L 279.3924 209.894133 
L 280.1736 209.555483 
L 280.9548 208.911552 
L 281.736 207.963029 
L 282.5172 206.723289 
L 283.689 204.375785 
L 285.2514 200.538132 
L 290.3292 187.108044 
L 291.501 184.737947 
L 292.6728 182.840044 
L 293.8446 181.418625 
L 295.0164 180.424574 
L 296.1882 179.762151 
L 298.1412 179.032027 
L 299.7036 178.394687 
L 300.8754 177.670005 
L 302.0472 176.623622 
L 303.219 175.208202 
L 304.3908 173.426617 
L 305.9532 170.58921 
L 309.8592 163.069726 
L 311.031 161.369471 
L 311.8122 160.510392 
L 312.5934 159.894656 
L 313.3746 159.532464 
L 314.1558 159.455753 
L 314.937 159.69956 
L 315.7182 160.203922 
L 316.4994 160.991488 
L 317.6712 162.582852 
L 319.2336 165.25665 
L 322.3584 170.879871 
L 323.5302 172.551906 
L 324.702 173.776152 
L 325.4832 174.309208 
L 326.2644 174.605742 
L 327.0456 174.670912 
L 327.8268 174.514112 
L 328.608 174.163337 
L 329.7798 173.34721 
L 331.7328 171.558917 
L 333.6858 169.837572 
L 334.8576 169.098717 
L 336.0294 168.686688 
L 337.2012 168.639358 
L 338.373 168.939599 
L 339.5448 169.515728 
L 343.0602 171.554973 
L 344.232 171.844078 
L 345.0132 171.806677 
L 345.7944 171.537288 
L 346.5756 171.015499 
L 347.3568 170.223115 
L 348.138 169.162038 
L 349.3098 167.063162 
L 350.4816 164.450212 
L 352.044 160.389303 
L 355.95 149.947477 
L 357.1218 147.452813 
L 358.2936 145.494572 
L 359.0748 144.520612 
L 359.856 143.816529 
L 360.6372 143.380888 
L 361.4184 143.185869 
L 362.1996 143.215666 
L 362.9808 143.426572 
L 364.1526 143.996106 
L 368.0586 146.267613 
L 369.2304 146.567506 
L 370.4022 146.554527 
L 371.574 146.23338 
L 372.7458 145.656621 
L 376.6518 143.369449 
L 377.433 143.169741 
L 378.2142 143.155464 
L 378.9954 143.36798 
L 379.7766 143.833097 
L 380.5578 144.547626 
L 381.7296 146.156943 
L 382.9014 148.371441 
L 384.0732 151.092562 
L 386.4168 157.39511 
L 388.7604 163.684822 
L 390.3228 167.206599 
L 391.4946 169.25955 
L 392.2758 170.306737 
L 393.057 171.088543 
L 393.8382 171.59795 
L 394.6194 171.850595 
L 395.4006 171.890649 
L 396.5724 171.586545 
L 397.7442 170.983202 
L 401.2596 168.936824 
L 402.4314 168.645836 
L 403.6032 168.702768 
L 404.3844 168.951614 
L 405.5562 169.598071 
L 406.728 170.515935 
L 410.634 173.947688 
L 411.4152 174.376054 
L 412.1964 174.620295 
L 412.9776 174.654465 
L 413.7588 174.464787 
L 414.54 174.028414 
L 415.3212 173.355522 
L 416.493 171.95028 
L 417.6648 170.140114 
L 422.352 161.9596 
L 423.5238 160.551612 
L 424.305 159.909682 
L 425.0862 159.534087 
L 425.8674 159.450097 
L 426.6486 159.667739 
L 427.4298 160.153219 
L 428.6016 161.407927 
L 429.7734 163.171831 
L 431.3358 166.069568 
L 435.2418 173.598317 
L 436.4136 175.306221 
L 437.5854 176.670672 
L 438.7572 177.682971 
L 440.3196 178.562619 
L 444.6162 180.471261 
L 445.788 181.502893 
L 446.9598 182.96153 
L 448.1316 184.895122 
L 449.3034 187.297551 
L 450.8658 191.120517 
L 453.6 198.635785 
L 453.6 198.635785 
" style="fill:none;stroke:#000000;stroke-dasharray:7.4,3.2;stroke-dashoffset:0;stroke-width:2;"/>
    <defs>
     <path d="M -2.5 2.5 
L 2.5 2.5 
L 2.5 -2.5 
L -2.5 -2.5 
z
" id="m9fd9a58538" style="stroke:#000000;stroke-linejoin:miter;"/>
    </defs>
    <g clip-path="url(#p3690316d9e)">
     <use style="fill:#ffffff;stroke:#000000;stroke-linejoin:miter;" x="63" xlink:href="#m9fd9a58538" y="166.138016"/>
     <use style="fill:#ffffff;stroke:#000000;stroke-linejoin:miter;" x="82.53" xlink:href="#m9fd9a58538" y="174.454997"/>
     <use style="fill:#ffffff;stroke:#000000;stroke-linejoin:miter;" x="102.06" xlink:href="#m9fd9a58538" y="170.044462"/>
     <use style="fill:#ffffff;stroke:#000000;stroke-linejoin:miter;" x="121.59" xlink:href="#m9fd9a58538" y="145.777134"/>
     <use style="fill:#ffffff;stroke:#000000;stroke-linejoin:miter;" x="141.12" xlink:href="#m9fd9a58538" y="157.777769"/>
     <use style="fill:#ffffff;stroke:#000000;stroke-linejoin:miter;" x="160.65" xlink:href="#m9fd9a58538" y="169.97079"/>
     <use style="fill:#ffffff;stroke:#000000;stroke-linejoin:miter;" x="180.18" xlink:href="#m9fd9a58538" y="159.44205"/>
     <use style="fill:#ffffff;stroke:#000000;stroke-linejoin:miter;" x="199.71" xlink:href="#m9fd9a58538" y="180.855888"/>
     <use style="fill:#ffffff;stroke:#000000;stroke-linejoin:miter;" x="219.24" xlink:href="#m9fd9a58538" y="206.861017"/>
     <use style="fill:#ffffff;stroke:#000000;stroke-linejoin:miter;" x="238.77" xlink:href="#m9fd9a58538" y="196.262927"/>
     <use style="fill:#ffffff;stroke:#000000;stroke-linejoin:miter;" x="258.3" xlink:href="#m9fd9a58538" y="200.21561"/>
     <use style="fill:#ffffff;stroke:#000000;stroke-linejoin:miter;" x="277.83" xlink:href="#m9fd9a58538" y="209.697977"/>
     <use style="fill:#ffffff;stroke:#000000;stroke-linejoin:miter;" x="297.36" xlink:href="#m9fd9a58538" y="179.30225"/>
     <use style="fill:#ffffff;stroke:#000000;stroke-linejoin:miter;" x="316.89" xlink:href="#m9fd9a58538" y="161.467907"/>
     <use style="fill:#ffffff;stroke:#000000;stroke-linejoin:miter;" x="336.42" xlink:href="#m9fd9a58538" y="168.636745"/>
     <use style="fill:#ffffff;stroke:#000000;stroke-linejoin:miter;" x="355.95" xlink:href="#m9fd9a58538" y="149.947477"/>
     <use style="fill:#ffffff;stroke:#000000;stroke-linejoin:miter;" x="375.48" xlink:href="#m9fd9a58538" y="143.925905"/>
     <use style="fill:#ffffff;stroke:#000000;stroke-linejoin:miter;" x="395.01" xlink:href="#m9fd9a58538" y="171.901586"/>
     <use style="fill:#ffffff;stroke:#000000;stroke-linejoin:miter;" x="414.54" xlink:href="#m9fd9a58538" y="174.028414"/>
     <use style="fill:#ffffff;stroke:#000000;stroke-linejoin:miter;" x="434.07" xlink:href="#m9fd9a58538" y="171.533668"/>
     <use style="fill:#ffffff;stroke:#000000;stroke-linejoin:miter;" x="453.6" xlink:href="#m9fd9a58538" y="198.635785"/>
    </g>
   </g>
   <g id="line2d_3">
    <path clip-path="url(#p3690316d9e)" d="M 63 45.766348 
L 64.5624 43.933988 
L 65.7342 42.838975 
L 66.906 41.981148 
L 68.0778 41.353547 
L 69.2496 40.944869 
L 70.4214 40.739824 
L 71.5932 40.719587 
L 73.1556 40.941958 
L 74.718 41.395534 
L 76.671 42.191112 
L 83.7018 45.324712 
L 85.6548 45.827504 
L 87.2172 46.027986 
L 88.7796 46.037689 
L 90.342 45.860491 
L 92.295 45.403768 
L 94.6386 44.595473 
L 100.4976 42.418577 
L 102.06 42.105273 
L 103.6224 42.026391 
L 104.7942 42.155922 
L 105.966 42.471269 
L 107.1378 42.990807 
L 108.3096 43.72932 
L 109.4814 44.697564 
L 110.6532 45.901919 
L 112.2156 47.877351 
L 113.778 50.26602 
L 115.3404 53.043683 
L 117.2934 57.002195 
L 119.637 62.322705 
L 123.1524 70.967313 
L 127.0584 80.474677 
L 129.402 85.595084 
L 131.355 89.295067 
L 132.9174 91.795567 
L 134.4798 93.835907 
L 135.6516 95.044279 
L 136.8234 95.967736 
L 137.9952 96.60379 
L 139.167 96.955199 
L 140.3388 97.029886 
L 141.5106 96.840763 
L 142.6824 96.405442 
L 143.8542 95.745853 
L 145.4166 94.562567 
L 146.979 93.096673 
L 149.3226 90.539126 
L 154.791 84.34789 
L 156.744 82.546513 
L 158.3064 81.402217 
L 159.8688 80.572611 
L 161.0406 80.176915 
L 162.2124 79.984926 
L 163.3842 80.000067 
L 164.556 80.220983 
L 165.7278 80.641662 
L 167.2902 81.494635 
L 168.8526 82.647682 
L 170.8056 84.438149 
L 173.1492 86.949539 
L 179.7894 94.35659 
L 181.7424 96.121303 
L 183.3048 97.278927 
L 184.8672 98.179202 
L 186.4296 98.806924 
L 187.992 99.160557 
L 189.5544 99.25226 
L 191.1168 99.107326 
L 193.0698 98.651233 
L 195.4134 97.82906 
L 200.1006 96.068612 
L 202.0536 95.615983 
L 203.616 95.490718 
L 205.1784 95.629271 
L 206.3502 95.929724 
L 207.522 96.411882 
L 208.6938 97.083031 
L 210.2562 98.27591 
L 211.8186 99.80243 
L 213.381 101.640906 
L 215.334 104.321095 
L 217.6776 107.961363 
L 224.7084 119.286986 
L 226.6614 121.824967 
L 228.2238 123.461999 
L 229.3956 124.415659 
L 230.5674 125.107292 
L 231.7392 125.516984 
L 232.911 125.629384 
L 234.0828 125.434043 
L 235.2546 124.925633 
L 236.4264 124.104074 
L 237.5982 122.974546 
L 238.77 121.547387 
L 240.3324 119.208631 
L 241.8948 116.417373 
L 243.8478 112.387108 
L 246.1914 106.94897 
L 250.0974 97.161046 
L 253.6128 88.531697 
L 255.9564 83.324508 
L 257.9094 79.489345 
L 259.8624 76.194874 
L 261.4248 73.976549 
L 262.9872 72.133795 
L 264.5496 70.655232 
L 266.112 69.51566 
L 267.6744 68.677546 
L 269.2368 68.092985 
L 271.1898 67.633093 
L 273.924 67.277405 
L 277.4394 66.819056 
L 279.3924 66.346668 
L 280.9548 65.781075 
L 282.5172 65.015931 
L 284.0796 64.034405 
L 286.0326 62.499362 
L 287.9856 60.645267 
L 290.3292 58.078974 
L 294.6258 52.914694 
L 297.36 49.797672 
L 299.313 47.889923 
L 300.8754 46.649991 
L 302.4378 45.724904 
L 303.6096 45.265779 
L 304.7814 45.025098 
L 305.9532 45.014034 
L 307.125 45.23935 
L 308.2968 45.703162 
L 309.4686 46.402794 
L 310.6404 47.330752 
L 312.2028 48.901387 
L 313.7652 50.814152 
L 315.7182 53.601936 
L 318.4524 58.004919 
L 323.5302 66.363835 
L 325.4832 69.151208 
L 327.0456 71.050769 
L 328.608 72.58777 
L 329.7798 73.471549 
L 330.9516 74.106288 
L 332.1234 74.480549 
L 333.2952 74.587957 
L 334.467 74.427333 
L 335.6388 74.002721 
L 336.8106 73.323299 
L 337.9824 72.403188 
L 339.5448 70.835014 
L 341.1072 68.928787 
L 343.0602 66.174 
L 346.185 61.267024 
L 350.091 55.174414 
L 352.044 52.510334 
L 353.6064 50.688541 
L 355.1688 49.202561 
L 356.3406 48.334462 
L 357.5124 47.692009 
L 358.6842 47.283107 
L 359.856 47.110841 
L 361.0278 47.173505 
L 362.1996 47.464724 
L 363.3714 47.973687 
L 364.5432 48.685477 
L 366.1056 49.91741 
L 367.668 51.423811 
L 369.621 53.600407 
L 373.1364 57.950268 
L 376.6518 62.223517 
L 378.9954 64.715355 
L 380.9484 66.461003 
L 382.9014 67.863185 
L 384.4638 68.732788 
L 386.0262 69.390845 
L 387.9792 69.955835 
L 390.3228 70.358717 
L 395.7912 71.129231 
L 397.3536 71.58531 
L 398.916 72.258355 
L 400.4784 73.201214 
L 402.0408 74.457682 
L 403.6032 76.060303 
L 405.1656 78.028604 
L 406.728 80.367831 
L 408.2904 83.068258 
L 410.2434 86.912539 
L 412.587 92.102858 
L 415.7118 99.665517 
L 420.7896 112.017462 
L 423.1332 117.058746 
L 425.0862 120.662817 
L 426.6486 123.059899 
L 427.8204 124.538157 
L 428.9922 125.722889 
L 430.164 126.601647 
L 431.3358 127.167065 
L 432.5076 127.417009 
L 433.6794 127.354611 
L 434.8512 126.988198 
L 436.023 126.331105 
L 437.1948 125.40139 
L 438.3666 124.221451 
L 439.929 122.304838 
L 441.882 119.458807 
L 444.2256 115.589863 
L 450.8658 104.326763 
L 452.8188 101.538084 
L 453.6 100.54168 
L 453.6 100.54168 
" style="fill:none;stroke:#da888e;stroke-linecap:square;stroke-width:4;"/>
   </g>
   <g id="line2d_4">
    <path clip-path="url(#p3690316d9e)" d="M 63 43.533848 
L 63.067738 -1 
M 64.028831 -1 
L 64.1718 12.877316 
L 64.5624 26.120477 
L 64.953 31.673277 
L 65.3436 35.185896 
L 66.1248 38.193532 
L 66.5154 38.979301 
L 66.906 38.925896 
L 67.2966 39.906279 
L 67.6872 39.858658 
L 68.0778 39.602032 
L 68.4684 40.278506 
L 69.2496 39.944479 
L 69.6402 40.353842 
L 70.0308 40.205947 
L 70.4214 40.19515 
L 70.812 40.445032 
L 71.5932 40.453581 
L 71.9838 40.632563 
L 72.765 40.774536 
L 78.2334 43.009556 
L 81.7488 44.560615 
L 84.0924 45.390511 
L 86.0454 45.832998 
L 87.9984 46.004817 
L 90.342 45.813177 
L 92.295 45.358411 
L 94.6386 44.553347 
L 96.9822 43.54134 
L 99.3258 42.56892 
L 100.4976 42.297515 
L 101.6694 42.130774 
L 102.8412 42.036954 
L 103.6224 42.01228 
L 105.1848 42.208143 
L 106.7472 42.755203 
L 107.919 43.414499 
L 109.0908 44.302217 
L 110.2626 45.427367 
L 111.825 47.29868 
L 113.3874 49.598762 
L 115.3404 53.042451 
L 116.9028 56.1761 
L 119.2464 61.438977 
L 122.3712 69.07966 
L 127.449 81.408281 
L 129.402 85.629078 
L 131.355 89.318346 
L 132.9174 91.81102 
L 134.0892 93.401028 
L 135.6516 95.071755 
L 136.8234 95.996961 
L 137.9952 96.613138 
L 139.167 96.929156 
L 140.3388 96.995691 
L 141.5106 96.828904 
L 142.6824 96.410006 
L 143.8542 95.756411 
L 145.4166 94.573127 
L 146.979 93.105627 
L 149.3226 90.543524 
L 154.791 84.352395 
L 156.744 82.543533 
L 158.3064 81.39436 
L 159.8688 80.559687 
L 161.0406 80.162793 
L 162.2124 79.971552 
L 163.3842 79.986273 
L 164.556 80.211276 
L 165.7278 80.63794 
L 166.8996 81.253917 
L 168.462 82.344024 
L 170.415 84.070044 
L 172.7586 86.53654 
L 179.7894 94.371071 
L 181.7424 96.126787 
L 183.6954 97.535242 
L 185.2578 98.370269 
L 186.8202 98.919878 
L 187.992 99.147663 
L 189.5544 99.225185 
L 191.5074 99.047671 
L 193.4604 98.558218 
L 195.804 97.712682 
L 200.1006 96.098423 
L 202.0536 95.634953 
L 203.616 95.498496 
L 205.1784 95.623041 
L 206.7408 96.048859 
L 208.3032 96.808419 
L 209.475 97.599211 
L 211.0374 98.957079 
L 212.5998 100.645172 
L 214.5528 103.174384 
L 216.8964 106.696237 
L 220.8024 113.135625 
L 223.9272 118.151032 
L 225.8802 120.875153 
L 227.4426 122.692997 
L 228.6144 123.80311 
L 229.7862 124.66509 
L 230.958 125.26066 
L 232.1298 125.572444 
L 233.3016 125.582305 
L 234.4734 125.284137 
L 235.6452 124.673762 
L 236.817 123.75025 
L 237.9888 122.524341 
L 239.1606 121.008557 
L 240.723 118.557848 
L 242.2854 115.674373 
L 244.2384 111.549058 
L 246.582 106.032301 
L 255.5658 84.177879 
L 257.9094 79.543527 
L 259.8624 76.253144 
L 261.8154 73.479509 
L 262.9872 72.100377 
L 264.159 70.982703 
L 265.7214 69.803535 
L 267.2838 68.917967 
L 268.8462 68.288611 
L 270.7992 67.799004 
L 273.1428 67.452682 
L 277.0488 66.915449 
L 279.3924 66.320944 
L 281.3454 65.565146 
L 283.2984 64.505681 
L 284.8608 63.420273 
L 286.8138 61.768525 
L 289.1574 59.389869 
L 291.501 56.694629 
L 297.36 49.806191 
L 299.313 47.895751 
L 300.8754 46.648755 
L 302.4378 45.717929 
L 303.6096 45.255566 
L 304.7814 45.013397 
L 305.9532 45.002971 
L 307.125 45.231765 
L 308.2968 45.698627 
L 309.4686 46.398005 
L 310.6404 47.319989 
L 312.2028 48.882773 
L 313.7652 50.817983 
L 316.1088 54.239355 
L 319.2336 59.376807 
L 323.1396 65.818428 
L 325.0926 68.659993 
L 326.655 70.616511 
L 328.2174 72.211616 
L 329.3892 73.144878 
L 330.561 73.832285 
L 331.7328 74.273337 
L 332.9046 74.457446 
L 334.0764 74.387147 
L 335.2482 74.06119 
L 336.42 73.480117 
L 337.5918 72.651716 
L 338.7636 71.593758 
L 339.9354 70.331866 
L 341.4978 68.352474 
L 343.4508 65.518765 
L 346.9662 60.012467 
L 350.091 55.165132 
L 352.044 52.485147 
L 353.6064 50.65471 
L 355.1688 49.165526 
L 356.3406 48.299029 
L 357.5124 47.660128 
L 358.6842 47.256943 
L 359.856 47.088241 
L 361.0278 47.158727 
L 362.1996 47.458793 
L 363.3714 47.977629 
L 364.9338 48.983439 
L 366.4962 50.297519 
L 368.4492 52.303527 
L 370.7928 55.061711 
L 377.433 63.135093 
L 379.7766 65.511368 
L 381.339 66.844724 
L 382.9014 67.911966 
L 384.4638 68.694633 
L 386.8074 69.61832 
L 388.7604 70.146197 
L 391.8852 70.628039 
L 395.01 71.076932 
L 396.963 71.549229 
L 398.5254 72.134736 
L 400.0878 72.96345 
L 401.6502 74.102631 
L 403.2126 75.603936 
L 404.775 77.467818 
L 406.3374 79.718376 
L 408.2904 83.057371 
L 410.2434 86.920469 
L 412.1964 91.216677 
L 415.3212 98.719295 
L 421.1802 112.866271 
L 423.5238 117.72548 
L 425.4768 121.251594 
L 426.6486 123.077577 
L 427.8204 124.648046 
L 429.3828 126.235245 
L 430.164 126.908438 
L 432.117 127.725241 
L 432.8982 127.744629 
L 433.6794 127.663023 
L 434.8512 127.206952 
L 436.023 126.606009 
L 436.4136 126.430135 
L 436.8042 126.066326 
L 437.1948 125.959268 
L 437.976 125.266026 
L 438.3666 125.00821 
L 438.7572 124.473481 
L 439.1478 124.277194 
L 439.5384 123.708633 
L 440.3196 122.856462 
L 442.6632 119.639867 
L 445.3974 114.993221 
L 446.1786 113.464929 
L 451.2564 102.64872 
L 452.0376 100.856185 
L 452.4282 99.585547 
L 452.8188 97.905844 
L 453.2094 101.337538 
L 453.6 96.643884 
L 453.6 96.643884 
" style="fill:none;stroke:#000000;stroke-dasharray:7.4,3.2;stroke-dashoffset:0;stroke-width:2;"/>
    <defs>
     <path d="M 0 -2.5 
L -2.165064 -1.25 
L -2.165064 1.25 
L -0 2.5 
L 2.165064 1.25 
L 2.165064 -1.25 
z
" id="m530421a2d1" style="stroke:#000000;stroke-linejoin:miter;"/>
    </defs>
    <g clip-path="url(#p3690316d9e)">
     <use style="fill:#ffffff;stroke:#000000;stroke-linejoin:miter;" x="63" xlink:href="#m530421a2d1" y="43.533848"/>
     <use style="fill:#ffffff;stroke:#000000;stroke-linejoin:miter;" x="82.53" xlink:href="#m530421a2d1" y="44.868636"/>
     <use style="fill:#ffffff;stroke:#000000;stroke-linejoin:miter;" x="102.06" xlink:href="#m530421a2d1" y="42.06394"/>
     <use style="fill:#ffffff;stroke:#000000;stroke-linejoin:miter;" x="121.59" xlink:href="#m530421a2d1" y="67.128673"/>
     <use style="fill:#ffffff;stroke:#000000;stroke-linejoin:miter;" x="141.12" xlink:href="#m530421a2d1" y="96.918778"/>
     <use style="fill:#ffffff;stroke:#000000;stroke-linejoin:miter;" x="160.65" xlink:href="#m530421a2d1" y="80.273634"/>
     <use style="fill:#ffffff;stroke:#000000;stroke-linejoin:miter;" x="180.18" xlink:href="#m530421a2d1" y="94.746164"/>
     <use style="fill:#ffffff;stroke:#000000;stroke-linejoin:miter;" x="199.71" xlink:href="#m530421a2d1" y="96.220932"/>
     <use style="fill:#ffffff;stroke:#000000;stroke-linejoin:miter;" x="219.24" xlink:href="#m530421a2d1" y="110.531266"/>
     <use style="fill:#ffffff;stroke:#000000;stroke-linejoin:miter;" x="238.77" xlink:href="#m530421a2d1" y="121.544315"/>
     <use style="fill:#ffffff;stroke:#000000;stroke-linejoin:miter;" x="258.3" xlink:href="#m530421a2d1" y="78.848349"/>
     <use style="fill:#ffffff;stroke:#000000;stroke-linejoin:miter;" x="277.83" xlink:href="#m530421a2d1" y="66.749658"/>
     <use style="fill:#ffffff;stroke:#000000;stroke-linejoin:miter;" x="297.36" xlink:href="#m530421a2d1" y="49.806191"/>
     <use style="fill:#ffffff;stroke:#000000;stroke-linejoin:miter;" x="316.89" xlink:href="#m530421a2d1" y="55.487118"/>
     <use style="fill:#ffffff;stroke:#000000;stroke-linejoin:miter;" x="336.42" xlink:href="#m530421a2d1" y="73.480117"/>
     <use style="fill:#ffffff;stroke:#000000;stroke-linejoin:miter;" x="355.95" xlink:href="#m530421a2d1" y="48.561415"/>
     <use style="fill:#ffffff;stroke:#000000;stroke-linejoin:miter;" x="375.48" xlink:href="#m530421a2d1" y="60.88563"/>
     <use style="fill:#ffffff;stroke:#000000;stroke-linejoin:miter;" x="395.01" xlink:href="#m530421a2d1" y="71.076932"/>
     <use style="fill:#ffffff;stroke:#000000;stroke-linejoin:miter;" x="414.54" xlink:href="#m530421a2d1" y="96.789784"/>
     <use style="fill:#ffffff;stroke:#000000;stroke-linejoin:miter;" x="434.07" xlink:href="#m530421a2d1" y="127.540659"/>
     <use style="fill:#ffffff;stroke:#000000;stroke-linejoin:miter;" x="453.6" xlink:href="#m530421a2d1" y="96.643884"/>
    </g>
   </g>
   <g id="patch_3">
    <path d="M 63 220.5 
L 63 30.24 
" style="fill:none;stroke:#000000;stroke-linecap:square;stroke-linejoin:miter;stroke-width:0.8;"/>
   </g>
   <g id="patch_4">
    <path d="M 453.6 220.5 
L 453.6 30.24 
" style="fill:none;stroke:#000000;stroke-linecap:square;stroke-linejoin:miter;stroke-width:0.8;"/>
   </g>
   <g id="patch_5">
    <path d="M 63 220.5 
L 453.6 220.5 
" style="fill:none;stroke:#000000;stroke-linecap:square;stroke-linejoin:miter;stroke-width:0.8;"/>
   </g>
   <g id="patch_6">
    <path d="M 63 30.24 
L 453.6 30.24 
" style="fill:none;stroke:#000000;stroke-linecap:square;stroke-linejoin:miter;stroke-width:0.8;"/>
   </g>
  </g>
 </g>
 <defs>
  <clipPath id="p3690316d9e">
   <rect height="190.26" width="390.6" x="63" y="30.24"/>
  </clipPath>
 </defs>
</svg>
