<?xml version="1.0" encoding="utf-8" standalone="no"?>
<!DOCTYPE svg PUBLIC "-//W3C//DTD SVG 1.1//EN"
  "http://www.w3.org/Graphics/SVG/1.1/DTD/svg11.dtd">
<!-- Created with matplotlib (https://matplotlib.org/) -->
<svg height="252pt" version="1.1" viewBox="0 0 504 252" width="504pt" xmlns="http://www.w3.org/2000/svg" xmlns:xlink="http://www.w3.org/1999/xlink">
 <defs>
  <style type="text/css">
*{stroke-linecap:butt;stroke-linejoin:round;}
  </style>
 </defs>
 <g id="figure_1">
  <g id="patch_1">
   <path d="M 0 252 
L 504 252 
L 504 0 
L 0 0 
z
" style="fill:none;"/>
  </g>
  <g id="axes_1">
   <g id="patch_2">
    <path d="M 63 220.5 
L 453.6 220.5 
L 453.6 30.24 
L 63 30.24 
z
" style="fill:none;"/>
   </g>
   <g id="matplotlib.axis_1">
    <g id="xtick_1"/>
    <g id="xtick_2"/>
    <g id="xtick_3"/>
    <g id="xtick_4"/>
    <g id="xtick_5"/>
    <g id="xtick_6"/>
   </g>
   <g id="matplotlib.axis_2">
    <g id="ytick_1"/>
    <g id="ytick_2"/>
    <g id="ytick_3"/>
    <g id="ytick_4"/>
    <g id="ytick_5"/>
    <g id="ytick_6"/>
    <g id="ytick_7"/>
    <g id="ytick_8"/>
    <g id="ytick_9"/>
   </g>
   <g id="line2d_1">
    <path clip-path="url(#p7c909a73df)" d="M 63 165.71605 
L 64.5624 162.890906 
L 65.7342 161.204566 
L 66.5154 160.364223 
L 67.2966 159.787612 
L 68.0778 159.495389 
L 68.859 159.497427 
L 69.6402 159.792233 
L 70.4214 160.366894 
L 71.2026 161.197557 
L 72.3744 162.847235 
L 73.9368 165.561283 
L 77.0616 171.15096 
L 78.2334 172.775551 
L 79.4052 173.94194 
L 80.1864 174.431687 
L 80.9676 174.683757 
L 81.7488 174.704246 
L 82.53 174.509771 
L 83.3112 174.126431 
L 84.483 173.273626 
L 86.436 171.465377 
L 87.9984 170.074838 
L 89.1702 169.275251 
L 90.342 168.790172 
L 91.1232 168.666047 
L 91.9044 168.703507 
L 93.0762 169.037979 
L 94.248 169.635593 
L 97.7634 171.690885 
L 98.5446 171.902964 
L 99.3258 171.929089 
L 100.107 171.733837 
L 100.8882 171.290156 
L 101.6694 170.580829 
L 102.4506 169.599462 
L 103.6224 167.631219 
L 104.7942 165.128256 
L 106.3566 161.163911 
L 110.6532 149.704549 
L 111.825 147.26054 
L 112.9968 145.360662 
L 113.778 144.426648 
L 114.5592 143.763691 
L 115.3404 143.363532 
L 116.1216 143.207393 
L 116.9028 143.267095 
L 118.0746 143.680865 
L 119.637 144.60821 
L 121.9806 146.059287 
L 123.1524 146.521112 
L 124.3242 146.689935 
L 125.496 146.537909 
L 126.6678 146.090099 
L 128.2302 145.169048 
L 130.5738 143.711432 
L 131.7456 143.2801 
L 132.5268 143.204668 
L 133.308 143.342472 
L 134.0892 143.722378 
L 134.8704 144.363961 
L 135.6516 145.276347 
L 136.4328 146.457554 
L 137.6046 148.701492 
L 138.7764 151.428552 
L 140.7294 156.662084 
L 143.4636 164.040837 
L 144.6354 166.722159 
L 145.8072 168.907559 
L 146.979 170.512656 
L 147.7602 171.24356 
L 148.5414 171.707902 
L 149.3226 171.922068 
L 150.1038 171.912373 
L 150.885 171.713637 
L 152.0568 171.153192 
L 155.9628 168.913577 
L 157.1346 168.668479 
L 157.9158 168.698329 
L 158.697 168.890826 
L 159.8688 169.470787 
L 161.0406 170.343762 
L 163.3842 172.52228 
L 164.9466 173.830917 
L 166.1184 174.485762 
L 166.8996 174.69635 
L 167.6808 174.69372 
L 168.462 174.460459 
L 169.2432 173.989604 
L 170.0244 173.285226 
L 171.1962 171.826851 
L 172.368 169.974364 
L 174.7116 165.676393 
L 176.274 162.946058 
L 177.4458 161.273764 
L 178.227 160.424047 
L 179.0082 159.827987 
L 179.7894 159.510273 
L 180.5706 159.484715 
L 181.3518 159.753719 
L 182.133 160.308304 
L 182.9142 161.128639 
L 184.086 162.790289 
L 185.6484 165.595088 
L 189.945 173.809933 
L 191.1168 175.524465 
L 192.2886 176.868825 
L 193.4604 177.850197 
L 194.6322 178.527058 
L 196.1946 179.137104 
L 198.1476 179.891063 
L 199.3194 180.599997 
L 200.4912 181.658852 
L 201.663 183.157197 
L 202.8348 185.13724 
L 204.0066 187.587294 
L 205.569 191.463294 
L 210.6468 204.878854 
L 211.8186 207.129794 
L 212.5998 208.293306 
L 213.381 209.160101 
L 214.1622 209.719368 
L 214.9434 209.971794 
L 215.7246 209.929456 
L 216.5058 209.615185 
L 217.287 209.061433 
L 218.4588 207.872085 
L 220.0212 205.870981 
L 222.3648 202.804339 
L 223.5366 201.569309 
L 224.7084 200.672814 
L 225.4896 200.287225 
L 226.2708 200.072586 
L 227.4426 200.04491 
L 228.6144 200.29897 
L 232.5204 201.543393 
L 233.3016 201.548852 
L 234.0828 201.387453 
L 234.864 201.035652 
L 235.6452 200.479411 
L 236.4264 199.71512 
L 237.5982 198.197339 
L 238.77 196.299126 
L 240.723 192.624317 
L 243.0666 188.312029 
L 244.2384 186.604729 
L 245.0196 185.737754 
L 245.8008 185.127935 
L 246.582 184.798923 
L 247.3632 184.763531 
L 248.1444 185.02314 
L 248.9256 185.567632 
L 249.7068 186.375865 
L 250.8786 188.012106 
L 252.441 190.758822 
L 255.9564 197.30358 
L 257.1282 199.020551 
L 258.3 200.315646 
L 259.0812 200.921666 
L 259.8624 201.321411 
L 260.6436 201.526494 
L 261.4248 201.558296 
L 262.5966 201.348373 
L 264.5496 200.640034 
L 266.112 200.141267 
L 267.2838 200.017887 
L 268.065 200.112559 
L 268.8462 200.371213 
L 269.6274 200.801913 
L 270.7992 201.762 
L 271.971 203.047615 
L 273.924 205.617378 
L 275.877 208.104466 
L 277.0488 209.22698 
L 277.83 209.721815 
L 278.6112 209.967848 
L 279.3924 209.935006 
L 280.1736 209.603173 
L 280.9548 208.963207 
L 281.736 208.017435 
L 282.5172 206.779621 
L 283.689 204.431936 
L 285.2514 200.587386 
L 290.3292 187.129253 
L 291.501 184.75775 
L 292.6728 182.862274 
L 293.8446 181.444912 
L 295.0164 180.454585 
L 296.1882 179.794543 
L 298.1412 179.066941 
L 299.7036 178.427141 
L 300.8754 177.703524 
L 302.0472 176.661795 
L 303.219 175.252011 
L 304.3908 173.47628 
L 305.9532 170.641666 
L 309.8592 163.095419 
L 311.031 161.360857 
L 311.8122 160.48108 
L 312.5934 159.860817 
L 313.3746 159.522351 
L 314.1558 159.477326 
L 314.937 159.726076 
L 315.7182 160.25749 
L 316.4994 161.049401 
L 317.6712 162.652592 
L 319.2336 165.332041 
L 322.3584 170.955814 
L 323.5302 172.623208 
L 324.702 173.842173 
L 325.4832 174.369605 
L 326.2644 174.659402 
L 327.0456 174.715924 
L 327.8268 174.554168 
L 328.608 174.198811 
L 329.7798 173.376654 
L 331.7328 171.584163 
L 333.6858 169.869717 
L 334.8576 169.135023 
L 336.0294 168.729543 
L 336.8106 168.660947 
L 337.5918 168.7517 
L 338.7636 169.154276 
L 340.326 170.042883 
L 342.6696 171.469494 
L 343.8414 171.880619 
L 344.6226 171.938924 
L 345.4038 171.780977 
L 346.185 171.378284 
L 346.9662 170.711981 
L 347.7474 169.773906 
L 348.9192 167.867141 
L 350.091 165.416326 
L 351.6534 161.498502 
L 356.3406 149.106492 
L 357.5124 146.778297 
L 358.6842 145.01191 
L 359.4654 144.170498 
L 360.2466 143.598559 
L 361.0278 143.284155 
L 361.809 143.205155 
L 362.5902 143.330513 
L 363.762 143.816509 
L 365.3244 144.785198 
L 367.2774 145.995828 
L 368.4492 146.485013 
L 369.621 146.687185 
L 370.7928 146.56896 
L 371.9646 146.149813 
L 373.527 145.250485 
L 375.8706 143.774672 
L 377.0424 143.30946 
L 377.8236 143.203269 
L 378.6048 143.304959 
L 379.386 143.64474 
L 380.1672 144.243755 
L 380.9484 145.112852 
L 381.7296 146.251842 
L 382.9014 148.438326 
L 384.0732 151.119818 
L 386.0262 156.315124 
L 388.7604 163.73209 
L 390.3228 167.265979 
L 391.4946 169.325063 
L 392.2758 170.371117 
L 393.057 171.145275 
L 393.8382 171.651246 
L 394.6194 171.903736 
L 395.4006 171.927564 
L 396.1818 171.756306 
L 397.3536 171.223806 
L 401.6502 168.829518 
L 402.822 168.660509 
L 403.6032 168.745683 
L 404.3844 168.992986 
L 405.5562 169.646454 
L 406.728 170.572932 
L 410.634 174.010524 
L 411.8058 174.57998 
L 412.587 174.720484 
L 413.3682 174.640719 
L 414.1494 174.326736 
L 414.9306 173.775295 
L 415.7118 172.994259 
L 416.8836 171.436266 
L 418.446 168.814289 
L 421.9614 162.530307 
L 423.1332 160.957701 
L 423.9144 160.191002 
L 424.6956 159.687541 
L 425.4768 159.46839 
L 426.258 159.543506 
L 427.0392 159.911387 
L 427.8204 160.559268 
L 428.6016 161.463837 
L 429.7734 163.22841 
L 431.3358 166.115911 
L 434.8512 172.949268 
L 436.023 174.814994 
L 437.1948 176.324332 
L 438.3666 177.460955 
L 439.5384 178.261415 
L 440.7102 178.809922 
L 443.835 180.027444 
L 445.0068 180.805926 
L 446.1786 181.958299 
L 447.3504 183.564231 
L 448.5222 185.654058 
L 449.694 188.203535 
L 451.2564 192.175711 
L 453.6 198.68665 
L 453.6 198.68665 
" style="fill:none;stroke:#8cbfb9;stroke-linecap:square;stroke-width:4;"/>
   </g>
   <g id="line2d_2">
    <path clip-path="url(#p7c909a73df)" d="M 63 166.122047 
L 63 -1 
M 63.7812 -1 
L 63.7812 166.588371 
L 64.1718 164.864158 
L 64.5624 163.691939 
L 65.7342 161.526384 
L 66.1248 160.92027 
L 67.2966 159.844367 
L 68.0778 159.487273 
L 68.859 159.455461 
L 69.6402 159.739415 
L 70.4214 160.313845 
L 71.2026 161.146976 
L 72.3744 162.796448 
L 73.9368 165.525132 
L 76.671 170.500901 
L 77.8428 172.249573 
L 79.0146 173.566062 
L 79.7958 174.166742 
L 80.577 174.534689 
L 81.3582 174.66334 
L 82.1394 174.56089 
L 82.9206 174.266036 
L 84.0924 173.511155 
L 85.6548 172.133805 
L 87.9984 169.999695 
L 89.1702 169.203066 
L 90.342 168.717995 
L 91.1232 168.592442 
L 91.9044 168.631504 
L 93.0762 168.96687 
L 94.248 169.556703 
L 97.7634 171.494787 
L 98.5446 171.687168 
L 99.3258 171.722815 
L 100.107 171.561737 
L 100.8882 171.149041 
L 101.6694 170.495088 
L 102.4506 169.544159 
L 103.6224 167.58299 
L 104.7942 165.080838 
L 106.3566 161.111006 
L 110.6532 149.657423 
L 111.825 147.218394 
L 112.9968 145.322618 
L 113.778 144.388021 
L 114.5592 143.733849 
L 115.3404 143.328227 
L 116.1216 143.179673 
L 116.9028 143.23582 
L 118.0746 143.641668 
L 119.637 144.555715 
L 121.9806 145.981316 
L 123.1524 146.431584 
L 123.9336 146.586244 
L 125.1054 146.537335 
L 126.2772 146.181123 
L 127.449 145.5776 
L 131.355 143.329103 
L 132.5268 143.135068 
L 133.308 143.278307 
L 134.0892 143.648513 
L 134.8704 144.276494 
L 135.6516 145.193662 
L 136.4328 146.356428 
L 137.6046 148.618103 
L 138.7764 151.421904 
L 141.12 157.76494 
L 143.4636 163.983804 
L 144.6354 166.656307 
L 145.8072 168.842699 
L 146.979 170.455483 
L 147.7602 171.197211 
L 148.5414 171.670593 
L 149.3226 171.899466 
L 150.1038 171.899846 
L 150.885 171.715221 
L 152.0568 171.16387 
L 155.9628 168.891559 
L 157.1346 168.635466 
L 157.9158 168.665767 
L 158.697 168.847064 
L 159.8688 169.419747 
L 161.0406 170.29274 
L 162.9936 172.098306 
L 164.556 173.487638 
L 165.7278 174.260519 
L 166.509 174.566972 
L 167.2902 174.669936 
L 168.0714 174.559014 
L 168.8526 174.20645 
L 169.6338 173.608441 
L 170.415 172.795788 
L 171.5868 171.193403 
L 173.1492 168.539676 
L 176.6646 162.323012 
L 177.8364 160.806812 
L 178.6176 160.077538 
L 179.3988 159.618247 
L 180.18 159.44441 
L 180.9612 159.558364 
L 181.7424 159.970931 
L 182.5236 160.652778 
L 183.3048 161.588592 
L 184.4766 163.390174 
L 186.039 166.312018 
L 189.5544 173.174067 
L 190.7262 174.977481 
L 191.898 176.408236 
L 193.0698 177.485601 
L 194.2416 178.252728 
L 195.4134 178.782665 
L 198.5382 180.035171 
L 199.71 180.856117 
L 200.8818 182.061704 
L 202.0536 183.726793 
L 203.2254 185.878386 
L 204.3972 188.48164 
L 205.9596 192.494699 
L 210.2562 203.969809 
L 211.428 206.395459 
L 212.5998 208.240547 
L 213.381 209.104149 
L 214.1622 209.664901 
L 214.9434 209.921546 
L 215.7246 209.880843 
L 216.5058 209.568419 
L 217.287 209.018853 
L 218.4588 207.82896 
L 220.0212 205.811963 
L 222.3648 202.753562 
L 223.5366 201.536045 
L 224.7084 200.65403 
L 225.8802 200.146152 
L 226.6614 200.013645 
L 227.8332 200.082524 
L 229.005 200.395179 
L 232.1298 201.43956 
L 233.3016 201.497078 
L 234.0828 201.333638 
L 234.864 200.982766 
L 235.6452 200.427216 
L 236.4264 199.667059 
L 237.5982 198.153375 
L 238.77 196.261641 
L 240.723 192.592967 
L 243.0666 188.276658 
L 244.2384 186.56677 
L 245.0196 185.697676 
L 245.8008 185.08585 
L 246.582 184.755279 
L 247.3632 184.719761 
L 248.1444 184.977145 
L 248.9256 185.52143 
L 249.7068 186.328178 
L 250.8786 187.964813 
L 252.441 190.708303 
L 255.9564 197.228558 
L 257.1282 198.935966 
L 258.3 200.221912 
L 259.4718 201.0492 
L 260.253 201.356076 
L 261.0342 201.495207 
L 262.206 201.426387 
L 263.3778 201.089174 
L 266.112 200.107998 
L 267.2838 199.981601 
L 268.065 200.079701 
L 268.8462 200.339619 
L 269.6274 200.769959 
L 270.7992 201.737058 
L 271.971 203.029387 
L 273.924 205.609076 
L 275.877 208.095123 
L 277.0488 209.209514 
L 277.83 209.696858 
L 278.6112 209.935422 
L 279.3924 209.896131 
L 280.1736 209.556051 
L 280.9548 208.911235 
L 281.736 207.962154 
L 282.5172 206.722554 
L 283.689 204.376499 
L 285.2514 200.537468 
L 290.3292 187.110974 
L 291.501 184.738691 
L 292.6728 182.840998 
L 293.8446 181.41968 
L 295.0164 180.425546 
L 296.1882 179.763041 
L 297.7506 179.166648 
L 299.7036 178.394176 
L 300.8754 177.669812 
L 302.0472 176.623947 
L 303.219 175.208639 
L 304.3908 173.428152 
L 305.9532 170.58896 
L 309.8592 163.070965 
L 311.031 161.367583 
L 312.2028 160.167548 
L 312.984 159.675863 
L 313.7652 159.465528 
L 314.5464 159.539322 
L 315.3276 159.909818 
L 316.1088 160.572264 
L 316.89 161.467086 
L 318.0618 163.20431 
L 320.0148 166.708004 
L 322.3584 170.877401 
L 323.5302 172.55058 
L 324.702 173.77558 
L 325.4832 174.310669 
L 326.2644 174.60793 
L 327.0456 174.669005 
L 327.8268 174.512934 
L 328.608 174.165184 
L 329.7798 173.349818 
L 331.7328 171.556583 
L 333.6858 169.836025 
L 334.8576 169.098327 
L 336.0294 168.690527 
L 336.8106 168.616454 
L 337.9824 168.807457 
L 339.1542 169.304967 
L 341.1072 170.492507 
L 342.6696 171.387227 
L 343.8414 171.784925 
L 344.6226 171.848941 
L 345.4038 171.697501 
L 346.185 171.309147 
L 346.9662 170.66346 
L 348.138 169.163305 
L 349.3098 167.066335 
L 350.4816 164.449623 
L 352.044 160.38729 
L 355.95 149.945901 
L 357.1218 147.452422 
L 358.2936 145.495087 
L 359.0748 144.519626 
L 359.856 143.818232 
L 360.6372 143.379243 
L 361.4184 143.186579 
L 362.1996 143.214672 
L 362.9808 143.426802 
L 364.1526 143.996195 
L 368.0586 146.270806 
L 369.2304 146.567757 
L 370.4022 146.553811 
L 371.574 146.232468 
L 372.7458 145.653066 
L 376.6518 143.367666 
L 377.433 143.165952 
L 378.2142 143.158412 
L 378.9954 143.369166 
L 379.7766 143.822947 
L 380.5578 144.560827 
L 381.339 145.54818 
L 382.5108 147.566261 
L 383.6826 150.141767 
L 385.245 154.169614 
L 389.5416 165.545758 
L 390.7134 167.953842 
L 391.8852 169.819759 
L 392.6664 170.732468 
L 393.4476 171.376226 
L 394.2288 171.761658 
L 395.01 171.900957 
L 395.7912 171.832748 
L 396.963 171.413676 
L 398.5254 170.495142 
L 400.4784 169.293685 
L 401.6502 168.805246 
L 402.822 168.625199 
L 403.9938 168.80486 
L 405.1656 169.343929 
L 406.3374 170.187205 
L 408.2904 171.973556 
L 409.8528 173.381364 
L 411.0246 174.183696 
L 411.8058 174.521959 
L 412.587 174.664968 
L 413.3682 174.588852 
L 414.1494 174.276535 
L 414.9306 173.721403 
L 415.7118 172.936958 
L 416.8836 171.384225 
L 418.446 168.763505 
L 421.9614 162.523451 
L 423.1332 160.965574 
L 423.9144 160.198949 
L 424.6956 159.684064 
L 425.4768 159.466702 
L 426.258 159.513126 
L 427.0392 159.872029 
L 427.8204 160.508101 
L 428.6016 161.406248 
L 429.7734 163.164606 
L 430.9452 165.275335 
L 435.6324 174.1506 
L 436.8042 175.780864 
L 437.976 177.033015 
L 439.1478 177.941424 
L 440.3196 178.576399 
L 444.2256 180.212693 
L 445.3974 181.113348 
L 446.5692 182.419615 
L 447.741 184.193378 
L 448.9128 186.445967 
L 450.4752 190.106205 
L 452.8188 196.461735 
L 453.6 198.83956 
L 453.6 198.83956 
" style="fill:none;stroke:#000000;stroke-dasharray:7.4,3.2;stroke-dashoffset:0;stroke-width:2;"/>
    <defs>
     <path d="M -2.5 2.5 
L 2.5 2.5 
L 2.5 -2.5 
L -2.5 -2.5 
z
" id="m1782626458" style="stroke:#000000;stroke-linejoin:miter;"/>
    </defs>
    <g clip-path="url(#p7c909a73df)">
     <use style="fill:#ffffff;stroke:#000000;stroke-linejoin:miter;" x="63" xlink:href="#m1782626458" y="166.122047"/>
     <use style="fill:#ffffff;stroke:#000000;stroke-linejoin:miter;" x="82.53" xlink:href="#m1782626458" y="174.445742"/>
     <use style="fill:#ffffff;stroke:#000000;stroke-linejoin:miter;" x="102.06" xlink:href="#m1782626458" y="170.04809"/>
     <use style="fill:#ffffff;stroke:#000000;stroke-linejoin:miter;" x="121.59" xlink:href="#m1782626458" y="145.778523"/>
     <use style="fill:#ffffff;stroke:#000000;stroke-linejoin:miter;" x="141.12" xlink:href="#m1782626458" y="157.76494"/>
     <use style="fill:#ffffff;stroke:#000000;stroke-linejoin:miter;" x="160.65" xlink:href="#m1782626458" y="169.97557"/>
     <use style="fill:#ffffff;stroke:#000000;stroke-linejoin:miter;" x="180.18" xlink:href="#m1782626458" y="159.44441"/>
     <use style="fill:#ffffff;stroke:#000000;stroke-linejoin:miter;" x="199.71" xlink:href="#m1782626458" y="180.856117"/>
     <use style="fill:#ffffff;stroke:#000000;stroke-linejoin:miter;" x="219.24" xlink:href="#m1782626458" y="206.859361"/>
     <use style="fill:#ffffff;stroke:#000000;stroke-linejoin:miter;" x="238.77" xlink:href="#m1782626458" y="196.261641"/>
     <use style="fill:#ffffff;stroke:#000000;stroke-linejoin:miter;" x="258.3" xlink:href="#m1782626458" y="200.221912"/>
     <use style="fill:#ffffff;stroke:#000000;stroke-linejoin:miter;" x="277.83" xlink:href="#m1782626458" y="209.696858"/>
     <use style="fill:#ffffff;stroke:#000000;stroke-linejoin:miter;" x="297.36" xlink:href="#m1782626458" y="179.302245"/>
     <use style="fill:#ffffff;stroke:#000000;stroke-linejoin:miter;" x="316.89" xlink:href="#m1782626458" y="161.467086"/>
     <use style="fill:#ffffff;stroke:#000000;stroke-linejoin:miter;" x="336.42" xlink:href="#m1782626458" y="168.635006"/>
     <use style="fill:#ffffff;stroke:#000000;stroke-linejoin:miter;" x="355.95" xlink:href="#m1782626458" y="149.945901"/>
     <use style="fill:#ffffff;stroke:#000000;stroke-linejoin:miter;" x="375.48" xlink:href="#m1782626458" y="143.926606"/>
     <use style="fill:#ffffff;stroke:#000000;stroke-linejoin:miter;" x="395.01" xlink:href="#m1782626458" y="171.900957"/>
     <use style="fill:#ffffff;stroke:#000000;stroke-linejoin:miter;" x="414.54" xlink:href="#m1782626458" y="174.024202"/>
     <use style="fill:#ffffff;stroke:#000000;stroke-linejoin:miter;" x="434.07" xlink:href="#m1782626458" y="171.449367"/>
     <use style="fill:#ffffff;stroke:#000000;stroke-linejoin:miter;" x="453.6" xlink:href="#m1782626458" y="198.83956"/>
    </g>
   </g>
   <g id="line2d_3">
    <path clip-path="url(#p7c909a73df)" d="M 63 45.766348 
L 64.5624 43.933988 
L 65.7342 42.838975 
L 66.906 41.981148 
L 68.0778 41.353547 
L 69.2496 40.944869 
L 70.4214 40.739824 
L 71.5932 40.719587 
L 73.1556 40.941958 
L 74.718 41.395534 
L 76.671 42.191112 
L 83.7018 45.324712 
L 85.6548 45.827504 
L 87.2172 46.027986 
L 88.7796 46.037689 
L 90.342 45.860491 
L 92.295 45.403768 
L 94.6386 44.595473 
L 100.4976 42.418577 
L 102.06 42.105273 
L 103.6224 42.026391 
L 104.7942 42.155922 
L 105.966 42.471269 
L 107.1378 42.990807 
L 108.3096 43.72932 
L 109.4814 44.697564 
L 110.6532 45.901919 
L 112.2156 47.877351 
L 113.778 50.26602 
L 115.3404 53.043683 
L 117.2934 57.002195 
L 119.637 62.322705 
L 123.1524 70.967313 
L 127.0584 80.474677 
L 129.402 85.595084 
L 131.355 89.295067 
L 132.9174 91.795567 
L 134.4798 93.835907 
L 135.6516 95.044279 
L 136.8234 95.967736 
L 137.9952 96.60379 
L 139.167 96.955199 
L 140.3388 97.029886 
L 141.5106 96.840763 
L 142.6824 96.405442 
L 143.8542 95.745853 
L 145.4166 94.562567 
L 146.979 93.096673 
L 149.3226 90.539126 
L 154.791 84.34789 
L 156.744 82.546513 
L 158.3064 81.402217 
L 159.8688 80.572611 
L 161.0406 80.176915 
L 162.2124 79.984926 
L 163.3842 80.000067 
L 164.556 80.220983 
L 165.7278 80.641662 
L 167.2902 81.494635 
L 168.8526 82.647682 
L 170.8056 84.438149 
L 173.1492 86.949539 
L 179.7894 94.35659 
L 181.7424 96.121303 
L 183.3048 97.278927 
L 184.8672 98.179202 
L 186.4296 98.806924 
L 187.992 99.160557 
L 189.5544 99.25226 
L 191.1168 99.107326 
L 193.0698 98.651233 
L 195.4134 97.82906 
L 200.1006 96.068612 
L 202.0536 95.615983 
L 203.616 95.490718 
L 205.1784 95.629271 
L 206.3502 95.929724 
L 207.522 96.411882 
L 208.6938 97.083031 
L 210.2562 98.27591 
L 211.8186 99.80243 
L 213.381 101.640906 
L 215.334 104.321095 
L 217.6776 107.961363 
L 224.7084 119.286986 
L 226.6614 121.824967 
L 228.2238 123.461999 
L 229.3956 124.415659 
L 230.5674 125.107292 
L 231.7392 125.516984 
L 232.911 125.629384 
L 234.0828 125.434043 
L 235.2546 124.925633 
L 236.4264 124.104074 
L 237.5982 122.974546 
L 238.77 121.547387 
L 240.3324 119.208631 
L 241.8948 116.417373 
L 243.8478 112.387108 
L 246.1914 106.94897 
L 250.0974 97.161046 
L 253.6128 88.531697 
L 255.9564 83.324508 
L 257.9094 79.489345 
L 259.8624 76.194874 
L 261.4248 73.976549 
L 262.9872 72.133795 
L 264.5496 70.655232 
L 266.112 69.51566 
L 267.6744 68.677546 
L 269.2368 68.092985 
L 271.1898 67.633093 
L 273.924 67.277405 
L 277.4394 66.819056 
L 279.3924 66.346668 
L 280.9548 65.781075 
L 282.5172 65.015931 
L 284.0796 64.034405 
L 286.0326 62.499362 
L 287.9856 60.645267 
L 290.3292 58.078974 
L 294.6258 52.914694 
L 297.36 49.797672 
L 299.313 47.889923 
L 300.8754 46.649991 
L 302.4378 45.724904 
L 303.6096 45.265779 
L 304.7814 45.025098 
L 305.9532 45.014034 
L 307.125 45.23935 
L 308.2968 45.703162 
L 309.4686 46.402794 
L 310.6404 47.330752 
L 312.2028 48.901387 
L 313.7652 50.814152 
L 315.7182 53.601936 
L 318.4524 58.004919 
L 323.5302 66.363835 
L 325.4832 69.151208 
L 327.0456 71.050769 
L 328.608 72.58777 
L 329.7798 73.471549 
L 330.9516 74.106288 
L 332.1234 74.480549 
L 333.2952 74.587957 
L 334.467 74.427333 
L 335.6388 74.002721 
L 336.8106 73.323299 
L 337.9824 72.403188 
L 339.5448 70.835014 
L 341.1072 68.928787 
L 343.0602 66.174 
L 346.185 61.267024 
L 350.091 55.174414 
L 352.044 52.510334 
L 353.6064 50.688541 
L 355.1688 49.202561 
L 356.3406 48.334462 
L 357.5124 47.692009 
L 358.6842 47.283107 
L 359.856 47.110841 
L 361.0278 47.173505 
L 362.1996 47.464724 
L 363.3714 47.973687 
L 364.5432 48.685477 
L 366.1056 49.91741 
L 367.668 51.423811 
L 369.621 53.600407 
L 373.1364 57.950268 
L 376.6518 62.223517 
L 378.9954 64.715355 
L 380.9484 66.461003 
L 382.9014 67.863185 
L 384.4638 68.732788 
L 386.0262 69.390845 
L 387.9792 69.955835 
L 390.3228 70.358717 
L 395.7912 71.129231 
L 397.3536 71.58531 
L 398.916 72.258355 
L 400.4784 73.201214 
L 402.0408 74.457682 
L 403.6032 76.060303 
L 405.1656 78.028604 
L 406.728 80.367831 
L 408.2904 83.068258 
L 410.2434 86.912539 
L 412.587 92.102858 
L 415.7118 99.665517 
L 420.7896 112.017462 
L 423.1332 117.058746 
L 425.0862 120.662817 
L 426.6486 123.059899 
L 427.8204 124.538157 
L 428.9922 125.722889 
L 430.164 126.601647 
L 431.3358 127.167065 
L 432.5076 127.417009 
L 433.6794 127.354611 
L 434.8512 126.988198 
L 436.023 126.331105 
L 437.1948 125.40139 
L 438.3666 124.221451 
L 439.929 122.304838 
L 441.882 119.458807 
L 444.2256 115.589863 
L 450.8658 104.326763 
L 452.8188 101.538084 
L 453.6 100.54168 
L 453.6 100.54168 
" style="fill:none;stroke:#da888e;stroke-linecap:square;stroke-width:4;"/>
   </g>
   <g id="line2d_4">
    <path clip-path="url(#p7c909a73df)" d="M 63 150.641588 
L 63 253 
M 63.7812 253 
L 63.7812 -1 
M 66.210114 -1 
L 66.5154 8.473254 
L 66.906 29.496778 
L 68.0778 41.629748 
L 68.4684 41.135606 
L 68.859 43.32348 
L 69.2496 41.684899 
L 69.6402 42.792827 
L 70.0308 41.788745 
L 70.812 41.605384 
L 71.2026 40.626189 
L 71.5932 40.992367 
L 72.3744 40.072788 
L 72.765 40.232491 
L 73.1556 39.84892 
L 73.9368 39.915877 
L 74.3274 39.828869 
L 74.718 40.207299 
L 75.1086 40.09172 
L 77.8428 41.994791 
L 78.2334 42.53214 
L 78.624 42.659454 
L 79.4052 43.375815 
L 79.7958 43.493285 
L 80.1864 43.922825 
L 80.9676 44.335881 
L 81.3582 44.606318 
L 81.7488 44.731069 
L 82.1394 45.034009 
L 82.9206 45.33779 
L 84.0924 45.793432 
L 86.436 46.276766 
L 88.389 46.345188 
L 90.7326 46.015201 
L 95.4198 44.421199 
L 100.107 42.507057 
L 102.4506 42.089861 
L 104.013 42.064167 
L 105.1848 42.229095 
L 106.3566 42.598282 
L 107.5284 43.18564 
L 108.7002 43.998848 
L 109.4814 44.642963 
L 111.4344 46.799734 
L 112.6062 48.425916 
L 113.778 50.250797 
L 115.3404 53.045869 
L 117.2934 57.022405 
L 119.637 62.38659 
L 123.1524 71.063164 
L 127.8396 82.295838 
L 129.7926 86.416906 
L 131.7456 89.978441 
L 133.308 92.371901 
L 134.4798 93.859946 
L 135.6516 95.067176 
L 136.8234 95.989755 
L 137.9952 96.609014 
L 139.167 96.943836 
L 140.3388 97.025696 
L 141.5106 96.850273 
L 142.6824 96.415016 
L 143.8542 95.744515 
L 145.4166 94.551025 
L 147.3696 92.670001 
L 150.4944 89.14381 
L 154.0098 85.158935 
L 156.3534 82.882338 
L 157.9158 81.663925 
L 159.4782 80.74717 
L 160.65 80.283792 
L 161.8218 80.024458 
L 162.9936 79.96477 
L 164.1654 80.117361 
L 165.3372 80.475745 
L 166.509 81.030368 
L 168.0714 82.048884 
L 169.6338 83.339329 
L 171.9774 85.686013 
L 175.4928 89.68433 
L 179.0082 93.585058 
L 180.9612 95.464277 
L 182.9142 97.021116 
L 184.4766 97.988137 
L 186.039 98.679556 
L 187.6014 99.089168 
L 189.1638 99.22389 
L 191.1168 99.105564 
L 193.0698 98.680197 
L 195.804 97.711062 
L 200.1006 96.095495 
L 202.0536 95.636978 
L 203.616 95.504976 
L 204.7878 95.569399 
L 206.3502 95.917482 
L 207.522 96.39054 
L 208.6938 97.054678 
L 210.2562 98.239187 
L 211.8186 99.767293 
L 213.381 101.60843 
L 215.334 104.301634 
L 217.6776 107.954867 
L 224.7084 119.293753 
L 226.2708 121.364044 
L 227.8332 123.088946 
L 229.005 124.118404 
L 230.1768 124.896588 
L 231.3486 125.399707 
L 232.5204 125.609748 
L 233.6922 125.517289 
L 234.864 125.114323 
L 236.0358 124.40035 
L 237.2076 123.37749 
L 238.3794 122.051388 
L 239.9418 119.843587 
L 241.5042 117.167776 
L 243.0666 114.088212 
L 245.0196 109.768102 
L 247.7538 103.12726 
L 254.0034 87.656051 
L 256.347 82.55458 
L 258.3 78.843579 
L 260.253 75.666437 
L 262.206 72.989356 
L 263.3778 71.698001 
L 264.9402 70.352136 
L 266.5026 69.326174 
L 268.065 68.573264 
L 269.6274 68.058318 
L 271.971 67.599714 
L 277.83 66.751839 
L 280.1736 66.051724 
L 281.736 65.379792 
L 283.689 64.255619 
L 285.642 62.799726 
L 287.595 61.017499 
L 289.548 58.958053 
L 292.6728 55.283283 
L 296.5788 50.654627 
L 298.5318 48.620308 
L 300.0942 47.238887 
L 301.6566 46.141065 
L 302.8284 45.539077 
L 304.0002 45.148694 
L 305.172 44.985272 
L 306.3438 45.0557 
L 307.5156 45.362761 
L 308.6874 45.90717 
L 309.8592 46.680871 
L 311.4216 48.051065 
L 312.984 49.810825 
L 314.937 52.463098 
L 317.6712 56.759233 
L 323.9208 67.001893 
L 325.8738 69.680903 
L 327.4362 71.456771 
L 328.608 72.547417 
L 329.7798 73.399656 
L 330.9516 74.009668 
L 332.1234 74.369702 
L 333.2952 74.468809 
L 334.467 74.304701 
L 335.2482 74.058704 
L 336.42 73.47784 
L 337.9824 72.31834 
L 339.1542 71.20125 
L 340.7166 69.387619 
L 342.6696 66.690221 
L 345.7944 61.87399 
L 350.091 55.162818 
L 352.044 52.48306 
L 353.6064 50.653625 
L 355.1688 49.166394 
L 356.3406 48.298872 
L 357.5124 47.659977 
L 358.6842 47.253164 
L 359.856 47.087516 
L 361.0278 47.159469 
L 362.1996 47.459535 
L 363.3714 47.977845 
L 364.5432 48.700733 
L 366.1056 49.941562 
L 368.0586 51.875244 
L 370.4022 54.583203 
L 377.8236 63.554527 
L 379.7766 65.520477 
L 381.339 66.855021 
L 383.6826 68.336865 
L 385.6356 69.2085 
L 388.3698 70.052839 
L 389.9322 70.370865 
L 393.8382 70.869859 
L 396.5724 71.434302 
L 398.1348 71.965655 
L 399.6972 72.730413 
L 401.2596 73.788853 
L 402.4314 74.813821 
L 403.6032 76.042124 
L 404.775 77.478023 
L 406.3374 79.722731 
L 407.8998 82.340141 
L 409.8528 86.102947 
L 412.1964 91.213303 
L 415.3212 98.716459 
L 420.399 111.116891 
L 422.352 115.412392 
L 424.305 119.218973 
L 425.8674 121.910778 
L 427.0392 123.62747 
L 427.8204 124.640491 
L 429.3828 126.234073 
L 430.5546 127.075275 
L 431.7264 127.596805 
L 432.5076 127.779823 
L 433.2888 127.784692 
L 434.07 127.674273 
L 435.6324 126.978834 
L 437.1948 125.910741 
L 439.929 122.853874 
L 441.4914 120.60503 
L 443.835 116.662096 
L 447.3504 110.201984 
L 448.5222 107.99827 
L 450.8658 103.688704 
L 451.647 102.139354 
L 452.0376 101.274406 
L 452.4282 99.856559 
L 452.8188 97.743451 
L 453.2094 98.643214 
L 453.6 104.445236 
L 453.6 104.445236 
" style="fill:none;stroke:#000000;stroke-dasharray:7.4,3.2;stroke-dashoffset:0;stroke-width:2;"/>
    <defs>
     <path d="M 0 -2.5 
L -2.165064 -1.25 
L -2.165064 1.25 
L -0 2.5 
L 2.165064 1.25 
L 2.165064 -1.25 
z
" id="ma055d94361" style="stroke:#000000;stroke-linejoin:miter;"/>
    </defs>
    <g clip-path="url(#p7c909a73df)">
     <use style="fill:#ffffff;stroke:#000000;stroke-linejoin:miter;" x="63" xlink:href="#ma055d94361" y="150.641588"/>
     <use style="fill:#ffffff;stroke:#000000;stroke-linejoin:miter;" x="82.53" xlink:href="#ma055d94361" y="45.150537"/>
     <use style="fill:#ffffff;stroke:#000000;stroke-linejoin:miter;" x="102.06" xlink:href="#ma055d94361" y="42.115795"/>
     <use style="fill:#ffffff;stroke:#000000;stroke-linejoin:miter;" x="121.59" xlink:href="#ma055d94361" y="67.152648"/>
     <use style="fill:#ffffff;stroke:#000000;stroke-linejoin:miter;" x="141.12" xlink:href="#ma055d94361" y="96.940327"/>
     <use style="fill:#ffffff;stroke:#000000;stroke-linejoin:miter;" x="160.65" xlink:href="#ma055d94361" y="80.283792"/>
     <use style="fill:#ffffff;stroke:#000000;stroke-linejoin:miter;" x="180.18" xlink:href="#ma055d94361" y="94.748938"/>
     <use style="fill:#ffffff;stroke:#000000;stroke-linejoin:miter;" x="199.71" xlink:href="#ma055d94361" y="96.220029"/>
     <use style="fill:#ffffff;stroke:#000000;stroke-linejoin:miter;" x="219.24" xlink:href="#ma055d94361" y="110.532122"/>
     <use style="fill:#ffffff;stroke:#000000;stroke-linejoin:miter;" x="238.77" xlink:href="#ma055d94361" y="121.54267"/>
     <use style="fill:#ffffff;stroke:#000000;stroke-linejoin:miter;" x="258.3" xlink:href="#ma055d94361" y="78.843579"/>
     <use style="fill:#ffffff;stroke:#000000;stroke-linejoin:miter;" x="277.83" xlink:href="#ma055d94361" y="66.751839"/>
     <use style="fill:#ffffff;stroke:#000000;stroke-linejoin:miter;" x="297.36" xlink:href="#ma055d94361" y="49.807399"/>
     <use style="fill:#ffffff;stroke:#000000;stroke-linejoin:miter;" x="316.89" xlink:href="#ma055d94361" y="55.48671"/>
     <use style="fill:#ffffff;stroke:#000000;stroke-linejoin:miter;" x="336.42" xlink:href="#ma055d94361" y="73.47784"/>
     <use style="fill:#ffffff;stroke:#000000;stroke-linejoin:miter;" x="355.95" xlink:href="#ma055d94361" y="48.560396"/>
     <use style="fill:#ffffff;stroke:#000000;stroke-linejoin:miter;" x="375.48" xlink:href="#ma055d94361" y="60.883183"/>
     <use style="fill:#ffffff;stroke:#000000;stroke-linejoin:miter;" x="395.01" xlink:href="#ma055d94361" y="71.069066"/>
     <use style="fill:#ffffff;stroke:#000000;stroke-linejoin:miter;" x="414.54" xlink:href="#ma055d94361" y="96.793184"/>
     <use style="fill:#ffffff;stroke:#000000;stroke-linejoin:miter;" x="434.07" xlink:href="#ma055d94361" y="127.674273"/>
     <use style="fill:#ffffff;stroke:#000000;stroke-linejoin:miter;" x="453.6" xlink:href="#ma055d94361" y="104.445236"/>
    </g>
   </g>
   <g id="patch_3">
    <path d="M 63 220.5 
L 63 30.24 
" style="fill:none;stroke:#000000;stroke-linecap:square;stroke-linejoin:miter;stroke-width:0.8;"/>
   </g>
   <g id="patch_4">
    <path d="M 453.6 220.5 
L 453.6 30.24 
" style="fill:none;stroke:#000000;stroke-linecap:square;stroke-linejoin:miter;stroke-width:0.8;"/>
   </g>
   <g id="patch_5">
    <path d="M 63 220.5 
L 453.6 220.5 
" style="fill:none;stroke:#000000;stroke-linecap:square;stroke-linejoin:miter;stroke-width:0.8;"/>
   </g>
   <g id="patch_6">
    <path d="M 63 30.24 
L 453.6 30.24 
" style="fill:none;stroke:#000000;stroke-linecap:square;stroke-linejoin:miter;stroke-width:0.8;"/>
   </g>
  </g>
 </g>
 <defs>
  <clipPath id="p7c909a73df">
   <rect height="190.26" width="390.6" x="63" y="30.24"/>
  </clipPath>
 </defs>
</svg>
