<?xml version="1.0" encoding="utf-8" standalone="no"?>
<!DOCTYPE svg PUBLIC "-//W3C//DTD SVG 1.1//EN"
  "http://www.w3.org/Graphics/SVG/1.1/DTD/svg11.dtd">
<!-- Created with matplotlib (https://matplotlib.org/) -->
<svg height="252pt" version="1.1" viewBox="0 0 504 252" width="504pt" xmlns="http://www.w3.org/2000/svg" xmlns:xlink="http://www.w3.org/1999/xlink">
 <defs>
  <style type="text/css">
*{stroke-linecap:butt;stroke-linejoin:round;}
  </style>
 </defs>
 <g id="figure_1">
  <g id="patch_1">
   <path d="M 0 252 
L 504 252 
L 504 0 
L 0 0 
z
" style="fill:none;"/>
  </g>
  <g id="axes_1">
   <g id="patch_2">
    <path d="M 63 220.5 
L 453.6 220.5 
L 453.6 30.24 
L 63 30.24 
z
" style="fill:none;"/>
   </g>
   <g id="matplotlib.axis_1">
    <g id="xtick_1"/>
    <g id="xtick_2"/>
    <g id="xtick_3"/>
    <g id="xtick_4"/>
    <g id="xtick_5"/>
    <g id="xtick_6"/>
   </g>
   <g id="matplotlib.axis_2">
    <g id="ytick_1"/>
    <g id="ytick_2"/>
    <g id="ytick_3"/>
    <g id="ytick_4"/>
    <g id="ytick_5"/>
   </g>
   <g id="line2d_1">
    <path clip-path="url(#p4ec45fd166)" d="M 63 117.39461 
L 66.906 114.817695 
L 71.2026 112.267568 
L 75.8898 109.736893 
L 80.1864 107.650862 
L 84.0924 106.007191 
L 87.9984 104.616608 
L 93.0762 103.073926 
L 105.1848 99.487988 
L 112.6062 96.998095 
L 118.8558 94.669755 
L 132.5268 89.41337 
L 136.8234 88.092436 
L 141.12 86.989229 
L 145.4166 86.107064 
L 149.7132 85.446894 
L 155.1816 84.846008 
L 164.1654 83.879892 
L 168.8526 83.129237 
L 173.9304 82.081798 
L 181.3518 80.294675 
L 194.6322 77.046541 
L 198.9288 76.294338 
L 203.2254 75.785922 
L 207.522 75.512633 
L 211.8186 75.462362 
L 216.8964 75.647487 
L 225.099 76.219136 
L 245.0196 77.851092 
L 251.2692 78.575322 
L 255.9564 79.35326 
L 260.253 80.301621 
L 264.9402 81.569635 
L 270.4086 83.292076 
L 275.877 85.249913 
L 283.689 88.077597 
L 287.2044 89.099174 
L 290.7198 89.891949 
L 294.2352 90.468387 
L 298.1412 90.880452 
L 302.4378 91.087212 
L 307.5156 91.080651 
L 321.5772 90.907087 
L 325.8738 91.154879 
L 330.1704 91.637212 
L 334.8576 92.389136 
L 341.4978 93.701806 
L 349.3098 95.220976 
L 353.6064 95.821663 
L 357.903 96.203301 
L 362.9808 96.422678 
L 371.1834 96.501364 
L 377.8236 96.66132 
L 382.1202 96.971217 
L 386.0262 97.470259 
L 389.5416 98.139146 
L 393.057 99.025602 
L 397.3536 100.349193 
L 403.2126 102.403846 
L 410.2434 105.097327 
L 428.211 112.364642 
L 431.7264 114.060144 
L 434.8512 115.814809 
L 437.976 117.851274 
L 441.1008 120.18484 
L 444.2256 122.823619 
L 446.9598 125.412216 
L 449.694 128.320695 
L 452.0376 131.127402 
L 453.6 133.184461 
L 453.6 133.184461 
" style="fill:none;stroke:#257352;stroke-linecap:square;stroke-width:2;"/>
   </g>
   <g id="line2d_2">
    <path clip-path="url(#p4ec45fd166)" d="M 63 105.7175 
L 66.1248 108.031996 
L 68.4684 109.482351 
L 70.812 110.673039 
L 79.0146 114.50605 
L 81.7488 116.243928 
L 86.436 119.304582 
L 88.389 120.326902 
L 90.342 121.098216 
L 92.295 121.597147 
L 94.248 121.831727 
L 96.201 121.833801 
L 98.5446 121.603457 
L 102.8412 120.878851 
L 114.1686 118.782917 
L 120.4182 117.375799 
L 122.3712 117.189556 
L 124.3242 117.248515 
L 126.2772 117.57755 
L 128.2302 118.151332 
L 130.5738 119.072574 
L 135.6516 121.395599 
L 150.4944 128.149878 
L 152.4474 128.728515 
L 154.4004 129.092079 
L 156.3534 129.224883 
L 158.3064 129.127429 
L 160.2594 128.811184 
L 162.603 128.175463 
L 165.3372 127.172566 
L 171.1962 124.919677 
L 173.9304 124.171019 
L 176.6646 123.649518 
L 180.5706 123.157314 
L 184.086 122.908326 
L 186.8202 122.933294 
L 188.7732 123.148182 
L 190.7262 123.573532 
L 192.6792 124.217269 
L 195.0228 125.230556 
L 198.9288 127.218963 
L 205.1784 130.375095 
L 211.428 133.284086 
L 214.1622 134.35024 
L 216.5058 135.041164 
L 218.8494 135.498048 
L 221.5836 135.786379 
L 225.4896 135.941934 
L 241.8948 136.362696 
L 245.0196 136.75095 
L 247.7538 137.31812 
L 250.0974 138.009112 
L 252.8316 139.064739 
L 256.347 140.718611 
L 261.0342 142.915443 
L 264.159 144.103986 
L 270.4086 146.130743 
L 274.3146 147.28044 
L 276.2676 147.626983 
L 277.83 147.678791 
L 279.3924 147.469368 
L 280.9548 146.976506 
L 282.5172 146.221168 
L 284.4702 144.998627 
L 288.3762 142.174477 
L 292.2822 139.472163 
L 296.1882 137.06115 
L 300.0942 134.907389 
L 302.8284 133.633833 
L 305.172 132.786035 
L 307.125 132.288068 
L 309.078 131.98666 
L 311.4216 131.87228 
L 313.7652 132.008185 
L 316.1088 132.383307 
L 318.4524 132.998134 
L 320.796 133.849289 
L 323.5302 135.093533 
L 330.9516 138.655474 
L 333.6858 139.637006 
L 336.42 140.385216 
L 339.1542 140.890008 
L 341.4978 141.079392 
L 343.4508 141.01279 
L 345.4038 140.705544 
L 347.3568 140.154298 
L 349.7004 139.228861 
L 354.7782 136.843837 
L 358.2936 135.359485 
L 361.0278 134.424134 
L 363.762 133.712552 
L 366.1056 133.309178 
L 368.4492 133.129364 
L 370.7928 133.197697 
L 373.1364 133.518443 
L 375.48 134.075964 
L 377.8236 134.849475 
L 380.1672 135.82816 
L 382.9014 137.231176 
L 385.6356 138.909145 
L 389.9322 141.888915 
L 392.6664 143.681626 
L 395.01 144.938197 
L 396.963 145.739945 
L 399.3066 146.446979 
L 402.4314 147.131319 
L 409.0716 148.316469 
L 411.8058 148.616718 
L 414.1494 148.675221 
L 417.2742 148.510357 
L 420.7896 148.356407 
L 422.7426 148.492713 
L 424.305 148.79256 
L 425.8674 149.29835 
L 427.4298 150.033149 
L 428.9922 151.008824 
L 430.5546 152.223566 
L 432.5076 154.048438 
L 434.8512 156.584199 
L 439.5384 162.118352 
L 443.4444 166.915705 
L 445.3974 169.606872 
L 447.3504 172.704763 
L 448.9128 175.57056 
L 450.8658 179.695201 
L 452.8188 184.368166 
L 453.6 186.34469 
L 453.6 186.34469 
" style="fill:none;stroke:#257352;stroke-dasharray:7.4,3.2;stroke-dashoffset:0;stroke-width:2;"/>
   </g>
   <g id="line2d_3">
    <path clip-path="url(#p4ec45fd166)" d="M 63 117.39461 
L 66.1248 113.32143 
L 69.6402 109.098498 
L 74.718 103.387935 
L 79.7958 97.987986 
L 83.3112 94.536572 
L 86.436 91.752469 
L 89.5608 89.243963 
L 93.0762 86.701429 
L 96.9822 84.146249 
L 100.8882 81.842179 
L 104.4036 80.003837 
L 107.919 78.401432 
L 111.825 76.859778 
L 116.9028 75.102459 
L 123.9336 72.906073 
L 130.5738 71.058078 
L 138.7764 69.047542 
L 146.979 66.970204 
L 153.6192 65.044647 
L 158.697 63.365689 
L 162.9936 61.72306 
L 167.2902 59.834685 
L 173.9304 56.612341 
L 187.992 49.81303 
L 195.4134 46.352835 
L 200.1006 44.405834 
L 205.1784 42.52895 
L 210.2562 40.869307 
L 213.7716 39.917636 
L 216.8964 39.298078 
L 219.6306 38.979506 
L 222.3648 38.889702 
L 225.099 39.037127 
L 227.8332 39.431869 
L 230.1768 39.977421 
L 232.911 40.862273 
L 235.6452 42.000904 
L 238.77 43.556198 
L 243.0666 45.981838 
L 248.535 49.347613 
L 254.0034 52.983977 
L 263.3778 59.305519 
L 266.8932 61.3613 
L 270.7992 63.376001 
L 274.7052 65.146884 
L 278.6112 66.676177 
L 282.1266 67.798117 
L 285.2514 68.561346 
L 288.3762 69.110925 
L 291.8916 69.509496 
L 295.7976 69.72466 
L 300.0942 69.720004 
L 304.7814 69.465695 
L 310.6404 68.899067 
L 325.4832 67.338827 
L 329.3892 67.206903 
L 332.9046 67.289986 
L 336.42 67.578726 
L 339.9354 68.078334 
L 343.4508 68.788331 
L 347.7474 69.90528 
L 353.997 71.804775 
L 364.9338 75.359695 
L 375.0894 78.939163 
L 386.8074 83.228455 
L 394.2288 86.247153 
L 405.5562 90.820825 
L 411.8058 93.465114 
L 417.2742 96.043928 
L 422.352 98.681157 
L 426.258 100.950607 
L 429.3828 103.019315 
L 432.117 105.090202 
L 434.8512 107.458064 
L 437.5854 110.148775 
L 440.3196 113.161503 
L 443.0538 116.489778 
L 445.788 120.154398 
L 448.5222 124.225634 
L 450.8658 128.128037 
L 453.2094 132.504686 
L 453.6 133.285948 
L 453.6 133.285948 
" style="fill:none;stroke:#ff6e54;stroke-linecap:square;stroke-width:2;"/>
   </g>
   <g id="line2d_4">
    <path clip-path="url(#p4ec45fd166)" d="M 63 79.700785 
L 64.953 82.637891 
L 66.5154 84.639974 
L 68.0778 86.289663 
L 69.6402 87.592189 
L 71.2026 88.591247 
L 73.1556 89.533592 
L 77.4522 91.429799 
L 79.0146 92.408874 
L 80.577 93.649382 
L 82.53 95.54704 
L 85.6548 99.037539 
L 88.7796 102.416954 
L 90.7326 104.238816 
L 92.6856 105.802988 
L 95.4198 107.664527 
L 101.2788 111.509 
L 109.4814 117.349254 
L 111.4344 118.364824 
L 113.3874 119.160714 
L 115.731 119.85933 
L 118.4652 120.424405 
L 126.6678 121.940281 
L 132.5268 123.185487 
L 135.261 123.520965 
L 137.6046 123.603608 
L 140.3388 123.453309 
L 143.4636 123.012834 
L 148.5414 122.009812 
L 153.6192 120.850608 
L 156.3534 120.005102 
L 158.697 119.068592 
L 161.4312 117.731568 
L 166.8996 114.937289 
L 168.8526 114.244467 
L 170.415 113.894912 
L 172.368 113.708786 
L 174.7116 113.760917 
L 182.5236 114.192831 
L 189.1638 114.216836 
L 191.1168 114.494795 
L 193.0698 114.980577 
L 195.4134 115.792235 
L 203.2254 118.716463 
L 208.6938 120.514988 
L 210.6468 121.464258 
L 212.2092 122.463324 
L 213.7716 123.70404 
L 215.7246 125.57376 
L 218.0682 128.162175 
L 221.9742 132.861287 
L 226.2708 138.322123 
L 230.1768 143.68053 
L 234.0828 148.998994 
L 236.0358 151.277575 
L 237.5982 152.79184 
L 239.1606 154.010535 
L 240.723 154.961441 
L 242.676 155.866781 
L 245.8008 156.993007 
L 254.7846 159.949846 
L 256.347 160.086966 
L 257.5188 160.00161 
L 258.6906 159.737033 
L 260.253 159.108923 
L 261.8154 158.210244 
L 264.159 156.538286 
L 268.8462 153.075552 
L 271.971 151.114437 
L 277.0488 148.006015 
L 279.3924 146.247587 
L 282.1266 143.89209 
L 286.8138 139.803783 
L 289.548 137.75863 
L 292.2822 135.999741 
L 295.7976 134.016888 
L 300.0942 131.843179 
L 303.219 130.491292 
L 305.9532 129.568171 
L 308.2968 128.998312 
L 311.031 128.5706 
L 313.7652 128.360147 
L 316.4994 128.358612 
L 318.843 128.558322 
L 321.1866 129.001399 
L 323.1396 129.593963 
L 325.0926 130.398799 
L 327.4362 131.609718 
L 330.561 133.495749 
L 336.8106 137.583221 
L 343.8414 142.187744 
L 346.185 143.431372 
L 348.138 144.217317 
L 350.091 144.753152 
L 352.4346 145.116021 
L 355.95 145.352635 
L 360.6372 145.694723 
L 365.3244 146.311271 
L 369.2304 146.753926 
L 372.3552 146.881023 
L 380.1672 147.010371 
L 382.9014 147.367041 
L 386.4168 148.100015 
L 390.3228 148.900959 
L 392.6664 149.132136 
L 395.01 149.102199 
L 398.1348 148.791594 
L 401.6502 148.492259 
L 403.9938 148.538876 
L 405.9468 148.783958 
L 408.2904 149.315871 
L 411.4152 150.302825 
L 421.1802 153.776165 
L 423.1332 154.811037 
L 424.6956 155.868717 
L 426.258 157.175856 
L 427.8204 158.76097 
L 429.3828 160.635037 
L 431.3358 163.363223 
L 433.6794 167.084966 
L 444.2256 184.895252 
L 445.788 187.974944 
L 447.3504 191.509761 
L 448.9128 195.624476 
L 450.4752 200.399065 
L 452.0376 205.840442 
L 453.6 211.851818 
L 453.6 211.851818 
" style="fill:none;stroke:#ff6e54;stroke-dasharray:7.4,3.2;stroke-dashoffset:0;stroke-width:2;"/>
   </g>
   <g id="line2d_5">
    <path clip-path="url(#p4ec45fd166)" d="M 63 117.39461 
L 66.1248 116.037287 
L 70.0308 114.605589 
L 75.1086 113.019657 
L 83.3112 110.737753 
L 92.6856 108.099264 
L 97.7634 106.416825 
L 103.6224 104.211948 
L 112.2156 100.998029 
L 118.4652 98.92386 
L 123.543 97.448839 
L 127.8396 96.414279 
L 132.1362 95.606494 
L 137.214 94.894551 
L 155.9628 92.533146 
L 160.65 91.596456 
L 165.7278 90.346892 
L 178.227 87.121503 
L 182.9142 86.243156 
L 187.2108 85.659267 
L 191.5074 85.303756 
L 195.804 85.167843 
L 202.0536 85.225742 
L 211.0374 85.303155 
L 215.7246 85.1036 
L 221.193 84.62825 
L 232.5204 83.568384 
L 236.4264 83.470359 
L 239.9418 83.606358 
L 243.4572 83.966533 
L 246.9726 84.541872 
L 250.488 85.328026 
L 254.394 86.446518 
L 258.6906 87.924113 
L 268.8462 91.528048 
L 273.5334 92.908233 
L 277.83 93.938572 
L 281.3454 94.569808 
L 285.2514 95.031023 
L 289.548 95.30489 
L 296.9694 95.505594 
L 305.172 95.783912 
L 311.031 96.201209 
L 316.89 96.834392 
L 323.1396 97.740412 
L 334.467 99.45463 
L 339.9354 100.008533 
L 345.0132 100.30411 
L 350.8722 100.406836 
L 366.1056 100.524174 
L 370.7928 100.842632 
L 375.48 101.377533 
L 380.5578 102.181855 
L 386.0262 103.279206 
L 393.8382 105.12023 
L 400.4784 106.590698 
L 407.8998 107.972739 
L 415.7118 109.481978 
L 420.399 110.613224 
L 424.305 111.776646 
L 427.8204 113.068968 
L 430.9452 114.478386 
L 433.6794 115.954616 
L 436.4136 117.673968 
L 439.5384 119.920312 
L 443.0538 122.751211 
L 446.5692 125.863843 
L 450.0846 129.288688 
L 453.2094 132.662412 
L 453.6 133.108719 
L 453.6 133.108719 
" style="fill:none;stroke:#8454ff;stroke-linecap:square;stroke-width:2;"/>
   </g>
   <g id="line2d_6">
    <path clip-path="url(#p4ec45fd166)" d="M 63 114.548573 
L 65.3436 116.682762 
L 67.2966 118.166869 
L 69.2496 119.366235 
L 71.2026 120.297473 
L 73.1556 120.995543 
L 75.4992 121.587383 
L 78.2334 122.034378 
L 81.3582 122.324998 
L 84.483 122.393491 
L 87.2172 122.20807 
L 89.5608 121.817435 
L 91.9044 121.199652 
L 94.6386 120.241501 
L 99.7164 118.407257 
L 101.6694 117.976954 
L 103.6224 117.808207 
L 105.5754 117.895404 
L 107.919 118.255328 
L 111.825 119.13759 
L 119.2464 121.005565 
L 121.9806 121.926003 
L 124.7148 123.075852 
L 134.0892 127.318208 
L 136.4328 128.024515 
L 138.7764 128.510324 
L 141.12 128.768517 
L 143.4636 128.798318 
L 145.8072 128.609247 
L 148.5414 128.147014 
L 151.6662 127.374262 
L 155.1816 126.280496 
L 159.4782 124.703019 
L 164.1654 122.98483 
L 166.1184 122.469453 
L 168.0714 122.191243 
L 169.6338 122.174145 
L 171.1962 122.342562 
L 173.1492 122.781662 
L 175.4928 123.551514 
L 179.3988 125.123729 
L 185.2578 127.726105 
L 195.4134 132.425181 
L 197.757 133.133954 
L 200.1006 133.58126 
L 202.4442 133.763072 
L 204.7878 133.681677 
L 207.1314 133.334925 
L 209.475 132.727996 
L 212.2092 131.753752 
L 217.6776 129.718402 
L 220.0212 129.144843 
L 222.3648 128.83555 
L 224.7084 128.792914 
L 226.6614 128.967417 
L 228.6144 129.351989 
L 230.5674 129.971135 
L 232.5204 130.839053 
L 234.4734 131.940191 
L 237.2076 133.764233 
L 246.1914 139.994208 
L 254.7846 145.571906 
L 256.7376 146.529259 
L 258.3 147.066676 
L 259.8624 147.360981 
L 261.4248 147.407077 
L 262.9872 147.230891 
L 264.9402 146.770453 
L 267.6744 145.855713 
L 271.5804 144.301994 
L 274.7052 142.856266 
L 277.4394 141.336676 
L 280.9548 139.061769 
L 284.4702 136.842194 
L 286.8138 135.647653 
L 288.7668 134.886355 
L 290.7198 134.335873 
L 293.0634 133.92813 
L 295.407 133.764695 
L 297.7506 133.818078 
L 300.4848 134.117114 
L 303.6096 134.692408 
L 309.4686 136.060182 
L 321.9678 139.017311 
L 324.3114 139.284475 
L 326.2644 139.312913 
L 328.608 139.100156 
L 330.9516 138.66018 
L 334.467 137.737178 
L 340.326 135.920677 
L 347.3568 133.743161 
L 350.091 133.141549 
L 352.4346 132.830841 
L 354.7782 132.721817 
L 357.5124 132.837221 
L 360.2466 133.197229 
L 362.9808 133.79266 
L 365.715 134.608085 
L 369.2304 135.895484 
L 376.6518 138.68592 
L 382.5108 140.567141 
L 386.8074 141.749578 
L 389.151 142.191852 
L 391.104 142.364872 
L 393.057 142.323573 
L 395.01 142.07671 
L 397.7442 141.491861 
L 402.822 140.345663 
L 405.1656 140.03552 
L 407.5092 139.943824 
L 409.8528 140.090612 
L 412.1964 140.473824 
L 414.54 141.074741 
L 417.2742 142.023974 
L 419.6178 143.051161 
L 421.9614 144.312022 
L 423.9144 145.585788 
L 425.8674 147.105069 
L 427.8204 148.900499 
L 429.7734 150.977392 
L 432.117 153.78464 
L 438.3666 161.490541 
L 440.7102 163.881511 
L 443.835 166.665582 
L 446.9598 169.526655 
L 448.9128 171.622929 
L 450.8658 174.044617 
L 453.6 177.861367 
L 453.6 177.861367 
" style="fill:none;stroke:#8454ff;stroke-dasharray:7.4,3.2;stroke-dashoffset:0;stroke-width:2;"/>
   </g>
   <g id="patch_3">
    <path d="M 63 220.5 
L 63 30.24 
" style="fill:none;stroke:#000000;stroke-linecap:square;stroke-linejoin:miter;stroke-width:0.8;"/>
   </g>
   <g id="patch_4">
    <path d="M 453.6 220.5 
L 453.6 30.24 
" style="fill:none;stroke:#000000;stroke-linecap:square;stroke-linejoin:miter;stroke-width:0.8;"/>
   </g>
   <g id="patch_5">
    <path d="M 63 220.5 
L 453.6 220.5 
" style="fill:none;stroke:#000000;stroke-linecap:square;stroke-linejoin:miter;stroke-width:0.8;"/>
   </g>
   <g id="patch_6">
    <path d="M 63 30.24 
L 453.6 30.24 
" style="fill:none;stroke:#000000;stroke-linecap:square;stroke-linejoin:miter;stroke-width:0.8;"/>
   </g>
  </g>
 </g>
 <defs>
  <clipPath id="p4ec45fd166">
   <rect height="190.26" width="390.6" x="63" y="30.24"/>
  </clipPath>
 </defs>
</svg>
