<?xml version="1.0" encoding="utf-8" standalone="no"?>
<!DOCTYPE svg PUBLIC "-//W3C//DTD SVG 1.1//EN"
  "http://www.w3.org/Graphics/SVG/1.1/DTD/svg11.dtd">
<!-- Created with matplotlib (https://matplotlib.org/) -->
<svg height="252pt" version="1.1" viewBox="0 0 504 252" width="504pt" xmlns="http://www.w3.org/2000/svg" xmlns:xlink="http://www.w3.org/1999/xlink">
 <defs>
  <style type="text/css">
*{stroke-linecap:butt;stroke-linejoin:round;}
  </style>
 </defs>
 <g id="figure_1">
  <g id="patch_1">
   <path d="M 0 252 
L 504 252 
L 504 0 
L 0 0 
z
" style="fill:none;"/>
  </g>
  <g id="axes_1">
   <g id="patch_2">
    <path d="M 63 220.5 
L 453.6 220.5 
L 453.6 30.24 
L 63 30.24 
z
" style="fill:none;"/>
   </g>
   <g id="matplotlib.axis_1">
    <g id="xtick_1"/>
    <g id="xtick_2"/>
    <g id="xtick_3"/>
    <g id="xtick_4"/>
    <g id="xtick_5"/>
    <g id="xtick_6"/>
   </g>
   <g id="matplotlib.axis_2">
    <g id="ytick_1"/>
    <g id="ytick_2"/>
    <g id="ytick_3"/>
    <g id="ytick_4"/>
    <g id="ytick_5"/>
    <g id="ytick_6"/>
    <g id="ytick_7"/>
    <g id="ytick_8"/>
   </g>
   <g id="line2d_1">
    <path clip-path="url(#pc55e091f47)" d="M 63 128.521843 
L 65.7342 125.199465 
L 68.4684 122.223193 
L 71.5932 119.141363 
L 75.1086 115.971621 
L 78.624 113.066714 
L 82.1394 110.450038 
L 85.2642 108.39522 
L 88.7796 106.373292 
L 92.6856 104.40098 
L 98.154 101.914465 
L 105.1848 98.959697 
L 121.59 92.253453 
L 127.0584 89.614624 
L 134.8704 85.570804 
L 140.3388 82.513645 
L 145.4166 79.401852 
L 159.4782 70.573734 
L 167.2902 66.03912 
L 171.5868 63.779306 
L 175.1022 62.175785 
L 178.6176 60.82254 
L 182.133 59.704264 
L 185.6484 58.80259 
L 189.1638 58.1191 
L 192.6792 57.671053 
L 196.1946 57.467076 
L 199.71 57.492766 
L 203.616 57.762463 
L 207.522 58.271543 
L 211.428 59.019066 
L 215.7246 60.083752 
L 221.9742 61.894832 
L 229.005 64.140025 
L 245.4102 69.586323 
L 250.488 70.856041 
L 255.1752 71.798612 
L 259.0812 72.371868 
L 262.9872 72.709922 
L 266.8932 72.816046 
L 271.1898 72.711192 
L 276.6582 72.334915 
L 289.548 71.325484 
L 295.0164 71.185443 
L 300.4848 71.270701 
L 305.5626 71.565181 
L 311.031 72.109917 
L 316.1088 72.846963 
L 320.4054 73.701407 
L 324.3114 74.705631 
L 328.608 76.052297 
L 334.0764 78.025926 
L 340.7166 80.675082 
L 351.2628 84.944589 
L 355.1688 86.238292 
L 359.0748 87.310699 
L 363.3714 88.26314 
L 367.668 88.999571 
L 371.9646 89.522232 
L 376.6518 89.861891 
L 382.1202 90.016497 
L 389.151 89.967504 
L 400.869 89.841698 
L 405.5562 90.04666 
L 409.0716 90.403401 
L 412.1964 90.922081 
L 415.3212 91.667573 
L 418.446 92.656269 
L 421.5708 93.893889 
L 424.305 95.194045 
L 427.0392 96.726542 
L 429.7734 98.535984 
L 432.117 100.34559 
L 434.4606 102.420714 
L 436.8042 104.770554 
L 439.5384 107.845889 
L 442.2726 111.251203 
L 445.3974 115.530966 
L 448.1316 119.654278 
L 450.8658 124.218994 
L 453.2094 128.562863 
L 453.6 129.329821 
L 453.6 129.329821 
" style="fill:none;stroke:#257352;stroke-linecap:square;stroke-width:2;"/>
   </g>
   <g id="line2d_2">
    <path clip-path="url(#pc55e091f47)" d="M 63 78.207191 
L 64.953 82.265431 
L 66.5154 85.095031 
L 68.0778 87.529254 
L 69.6402 89.588343 
L 71.2026 91.324609 
L 73.1556 93.158586 
L 80.9676 100.012548 
L 87.6078 106.599653 
L 89.5608 108.101035 
L 91.5138 109.287601 
L 93.4668 110.175174 
L 95.4198 110.816594 
L 98.154 111.447245 
L 106.7472 113.012501 
L 109.4814 113.280469 
L 111.4344 113.273884 
L 113.3874 113.071121 
L 115.3404 112.67186 
L 117.684 111.9723 
L 126.2772 109.127089 
L 129.402 108.557905 
L 134.0892 107.755494 
L 136.4328 107.125872 
L 138.7764 106.282564 
L 145.4166 103.683429 
L 146.979 103.37211 
L 148.5414 103.268234 
L 150.1038 103.362804 
L 152.0568 103.69378 
L 159.8688 105.284173 
L 164.556 105.980115 
L 166.509 106.532398 
L 168.0714 107.184033 
L 170.0244 108.280272 
L 171.9774 109.640459 
L 175.8834 112.724644 
L 179.7894 115.690119 
L 184.4766 118.896142 
L 188.7732 121.911055 
L 194.2416 126.113851 
L 197.757 128.684907 
L 201.2724 130.982656 
L 211.0374 136.92547 
L 213.381 138.15146 
L 215.334 138.959379 
L 217.287 139.549952 
L 219.6306 140.030526 
L 228.6144 141.611188 
L 232.1298 142.252689 
L 234.0828 142.392817 
L 236.0358 142.284411 
L 237.9888 141.914652 
L 240.3324 141.196152 
L 244.629 139.547349 
L 254.7846 135.510724 
L 257.5188 134.049793 
L 261.8154 131.413399 
L 265.3308 129.351141 
L 268.065 127.981137 
L 270.7992 126.832886 
L 273.5334 125.902395 
L 275.877 125.309655 
L 277.83 125.003982 
L 279.783 124.903775 
L 281.736 125.015443 
L 284.0796 125.385957 
L 287.2044 126.125737 
L 294.6258 128.187932 
L 301.266 130.232688 
L 314.5464 134.549353 
L 317.2806 135.775414 
L 320.4054 137.440074 
L 326.655 140.887782 
L 328.9986 141.879715 
L 331.7328 142.765459 
L 335.6388 143.736255 
L 340.326 144.687159 
L 342.6696 144.93999 
L 344.6226 144.901747 
L 346.185 144.656436 
L 347.7474 144.206841 
L 349.7004 143.386435 
L 352.044 142.139268 
L 359.0748 138.21347 
L 363.3714 136.184336 
L 374.6988 131.180909 
L 377.8236 130.071604 
L 380.9484 129.179707 
L 384.4638 128.41073 
L 387.5886 127.930882 
L 390.3228 127.706132 
L 393.057 127.717744 
L 395.4006 127.943577 
L 397.7442 128.373302 
L 400.0878 129.005459 
L 402.4314 129.8517 
L 404.775 130.944396 
L 406.728 132.074415 
L 408.681 133.423172 
L 411.0246 135.321886 
L 414.1494 138.207521 
L 420.399 144.380662 
L 423.1332 147.297842 
L 425.4768 150.131931 
L 427.4298 152.844466 
L 429.3828 155.930702 
L 431.7264 160.106157 
L 435.6324 167.693088 
L 438.7572 173.523046 
L 441.4914 178.140872 
L 445.0068 184.023283 
L 446.9598 187.775003 
L 448.5222 191.244723 
L 450.0846 195.21612 
L 452.0376 200.884048 
L 453.6 205.85148 
L 453.6 205.85148 
" style="fill:none;stroke:#257352;stroke-dasharray:7.4,3.2;stroke-dashoffset:0;stroke-width:2;"/>
   </g>
   <g id="line2d_3">
    <path clip-path="url(#pc55e091f47)" d="M 63 128.521843 
L 66.1248 125.361824 
L 69.2496 122.526087 
L 72.3744 119.977338 
L 76.2804 117.096452 
L 82.1394 113.111824 
L 100.107 101.232891 
L 103.2318 99.557866 
L 106.3566 98.132211 
L 110.6532 96.449364 
L 117.2934 93.867762 
L 121.9806 91.768086 
L 129.0114 88.577083 
L 132.5268 87.264741 
L 136.0422 86.204034 
L 141.12 84.950545 
L 146.5884 83.55147 
L 150.885 82.203766 
L 161.0406 78.87065 
L 164.556 78.005037 
L 168.462 77.273552 
L 179.0082 75.47188 
L 183.6954 74.337157 
L 191.5074 72.391322 
L 194.6322 71.862642 
L 198.1476 71.509718 
L 209.8656 70.608046 
L 213.381 69.92836 
L 220.4118 68.477015 
L 223.146 68.192359 
L 225.8802 68.155404 
L 228.6144 68.362055 
L 231.7392 68.839537 
L 244.2384 71.060236 
L 250.8786 72.011218 
L 254.0034 72.69171 
L 257.1282 73.61503 
L 261.0342 75.045063 
L 266.8932 77.206706 
L 270.018 78.117001 
L 273.1428 78.802102 
L 277.0488 79.413104 
L 283.689 80.405796 
L 287.595 81.247006 
L 299.7036 84.08576 
L 302.8284 84.450636 
L 306.3438 84.616565 
L 317.6712 84.90641 
L 321.5772 85.352239 
L 331.7328 86.684376 
L 336.0294 86.8958 
L 344.6226 87.202703 
L 348.138 87.603842 
L 352.4346 88.337402 
L 359.4654 89.550466 
L 363.3714 89.971059 
L 367.668 90.190523 
L 375.8706 90.530281 
L 379.386 90.932155 
L 383.292 91.622536 
L 389.151 92.949447 
L 394.6194 94.101462 
L 401.2596 95.194633 
L 405.1656 95.964322 
L 408.2904 96.823902 
L 411.0246 97.805041 
L 414.1494 99.167131 
L 420.0084 102.04726 
L 427.4298 105.580255 
L 431.7264 107.737159 
L 434.4606 109.338002 
L 437.1948 111.211405 
L 439.929 113.393207 
L 442.6632 115.872635 
L 445.788 119.024907 
L 448.9128 122.475829 
L 452.4282 126.705368 
L 453.6 128.200239 
L 453.6 128.200239 
" style="fill:none;stroke:#ff6e54;stroke-linecap:square;stroke-width:2;"/>
   </g>
   <g id="line2d_4">
    <path clip-path="url(#pc55e091f47)" d="M 63 86.97887 
L 70.0308 95.863475 
L 71.9838 97.849234 
L 73.9368 99.490622 
L 75.4992 100.53845 
L 77.0616 101.346333 
L 78.624 101.920416 
L 80.1864 102.277814 
L 82.1394 102.463937 
L 84.483 102.405963 
L 91.9044 101.92603 
L 93.4668 102.129937 
L 95.0292 102.570194 
L 96.5916 103.294939 
L 98.154 104.32591 
L 99.7164 105.642293 
L 102.06 107.980266 
L 105.1848 111.092947 
L 106.7472 112.340983 
L 107.919 113.060359 
L 109.0908 113.570659 
L 110.2626 113.865923 
L 111.4344 113.952179 
L 112.6062 113.845383 
L 114.1686 113.445552 
L 116.1216 112.643465 
L 120.8088 110.521853 
L 122.3712 110.162655 
L 123.543 110.111147 
L 124.7148 110.270002 
L 125.8866 110.642026 
L 127.0584 111.212635 
L 128.6208 112.229299 
L 130.9644 114.094244 
L 134.4798 116.91407 
L 136.0422 117.927295 
L 137.6046 118.690577 
L 139.167 119.156162 
L 140.3388 119.293056 
L 141.5106 119.245235 
L 143.073 118.910076 
L 144.6354 118.314204 
L 146.979 117.131868 
L 149.7132 115.789504 
L 151.2756 115.253938 
L 152.838 114.975684 
L 154.4004 114.981346 
L 155.9628 115.266401 
L 157.5252 115.805143 
L 159.4782 116.774999 
L 161.8218 118.241357 
L 166.1184 121.043742 
L 167.6808 121.823837 
L 169.2432 122.353147 
L 170.8056 122.588703 
L 172.368 122.525474 
L 173.9304 122.194609 
L 175.8834 121.493747 
L 179.0082 120.045947 
L 181.7424 118.86437 
L 183.3048 118.386565 
L 184.8672 118.141091 
L 186.039 118.147017 
L 187.2108 118.337717 
L 188.3826 118.722634 
L 189.5544 119.298173 
L 191.1168 120.327093 
L 193.4604 122.238432 
L 196.5852 124.788423 
L 198.1476 125.774887 
L 199.3194 126.30946 
L 200.4912 126.640589 
L 201.663 126.75446 
L 202.8348 126.646319 
L 204.0066 126.319988 
L 205.1784 125.788296 
L 206.7408 124.801866 
L 208.6938 123.25796 
L 211.428 121.042147 
L 212.5998 120.296812 
L 213.7716 119.790607 
L 214.9434 119.584329 
L 215.7246 119.631449 
L 216.8964 119.985414 
L 218.0682 120.663394 
L 219.24 121.626646 
L 220.8024 123.261929 
L 222.7554 125.67406 
L 227.8332 132.188194 
L 229.3956 133.844817 
L 230.958 135.167177 
L 232.1298 135.891407 
L 233.3016 136.361954 
L 234.4734 136.57395 
L 235.6452 136.541976 
L 236.817 136.300415 
L 238.3794 135.742032 
L 243.0666 133.837722 
L 244.629 133.545708 
L 245.8008 133.525477 
L 246.9726 133.694842 
L 248.1444 134.061997 
L 249.3162 134.626875 
L 250.8786 135.670354 
L 252.441 136.996114 
L 255.1752 139.69317 
L 257.1282 141.539699 
L 258.6906 142.710959 
L 259.8624 143.313302 
L 261.0342 143.634743 
L 262.206 143.661483 
L 263.3778 143.403376 
L 264.5496 142.889601 
L 266.112 141.880948 
L 268.065 140.265877 
L 273.1428 135.787318 
L 274.7052 134.750756 
L 275.877 134.186742 
L 277.0488 133.840441 
L 278.2206 133.72945 
L 279.3924 133.853644 
L 280.5642 134.192641 
L 282.1266 134.908326 
L 284.8608 136.509727 
L 287.2044 137.772508 
L 288.7668 138.377602 
L 290.3292 138.721218 
L 291.501 138.785454 
L 292.6728 138.673786 
L 293.8446 138.382105 
L 295.407 137.715587 
L 296.9694 136.751801 
L 298.9224 135.20532 
L 304.7814 130.173634 
L 306.3438 129.287231 
L 307.5156 128.847554 
L 308.6874 128.610715 
L 309.8592 128.572682 
L 311.031 128.720203 
L 312.5934 129.170496 
L 314.1558 129.855628 
L 316.4994 131.169567 
L 320.4054 133.419491 
L 321.9678 134.062845 
L 323.1396 134.364624 
L 324.3114 134.482207 
L 325.4832 134.404198 
L 326.655 134.135892 
L 328.2174 133.522355 
L 330.1704 132.47555 
L 334.0764 130.294513 
L 335.6388 129.675888 
L 337.2012 129.316397 
L 338.373 129.245112 
L 339.5448 129.355938 
L 340.7166 129.650154 
L 342.279 130.309998 
L 343.8414 131.222494 
L 349.7004 135.030109 
L 351.2628 135.612517 
L 352.4346 135.840071 
L 353.6064 135.884182 
L 355.1688 135.673621 
L 356.7312 135.194107 
L 358.6842 134.301541 
L 361.4184 132.730271 
L 364.9338 130.729742 
L 366.4962 130.060626 
L 368.0586 129.631795 
L 369.2304 129.500166 
L 370.4022 129.544609 
L 371.574 129.765081 
L 373.1364 130.312341 
L 374.6988 131.100658 
L 377.0424 132.580802 
L 382.1202 135.916907 
L 384.0732 136.8759 
L 385.6356 137.397741 
L 387.198 137.656215 
L 388.7604 137.630602 
L 390.3228 137.33233 
L 392.2758 136.660269 
L 396.5724 134.994179 
L 398.1348 134.703725 
L 399.3066 134.690483 
L 400.4784 134.877081 
L 401.6502 135.273688 
L 402.822 135.880497 
L 404.3844 136.999595 
L 405.9468 138.428471 
L 407.8998 140.529225 
L 411.8058 144.869132 
L 413.3682 146.254422 
L 414.54 147.046288 
L 415.7118 147.598195 
L 416.8836 147.909858 
L 418.0554 148.003546 
L 419.6178 147.86159 
L 421.9614 147.343458 
L 424.305 146.875646 
L 425.8674 146.800525 
L 427.0392 146.941631 
L 428.211 147.289806 
L 429.3828 147.870323 
L 430.5546 148.698744 
L 431.7264 149.778898 
L 433.2888 151.591288 
L 434.8512 153.76638 
L 437.1948 157.462471 
L 441.1008 163.676964 
L 443.4444 166.948477 
L 446.1786 170.307645 
L 453.6 179.076973 
L 453.6 179.076973 
" style="fill:none;stroke:#ff6e54;stroke-dasharray:7.4,3.2;stroke-dashoffset:0;stroke-width:2;"/>
   </g>
   <g id="line2d_5">
    <path clip-path="url(#pc55e091f47)" d="M 63 128.521843 
L 66.1248 123.758832 
L 69.2496 119.417079 
L 72.765 114.912843 
L 76.671 110.25831 
L 80.577 105.941495 
L 84.0924 102.369255 
L 87.9984 98.712374 
L 103.2318 85.114126 
L 107.1378 81.859543 
L 110.6532 79.241013 
L 114.1686 76.911879 
L 118.0746 74.588114 
L 123.1524 71.844586 
L 129.7926 68.539124 
L 140.3388 63.317971 
L 151.2756 57.727627 
L 154.791 56.276119 
L 158.3064 55.059816 
L 162.9936 53.6896 
L 174.321 50.483638 
L 180.5706 48.427754 
L 193.0698 44.213158 
L 196.5852 43.345009 
L 200.1006 42.707479 
L 204.3972 42.168023 
L 214.9434 40.964582 
L 221.9742 39.777402 
L 226.2708 39.155618 
L 229.3956 38.911809 
L 232.1298 38.926506 
L 234.4734 39.15028 
L 236.817 39.58324 
L 239.5512 40.335776 
L 242.676 41.457975 
L 246.582 43.122901 
L 253.2222 46.256643 
L 258.6906 48.740163 
L 262.206 50.100752 
L 266.112 51.363485 
L 277.0488 54.687667 
L 281.3454 56.375623 
L 289.9386 59.862955 
L 293.8446 61.149206 
L 297.36 62.058682 
L 300.4848 62.647861 
L 304.0002 63.067796 
L 307.9062 63.298514 
L 320.0148 63.827169 
L 323.9208 64.302879 
L 328.608 65.111301 
L 338.7636 66.94896 
L 343.8414 67.605174 
L 350.8722 68.251553 
L 357.903 68.963289 
L 362.5902 69.653356 
L 367.668 70.624621 
L 380.1672 73.131185 
L 394.2288 75.601774 
L 397.7442 76.568013 
L 400.869 77.646007 
L 403.9938 78.951366 
L 407.1186 80.497703 
L 410.2434 82.281513 
L 414.1494 84.780556 
L 422.352 90.398334 
L 427.4298 94.049699 
L 430.5546 96.551136 
L 433.2888 99.020842 
L 436.023 101.826452 
L 438.7572 105.002559 
L 441.4914 108.550132 
L 444.2256 112.463217 
L 446.9598 116.761891 
L 449.694 121.506684 
L 452.0376 125.994239 
L 453.6 129.227337 
L 453.6 129.227337 
" style="fill:none;stroke:#8454ff;stroke-linecap:square;stroke-width:2;"/>
   </g>
   <g id="line2d_6">
    <path clip-path="url(#pc55e091f47)" d="M 63 65.998128 
L 65.3436 70.454298 
L 67.2966 73.713335 
L 68.859 75.955621 
L 70.4214 77.879662 
L 72.3744 79.908534 
L 74.718 81.988556 
L 79.4052 86.049305 
L 85.6548 91.735675 
L 87.2172 92.771468 
L 88.7796 93.513812 
L 90.342 93.943318 
L 91.9044 94.077046 
L 93.4668 93.968001 
L 96.201 93.471551 
L 98.154 93.188178 
L 99.7164 93.200814 
L 100.8882 93.418435 
L 102.06 93.840981 
L 103.2318 94.470007 
L 104.7942 95.595129 
L 106.7472 97.334181 
L 112.6062 102.835481 
L 114.5592 104.316842 
L 116.5122 105.550584 
L 118.8558 106.737074 
L 121.1994 107.670492 
L 123.9336 108.528204 
L 126.6678 109.176362 
L 129.0114 109.537981 
L 131.355 109.671266 
L 133.6986 109.544081 
L 136.0422 109.168578 
L 143.073 107.744571 
L 144.6354 107.78541 
L 146.1978 108.102883 
L 147.7602 108.718677 
L 149.3226 109.608918 
L 151.2756 111.005844 
L 157.1346 115.420841 
L 159.0876 116.517071 
L 160.65 117.178649 
L 162.2124 117.639172 
L 163.7748 117.901742 
L 165.7278 117.973463 
L 167.6808 117.807161 
L 170.415 117.304974 
L 181.7424 114.871003 
L 184.086 114.671332 
L 186.039 114.733304 
L 187.6014 114.989148 
L 189.1638 115.462614 
L 190.7262 116.164026 
L 192.6792 117.330033 
L 195.4134 119.308407 
L 198.9288 121.857363 
L 200.8818 123.02629 
L 202.8348 123.915256 
L 204.3972 124.393964 
L 205.9596 124.651238 
L 207.522 124.682564 
L 209.0844 124.495934 
L 211.0374 123.99941 
L 214.1622 122.872816 
L 216.5058 122.108786 
L 218.0682 121.789042 
L 219.6306 121.683386 
L 221.193 121.820398 
L 222.7554 122.215261 
L 224.3178 122.879135 
L 225.8802 123.824709 
L 227.4426 125.0658 
L 229.005 126.610706 
L 230.5674 128.450637 
L 232.5204 131.102646 
L 238.77 140.043615 
L 240.3324 141.820834 
L 241.8948 143.302172 
L 243.4572 144.499373 
L 245.0196 145.444352 
L 246.582 146.172544 
L 248.535 146.816703 
L 250.0974 147.12892 
L 251.6598 147.248906 
L 253.2222 147.152034 
L 254.7846 146.811533 
L 256.347 146.213776 
L 257.9094 145.374094 
L 259.8624 144.069542 
L 264.159 141.096255 
L 265.7214 140.295722 
L 267.2838 139.759707 
L 268.4556 139.55324 
L 269.6274 139.521769 
L 270.7992 139.66459 
L 272.3616 140.112003 
L 273.924 140.815273 
L 276.2676 142.190082 
L 279.3924 144.031944 
L 280.9548 144.675358 
L 282.1266 144.958574 
L 283.2984 145.052856 
L 284.4702 144.960711 
L 286.0326 144.576758 
L 287.595 143.948007 
L 289.548 142.908904 
L 291.8916 141.407035 
L 294.6258 139.407095 
L 298.1412 136.546641 
L 302.8284 132.722015 
L 304.7814 131.412552 
L 306.3438 130.585002 
L 307.9062 129.98351 
L 309.4686 129.616568 
L 311.031 129.478395 
L 312.5934 129.554754 
L 314.1558 129.827614 
L 316.1088 130.414629 
L 318.0618 131.232244 
L 320.796 132.641591 
L 324.702 134.687657 
L 326.655 135.458596 
L 328.2174 135.867636 
L 329.7798 136.073788 
L 331.3422 136.085779 
L 333.2952 135.867618 
L 335.6388 135.35083 
L 338.7636 134.405962 
L 345.0132 132.460128 
L 347.3568 132.007169 
L 349.3098 131.844424 
L 351.2628 131.896023 
L 353.2158 132.151894 
L 355.5594 132.68857 
L 358.2936 133.551571 
L 366.8868 136.510618 
L 368.8398 136.845509 
L 370.7928 136.93646 
L 372.7458 136.786423 
L 375.0894 136.356811 
L 382.9014 134.669913 
L 384.8544 134.568398 
L 386.8074 134.714013 
L 388.3698 135.03731 
L 389.9322 135.557728 
L 391.8852 136.48201 
L 393.8382 137.677616 
L 396.1818 139.38956 
L 399.3066 141.986722 
L 402.822 145.201048 
L 410.2434 152.184002 
L 411.8058 153.332555 
L 413.3682 154.225772 
L 414.9306 154.837448 
L 416.493 155.18845 
L 418.446 155.367605 
L 421.9614 155.598087 
L 423.5238 155.936497 
L 424.6956 156.369749 
L 425.8674 156.991068 
L 427.0392 157.823774 
L 428.211 158.883658 
L 429.7734 160.661521 
L 431.3358 162.84512 
L 433.2888 166.072863 
L 435.6324 170.453239 
L 446.1786 191.163594 
L 448.1316 195.756365 
L 450.0846 200.998809 
L 452.4282 208.100151 
L 453.6 211.851818 
L 453.6 211.851818 
" style="fill:none;stroke:#8454ff;stroke-dasharray:7.4,3.2;stroke-dashoffset:0;stroke-width:2;"/>
   </g>
   <g id="patch_3">
    <path d="M 63 220.5 
L 63 30.24 
" style="fill:none;stroke:#000000;stroke-linecap:square;stroke-linejoin:miter;stroke-width:0.8;"/>
   </g>
   <g id="patch_4">
    <path d="M 453.6 220.5 
L 453.6 30.24 
" style="fill:none;stroke:#000000;stroke-linecap:square;stroke-linejoin:miter;stroke-width:0.8;"/>
   </g>
   <g id="patch_5">
    <path d="M 63 220.5 
L 453.6 220.5 
" style="fill:none;stroke:#000000;stroke-linecap:square;stroke-linejoin:miter;stroke-width:0.8;"/>
   </g>
   <g id="patch_6">
    <path d="M 63 30.24 
L 453.6 30.24 
" style="fill:none;stroke:#000000;stroke-linecap:square;stroke-linejoin:miter;stroke-width:0.8;"/>
   </g>
  </g>
 </g>
 <defs>
  <clipPath id="pc55e091f47">
   <rect height="190.26" width="390.6" x="63" y="30.24"/>
  </clipPath>
 </defs>
</svg>
