<?xml version="1.0" encoding="utf-8" standalone="no"?>
<!DOCTYPE svg PUBLIC "-//W3C//DTD SVG 1.1//EN"
  "http://www.w3.org/Graphics/SVG/1.1/DTD/svg11.dtd">
<!-- Created with matplotlib (https://matplotlib.org/) -->
<svg height="252pt" version="1.1" viewBox="0 0 504 252" width="504pt" xmlns="http://www.w3.org/2000/svg" xmlns:xlink="http://www.w3.org/1999/xlink">
 <defs>
  <style type="text/css">
*{stroke-linecap:butt;stroke-linejoin:round;}
  </style>
 </defs>
 <g id="figure_1">
  <g id="patch_1">
   <path d="M 0 252 
L 504 252 
L 504 0 
L 0 0 
z
" style="fill:none;"/>
  </g>
  <g id="axes_1">
   <g id="patch_2">
    <path d="M 63 220.5 
L 453.6 220.5 
L 453.6 30.24 
L 63 30.24 
z
" style="fill:none;"/>
   </g>
   <g id="matplotlib.axis_1">
    <g id="xtick_1"/>
    <g id="xtick_2"/>
    <g id="xtick_3"/>
    <g id="xtick_4"/>
    <g id="xtick_5"/>
    <g id="xtick_6"/>
   </g>
   <g id="matplotlib.axis_2">
    <g id="ytick_1"/>
    <g id="ytick_2"/>
    <g id="ytick_3"/>
    <g id="ytick_4"/>
    <g id="ytick_5"/>
    <g id="ytick_6"/>
    <g id="ytick_7"/>
    <g id="ytick_8"/>
    <g id="ytick_9"/>
    <g id="ytick_10"/>
   </g>
   <g id="line2d_1">
    <path clip-path="url(#p0a97876d7d)" d="M 63 210.278112 
L 63.7812 209.493339 
L 64.5624 208.401788 
L 65.7342 206.267504 
L 67.2966 202.74833 
L 70.812 194.358318 
L 71.9838 192.176689 
L 72.765 191.06226 
L 73.5462 190.272379 
L 74.3274 189.839962 
L 75.1086 189.78436 
L 75.8898 190.109084 
L 76.671 190.800099 
L 77.4522 191.825055 
L 78.624 193.874415 
L 80.577 198.044102 
L 82.1394 201.28981 
L 83.3112 203.247502 
L 84.0924 204.211321 
L 84.8736 204.858384 
L 85.6548 205.172669 
L 86.436 205.156935 
L 87.2172 204.831274 
L 87.9984 204.230918 
L 89.1702 202.92254 
L 91.1232 200.167247 
L 92.6856 198.063236 
L 93.8574 196.899585 
L 94.6386 196.431974 
L 95.4198 196.264752 
L 96.201 196.429327 
L 96.9822 196.941093 
L 97.7634 197.797333 
L 98.5446 198.975995 
L 99.7164 201.25298 
L 101.6694 205.837776 
L 103.6224 210.259271 
L 104.7942 212.294563 
L 105.5754 213.26248 
L 106.3566 213.874835 
L 107.1378 214.114484 
L 107.919 213.982262 
L 108.7002 213.495281 
L 109.4814 212.684566 
L 110.2626 211.592367 
L 111.4344 209.539 
L 113.3874 205.49866 
L 115.3404 201.508693 
L 116.5122 199.505374 
L 117.684 197.982491 
L 118.4652 197.286697 
L 119.2464 196.867154 
L 120.0276 196.727294 
L 120.8088 196.856856 
L 121.59 197.231679 
L 122.7618 198.168626 
L 124.3242 199.835676 
L 126.2772 201.873187 
L 127.449 202.695106 
L 128.2302 202.970649 
L 129.0114 202.989101 
L 129.7926 202.732119 
L 130.5738 202.195265 
L 131.355 201.387502 
L 132.5268 199.717496 
L 133.6986 197.604383 
L 136.0422 192.711144 
L 137.6046 189.585621 
L 138.7764 187.658764 
L 139.5576 186.679137 
L 140.3388 185.999946 
L 141.12 185.659059 
L 141.9012 185.681965 
L 142.6824 186.079193 
L 143.4636 186.844178 
L 144.2448 187.951944 
L 145.4166 190.156338 
L 146.979 193.752983 
L 149.3226 199.179123 
L 150.4944 201.297986 
L 151.2756 202.345056 
L 152.0568 203.058047 
L 152.838 203.423112 
L 153.6192 203.445356 
L 154.4004 203.147198 
L 155.1816 202.566017 
L 156.3534 201.274719 
L 157.9158 199.095948 
L 159.8688 196.411807 
L 161.0406 195.227511 
L 161.8218 194.73747 
L 162.603 194.538617 
L 163.3842 194.66012 
L 164.1654 195.115019 
L 164.9466 195.898297 
L 165.7278 196.985857 
L 166.8996 199.088846 
L 168.8526 203.279701 
L 170.415 206.493148 
L 171.5868 208.385112 
L 172.368 209.274804 
L 173.1492 209.814723 
L 173.9304 209.980238 
L 174.7116 209.764848 
L 175.4928 209.178968 
L 176.274 208.247952 
L 177.0552 207.009668 
L 178.227 204.682859 
L 179.7894 201.007953 
L 182.5236 194.430109 
L 183.6954 192.099675 
L 184.8672 190.324179 
L 185.6484 189.513987 
L 186.4296 189.031546 
L 187.2108 188.886054 
L 187.992 189.070978 
L 188.7732 189.563125 
L 189.5544 190.322692 
L 190.7262 191.839195 
L 193.851 196.314958 
L 194.6322 197.109417 
L 195.4134 197.64247 
L 196.1946 197.871679 
L 196.9758 197.771733 
L 197.757 197.334985 
L 198.5382 196.570938 
L 199.3194 195.504958 
L 200.4912 193.42953 
L 202.0536 190.069274 
L 204.3972 184.912558 
L 205.569 182.861374 
L 206.3502 181.870649 
L 207.1314 181.264247 
L 207.9126 181.101309 
L 208.3032 181.200501 
L 209.0844 181.778396 
L 209.8656 182.8696 
L 210.6468 184.459643 
L 211.428 186.50553 
L 212.5998 190.265056 
L 216.8964 205.163024 
L 217.6776 207.018961 
L 218.4588 208.400144 
L 219.24 209.278467 
L 220.0212 209.654279 
L 220.4118 209.660925 
L 221.193 209.338219 
L 221.9742 208.616094 
L 222.7554 207.565063 
L 223.9272 205.549829 
L 227.052 199.698885 
L 228.2238 198.135629 
L 229.005 197.474657 
L 229.7862 197.173776 
L 230.5674 197.260714 
L 231.3486 197.742862 
L 232.1298 198.605346 
L 232.911 199.810312 
L 234.0828 202.12339 
L 237.5982 209.818528 
L 238.3794 211.049885 
L 239.1606 211.92966 
L 239.9418 212.40885 
L 240.723 212.460102 
L 241.5042 212.077331 
L 242.2854 211.274004 
L 243.0666 210.080573 
L 244.2384 207.659342 
L 245.4102 204.656565 
L 250.488 190.767689 
L 251.2692 189.313912 
L 252.0504 188.218563 
L 252.8316 187.522745 
L 253.6128 187.252752 
L 254.394 187.417167 
L 255.1752 188.004473 
L 255.9564 188.981636 
L 256.7376 190.294144 
L 257.9094 192.724909 
L 261.0342 199.598783 
L 261.8154 200.877481 
L 262.5966 201.826083 
L 263.3778 202.401306 
L 264.159 202.582799 
L 264.9402 202.372769 
L 265.7214 201.79431 
L 266.5026 200.888858 
L 267.6744 199.045279 
L 269.6274 195.299864 
L 271.1898 192.467413 
L 271.971 191.349437 
L 272.7522 190.54188 
L 273.5334 190.118037 
L 273.924 190.069389 
L 274.3146 190.137858 
L 274.7052 190.328098 
L 275.4864 191.085324 
L 276.2676 192.347827 
L 277.0488 194.094481 
L 278.2206 197.503591 
L 279.783 203.041384 
L 282.1266 211.472362 
L 283.2984 214.832269 
L 284.0796 216.536214 
L 284.8608 217.748951 
L 285.642 218.449338 
L 286.0326 218.608238 
L 286.4232 218.643137 
L 286.8138 218.558378 
L 287.595 218.053049 
L 288.3762 217.148101 
L 289.1574 215.91146 
L 290.3292 213.601707 
L 294.2352 205.19546 
L 295.407 203.398991 
L 296.1882 202.559945 
L 296.9694 202.043521 
L 297.7506 201.86315 
L 298.5318 202.015362 
L 299.313 202.479062 
L 300.0942 203.215791 
L 301.266 204.710179 
L 304.7814 209.64005 
L 305.5626 210.334526 
L 306.3438 210.749634 
L 307.125 210.84984 
L 307.9062 210.616339 
L 308.6874 210.04683 
L 309.4686 209.154369 
L 310.2498 207.965615 
L 311.4216 205.713018 
L 312.984 202.100925 
L 316.1088 194.619716 
L 317.2806 192.381351 
L 318.0618 191.219041 
L 318.843 190.37495 
L 319.6242 189.883926 
L 320.4054 189.767641 
L 321.1866 190.032263 
L 321.9678 190.666632 
L 322.749 191.641317 
L 323.9208 193.633133 
L 325.4832 196.909716 
L 327.4362 201.052197 
L 328.608 203.066832 
L 329.3892 204.078342 
L 330.1704 204.777423 
L 330.9516 205.144997 
L 331.7328 205.180903 
L 332.514 204.902606 
L 333.2952 204.343093 
L 334.467 203.079916 
L 336.0294 200.917998 
L 337.9824 198.212834 
L 339.1542 196.998974 
L 339.9354 196.487352 
L 340.7166 196.269805 
L 341.4978 196.380063 
L 342.279 196.836227 
L 343.0602 197.638574 
L 343.8414 198.768165 
L 345.0132 200.987124 
L 346.5756 204.587947 
L 348.9192 210.008435 
L 350.091 212.109703 
L 350.8722 213.131425 
L 351.6534 213.802037 
L 352.4346 214.101439 
L 353.2158 214.027693 
L 353.997 213.595465 
L 354.7782 212.833738 
L 355.5594 211.78316 
L 356.7312 209.775946 
L 358.6842 205.764476 
L 361.0278 201.018502 
L 362.1996 199.112792 
L 363.3714 197.715139 
L 364.1526 197.112266 
L 364.9338 196.78831 
L 365.715 196.742105 
L 366.4962 196.958638 
L 367.2774 197.409109 
L 368.4492 198.429273 
L 372.3552 202.387809 
L 373.1364 202.816157 
L 373.9176 203.007023 
L 374.6988 202.932985 
L 375.48 202.58045 
L 376.2612 201.949635 
L 377.0424 201.053849 
L 378.2142 199.271282 
L 379.7766 196.283947 
L 383.292 189.107426 
L 384.4638 187.294008 
L 385.245 186.411841 
L 386.0262 185.844233 
L 386.8074 185.62514 
L 387.5886 185.775228 
L 388.3698 186.299408 
L 389.151 187.184936 
L 389.9322 188.400468 
L 391.104 190.729421 
L 393.057 195.345943 
L 394.6194 198.921695 
L 395.7912 201.10233 
L 396.5724 202.20003 
L 397.3536 202.967659 
L 398.1348 203.388271 
L 398.916 203.464036 
L 399.6972 203.21476 
L 400.4784 202.675616 
L 401.2596 201.894452 
L 402.4314 200.39702 
L 405.5562 196.103002 
L 406.3374 195.32976 
L 407.1186 194.796981 
L 407.8998 194.549414 
L 408.681 194.618579 
L 409.4622 195.02023 
L 410.2434 195.752324 
L 411.0246 196.793824 
L 412.1964 198.843675 
L 414.1494 203.006727 
L 415.7118 206.260054 
L 416.8836 208.213726 
L 417.6648 209.155629 
L 418.446 209.753381 
L 419.2272 209.979421 
L 420.0084 209.824415 
L 420.7896 209.296203 
L 421.5708 208.417914 
L 422.352 207.225592 
L 423.5238 204.952049 
L 425.0862 201.314379 
L 428.211 193.860372 
L 429.3828 191.642254 
L 430.164 190.482103 
L 430.9452 189.621524 
L 431.7264 189.085881 
L 432.5076 188.88674 
L 433.2888 189.020156 
L 434.07 189.465617 
L 434.8512 190.185913 
L 436.023 191.662334 
L 439.5384 196.611719 
L 440.3196 197.32288 
L 441.1008 197.756334 
L 441.882 197.875344 
L 442.6632 197.660617 
L 443.4444 197.11045 
L 444.2256 196.239927 
L 445.0068 195.079432 
L 446.1786 192.893968 
L 448.1316 188.571887 
L 450.0846 184.398012 
L 451.2564 182.48481 
L 452.0376 181.61762 
L 452.8188 181.156362 
L 453.2094 181.095562 
L 453.6 181.155406 
L 453.6 181.155406 
" style="fill:none;stroke:#8cbfb9;stroke-linecap:square;stroke-width:4;"/>
   </g>
   <g id="line2d_2">
    <path clip-path="url(#p0a97876d7d)" d="M 63 210.324181 
L 63.019475 -1 
M 63.76151 -1 
L 63.7812 212.780778 
L 64.1718 210.311744 
L 64.5624 208.618308 
L 64.953 207.919017 
L 65.7342 206.118648 
L 67.6872 201.58446 
L 70.4214 195.071086 
L 71.5932 192.757226 
L 72.765 191.031087 
L 73.5462 190.27651 
L 74.3274 189.873013 
L 75.1086 189.84222 
L 75.8898 190.162797 
L 76.671 190.855116 
L 77.4522 191.867316 
L 78.624 193.896749 
L 80.577 198.039455 
L 82.1394 201.266591 
L 83.3112 203.215987 
L 84.0924 204.176833 
L 84.8736 204.823403 
L 85.6548 205.137152 
L 86.436 205.120458 
L 87.2172 204.797936 
L 87.9984 204.202357 
L 89.1702 202.900035 
L 91.1232 200.154275 
L 92.6856 198.057988 
L 93.8574 196.896462 
L 94.6386 196.428742 
L 95.4198 196.2621 
L 96.201 196.42728 
L 96.9822 196.937413 
L 97.7634 197.793983 
L 98.5446 198.973931 
L 99.7164 201.250067 
L 101.6694 205.831535 
L 103.6224 210.253001 
L 104.7942 212.287227 
L 105.5754 213.254086 
L 106.3566 213.866762 
L 107.1378 214.106545 
L 107.919 213.972885 
L 108.7002 213.485181 
L 109.4814 212.677194 
L 110.6532 210.950552 
L 112.2156 207.971457 
L 115.731 200.794075 
L 116.9028 198.937762 
L 117.684 197.982582 
L 118.4652 197.286677 
L 119.2464 196.867082 
L 120.0276 196.72773 
L 120.8088 196.857203 
L 121.59 197.230907 
L 122.7618 198.166976 
L 124.3242 199.830608 
L 126.2772 201.867951 
L 127.449 202.688824 
L 128.2302 202.963696 
L 129.0114 202.981957 
L 129.7926 202.725733 
L 130.5738 202.189429 
L 131.355 201.381392 
L 132.5268 199.713159 
L 133.6986 197.601655 
L 136.0422 192.712279 
L 137.6046 189.589185 
L 138.7764 187.663484 
L 139.5576 186.686358 
L 140.3388 186.006842 
L 141.12 185.66491 
L 141.9012 185.689437 
L 142.6824 186.085235 
L 143.4636 186.848704 
L 144.2448 187.955251 
L 145.4166 190.157202 
L 146.979 193.752167 
L 149.3226 199.173372 
L 150.4944 201.290124 
L 151.2756 202.337208 
L 152.0568 203.049687 
L 152.838 203.414735 
L 153.6192 203.438111 
L 154.4004 203.140827 
L 155.1816 202.561547 
L 156.3534 201.272343 
L 157.9158 199.098689 
L 159.8688 196.417847 
L 161.0406 195.23675 
L 161.8218 194.747131 
L 162.603 194.550848 
L 163.3842 194.671773 
L 164.1654 195.127311 
L 164.9466 195.909876 
L 165.7278 196.996689 
L 166.8996 199.096627 
L 168.8526 203.279231 
L 170.415 206.486092 
L 171.5868 208.373026 
L 172.368 209.260511 
L 173.1492 209.799548 
L 173.9304 209.963592 
L 174.7116 209.747185 
L 175.4928 209.161788 
L 176.274 208.23148 
L 177.0552 206.99483 
L 178.227 204.670458 
L 179.7894 201.000976 
L 182.5236 194.431862 
L 183.6954 192.104343 
L 184.8672 190.331903 
L 185.6484 189.522858 
L 186.4296 189.042551 
L 187.2108 188.897437 
L 187.992 189.082101 
L 188.7732 189.572862 
L 189.5544 190.328262 
L 190.7262 191.841344 
L 193.851 196.313128 
L 194.6322 197.106367 
L 195.4134 197.639794 
L 196.1946 197.869543 
L 196.9758 197.769217 
L 197.757 197.33414 
L 198.5382 196.570466 
L 199.3194 195.506056 
L 200.4912 193.432609 
L 202.0536 190.073638 
L 204.3972 184.916371 
L 205.569 182.866375 
L 206.3502 181.879133 
L 207.1314 181.270053 
L 207.9126 181.109481 
L 208.3032 181.207538 
L 209.0844 181.786859 
L 209.8656 182.87801 
L 210.6468 184.467321 
L 211.428 186.512068 
L 212.5998 190.268879 
L 216.8964 205.150804 
L 217.6776 207.005044 
L 218.4588 208.385164 
L 219.24 209.263288 
L 220.0212 209.639821 
L 220.4118 209.647242 
L 221.193 209.32631 
L 221.9742 208.606364 
L 222.7554 207.558225 
L 223.9272 205.547389 
L 227.052 199.705732 
L 228.2238 198.145107 
L 229.005 197.485523 
L 229.7862 197.184137 
L 230.5674 197.270795 
L 231.3486 197.75244 
L 232.1298 198.613873 
L 232.911 199.817752 
L 234.0828 202.12761 
L 237.5982 209.813897 
L 238.3794 211.041554 
L 239.1606 211.92134 
L 239.9418 212.400395 
L 240.723 212.451241 
L 241.5042 212.06858 
L 242.2854 211.265987 
L 243.0666 210.073682 
L 244.2384 207.653997 
L 245.4102 204.652896 
L 248.1444 196.710426 
L 249.7068 192.534487 
L 250.8786 190.008889 
L 251.6598 188.72913 
L 252.441 187.830908 
L 253.2222 187.346688 
L 254.0034 187.293874 
L 254.7846 187.671973 
L 255.5658 188.458068 
L 256.347 189.610301 
L 257.5188 191.874593 
L 261.4248 200.26955 
L 262.206 201.388565 
L 262.9872 202.153451 
L 263.7684 202.531524 
L 264.5496 202.515675 
L 265.3308 202.11852 
L 266.112 201.369943 
L 266.8932 200.322858 
L 268.065 198.331787 
L 271.5804 191.880643 
L 272.3616 190.91109 
L 273.1428 190.288134 
L 273.924 190.081192 
L 274.3146 190.150231 
L 274.7052 190.340595 
L 275.4864 191.098061 
L 276.2676 192.360148 
L 277.0488 194.105761 
L 278.2206 197.511727 
L 279.783 203.044337 
L 282.1266 211.46843 
L 283.2984 214.826315 
L 284.0796 216.529271 
L 284.8608 217.741709 
L 285.642 218.442801 
L 286.0326 218.6022 
L 286.4232 218.637824 
L 287.2044 218.355281 
L 287.9856 217.64314 
L 288.7668 216.564399 
L 289.9386 214.418699 
L 291.8916 210.096486 
L 293.8446 205.915244 
L 295.0164 203.92935 
L 295.7976 202.93928 
L 296.5788 202.258263 
L 297.36 201.906871 
L 298.1412 201.894726 
L 298.9224 202.205074 
L 299.7036 202.810041 
L 300.8754 204.163707 
L 302.8284 207.042094 
L 304.3908 209.194941 
L 305.172 210.01059 
L 305.9532 210.571789 
L 306.7344 210.834152 
L 307.5156 210.769918 
L 308.2968 210.369624 
L 309.078 209.637361 
L 309.8592 208.594082 
L 311.031 206.518259 
L 312.5934 203.046168 
L 316.4994 193.823648 
L 317.6712 191.773448 
L 318.4524 190.767869 
L 319.2336 190.097203 
L 320.0148 189.79343 
L 320.796 189.868137 
L 321.5772 190.320489 
L 322.3584 191.128337 
L 323.1396 192.25526 
L 324.3114 194.414919 
L 328.608 203.059499 
L 329.3892 204.068021 
L 330.1704 204.765984 
L 330.9516 205.133382 
L 331.7328 205.168945 
L 332.514 204.891793 
L 333.2952 204.333643 
L 334.467 203.07284 
L 336.0294 200.91492 
L 337.9824 198.216248 
L 339.1542 197.003029 
L 339.9354 196.490908 
L 340.7166 196.272802 
L 341.4978 196.383375 
L 342.279 196.839896 
L 343.0602 197.642082 
L 343.8414 198.770615 
L 345.0132 200.988752 
L 346.5756 204.588062 
L 348.9192 210.004863 
L 350.091 212.104078 
L 350.8722 213.124834 
L 351.6534 213.794551 
L 352.4346 214.093659 
L 353.2158 214.019912 
L 353.997 213.587777 
L 354.7782 212.827134 
L 355.5594 211.777442 
L 356.7312 209.772019 
L 358.6842 205.765933 
L 360.6372 201.747329 
L 361.809 199.703284 
L 362.9808 198.124406 
L 363.762 197.385599 
L 364.5432 196.922071 
L 365.3244 196.737818 
L 366.1056 196.825306 
L 366.8868 197.162179 
L 367.668 197.714707 
L 368.8398 198.837331 
L 371.9646 202.094039 
L 372.7458 202.627472 
L 373.527 202.93981 
L 374.3082 203.000757 
L 375.0894 202.788608 
L 375.8706 202.295938 
L 376.6518 201.530275 
L 377.433 200.512003 
L 378.6048 198.577781 
L 380.1672 195.4703 
L 382.9014 189.822364 
L 384.0732 187.846445 
L 384.8544 186.822651 
L 385.6356 186.094252 
L 386.4168 185.697255 
L 387.198 185.660887 
L 387.9792 185.998581 
L 388.7604 186.705436 
L 389.5416 187.759768 
L 390.7134 189.900764 
L 392.2758 193.453944 
L 394.6194 198.919523 
L 395.7912 201.098703 
L 396.5724 202.195178 
L 397.3536 202.962877 
L 398.1348 203.3835 
L 398.916 203.459114 
L 399.6972 203.210885 
L 400.4784 202.672425 
L 401.2596 201.892361 
L 402.4314 200.397679 
L 405.5562 196.111554 
L 406.3374 195.340833 
L 407.1186 194.809926 
L 407.8998 194.562493 
L 408.681 194.63366 
L 409.4622 195.035245 
L 410.2434 195.766801 
L 411.0246 196.807506 
L 412.1964 198.854126 
L 414.1494 203.009523 
L 415.7118 206.25635 
L 416.8836 208.203754 
L 417.6648 209.144254 
L 418.446 209.739952 
L 419.2272 209.961683 
L 420.0084 209.806668 
L 420.7896 209.277183 
L 421.5708 208.398166 
L 422.352 207.20726 
L 423.5238 204.940241 
L 425.0862 201.312218 
L 428.211 193.877177 
L 429.3828 191.661857 
L 430.5546 190.036422 
L 431.3358 189.341926 
L 432.117 188.975467 
L 432.8982 188.940351 
L 433.6794 189.229724 
L 434.4606 189.814604 
L 435.6324 191.14799 
L 437.5854 194.016478 
L 439.1478 196.185896 
L 439.929 197.011843 
L 440.7102 197.5878 
L 441.4914 197.865869 
L 442.2726 197.81536 
L 443.0538 197.429425 
L 443.835 196.715067 
L 444.6162 195.693373 
L 445.788 193.669971 
L 447.3504 190.349469 
L 450.0846 184.39705 
L 451.2564 182.48383 
L 452.0376 181.616393 
L 452.8188 181.154349 
L 453.6 181.10723 
L 453.6 181.10723 
" style="fill:none;stroke:#000000;stroke-dasharray:7.4,3.2;stroke-dashoffset:0;stroke-width:2;"/>
    <defs>
     <path d="M -2.5 2.5 
L 2.5 2.5 
L 2.5 -2.5 
L -2.5 -2.5 
z
" id="m7adb4a7662" style="stroke:#000000;stroke-linejoin:miter;"/>
    </defs>
    <g clip-path="url(#p0a97876d7d)">
     <use style="fill:#ffffff;stroke:#000000;stroke-linejoin:miter;" x="63" xlink:href="#m7adb4a7662" y="210.324181"/>
     <use style="fill:#ffffff;stroke:#000000;stroke-linejoin:miter;" x="82.53" xlink:href="#m7adb4a7662" y="201.977126"/>
     <use style="fill:#ffffff;stroke:#000000;stroke-linejoin:miter;" x="102.06" xlink:href="#m7adb4a7662" y="206.773616"/>
     <use style="fill:#ffffff;stroke:#000000;stroke-linejoin:miter;" x="121.59" xlink:href="#m7adb4a7662" y="197.230907"/>
     <use style="fill:#ffffff;stroke:#000000;stroke-linejoin:miter;" x="141.12" xlink:href="#m7adb4a7662" y="185.66491"/>
     <use style="fill:#ffffff;stroke:#000000;stroke-linejoin:miter;" x="160.65" xlink:href="#m7adb4a7662" y="195.577131"/>
     <use style="fill:#ffffff;stroke:#000000;stroke-linejoin:miter;" x="180.18" xlink:href="#m7adb4a7662" y="200.031661"/>
     <use style="fill:#ffffff;stroke:#000000;stroke-linejoin:miter;" x="199.71" xlink:href="#m7adb4a7662" y="194.871224"/>
     <use style="fill:#ffffff;stroke:#000000;stroke-linejoin:miter;" x="219.24" xlink:href="#m7adb4a7662" y="209.263288"/>
     <use style="fill:#ffffff;stroke:#000000;stroke-linejoin:miter;" x="238.77" xlink:href="#m7adb4a7662" y="211.530826"/>
     <use style="fill:#ffffff;stroke:#000000;stroke-linejoin:miter;" x="258.3" xlink:href="#m7adb4a7662" y="193.617947"/>
     <use style="fill:#ffffff;stroke:#000000;stroke-linejoin:miter;" x="277.83" xlink:href="#m7adb4a7662" y="196.283926"/>
     <use style="fill:#ffffff;stroke:#000000;stroke-linejoin:miter;" x="297.36" xlink:href="#m7adb4a7662" y="201.906871"/>
     <use style="fill:#ffffff;stroke:#000000;stroke-linejoin:miter;" x="316.89" xlink:href="#m7adb4a7662" y="193.076863"/>
     <use style="fill:#ffffff;stroke:#000000;stroke-linejoin:miter;" x="336.42" xlink:href="#m7adb4a7662" y="200.34844"/>
     <use style="fill:#ffffff;stroke:#000000;stroke-linejoin:miter;" x="355.95" xlink:href="#m7adb4a7662" y="211.160001"/>
     <use style="fill:#ffffff;stroke:#000000;stroke-linejoin:miter;" x="375.48" xlink:href="#m7adb4a7662" y="202.576876"/>
     <use style="fill:#ffffff;stroke:#000000;stroke-linejoin:miter;" x="395.01" xlink:href="#m7adb4a7662" y="199.708421"/>
     <use style="fill:#ffffff;stroke:#000000;stroke-linejoin:miter;" x="414.54" xlink:href="#m7adb4a7662" y="203.861426"/>
     <use style="fill:#ffffff;stroke:#000000;stroke-linejoin:miter;" x="434.07" xlink:href="#m7adb4a7662" y="189.489387"/>
     <use style="fill:#ffffff;stroke:#000000;stroke-linejoin:miter;" x="453.6" xlink:href="#m7adb4a7662" y="181.10723"/>
    </g>
   </g>
   <g id="line2d_3">
    <path clip-path="url(#p0a97876d7d)" d="M 63 177.793096 
L 67.2966 177.552855 
L 70.812 177.590725 
L 75.4992 177.911251 
L 80.1864 178.181741 
L 83.7018 178.155503 
L 93.0762 177.935945 
L 101.6694 178.004446 
L 105.5754 177.689635 
L 112.6062 177.054979 
L 116.5122 176.966523 
L 137.6046 177.148151 
L 142.6824 177.642067 
L 146.979 178.001389 
L 150.4944 178.061141 
L 161.4312 178.009033 
L 168.0714 178.190017 
L 171.5868 178.034464 
L 179.7894 177.54205 
L 183.3048 177.625575 
L 188.3826 178.024876 
L 193.0698 178.332852 
L 203.616 178.815934 
L 207.1314 179.362392 
L 212.5998 180.265654 
L 214.9434 180.402226 
L 217.287 180.327642 
L 222.3648 179.846281 
L 225.8802 179.657852 
L 229.7862 179.697059 
L 234.4734 179.733591 
L 237.5982 179.523397 
L 246.582 178.709138 
L 249.3162 178.772187 
L 252.8316 179.095497 
L 258.6906 179.69183 
L 261.8154 179.753626 
L 270.4086 179.745355 
L 274.7052 180.137127 
L 278.2206 180.394487 
L 280.5642 180.348851 
L 282.9078 180.090045 
L 287.2044 179.32548 
L 290.7198 178.791607 
L 293.8446 178.529897 
L 298.5318 178.400973 
L 303.6096 178.194402 
L 314.1558 177.540769 
L 317.6712 177.666698 
L 327.4362 178.192595 
L 332.514 178.016599 
L 337.5918 177.923388 
L 348.138 177.943226 
L 352.4346 177.536369 
L 357.5124 177.083207 
L 361.4184 176.966671 
L 368.0586 177.068963 
L 373.527 177.032632 
L 380.1672 176.999786 
L 384.0732 177.23191 
L 394.6194 178.064315 
L 399.3066 177.978133 
L 404.3844 177.933968 
L 416.1024 178.092715 
L 426.6486 177.549102 
L 430.164 177.717764 
L 440.3196 178.386928 
L 447.3504 178.642132 
L 450.4752 179.012569 
L 453.6 179.55653 
L 453.6 179.55653 
" style="fill:none;stroke:#da888e;stroke-linecap:square;stroke-width:4;"/>
   </g>
   <g id="line2d_4">
    <path clip-path="url(#p0a97876d7d)" d="M 63 177.799709 
L 63.3906 171.288481 
L 63.7812 177.741693 
L 67.2966 177.550031 
L 70.812 177.586431 
L 75.4992 177.910007 
L 80.1864 178.179028 
L 83.7018 178.151907 
L 93.0762 177.934306 
L 101.6694 178.000667 
L 105.5754 177.687116 
L 112.6062 177.053436 
L 116.5122 176.96502 
L 137.6046 177.147051 
L 142.6824 177.640316 
L 146.979 177.998573 
L 150.4944 178.058849 
L 161.4312 178.007147 
L 168.0714 178.187862 
L 171.5868 178.032786 
L 179.7894 177.541088 
L 183.3048 177.624316 
L 188.3826 178.02517 
L 193.4604 178.343849 
L 202.8348 178.726674 
L 205.9596 179.155031 
L 213.381 180.331157 
L 215.7246 180.39523 
L 218.4588 180.228667 
L 225.4896 179.66416 
L 229.3956 179.684118 
L 234.4734 179.729736 
L 237.5982 179.519729 
L 246.582 178.708492 
L 249.7068 178.795537 
L 253.2222 179.139563 
L 258.6906 179.688572 
L 261.8154 179.751221 
L 270.4086 179.743528 
L 274.7052 180.134769 
L 278.2206 180.391384 
L 280.5642 180.344966 
L 282.9078 180.086265 
L 287.595 179.254055 
L 291.1104 178.746718 
L 294.6258 178.492715 
L 306.7344 177.936824 
L 312.2028 177.567047 
L 315.7182 177.569136 
L 320.0148 177.835629 
L 325.4832 178.17634 
L 328.9986 178.156746 
L 338.7636 177.939866 
L 346.9662 178.006801 
L 350.4816 177.739723 
L 358.2936 177.040493 
L 362.1996 176.966099 
L 377.433 176.965919 
L 381.7296 177.064577 
L 386.0262 177.419002 
L 392.6664 178.010959 
L 396.1818 178.055168 
L 406.3374 177.987108 
L 414.1494 178.174335 
L 418.0554 177.95549 
L 424.305 177.556474 
L 427.8204 177.58167 
L 431.7264 177.841122 
L 438.3666 178.323599 
L 449.3034 178.848052 
L 452.8188 179.407353 
L 453.6 179.579198 
L 453.6 179.579198 
" style="fill:none;stroke:#000000;stroke-dasharray:7.4,3.2;stroke-dashoffset:0;stroke-width:2;"/>
    <defs>
     <path d="M 0 -2.5 
L -2.165064 -1.25 
L -2.165064 1.25 
L -0 2.5 
L 2.165064 1.25 
L 2.165064 -1.25 
z
" id="mfbf8852bdc" style="stroke:#000000;stroke-linejoin:miter;"/>
    </defs>
    <g clip-path="url(#p0a97876d7d)">
     <use style="fill:#ffffff;stroke:#000000;stroke-linejoin:miter;" x="63" xlink:href="#mfbf8852bdc" y="177.799709"/>
     <use style="fill:#ffffff;stroke:#000000;stroke-linejoin:miter;" x="82.53" xlink:href="#mfbf8852bdc" y="178.182099"/>
     <use style="fill:#ffffff;stroke:#000000;stroke-linejoin:miter;" x="102.06" xlink:href="#mfbf8852bdc" y="177.980176"/>
     <use style="fill:#ffffff;stroke:#000000;stroke-linejoin:miter;" x="121.59" xlink:href="#mfbf8852bdc" y="177.050756"/>
     <use style="fill:#ffffff;stroke:#000000;stroke-linejoin:miter;" x="141.12" xlink:href="#mfbf8852bdc" y="177.473072"/>
     <use style="fill:#ffffff;stroke:#000000;stroke-linejoin:miter;" x="160.65" xlink:href="#mfbf8852bdc" y="177.978014"/>
     <use style="fill:#ffffff;stroke:#000000;stroke-linejoin:miter;" x="180.18" xlink:href="#mfbf8852bdc" y="177.539194"/>
     <use style="fill:#ffffff;stroke:#000000;stroke-linejoin:miter;" x="199.71" xlink:href="#mfbf8852bdc" y="178.500131"/>
     <use style="fill:#ffffff;stroke:#000000;stroke-linejoin:miter;" x="219.24" xlink:href="#mfbf8852bdc" y="180.152674"/>
     <use style="fill:#ffffff;stroke:#000000;stroke-linejoin:miter;" x="238.77" xlink:href="#mfbf8852bdc" y="179.394038"/>
     <use style="fill:#ffffff;stroke:#000000;stroke-linejoin:miter;" x="258.3" xlink:href="#mfbf8852bdc" y="179.66559"/>
     <use style="fill:#ffffff;stroke:#000000;stroke-linejoin:miter;" x="277.83" xlink:href="#mfbf8852bdc" y="180.378525"/>
     <use style="fill:#ffffff;stroke:#000000;stroke-linejoin:miter;" x="297.36" xlink:href="#mfbf8852bdc" y="178.420282"/>
     <use style="fill:#ffffff;stroke:#000000;stroke-linejoin:miter;" x="316.89" xlink:href="#mfbf8852bdc" y="177.619338"/>
     <use style="fill:#ffffff;stroke:#000000;stroke-linejoin:miter;" x="336.42" xlink:href="#mfbf8852bdc" y="177.918528"/>
     <use style="fill:#ffffff;stroke:#000000;stroke-linejoin:miter;" x="355.95" xlink:href="#mfbf8852bdc" y="177.191144"/>
     <use style="fill:#ffffff;stroke:#000000;stroke-linejoin:miter;" x="375.48" xlink:href="#mfbf8852bdc" y="176.990131"/>
     <use style="fill:#ffffff;stroke:#000000;stroke-linejoin:miter;" x="395.01" xlink:href="#mfbf8852bdc" y="178.063291"/>
     <use style="fill:#ffffff;stroke:#000000;stroke-linejoin:miter;" x="414.54" xlink:href="#mfbf8852bdc" y="178.162602"/>
     <use style="fill:#ffffff;stroke:#000000;stroke-linejoin:miter;" x="434.07" xlink:href="#mfbf8852bdc" y="178.04664"/>
     <use style="fill:#ffffff;stroke:#000000;stroke-linejoin:miter;" x="453.6" xlink:href="#mfbf8852bdc" y="179.579198"/>
    </g>
   </g>
   <g id="line2d_5">
    <path clip-path="url(#p0a97876d7d)" d="M 63 132.039257 
L 68.859 131.974861 
L 71.9838 131.682808 
L 78.624 130.927504 
L 80.9676 130.934979 
L 83.7018 131.176433 
L 89.1702 131.735436 
L 91.5138 131.73923 
L 94.248 131.52276 
L 99.7164 131.000837 
L 101.6694 131.064622 
L 103.6224 131.341483 
L 105.966 131.917118 
L 110.6532 133.402121 
L 114.5592 134.522216 
L 126.2772 137.635439 
L 130.5738 138.868635 
L 133.308 139.417569 
L 135.6516 139.666011 
L 137.9952 139.690519 
L 140.3388 139.500964 
L 143.073 139.063242 
L 152.0568 137.409853 
L 158.3064 136.721434 
L 163.7748 136.258651 
L 166.1184 136.259333 
L 168.462 136.479836 
L 170.8056 136.920968 
L 175.4928 138.118268 
L 178.6176 138.796222 
L 181.3518 139.159289 
L 184.086 139.284162 
L 187.2108 139.181589 
L 193.0698 138.681405 
L 203.2254 137.707605 
L 209.8656 136.877073 
L 211.8186 136.884696 
L 213.7716 137.130358 
L 215.7246 137.620242 
L 218.4588 138.59696 
L 223.5366 140.490946 
L 226.2708 141.232108 
L 228.6144 141.654046 
L 231.3486 141.899683 
L 234.0828 141.899917 
L 236.817 141.686674 
L 239.9418 141.219754 
L 243.0666 140.522735 
L 245.8008 139.695278 
L 248.535 138.628768 
L 251.2692 137.320559 
L 258.6906 133.565826 
L 260.6436 132.925175 
L 262.5966 132.504771 
L 265.3308 132.176148 
L 270.7992 131.59078 
L 274.7052 130.8575 
L 277.83 130.341873 
L 279.783 130.23005 
L 281.736 130.337309 
L 284.0796 130.701309 
L 289.1574 131.587639 
L 291.501 131.72945 
L 293.8446 131.646451 
L 297.36 131.258252 
L 300.4848 130.977033 
L 302.8284 131.010393 
L 305.172 131.310052 
L 307.9062 131.910606 
L 313.7652 133.260308 
L 316.89 133.704647 
L 327.8268 134.955486 
L 332.1234 135.581957 
L 334.467 135.708051 
L 336.8106 135.602391 
L 339.1542 135.264599 
L 342.279 134.561934 
L 346.185 133.694309 
L 348.5286 133.409076 
L 350.8722 133.357953 
L 353.997 133.545663 
L 360.6372 134.01033 
L 368.0586 134.373562 
L 371.1834 134.811105 
L 379.386 136.143576 
L 381.7296 136.229935 
L 384.4638 136.086582 
L 387.9792 135.625863 
L 391.8852 135.123773 
L 394.2288 135.019123 
L 396.963 135.136304 
L 400.4784 135.539255 
L 407.5092 136.59704 
L 410.634 137.291223 
L 413.3682 138.152331 
L 416.493 139.391633 
L 421.5708 141.421413 
L 424.305 142.249952 
L 426.6486 142.750801 
L 428.9922 143.053425 
L 431.7264 143.162659 
L 434.4606 143.025729 
L 437.5854 142.610367 
L 441.1008 141.895365 
L 445.0068 140.86408 
L 448.5222 139.704752 
L 452.4282 138.158284 
L 453.6 137.672488 
L 453.6 137.672488 
" style="fill:none;stroke:#d2c095;stroke-linecap:square;stroke-width:4;"/>
   </g>
   <g id="line2d_6">
    <path clip-path="url(#p0a97876d7d)" d="M 63 146.38117 
L 63.000098 253 
M 63.780937 253 
L 63.781171 -1 
M 63.882347 -1 
L 64.1718 87.766769 
L 64.5624 126.458115 
L 64.953 128.553095 
L 65.3436 133.732987 
L 66.1248 134.247308 
L 66.906 134.224514 
L 67.2966 133.818686 
L 68.0778 133.546568 
L 68.4684 133.260933 
L 68.859 133.224532 
L 69.2496 132.919442 
L 69.6402 132.869824 
L 70.4214 132.536527 
L 75.1086 131.144697 
L 78.624 130.905137 
L 80.577 130.944044 
L 83.3112 131.18802 
L 89.5608 131.781103 
L 91.9044 131.737168 
L 95.0292 131.445434 
L 99.3258 131.026646 
L 101.2788 131.044595 
L 103.2318 131.276767 
L 105.1848 131.704071 
L 108.3096 132.648087 
L 113.3874 134.214036 
L 117.684 135.293308 
L 123.1524 136.697924 
L 132.5268 139.287552 
L 134.8704 139.608003 
L 137.214 139.707855 
L 139.5576 139.587074 
L 142.2918 139.211391 
L 147.3696 138.189532 
L 151.2756 137.520493 
L 156.744 136.885031 
L 163.7748 136.258911 
L 166.1184 136.261328 
L 168.462 136.48376 
L 170.8056 136.926685 
L 175.4928 138.125493 
L 178.6176 138.801919 
L 181.3518 139.163675 
L 184.086 139.287183 
L 187.2108 139.178843 
L 193.851 138.622346 
L 202.4442 137.815422 
L 210.2562 136.865447 
L 212.2092 136.917588 
L 214.1622 137.213328 
L 216.1152 137.74619 
L 218.8494 138.752184 
L 223.5366 140.491198 
L 226.2708 141.231928 
L 228.6144 141.653651 
L 231.3486 141.899731 
L 234.0828 141.900942 
L 236.817 141.688854 
L 239.9418 141.22268 
L 243.0666 140.525682 
L 245.8008 139.697512 
L 248.535 138.6303 
L 251.2692 137.321941 
L 258.6906 133.569006 
L 260.6436 132.928333 
L 262.5966 132.508115 
L 265.3308 132.180703 
L 270.7992 131.597167 
L 274.7052 130.86392 
L 277.83 130.346457 
L 279.783 130.233354 
L 281.736 130.34045 
L 284.0796 130.70382 
L 289.1574 131.589175 
L 291.501 131.731706 
L 293.8446 131.650132 
L 297.7506 131.21746 
L 300.4848 130.984188 
L 302.8284 131.017306 
L 305.172 131.315728 
L 307.9062 131.912657 
L 314.1558 133.33179 
L 317.2806 133.754264 
L 327.0456 134.829334 
L 332.1234 135.583309 
L 334.467 135.708519 
L 336.8106 135.603253 
L 339.1542 135.265516 
L 342.279 134.562875 
L 346.185 133.696344 
L 348.5286 133.411108 
L 350.8722 133.359129 
L 353.997 133.545816 
L 360.6372 134.01224 
L 368.0586 134.378356 
L 371.1834 134.814608 
L 379.386 136.143684 
L 381.7296 136.230586 
L 384.4638 136.08796 
L 387.9792 135.630529 
L 392.2758 135.102803 
L 394.6194 135.030384 
L 397.3536 135.177658 
L 401.2596 135.647805 
L 407.8998 136.675001 
L 410.634 137.298174 
L 413.3682 138.160556 
L 416.8836 139.563676 
L 421.1802 141.286209 
L 423.9144 142.152802 
L 426.6486 142.762646 
L 428.9922 143.07566 
L 431.7264 143.189713 
L 434.07 143.077513 
L 437.976 142.612621 
L 441.1008 141.963268 
L 443.835 141.251654 
L 447.3504 140.139332 
L 451.2564 138.570121 
L 452.4282 137.864789 
L 452.8188 137.530336 
L 453.2094 137.768546 
L 453.6 137.696428 
L 453.6 137.696428 
" style="fill:none;stroke:#000000;stroke-dasharray:7.4,3.2;stroke-dashoffset:0;stroke-width:2;"/>
    <defs>
     <path d="M -0 3.535534 
L 2.12132 0 
L -0 -3.535534 
L -2.12132 -0 
z
" id="mb5af822259" style="stroke:#000000;stroke-linejoin:miter;"/>
    </defs>
    <g clip-path="url(#p0a97876d7d)">
     <use style="fill:#ffffff;stroke:#000000;stroke-linejoin:miter;" x="63" xlink:href="#mb5af822259" y="146.38117"/>
     <use style="fill:#ffffff;stroke:#000000;stroke-linejoin:miter;" x="82.53" xlink:href="#mb5af822259" y="131.099736"/>
     <use style="fill:#ffffff;stroke:#000000;stroke-linejoin:miter;" x="102.06" xlink:href="#mb5af822259" y="131.112584"/>
     <use style="fill:#ffffff;stroke:#000000;stroke-linejoin:miter;" x="121.59" xlink:href="#mb5af822259" y="136.262485"/>
     <use style="fill:#ffffff;stroke:#000000;stroke-linejoin:miter;" x="141.12" xlink:href="#mb5af822259" y="139.399571"/>
     <use style="fill:#ffffff;stroke:#000000;stroke-linejoin:miter;" x="160.65" xlink:href="#mb5af822259" y="136.483888"/>
     <use style="fill:#ffffff;stroke:#000000;stroke-linejoin:miter;" x="180.18" xlink:href="#mb5af822259" y="139.038427"/>
     <use style="fill:#ffffff;stroke:#000000;stroke-linejoin:miter;" x="199.71" xlink:href="#mb5af822259" y="138.128433"/>
     <use style="fill:#ffffff;stroke:#000000;stroke-linejoin:miter;" x="219.24" xlink:href="#mb5af822259" y="138.906668"/>
     <use style="fill:#ffffff;stroke:#000000;stroke-linejoin:miter;" x="238.77" xlink:href="#mb5af822259" y="141.423806"/>
     <use style="fill:#ffffff;stroke:#000000;stroke-linejoin:miter;" x="258.3" xlink:href="#mb5af822259" y="133.724296"/>
     <use style="fill:#ffffff;stroke:#000000;stroke-linejoin:miter;" x="277.83" xlink:href="#mb5af822259" y="130.346457"/>
     <use style="fill:#ffffff;stroke:#000000;stroke-linejoin:miter;" x="297.36" xlink:href="#mb5af822259" y="131.264438"/>
     <use style="fill:#ffffff;stroke:#000000;stroke-linejoin:miter;" x="316.89" xlink:href="#mb5af822259" y="133.713304"/>
     <use style="fill:#ffffff;stroke:#000000;stroke-linejoin:miter;" x="336.42" xlink:href="#mb5af822259" y="135.637788"/>
     <use style="fill:#ffffff;stroke:#000000;stroke-linejoin:miter;" x="355.95" xlink:href="#mb5af822259" y="133.714867"/>
     <use style="fill:#ffffff;stroke:#000000;stroke-linejoin:miter;" x="375.48" xlink:href="#mb5af822259" y="135.616162"/>
     <use style="fill:#ffffff;stroke:#000000;stroke-linejoin:miter;" x="395.01" xlink:href="#mb5af822259" y="135.036794"/>
     <use style="fill:#ffffff;stroke:#000000;stroke-linejoin:miter;" x="414.54" xlink:href="#mb5af822259" y="138.602061"/>
     <use style="fill:#ffffff;stroke:#000000;stroke-linejoin:miter;" x="434.07" xlink:href="#mb5af822259" y="143.077513"/>
     <use style="fill:#ffffff;stroke:#000000;stroke-linejoin:miter;" x="453.6" xlink:href="#mb5af822259" y="137.696428"/>
    </g>
   </g>
   <g id="line2d_7">
    <path clip-path="url(#p0a97876d7d)" d="M 63 49.819703 
L 70.812 49.730393 
L 81.3582 49.386518 
L 93.8574 49.629926 
L 101.2788 49.418011 
L 104.4036 49.607235 
L 109.0908 50.164247 
L 116.1216 50.969049 
L 126.2772 52.058175 
L 132.1362 52.68942 
L 136.0422 52.878285 
L 139.9482 52.822462 
L 144.6354 52.503574 
L 152.4474 51.94807 
L 163.3842 51.514347 
L 167.2902 51.540054 
L 171.1962 51.808587 
L 180.9612 52.652881 
L 185.2578 52.712693 
L 191.5074 52.53225 
L 207.522 51.841693 
L 211.428 51.750188 
L 214.1622 51.88792 
L 217.287 52.264185 
L 226.2708 53.496843 
L 230.1768 53.734396 
L 234.4734 53.756683 
L 239.1606 53.547018 
L 243.8478 53.127534 
L 248.1444 52.522607 
L 252.441 51.684768 
L 258.6906 50.43033 
L 261.8154 50.063548 
L 265.7214 49.860759 
L 272.3616 49.532486 
L 279.3924 49.098052 
L 282.5172 49.178442 
L 292.6728 49.689501 
L 297.36 49.507301 
L 302.0472 49.391826 
L 305.5626 49.557141 
L 319.6242 50.586216 
L 327.0456 50.933646 
L 333.6858 51.280059 
L 337.2012 51.228555 
L 341.1072 50.942365 
L 348.138 50.379988 
L 352.044 50.365748 
L 371.1834 50.928442 
L 380.5578 51.488578 
L 384.4638 51.438633 
L 396.5724 51.046301 
L 402.822 51.35041 
L 410.2434 51.879542 
L 414.54 52.441323 
L 424.6956 53.942881 
L 428.6016 54.210643 
L 432.5076 54.263034 
L 436.8042 54.098656 
L 442.2726 53.648569 
L 448.1316 52.942229 
L 453.6 52.072995 
L 453.6 52.072995 
" style="fill:none;stroke:#e8cc5d;stroke-linecap:square;stroke-width:4;"/>
   </g>
   <g id="line2d_8">
    <path clip-path="url(#p0a97876d7d)" d="M 63 55.556468 
L 63.3906 55.556468 
L 63.7812 59.563797 
L 64.1718 54.837094 
L 64.5624 52.759143 
L 64.953 51.759812 
L 65.7342 50.818266 
L 67.2966 50.188007 
L 70.4214 49.796432 
L 71.9838 49.67921 
L 74.3274 49.480005 
L 79.4052 49.351019 
L 83.7018 49.49587 
L 89.1702 49.720634 
L 93.0762 49.667401 
L 102.4506 49.480512 
L 105.966 49.782409 
L 120.4182 51.381074 
L 127.449 52.20399 
L 132.5268 52.722763 
L 136.4328 52.886926 
L 140.3388 52.805268 
L 145.4166 52.434815 
L 152.4474 51.947564 
L 162.603 51.536543 
L 166.8996 51.528039 
L 170.8056 51.770908 
L 181.7424 52.679055 
L 186.039 52.702672 
L 193.851 52.448695 
L 205.569 51.952721 
L 210.6468 51.750738 
L 213.7716 51.859509 
L 216.8964 52.211197 
L 227.052 53.566832 
L 230.958 53.760573 
L 235.2546 53.740825 
L 239.9418 53.49322 
L 244.629 53.034555 
L 248.9256 52.38763 
L 254.0034 51.348891 
L 258.6906 50.434525 
L 261.8154 50.065634 
L 265.7214 49.858361 
L 272.3616 49.530172 
L 279.3924 49.102487 
L 282.9078 49.208823 
L 291.8916 49.694448 
L 296.1882 49.560131 
L 302.0472 49.38979 
L 305.5626 49.557254 
L 319.2336 50.570523 
L 327.0456 50.935228 
L 333.6858 51.286768 
L 337.2012 51.232621 
L 341.4978 50.911568 
L 347.7474 50.405096 
L 351.2628 50.359827 
L 358.2936 50.566592 
L 371.9646 50.986798 
L 380.1672 51.486318 
L 384.0732 51.456011 
L 391.104 51.080287 
L 395.4006 51.017207 
L 400.869 51.244595 
L 410.634 51.928333 
L 414.9306 52.501047 
L 423.9144 53.850852 
L 427.4298 54.157333 
L 432.5076 54.288721 
L 436.8042 54.105547 
L 447.741 53.071367 
L 448.9128 52.906149 
L 450.4752 52.985057 
L 450.8658 53.075063 
L 451.2564 53.410965 
L 451.647 53.989875 
L 452.0376 55.322743 
L 452.4282 59.182087 
L 452.8188 68.284861 
L 453.2094 56.043283 
L 453.6 147.905065 
L 453.6 147.905065 
" style="fill:none;stroke:#000000;stroke-dasharray:7.4,3.2;stroke-dashoffset:0;stroke-width:2;"/>
    <defs>
     <path d="M 0 -2.5 
L -2.5 2.5 
L 2.5 2.5 
z
" id="m2dcac678d0" style="stroke:#000000;stroke-linejoin:miter;"/>
    </defs>
    <g clip-path="url(#p0a97876d7d)">
     <use style="fill:#ffffff;stroke:#000000;stroke-linejoin:miter;" x="63" xlink:href="#m2dcac678d0" y="55.556468"/>
     <use style="fill:#ffffff;stroke:#000000;stroke-linejoin:miter;" x="82.53" xlink:href="#m2dcac678d0" y="49.439484"/>
     <use style="fill:#ffffff;stroke:#000000;stroke-linejoin:miter;" x="102.06" xlink:href="#m2dcac678d0" y="49.460096"/>
     <use style="fill:#ffffff;stroke:#000000;stroke-linejoin:miter;" x="121.59" xlink:href="#m2dcac678d0" y="51.503483"/>
     <use style="fill:#ffffff;stroke:#000000;stroke-linejoin:miter;" x="141.12" xlink:href="#m2dcac678d0" y="52.761641"/>
     <use style="fill:#ffffff;stroke:#000000;stroke-linejoin:miter;" x="160.65" xlink:href="#m2dcac678d0" y="51.600747"/>
     <use style="fill:#ffffff;stroke:#000000;stroke-linejoin:miter;" x="180.18" xlink:href="#m2dcac678d0" y="52.615144"/>
     <use style="fill:#ffffff;stroke:#000000;stroke-linejoin:miter;" x="199.71" xlink:href="#m2dcac678d0" y="52.251635"/>
     <use style="fill:#ffffff;stroke:#000000;stroke-linejoin:miter;" x="219.24" xlink:href="#m2dcac678d0" y="52.570877"/>
     <use style="fill:#ffffff;stroke:#000000;stroke-linejoin:miter;" x="238.77" xlink:href="#m2dcac678d0" y="53.574985"/>
     <use style="fill:#ffffff;stroke:#000000;stroke-linejoin:miter;" x="258.3" xlink:href="#m2dcac678d0" y="50.49691"/>
     <use style="fill:#ffffff;stroke:#000000;stroke-linejoin:miter;" x="277.83" xlink:href="#m2dcac678d0" y="49.143737"/>
     <use style="fill:#ffffff;stroke:#000000;stroke-linejoin:miter;" x="297.36" xlink:href="#m2dcac678d0" y="49.502178"/>
     <use style="fill:#ffffff;stroke:#000000;stroke-linejoin:miter;" x="316.89" xlink:href="#m2dcac678d0" y="50.482888"/>
     <use style="fill:#ffffff;stroke:#000000;stroke-linejoin:miter;" x="336.42" xlink:href="#m2dcac678d0" y="51.26246"/>
     <use style="fill:#ffffff;stroke:#000000;stroke-linejoin:miter;" x="355.95" xlink:href="#m2dcac678d0" y="50.49605"/>
     <use style="fill:#ffffff;stroke:#000000;stroke-linejoin:miter;" x="375.48" xlink:href="#m2dcac678d0" y="51.25495"/>
     <use style="fill:#ffffff;stroke:#000000;stroke-linejoin:miter;" x="395.01" xlink:href="#m2dcac678d0" y="51.014293"/>
     <use style="fill:#ffffff;stroke:#000000;stroke-linejoin:miter;" x="414.54" xlink:href="#m2dcac678d0" y="52.441992"/>
     <use style="fill:#ffffff;stroke:#000000;stroke-linejoin:miter;" x="434.07" xlink:href="#m2dcac678d0" y="54.259018"/>
     <use style="fill:#ffffff;stroke:#000000;stroke-linejoin:miter;" x="453.6" xlink:href="#m2dcac678d0" y="147.905065"/>
    </g>
   </g>
   <g id="patch_3">
    <path d="M 63 220.5 
L 63 30.24 
" style="fill:none;stroke:#000000;stroke-linecap:square;stroke-linejoin:miter;stroke-width:0.8;"/>
   </g>
   <g id="patch_4">
    <path d="M 453.6 220.5 
L 453.6 30.24 
" style="fill:none;stroke:#000000;stroke-linecap:square;stroke-linejoin:miter;stroke-width:0.8;"/>
   </g>
   <g id="patch_5">
    <path d="M 63 220.5 
L 453.6 220.5 
" style="fill:none;stroke:#000000;stroke-linecap:square;stroke-linejoin:miter;stroke-width:0.8;"/>
   </g>
   <g id="patch_6">
    <path d="M 63 30.24 
L 453.6 30.24 
" style="fill:none;stroke:#000000;stroke-linecap:square;stroke-linejoin:miter;stroke-width:0.8;"/>
   </g>
  </g>
 </g>
 <defs>
  <clipPath id="p0a97876d7d">
   <rect height="190.26" width="390.6" x="63" y="30.24"/>
  </clipPath>
 </defs>
</svg>
