<?xml version="1.0" encoding="utf-8" standalone="no"?>
<!DOCTYPE svg PUBLIC "-//W3C//DTD SVG 1.1//EN"
  "http://www.w3.org/Graphics/SVG/1.1/DTD/svg11.dtd">
<!-- Created with matplotlib (https://matplotlib.org/) -->
<svg height="252pt" version="1.1" viewBox="0 0 504 252" width="504pt" xmlns="http://www.w3.org/2000/svg" xmlns:xlink="http://www.w3.org/1999/xlink">
 <defs>
  <style type="text/css">
*{stroke-linecap:butt;stroke-linejoin:round;}
  </style>
 </defs>
 <g id="figure_1">
  <g id="patch_1">
   <path d="M 0 252 
L 504 252 
L 504 0 
L 0 0 
z
" style="fill:none;"/>
  </g>
  <g id="axes_1">
   <g id="patch_2">
    <path d="M 63 220.5 
L 453.6 220.5 
L 453.6 30.24 
L 63 30.24 
z
" style="fill:none;"/>
   </g>
   <g id="matplotlib.axis_1">
    <g id="xtick_1"/>
    <g id="xtick_2"/>
    <g id="xtick_3"/>
    <g id="xtick_4"/>
    <g id="xtick_5"/>
    <g id="xtick_6"/>
   </g>
   <g id="matplotlib.axis_2">
    <g id="ytick_1"/>
    <g id="ytick_2"/>
    <g id="ytick_3"/>
    <g id="ytick_4"/>
    <g id="ytick_5"/>
    <g id="ytick_6"/>
    <g id="ytick_7"/>
    <g id="ytick_8"/>
    <g id="ytick_9"/>
   </g>
   <g id="line2d_1">
    <path clip-path="url(#paad928bc6a)" d="M 63 165.71605 
L 64.5624 162.890906 
L 65.7342 161.204566 
L 66.5154 160.364223 
L 67.2966 159.787612 
L 68.0778 159.495389 
L 68.859 159.497427 
L 69.6402 159.792233 
L 70.4214 160.366894 
L 71.2026 161.197557 
L 72.3744 162.847235 
L 73.9368 165.561283 
L 77.0616 171.15096 
L 78.2334 172.775551 
L 79.4052 173.94194 
L 80.1864 174.431687 
L 80.9676 174.683757 
L 81.7488 174.704246 
L 82.53 174.509771 
L 83.3112 174.126431 
L 84.483 173.273626 
L 86.436 171.465377 
L 87.9984 170.074838 
L 89.1702 169.275251 
L 90.342 168.790172 
L 91.1232 168.666047 
L 91.9044 168.703507 
L 93.0762 169.037979 
L 94.248 169.635593 
L 97.7634 171.690885 
L 98.5446 171.902964 
L 99.3258 171.929089 
L 100.107 171.733837 
L 100.8882 171.290156 
L 101.6694 170.580829 
L 102.4506 169.599462 
L 103.6224 167.631219 
L 104.7942 165.128256 
L 106.3566 161.163911 
L 110.6532 149.704549 
L 111.825 147.26054 
L 112.9968 145.360662 
L 113.778 144.426648 
L 114.5592 143.763691 
L 115.3404 143.363532 
L 116.1216 143.207393 
L 116.9028 143.267095 
L 118.0746 143.680865 
L 119.637 144.60821 
L 121.9806 146.059287 
L 123.1524 146.521112 
L 124.3242 146.689935 
L 125.496 146.537909 
L 126.6678 146.090099 
L 128.2302 145.169048 
L 130.5738 143.711432 
L 131.7456 143.2801 
L 132.5268 143.204668 
L 133.308 143.342472 
L 134.0892 143.722378 
L 134.8704 144.363961 
L 135.6516 145.276347 
L 136.4328 146.457554 
L 137.6046 148.701492 
L 138.7764 151.428552 
L 140.7294 156.662084 
L 143.4636 164.040837 
L 144.6354 166.722159 
L 145.8072 168.907559 
L 146.979 170.512656 
L 147.7602 171.24356 
L 148.5414 171.707902 
L 149.3226 171.922068 
L 150.1038 171.912373 
L 150.885 171.713637 
L 152.0568 171.153192 
L 155.9628 168.913577 
L 157.1346 168.668479 
L 157.9158 168.698329 
L 158.697 168.890826 
L 159.8688 169.470787 
L 161.0406 170.343762 
L 163.3842 172.52228 
L 164.9466 173.830917 
L 166.1184 174.485762 
L 166.8996 174.69635 
L 167.6808 174.69372 
L 168.462 174.460459 
L 169.2432 173.989604 
L 170.0244 173.285226 
L 171.1962 171.826851 
L 172.368 169.974364 
L 174.7116 165.676393 
L 176.274 162.946058 
L 177.4458 161.273764 
L 178.227 160.424047 
L 179.0082 159.827987 
L 179.7894 159.510273 
L 180.5706 159.484715 
L 181.3518 159.753719 
L 182.133 160.308304 
L 182.9142 161.128639 
L 184.086 162.790289 
L 185.6484 165.595088 
L 189.945 173.809933 
L 191.1168 175.524465 
L 192.2886 176.868825 
L 193.4604 177.850197 
L 194.6322 178.527058 
L 196.1946 179.137104 
L 198.1476 179.891063 
L 199.3194 180.599997 
L 200.4912 181.658852 
L 201.663 183.157197 
L 202.8348 185.13724 
L 204.0066 187.587294 
L 205.569 191.463294 
L 210.6468 204.878854 
L 211.8186 207.129794 
L 212.5998 208.293306 
L 213.381 209.160101 
L 214.1622 209.719368 
L 214.9434 209.971794 
L 215.7246 209.929456 
L 216.5058 209.615185 
L 217.287 209.061433 
L 218.4588 207.872085 
L 220.0212 205.870981 
L 222.3648 202.804339 
L 223.5366 201.569309 
L 224.7084 200.672814 
L 225.4896 200.287225 
L 226.2708 200.072586 
L 227.4426 200.04491 
L 228.6144 200.29897 
L 232.5204 201.543393 
L 233.3016 201.548852 
L 234.0828 201.387453 
L 234.864 201.035652 
L 235.6452 200.479411 
L 236.4264 199.71512 
L 237.5982 198.197339 
L 238.77 196.299126 
L 240.723 192.624317 
L 243.0666 188.312029 
L 244.2384 186.604729 
L 245.0196 185.737754 
L 245.8008 185.127935 
L 246.582 184.798923 
L 247.3632 184.763531 
L 248.1444 185.02314 
L 248.9256 185.567632 
L 249.7068 186.375865 
L 250.8786 188.012106 
L 252.441 190.758822 
L 255.9564 197.30358 
L 257.1282 199.020551 
L 258.3 200.315646 
L 259.0812 200.921666 
L 259.8624 201.321411 
L 260.6436 201.526494 
L 261.4248 201.558296 
L 262.5966 201.348373 
L 264.5496 200.640034 
L 266.112 200.141267 
L 267.2838 200.017887 
L 268.065 200.112559 
L 268.8462 200.371213 
L 269.6274 200.801913 
L 270.7992 201.762 
L 271.971 203.047615 
L 273.924 205.617378 
L 275.877 208.104466 
L 277.0488 209.22698 
L 277.83 209.721815 
L 278.6112 209.967848 
L 279.3924 209.935006 
L 280.1736 209.603173 
L 280.9548 208.963207 
L 281.736 208.017435 
L 282.5172 206.779621 
L 283.689 204.431936 
L 285.2514 200.587386 
L 290.3292 187.129253 
L 291.501 184.75775 
L 292.6728 182.862274 
L 293.8446 181.444912 
L 295.0164 180.454585 
L 296.1882 179.794543 
L 298.1412 179.066941 
L 299.7036 178.427141 
L 300.8754 177.703524 
L 302.0472 176.661795 
L 303.219 175.252011 
L 304.3908 173.47628 
L 305.9532 170.641666 
L 309.8592 163.095419 
L 311.031 161.360857 
L 311.8122 160.48108 
L 312.5934 159.860817 
L 313.3746 159.522351 
L 314.1558 159.477326 
L 314.937 159.726076 
L 315.7182 160.25749 
L 316.4994 161.049401 
L 317.6712 162.652592 
L 319.2336 165.332041 
L 322.3584 170.955814 
L 323.5302 172.623208 
L 324.702 173.842173 
L 325.4832 174.369605 
L 326.2644 174.659402 
L 327.0456 174.715924 
L 327.8268 174.554168 
L 328.608 174.198811 
L 329.7798 173.376654 
L 331.7328 171.584163 
L 333.6858 169.869717 
L 334.8576 169.135023 
L 336.0294 168.729543 
L 336.8106 168.660947 
L 337.5918 168.7517 
L 338.7636 169.154276 
L 340.326 170.042883 
L 342.6696 171.469494 
L 343.8414 171.880619 
L 344.6226 171.938924 
L 345.4038 171.780977 
L 346.185 171.378284 
L 346.9662 170.711981 
L 347.7474 169.773906 
L 348.9192 167.867141 
L 350.091 165.416326 
L 351.6534 161.498502 
L 356.3406 149.106492 
L 357.5124 146.778297 
L 358.6842 145.01191 
L 359.4654 144.170498 
L 360.2466 143.598559 
L 361.0278 143.284155 
L 361.809 143.205155 
L 362.5902 143.330513 
L 363.762 143.816509 
L 365.3244 144.785198 
L 367.2774 145.995828 
L 368.4492 146.485013 
L 369.621 146.687185 
L 370.7928 146.56896 
L 371.9646 146.149813 
L 373.527 145.250485 
L 375.8706 143.774672 
L 377.0424 143.30946 
L 377.8236 143.203269 
L 378.6048 143.304959 
L 379.386 143.64474 
L 380.1672 144.243755 
L 380.9484 145.112852 
L 381.7296 146.251842 
L 382.9014 148.438326 
L 384.0732 151.119818 
L 386.0262 156.315124 
L 388.7604 163.73209 
L 390.3228 167.265979 
L 391.4946 169.325063 
L 392.2758 170.371117 
L 393.057 171.145275 
L 393.8382 171.651246 
L 394.6194 171.903736 
L 395.4006 171.927564 
L 396.1818 171.756306 
L 397.3536 171.223806 
L 401.6502 168.829518 
L 402.822 168.660509 
L 403.6032 168.745683 
L 404.3844 168.992986 
L 405.5562 169.646454 
L 406.728 170.572932 
L 410.634 174.010524 
L 411.8058 174.57998 
L 412.587 174.720484 
L 413.3682 174.640719 
L 414.1494 174.326736 
L 414.9306 173.775295 
L 415.7118 172.994259 
L 416.8836 171.436266 
L 418.446 168.814289 
L 421.9614 162.530307 
L 423.1332 160.957701 
L 423.9144 160.191002 
L 424.6956 159.687541 
L 425.4768 159.46839 
L 426.258 159.543506 
L 427.0392 159.911387 
L 427.8204 160.559268 
L 428.6016 161.463837 
L 429.7734 163.22841 
L 431.3358 166.115911 
L 434.8512 172.949268 
L 436.023 174.814994 
L 437.1948 176.324332 
L 438.3666 177.460955 
L 439.5384 178.261415 
L 440.7102 178.809922 
L 443.835 180.027444 
L 445.0068 180.805926 
L 446.1786 181.958299 
L 447.3504 183.564231 
L 448.5222 185.654058 
L 449.694 188.203535 
L 451.2564 192.175711 
L 453.6 198.68665 
L 453.6 198.68665 
" style="fill:none;stroke:#8cbfb9;stroke-linecap:square;stroke-width:4;"/>
   </g>
   <g id="line2d_2">
    <path clip-path="url(#paad928bc6a)" d="M 63 165.873051 
L 63 253 
M 63.7812 253 
L 63.7812 164.484688 
L 64.953 162.322086 
L 65.7342 161.179357 
L 66.5154 160.309688 
L 67.2966 159.715221 
L 68.0778 159.401443 
L 68.859 159.389377 
L 69.6402 159.681916 
L 70.4214 160.260011 
L 71.2026 161.098022 
L 72.3744 162.756018 
L 73.9368 165.504807 
L 76.671 170.504941 
L 77.8428 172.251427 
L 79.0146 173.56628 
L 79.7958 174.166397 
L 80.577 174.531907 
L 81.3582 174.657661 
L 82.1394 174.559854 
L 82.9206 174.263393 
L 84.0924 173.507751 
L 85.6548 172.130543 
L 87.9984 169.998645 
L 89.1702 169.207055 
L 89.9514 168.842738 
L 91.1232 168.607474 
L 92.295 168.7316 
L 93.4668 169.16771 
L 95.0292 170.074508 
L 97.3728 171.459944 
L 98.5446 171.825647 
L 99.3258 171.84841 
L 100.107 171.647239 
L 100.8882 171.20235 
L 101.6694 170.496544 
L 102.4506 169.518898 
L 103.6224 167.556498 
L 104.7942 165.063489 
L 106.3566 161.10863 
L 110.6532 149.658785 
L 111.825 147.213761 
L 112.9968 145.313619 
L 113.778 144.380932 
L 114.5592 143.719589 
L 115.3404 143.317631 
L 116.1216 143.160543 
L 116.9028 143.222009 
L 117.684 143.458998 
L 118.8558 144.061818 
L 122.3712 146.195471 
L 123.543 146.564906 
L 124.7148 146.625357 
L 125.8866 146.365211 
L 127.0584 145.833715 
L 128.6208 144.860871 
L 130.5738 143.66737 
L 131.7456 143.238882 
L 132.5268 143.165621 
L 133.308 143.306878 
L 134.0892 143.685773 
L 134.8704 144.330211 
L 135.6516 145.244067 
L 136.4328 146.426786 
L 137.6046 148.669282 
L 139.167 152.393578 
L 141.5106 158.808588 
L 143.4636 163.991595 
L 144.6354 166.665303 
L 145.8072 168.846788 
L 146.5884 169.983464 
L 147.3696 170.849575 
L 148.1508 171.447753 
L 148.932 171.784054 
L 149.7132 171.886791 
L 150.4944 171.783928 
L 151.6662 171.325265 
L 153.2286 170.388302 
L 155.1816 169.222915 
L 156.3534 168.776082 
L 157.1346 168.640897 
L 157.9158 168.67301 
L 158.697 168.859112 
L 159.8688 169.432988 
L 161.0406 170.303264 
L 163.3842 172.475641 
L 164.9466 173.781406 
L 166.1184 174.434997 
L 166.8996 174.6496 
L 167.6808 174.648396 
L 168.462 174.41243 
L 169.2432 173.947604 
L 170.0244 173.247219 
L 171.1962 171.791302 
L 172.368 169.943133 
L 175.1022 164.934024 
L 176.6646 162.319399 
L 177.8364 160.796853 
L 178.6176 160.069132 
L 179.3988 159.608436 
L 180.18 159.436793 
L 180.9612 159.555509 
L 181.7424 159.968266 
L 182.5236 160.658639 
L 183.3048 161.598033 
L 184.4766 163.408408 
L 186.039 166.340616 
L 189.5544 173.157278 
L 191.1168 175.475263 
L 192.2886 176.80759 
L 193.4604 177.783284 
L 194.6322 178.459126 
L 196.5852 179.209079 
L 198.1476 179.839597 
L 199.3194 180.559301 
L 200.4912 181.628434 
L 201.663 183.134535 
L 202.8348 185.118373 
L 204.0066 187.56658 
L 205.569 191.432453 
L 210.6468 204.820343 
L 211.8186 207.070672 
L 212.5998 208.235613 
L 213.381 209.104679 
L 214.1622 209.668989 
L 214.9434 209.925908 
L 215.7246 209.887038 
L 216.5058 209.574835 
L 217.287 209.0206 
L 218.4588 207.829907 
L 220.0212 205.826506 
L 222.3648 202.762123 
L 223.5366 201.528633 
L 224.7084 200.633362 
L 225.4896 200.249459 
L 226.2708 200.035977 
L 227.4426 200.009292 
L 228.6144 200.265126 
L 232.5204 201.498142 
L 233.3016 201.500062 
L 234.0828 201.334311 
L 234.864 200.980943 
L 235.6452 200.422867 
L 236.4264 199.659243 
L 237.5982 198.142931 
L 238.77 196.248627 
L 240.723 192.586151 
L 243.0666 188.288261 
L 244.2384 186.586822 
L 245.0196 185.723688 
L 245.8008 185.115887 
L 246.582 184.787115 
L 247.3632 184.751753 
L 248.1444 185.010917 
L 248.9256 185.551258 
L 249.7068 186.358429 
L 250.8786 187.990178 
L 252.441 190.729118 
L 255.9564 197.259075 
L 257.1282 198.974333 
L 258.3 200.269947 
L 259.0812 200.875883 
L 259.8624 201.277397 
L 260.6436 201.48706 
L 261.8154 201.484499 
L 262.9872 201.199354 
L 266.5026 200.047785 
L 267.6744 200.02407 
L 268.4556 200.194637 
L 269.2368 200.541431 
L 270.018 201.054598 
L 271.1898 202.129541 
L 272.7522 204.006441 
L 275.877 208.07291 
L 277.0488 209.192763 
L 277.83 209.684125 
L 278.6112 209.927576 
L 279.3924 209.892651 
L 280.1736 209.556899 
L 280.9548 208.91483 
L 281.736 207.967822 
L 282.5172 206.728812 
L 283.689 204.383442 
L 285.2514 200.544372 
L 290.3292 187.113398 
L 291.501 184.745104 
L 292.6728 182.850871 
L 293.8446 181.432849 
L 295.0164 180.440164 
L 296.1882 179.775871 
L 298.1412 179.038641 
L 299.7036 178.390198 
L 300.8754 177.660992 
L 302.0472 176.615113 
L 303.219 175.203508 
L 304.3908 173.428455 
L 305.9532 170.599106 
L 309.8592 163.104399 
L 311.031 161.386014 
L 311.8122 160.500097 
L 312.5934 159.866005 
L 313.3746 159.506055 
L 314.1558 159.441684 
L 314.937 159.690778 
L 315.7182 160.203684 
L 316.4994 160.996431 
L 317.6712 162.592138 
L 319.2336 165.268618 
L 322.3584 170.893366 
L 323.5302 172.566344 
L 324.702 173.788516 
L 325.4832 174.317296 
L 326.2644 174.60779 
L 327.0456 174.662219 
L 327.8268 174.500529 
L 328.608 174.142265 
L 329.7798 173.318583 
L 331.7328 171.525783 
L 333.6858 169.818098 
L 334.8576 169.089767 
L 336.0294 168.691451 
L 336.8106 168.627404 
L 337.5918 168.723889 
L 338.7636 169.127161 
L 340.326 170.005816 
L 342.6696 171.408581 
L 343.8414 171.811101 
L 344.6226 171.864288 
L 345.4038 171.703107 
L 346.185 171.29972 
L 346.9662 170.633327 
L 347.7474 169.696684 
L 348.9192 167.7945 
L 350.091 165.350423 
L 351.6534 161.448898 
L 355.95 149.951382 
L 357.1218 147.452814 
L 358.2936 145.489698 
L 359.0748 144.513466 
L 359.856 143.8077 
L 360.6372 143.36411 
L 361.4184 143.172052 
L 362.1996 143.199125 
L 362.9808 143.41236 
L 364.1526 143.990739 
L 368.0586 146.303524 
L 369.2304 146.607707 
L 370.4022 146.595881 
L 371.574 146.270979 
L 372.7458 145.686687 
L 376.6518 143.387586 
L 377.433 143.193531 
L 378.2142 143.188827 
L 378.9954 143.407147 
L 379.7766 143.876987 
L 380.5578 144.610678 
L 381.339 145.617403 
L 382.5108 147.617924 
L 383.6826 150.146745 
L 385.245 154.133278 
L 389.5416 165.544419 
L 390.7134 167.95547 
L 391.8852 169.819218 
L 392.6664 170.725898 
L 393.4476 171.367376 
L 394.2288 171.746661 
L 395.01 171.881293 
L 395.7912 171.80912 
L 396.963 171.384874 
L 398.5254 170.465573 
L 400.4784 169.279476 
L 401.6502 168.80187 
L 402.822 168.629295 
L 403.6032 168.711937 
L 404.3844 168.955891 
L 405.5562 169.603614 
L 406.728 170.525188 
L 410.634 173.952994 
L 411.8058 174.520646 
L 412.587 174.662182 
L 413.3682 174.585041 
L 414.1494 174.274784 
L 414.9306 173.727597 
L 416.1024 172.479513 
L 417.2742 170.788378 
L 418.8366 168.065645 
L 421.9614 162.512184 
L 423.1332 160.937554 
L 423.9144 160.168951 
L 424.6956 159.65619 
L 425.4768 159.439782 
L 426.258 159.508538 
L 427.0392 159.86854 
L 427.8204 160.522563 
L 428.6016 161.420143 
L 429.7734 163.185468 
L 431.3358 166.080052 
L 435.2418 173.560501 
L 436.8042 175.781074 
L 437.976 177.033329 
L 439.1478 177.941756 
L 440.3196 178.573379 
L 444.2256 180.210063 
L 445.3974 181.11146 
L 446.5692 182.417584 
L 447.741 184.189437 
L 448.9128 186.439336 
L 450.4752 190.095379 
L 452.8188 196.452073 
L 453.2094 197.565808 
L 453.6 199.019167 
L 453.6 199.019167 
" style="fill:none;stroke:#000000;stroke-dasharray:7.4,3.2;stroke-dashoffset:0;stroke-width:2;"/>
    <defs>
     <path d="M -2.5 2.5 
L 2.5 2.5 
L 2.5 -2.5 
L -2.5 -2.5 
z
" id="m8e6e977306" style="stroke:#000000;stroke-linejoin:miter;"/>
    </defs>
    <g clip-path="url(#paad928bc6a)">
     <use style="fill:#ffffff;stroke:#000000;stroke-linejoin:miter;" x="63" xlink:href="#m8e6e977306" y="165.873051"/>
     <use style="fill:#ffffff;stroke:#000000;stroke-linejoin:miter;" x="82.53" xlink:href="#m8e6e977306" y="174.439264"/>
     <use style="fill:#ffffff;stroke:#000000;stroke-linejoin:miter;" x="102.06" xlink:href="#m8e6e977306" y="170.037825"/>
     <use style="fill:#ffffff;stroke:#000000;stroke-linejoin:miter;" x="121.59" xlink:href="#m8e6e977306" y="145.80106"/>
     <use style="fill:#ffffff;stroke:#000000;stroke-linejoin:miter;" x="141.12" xlink:href="#m8e6e977306" y="157.716919"/>
     <use style="fill:#ffffff;stroke:#000000;stroke-linejoin:miter;" x="160.65" xlink:href="#m8e6e977306" y="169.989255"/>
     <use style="fill:#ffffff;stroke:#000000;stroke-linejoin:miter;" x="180.18" xlink:href="#m8e6e977306" y="159.436793"/>
     <use style="fill:#ffffff;stroke:#000000;stroke-linejoin:miter;" x="199.71" xlink:href="#m8e6e977306" y="180.871775"/>
     <use style="fill:#ffffff;stroke:#000000;stroke-linejoin:miter;" x="219.24" xlink:href="#m8e6e977306" y="206.865679"/>
     <use style="fill:#ffffff;stroke:#000000;stroke-linejoin:miter;" x="238.77" xlink:href="#m8e6e977306" y="196.248627"/>
     <use style="fill:#ffffff;stroke:#000000;stroke-linejoin:miter;" x="258.3" xlink:href="#m8e6e977306" y="200.269947"/>
     <use style="fill:#ffffff;stroke:#000000;stroke-linejoin:miter;" x="277.83" xlink:href="#m8e6e977306" y="209.684125"/>
     <use style="fill:#ffffff;stroke:#000000;stroke-linejoin:miter;" x="297.36" xlink:href="#m8e6e977306" y="179.310698"/>
     <use style="fill:#ffffff;stroke:#000000;stroke-linejoin:miter;" x="316.89" xlink:href="#m8e6e977306" y="161.473245"/>
     <use style="fill:#ffffff;stroke:#000000;stroke-linejoin:miter;" x="336.42" xlink:href="#m8e6e977306" y="168.640606"/>
     <use style="fill:#ffffff;stroke:#000000;stroke-linejoin:miter;" x="355.95" xlink:href="#m8e6e977306" y="149.951382"/>
     <use style="fill:#ffffff;stroke:#000000;stroke-linejoin:miter;" x="375.48" xlink:href="#m8e6e977306" y="143.945602"/>
     <use style="fill:#ffffff;stroke:#000000;stroke-linejoin:miter;" x="395.01" xlink:href="#m8e6e977306" y="171.881293"/>
     <use style="fill:#ffffff;stroke:#000000;stroke-linejoin:miter;" x="414.54" xlink:href="#m8e6e977306" y="174.025555"/>
     <use style="fill:#ffffff;stroke:#000000;stroke-linejoin:miter;" x="434.07" xlink:href="#m8e6e977306" y="171.515609"/>
     <use style="fill:#ffffff;stroke:#000000;stroke-linejoin:miter;" x="453.6" xlink:href="#m8e6e977306" y="199.019167"/>
    </g>
   </g>
   <g id="line2d_3">
    <path clip-path="url(#paad928bc6a)" d="M 63 45.766348 
L 64.5624 43.933988 
L 65.7342 42.838975 
L 66.906 41.981148 
L 68.0778 41.353547 
L 69.2496 40.944869 
L 70.4214 40.739824 
L 71.5932 40.719587 
L 73.1556 40.941958 
L 74.718 41.395534 
L 76.671 42.191112 
L 83.7018 45.324712 
L 85.6548 45.827504 
L 87.2172 46.027986 
L 88.7796 46.037689 
L 90.342 45.860491 
L 92.295 45.403768 
L 94.6386 44.595473 
L 100.4976 42.418577 
L 102.06 42.105273 
L 103.6224 42.026391 
L 104.7942 42.155922 
L 105.966 42.471269 
L 107.1378 42.990807 
L 108.3096 43.72932 
L 109.4814 44.697564 
L 110.6532 45.901919 
L 112.2156 47.877351 
L 113.778 50.26602 
L 115.3404 53.043683 
L 117.2934 57.002195 
L 119.637 62.322705 
L 123.1524 70.967313 
L 127.0584 80.474677 
L 129.402 85.595084 
L 131.355 89.295067 
L 132.9174 91.795567 
L 134.4798 93.835907 
L 135.6516 95.044279 
L 136.8234 95.967736 
L 137.9952 96.60379 
L 139.167 96.955199 
L 140.3388 97.029886 
L 141.5106 96.840763 
L 142.6824 96.405442 
L 143.8542 95.745853 
L 145.4166 94.562567 
L 146.979 93.096673 
L 149.3226 90.539126 
L 154.791 84.34789 
L 156.744 82.546513 
L 158.3064 81.402217 
L 159.8688 80.572611 
L 161.0406 80.176915 
L 162.2124 79.984926 
L 163.3842 80.000067 
L 164.556 80.220983 
L 165.7278 80.641662 
L 167.2902 81.494635 
L 168.8526 82.647682 
L 170.8056 84.438149 
L 173.1492 86.949539 
L 179.7894 94.35659 
L 181.7424 96.121303 
L 183.3048 97.278927 
L 184.8672 98.179202 
L 186.4296 98.806924 
L 187.992 99.160557 
L 189.5544 99.25226 
L 191.1168 99.107326 
L 193.0698 98.651233 
L 195.4134 97.82906 
L 200.1006 96.068612 
L 202.0536 95.615983 
L 203.616 95.490718 
L 205.1784 95.629271 
L 206.3502 95.929724 
L 207.522 96.411882 
L 208.6938 97.083031 
L 210.2562 98.27591 
L 211.8186 99.80243 
L 213.381 101.640906 
L 215.334 104.321095 
L 217.6776 107.961363 
L 224.7084 119.286986 
L 226.6614 121.824967 
L 228.2238 123.461999 
L 229.3956 124.415659 
L 230.5674 125.107292 
L 231.7392 125.516984 
L 232.911 125.629384 
L 234.0828 125.434043 
L 235.2546 124.925633 
L 236.4264 124.104074 
L 237.5982 122.974546 
L 238.77 121.547387 
L 240.3324 119.208631 
L 241.8948 116.417373 
L 243.8478 112.387108 
L 246.1914 106.94897 
L 250.0974 97.161046 
L 253.6128 88.531697 
L 255.9564 83.324508 
L 257.9094 79.489345 
L 259.8624 76.194874 
L 261.4248 73.976549 
L 262.9872 72.133795 
L 264.5496 70.655232 
L 266.112 69.51566 
L 267.6744 68.677546 
L 269.2368 68.092985 
L 271.1898 67.633093 
L 273.924 67.277405 
L 277.4394 66.819056 
L 279.3924 66.346668 
L 280.9548 65.781075 
L 282.5172 65.015931 
L 284.0796 64.034405 
L 286.0326 62.499362 
L 287.9856 60.645267 
L 290.3292 58.078974 
L 294.6258 52.914694 
L 297.36 49.797672 
L 299.313 47.889923 
L 300.8754 46.649991 
L 302.4378 45.724904 
L 303.6096 45.265779 
L 304.7814 45.025098 
L 305.9532 45.014034 
L 307.125 45.23935 
L 308.2968 45.703162 
L 309.4686 46.402794 
L 310.6404 47.330752 
L 312.2028 48.901387 
L 313.7652 50.814152 
L 315.7182 53.601936 
L 318.4524 58.004919 
L 323.5302 66.363835 
L 325.4832 69.151208 
L 327.0456 71.050769 
L 328.608 72.58777 
L 329.7798 73.471549 
L 330.9516 74.106288 
L 332.1234 74.480549 
L 333.2952 74.587957 
L 334.467 74.427333 
L 335.6388 74.002721 
L 336.8106 73.323299 
L 337.9824 72.403188 
L 339.5448 70.835014 
L 341.1072 68.928787 
L 343.0602 66.174 
L 346.185 61.267024 
L 350.091 55.174414 
L 352.044 52.510334 
L 353.6064 50.688541 
L 355.1688 49.202561 
L 356.3406 48.334462 
L 357.5124 47.692009 
L 358.6842 47.283107 
L 359.856 47.110841 
L 361.0278 47.173505 
L 362.1996 47.464724 
L 363.3714 47.973687 
L 364.5432 48.685477 
L 366.1056 49.91741 
L 367.668 51.423811 
L 369.621 53.600407 
L 373.1364 57.950268 
L 376.6518 62.223517 
L 378.9954 64.715355 
L 380.9484 66.461003 
L 382.9014 67.863185 
L 384.4638 68.732788 
L 386.0262 69.390845 
L 387.9792 69.955835 
L 390.3228 70.358717 
L 395.7912 71.129231 
L 397.3536 71.58531 
L 398.916 72.258355 
L 400.4784 73.201214 
L 402.0408 74.457682 
L 403.6032 76.060303 
L 405.1656 78.028604 
L 406.728 80.367831 
L 408.2904 83.068258 
L 410.2434 86.912539 
L 412.587 92.102858 
L 415.7118 99.665517 
L 420.7896 112.017462 
L 423.1332 117.058746 
L 425.0862 120.662817 
L 426.6486 123.059899 
L 427.8204 124.538157 
L 428.9922 125.722889 
L 430.164 126.601647 
L 431.3358 127.167065 
L 432.5076 127.417009 
L 433.6794 127.354611 
L 434.8512 126.988198 
L 436.023 126.331105 
L 437.1948 125.40139 
L 438.3666 124.221451 
L 439.929 122.304838 
L 441.882 119.458807 
L 444.2256 115.589863 
L 450.8658 104.326763 
L 452.8188 101.538084 
L 453.6 100.54168 
L 453.6 100.54168 
" style="fill:none;stroke:#da888e;stroke-linecap:square;stroke-width:4;"/>
   </g>
   <g id="line2d_4">
    <path clip-path="url(#paad928bc6a)" d="M 63 150.641588 
L 63 -1 
M 64.557849 -1 
L 64.5624 2.330877 
L 64.953 17.411544 
L 65.3436 55.750993 
L 65.7342 57.793801 
L 66.1248 59.040852 
L 66.5154 58.442649 
L 66.906 58.441043 
L 67.2966 55.212419 
L 67.6872 54.456204 
L 68.0778 52.95481 
L 68.4684 50.760309 
L 68.859 50.496217 
L 69.2496 48.251896 
L 69.6402 47.983233 
L 70.0308 46.520406 
L 70.812 45.167453 
L 71.2026 44.033925 
L 71.5932 43.922051 
L 71.9838 42.944522 
L 73.1556 41.579717 
L 73.5462 41.395366 
L 73.9368 41.046279 
L 75.1086 40.671256 
L 75.8898 41.121193 
L 76.2804 41.137243 
L 79.4052 43.462911 
L 79.7958 43.667303 
L 80.1864 44.004885 
L 84.0924 45.78732 
L 86.0454 46.197982 
L 87.2172 46.29648 
L 88.389 46.282612 
L 89.5608 46.150465 
L 91.1232 45.821895 
L 95.0292 44.503337 
L 100.8882 42.339529 
L 102.4506 42.051593 
L 104.013 42.033029 
L 105.1848 42.213794 
L 106.3566 42.598229 
L 107.919 43.449339 
L 109.0908 44.34342 
L 110.2626 45.470646 
L 111.4344 46.840808 
L 112.6062 48.454905 
L 113.778 50.287846 
L 115.3404 53.066056 
L 117.2934 57.042993 
L 119.637 62.36914 
L 123.543 71.974897 
L 127.0584 80.494008 
L 129.402 85.59635 
L 131.355 89.293286 
L 132.9174 91.792576 
L 134.4798 93.829802 
L 135.6516 95.034842 
L 136.8234 95.957777 
L 137.9952 96.592066 
L 139.167 96.947621 
L 140.3388 97.030611 
L 141.5106 96.8525 
L 142.6824 96.42545 
L 143.8542 95.770895 
L 145.026 94.91875 
L 146.5884 93.52138 
L 148.5414 91.458317 
L 155.9628 83.219283 
L 157.5252 81.928061 
L 159.0876 80.929417 
L 160.2594 80.401386 
L 161.4312 80.067275 
L 162.603 79.942801 
L 163.7748 80.030004 
L 164.9466 80.323523 
L 166.1184 80.814054 
L 167.6808 81.756271 
L 169.2432 82.988927 
L 171.1962 84.860242 
L 173.9304 87.880348 
L 179.0082 93.604568 
L 180.9612 95.479914 
L 182.9142 97.031995 
L 184.4766 97.990604 
L 186.039 98.670345 
L 187.6014 99.074139 
L 189.1638 99.219832 
L 190.7262 99.155582 
L 192.2886 98.879914 
L 194.2416 98.292896 
L 198.5382 96.620523 
L 200.8818 95.87148 
L 202.4442 95.576095 
L 204.0066 95.50611 
L 205.569 95.714649 
L 206.7408 96.072415 
L 207.9126 96.612726 
L 209.0844 97.34479 
L 210.6468 98.620947 
L 212.2092 100.228713 
L 213.7716 102.144207 
L 215.7246 104.899987 
L 218.0682 108.593588 
L 224.3178 118.715899 
L 226.2708 121.347343 
L 227.8332 123.079637 
L 229.005 124.116145 
L 230.1768 124.89829 
L 231.3486 125.40483 
L 232.5204 125.618028 
L 233.6922 125.526692 
L 234.864 125.124446 
L 236.0358 124.409638 
L 237.2076 123.384781 
L 238.3794 122.05752 
L 239.5512 120.442767 
L 241.1136 117.875724 
L 242.676 114.881903 
L 244.629 110.646269 
L 247.3632 104.071366 
L 254.394 86.723094 
L 256.7376 81.716969 
L 258.6906 78.093492 
L 260.253 75.59813 
L 261.8154 73.476833 
L 263.3778 71.732039 
L 264.9402 70.346846 
L 266.5026 69.292144 
L 268.065 68.525579 
L 269.6274 67.996382 
L 271.5804 67.582816 
L 275.4864 67.117276 
L 277.83 66.737584 
L 279.783 66.204917 
L 281.3454 65.589866 
L 282.9078 64.76887 
L 284.4702 63.734359 
L 286.4232 62.137865 
L 288.3762 60.230341 
L 290.7198 57.624527 
L 298.5318 48.635232 
L 300.0942 47.254517 
L 301.6566 46.160765 
L 302.8284 45.560646 
L 304.0002 45.168856 
L 305.172 45.001945 
L 306.3438 45.064659 
L 307.5156 45.363162 
L 308.6874 45.899409 
L 309.8592 46.664283 
L 311.031 47.654203 
L 312.5934 49.323627 
L 314.5464 51.890705 
L 316.4994 54.83605 
L 320.4054 61.33029 
L 323.5302 66.39039 
L 325.4832 69.168399 
L 327.0456 71.05737 
L 328.608 72.586962 
L 329.7798 73.463421 
L 330.9516 74.090025 
L 332.1234 74.460975 
L 333.2952 74.566918 
L 334.467 74.405992 
L 335.6388 73.985012 
L 336.8106 73.312384 
L 337.9824 72.395978 
L 339.5448 70.820313 
L 341.1072 68.910633 
L 343.0602 66.148216 
L 346.185 61.234216 
L 350.091 55.144751 
L 352.044 52.481992 
L 353.6064 50.662935 
L 355.1688 49.178611 
L 356.3406 48.310864 
L 357.5124 47.671155 
L 358.6842 47.263741 
L 359.856 47.092994 
L 361.0278 47.162733 
L 362.1996 47.460282 
L 363.3714 47.974732 
L 364.5432 48.6921 
L 366.1056 49.927186 
L 368.0586 51.84902 
L 370.4022 54.542131 
L 378.2142 63.912927 
L 380.1672 65.788693 
L 382.1202 67.334789 
L 384.0732 68.528705 
L 385.6356 69.245267 
L 387.5886 69.876917 
L 389.9322 70.332553 
L 396.1818 71.255234 
L 398.1348 71.912789 
L 399.6972 72.705914 
L 400.869 73.490801 
L 402.0408 74.458221 
L 403.6032 76.057121 
L 405.1656 78.027506 
L 406.728 80.373715 
L 408.2904 83.081527 
L 410.2434 86.935956 
L 412.587 92.136961 
L 415.7118 99.708254 
L 420.7896 112.039622 
L 423.1332 117.083203 
L 425.0862 120.731048 
L 427.0392 123.696356 
L 427.8204 124.655629 
L 428.9922 125.883352 
L 430.164 126.797378 
L 431.3358 127.356079 
L 432.117 127.558396 
L 433.2888 127.537655 
L 434.4606 127.253316 
L 435.6324 126.825826 
L 436.4136 126.382984 
L 437.5854 125.429147 
L 438.3666 124.693373 
L 440.7102 121.689233 
L 443.4444 117.290086 
L 451.647 102.487748 
L 452.0376 101.612848 
L 452.8188 98.788332 
L 453.2094 100.63765 
L 453.6 100.81601 
L 453.6 100.81601 
" style="fill:none;stroke:#000000;stroke-dasharray:7.4,3.2;stroke-dashoffset:0;stroke-width:2;"/>
    <defs>
     <path d="M 0 -2.5 
L -2.165064 -1.25 
L -2.165064 1.25 
L -0 2.5 
L 2.165064 1.25 
L 2.165064 -1.25 
z
" id="m751c714b30" style="stroke:#000000;stroke-linejoin:miter;"/>
    </defs>
    <g clip-path="url(#paad928bc6a)">
     <use style="fill:#ffffff;stroke:#000000;stroke-linejoin:miter;" x="63" xlink:href="#m751c714b30" y="150.641588"/>
     <use style="fill:#ffffff;stroke:#000000;stroke-linejoin:miter;" x="82.53" xlink:href="#m751c714b30" y="45.201838"/>
     <use style="fill:#ffffff;stroke:#000000;stroke-linejoin:miter;" x="102.06" xlink:href="#m751c714b30" y="42.111502"/>
     <use style="fill:#ffffff;stroke:#000000;stroke-linejoin:miter;" x="121.59" xlink:href="#m751c714b30" y="67.116372"/>
     <use style="fill:#ffffff;stroke:#000000;stroke-linejoin:miter;" x="141.12" xlink:href="#m751c714b30" y="96.946889"/>
     <use style="fill:#ffffff;stroke:#000000;stroke-linejoin:miter;" x="160.65" xlink:href="#m751c714b30" y="80.268333"/>
     <use style="fill:#ffffff;stroke:#000000;stroke-linejoin:miter;" x="180.18" xlink:href="#m751c714b30" y="94.76675"/>
     <use style="fill:#ffffff;stroke:#000000;stroke-linejoin:miter;" x="199.71" xlink:href="#m751c714b30" y="96.210016"/>
     <use style="fill:#ffffff;stroke:#000000;stroke-linejoin:miter;" x="219.24" xlink:href="#m751c714b30" y="110.53363"/>
     <use style="fill:#ffffff;stroke:#000000;stroke-linejoin:miter;" x="238.77" xlink:href="#m751c714b30" y="121.5508"/>
     <use style="fill:#ffffff;stroke:#000000;stroke-linejoin:miter;" x="258.3" xlink:href="#m751c714b30" y="78.776198"/>
     <use style="fill:#ffffff;stroke:#000000;stroke-linejoin:miter;" x="277.83" xlink:href="#m751c714b30" y="66.737584"/>
     <use style="fill:#ffffff;stroke:#000000;stroke-linejoin:miter;" x="297.36" xlink:href="#m751c714b30" y="49.821706"/>
     <use style="fill:#ffffff;stroke:#000000;stroke-linejoin:miter;" x="316.89" xlink:href="#m751c714b30" y="55.465377"/>
     <use style="fill:#ffffff;stroke:#000000;stroke-linejoin:miter;" x="336.42" xlink:href="#m751c714b30" y="73.566873"/>
     <use style="fill:#ffffff;stroke:#000000;stroke-linejoin:miter;" x="355.95" xlink:href="#m751c714b30" y="48.573645"/>
     <use style="fill:#ffffff;stroke:#000000;stroke-linejoin:miter;" x="375.48" xlink:href="#m751c714b30" y="60.83642"/>
     <use style="fill:#ffffff;stroke:#000000;stroke-linejoin:miter;" x="395.01" xlink:href="#m751c714b30" y="70.994302"/>
     <use style="fill:#ffffff;stroke:#000000;stroke-linejoin:miter;" x="414.54" xlink:href="#m751c714b30" y="96.814593"/>
     <use style="fill:#ffffff;stroke:#000000;stroke-linejoin:miter;" x="434.07" xlink:href="#m751c714b30" y="127.389925"/>
     <use style="fill:#ffffff;stroke:#000000;stroke-linejoin:miter;" x="453.6" xlink:href="#m751c714b30" y="100.81601"/>
    </g>
   </g>
   <g id="patch_3">
    <path d="M 63 220.5 
L 63 30.24 
" style="fill:none;stroke:#000000;stroke-linecap:square;stroke-linejoin:miter;stroke-width:0.8;"/>
   </g>
   <g id="patch_4">
    <path d="M 453.6 220.5 
L 453.6 30.24 
" style="fill:none;stroke:#000000;stroke-linecap:square;stroke-linejoin:miter;stroke-width:0.8;"/>
   </g>
   <g id="patch_5">
    <path d="M 63 220.5 
L 453.6 220.5 
" style="fill:none;stroke:#000000;stroke-linecap:square;stroke-linejoin:miter;stroke-width:0.8;"/>
   </g>
   <g id="patch_6">
    <path d="M 63 30.24 
L 453.6 30.24 
" style="fill:none;stroke:#000000;stroke-linecap:square;stroke-linejoin:miter;stroke-width:0.8;"/>
   </g>
  </g>
 </g>
 <defs>
  <clipPath id="paad928bc6a">
   <rect height="190.26" width="390.6" x="63" y="30.24"/>
  </clipPath>
 </defs>
</svg>
