<?xml version="1.0" encoding="utf-8" standalone="no"?>
<!DOCTYPE svg PUBLIC "-//W3C//DTD SVG 1.1//EN"
  "http://www.w3.org/Graphics/SVG/1.1/DTD/svg11.dtd">
<!-- Created with matplotlib (https://matplotlib.org/) -->
<svg height="252pt" version="1.1" viewBox="0 0 504 252" width="504pt" xmlns="http://www.w3.org/2000/svg" xmlns:xlink="http://www.w3.org/1999/xlink">
 <defs>
  <style type="text/css">
*{stroke-linecap:butt;stroke-linejoin:round;}
  </style>
 </defs>
 <g id="figure_1">
  <g id="patch_1">
   <path d="M 0 252 
L 504 252 
L 504 0 
L 0 0 
z
" style="fill:none;"/>
  </g>
  <g id="axes_1">
   <g id="patch_2">
    <path d="M 63 220.5 
L 453.6 220.5 
L 453.6 30.24 
L 63 30.24 
z
" style="fill:none;"/>
   </g>
   <g id="matplotlib.axis_1">
    <g id="xtick_1"/>
    <g id="xtick_2"/>
    <g id="xtick_3"/>
    <g id="xtick_4"/>
    <g id="xtick_5"/>
    <g id="xtick_6"/>
   </g>
   <g id="matplotlib.axis_2">
    <g id="ytick_1"/>
    <g id="ytick_2"/>
    <g id="ytick_3"/>
    <g id="ytick_4"/>
    <g id="ytick_5"/>
    <g id="ytick_6"/>
   </g>
   <g id="line2d_1">
    <path clip-path="url(#p20c2ae78e8)" d="M 63 116.627486 
L 66.5154 111.575478 
L 70.4214 106.368738 
L 74.3274 101.531089 
L 78.624 96.572145 
L 82.9206 91.941205 
L 87.6078 87.226306 
L 92.295 82.846068 
L 96.9822 78.792107 
L 101.6694 75.049635 
L 106.3566 71.589841 
L 111.4344 68.116132 
L 116.9028 64.64519 
L 122.3712 61.426892 
L 127.8396 58.463193 
L 132.9174 55.950285 
L 138.3858 53.500073 
L 143.8542 51.289904 
L 150.1038 49.009331 
L 156.3534 46.956103 
L 162.603 45.136111 
L 168.462 43.665868 
L 174.321 42.430484 
L 180.5706 41.344499 
L 187.6014 40.357369 
L 194.6322 39.599131 
L 200.8818 39.142901 
L 207.1314 38.916595 
L 213.381 38.910973 
L 220.4118 39.123942 
L 227.8332 39.566994 
L 234.4734 40.173575 
L 240.723 40.957688 
L 247.3632 42.019188 
L 254.7846 43.440965 
L 262.5966 45.164668 
L 269.6274 46.935746 
L 276.2676 48.837148 
L 283.2984 51.093936 
L 291.1104 53.846187 
L 298.9224 56.822607 
L 305.9532 59.72239 
L 312.984 62.869287 
L 320.4054 66.448755 
L 328.608 70.655464 
L 336.8106 75.110968 
L 344.232 79.404262 
L 351.6534 83.972104 
L 359.856 89.297856 
L 368.4492 95.138396 
L 376.2612 100.709862 
L 383.6826 106.279726 
L 391.8852 112.734407 
L 400.869 120.094699 
L 409.0716 127.084127 
L 416.8836 134.03617 
L 425.0862 141.65254 
L 434.4606 150.680742 
L 443.4444 159.64117 
L 451.2564 167.736613 
L 453.6 170.224857 
L 453.6 170.224857 
" style="fill:none;stroke:#257352;stroke-linecap:square;stroke-width:2;"/>
   </g>
   <g id="line2d_2">
    <path clip-path="url(#p20c2ae78e8)" d="M 63 111.919336 
L 65.7342 115.172892 
L 68.4684 118.116877 
L 71.2026 120.759611 
L 73.9368 123.122632 
L 77.0616 125.527706 
L 80.577 127.943678 
L 85.2642 130.873363 
L 93.8574 135.932308 
L 99.7164 139.189039 
L 104.013 141.340873 
L 107.919 143.059126 
L 112.2156 144.697127 
L 118.0746 146.662819 
L 128.2302 150.06951 
L 138.7764 153.680078 
L 143.8542 155.136957 
L 149.3226 156.45658 
L 161.8218 159.368148 
L 178.6176 163.633189 
L 184.8672 164.819025 
L 195.4134 166.791185 
L 202.8348 168.472312 
L 211.0374 170.292249 
L 216.8964 171.350744 
L 232.911 174.067042 
L 250.488 177.560081 
L 270.018 180.74285 
L 283.2984 183.324846 
L 290.3292 184.370799 
L 299.7036 185.771126 
L 306.3438 187.014806 
L 317.6712 189.175732 
L 324.3114 190.167806 
L 335.2482 191.776529 
L 342.279 193.095158 
L 352.4346 195.010684 
L 359.0748 196.003739 
L 370.4022 197.659911 
L 377.433 198.973911 
L 387.5886 200.878386 
L 394.6194 201.920494 
L 405.1656 203.459061 
L 412.1964 204.762897 
L 422.7426 206.739981 
L 429.7734 207.780826 
L 440.3196 209.325258 
L 447.3504 210.632572 
L 453.6 211.851818 
L 453.6 211.851818 
" style="fill:none;stroke:#257352;stroke-dasharray:7.4,3.2;stroke-dashoffset:0;stroke-width:2;"/>
   </g>
   <g id="line2d_3">
    <path clip-path="url(#p20c2ae78e8)" d="M 63 116.627486 
L 66.906 112.753477 
L 70.812 109.196775 
L 74.718 105.939512 
L 79.0146 102.660029 
L 83.7018 99.372347 
L 89.1702 95.817783 
L 95.0292 92.273082 
L 100.4976 89.217736 
L 105.5754 86.636969 
L 110.6532 84.317518 
L 116.1216 82.077124 
L 122.7618 79.610649 
L 130.5738 76.948472 
L 137.214 74.915214 
L 143.073 73.362828 
L 148.932 72.048347 
L 155.9628 70.707601 
L 165.3372 69.15539 
L 172.7586 68.138001 
L 179.0082 67.508704 
L 185.6484 67.078777 
L 194.2416 66.764876 
L 204.0066 66.612842 
L 211.0374 66.717487 
L 217.6776 67.048967 
L 225.4896 67.676874 
L 236.4264 68.785996 
L 244.2384 69.776064 
L 250.8786 70.837877 
L 258.3 72.254653 
L 269.2368 74.587557 
L 278.2206 76.705702 
L 285.2514 78.598329 
L 293.0634 80.954267 
L 304.3908 84.634991 
L 313.3746 87.755414 
L 320.4054 90.428639 
L 328.2174 93.646791 
L 339.9354 98.746194 
L 348.9192 102.864967 
L 356.3406 106.520468 
L 364.5432 110.82235 
L 376.6518 117.44143 
L 385.245 122.360127 
L 392.6664 126.865238 
L 401.6502 132.596222 
L 414.1494 140.840224 
L 422.352 146.49933 
L 430.164 152.167167 
L 440.7102 160.121327 
L 452.0376 168.909592 
L 453.6 170.153539 
L 453.6 170.153539 
" style="fill:none;stroke:#ff6e54;stroke-linecap:square;stroke-width:2;"/>
   </g>
   <g id="line2d_4">
    <path clip-path="url(#p20c2ae78e8)" d="M 63 129.807692 
L 70.812 136.132882 
L 74.3274 138.71202 
L 77.4522 140.723813 
L 80.1864 142.223441 
L 82.9206 143.478613 
L 86.0454 144.658185 
L 90.342 146.004527 
L 97.3728 148.185193 
L 102.06 149.915384 
L 112.2156 153.80759 
L 115.731 154.84347 
L 119.2464 155.639308 
L 123.543 156.36875 
L 131.7456 157.714444 
L 136.0422 158.694281 
L 141.9012 160.303416 
L 147.3696 161.744826 
L 151.2756 162.545781 
L 155.1816 163.117615 
L 161.8218 163.799319 
L 166.8996 164.423547 
L 171.1962 165.185192 
L 177.0552 166.496463 
L 183.3048 167.836139 
L 187.2108 168.450329 
L 191.5074 168.904232 
L 202.8348 169.946738 
L 207.1314 170.649052 
L 214.5528 172.158019 
L 219.6306 173.061351 
L 223.9272 173.588681 
L 229.3956 174.004197 
L 236.4264 174.564665 
L 240.723 175.142783 
L 246.1914 176.138313 
L 253.6128 177.49747 
L 257.9094 178.048212 
L 262.9872 178.450899 
L 271.5804 179.077732 
L 275.877 179.635287 
L 281.3454 180.597737 
L 288.7668 181.909278 
L 293.0634 182.4387 
L 298.1412 182.825606 
L 306.7344 183.439564 
L 311.031 183.989293 
L 316.4994 184.935996 
L 323.9208 186.221146 
L 328.2174 186.73847 
L 333.2952 187.117721 
L 341.8884 187.730466 
L 346.185 188.279111 
L 351.6534 189.21951 
L 359.0748 190.489858 
L 363.3714 190.999943 
L 368.8398 191.398692 
L 376.6518 191.952987 
L 380.9484 192.485666 
L 386.4168 193.41161 
L 394.2288 194.745174 
L 398.916 195.286564 
L 404.775 195.693427 
L 411.8058 196.208721 
L 416.493 196.80455 
L 422.352 197.817197 
L 429.3828 199.002149 
L 434.07 199.539806 
L 439.929 199.946542 
L 446.9598 200.469097 
L 451.647 201.07061 
L 453.6 201.38672 
L 453.6 201.38672 
" style="fill:none;stroke:#ff6e54;stroke-dasharray:7.4,3.2;stroke-dashoffset:0;stroke-width:2;"/>
   </g>
   <g id="patch_3">
    <path d="M 63 220.5 
L 63 30.24 
" style="fill:none;stroke:#000000;stroke-linecap:square;stroke-linejoin:miter;stroke-width:0.8;"/>
   </g>
   <g id="patch_4">
    <path d="M 453.6 220.5 
L 453.6 30.24 
" style="fill:none;stroke:#000000;stroke-linecap:square;stroke-linejoin:miter;stroke-width:0.8;"/>
   </g>
   <g id="patch_5">
    <path d="M 63 220.5 
L 453.6 220.5 
" style="fill:none;stroke:#000000;stroke-linecap:square;stroke-linejoin:miter;stroke-width:0.8;"/>
   </g>
   <g id="patch_6">
    <path d="M 63 30.24 
L 453.6 30.24 
" style="fill:none;stroke:#000000;stroke-linecap:square;stroke-linejoin:miter;stroke-width:0.8;"/>
   </g>
  </g>
 </g>
 <defs>
  <clipPath id="p20c2ae78e8">
   <rect height="190.26" width="390.6" x="63" y="30.24"/>
  </clipPath>
 </defs>
</svg>
