<?xml version="1.0" encoding="utf-8" standalone="no"?>
<!DOCTYPE svg PUBLIC "-//W3C//DTD SVG 1.1//EN"
  "http://www.w3.org/Graphics/SVG/1.1/DTD/svg11.dtd">
<!-- Created with matplotlib (https://matplotlib.org/) -->
<svg height="252pt" version="1.1" viewBox="0 0 504 252" width="504pt" xmlns="http://www.w3.org/2000/svg" xmlns:xlink="http://www.w3.org/1999/xlink">
 <defs>
  <style type="text/css">
*{stroke-linecap:butt;stroke-linejoin:round;}
  </style>
 </defs>
 <g id="figure_1">
  <g id="patch_1">
   <path d="M 0 252 
L 504 252 
L 504 0 
L 0 0 
z
" style="fill:none;"/>
  </g>
  <g id="axes_1">
   <g id="patch_2">
    <path d="M 63 220.5 
L 453.6 220.5 
L 453.6 30.24 
L 63 30.24 
z
" style="fill:none;"/>
   </g>
   <g id="matplotlib.axis_1">
    <g id="xtick_1"/>
    <g id="xtick_2"/>
    <g id="xtick_3"/>
    <g id="xtick_4"/>
    <g id="xtick_5"/>
    <g id="xtick_6"/>
   </g>
   <g id="matplotlib.axis_2">
    <g id="ytick_1"/>
    <g id="ytick_2"/>
    <g id="ytick_3"/>
    <g id="ytick_4"/>
    <g id="ytick_5"/>
    <g id="ytick_6"/>
    <g id="ytick_7"/>
   </g>
   <g id="line2d_1">
    <path clip-path="url(#p5ea2803181)" d="M 63 211.627288 
L 68.0778 202.901405 
L 73.1556 194.617672 
L 78.2334 186.753685 
L 83.3112 179.288175 
L 88.389 172.200951 
L 93.4668 165.472845 
L 98.9352 158.607957 
L 104.4036 152.116937 
L 109.872 145.979424 
L 115.3404 140.176165 
L 120.8088 134.688956 
L 126.2772 129.500585 
L 132.1362 124.254764 
L 137.9952 119.314435 
L 143.8542 114.661808 
L 149.7132 110.28013 
L 155.9628 105.887223 
L 162.2124 101.766655 
L 168.462 97.901541 
L 175.1022 94.057064 
L 181.7424 90.465321 
L 188.7732 86.919323 
L 195.804 83.619663 
L 203.2254 80.385044 
L 210.6468 77.387146 
L 218.4588 74.468176 
L 226.6614 71.644476 
L 235.2546 68.930006 
L 244.2384 66.336324 
L 253.6128 63.872611 
L 263.3778 61.545741 
L 273.5334 59.360385 
L 284.0796 57.319151 
L 295.407 55.358869 
L 307.125 53.556631 
L 319.6242 51.858293 
L 332.9046 50.276811 
L 347.3568 48.783401 
L 362.9808 47.399124 
L 379.7766 46.138428 
L 398.1348 44.987174 
L 418.446 43.941902 
L 441.1008 43.005849 
L 453.6 42.575152 
L 453.6 42.575152 
" style="fill:none;stroke:#8cbfb9;stroke-linecap:square;stroke-width:4;"/>
   </g>
   <g id="line2d_2">
    <path clip-path="url(#p5ea2803181)" d="M 63 211.851818 
L 63.7812 210.070359 
L 64.1718 209.505382 
L 64.5624 208.455048 
L 64.953 208.178065 
L 72.3744 195.817464 
L 77.4522 187.878013 
L 81.7488 181.501992 
L 82.53 180.571508 
L 82.9206 179.81312 
L 83.3112 180.401217 
L 83.7018 178.533879 
L 84.483 177.379792 
L 85.2642 176.449033 
L 87.9984 172.634436 
L 91.5138 167.924422 
L 98.5446 158.932933 
L 98.9352 158.247929 
L 99.3258 160.162077 
L 99.7164 157.56454 
L 100.107 156.952723 
L 100.4976 156.671213 
L 107.5284 148.492239 
L 116.9028 138.484003 
L 118.0746 137.59041 
L 118.4652 136.933138 
L 118.8558 135.644627 
L 119.2464 135.842218 
L 120.0276 135.192487 
L 120.4182 134.964419 
L 126.6678 128.997453 
L 127.8396 127.974241 
L 130.1832 125.829583 
L 131.7456 124.464982 
L 132.5268 123.789936 
L 132.9174 123.569867 
L 133.6986 122.514971 
L 134.0892 124.437416 
L 134.4798 122.357033 
L 134.8704 121.736833 
L 136.4328 120.573897 
L 137.214 119.884353 
L 138.7764 118.597231 
L 143.4636 114.88321 
L 151.2756 109.140531 
L 151.6662 108.93533 
L 152.838 108.018855 
L 153.2286 107.838367 
L 153.6192 107.797113 
L 154.0098 107.587248 
L 154.4004 107.965023 
L 154.791 105.693081 
L 155.1816 105.894723 
L 159.0876 103.624994 
L 164.9466 99.864375 
L 165.7278 99.390455 
L 166.509 98.866088 
L 167.2902 98.169295 
L 167.6808 98.165421 
L 168.0714 109.502188 
L 168.462 98.137521 
L 168.8526 98.043338 
L 170.0244 96.831561 
L 170.415 96.754031 
L 174.7116 94.22115 
L 178.6176 92.069028 
L 183.3048 89.617924 
L 190.7262 86.144826 
L 195.0228 84.498013 
L 198.9288 82.376953 
L 204.3972 79.891266 
L 210.6468 77.380532 
L 217.287 74.953856 
L 220.0212 73.982931 
L 221.5836 73.421423 
L 225.099 72.163511 
L 229.7862 70.564758 
L 237.2076 68.280956 
L 238.77 67.838374 
L 239.9418 67.532858 
L 240.3324 67.511571 
L 241.5042 67.061395 
L 241.8948 67.161511 
L 242.2854 67.447758 
L 242.676 67.498087 
L 243.0666 64.167275 
L 243.4572 66.15381 
L 243.8478 65.922841 
L 244.2384 65.841043 
L 244.629 65.944872 
L 248.535 64.938021 
L 248.9256 64.76534 
L 250.0974 64.566883 
L 254.0034 63.38545 
L 254.394 62.879079 
L 254.7846 62.567381 
L 255.1752 61.219158 
L 255.5658 64.331818 
L 255.9564 63.606776 
L 256.347 63.63243 
L 256.7376 63.398138 
L 257.1282 63.01202 
L 257.5188 62.787005 
L 257.9094 62.839815 
L 259.0812 62.535544 
L 259.8624 62.295853 
L 263.7684 61.392194 
L 265.3308 61.024215 
L 267.6744 60.516155 
L 272.7522 59.436724 
L 273.1428 59.428346 
L 274.7052 58.926804 
L 275.0958 59.061419 
L 275.4864 59.316226 
L 275.877 59.131202 
L 276.6582 58.014293 
L 277.0488 58.531073 
L 277.4394 58.205107 
L 279.783 57.956876 
L 281.3454 57.666414 
L 282.1266 57.552632 
L 282.9078 57.329652 
L 283.689 57.246591 
L 284.8608 56.997454 
L 289.9386 56.026062 
L 290.7198 55.52336 
L 291.1104 55.794501 
L 291.501 53.612166 
L 291.8916 56.441978 
L 292.2822 56.030173 
L 292.6728 56.027738 
L 293.454 55.571532 
L 295.0164 55.385689 
L 296.1882 55.163401 
L 297.7506 54.904505 
L 300.8754 54.396844 
L 302.4378 54.158379 
L 308.6874 53.151184 
L 309.4686 53.367263 
L 310.2498 52.949064 
L 310.6404 52.726376 
L 311.031 53.18101 
L 311.4216 51.346631 
L 311.8122 52.366308 
L 312.2028 52.737988 
L 312.984 52.65239 
L 313.3746 52.438524 
L 313.7652 52.356874 
L 314.1558 52.449979 
L 317.2806 52.054273 
L 320.796 51.554495 
L 321.5772 51.443067 
L 322.3584 51.418605 
L 323.5302 51.111655 
L 324.3114 51.235503 
L 324.702 51.045278 
L 325.0926 50.993746 
L 325.4832 50.707406 
L 325.8738 50.710239 
L 326.655 51.418398 
L 327.0456 52.840582 
L 327.4362 51.293374 
L 327.8268 51.294841 
L 328.608 50.507768 
L 328.9986 50.531335 
L 329.3892 50.675208 
L 333.6858 50.072941 
L 335.2482 49.943096 
L 336.8106 49.774042 
L 339.1542 49.497846 
L 341.1072 49.333402 
L 342.279 49.117314 
L 343.4508 49.127768 
L 344.6226 48.798606 
L 345.0132 48.963559 
L 345.4038 49.434724 
L 345.7944 49.540169 
L 346.185 48.560403 
L 346.5756 48.924152 
L 347.3568 48.616004 
L 347.7474 48.451519 
L 348.5286 48.5261 
L 350.091 48.405556 
L 352.044 48.209553 
L 352.8252 48.152901 
L 353.6064 48.019987 
L 354.7782 47.963962 
L 358.2936 47.642558 
L 359.4654 47.520222 
L 359.856 47.598249 
L 360.2466 47.546999 
L 361.4184 46.932857 
L 361.809 47.332122 
L 362.1996 56.562333 
L 362.5902 47.619739 
L 364.5432 47.05981 
L 364.9338 47.221216 
L 366.8868 46.941313 
L 367.668 46.961547 
L 368.8398 46.79934 
L 370.0116 46.767356 
L 372.3552 46.563159 
L 373.1364 46.516634 
L 374.3082 46.402932 
L 375.0894 46.394064 
L 376.6518 46.253218 
L 377.0424 46.300488 
L 378.2142 46.041231 
L 379.386 46.182763 
L 380.1672 45.947157 
L 380.5578 45.408181 
L 380.9484 47.852471 
L 381.339 44.941637 
L 381.7296 45.724672 
L 382.9014 45.799912 
L 384.8544 45.655858 
L 386.8074 45.515606 
L 387.5886 45.469356 
L 388.7604 45.459325 
L 389.9322 45.314279 
L 391.104 45.267813 
L 393.8382 45.050461 
L 394.6194 45.139267 
L 395.01 44.953878 
L 395.4006 44.939664 
L 395.7912 44.796524 
L 396.1818 44.910967 
L 396.5724 45.146424 
L 396.963 45.019748 
L 397.3536 42.085176 
L 397.7442 45.452151 
L 398.1348 45.224449 
L 398.5254 44.833273 
L 398.916 44.653955 
L 399.3066 44.918679 
L 400.4784 44.742416 
L 401.2596 44.673511 
L 402.4314 44.688349 
L 403.2126 44.534311 
L 404.775 44.543535 
L 407.1186 44.389502 
L 407.8998 44.369145 
L 409.0716 44.256759 
L 410.2434 44.254046 
L 411.4152 44.103403 
L 412.1964 44.225089 
L 413.3682 43.961041 
L 414.54 44.193855 
L 415.3212 43.72322 
L 415.7118 42.927728 
L 416.493 43.119296 
L 416.8836 43.778922 
L 417.6648 43.92392 
L 418.0554 43.937803 
L 418.8366 43.693081 
L 420.0084 43.782641 
L 421.5708 43.656422 
L 424.6956 43.527193 
L 425.8674 43.469937 
L 426.6486 43.399251 
L 427.4298 43.447182 
L 428.9922 43.347275 
L 429.3828 43.399516 
L 430.5546 43.162104 
L 431.3358 43.365441 
L 432.117 42.97796 
L 432.5076 38.888182 
L 432.8982 43.33439 
L 433.2888 42.969507 
L 433.6794 43.219759 
L 434.8512 43.152146 
L 436.023 43.08144 
L 437.1948 43.042046 
L 438.7572 42.984267 
L 443.0538 42.825391 
L 444.6162 42.752371 
L 447.3504 42.65348 
L 449.694 42.572975 
L 450.0846 42.714862 
L 450.4752 42.687058 
L 450.8658 42.111664 
L 451.2564 42.626776 
L 451.647 42.297417 
L 452.4282 42.502735 
L 453.2094 42.424285 
L 453.6 43.8392 
L 453.6 43.8392 
" style="fill:none;stroke:#000000;stroke-dasharray:7.4,3.2;stroke-dashoffset:0;stroke-width:2;"/>
    <defs>
     <path d="M -2.5 2.5 
L 2.5 2.5 
L 2.5 -2.5 
L -2.5 -2.5 
z
" id="m040453e6d9" style="stroke:#000000;stroke-linejoin:miter;"/>
    </defs>
    <g clip-path="url(#p5ea2803181)">
     <use style="fill:#ffffff;stroke:#000000;stroke-linejoin:miter;" x="63" xlink:href="#m040453e6d9" y="211.851818"/>
     <use style="fill:#ffffff;stroke:#000000;stroke-linejoin:miter;" x="82.53" xlink:href="#m040453e6d9" y="180.571508"/>
     <use style="fill:#ffffff;stroke:#000000;stroke-linejoin:miter;" x="102.06" xlink:href="#m040453e6d9" y="154.752598"/>
     <use style="fill:#ffffff;stroke:#000000;stroke-linejoin:miter;" x="121.59" xlink:href="#m040453e6d9" y="133.740027"/>
     <use style="fill:#ffffff;stroke:#000000;stroke-linejoin:miter;" x="141.12" xlink:href="#m040453e6d9" y="116.728142"/>
     <use style="fill:#ffffff;stroke:#000000;stroke-linejoin:miter;" x="160.65" xlink:href="#m040453e6d9" y="102.595153"/>
     <use style="fill:#ffffff;stroke:#000000;stroke-linejoin:miter;" x="180.18" xlink:href="#m040453e6d9" y="91.228504"/>
     <use style="fill:#ffffff;stroke:#000000;stroke-linejoin:miter;" x="199.71" xlink:href="#m040453e6d9" y="82.015727"/>
     <use style="fill:#ffffff;stroke:#000000;stroke-linejoin:miter;" x="219.24" xlink:href="#m040453e6d9" y="74.253971"/>
     <use style="fill:#ffffff;stroke:#000000;stroke-linejoin:miter;" x="238.77" xlink:href="#m040453e6d9" y="67.838374"/>
     <use style="fill:#ffffff;stroke:#000000;stroke-linejoin:miter;" x="258.3" xlink:href="#m040453e6d9" y="62.756404"/>
     <use style="fill:#ffffff;stroke:#000000;stroke-linejoin:miter;" x="277.83" xlink:href="#m040453e6d9" y="58.179831"/>
     <use style="fill:#ffffff;stroke:#000000;stroke-linejoin:miter;" x="297.36" xlink:href="#m040453e6d9" y="54.945446"/>
     <use style="fill:#ffffff;stroke:#000000;stroke-linejoin:miter;" x="316.89" xlink:href="#m040453e6d9" y="52.055722"/>
     <use style="fill:#ffffff;stroke:#000000;stroke-linejoin:miter;" x="336.42" xlink:href="#m040453e6d9" y="49.755562"/>
     <use style="fill:#ffffff;stroke:#000000;stroke-linejoin:miter;" x="355.95" xlink:href="#m040453e6d9" y="47.85524"/>
     <use style="fill:#ffffff;stroke:#000000;stroke-linejoin:miter;" x="375.48" xlink:href="#m040453e6d9" y="46.34711"/>
     <use style="fill:#ffffff;stroke:#000000;stroke-linejoin:miter;" x="395.01" xlink:href="#m040453e6d9" y="44.953878"/>
     <use style="fill:#ffffff;stroke:#000000;stroke-linejoin:miter;" x="414.54" xlink:href="#m040453e6d9" y="44.193855"/>
     <use style="fill:#ffffff;stroke:#000000;stroke-linejoin:miter;" x="434.07" xlink:href="#m040453e6d9" y="43.230899"/>
     <use style="fill:#ffffff;stroke:#000000;stroke-linejoin:miter;" x="453.6" xlink:href="#m040453e6d9" y="43.8392"/>
    </g>
   </g>
   <g id="patch_3">
    <path d="M 63 220.5 
L 63 30.24 
" style="fill:none;stroke:#000000;stroke-linecap:square;stroke-linejoin:miter;stroke-width:0.8;"/>
   </g>
   <g id="patch_4">
    <path d="M 453.6 220.5 
L 453.6 30.24 
" style="fill:none;stroke:#000000;stroke-linecap:square;stroke-linejoin:miter;stroke-width:0.8;"/>
   </g>
   <g id="patch_5">
    <path d="M 63 220.5 
L 453.6 220.5 
" style="fill:none;stroke:#000000;stroke-linecap:square;stroke-linejoin:miter;stroke-width:0.8;"/>
   </g>
   <g id="patch_6">
    <path d="M 63 30.24 
L 453.6 30.24 
" style="fill:none;stroke:#000000;stroke-linecap:square;stroke-linejoin:miter;stroke-width:0.8;"/>
   </g>
  </g>
 </g>
 <defs>
  <clipPath id="p5ea2803181">
   <rect height="190.26" width="390.6" x="63" y="30.24"/>
  </clipPath>
 </defs>
</svg>
