<?xml version="1.0" encoding="utf-8" standalone="no"?>
<!DOCTYPE svg PUBLIC "-//W3C//DTD SVG 1.1//EN"
  "http://www.w3.org/Graphics/SVG/1.1/DTD/svg11.dtd">
<!-- Created with matplotlib (https://matplotlib.org/) -->
<svg height="252pt" version="1.1" viewBox="0 0 504 252" width="504pt" xmlns="http://www.w3.org/2000/svg" xmlns:xlink="http://www.w3.org/1999/xlink">
 <defs>
  <style type="text/css">
*{stroke-linecap:butt;stroke-linejoin:round;}
  </style>
 </defs>
 <g id="figure_1">
  <g id="patch_1">
   <path d="M 0 252 
L 504 252 
L 504 0 
L 0 0 
z
" style="fill:none;"/>
  </g>
  <g id="axes_1">
   <g id="patch_2">
    <path d="M 63 220.5 
L 453.6 220.5 
L 453.6 30.24 
L 63 30.24 
z
" style="fill:none;"/>
   </g>
   <g id="matplotlib.axis_1">
    <g id="xtick_1"/>
    <g id="xtick_2"/>
    <g id="xtick_3"/>
    <g id="xtick_4"/>
    <g id="xtick_5"/>
    <g id="xtick_6"/>
   </g>
   <g id="matplotlib.axis_2">
    <g id="ytick_1"/>
    <g id="ytick_2"/>
    <g id="ytick_3"/>
    <g id="ytick_4"/>
    <g id="ytick_5"/>
    <g id="ytick_6"/>
   </g>
   <g id="line2d_1">
    <path clip-path="url(#p6f96400a1e)" d="M 63 122.98998 
L 66.906 119.476125 
L 71.2026 115.924065 
L 75.4992 112.680617 
L 79.7958 109.726558 
L 84.0924 107.041644 
L 88.389 104.603595 
L 93.0762 102.196563 
L 98.154 99.847647 
L 103.6224 97.568524 
L 109.872 95.213918 
L 117.2934 92.672058 
L 125.8866 89.972733 
L 134.8704 87.379183 
L 143.073 85.239111 
L 150.1038 83.627457 
L 156.744 82.336809 
L 162.9936 81.352582 
L 169.2432 80.599441 
L 175.4928 80.066946 
L 182.5236 79.698126 
L 190.7262 79.50601 
L 201.2724 79.499997 
L 214.5528 79.715119 
L 225.099 80.082898 
L 233.3016 80.577227 
L 240.723 81.24792 
L 247.7538 82.114424 
L 254.7846 83.213999 
L 262.206 84.607598 
L 270.7992 86.460382 
L 282.1266 89.15453 
L 297.36 93.01968 
L 308.6874 96.105478 
L 317.2806 98.674357 
L 324.702 101.118158 
L 332.1234 103.803124 
L 339.5448 106.730342 
L 347.7474 110.213046 
L 357.903 114.788121 
L 371.9646 121.39017 
L 386.0262 128.214824 
L 395.7912 133.189164 
L 403.9938 137.613903 
L 411.8058 142.089033 
L 419.6178 146.832304 
L 427.8204 152.075478 
L 437.976 158.85061 
L 452.0376 168.530816 
L 453.6 169.619761 
L 453.6 169.619761 
" style="fill:none;stroke:#257352;stroke-linecap:square;stroke-width:2;"/>
   </g>
   <g id="line2d_2">
    <path clip-path="url(#p6f96400a1e)" d="M 63 133.097245 
L 67.6872 136.436611 
L 73.1556 140.047847 
L 78.2334 143.147763 
L 83.3112 145.987739 
L 87.9984 148.350735 
L 92.295 150.275959 
L 96.5916 151.956219 
L 100.8882 153.387206 
L 105.1848 154.576537 
L 109.4814 155.544392 
L 114.5592 156.446853 
L 120.4182 157.250434 
L 143.4636 160.13982 
L 150.1038 161.360967 
L 157.9158 163.048419 
L 175.8834 167.039324 
L 182.133 168.128268 
L 187.992 168.917682 
L 194.2416 169.518402 
L 201.663 169.984751 
L 220.4118 171.038931 
L 227.052 171.718041 
L 233.6922 172.634617 
L 241.5042 173.960291 
L 260.253 177.263828 
L 266.8932 178.133769 
L 273.1428 178.729179 
L 280.1736 179.169561 
L 293.0634 179.684651 
L 301.6566 180.161217 
L 308.2968 180.753529 
L 314.937 181.577329 
L 322.3584 182.732766 
L 344.6226 186.377578 
L 351.2628 187.126307 
L 357.903 187.64769 
L 366.1056 188.05178 
L 382.5108 188.790723 
L 389.151 189.342962 
L 395.7912 190.121908 
L 403.2126 191.233647 
L 428.211 195.221847 
L 434.8512 195.908908 
L 441.882 196.40192 
L 451.647 196.829437 
L 453.6 196.903862 
L 453.6 196.903862 
" style="fill:none;stroke:#257352;stroke-dasharray:7.4,3.2;stroke-dashoffset:0;stroke-width:2;"/>
   </g>
   <g id="line2d_3">
    <path clip-path="url(#p6f96400a1e)" d="M 63 122.98998 
L 66.906 117.868306 
L 70.812 113.113339 
L 74.718 108.68656 
L 79.0146 104.158333 
L 83.3112 99.953671 
L 87.6078 96.043383 
L 92.295 92.08463 
L 96.9822 88.420232 
L 101.6694 85.027463 
L 106.7472 81.636005 
L 111.825 78.519294 
L 116.9028 75.65894 
L 121.9806 73.038853 
L 127.449 70.469626 
L 132.9174 68.146712 
L 138.3858 66.05589 
L 144.2448 64.058641 
L 150.1038 62.298543 
L 155.9628 60.762292 
L 162.2124 59.356501 
L 168.462 58.177547 
L 175.1022 57.159072 
L 181.7424 56.367831 
L 188.7732 55.763036 
L 195.804 55.383764 
L 203.2254 55.213673 
L 210.6468 55.266609 
L 218.4588 55.550154 
L 226.2708 56.055801 
L 234.4734 56.815392 
L 242.676 57.801106 
L 250.8786 59.007456 
L 259.0812 60.431676 
L 267.2838 62.073584 
L 275.4864 63.935378 
L 283.689 66.021366 
L 291.8916 68.337632 
L 300.0942 70.891655 
L 307.9062 73.552827 
L 315.7182 76.445068 
L 323.5302 79.576213 
L 331.3422 82.953823 
L 339.1542 86.584861 
L 346.5756 90.274615 
L 353.997 94.202789 
L 361.4184 98.372497 
L 369.2304 103.024647 
L 377.0424 107.947117 
L 384.8544 113.138885 
L 392.6664 118.597322 
L 400.4784 124.318286 
L 408.681 130.601815 
L 416.8836 137.161006 
L 425.4768 144.31865 
L 434.4606 152.103053 
L 443.4444 160.183018 
L 452.8188 168.915983 
L 453.6 169.657229 
L 453.6 169.657229 
" style="fill:none;stroke:#ff6e54;stroke-linecap:square;stroke-width:2;"/>
   </g>
   <g id="line2d_4">
    <path clip-path="url(#p6f96400a1e)" d="M 63 116.451157 
L 66.1248 119.59718 
L 69.6402 122.800772 
L 73.1556 125.705181 
L 77.0616 128.637886 
L 81.3582 131.564043 
L 85.6548 134.227452 
L 90.342 136.882267 
L 95.4198 139.510884 
L 100.8882 142.100953 
L 107.1378 144.806107 
L 113.778 147.431866 
L 120.8088 149.978548 
L 128.6208 152.570545 
L 137.214 155.175943 
L 146.1978 157.662898 
L 155.9628 160.126912 
L 166.1184 162.456586 
L 177.0552 164.7306 
L 188.3826 166.8598 
L 200.8818 168.979394 
L 214.5528 171.070471 
L 230.958 173.34705 
L 255.5658 176.506216 
L 287.9856 180.705149 
L 307.5156 183.469552 
L 326.2644 186.349701 
L 347.3568 189.82647 
L 418.446 201.768636 
L 436.8042 204.480574 
L 453.6 206.763693 
L 453.6 206.763693 
" style="fill:none;stroke:#ff6e54;stroke-dasharray:7.4,3.2;stroke-dashoffset:0;stroke-width:2;"/>
   </g>
   <g id="line2d_5">
    <path clip-path="url(#p6f96400a1e)" d="M 63 122.98998 
L 66.5154 117.588398 
L 70.0308 112.562236 
L 73.9368 107.383011 
L 77.8428 102.571929 
L 82.1394 97.624551 
L 86.8266 92.566182 
L 91.5138 87.837999 
L 95.8104 83.806741 
L 100.107 80.06902 
L 104.7942 76.292354 
L 109.872 72.481702 
L 115.3404 68.639558 
L 120.4182 65.319283 
L 125.496 62.272333 
L 130.5738 59.498527 
L 136.4328 56.57047 
L 142.6824 53.689355 
L 148.5414 51.226767 
L 153.6192 49.322162 
L 159.0876 47.507567 
L 165.7278 45.553125 
L 172.368 43.814293 
L 178.227 42.502619 
L 183.6954 41.504105 
L 189.945 40.591814 
L 197.3664 39.731057 
L 203.616 39.208294 
L 209.475 38.944481 
L 215.7246 38.8941 
L 223.5366 39.062989 
L 230.5674 39.431428 
L 236.4264 39.958965 
L 243.0666 40.796379 
L 251.2692 42.072049 
L 258.3 43.379266 
L 264.5496 44.776872 
L 271.5804 46.598777 
L 280.1736 49.069187 
L 286.8138 51.188714 
L 293.0634 53.413117 
L 300.4848 56.301947 
L 309.078 59.882935 
L 315.7182 62.877147 
L 322.3584 66.119812 
L 330.561 70.383934 
L 338.7636 74.881263 
L 345.4038 78.770933 
L 352.8252 83.393373 
L 361.809 89.253331 
L 369.2304 94.339436 
L 376.2612 99.437761 
L 384.8544 105.962144 
L 393.4476 112.741626 
L 400.4784 118.564624 
L 408.2904 125.331681 
L 418.0554 134.091063 
L 425.4768 141.026538 
L 433.2888 148.650095 
L 443.0538 158.507727 
L 451.2564 167.078583 
L 453.6 169.59493 
L 453.6 169.59493 
" style="fill:none;stroke:#8454ff;stroke-linecap:square;stroke-width:2;"/>
   </g>
   <g id="line2d_6">
    <path clip-path="url(#p6f96400a1e)" d="M 63 107.480212 
L 68.0778 113.591348 
L 71.5932 117.478654 
L 74.3274 120.178404 
L 77.0616 122.537353 
L 79.7958 124.566274 
L 82.9206 126.575374 
L 102.06 138.002801 
L 105.1848 139.485414 
L 108.3096 140.723506 
L 114.5592 142.871683 
L 118.8558 144.482852 
L 124.7148 146.969243 
L 129.0114 148.700964 
L 132.5268 149.873102 
L 136.4328 150.90908 
L 145.4166 153.156072 
L 150.1038 154.66696 
L 156.744 156.821633 
L 160.2594 157.720976 
L 164.556 158.575821 
L 171.5868 159.945739 
L 175.8834 161.056263 
L 185.6484 163.724111 
L 189.5544 164.475755 
L 200.8818 166.451077 
L 205.9596 167.738696 
L 211.8186 169.194015 
L 215.7246 169.929861 
L 221.9742 170.81917 
L 226.6614 171.593832 
L 230.958 172.540026 
L 240.3324 174.712652 
L 244.629 175.395084 
L 254.394 176.811475 
L 259.0812 177.828657 
L 266.8932 179.586842 
L 271.1898 180.278394 
L 282.5172 181.901394 
L 287.595 183.017677 
L 293.8446 184.384604 
L 298.1412 185.076623 
L 310.2498 186.79977 
L 315.7182 188.004213 
L 321.5772 189.239224 
L 325.8738 189.898832 
L 336.8106 191.406167 
L 341.4978 192.395184 
L 348.9192 193.972782 
L 353.2158 194.62461 
L 364.1526 196.128888 
L 369.2304 197.204017 
L 375.8706 198.612663 
L 380.1672 199.278462 
L 391.8852 200.9103 
L 396.963 201.999848 
L 403.2126 203.3138 
L 407.5092 203.975923 
L 418.8366 205.539079 
L 423.9144 206.616285 
L 430.5546 208.014683 
L 434.8512 208.674076 
L 446.1786 210.244641 
L 451.2564 211.324778 
L 453.6 211.851818 
L 453.6 211.851818 
" style="fill:none;stroke:#8454ff;stroke-dasharray:7.4,3.2;stroke-dashoffset:0;stroke-width:2;"/>
   </g>
   <g id="patch_3">
    <path d="M 63 220.5 
L 63 30.24 
" style="fill:none;stroke:#000000;stroke-linecap:square;stroke-linejoin:miter;stroke-width:0.8;"/>
   </g>
   <g id="patch_4">
    <path d="M 453.6 220.5 
L 453.6 30.24 
" style="fill:none;stroke:#000000;stroke-linecap:square;stroke-linejoin:miter;stroke-width:0.8;"/>
   </g>
   <g id="patch_5">
    <path d="M 63 220.5 
L 453.6 220.5 
" style="fill:none;stroke:#000000;stroke-linecap:square;stroke-linejoin:miter;stroke-width:0.8;"/>
   </g>
   <g id="patch_6">
    <path d="M 63 30.24 
L 453.6 30.24 
" style="fill:none;stroke:#000000;stroke-linecap:square;stroke-linejoin:miter;stroke-width:0.8;"/>
   </g>
  </g>
 </g>
 <defs>
  <clipPath id="p6f96400a1e">
   <rect height="190.26" width="390.6" x="63" y="30.24"/>
  </clipPath>
 </defs>
</svg>
