<?xml version="1.0" encoding="utf-8" standalone="no"?>
<!DOCTYPE svg PUBLIC "-//W3C//DTD SVG 1.1//EN"
  "http://www.w3.org/Graphics/SVG/1.1/DTD/svg11.dtd">
<!-- Created with matplotlib (https://matplotlib.org/) -->
<svg height="252pt" version="1.1" viewBox="0 0 504 252" width="504pt" xmlns="http://www.w3.org/2000/svg" xmlns:xlink="http://www.w3.org/1999/xlink">
 <defs>
  <style type="text/css">
*{stroke-linecap:butt;stroke-linejoin:round;}
  </style>
 </defs>
 <g id="figure_1">
  <g id="patch_1">
   <path d="M 0 252 
L 504 252 
L 504 0 
L 0 0 
z
" style="fill:none;"/>
  </g>
  <g id="axes_1">
   <g id="patch_2">
    <path d="M 63 220.5 
L 453.6 220.5 
L 453.6 30.24 
L 63 30.24 
z
" style="fill:none;"/>
   </g>
   <g id="matplotlib.axis_1">
    <g id="xtick_1"/>
    <g id="xtick_2"/>
    <g id="xtick_3"/>
    <g id="xtick_4"/>
    <g id="xtick_5"/>
    <g id="xtick_6"/>
   </g>
   <g id="matplotlib.axis_2">
    <g id="ytick_1"/>
    <g id="ytick_2"/>
    <g id="ytick_3"/>
    <g id="ytick_4"/>
    <g id="ytick_5"/>
    <g id="ytick_6"/>
   </g>
   <g id="line2d_1">
    <path clip-path="url(#p707edd93c4)" d="M 63 143.670448 
L 84.0924 133.274617 
L 106.3566 122.047622 
L 131.7456 108.986078 
L 195.0228 76.290509 
L 208.6938 69.583786 
L 220.0212 64.271132 
L 229.7862 59.925918 
L 238.77 56.163416 
L 246.9726 52.958057 
L 254.7846 50.137274 
L 262.206 47.691124 
L 269.2368 45.604478 
L 275.877 43.857776 
L 282.5172 42.345619 
L 288.7668 41.151716 
L 294.6258 40.24724 
L 300.4848 39.5627 
L 306.3438 39.110033 
L 311.8122 38.907451 
L 317.2806 38.927471 
L 322.749 39.1803 
L 327.8268 39.632588 
L 332.9046 40.302973 
L 337.9824 41.19999 
L 343.0602 42.332287 
L 348.138 43.708619 
L 352.8252 45.203342 
L 357.5124 46.920602 
L 362.1996 48.867525 
L 366.8868 51.051306 
L 371.574 53.479214 
L 376.2612 56.158587 
L 380.9484 59.096834 
L 385.6356 62.301473 
L 390.3228 65.780146 
L 395.01 69.540622 
L 399.6972 73.590794 
L 404.3844 77.938671 
L 409.0716 82.59238 
L 413.7588 87.560159 
L 418.446 92.850358 
L 423.1332 98.471428 
L 427.8204 104.431929 
L 432.5076 110.740517 
L 437.1948 117.405945 
L 441.882 124.43706 
L 446.5692 131.8428 
L 451.647 140.298907 
L 453.6 143.673595 
L 453.6 143.673595 
" style="fill:none;stroke:#257352;stroke-linecap:square;stroke-width:2;"/>
   </g>
   <g id="line2d_2">
    <path clip-path="url(#p707edd93c4)" d="M 63 124.646325 
L 115.3404 123.621689 
L 141.9012 123.335731 
L 161.8218 123.330414 
L 177.0552 123.54336 
L 190.3356 123.945278 
L 202.4442 124.52912 
L 213.7716 125.294926 
L 224.3178 126.223562 
L 234.864 127.374743 
L 245.4102 128.754227 
L 255.5658 130.303287 
L 265.7214 132.073465 
L 275.877 134.06919 
L 286.0326 136.294763 
L 296.1882 138.754349 
L 305.9532 141.34417 
L 315.7182 144.160564 
L 325.4832 147.210209 
L 335.2482 150.499534 
L 344.6226 153.888513 
L 353.997 157.509324 
L 363.3714 161.366995 
L 372.7458 165.466341 
L 382.1202 169.812213 
L 391.4946 174.411806 
L 400.4784 179.065512 
L 409.4622 183.966802 
L 418.446 189.122254 
L 427.4298 194.538089 
L 436.4136 200.220166 
L 445.3974 206.173996 
L 453.6 211.851818 
L 453.6 211.851818 
" style="fill:none;stroke:#257352;stroke-dasharray:7.4,3.2;stroke-dashoffset:0;stroke-width:2;"/>
   </g>
   <g id="line2d_3">
    <path clip-path="url(#p707edd93c4)" d="M 63 143.670448 
L 83.3112 138.190511 
L 104.013 132.372352 
L 125.496 126.101015 
L 149.3226 118.906092 
L 186.8202 107.29923 
L 209.475 100.414099 
L 224.3178 96.126251 
L 236.817 92.743406 
L 247.7538 90.011177 
L 257.5188 87.791191 
L 266.8932 85.887527 
L 275.4864 84.364665 
L 283.689 83.131768 
L 291.501 82.177473 
L 298.9224 81.486489 
L 306.3438 81.021626 
L 313.3746 80.804268 
L 320.0148 80.810853 
L 326.655 81.035165 
L 333.2952 81.488995 
L 339.5448 82.136435 
L 345.7944 83.007688 
L 352.044 84.112792 
L 357.903 85.370186 
L 363.762 86.850344 
L 369.621 88.561662 
L 375.48 90.512576 
L 381.339 92.71156 
L 386.8074 94.995284 
L 392.2758 97.50953 
L 397.7442 100.261355 
L 403.2126 103.257879 
L 408.681 106.506292 
L 414.1494 110.013859 
L 419.6178 113.787926 
L 425.0862 117.835925 
L 430.5546 122.165386 
L 436.023 126.783941 
L 441.4914 131.699337 
L 446.9598 136.919442 
L 452.4282 142.45226 
L 453.6 143.679328 
L 453.6 143.679328 
" style="fill:none;stroke:#ff6e54;stroke-linecap:square;stroke-width:2;"/>
   </g>
   <g id="line2d_4">
    <path clip-path="url(#p707edd93c4)" d="M 63 133.352353 
L 134.0892 131.923032 
L 162.603 131.57278 
L 181.3518 131.55573 
L 197.3664 131.760917 
L 211.428 132.157296 
L 224.7084 132.752898 
L 237.5982 133.556678 
L 250.0974 134.555187 
L 262.5966 135.774728 
L 275.0958 137.220009 
L 287.2044 138.839303 
L 299.313 140.677588 
L 311.4216 142.738277 
L 323.5302 145.025756 
L 335.6388 147.543889 
L 347.7474 150.295882 
L 359.4654 153.184315 
L 371.1834 156.296443 
L 382.9014 159.63436 
L 394.6194 163.201325 
L 406.3374 167.001729 
L 418.0554 171.040641 
L 429.3828 175.177278 
L 440.7102 179.548883 
L 452.0376 184.163168 
L 453.6 184.819157 
L 453.6 184.819157 
" style="fill:none;stroke:#ff6e54;stroke-dasharray:7.4,3.2;stroke-dashoffset:0;stroke-width:2;"/>
   </g>
   <g id="line2d_5">
    <path clip-path="url(#p707edd93c4)" d="M 63 143.670448 
L 82.9206 144.226943 
L 102.8412 144.560857 
L 122.7618 144.671061 
L 142.6824 144.558415 
L 162.9936 144.217959 
L 184.086 143.636183 
L 206.7408 142.784577 
L 234.4734 141.506244 
L 308.6874 137.958784 
L 328.9986 137.28927 
L 346.185 136.942465 
L 361.4184 136.85408 
L 375.48 136.995733 
L 388.3698 137.34724 
L 400.4784 137.899963 
L 411.8058 138.638615 
L 422.352 139.542277 
L 432.5076 140.630914 
L 442.2726 141.900096 
L 451.647 143.342717 
L 453.6 143.672672 
L 453.6 143.672672 
" style="fill:none;stroke:#8454ff;stroke-linecap:square;stroke-width:2;"/>
   </g>
   <g id="line2d_6">
    <path clip-path="url(#p707edd93c4)" d="M 63 144.978263 
L 199.3194 142.136479 
L 229.7862 141.779356 
L 257.1282 141.683176 
L 283.2984 141.813185 
L 308.2968 142.15901 
L 331.7328 142.703537 
L 353.6064 143.431467 
L 374.3082 144.339403 
L 393.8382 145.413661 
L 412.1964 146.6459 
L 429.3828 148.022084 
L 445.788 149.559362 
L 453.6 150.374322 
L 453.6 150.374322 
" style="fill:none;stroke:#8454ff;stroke-dasharray:7.4,3.2;stroke-dashoffset:0;stroke-width:2;"/>
   </g>
   <g id="patch_3">
    <path d="M 63 220.5 
L 63 30.24 
" style="fill:none;stroke:#000000;stroke-linecap:square;stroke-linejoin:miter;stroke-width:0.8;"/>
   </g>
   <g id="patch_4">
    <path d="M 453.6 220.5 
L 453.6 30.24 
" style="fill:none;stroke:#000000;stroke-linecap:square;stroke-linejoin:miter;stroke-width:0.8;"/>
   </g>
   <g id="patch_5">
    <path d="M 63 220.5 
L 453.6 220.5 
" style="fill:none;stroke:#000000;stroke-linecap:square;stroke-linejoin:miter;stroke-width:0.8;"/>
   </g>
   <g id="patch_6">
    <path d="M 63 30.24 
L 453.6 30.24 
" style="fill:none;stroke:#000000;stroke-linecap:square;stroke-linejoin:miter;stroke-width:0.8;"/>
   </g>
  </g>
 </g>
 <defs>
  <clipPath id="p707edd93c4">
   <rect height="190.26" width="390.6" x="63" y="30.24"/>
  </clipPath>
 </defs>
</svg>
