<?xml version="1.0" encoding="utf-8" standalone="no"?>
<!DOCTYPE svg PUBLIC "-//W3C//DTD SVG 1.1//EN"
  "http://www.w3.org/Graphics/SVG/1.1/DTD/svg11.dtd">
<!-- Created with matplotlib (https://matplotlib.org/) -->
<svg height="252pt" version="1.1" viewBox="0 0 504 252" width="504pt" xmlns="http://www.w3.org/2000/svg" xmlns:xlink="http://www.w3.org/1999/xlink">
 <defs>
  <style type="text/css">
*{stroke-linecap:butt;stroke-linejoin:round;}
  </style>
 </defs>
 <g id="figure_1">
  <g id="patch_1">
   <path d="M 0 252 
L 504 252 
L 504 0 
L 0 0 
z
" style="fill:none;"/>
  </g>
  <g id="axes_1">
   <g id="patch_2">
    <path d="M 63 220.5 
L 453.6 220.5 
L 453.6 30.24 
L 63 30.24 
z
" style="fill:none;"/>
   </g>
   <g id="matplotlib.axis_1">
    <g id="xtick_1"/>
    <g id="xtick_2"/>
    <g id="xtick_3"/>
    <g id="xtick_4"/>
    <g id="xtick_5"/>
    <g id="xtick_6"/>
   </g>
   <g id="matplotlib.axis_2">
    <g id="ytick_1"/>
    <g id="ytick_2"/>
    <g id="ytick_3"/>
    <g id="ytick_4"/>
    <g id="ytick_5"/>
   </g>
   <g id="line2d_1">
    <path clip-path="url(#pe7f1aaa4a3)" d="M 63 63.575389 
L 141.12 63.575389 
L 141.5106 208.716496 
L 219.24 208.716496 
L 219.6306 63.575389 
L 297.36 63.575389 
L 297.7506 160.336127 
L 375.48 160.336127 
L 375.8706 208.716496 
L 453.6 208.716496 
L 453.6 208.716496 
" style="fill:none;stroke:#8cbfb9;stroke-linecap:square;stroke-width:4;"/>
   </g>
   <g id="line2d_2">
    <path clip-path="url(#pe7f1aaa4a3)" d="M 63 64.11212 
L 63.3906 64.189331 
L 63.7812 64.031381 
L 64.1718 63.417505 
L 64.5624 64.367053 
L 64.953 64.352678 
L 65.3436 61.333413 
L 65.7342 61.875631 
L 66.1248 64.458258 
L 66.5154 64.714067 
L 68.4684 63.44049 
L 68.859 63.15247 
L 69.2496 63.210755 
L 69.6402 64.110506 
L 70.0308 63.488467 
L 70.4214 61.706968 
L 70.812 61.764808 
L 71.2026 62.580983 
L 71.5932 63.984534 
L 71.9838 64.943713 
L 73.5462 63.867254 
L 74.3274 63.191534 
L 74.718 63.398629 
L 75.1086 64.65741 
L 75.4992 63.333093 
L 75.8898 60.103175 
L 76.2804 62.363447 
L 76.671 65.653868 
L 77.4522 62.243721 
L 78.2334 64.89738 
L 80.1864 63.484492 
L 80.577 63.694787 
L 80.9676 65.287633 
L 81.3582 63.746274 
L 81.7488 58.633824 
L 82.1394 56.484269 
L 82.53 61.721832 
L 82.9206 69.628173 
L 83.3112 69.764535 
L 83.7018 64.310984 
L 84.0924 61.139555 
L 84.483 62.408212 
L 84.8736 64.219713 
L 85.6548 63.784946 
L 86.436 63.228417 
L 86.8266 63.690466 
L 87.2172 65.340319 
L 87.6078 63.216009 
L 87.9984 59.127302 
L 88.389 61.455216 
L 88.7796 64.587235 
L 89.1702 64.439377 
L 89.5608 64.098478 
L 89.9514 64.181163 
L 90.342 65.591907 
L 90.7326 64.690751 
L 91.1232 61.023994 
L 91.5138 61.596298 
L 91.9044 63.955773 
L 92.295 64.113124 
L 93.0762 63.590549 
L 93.8574 65.903463 
L 94.248 62.104266 
L 94.6386 59.478083 
L 95.0292 62.855035 
L 95.4198 65.132914 
L 96.5916 64.486446 
L 96.9822 62.840005 
L 97.3728 58.421936 
L 97.7634 62.987557 
L 98.154 70.949589 
L 98.9352 60.501397 
L 99.3258 62.766533 
L 99.7164 63.409656 
L 100.107 63.475117 
L 100.4976 65.655622 
L 100.8882 64.733276 
L 101.2788 59.366571 
L 101.6694 60.241326 
L 102.06 64.151025 
L 102.4506 64.721208 
L 105.1848 63.136921 
L 105.5754 64.530052 
L 105.966 64.96792 
L 106.3566 61.224342 
L 106.7472 59.918638 
L 107.5284 65.328566 
L 107.919 66.256513 
L 108.3096 62.21741 
L 108.7002 59.799224 
L 109.0908 63.172418 
L 109.4814 65.280917 
L 111.825 64.178506 
L 112.2156 62.242494 
L 112.6062 57.170424 
L 112.9968 61.061316 
L 113.3874 70.52736 
L 113.778 69.553103 
L 114.5592 61.010255 
L 114.9498 59.623476 
L 115.3404 64.092464 
L 115.731 63.977516 
L 116.1216 59.644175 
L 116.5122 61.361726 
L 116.9028 64.44542 
L 117.2934 64.578495 
L 120.4182 63.521929 
L 120.8088 63.43132 
L 121.59 62.972724 
L 121.9806 62.9559 
L 122.7618 65.094149 
L 123.1524 63.636574 
L 123.543 61.451579 
L 123.9336 60.462098 
L 124.3242 61.474275 
L 124.7148 63.922993 
L 125.1054 65.033213 
L 127.0584 64.555351 
L 127.449 64.289835 
L 127.8396 63.411117 
L 128.2302 62.913692 
L 128.6208 63.585218 
L 129.0114 63.808064 
L 129.402 63.368714 
L 129.7926 63.252414 
L 130.5738 63.263286 
L 131.355 63.010559 
L 131.7456 62.313827 
L 132.1362 62.479647 
L 132.5268 64.285337 
L 132.9174 64.854064 
L 133.308 63.984952 
L 133.6986 63.593323 
L 136.4328 63.551974 
L 137.214 63.613006 
L 137.9952 63.52533 
L 139.9482 63.552462 
L 140.3388 69.433033 
L 141.12 179.692402 
L 141.5106 202.782958 
L 141.9012 208.283841 
L 142.2918 208.143219 
L 142.6824 208.46246 
L 143.073 209.695569 
L 143.4636 209.360666 
L 143.8542 208.471947 
L 146.5884 208.665797 
L 150.4944 208.726285 
L 150.885 208.455047 
L 151.2756 208.599981 
L 151.6662 209.114772 
L 152.0568 208.950378 
L 152.4474 208.096154 
L 152.838 208.209853 
L 153.2286 209.422623 
L 153.6192 209.434717 
L 154.0098 208.69965 
L 154.4004 208.544429 
L 156.744 208.706821 
L 157.5252 208.761191 
L 158.3064 208.23023 
L 158.697 208.967801 
L 159.0876 209.44469 
L 159.8688 208.489026 
L 161.0406 208.634996 
L 162.2124 208.766463 
L 162.9936 208.032859 
L 163.7748 209.831642 
L 164.556 208.677968 
L 164.9466 208.675088 
L 165.3372 208.283315 
L 165.7278 208.323226 
L 166.1184 209.172158 
L 166.509 209.143062 
L 166.8996 208.531204 
L 167.2902 208.418627 
L 168.0714 208.523739 
L 168.462 208.401874 
L 168.8526 208.42259 
L 169.2432 208.814549 
L 169.6338 208.936935 
L 170.0244 208.779172 
L 170.8056 208.806268 
L 171.1962 208.855325 
L 171.5868 208.690224 
L 171.9774 208.374133 
L 172.7586 209.517107 
L 173.1492 208.292821 
L 173.5398 207.907794 
L 173.9304 209.47236 
L 174.321 209.485807 
L 174.7116 208.575167 
L 175.1022 208.429797 
L 177.8364 208.807599 
L 178.227 208.228059 
L 178.6176 207.854599 
L 179.0082 209.221772 
L 179.3988 210.020099 
L 180.18 208.37178 
L 181.7424 208.598306 
L 182.9142 208.795268 
L 183.6954 207.905517 
L 184.4766 210.031656 
L 184.8672 208.827281 
L 185.2578 208.575461 
L 185.6484 209.508191 
L 186.039 209.002129 
L 186.4296 208.301286 
L 187.6014 208.475437 
L 187.992 208.545781 
L 188.3826 208.239712 
L 188.7732 208.096924 
L 189.1638 208.940672 
L 189.5544 209.381981 
L 189.945 208.934547 
L 190.3356 208.708619 
L 190.7262 208.7815 
L 191.1168 208.33831 
L 191.5074 208.253842 
L 191.898 209.38331 
L 192.2886 209.609065 
L 192.6792 208.769444 
L 193.0698 208.459751 
L 193.4604 208.415606 
L 193.851 207.557222 
L 194.2416 207.878365 
L 194.6322 209.884936 
L 195.0228 209.870085 
L 195.4134 208.71704 
L 195.804 208.554334 
L 196.5852 208.717138 
L 196.9758 208.468801 
L 197.3664 208.037404 
L 197.757 208.299865 
L 198.1476 209.438818 
L 198.5382 209.973349 
L 199.3194 208.192099 
L 200.1006 208.281508 
L 203.616 209.076832 
L 204.3972 207.166686 
L 204.7878 209.781128 
L 205.1784 211.43631 
L 205.9596 207.367512 
L 206.3502 208.183947 
L 206.7408 209.399233 
L 207.1314 208.885995 
L 207.522 208.161136 
L 209.0844 208.502072 
L 209.8656 208.704511 
L 210.2562 208.654155 
L 210.6468 208.170498 
L 211.0374 208.552812 
L 211.428 209.714742 
L 211.8186 209.39418 
L 212.2092 208.58102 
L 212.5998 208.552529 
L 214.1622 208.919544 
L 214.5528 208.810362 
L 214.9434 208.478293 
L 215.334 208.370703 
L 216.1152 208.794242 
L 216.8964 208.934565 
L 218.0682 208.573899 
L 218.4588 208.293916 
L 218.8494 202.774506 
L 219.24 179.421838 
L 220.0212 72.959314 
L 220.4118 67.217916 
L 220.8024 63.222121 
L 221.193 61.972422 
L 221.5836 62.369617 
L 221.9742 60.447229 
L 222.3648 48.085243 
L 222.7554 51.451893 
L 223.146 74.523202 
L 223.5366 80.842908 
L 223.9272 75.979857 
L 224.7084 60.448036 
L 225.4896 61.113284 
L 225.8802 57.60496 
L 226.2708 56.434405 
L 226.6614 65.777186 
L 227.052 69.559941 
L 227.4426 63.377088 
L 227.8332 59.807791 
L 229.005 61.568109 
L 232.911 65.471162 
L 233.3016 62.733665 
L 233.6922 55.571732 
L 234.0828 63.706633 
L 234.4734 75.865431 
L 234.864 68.928957 
L 235.2546 65.380823 
L 235.6452 63.399 
L 236.0358 45.222982 
L 236.4264 58.303142 
L 236.817 82.954677 
L 237.2076 74.733618 
L 237.5982 59.701442 
L 237.9888 59.600745 
L 242.2854 63.831232 
L 242.676 64.200028 
L 243.0666 64.201029 
L 243.4572 61.514274 
L 243.8478 61.039477 
L 244.2384 58.739006 
L 244.629 62.037072 
L 245.0196 76.056773 
L 245.4102 74.003137 
L 245.8008 62.927254 
L 246.1914 60.781753 
L 246.582 61.074486 
L 246.9726 61.922327 
L 247.7538 62.844077 
L 248.9256 63.975296 
L 249.3162 58.34803 
L 249.7068 40.511149 
L 250.0974 56.765197 
L 250.488 87.786343 
L 250.8786 80.922468 
L 251.2692 62.509149 
L 251.6598 61.554693 
L 252.0504 61.762414 
L 252.441 60.017692 
L 252.8316 60.532997 
L 253.2222 65.242844 
L 253.6128 65.700402 
L 254.0034 63.097655 
L 254.394 62.170232 
L 254.7846 53.147286 
L 255.1752 53.05981 
L 255.5658 72.600094 
L 255.9564 75.070205 
L 256.347 63.645855 
L 256.7376 60.318884 
L 257.5188 61.213538 
L 261.0342 64.427213 
L 261.4248 64.505707 
L 261.8154 63.738615 
L 262.206 64.779311 
L 262.5966 67.376257 
L 262.9872 62.05952 
L 263.3778 38.888182 
L 263.7684 52.865149 
L 264.159 90.358916 
L 264.5496 85.39604 
L 264.9402 64.043848 
L 265.3308 55.120442 
L 265.7214 50.197998 
L 266.112 65.805538 
L 266.5026 75.162827 
L 267.2838 59.162088 
L 270.7992 62.314399 
L 271.1898 62.300557 
L 271.5804 62.49779 
L 271.971 63.615842 
L 272.3616 64.257027 
L 272.7522 64.034962 
L 273.1428 64.075902 
L 275.0958 65.770966 
L 275.4864 66.340018 
L 275.877 63.084368 
L 276.2676 55.376365 
L 276.6582 60.539107 
L 277.0488 53.641051 
L 277.4394 56.007318 
L 277.83 89.914705 
L 278.2206 87.267586 
L 278.6112 62.485529 
L 279.0018 58.541529 
L 284.4702 63.28751 
L 286.8138 65.164485 
L 287.595 62.707902 
L 287.9856 63.41314 
L 288.3762 64.591485 
L 289.1574 65.259127 
L 289.548 65.50292 
L 290.3292 65.720421 
L 290.7198 65.280854 
L 291.501 59.697592 
L 291.8916 61.089975 
L 292.2822 62.923579 
L 293.0634 63.568554 
L 294.2352 63.866249 
L 294.6258 63.409018 
L 295.0164 63.207115 
L 295.7976 63.662042 
L 296.1882 63.742213 
L 296.5788 65.635926 
L 296.9694 88.012712 
L 297.36 128.041428 
L 297.7506 152.812754 
L 298.1412 152.975499 
L 298.5318 150.251805 
L 298.9224 166.683799 
L 299.313 173.287855 
L 299.7036 162.670551 
L 300.0942 155.642351 
L 300.4848 161.124668 
L 300.8754 163.254869 
L 301.266 160.088204 
L 301.6566 158.387632 
L 306.7344 160.603644 
L 308.6874 161.412469 
L 309.4686 159.54242 
L 309.8592 156.824006 
L 310.2498 153.216291 
L 311.031 172.683573 
L 311.8122 158.089704 
L 314.937 159.370652 
L 317.2806 160.284669 
L 318.0618 161.047533 
L 318.4524 160.25273 
L 318.843 158.343144 
L 319.2336 160.277199 
L 319.6242 163.734606 
L 320.0148 162.912459 
L 320.4054 160.965236 
L 320.796 160.597055 
L 321.1866 160.845846 
L 321.5772 156.830867 
L 321.9678 148.164488 
L 322.749 173.897261 
L 323.1396 168.117555 
L 323.5302 158.487407 
L 323.9208 158.317895 
L 325.0926 158.711326 
L 325.8738 160.009496 
L 326.655 158.000904 
L 327.4362 160.207074 
L 327.8268 160.157812 
L 328.2174 159.098096 
L 328.608 159.675391 
L 328.9986 162.230949 
L 329.3892 161.97414 
L 329.7798 160.406009 
L 330.1704 160.235567 
L 330.561 160.38916 
L 330.9516 160.667985 
L 331.3422 160.661446 
L 331.7328 160.387347 
L 332.1234 160.56839 
L 332.514 160.907482 
L 332.9046 161.02435 
L 333.2952 159.040736 
L 333.6858 150.217988 
L 334.0764 156.03513 
L 334.467 171.765464 
L 334.8576 169.202304 
L 335.2482 159.9278 
L 335.6388 159.162745 
L 337.2012 159.471047 
L 337.5918 158.666089 
L 337.9824 158.68078 
L 338.373 160.660737 
L 338.7636 160.975211 
L 339.1542 159.71316 
L 339.5448 159.307587 
L 341.1072 159.521648 
L 341.4978 161.936509 
L 341.8884 162.987349 
L 342.279 157.851241 
L 342.6696 155.676225 
L 343.0602 159.716898 
L 343.4508 161.870146 
L 343.8414 162.109438 
L 344.6226 162.233293 
L 345.0132 160.318882 
L 345.4038 149.784645 
L 345.7944 155.021417 
L 346.185 173.452554 
L 346.5756 171.373217 
L 346.9662 160.209122 
L 347.3568 157.981999 
L 347.7474 157.839904 
L 348.138 159.055155 
L 348.5286 159.4004 
L 348.9192 158.519036 
L 349.3098 158.096139 
L 349.7004 160.049845 
L 350.091 163.265384 
L 350.4816 158.738951 
L 350.8722 151.199992 
L 351.6534 161.294094 
L 352.044 161.422753 
L 354.7782 161.225562 
L 355.1688 161.03805 
L 356.3406 161.006833 
L 356.7312 159.893691 
L 357.1218 149.775314 
L 357.5124 151.481784 
L 357.903 170.810472 
L 358.2936 175.213195 
L 358.6842 164.032648 
L 359.0748 148.808727 
L 359.4654 150.919764 
L 359.856 159.712649 
L 360.2466 160.902597 
L 362.9808 160.301998 
L 365.715 159.46565 
L 366.1056 159.325341 
L 366.4962 159.394129 
L 366.8868 160.604306 
L 367.2774 162.227763 
L 367.668 162.295853 
L 368.0586 161.562818 
L 368.8398 161.507277 
L 369.621 158.771789 
L 370.0116 159.061487 
L 370.4022 159.931337 
L 370.7928 160.295556 
L 371.1834 160.441028 
L 373.9176 160.339619 
L 374.3082 160.410282 
L 374.6988 161.355071 
L 375.0894 172.643874 
L 375.48 193.164591 
L 375.8706 206.610367 
L 376.2612 206.714406 
L 376.6518 203.931752 
L 377.0424 209.779137 
L 377.433 211.581604 
L 377.8236 209.356277 
L 378.2142 209.043436 
L 378.9954 209.043967 
L 379.7766 208.411244 
L 380.5578 208.572119 
L 382.1202 208.188364 
L 382.5108 208.496039 
L 382.9014 210.290475 
L 383.292 209.277871 
L 383.6826 205.071235 
L 384.0732 206.506126 
L 384.4638 209.625238 
L 384.8544 209.923216 
L 385.245 209.829684 
L 385.6356 209.381398 
L 386.0262 207.561259 
L 386.4168 208.348864 
L 386.8074 211.582872 
L 387.198 210.812775 
L 387.5886 208.546341 
L 388.3698 208.101809 
L 388.7604 207.945655 
L 389.151 208.20355 
L 389.5416 208.634641 
L 389.9322 209.602531 
L 390.3228 208.197743 
L 390.7134 204.681508 
L 391.104 206.53324 
L 391.4946 209.459482 
L 391.8852 209.65842 
L 395.01 208.879775 
L 395.4006 208.567495 
L 395.7912 206.935792 
L 396.1818 207.298937 
L 396.5724 210.751945 
L 396.963 211.851818 
L 397.7442 204.738017 
L 398.1348 206.518973 
L 398.5254 209.145174 
L 398.916 209.258507 
L 399.3066 209.221577 
L 399.6972 209.399617 
L 400.0878 209.201882 
L 400.4784 208.57054 
L 400.869 208.581002 
L 401.2596 208.841715 
L 402.822 208.505322 
L 403.2126 208.411658 
L 403.6032 208.865231 
L 403.9938 210.085539 
L 404.3844 208.689382 
L 404.775 205.842481 
L 405.1656 207.427486 
L 405.5562 208.371232 
L 405.9468 208.55229 
L 406.3374 210.958644 
L 406.728 210.916074 
L 407.1186 209.194032 
L 407.5092 208.683717 
L 407.8998 208.598823 
L 408.2904 208.647615 
L 408.681 208.909013 
L 409.0716 208.512891 
L 409.4622 207.702282 
L 409.8528 207.903483 
L 410.634 208.721815 
L 411.0246 209.756254 
L 411.4152 208.500078 
L 411.8058 206.215493 
L 412.587 209.464428 
L 413.3682 209.385562 
L 414.9306 209.034831 
L 415.3212 207.936878 
L 415.7118 207.780454 
L 416.1024 209.858194 
L 416.493 210.075008 
L 416.8836 208.583158 
L 417.2742 208.206323 
L 417.6648 208.816739 
L 418.0554 209.211598 
L 418.8366 206.153606 
L 419.6178 209.252899 
L 420.399 209.186599 
L 424.305 208.554469 
L 424.6956 208.705221 
L 425.0862 209.040995 
L 425.4768 208.480486 
L 425.8674 207.590655 
L 426.258 208.149184 
L 426.6486 208.965532 
L 427.0392 209.070103 
L 431.7264 208.607711 
L 432.117 208.947099 
L 432.5076 208.858534 
L 432.8982 207.999987 
L 433.2888 208.255112 
L 433.6794 208.231923 
L 434.07 208.083952 
L 434.4606 209.487618 
L 434.8512 209.854149 
L 435.2418 209.069086 
L 435.6324 208.786258 
L 439.1478 208.571954 
L 439.929 208.791415 
L 440.7102 208.130331 
L 441.882 209.045182 
L 442.2726 208.738685 
L 442.6632 208.733558 
L 443.0538 209.27433 
L 443.4444 209.210667 
L 443.835 208.759165 
L 444.6162 208.627674 
L 446.9598 208.576495 
L 447.3504 208.257381 
L 447.741 208.508632 
L 448.1316 208.98199 
L 448.5222 208.985113 
L 449.3034 208.849759 
L 451.647 208.659297 
L 452.8188 208.678552 
L 453.2094 208.855929 
L 453.6 209.37233 
L 453.6 209.37233 
" style="fill:none;stroke:#000000;stroke-dasharray:7.4,3.2;stroke-dashoffset:0;stroke-width:2;"/>
    <defs>
     <path d="M -2.5 2.5 
L 2.5 2.5 
L 2.5 -2.5 
L -2.5 -2.5 
z
" id="m94c200cd62" style="stroke:#000000;stroke-linejoin:miter;"/>
    </defs>
    <g clip-path="url(#pe7f1aaa4a3)">
     <use style="fill:#ffffff;stroke:#000000;stroke-linejoin:miter;" x="63" xlink:href="#m94c200cd62" y="64.11212"/>
     <use style="fill:#ffffff;stroke:#000000;stroke-linejoin:miter;" x="82.53" xlink:href="#m94c200cd62" y="61.721832"/>
     <use style="fill:#ffffff;stroke:#000000;stroke-linejoin:miter;" x="102.06" xlink:href="#m94c200cd62" y="64.151025"/>
     <use style="fill:#ffffff;stroke:#000000;stroke-linejoin:miter;" x="121.59" xlink:href="#m94c200cd62" y="62.972724"/>
     <use style="fill:#ffffff;stroke:#000000;stroke-linejoin:miter;" x="141.12" xlink:href="#m94c200cd62" y="179.692402"/>
     <use style="fill:#ffffff;stroke:#000000;stroke-linejoin:miter;" x="160.65" xlink:href="#m94c200cd62" y="208.571514"/>
     <use style="fill:#ffffff;stroke:#000000;stroke-linejoin:miter;" x="180.18" xlink:href="#m94c200cd62" y="208.37178"/>
     <use style="fill:#ffffff;stroke:#000000;stroke-linejoin:miter;" x="199.71" xlink:href="#m94c200cd62" y="208.19455"/>
     <use style="fill:#ffffff;stroke:#000000;stroke-linejoin:miter;" x="219.24" xlink:href="#m94c200cd62" y="179.421838"/>
     <use style="fill:#ffffff;stroke:#000000;stroke-linejoin:miter;" x="238.77" xlink:href="#m94c200cd62" y="60.393898"/>
     <use style="fill:#ffffff;stroke:#000000;stroke-linejoin:miter;" x="258.3" xlink:href="#m94c200cd62" y="61.944846"/>
     <use style="fill:#ffffff;stroke:#000000;stroke-linejoin:miter;" x="277.83" xlink:href="#m94c200cd62" y="89.914705"/>
     <use style="fill:#ffffff;stroke:#000000;stroke-linejoin:miter;" x="297.36" xlink:href="#m94c200cd62" y="128.041428"/>
     <use style="fill:#ffffff;stroke:#000000;stroke-linejoin:miter;" x="316.89" xlink:href="#m94c200cd62" y="160.136563"/>
     <use style="fill:#ffffff;stroke:#000000;stroke-linejoin:miter;" x="336.42" xlink:href="#m94c200cd62" y="159.343513"/>
     <use style="fill:#ffffff;stroke:#000000;stroke-linejoin:miter;" x="355.95" xlink:href="#m94c200cd62" y="161.066044"/>
     <use style="fill:#ffffff;stroke:#000000;stroke-linejoin:miter;" x="375.48" xlink:href="#m94c200cd62" y="193.164591"/>
     <use style="fill:#ffffff;stroke:#000000;stroke-linejoin:miter;" x="395.01" xlink:href="#m94c200cd62" y="208.879775"/>
     <use style="fill:#ffffff;stroke:#000000;stroke-linejoin:miter;" x="414.54" xlink:href="#m94c200cd62" y="209.159546"/>
     <use style="fill:#ffffff;stroke:#000000;stroke-linejoin:miter;" x="434.07" xlink:href="#m94c200cd62" y="208.083952"/>
     <use style="fill:#ffffff;stroke:#000000;stroke-linejoin:miter;" x="453.6" xlink:href="#m94c200cd62" y="209.37233"/>
    </g>
   </g>
   <g id="patch_3">
    <path d="M 63 220.5 
L 63 30.24 
" style="fill:none;stroke:#000000;stroke-linecap:square;stroke-linejoin:miter;stroke-width:0.8;"/>
   </g>
   <g id="patch_4">
    <path d="M 453.6 220.5 
L 453.6 30.24 
" style="fill:none;stroke:#000000;stroke-linecap:square;stroke-linejoin:miter;stroke-width:0.8;"/>
   </g>
   <g id="patch_5">
    <path d="M 63 220.5 
L 453.6 220.5 
" style="fill:none;stroke:#000000;stroke-linecap:square;stroke-linejoin:miter;stroke-width:0.8;"/>
   </g>
   <g id="patch_6">
    <path d="M 63 30.24 
L 453.6 30.24 
" style="fill:none;stroke:#000000;stroke-linecap:square;stroke-linejoin:miter;stroke-width:0.8;"/>
   </g>
  </g>
 </g>
 <defs>
  <clipPath id="pe7f1aaa4a3">
   <rect height="190.26" width="390.6" x="63" y="30.24"/>
  </clipPath>
 </defs>
</svg>
