<?xml version="1.0" encoding="utf-8" standalone="no"?>
<!DOCTYPE svg PUBLIC "-//W3C//DTD SVG 1.1//EN"
  "http://www.w3.org/Graphics/SVG/1.1/DTD/svg11.dtd">
<!-- Created with matplotlib (https://matplotlib.org/) -->
<svg height="288pt" version="1.1" viewBox="0 0 432 288" width="432pt" xmlns="http://www.w3.org/2000/svg" xmlns:xlink="http://www.w3.org/1999/xlink">
 <defs>
  <style type="text/css">
*{stroke-linecap:butt;stroke-linejoin:round;}
  </style>
 </defs>
 <g id="figure_1">
  <g id="patch_1">
   <path d="M 0 288 
L 432 288 
L 432 0 
L 0 0 
z
" style="fill:none;"/>
  </g>
  <g id="axes_1">
   <g id="patch_2">
    <path d="M 54 252 
L 388.8 252 
L 388.8 34.56 
L 54 34.56 
z
" style="fill:none;"/>
   </g>
   <g id="matplotlib.axis_1">
    <g id="xtick_1">
     <g id="line2d_1">
      <defs>
       <path d="M 0 0 
L 0 3.5 
" id="m1dfea2d5ed" style="stroke:#000000;stroke-width:0.8;"/>
      </defs>
      <g>
       <use style="stroke:#000000;stroke-width:0.8;" x="66.143802" xlink:href="#m1dfea2d5ed" y="252"/>
      </g>
     </g>
    </g>
    <g id="xtick_2">
     <g id="line2d_2">
      <g>
       <use style="stroke:#000000;stroke-width:0.8;" x="127.631405" xlink:href="#m1dfea2d5ed" y="252"/>
      </g>
     </g>
    </g>
    <g id="xtick_3">
     <g id="line2d_3">
      <g>
       <use style="stroke:#000000;stroke-width:0.8;" x="189.119008" xlink:href="#m1dfea2d5ed" y="252"/>
      </g>
     </g>
    </g>
    <g id="xtick_4">
     <g id="line2d_4">
      <g>
       <use style="stroke:#000000;stroke-width:0.8;" x="250.606612" xlink:href="#m1dfea2d5ed" y="252"/>
      </g>
     </g>
    </g>
    <g id="xtick_5">
     <g id="line2d_5">
      <g>
       <use style="stroke:#000000;stroke-width:0.8;" x="312.094215" xlink:href="#m1dfea2d5ed" y="252"/>
      </g>
     </g>
    </g>
    <g id="xtick_6">
     <g id="line2d_6">
      <g>
       <use style="stroke:#000000;stroke-width:0.8;" x="373.581818" xlink:href="#m1dfea2d5ed" y="252"/>
      </g>
     </g>
    </g>
   </g>
   <g id="matplotlib.axis_2">
    <g id="ytick_1">
     <g id="line2d_7">
      <defs>
       <path d="M 0 0 
L -3.5 0 
" id="madbdcfbfd8" style="stroke:#000000;stroke-width:0.8;"/>
      </defs>
      <g>
       <use style="stroke:#000000;stroke-width:0.8;" x="54" xlink:href="#madbdcfbfd8" y="252"/>
      </g>
     </g>
    </g>
    <g id="ytick_2">
     <g id="line2d_8">
      <g>
       <use style="stroke:#000000;stroke-width:0.8;" x="54" xlink:href="#madbdcfbfd8" y="208.512"/>
      </g>
     </g>
    </g>
    <g id="ytick_3">
     <g id="line2d_9">
      <g>
       <use style="stroke:#000000;stroke-width:0.8;" x="54" xlink:href="#madbdcfbfd8" y="165.024"/>
      </g>
     </g>
    </g>
    <g id="ytick_4">
     <g id="line2d_10">
      <g>
       <use style="stroke:#000000;stroke-width:0.8;" x="54" xlink:href="#madbdcfbfd8" y="121.536"/>
      </g>
     </g>
    </g>
    <g id="ytick_5">
     <g id="line2d_11">
      <g>
       <use style="stroke:#000000;stroke-width:0.8;" x="54" xlink:href="#madbdcfbfd8" y="78.048"/>
      </g>
     </g>
    </g>
    <g id="ytick_6">
     <g id="line2d_12">
      <g>
       <use style="stroke:#000000;stroke-width:0.8;" x="54" xlink:href="#madbdcfbfd8" y="34.56"/>
      </g>
     </g>
    </g>
   </g>
   <g id="line2d_13">
    <path clip-path="url(#p4c59b1d2e1)" d="M 69.218182 252 
L 81.515702 250.104759 
L 96.887603 245.749538 
L 127.631405 232.697027 
L 158.375207 212.711209 
L 189.119008 196.617271 
L 219.86281 176.787601 
L 296.722314 126.716894 
L 373.581818 62.979429 
" style="fill:none;stroke:#000000;stroke-linecap:square;stroke-width:1.5;"/>
    <defs>
     <path d="M 0 3 
C 0.795609 3 1.55874 2.683901 2.12132 2.12132 
C 2.683901 1.55874 3 0.795609 3 0 
C 3 -0.795609 2.683901 -1.55874 2.12132 -2.12132 
C 1.55874 -2.683901 0.795609 -3 0 -3 
C -0.795609 -3 -1.55874 -2.683901 -2.12132 -2.12132 
C -2.683901 -1.55874 -3 -0.795609 -3 0 
C -3 0.795609 -2.683901 1.55874 -2.12132 2.12132 
C -1.55874 2.683901 -0.795609 3 0 3 
z
" id="m5ed30d866b" style="stroke:#000000;"/>
    </defs>
    <g clip-path="url(#p4c59b1d2e1)">
     <use style="stroke:#000000;" x="69.218182" xlink:href="#m5ed30d866b" y="252"/>
     <use style="stroke:#000000;" x="81.515702" xlink:href="#m5ed30d866b" y="250.104759"/>
     <use style="stroke:#000000;" x="96.887603" xlink:href="#m5ed30d866b" y="245.749538"/>
     <use style="stroke:#000000;" x="127.631405" xlink:href="#m5ed30d866b" y="232.697027"/>
     <use style="stroke:#000000;" x="158.375207" xlink:href="#m5ed30d866b" y="212.711209"/>
     <use style="stroke:#000000;" x="189.119008" xlink:href="#m5ed30d866b" y="196.617271"/>
     <use style="stroke:#000000;" x="219.86281" xlink:href="#m5ed30d866b" y="176.787601"/>
     <use style="stroke:#000000;" x="296.722314" xlink:href="#m5ed30d866b" y="126.716894"/>
     <use style="stroke:#000000;" x="373.581818" xlink:href="#m5ed30d866b" y="62.979429"/>
    </g>
   </g>
   <g id="patch_3">
    <path d="M 54 252 
L 54 34.56 
" style="fill:none;stroke:#000000;stroke-linecap:square;stroke-linejoin:miter;stroke-width:0.8;"/>
   </g>
   <g id="patch_4">
    <path d="M 388.8 252 
L 388.8 34.56 
" style="fill:none;stroke:#000000;stroke-linecap:square;stroke-linejoin:miter;stroke-width:0.8;"/>
   </g>
   <g id="patch_5">
    <path d="M 54 252 
L 388.8 252 
" style="fill:none;stroke:#000000;stroke-linecap:square;stroke-linejoin:miter;stroke-width:0.8;"/>
   </g>
   <g id="patch_6">
    <path d="M 54 34.56 
L 388.8 34.56 
" style="fill:none;stroke:#000000;stroke-linecap:square;stroke-linejoin:miter;stroke-width:0.8;"/>
   </g>
  </g>
  <g id="axes_2">
   <g id="matplotlib.axis_3">
    <g id="ytick_7">
     <g id="line2d_14">
      <defs>
       <path d="M 0 0 
L 3.5 0 
" id="mbce490515b" style="stroke:#ff0000;stroke-width:0.8;"/>
      </defs>
      <g>
       <use style="fill:#ff0000;stroke:#ff0000;stroke-width:0.8;" x="388.8" xlink:href="#mbce490515b" y="252"/>
      </g>
     </g>
    </g>
    <g id="ytick_8">
     <g id="line2d_15">
      <g>
       <use style="fill:#ff0000;stroke:#ff0000;stroke-width:0.8;" x="388.8" xlink:href="#mbce490515b" y="208.512"/>
      </g>
     </g>
    </g>
    <g id="ytick_9">
     <g id="line2d_16">
      <g>
       <use style="fill:#ff0000;stroke:#ff0000;stroke-width:0.8;" x="388.8" xlink:href="#mbce490515b" y="165.024"/>
      </g>
     </g>
    </g>
    <g id="ytick_10">
     <g id="line2d_17">
      <g>
       <use style="fill:#ff0000;stroke:#ff0000;stroke-width:0.8;" x="388.8" xlink:href="#mbce490515b" y="121.536"/>
      </g>
     </g>
    </g>
    <g id="ytick_11">
     <g id="line2d_18">
      <g>
       <use style="fill:#ff0000;stroke:#ff0000;stroke-width:0.8;" x="388.8" xlink:href="#mbce490515b" y="78.048"/>
      </g>
     </g>
    </g>
    <g id="ytick_12">
     <g id="line2d_19">
      <g>
       <use style="fill:#ff0000;stroke:#ff0000;stroke-width:0.8;" x="388.8" xlink:href="#mbce490515b" y="34.56"/>
      </g>
     </g>
    </g>
   </g>
   <g id="line2d_20">
    <path clip-path="url(#p4c59b1d2e1)" d="M 69.218182 252 
L 81.515702 252 
L 96.887603 252 
L 127.631405 252 
L 158.375207 208.512 
L 189.119008 56.304 
L 219.86281 208.512 
L 296.722314 56.304 
L 373.581818 56.304 
" style="fill:none;stroke:#ff0000;stroke-linecap:square;stroke-width:1.5;"/>
    <defs>
     <path d="M 0 3 
C 0.795609 3 1.55874 2.683901 2.12132 2.12132 
C 2.683901 1.55874 3 0.795609 3 0 
C 3 -0.795609 2.683901 -1.55874 2.12132 -2.12132 
C 1.55874 -2.683901 0.795609 -3 0 -3 
C -0.795609 -3 -1.55874 -2.683901 -2.12132 -2.12132 
C -2.683901 -1.55874 -3 -0.795609 -3 0 
C -3 0.795609 -2.683901 1.55874 -2.12132 2.12132 
C -1.55874 2.683901 -0.795609 3 0 3 
z
" id="m86e1c54462" style="stroke:#ff0000;"/>
    </defs>
    <g clip-path="url(#p4c59b1d2e1)">
     <use style="fill:#ff0000;stroke:#ff0000;" x="69.218182" xlink:href="#m86e1c54462" y="252"/>
     <use style="fill:#ff0000;stroke:#ff0000;" x="81.515702" xlink:href="#m86e1c54462" y="252"/>
     <use style="fill:#ff0000;stroke:#ff0000;" x="96.887603" xlink:href="#m86e1c54462" y="252"/>
     <use style="fill:#ff0000;stroke:#ff0000;" x="127.631405" xlink:href="#m86e1c54462" y="252"/>
     <use style="fill:#ff0000;stroke:#ff0000;" x="158.375207" xlink:href="#m86e1c54462" y="208.512"/>
     <use style="fill:#ff0000;stroke:#ff0000;" x="189.119008" xlink:href="#m86e1c54462" y="56.304"/>
     <use style="fill:#ff0000;stroke:#ff0000;" x="219.86281" xlink:href="#m86e1c54462" y="208.512"/>
     <use style="fill:#ff0000;stroke:#ff0000;" x="296.722314" xlink:href="#m86e1c54462" y="56.304"/>
     <use style="fill:#ff0000;stroke:#ff0000;" x="373.581818" xlink:href="#m86e1c54462" y="56.304"/>
    </g>
   </g>
   <g id="patch_7">
    <path d="M 54 252 
L 54 34.56 
" style="fill:none;stroke:#000000;stroke-linecap:square;stroke-linejoin:miter;stroke-width:0.8;"/>
   </g>
   <g id="patch_8">
    <path d="M 388.8 252 
L 388.8 34.56 
" style="fill:none;stroke:#ff0000;stroke-linecap:square;stroke-linejoin:miter;stroke-width:0.8;"/>
   </g>
   <g id="patch_9">
    <path d="M 54 252 
L 388.8 252 
" style="fill:none;stroke:#000000;stroke-linecap:square;stroke-linejoin:miter;stroke-width:0.8;"/>
   </g>
   <g id="patch_10">
    <path d="M 54 34.56 
L 388.8 34.56 
" style="fill:none;stroke:#000000;stroke-linecap:square;stroke-linejoin:miter;stroke-width:0.8;"/>
   </g>
  </g>
 </g>
 <defs>
  <clipPath id="p4c59b1d2e1">
   <rect height="217.44" width="334.8" x="54" y="34.56"/>
  </clipPath>
 </defs>
</svg>
