<?xml version="1.0" encoding="utf-8" standalone="no"?>
<!DOCTYPE svg PUBLIC "-//W3C//DTD SVG 1.1//EN"
  "http://www.w3.org/Graphics/SVG/1.1/DTD/svg11.dtd">
<!-- Created with matplotlib (https://matplotlib.org/) -->
<svg height="288pt" version="1.1" viewBox="0 0 432 288" width="432pt" xmlns="http://www.w3.org/2000/svg" xmlns:xlink="http://www.w3.org/1999/xlink">
 <defs>
  <style type="text/css">
*{stroke-linecap:butt;stroke-linejoin:round;}
  </style>
 </defs>
 <g id="figure_1">
  <g id="patch_1">
   <path d="M 0 288 
L 432 288 
L 432 0 
L 0 0 
z
" style="fill:none;"/>
  </g>
  <g id="axes_1">
   <g id="patch_2">
    <path d="M 54 252 
L 388.8 252 
L 388.8 34.56 
L 54 34.56 
z
" style="fill:none;"/>
   </g>
   <g id="matplotlib.axis_1">
    <g id="xtick_1">
     <g id="line2d_1">
      <defs>
       <path d="M 0 0 
L 0 3.5 
" id="m69c30ac508" style="stroke:#000000;stroke-width:0.8;"/>
      </defs>
      <g>
       <use style="stroke:#000000;stroke-width:0.8;" x="54" xlink:href="#m69c30ac508" y="252"/>
      </g>
     </g>
    </g>
    <g id="xtick_2">
     <g id="line2d_2">
      <g>
       <use style="stroke:#000000;stroke-width:0.8;" x="137.7" xlink:href="#m69c30ac508" y="252"/>
      </g>
     </g>
    </g>
    <g id="xtick_3">
     <g id="line2d_3">
      <g>
       <use style="stroke:#000000;stroke-width:0.8;" x="221.4" xlink:href="#m69c30ac508" y="252"/>
      </g>
     </g>
    </g>
    <g id="xtick_4">
     <g id="line2d_4">
      <g>
       <use style="stroke:#000000;stroke-width:0.8;" x="305.1" xlink:href="#m69c30ac508" y="252"/>
      </g>
     </g>
    </g>
    <g id="xtick_5">
     <g id="line2d_5">
      <g>
       <use style="stroke:#000000;stroke-width:0.8;" x="388.8" xlink:href="#m69c30ac508" y="252"/>
      </g>
     </g>
    </g>
   </g>
   <g id="matplotlib.axis_2">
    <g id="ytick_1">
     <g id="line2d_6">
      <defs>
       <path d="M 0 0 
L -3.5 0 
" id="me7ab0365c5" style="stroke:#000000;stroke-width:0.8;"/>
      </defs>
      <g>
       <use style="stroke:#000000;stroke-width:0.8;" x="54" xlink:href="#me7ab0365c5" y="252"/>
      </g>
     </g>
    </g>
    <g id="ytick_2">
     <g id="line2d_7">
      <g>
       <use style="stroke:#000000;stroke-width:0.8;" x="54" xlink:href="#me7ab0365c5" y="179.52"/>
      </g>
     </g>
    </g>
    <g id="ytick_3">
     <g id="line2d_8">
      <g>
       <use style="stroke:#000000;stroke-width:0.8;" x="54" xlink:href="#me7ab0365c5" y="107.04"/>
      </g>
     </g>
    </g>
    <g id="ytick_4">
     <g id="line2d_9">
      <g>
       <use style="stroke:#000000;stroke-width:0.8;" x="54" xlink:href="#me7ab0365c5" y="34.56"/>
      </g>
     </g>
    </g>
   </g>
   <g id="line2d_10">
    <path clip-path="url(#pb6bff674b7)" d="M 70.74 150.949493 
L 87.48 106.67214 
L 104.22 60.47975 
L 120.96 42.109289 
L 137.7 86.088798 
L 154.44 114.392511 
L 171.18 150.138523 
L 187.92 175.899313 
L 204.66 188.14453 
L 221.4 201.540537 
L 238.14 209.853727 
L 254.88 213.849541 
L 271.62 221.681139 
L 288.36 228.630039 
L 305.1 234.197744 
L 321.84 238.160119 
L 338.58 243.143423 
L 355.32 247.641288 
L 372.06 251.088631 
L 388.8 252 
" style="fill:none;stroke:#000000;stroke-linecap:square;stroke-width:1.5;"/>
    <defs>
     <path d="M 0 3 
C 0.795609 3 1.55874 2.683901 2.12132 2.12132 
C 2.683901 1.55874 3 0.795609 3 0 
C 3 -0.795609 2.683901 -1.55874 2.12132 -2.12132 
C 1.55874 -2.683901 0.795609 -3 0 -3 
C -0.795609 -3 -1.55874 -2.683901 -2.12132 -2.12132 
C -2.683901 -1.55874 -3 -0.795609 -3 0 
C -3 0.795609 -2.683901 1.55874 -2.12132 2.12132 
C -1.55874 2.683901 -0.795609 3 0 3 
z
" id="m2c26b0876d" style="stroke:#000000;"/>
    </defs>
    <g clip-path="url(#pb6bff674b7)">
     <use style="stroke:#000000;" x="70.74" xlink:href="#m2c26b0876d" y="150.949493"/>
     <use style="stroke:#000000;" x="87.48" xlink:href="#m2c26b0876d" y="106.67214"/>
     <use style="stroke:#000000;" x="104.22" xlink:href="#m2c26b0876d" y="60.47975"/>
     <use style="stroke:#000000;" x="120.96" xlink:href="#m2c26b0876d" y="42.109289"/>
     <use style="stroke:#000000;" x="137.7" xlink:href="#m2c26b0876d" y="86.088798"/>
     <use style="stroke:#000000;" x="154.44" xlink:href="#m2c26b0876d" y="114.392511"/>
     <use style="stroke:#000000;" x="171.18" xlink:href="#m2c26b0876d" y="150.138523"/>
     <use style="stroke:#000000;" x="187.92" xlink:href="#m2c26b0876d" y="175.899313"/>
     <use style="stroke:#000000;" x="204.66" xlink:href="#m2c26b0876d" y="188.14453"/>
     <use style="stroke:#000000;" x="221.4" xlink:href="#m2c26b0876d" y="201.540537"/>
     <use style="stroke:#000000;" x="238.14" xlink:href="#m2c26b0876d" y="209.853727"/>
     <use style="stroke:#000000;" x="254.88" xlink:href="#m2c26b0876d" y="213.849541"/>
     <use style="stroke:#000000;" x="271.62" xlink:href="#m2c26b0876d" y="221.681139"/>
     <use style="stroke:#000000;" x="288.36" xlink:href="#m2c26b0876d" y="228.630039"/>
     <use style="stroke:#000000;" x="305.1" xlink:href="#m2c26b0876d" y="234.197744"/>
     <use style="stroke:#000000;" x="321.84" xlink:href="#m2c26b0876d" y="238.160119"/>
     <use style="stroke:#000000;" x="338.58" xlink:href="#m2c26b0876d" y="243.143423"/>
     <use style="stroke:#000000;" x="355.32" xlink:href="#m2c26b0876d" y="247.641288"/>
     <use style="stroke:#000000;" x="372.06" xlink:href="#m2c26b0876d" y="251.088631"/>
     <use style="stroke:#000000;" x="388.8" xlink:href="#m2c26b0876d" y="252"/>
    </g>
   </g>
   <g id="patch_3">
    <path d="M 54 252 
L 54 34.56 
" style="fill:none;stroke:#000000;stroke-linecap:square;stroke-linejoin:miter;stroke-width:0.8;"/>
   </g>
   <g id="patch_4">
    <path d="M 388.8 252 
L 388.8 34.56 
" style="fill:none;stroke:#000000;stroke-linecap:square;stroke-linejoin:miter;stroke-width:0.8;"/>
   </g>
   <g id="patch_5">
    <path d="M 54 252 
L 388.8 252 
" style="fill:none;stroke:#000000;stroke-linecap:square;stroke-linejoin:miter;stroke-width:0.8;"/>
   </g>
   <g id="patch_6">
    <path d="M 54 34.56 
L 388.8 34.56 
" style="fill:none;stroke:#000000;stroke-linecap:square;stroke-linejoin:miter;stroke-width:0.8;"/>
   </g>
  </g>
  <g id="axes_2">
   <g id="matplotlib.axis_3">
    <g id="ytick_5">
     <g id="line2d_11">
      <defs>
       <path d="M 0 0 
L 3.5 0 
" id="m1385712be3" style="stroke:#ff0000;stroke-width:0.8;"/>
      </defs>
      <g>
       <use style="fill:#ff0000;stroke:#ff0000;stroke-width:0.8;" x="388.8" xlink:href="#m1385712be3" y="252"/>
      </g>
     </g>
    </g>
    <g id="ytick_6">
     <g id="line2d_12">
      <g>
       <use style="fill:#ff0000;stroke:#ff0000;stroke-width:0.8;" x="388.8" xlink:href="#m1385712be3" y="179.52"/>
      </g>
     </g>
    </g>
    <g id="ytick_7">
     <g id="line2d_13">
      <g>
       <use style="fill:#ff0000;stroke:#ff0000;stroke-width:0.8;" x="388.8" xlink:href="#m1385712be3" y="107.04"/>
      </g>
     </g>
    </g>
    <g id="ytick_8">
     <g id="line2d_14">
      <g>
       <use style="fill:#ff0000;stroke:#ff0000;stroke-width:0.8;" x="388.8" xlink:href="#m1385712be3" y="34.56"/>
      </g>
     </g>
    </g>
   </g>
   <g id="line2d_15">
    <path clip-path="url(#pb6bff674b7)" d="M 70.74 150.528 
L 87.48 121.536 
L 104.22 92.544 
L 120.96 121.536 
L 137.7 78.048 
L 154.44 121.536 
L 171.18 223.008 
L 187.92 252 
L 204.66 252 
L 221.4 223.008 
L 238.14 121.536 
L 254.88 252 
L 271.62 252 
L 288.36 252 
L 305.1 252 
L 321.84 252 
L 338.58 252 
L 355.32 252 
L 372.06 252 
L 388.8 252 
" style="fill:none;stroke:#ff0000;stroke-linecap:square;stroke-width:1.5;"/>
    <defs>
     <path d="M 0 3 
C 0.795609 3 1.55874 2.683901 2.12132 2.12132 
C 2.683901 1.55874 3 0.795609 3 0 
C 3 -0.795609 2.683901 -1.55874 2.12132 -2.12132 
C 1.55874 -2.683901 0.795609 -3 0 -3 
C -0.795609 -3 -1.55874 -2.683901 -2.12132 -2.12132 
C -2.683901 -1.55874 -3 -0.795609 -3 0 
C -3 0.795609 -2.683901 1.55874 -2.12132 2.12132 
C -1.55874 2.683901 -0.795609 3 0 3 
z
" id="m42f3a441c3" style="stroke:#ff0000;"/>
    </defs>
    <g clip-path="url(#pb6bff674b7)">
     <use style="fill:#ff0000;stroke:#ff0000;" x="70.74" xlink:href="#m42f3a441c3" y="150.528"/>
     <use style="fill:#ff0000;stroke:#ff0000;" x="87.48" xlink:href="#m42f3a441c3" y="121.536"/>
     <use style="fill:#ff0000;stroke:#ff0000;" x="104.22" xlink:href="#m42f3a441c3" y="92.544"/>
     <use style="fill:#ff0000;stroke:#ff0000;" x="120.96" xlink:href="#m42f3a441c3" y="121.536"/>
     <use style="fill:#ff0000;stroke:#ff0000;" x="137.7" xlink:href="#m42f3a441c3" y="78.048"/>
     <use style="fill:#ff0000;stroke:#ff0000;" x="154.44" xlink:href="#m42f3a441c3" y="121.536"/>
     <use style="fill:#ff0000;stroke:#ff0000;" x="171.18" xlink:href="#m42f3a441c3" y="223.008"/>
     <use style="fill:#ff0000;stroke:#ff0000;" x="187.92" xlink:href="#m42f3a441c3" y="252"/>
     <use style="fill:#ff0000;stroke:#ff0000;" x="204.66" xlink:href="#m42f3a441c3" y="252"/>
     <use style="fill:#ff0000;stroke:#ff0000;" x="221.4" xlink:href="#m42f3a441c3" y="223.008"/>
     <use style="fill:#ff0000;stroke:#ff0000;" x="238.14" xlink:href="#m42f3a441c3" y="121.536"/>
     <use style="fill:#ff0000;stroke:#ff0000;" x="254.88" xlink:href="#m42f3a441c3" y="252"/>
     <use style="fill:#ff0000;stroke:#ff0000;" x="271.62" xlink:href="#m42f3a441c3" y="252"/>
     <use style="fill:#ff0000;stroke:#ff0000;" x="288.36" xlink:href="#m42f3a441c3" y="252"/>
     <use style="fill:#ff0000;stroke:#ff0000;" x="305.1" xlink:href="#m42f3a441c3" y="252"/>
     <use style="fill:#ff0000;stroke:#ff0000;" x="321.84" xlink:href="#m42f3a441c3" y="252"/>
     <use style="fill:#ff0000;stroke:#ff0000;" x="338.58" xlink:href="#m42f3a441c3" y="252"/>
     <use style="fill:#ff0000;stroke:#ff0000;" x="355.32" xlink:href="#m42f3a441c3" y="252"/>
     <use style="fill:#ff0000;stroke:#ff0000;" x="372.06" xlink:href="#m42f3a441c3" y="252"/>
     <use style="fill:#ff0000;stroke:#ff0000;" x="388.8" xlink:href="#m42f3a441c3" y="252"/>
    </g>
   </g>
   <g id="patch_7">
    <path d="M 54 252 
L 54 34.56 
" style="fill:none;stroke:#000000;stroke-linecap:square;stroke-linejoin:miter;stroke-width:0.8;"/>
   </g>
   <g id="patch_8">
    <path d="M 388.8 252 
L 388.8 34.56 
" style="fill:none;stroke:#ff0000;stroke-linecap:square;stroke-linejoin:miter;stroke-width:0.8;"/>
   </g>
   <g id="patch_9">
    <path d="M 54 252 
L 388.8 252 
" style="fill:none;stroke:#000000;stroke-linecap:square;stroke-linejoin:miter;stroke-width:0.8;"/>
   </g>
   <g id="patch_10">
    <path d="M 54 34.56 
L 388.8 34.56 
" style="fill:none;stroke:#000000;stroke-linecap:square;stroke-linejoin:miter;stroke-width:0.8;"/>
   </g>
  </g>
 </g>
 <defs>
  <clipPath id="pb6bff674b7">
   <rect height="217.44" width="334.8" x="54" y="34.56"/>
  </clipPath>
 </defs>
</svg>
