<?xml version="1.0" encoding="utf-8" standalone="no"?>
<!DOCTYPE svg PUBLIC "-//W3C//DTD SVG 1.1//EN"
  "http://www.w3.org/Graphics/SVG/1.1/DTD/svg11.dtd">
<!-- Created with matplotlib (https://matplotlib.org/) -->
<svg height="1152pt" version="1.1" viewBox="0 0 864 1152" width="864pt" xmlns="http://www.w3.org/2000/svg" xmlns:xlink="http://www.w3.org/1999/xlink">
 <defs>
  <style type="text/css">
*{stroke-linecap:butt;stroke-linejoin:round;}
  </style>
 </defs>
 <g id="figure_1">
  <g id="patch_1">
   <path d="M 0 1152 
L 864 1152 
L 864 0 
L 0 0 
z
" style="fill:#ffffff;"/>
  </g>
  <g id="axes_1">
   <g id="patch_2">
    <path d="M 108 262.491429 
L 777.6 262.491429 
L 777.6 138.24 
L 108 138.24 
z
" style="fill:#ffffff;"/>
   </g>
   <g id="matplotlib.axis_1">
    <g id="xtick_1"/>
    <g id="xtick_2"/>
    <g id="xtick_3"/>
    <g id="xtick_4"/>
    <g id="xtick_5"/>
    <g id="xtick_6"/>
   </g>
   <g id="matplotlib.axis_2">
    <g id="ytick_1"/>
    <g id="ytick_2"/>
    <g id="ytick_3"/>
    <g id="ytick_4"/>
    <g id="ytick_5"/>
   </g>
   <g id="line2d_1">
    <path clip-path="url(#pcafda2e4f6)" d="M 132.8 193.538514 
L 145.2 183.427428 
L 153.88 176.619193 
L 161.32 171.070734 
L 167.52 166.707722 
L 173.72 162.626204 
L 178.68 159.590006 
L 183.64 156.777673 
L 188.6 154.206548 
L 193.56 151.892542 
L 198.52 149.850041 
L 203.48 148.09181 
L 208.44 146.628919 
L 212.16 145.73123 
L 215.88 145.00819 
L 219.6 144.46246 
L 223.32 144.096103 
L 227.04 143.910575 
L 230.76 143.90672 
L 234.48 144.084769 
L 238.2 144.444335 
L 241.92 144.984419 
L 245.64 145.703409 
L 249.36 146.599089 
L 254.32 148.063234 
L 259.28 149.828138 
L 264.24 151.883708 
L 269.2 154.218113 
L 274.16 156.81785 
L 279.12 159.667837 
L 284.08 162.751503 
L 290.28 166.907218 
L 296.48 171.362069 
L 302.68 176.075486 
L 310.12 182.012331 
L 318.8 189.227147 
L 333.68 201.961082 
L 347.32 213.555309 
L 356 220.656086 
L 363.44 226.457735 
L 369.64 231.035392 
L 375.84 235.336824 
L 382.04 239.325104 
L 387 242.26747 
L 391.96 244.972085 
L 396.92 247.424808 
L 401.88 249.613111 
L 406.84 251.526159 
L 411.8 253.154866 
L 416.76 254.491953 
L 421.72 255.531988 
L 425.44 256.11486 
L 429.16 256.527795 
L 432.88 256.770589 
L 436.6 256.843636 
L 440.32 256.74793 
L 445.28 256.360636 
L 450.24 255.681583 
L 455.2 254.717943 
L 460.16 253.478642 
L 465.12 251.9743 
L 470.08 250.217154 
L 475.04 248.220976 
L 480 246.000982 
L 484.96 243.573726 
L 491.16 240.275391 
L 497.36 236.718213 
L 504.8 232.163626 
L 513.48 226.546689 
L 524.64 219.028522 
L 545.72 204.78188 
L 554.4 199.221913 
L 561.84 194.72809 
L 568.04 191.22542 
L 574.24 187.980617 
L 580.44 185.025955 
L 585.4 182.890742 
L 590.36 180.973086 
L 595.32 179.284678 
L 600.28 177.835593 
L 605.24 176.634231 
L 610.2 175.687258 
L 615.16 174.999572 
L 620.12 174.574267 
L 625.08 174.412621 
L 630.04 174.514084 
L 635 174.87629 
L 639.96 175.495071 
L 644.92 176.364487 
L 649.88 177.476871 
L 654.84 178.822877 
L 659.8 180.391546 
L 664.76 182.17038 
L 670.96 184.668081 
L 677.16 187.44205 
L 683.36 190.459071 
L 690.8 194.349646 
L 699.48 199.176953 
L 710.64 205.667208 
L 730.48 217.265488 
L 739.16 222.068769 
L 746.6 225.928748 
L 752.8 228.912176 
L 752.8 228.912176 
" style="fill:none;stroke:#000000;stroke-linecap:square;stroke-width:3;"/>
   </g>
  </g>
  <g id="axes_2">
   <g id="patch_3">
    <path d="M 108 386.742857 
L 777.6 386.742857 
L 777.6 262.491429 
L 108 262.491429 
z
" style="fill:#ffffff;"/>
   </g>
   <g id="PolyCollection_1">
    <defs>
     <path d="M 132.8 -818.911169 
L 132.8 -847.15013 
L 134.04 -847.008189 
L 135.28 -846.866271 
L 136.52 -846.724397 
L 137.76 -846.582591 
L 139 -846.440874 
L 140.24 -846.29927 
L 141.48 -846.157799 
L 142.72 -846.016486 
L 143.96 -845.875351 
L 145.2 -845.734418 
L 146.44 -845.593708 
L 147.68 -845.453244 
L 148.92 -845.313048 
L 150.16 -845.173142 
L 151.4 -845.033548 
L 152.64 -844.894289 
L 153.88 -844.755386 
L 155.12 -844.616861 
L 156.36 -844.478735 
L 157.6 -844.341032 
L 158.84 -844.203773 
L 160.08 -844.066978 
L 161.32 -843.930671 
L 162.56 -843.794872 
L 163.8 -843.659602 
L 165.04 -843.524884 
L 166.28 -843.390739 
L 167.52 -843.257187 
L 168.76 -843.124249 
L 170 -842.991948 
L 171.24 -842.860303 
L 172.48 -842.729336 
L 173.72 -842.599066 
L 174.96 -842.469516 
L 176.2 -842.340704 
L 177.44 -842.212652 
L 178.68 -842.085379 
L 179.92 -841.958907 
L 181.16 -841.833254 
L 182.4 -841.708441 
L 183.64 -841.584487 
L 184.88 -841.461411 
L 186.12 -841.339235 
L 187.36 -841.217976 
L 188.6 -841.097653 
L 189.84 -840.978286 
L 191.08 -840.859894 
L 192.32 -840.742496 
L 193.56 -840.626109 
L 194.8 -840.510752 
L 196.04 -840.396444 
L 197.28 -840.283202 
L 198.52 -840.171044 
L 199.76 -840.059989 
L 201 -839.950053 
L 202.24 -839.841255 
L 203.48 -839.73361 
L 204.72 -839.627137 
L 205.96 -839.521851 
L 207.2 -839.41777 
L 208.44 -839.31491 
L 209.68 -839.213288 
L 210.92 -839.112919 
L 212.16 -839.013818 
L 213.4 -838.916003 
L 214.64 -838.819488 
L 215.88 -838.724289 
L 217.12 -838.63042 
L 218.36 -838.537896 
L 219.6 -838.446732 
L 220.84 -838.356943 
L 222.08 -838.268543 
L 223.32 -838.181544 
L 224.56 -838.095962 
L 225.8 -838.01181 
L 227.04 -837.929101 
L 228.28 -837.847848 
L 229.52 -837.768064 
L 230.76 -837.689761 
L 232 -837.612953 
L 233.24 -837.53765 
L 234.48 -837.463865 
L 235.72 -837.39161 
L 236.96 -837.320896 
L 238.2 -837.251734 
L 239.44 -837.184135 
L 240.68 -837.11811 
L 241.92 -837.053669 
L 243.16 -836.990822 
L 244.4 -836.92958 
L 245.64 -836.869951 
L 246.88 -836.811946 
L 248.12 -836.755573 
L 249.36 -836.700842 
L 250.6 -836.647761 
L 251.84 -836.596338 
L 253.08 -836.546582 
L 254.32 -836.498501 
L 255.56 -836.452101 
L 256.8 -836.407391 
L 258.04 -836.364377 
L 259.28 -836.323066 
L 260.52 -836.283465 
L 261.76 -836.24558 
L 263 -836.209417 
L 264.24 -836.174982 
L 265.48 -836.142279 
L 266.72 -836.111315 
L 267.96 -836.082094 
L 269.2 -836.054621 
L 270.44 -836.0289 
L 271.68 -836.004935 
L 272.92 -835.982731 
L 274.16 -835.962289 
L 275.4 -835.943615 
L 276.64 -835.926709 
L 277.88 -835.911577 
L 279.12 -835.898219 
L 280.36 -835.886637 
L 281.6 -835.876835 
L 282.84 -835.868812 
L 284.08 -835.862571 
L 285.32 -835.858113 
L 286.56 -835.855437 
L 287.8 -835.854545 
L 289.04 -835.855437 
L 290.28 -835.858113 
L 291.52 -835.862571 
L 292.76 -835.868812 
L 294 -835.876835 
L 295.24 -835.886637 
L 296.48 -835.898219 
L 297.72 -835.911577 
L 298.96 -835.926709 
L 300.2 -835.943615 
L 301.44 -835.962289 
L 302.68 -835.982731 
L 303.92 -836.004935 
L 305.16 -836.0289 
L 306.4 -836.054621 
L 307.64 -836.082094 
L 308.88 -836.111315 
L 310.12 -836.142279 
L 311.36 -836.174982 
L 312.6 -836.209417 
L 313.84 -836.24558 
L 315.08 -836.283465 
L 316.32 -836.323066 
L 317.56 -836.364377 
L 318.8 -836.407391 
L 320.04 -836.452101 
L 321.28 -836.498501 
L 322.52 -836.546582 
L 323.76 -836.596338 
L 325 -836.647761 
L 326.24 -836.700842 
L 327.48 -836.755573 
L 328.72 -836.811946 
L 329.96 -836.869951 
L 331.2 -836.92958 
L 332.44 -836.990822 
L 333.68 -837.053669 
L 334.92 -837.11811 
L 336.16 -837.184135 
L 337.4 -837.251734 
L 338.64 -837.320896 
L 339.88 -837.39161 
L 341.12 -837.463865 
L 342.36 -837.53765 
L 343.6 -837.612953 
L 344.84 -837.689761 
L 346.08 -837.768064 
L 347.32 -837.847848 
L 348.56 -837.929101 
L 349.8 -838.01181 
L 351.04 -838.095962 
L 352.28 -838.181544 
L 353.52 -838.268543 
L 354.76 -838.356943 
L 356 -838.446732 
L 357.24 -838.537896 
L 358.48 -838.63042 
L 359.72 -838.724289 
L 360.96 -838.819488 
L 362.2 -838.916003 
L 363.44 -839.013818 
L 364.68 -839.112919 
L 365.92 -839.213288 
L 367.16 -839.31491 
L 368.4 -839.41777 
L 369.64 -839.521851 
L 370.88 -839.627137 
L 372.12 -839.73361 
L 373.36 -839.841255 
L 374.6 -839.950053 
L 375.84 -840.059989 
L 377.08 -840.171044 
L 378.32 -840.283202 
L 379.56 -840.396444 
L 380.8 -840.510752 
L 382.04 -840.626109 
L 383.28 -840.742496 
L 384.52 -840.859894 
L 385.76 -840.978286 
L 387 -841.097653 
L 388.24 -841.217976 
L 389.48 -841.339235 
L 390.72 -841.461411 
L 391.96 -841.584487 
L 393.2 -841.708441 
L 394.44 -841.833254 
L 395.68 -841.958907 
L 396.92 -842.085379 
L 398.16 -842.212652 
L 399.4 -842.340704 
L 400.64 -842.469516 
L 401.88 -842.599066 
L 403.12 -842.729336 
L 404.36 -842.860303 
L 405.6 -842.991948 
L 406.84 -843.124249 
L 408.08 -843.257187 
L 409.32 -843.390739 
L 410.56 -843.524884 
L 411.8 -843.659602 
L 413.04 -843.794872 
L 414.28 -843.930671 
L 415.52 -844.066978 
L 416.76 -844.203773 
L 418 -844.341032 
L 419.24 -844.478735 
L 420.48 -844.616861 
L 421.72 -844.755386 
L 422.96 -844.894289 
L 424.2 -845.033548 
L 425.44 -845.173142 
L 426.68 -845.313048 
L 427.92 -845.453244 
L 429.16 -845.593708 
L 430.4 -845.734418 
L 431.64 -845.875351 
L 432.88 -846.016486 
L 434.12 -846.157799 
L 435.36 -846.29927 
L 436.6 -846.440874 
L 437.84 -846.582591 
L 439.08 -846.724397 
L 440.32 -846.866271 
L 441.56 -847.008189 
L 442.8 -847.15013 
L 444.04 -847.292071 
L 445.28 -847.433989 
L 446.52 -847.575863 
L 447.76 -847.717669 
L 449 -847.859385 
L 450.24 -848.00099 
L 451.48 -848.14246 
L 452.72 -848.283774 
L 453.96 -848.424909 
L 455.2 -848.565842 
L 456.44 -848.706552 
L 457.68 -848.847016 
L 458.92 -848.987212 
L 460.16 -849.127118 
L 461.4 -849.266711 
L 462.64 -849.405971 
L 463.88 -849.544874 
L 465.12 -849.683399 
L 466.36 -849.821524 
L 467.6 -849.959227 
L 468.84 -850.096487 
L 470.08 -850.233281 
L 471.32 -850.369589 
L 472.56 -850.505388 
L 473.8 -850.640657 
L 475.04 -850.775376 
L 476.28 -850.909521 
L 477.52 -851.043073 
L 478.76 -851.17601 
L 480 -851.308312 
L 481.24 -851.439957 
L 482.48 -851.570924 
L 483.72 -851.701194 
L 484.96 -851.830744 
L 486.2 -851.959556 
L 487.44 -852.087608 
L 488.68 -852.21488 
L 489.92 -852.341353 
L 491.16 -852.467006 
L 492.4 -852.591819 
L 493.64 -852.715773 
L 494.88 -852.838848 
L 496.12 -852.961025 
L 497.36 -853.082284 
L 498.6 -853.202607 
L 499.84 -853.321973 
L 501.08 -853.440365 
L 502.32 -853.557764 
L 503.56 -853.674151 
L 504.8 -853.789508 
L 506.04 -853.903816 
L 507.28 -854.017058 
L 508.52 -854.129215 
L 509.76 -854.240271 
L 511 -854.350206 
L 512.24 -854.459005 
L 513.48 -854.56665 
L 514.72 -854.673123 
L 515.96 -854.778409 
L 517.2 -854.882489 
L 518.44 -854.985349 
L 519.68 -855.086972 
L 520.92 -855.187341 
L 522.16 -855.286441 
L 523.4 -855.384257 
L 524.64 -855.480772 
L 525.88 -855.575971 
L 527.12 -855.66984 
L 528.36 -855.762364 
L 529.6 -855.853527 
L 530.84 -855.943317 
L 532.08 -856.031717 
L 533.32 -856.118715 
L 534.56 -856.204297 
L 535.8 -856.28845 
L 537.04 -856.371159 
L 538.28 -856.452412 
L 539.52 -856.532196 
L 540.76 -856.610499 
L 542 -856.687307 
L 543.24 -856.76261 
L 544.48 -856.836395 
L 545.72 -856.90865 
L 546.96 -856.979364 
L 548.2 -857.048526 
L 549.44 -857.116125 
L 550.68 -857.18215 
L 551.92 -857.246591 
L 553.16 -857.309438 
L 554.4 -857.37068 
L 555.64 -857.430309 
L 556.88 -857.488314 
L 558.12 -857.544686 
L 559.36 -857.599418 
L 560.6 -857.652499 
L 561.84 -857.703921 
L 563.08 -857.753677 
L 564.32 -857.801759 
L 565.56 -857.848159 
L 566.8 -857.892869 
L 568.04 -857.935883 
L 569.28 -857.977194 
L 570.52 -858.016795 
L 571.76 -858.05468 
L 573 -858.090843 
L 574.24 -858.125278 
L 575.48 -858.15798 
L 576.72 -858.188944 
L 577.96 -858.218165 
L 579.2 -858.245638 
L 580.44 -858.271359 
L 581.68 -858.295324 
L 582.92 -858.317529 
L 584.16 -858.337971 
L 585.4 -858.356645 
L 586.64 -858.37355 
L 587.88 -858.388683 
L 589.12 -858.402041 
L 590.36 -858.413622 
L 591.6 -858.423425 
L 592.84 -858.431447 
L 594.08 -858.437688 
L 595.32 -858.442147 
L 596.56 -858.444822 
L 597.8 -858.445714 
L 599.04 -858.444822 
L 600.28 -858.442147 
L 601.52 -858.437688 
L 602.76 -858.431447 
L 604 -858.423425 
L 605.24 -858.413622 
L 606.48 -858.402041 
L 607.72 -858.388683 
L 608.96 -858.37355 
L 610.2 -858.356645 
L 611.44 -858.337971 
L 612.68 -858.317529 
L 613.92 -858.295324 
L 615.16 -858.271359 
L 616.4 -858.245638 
L 617.64 -858.218165 
L 618.88 -858.188944 
L 620.12 -858.15798 
L 621.36 -858.125278 
L 622.6 -858.090843 
L 623.84 -858.05468 
L 625.08 -858.016795 
L 626.32 -857.977194 
L 627.56 -857.935883 
L 628.8 -857.892869 
L 630.04 -857.848159 
L 631.28 -857.801759 
L 632.52 -857.753677 
L 633.76 -857.703921 
L 635 -857.652499 
L 636.24 -857.599418 
L 637.48 -857.544686 
L 638.72 -857.488314 
L 639.96 -857.430309 
L 641.2 -857.37068 
L 642.44 -857.309438 
L 643.68 -857.246591 
L 644.92 -857.18215 
L 646.16 -857.116125 
L 647.4 -857.048526 
L 648.64 -856.979364 
L 649.88 -856.90865 
L 651.12 -856.836395 
L 652.36 -856.76261 
L 653.6 -856.687307 
L 654.84 -856.610499 
L 656.08 -856.532196 
L 657.32 -856.452412 
L 658.56 -856.371159 
L 659.8 -856.28845 
L 661.04 -856.204297 
L 662.28 -856.118715 
L 663.52 -856.031717 
L 664.76 -855.943317 
L 666 -855.853527 
L 667.24 -855.762364 
L 668.48 -855.66984 
L 669.72 -855.575971 
L 670.96 -855.480772 
L 672.2 -855.384257 
L 673.44 -855.286441 
L 674.68 -855.187341 
L 675.92 -855.086972 
L 677.16 -854.985349 
L 678.4 -854.882489 
L 679.64 -854.778409 
L 680.88 -854.673123 
L 682.12 -854.56665 
L 683.36 -854.459005 
L 684.6 -854.350206 
L 685.84 -854.240271 
L 687.08 -854.129215 
L 688.32 -854.017058 
L 689.56 -853.903816 
L 690.8 -853.789508 
L 692.04 -853.674151 
L 693.28 -853.557764 
L 694.52 -853.440365 
L 695.76 -853.321973 
L 697 -853.202607 
L 698.24 -853.082284 
L 699.48 -852.961025 
L 700.72 -852.838848 
L 701.96 -852.715773 
L 703.2 -852.591819 
L 704.44 -852.467006 
L 705.68 -852.341353 
L 706.92 -852.21488 
L 708.16 -852.087608 
L 709.4 -851.959556 
L 710.64 -851.830744 
L 711.88 -851.701194 
L 713.12 -851.570924 
L 714.36 -851.439957 
L 715.6 -851.308312 
L 716.84 -851.17601 
L 718.08 -851.043073 
L 719.32 -850.909521 
L 720.56 -850.775376 
L 721.8 -850.640657 
L 723.04 -850.505388 
L 724.28 -850.369589 
L 725.52 -850.233281 
L 726.76 -850.096487 
L 728 -849.959227 
L 729.24 -849.821524 
L 730.48 -849.683399 
L 731.72 -849.544874 
L 732.96 -849.405971 
L 734.2 -849.266711 
L 735.44 -849.127118 
L 736.68 -848.987212 
L 737.92 -848.847016 
L 739.16 -848.706552 
L 740.4 -848.565842 
L 741.64 -848.424909 
L 742.88 -848.283774 
L 744.12 -848.14246 
L 745.36 -848.00099 
L 746.6 -847.859385 
L 747.84 -847.717669 
L 749.08 -847.575863 
L 750.32 -847.433989 
L 751.56 -847.292071 
L 752.8 -847.15013 
L 752.8 -818.911169 
L 752.8 -818.911169 
L 751.56 -819.05311 
L 750.32 -819.195028 
L 749.08 -819.336901 
L 747.84 -819.478708 
L 746.6 -819.620424 
L 745.36 -819.762029 
L 744.12 -819.903499 
L 742.88 -820.044813 
L 741.64 -820.185948 
L 740.4 -820.326881 
L 739.16 -820.467591 
L 737.92 -820.608055 
L 736.68 -820.748251 
L 735.44 -820.888157 
L 734.2 -821.02775 
L 732.96 -821.16701 
L 731.72 -821.305913 
L 730.48 -821.444438 
L 729.24 -821.582563 
L 728 -821.720266 
L 726.76 -821.857526 
L 725.52 -821.99432 
L 724.28 -822.130628 
L 723.04 -822.266427 
L 721.8 -822.401696 
L 720.56 -822.536414 
L 719.32 -822.67056 
L 718.08 -822.804112 
L 716.84 -822.937049 
L 715.6 -823.069351 
L 714.36 -823.200996 
L 713.12 -823.331963 
L 711.88 -823.462232 
L 710.64 -823.591783 
L 709.4 -823.720595 
L 708.16 -823.848647 
L 706.92 -823.975919 
L 705.68 -824.102392 
L 704.44 -824.228045 
L 703.2 -824.352858 
L 701.96 -824.476812 
L 700.72 -824.599887 
L 699.48 -824.722064 
L 698.24 -824.843323 
L 697 -824.963646 
L 695.76 -825.083012 
L 694.52 -825.201404 
L 693.28 -825.318803 
L 692.04 -825.43519 
L 690.8 -825.550547 
L 689.56 -825.664855 
L 688.32 -825.778097 
L 687.08 -825.890254 
L 685.84 -826.00131 
L 684.6 -826.111245 
L 683.36 -826.220044 
L 682.12 -826.327689 
L 680.88 -826.434162 
L 679.64 -826.539448 
L 678.4 -826.643528 
L 677.16 -826.746388 
L 675.92 -826.848011 
L 674.68 -826.94838 
L 673.44 -827.04748 
L 672.2 -827.145295 
L 670.96 -827.241811 
L 669.72 -827.33701 
L 668.48 -827.430879 
L 667.24 -827.523403 
L 666 -827.614566 
L 664.76 -827.704355 
L 663.52 -827.792756 
L 662.28 -827.879754 
L 661.04 -827.965336 
L 659.8 -828.049489 
L 658.56 -828.132198 
L 657.32 -828.213451 
L 656.08 -828.293235 
L 654.84 -828.371538 
L 653.6 -828.448346 
L 652.36 -828.523649 
L 651.12 -828.597434 
L 649.88 -828.669689 
L 648.64 -828.740403 
L 647.4 -828.809565 
L 646.16 -828.877164 
L 644.92 -828.943189 
L 643.68 -829.00763 
L 642.44 -829.070477 
L 641.2 -829.131719 
L 639.96 -829.191348 
L 638.72 -829.249353 
L 637.48 -829.305725 
L 636.24 -829.360457 
L 635 -829.413538 
L 633.76 -829.46496 
L 632.52 -829.514716 
L 631.28 -829.562798 
L 630.04 -829.609198 
L 628.8 -829.653908 
L 627.56 -829.696922 
L 626.32 -829.738233 
L 625.08 -829.777834 
L 623.84 -829.815719 
L 622.6 -829.851882 
L 621.36 -829.886317 
L 620.12 -829.919019 
L 618.88 -829.949983 
L 617.64 -829.979204 
L 616.4 -830.006677 
L 615.16 -830.032398 
L 613.92 -830.056363 
L 612.68 -830.078568 
L 611.44 -830.099009 
L 610.2 -830.117684 
L 608.96 -830.134589 
L 607.72 -830.149722 
L 606.48 -830.16308 
L 605.24 -830.174661 
L 604 -830.184464 
L 602.76 -830.192486 
L 601.52 -830.198727 
L 600.28 -830.203186 
L 599.04 -830.205861 
L 597.8 -830.206753 
L 596.56 -830.205861 
L 595.32 -830.203186 
L 594.08 -830.198727 
L 592.84 -830.192486 
L 591.6 -830.184464 
L 590.36 -830.174661 
L 589.12 -830.16308 
L 587.88 -830.149722 
L 586.64 -830.134589 
L 585.4 -830.117684 
L 584.16 -830.099009 
L 582.92 -830.078568 
L 581.68 -830.056363 
L 580.44 -830.032398 
L 579.2 -830.006677 
L 577.96 -829.979204 
L 576.72 -829.949983 
L 575.48 -829.919019 
L 574.24 -829.886317 
L 573 -829.851882 
L 571.76 -829.815719 
L 570.52 -829.777834 
L 569.28 -829.738233 
L 568.04 -829.696922 
L 566.8 -829.653908 
L 565.56 -829.609198 
L 564.32 -829.562798 
L 563.08 -829.514716 
L 561.84 -829.46496 
L 560.6 -829.413538 
L 559.36 -829.360457 
L 558.12 -829.305725 
L 556.88 -829.249353 
L 555.64 -829.191348 
L 554.4 -829.131719 
L 553.16 -829.070477 
L 551.92 -829.00763 
L 550.68 -828.943189 
L 549.44 -828.877164 
L 548.2 -828.809565 
L 546.96 -828.740403 
L 545.72 -828.669689 
L 544.48 -828.597434 
L 543.24 -828.523649 
L 542 -828.448346 
L 540.76 -828.371538 
L 539.52 -828.293235 
L 538.28 -828.213451 
L 537.04 -828.132198 
L 535.8 -828.049489 
L 534.56 -827.965336 
L 533.32 -827.879754 
L 532.08 -827.792756 
L 530.84 -827.704355 
L 529.6 -827.614566 
L 528.36 -827.523403 
L 527.12 -827.430879 
L 525.88 -827.33701 
L 524.64 -827.241811 
L 523.4 -827.145295 
L 522.16 -827.04748 
L 520.92 -826.94838 
L 519.68 -826.848011 
L 518.44 -826.746388 
L 517.2 -826.643528 
L 515.96 -826.539448 
L 514.72 -826.434162 
L 513.48 -826.327689 
L 512.24 -826.220044 
L 511 -826.111245 
L 509.76 -826.00131 
L 508.52 -825.890254 
L 507.28 -825.778097 
L 506.04 -825.664855 
L 504.8 -825.550547 
L 503.56 -825.43519 
L 502.32 -825.318803 
L 501.08 -825.201404 
L 499.84 -825.083012 
L 498.6 -824.963646 
L 497.36 -824.843323 
L 496.12 -824.722064 
L 494.88 -824.599887 
L 493.64 -824.476812 
L 492.4 -824.352858 
L 491.16 -824.228045 
L 489.92 -824.102392 
L 488.68 -823.975919 
L 487.44 -823.848647 
L 486.2 -823.720595 
L 484.96 -823.591783 
L 483.72 -823.462232 
L 482.48 -823.331963 
L 481.24 -823.200996 
L 480 -823.069351 
L 478.76 -822.937049 
L 477.52 -822.804112 
L 476.28 -822.67056 
L 475.04 -822.536414 
L 473.8 -822.401696 
L 472.56 -822.266427 
L 471.32 -822.130628 
L 470.08 -821.99432 
L 468.84 -821.857526 
L 467.6 -821.720266 
L 466.36 -821.582563 
L 465.12 -821.444438 
L 463.88 -821.305913 
L 462.64 -821.16701 
L 461.4 -821.02775 
L 460.16 -820.888157 
L 458.92 -820.748251 
L 457.68 -820.608055 
L 456.44 -820.467591 
L 455.2 -820.326881 
L 453.96 -820.185948 
L 452.72 -820.044813 
L 451.48 -819.903499 
L 450.24 -819.762029 
L 449 -819.620424 
L 447.76 -819.478708 
L 446.52 -819.336901 
L 445.28 -819.195028 
L 444.04 -819.05311 
L 442.8 -818.911169 
L 441.56 -818.769228 
L 440.32 -818.62731 
L 439.08 -818.485436 
L 437.84 -818.34363 
L 436.6 -818.201913 
L 435.36 -818.060309 
L 434.12 -817.918838 
L 432.88 -817.777525 
L 431.64 -817.63639 
L 430.4 -817.495457 
L 429.16 -817.354747 
L 427.92 -817.214283 
L 426.68 -817.074087 
L 425.44 -816.934181 
L 424.2 -816.794587 
L 422.96 -816.655328 
L 421.72 -816.516425 
L 420.48 -816.3779 
L 419.24 -816.239774 
L 418 -816.102071 
L 416.76 -815.964812 
L 415.52 -815.828017 
L 414.28 -815.69171 
L 413.04 -815.555911 
L 411.8 -815.420641 
L 410.56 -815.285923 
L 409.32 -815.151778 
L 408.08 -815.018226 
L 406.84 -814.885288 
L 405.6 -814.752987 
L 404.36 -814.621342 
L 403.12 -814.490375 
L 401.88 -814.360105 
L 400.64 -814.230554 
L 399.4 -814.101743 
L 398.16 -813.973691 
L 396.92 -813.846418 
L 395.68 -813.719946 
L 394.44 -813.594293 
L 393.2 -813.46948 
L 391.96 -813.345526 
L 390.72 -813.22245 
L 389.48 -813.100274 
L 388.24 -812.979014 
L 387 -812.858692 
L 385.76 -812.739325 
L 384.52 -812.620933 
L 383.28 -812.503535 
L 382.04 -812.387148 
L 380.8 -812.271791 
L 379.56 -812.157483 
L 378.32 -812.044241 
L 377.08 -811.932083 
L 375.84 -811.821028 
L 374.6 -811.711092 
L 373.36 -811.602294 
L 372.12 -811.494649 
L 370.88 -811.388176 
L 369.64 -811.28289 
L 368.4 -811.178809 
L 367.16 -811.075949 
L 365.92 -810.974327 
L 364.68 -810.873958 
L 363.44 -810.774857 
L 362.2 -810.677042 
L 360.96 -810.580527 
L 359.72 -810.485328 
L 358.48 -810.391459 
L 357.24 -810.298935 
L 356 -810.207771 
L 354.76 -810.117982 
L 353.52 -810.029581 
L 352.28 -809.942583 
L 351.04 -809.857001 
L 349.8 -809.772849 
L 348.56 -809.69014 
L 347.32 -809.608887 
L 346.08 -809.529103 
L 344.84 -809.4508 
L 343.6 -809.373991 
L 342.36 -809.298689 
L 341.12 -809.224904 
L 339.88 -809.152649 
L 338.64 -809.081935 
L 337.4 -809.012773 
L 336.16 -808.945174 
L 334.92 -808.879149 
L 333.68 -808.814708 
L 332.44 -808.751861 
L 331.2 -808.690618 
L 329.96 -808.63099 
L 328.72 -808.572985 
L 327.48 -808.516612 
L 326.24 -808.461881 
L 325 -808.4088 
L 323.76 -808.357377 
L 322.52 -808.307621 
L 321.28 -808.25954 
L 320.04 -808.21314 
L 318.8 -808.16843 
L 317.56 -808.125416 
L 316.32 -808.084105 
L 315.08 -808.044504 
L 313.84 -808.006619 
L 312.6 -807.970456 
L 311.36 -807.936021 
L 310.12 -807.903318 
L 308.88 -807.872354 
L 307.64 -807.843133 
L 306.4 -807.81566 
L 305.16 -807.789939 
L 303.92 -807.765974 
L 302.68 -807.74377 
L 301.44 -807.723328 
L 300.2 -807.704653 
L 298.96 -807.687748 
L 297.72 -807.672616 
L 296.48 -807.659258 
L 295.24 -807.647676 
L 294 -807.637874 
L 292.76 -807.629851 
L 291.52 -807.62361 
L 290.28 -807.619152 
L 289.04 -807.616476 
L 287.8 -807.615584 
L 286.56 -807.616476 
L 285.32 -807.619152 
L 284.08 -807.62361 
L 282.84 -807.629851 
L 281.6 -807.637874 
L 280.36 -807.647676 
L 279.12 -807.659258 
L 277.88 -807.672616 
L 276.64 -807.687748 
L 275.4 -807.704653 
L 274.16 -807.723328 
L 272.92 -807.74377 
L 271.68 -807.765974 
L 270.44 -807.789939 
L 269.2 -807.81566 
L 267.96 -807.843133 
L 266.72 -807.872354 
L 265.48 -807.903318 
L 264.24 -807.936021 
L 263 -807.970456 
L 261.76 -808.006619 
L 260.52 -808.044504 
L 259.28 -808.084105 
L 258.04 -808.125416 
L 256.8 -808.16843 
L 255.56 -808.21314 
L 254.32 -808.25954 
L 253.08 -808.307621 
L 251.84 -808.357377 
L 250.6 -808.4088 
L 249.36 -808.461881 
L 248.12 -808.516612 
L 246.88 -808.572985 
L 245.64 -808.63099 
L 244.4 -808.690618 
L 243.16 -808.751861 
L 241.92 -808.814708 
L 240.68 -808.879149 
L 239.44 -808.945174 
L 238.2 -809.012773 
L 236.96 -809.081935 
L 235.72 -809.152649 
L 234.48 -809.224904 
L 233.24 -809.298689 
L 232 -809.373991 
L 230.76 -809.4508 
L 229.52 -809.529103 
L 228.28 -809.608887 
L 227.04 -809.69014 
L 225.8 -809.772849 
L 224.56 -809.857001 
L 223.32 -809.942583 
L 222.08 -810.029581 
L 220.84 -810.117982 
L 219.6 -810.207771 
L 218.36 -810.298935 
L 217.12 -810.391459 
L 215.88 -810.485328 
L 214.64 -810.580527 
L 213.4 -810.677042 
L 212.16 -810.774857 
L 210.92 -810.873958 
L 209.68 -810.974327 
L 208.44 -811.075949 
L 207.2 -811.178809 
L 205.96 -811.28289 
L 204.72 -811.388176 
L 203.48 -811.494649 
L 202.24 -811.602294 
L 201 -811.711092 
L 199.76 -811.821028 
L 198.52 -811.932083 
L 197.28 -812.044241 
L 196.04 -812.157483 
L 194.8 -812.271791 
L 193.56 -812.387148 
L 192.32 -812.503535 
L 191.08 -812.620933 
L 189.84 -812.739325 
L 188.6 -812.858692 
L 187.36 -812.979014 
L 186.12 -813.100274 
L 184.88 -813.22245 
L 183.64 -813.345526 
L 182.4 -813.46948 
L 181.16 -813.594293 
L 179.92 -813.719946 
L 178.68 -813.846418 
L 177.44 -813.973691 
L 176.2 -814.101743 
L 174.96 -814.230554 
L 173.72 -814.360105 
L 172.48 -814.490375 
L 171.24 -814.621342 
L 170 -814.752987 
L 168.76 -814.885288 
L 167.52 -815.018226 
L 166.28 -815.151778 
L 165.04 -815.285923 
L 163.8 -815.420641 
L 162.56 -815.555911 
L 161.32 -815.69171 
L 160.08 -815.828017 
L 158.84 -815.964812 
L 157.6 -816.102071 
L 156.36 -816.239774 
L 155.12 -816.3779 
L 153.88 -816.516425 
L 152.64 -816.655328 
L 151.4 -816.794587 
L 150.16 -816.934181 
L 148.92 -817.074087 
L 147.68 -817.214283 
L 146.44 -817.354747 
L 145.2 -817.495457 
L 143.96 -817.63639 
L 142.72 -817.777525 
L 141.48 -817.918838 
L 140.24 -818.060309 
L 139 -818.201913 
L 137.76 -818.34363 
L 136.52 -818.485436 
L 135.28 -818.62731 
L 134.04 -818.769228 
L 132.8 -818.911169 
z
" id="mb29663c5d6" style="stroke:#000000;stroke-opacity:0.8;"/>
    </defs>
    <g clip-path="url(#pd142a26796)">
     <use style="fill-opacity:0.8;stroke:#000000;stroke-opacity:0.8;" x="0" xlink:href="#mb29663c5d6" y="1152"/>
    </g>
   </g>
   <g id="patch_4">
    <path clip-path="url(#pd142a26796)" d="M 132.8 318.969351 
L 132.8 304.84987 
L 140.24 304.84987 
L 140.24 299.202078 
L 125.36 293.554286 
L 115.44 293.554286 
L 115.44 344.384416 
L 125.36 344.384416 
L 140.24 338.736623 
L 140.24 333.088831 
L 132.8 333.088831 
z
" style="fill:#808080;opacity:0.8;stroke:#000000;stroke-linejoin:miter;"/>
   </g>
   <g id="patch_5">
    <path clip-path="url(#pd142a26796)" d="M 752.8 318.969351 
L 752.8 304.84987 
L 745.36 304.84987 
L 745.36 299.202078 
L 760.24 293.554286 
L 770.16 293.554286 
L 770.16 344.384416 
L 760.24 344.384416 
L 745.36 338.736623 
L 745.36 333.088831 
L 752.8 333.088831 
z
" style="fill:#808080;opacity:0.8;stroke:#000000;stroke-linejoin:miter;"/>
   </g>
   <g id="matplotlib.axis_3">
    <g id="xtick_7"/>
    <g id="xtick_8"/>
    <g id="xtick_9"/>
    <g id="xtick_10"/>
    <g id="xtick_11"/>
    <g id="xtick_12"/>
   </g>
   <g id="matplotlib.axis_4">
    <g id="ytick_6"/>
    <g id="ytick_7"/>
    <g id="ytick_8"/>
    <g id="ytick_9"/>
    <g id="ytick_10"/>
   </g>
   <g id="line2d_2">
    <path clip-path="url(#pd142a26796)" d="M 132.8 318.969351 
L 171.24 323.259177 
L 192.32 325.376985 
L 209.68 326.906193 
L 225.8 328.10767 
L 240.68 329.001371 
L 255.56 329.66738 
L 269.2 330.064859 
L 282.84 330.250668 
L 296.48 330.221262 
L 310.12 329.977201 
L 323.76 329.523142 
L 338.64 328.798585 
L 353.52 327.850938 
L 369.64 326.597629 
L 387 325.021827 
L 406.84 322.995231 
L 434.12 319.961681 
L 482.48 314.548556 
L 503.56 312.445329 
L 520.92 310.932139 
L 537.04 309.748322 
L 551.92 308.872889 
L 566.8 308.226611 
L 580.44 307.848121 
L 594.08 307.681792 
L 607.72 307.730797 
L 621.36 307.994202 
L 635 308.466982 
L 649.88 309.210831 
L 664.76 310.176164 
L 680.88 311.446357 
L 698.24 313.037196 
L 719.32 315.209959 
L 747.84 318.401812 
L 752.8 318.969351 
L 752.8 318.969351 
" style="fill:none;stroke:#000000;stroke-dasharray:11.1,4.8;stroke-dashoffset:0;stroke-width:3;"/>
   </g>
   <g id="line2d_3">
    <path clip-path="url(#pd142a26796)" d="M 132.8 304.84987 
L 171.24 309.139697 
L 192.32 311.257504 
L 209.68 312.786712 
L 225.8 313.98819 
L 240.68 314.88189 
L 255.56 315.547899 
L 269.2 315.945379 
L 282.84 316.131188 
L 296.48 316.101781 
L 310.12 315.857721 
L 323.76 315.403662 
L 338.64 314.679104 
L 353.52 313.731457 
L 369.64 312.478149 
L 387 310.902347 
L 406.84 308.875751 
L 434.12 305.842201 
L 482.48 300.429076 
L 503.56 298.325849 
L 520.92 296.812659 
L 537.04 295.628841 
L 551.92 294.753409 
L 566.8 294.107131 
L 580.44 293.728641 
L 594.08 293.562312 
L 607.72 293.611317 
L 621.36 293.874722 
L 635 294.347501 
L 649.88 295.09135 
L 664.76 296.056683 
L 680.88 297.326877 
L 698.24 298.917716 
L 719.32 301.090479 
L 747.84 304.282331 
L 752.8 304.84987 
L 752.8 304.84987 
" style="fill:none;stroke:#000000;stroke-linecap:square;stroke-width:2;"/>
   </g>
   <g id="line2d_4">
    <path clip-path="url(#pd142a26796)" d="M 132.8 333.088831 
L 171.24 337.378658 
L 192.32 339.496465 
L 209.68 341.025673 
L 225.8 342.227151 
L 240.68 343.120851 
L 255.56 343.78686 
L 269.2 344.18434 
L 282.84 344.370149 
L 296.48 344.340742 
L 310.12 344.096682 
L 323.76 343.642623 
L 338.64 342.918065 
L 353.52 341.970419 
L 369.64 340.71711 
L 387 339.141308 
L 406.84 337.114712 
L 434.12 334.081162 
L 482.48 328.668037 
L 503.56 326.56481 
L 520.92 325.05162 
L 537.04 323.867802 
L 551.92 322.99237 
L 566.8 322.346092 
L 580.44 321.967602 
L 594.08 321.801273 
L 607.72 321.850278 
L 621.36 322.113683 
L 635 322.586462 
L 649.88 323.330311 
L 664.76 324.295645 
L 680.88 325.565838 
L 698.24 327.156677 
L 719.32 329.32944 
L 747.84 332.521292 
L 752.8 333.088831 
L 752.8 333.088831 
" style="fill:none;stroke:#000000;stroke-linecap:square;stroke-width:2;"/>
   </g>
   <g id="line2d_5">
    <path clip-path="url(#pd142a26796)" d="M 132.8 333.088831 
L 132.8 304.84987 
" style="fill:none;stroke:#000000;stroke-linecap:square;stroke-width:2;"/>
   </g>
   <g id="line2d_6">
    <path clip-path="url(#pd142a26796)" d="M 752.8 333.088831 
L 752.8 304.84987 
" style="fill:none;stroke:#000000;stroke-linecap:square;stroke-width:2;"/>
   </g>
  </g>
  <g id="axes_3">
   <g id="patch_6">
    <path d="M 108 635.245714 
L 777.6 635.245714 
L 777.6 386.742857 
L 108 386.742857 
z
" style="fill:#ffffff;"/>
   </g>
   <g id="matplotlib.axis_5">
    <g id="xtick_13"/>
    <g id="xtick_14"/>
    <g id="xtick_15"/>
    <g id="xtick_16"/>
    <g id="xtick_17"/>
    <g id="xtick_18"/>
   </g>
   <g id="matplotlib.axis_6">
    <g id="ytick_11"/>
    <g id="ytick_12"/>
    <g id="ytick_13"/>
    <g id="ytick_14"/>
    <g id="ytick_15"/>
   </g>
   <g id="line2d_7">
    <path clip-path="url(#p80b7695643)" d="M 132.8 497.188571 
L 152.64 517.240491 
L 163.8 528.215483 
L 173.72 537.642471 
L 182.4 545.559143 
L 189.84 552.049402 
L 197.28 558.227931 
L 203.48 563.113192 
L 209.68 567.738279 
L 215.88 572.084937 
L 222.08 576.136015 
L 228.28 579.875522 
L 233.24 582.632838 
L 238.2 585.174314 
L 243.16 587.493531 
L 248.12 589.584629 
L 253.08 591.442327 
L 258.04 593.061932 
L 263 594.439352 
L 267.96 595.571109 
L 272.92 596.454342 
L 277.88 597.086822 
L 282.84 597.46695 
L 287.8 597.593766 
L 292.76 597.46695 
L 297.72 597.086822 
L 302.68 596.454342 
L 307.64 595.571109 
L 312.6 594.439352 
L 317.56 593.061932 
L 322.52 591.442327 
L 327.48 589.584629 
L 332.44 587.493531 
L 337.4 585.174314 
L 342.36 582.632838 
L 347.32 579.875522 
L 353.52 576.136015 
L 359.72 572.084937 
L 365.92 567.738279 
L 372.12 563.113192 
L 378.32 558.227931 
L 385.76 552.049402 
L 393.2 545.559143 
L 400.64 538.794032 
L 409.32 530.605383 
L 419.24 520.934299 
L 431.64 508.519939 
L 470.08 469.782779 
L 480 460.226954 
L 488.68 452.168567 
L 496.12 445.53617 
L 503.56 439.197272 
L 511 433.187892 
L 517.2 428.456486 
L 523.4 423.996334 
L 529.6 419.825039 
L 535.8 415.959063 
L 540.76 413.096405 
L 545.72 410.446172 
L 550.68 408.015058 
L 555.64 405.809204 
L 560.6 403.834182 
L 565.56 402.094982 
L 570.52 400.595996 
L 575.48 399.341011 
L 580.44 398.333198 
L 585.4 397.575102 
L 590.36 397.068638 
L 595.32 396.815086 
L 600.28 396.815086 
L 605.24 397.068638 
L 610.2 397.575102 
L 615.16 398.333198 
L 620.12 399.341011 
L 625.08 400.595996 
L 630.04 402.094982 
L 635 403.834182 
L 639.96 405.809204 
L 644.92 408.015058 
L 649.88 410.446172 
L 654.84 413.096405 
L 659.8 415.959063 
L 666 419.825039 
L 672.2 423.996334 
L 678.4 428.456486 
L 684.6 433.187892 
L 690.8 438.171879 
L 698.24 444.45831 
L 705.68 451.044366 
L 714.36 459.056777 
L 723.04 467.364054 
L 734.2 478.374514 
L 749.08 493.404281 
L 752.8 497.188571 
L 752.8 497.188571 
" style="fill:none;stroke:#000000;stroke-linecap:square;stroke-width:3;"/>
   </g>
  </g>
  <g id="axes_4">
   <g id="patch_7">
    <path d="M 108 1008 
L 777.6 1008 
L 777.6 635.245714 
L 108 635.245714 
z
" style="fill:#ffffff;"/>
   </g>
   <g id="patch_8">
    <path clip-path="url(#pb52e14380c)" d="M 132.8 1008 
L 132.8 635.245714 
L 151.4 635.245714 
L 151.4 1008 
z
" style="fill:#808080;opacity:0.1;stroke:#808080;stroke-linejoin:miter;"/>
   </g>
   <g id="patch_9">
    <path clip-path="url(#pb52e14380c)" d="M 734.2 1008 
L 734.2 635.245714 
L 752.8 635.245714 
L 752.8 1008 
z
" style="fill:#808080;opacity:0.1;stroke:#808080;stroke-linejoin:miter;"/>
   </g>
   <g id="matplotlib.axis_7">
    <g id="xtick_19">
     <g id="line2d_8">
      <defs>
       <path d="M 0 0 
L 0 3.5 
" id="m516c736037" style="stroke:#000000;stroke-width:0.8;"/>
      </defs>
      <g>
       <use style="stroke:#000000;stroke-width:0.8;" x="132.8" xlink:href="#m516c736037" y="1008"/>
      </g>
     </g>
    </g>
    <g id="xtick_20">
     <g id="line2d_9">
      <g>
       <use style="stroke:#000000;stroke-width:0.8;" x="256.8" xlink:href="#m516c736037" y="1008"/>
      </g>
     </g>
    </g>
    <g id="xtick_21">
     <g id="line2d_10">
      <g>
       <use style="stroke:#000000;stroke-width:0.8;" x="380.8" xlink:href="#m516c736037" y="1008"/>
      </g>
     </g>
    </g>
    <g id="xtick_22">
     <g id="line2d_11">
      <g>
       <use style="stroke:#000000;stroke-width:0.8;" x="504.8" xlink:href="#m516c736037" y="1008"/>
      </g>
     </g>
    </g>
    <g id="xtick_23">
     <g id="line2d_12">
      <g>
       <use style="stroke:#000000;stroke-width:0.8;" x="628.8" xlink:href="#m516c736037" y="1008"/>
      </g>
     </g>
    </g>
    <g id="xtick_24">
     <g id="line2d_13">
      <g>
       <use style="stroke:#000000;stroke-width:0.8;" x="752.8" xlink:href="#m516c736037" y="1008"/>
      </g>
     </g>
    </g>
   </g>
   <g id="matplotlib.axis_8">
    <g id="ytick_16"/>
    <g id="ytick_17"/>
    <g id="ytick_18"/>
    <g id="ytick_19"/>
    <g id="ytick_20"/>
    <g id="ytick_21"/>
    <g id="ytick_22"/>
    <g id="ytick_23"/>
   </g>
   <g id="line2d_14">
    <path clip-path="url(#pb52e14380c)" d="M 132.8 832.738783 
L 136.52 828.385936 
L 139 825.817283 
L 141.48 823.641774 
L 143.96 821.948991 
L 145.2 821.305542 
L 146.44 820.805865 
L 147.68 820.454131 
L 148.92 820.252675 
L 150.16 820.201956 
L 151.4 820.300542 
L 152.64 820.545123 
L 153.88 820.930547 
L 155.12 821.449887 
L 157.6 822.854292 
L 160.08 824.671374 
L 162.56 826.793784 
L 172.48 835.817756 
L 174.96 837.580188 
L 177.44 838.932991 
L 178.68 839.432707 
L 179.92 839.805595 
L 181.16 840.04707 
L 182.4 840.154364 
L 183.64 840.126554 
L 184.88 839.96455 
L 186.12 839.671074 
L 187.36 839.250595 
L 189.84 838.054759 
L 192.32 836.444156 
L 194.8 834.506383 
L 198.52 831.213112 
L 204.72 825.621676 
L 207.2 823.654653 
L 209.68 821.968446 
L 212.16 820.618613 
L 214.64 819.634646 
L 217.12 819.017983 
L 219.6 818.741668 
L 222.08 818.751675 
L 225.8 819.126991 
L 230.76 819.749493 
L 233.24 819.846995 
L 235.72 819.642576 
L 236.96 819.392378 
L 238.2 819.026731 
L 239.44 818.534471 
L 240.68 817.905778 
L 241.92 817.132326 
L 243.16 816.207405 
L 244.4 815.126031 
L 245.64 813.885023 
L 248.12 810.9207 
L 250.6 807.326486 
L 253.08 803.144069 
L 255.56 798.442762 
L 258.04 793.315949 
L 261.76 785.077911 
L 269.2 768.227795 
L 272.92 760.465202 
L 275.4 755.773737 
L 277.88 751.54977 
L 280.36 747.831794 
L 282.84 744.629202 
L 285.32 741.922376 
L 287.8 739.664435 
L 290.28 737.784539 
L 292.76 736.192557 
L 296.48 734.115558 
L 301.44 731.346753 
L 303.92 729.728492 
L 306.4 727.839656 
L 308.88 725.619658 
L 311.36 723.033174 
L 313.84 720.072559 
L 316.32 716.758638 
L 318.8 713.139822 
L 322.52 707.306603 
L 329.96 695.483461 
L 332.44 691.934019 
L 334.92 688.775842 
L 337.4 686.10893 
L 338.64 684.985624 
L 339.88 684.013306 
L 341.12 683.198086 
L 342.36 682.544307 
L 343.6 682.054481 
L 344.84 681.729246 
L 346.08 681.567347 
L 347.32 681.565645 
L 348.56 681.719159 
L 349.8 682.021121 
L 351.04 682.463071 
L 353.52 683.725288 
L 356 685.408957 
L 358.48 687.399334 
L 368.4 695.867205 
L 370.88 697.500639 
L 373.36 698.745113 
L 375.84 699.542066 
L 377.08 699.762036 
L 378.32 699.860946 
L 379.56 699.839551 
L 380.8 699.700415 
L 383.28 699.087876 
L 385.76 698.077354 
L 388.24 696.745854 
L 391.96 694.358157 
L 398.16 690.251818 
L 400.64 688.881461 
L 403.12 687.806597 
L 405.6 687.095174 
L 408.08 686.790774 
L 410.56 686.909775 
L 413.04 687.440118 
L 415.52 688.34173 
L 418 689.548608 
L 421.72 691.733155 
L 426.68 694.760678 
L 429.16 696.05263 
L 431.64 697.040192 
L 434.12 697.61984 
L 435.36 697.729255 
L 436.6 697.706538 
L 437.84 697.544774 
L 439.08 697.238763 
L 440.32 696.785101 
L 441.56 696.182239 
L 442.8 695.430512 
L 444.04 694.532143 
L 446.52 692.313666 
L 449 689.580893 
L 451.48 686.414065 
L 453.96 682.91537 
L 458.92 675.40739 
L 462.64 669.843407 
L 465.12 666.404543 
L 467.6 663.312516 
L 470.08 660.657761 
L 472.56 658.506503 
L 473.8 657.632936 
L 475.04 656.897534 
L 476.28 656.300588 
L 477.52 655.840562 
L 478.76 655.514128 
L 480 655.316237 
L 481.24 655.240205 
L 483.72 655.419525 
L 486.2 655.970818 
L 488.68 656.79604 
L 493.64 658.829775 
L 497.36 660.256606 
L 499.84 660.976012 
L 502.32 661.421209 
L 504.8 661.541843 
L 507.28 661.314121 
L 509.76 660.74249 
L 512.24 659.859657 
L 514.72 658.724952 
L 518.44 656.736927 
L 522.16 654.725377 
L 524.64 653.569351 
L 527.12 652.702493 
L 529.6 652.238328 
L 530.84 652.189091 
L 532.08 652.276455 
L 533.32 652.509735 
L 534.56 652.8967 
L 535.8 653.443458 
L 537.04 654.154359 
L 538.28 655.031926 
L 539.52 656.076807 
L 540.76 657.287759 
L 543.24 660.193523 
L 545.72 663.70239 
L 548.2 667.740461 
L 550.68 672.210589 
L 554.4 679.47029 
L 561.84 694.381603 
L 564.32 699.007748 
L 566.8 703.286323 
L 569.28 707.14359 
L 571.76 710.532495 
L 574.24 713.43476 
L 576.72 715.86131 
L 579.2 717.851038 
L 581.68 719.467963 
L 584.16 720.796961 
L 587.88 722.472616 
L 592.84 724.692166 
L 595.32 726.035675 
L 597.8 727.656681 
L 600.28 729.62294 
L 602.76 731.977989 
L 605.24 734.738257 
L 607.72 737.891754 
L 610.2 741.398439 
L 613.92 747.169873 
L 623.84 763.101098 
L 626.32 766.565242 
L 628.8 769.597456 
L 631.28 772.110889 
L 632.52 773.152193 
L 633.76 774.042041 
L 635 774.776764 
L 636.24 775.354546 
L 637.48 775.775455 
L 638.72 776.041449 
L 639.96 776.156357 
L 641.2 776.125831 
L 642.44 775.957277 
L 643.68 775.659757 
L 646.16 774.721596 
L 648.64 773.411877 
L 652.36 771.010256 
L 657.32 767.670924 
L 659.8 766.22908 
L 662.28 765.090156 
L 664.76 764.344677 
L 666 764.141295 
L 667.24 764.05913 
L 668.48 764.102198 
L 669.72 764.272688 
L 670.96 764.570947 
L 672.2 764.995492 
L 674.68 766.208604 
L 677.16 767.865631 
L 679.64 769.895907 
L 682.12 772.209062 
L 687.08 777.25893 
L 690.8 780.976312 
L 693.28 783.22384 
L 695.76 785.185257 
L 698.24 786.79658 
L 700.72 788.018844 
L 703.2 788.840636 
L 705.68 789.279024 
L 708.16 789.378804 
L 710.64 789.210124 
L 714.36 788.658797 
L 718.08 788.08506 
L 720.56 787.890741 
L 723.04 787.985252 
L 725.52 788.476176 
L 726.76 788.899498 
L 728 789.454385 
L 729.24 790.148701 
L 730.48 790.988658 
L 731.72 791.978719 
L 732.96 793.121524 
L 735.44 795.866563 
L 737.92 799.207326 
L 740.4 803.097941 
L 742.88 807.46536 
L 746.6 814.694339 
L 752.8 827.536528 
L 752.8 827.536528 
" style="fill:none;stroke:#8cbfb9;stroke-linecap:square;stroke-width:4;"/>
   </g>
   <g id="line2d_15">
    <path clip-path="url(#pb52e14380c)" d="M 132.8 816.790426 
L 134.04 818.194427 
L 135.28 818.844797 
L 136.52 821.491363 
L 137.76 824.451027 
L 139 824.393359 
L 140.24 822.71513 
L 141.48 821.484338 
L 142.72 820.879895 
L 143.96 821.069726 
L 145.2 821.62737 
L 146.44 822.529638 
L 147.68 823.253275 
L 148.92 823.42169 
L 150.16 823.441983 
L 151.4 822.129526 
L 152.64 821.001578 
L 153.88 821.028967 
L 155.12 821.513358 
L 157.6 822.905926 
L 160.08 824.709576 
L 162.56 826.816721 
L 172.48 835.778256 
L 174.96 837.528927 
L 177.44 838.8729 
L 178.68 839.369445 
L 179.92 839.740045 
L 181.16 839.980138 
L 182.4 840.086969 
L 183.64 840.059612 
L 184.88 839.898964 
L 186.12 839.607716 
L 187.36 839.190299 
L 189.84 838.002863 
L 192.32 836.403223 
L 194.8 834.478284 
L 198.52 831.206005 
L 204.72 825.647059 
L 207.2 823.689812 
L 209.68 822.010558 
L 212.16 820.664416 
L 214.64 819.68063 
L 217.12 819.060595 
L 219.6 818.777519 
L 222.08 818.777745 
L 225.8 819.133955 
L 230.76 819.726615 
L 233.24 819.809233 
L 235.72 819.59111 
L 236.96 819.334756 
L 238.2 818.963541 
L 239.44 818.466384 
L 240.68 817.833538 
L 241.92 817.056741 
L 243.16 816.129334 
L 244.4 815.046374 
L 245.64 813.804707 
L 248.12 810.841891 
L 250.6 807.252893 
L 253.08 803.079149 
L 255.56 798.389527 
L 258.04 793.276798 
L 261.76 785.062724 
L 269.2 768.260114 
L 272.92 760.515449 
L 275.4 755.832242 
L 277.88 751.613091 
L 280.36 747.896289 
L 282.84 744.69124 
L 285.32 741.978545 
L 287.8 739.711738 
L 290.28 737.820561 
L 292.76 736.215605 
L 296.48 734.11777 
L 301.44 731.323134 
L 303.92 729.694616 
L 306.4 727.798197 
L 308.88 725.573778 
L 311.36 722.986336 
L 313.84 720.028327 
L 316.32 716.720463 
L 320.04 711.214816 
L 326.24 701.300934 
L 329.96 695.518115 
L 332.44 691.982961 
L 334.92 688.837298 
L 337.4 686.180401 
L 338.64 685.060974 
L 339.88 684.091702 
L 341.12 683.278648 
L 342.36 682.626122 
L 343.6 682.136613 
L 344.84 681.810752 
L 346.08 681.647287 
L 347.32 681.643099 
L 348.56 681.793237 
L 349.8 682.090978 
L 351.04 682.527915 
L 353.52 683.778013 
L 356 685.447324 
L 358.48 687.421876 
L 368.4 695.829003 
L 370.88 697.451956 
L 373.36 698.689103 
L 375.84 699.482234 
L 377.08 699.701663 
L 378.32 699.800948 
L 379.56 699.780831 
L 380.8 699.643848 
L 383.28 699.038072 
L 385.76 698.037187 
L 388.24 696.717583 
L 391.96 694.350302 
L 398.16 690.277785 
L 400.64 688.918448 
L 403.12 687.852088 
L 405.6 687.14612 
L 408.08 686.84377 
L 410.56 686.961263 
L 413.04 687.486592 
L 415.52 688.379944 
L 418 689.575768 
L 421.72 691.739882 
L 426.68 694.737111 
L 429.16 696.014552 
L 431.64 696.989158 
L 434.12 697.558164 
L 435.36 697.663328 
L 436.6 697.637162 
L 437.84 697.472805 
L 439.08 697.165097 
L 440.32 696.710663 
L 441.56 696.107969 
L 442.8 695.357352 
L 444.04 694.461025 
L 446.52 692.249315 
L 449 689.526583 
L 451.48 686.372541 
L 453.96 682.888701 
L 458.92 675.413384 
L 462.64 669.873043 
L 465.12 666.447946 
L 467.6 663.367235 
L 470.08 660.720766 
L 472.56 658.574361 
L 473.8 657.70186 
L 475.04 656.966605 
L 476.28 656.368894 
L 477.52 655.90721 
L 478.76 655.578259 
L 480 655.377036 
L 481.24 655.296914 
L 483.72 655.466063 
L 486.2 656.005084 
L 488.68 656.816708 
L 493.64 658.82266 
L 497.36 660.231491 
L 499.84 660.941677 
L 502.32 661.380571 
L 504.8 661.498227 
L 507.28 661.271061 
L 509.76 660.703522 
L 512.24 659.828113 
L 514.72 658.703763 
L 518.44 656.735464 
L 522.16 654.746414 
L 524.64 653.605514 
L 527.12 652.752862 
L 529.6 652.301162 
L 530.84 652.25727 
L 532.08 652.349279 
L 533.32 652.586434 
L 534.56 652.976445 
L 535.8 653.525372 
L 537.04 654.23753 
L 538.28 655.115419 
L 539.52 656.15968 
L 540.76 657.369072 
L 543.24 660.268977 
L 545.72 663.768597 
L 548.2 667.794511 
L 550.68 672.250216 
L 554.4 679.485735 
L 561.84 694.350211 
L 565.56 701.14717 
L 568.04 705.215107 
L 570.52 708.8382 
L 573 711.983783 
L 575.48 714.648179 
L 577.96 716.856299 
L 580.44 718.659599 
L 582.92 720.132529 
L 585.4 721.367666 
L 594.08 725.363828 
L 596.56 726.846059 
L 599.04 728.639672 
L 601.52 730.800315 
L 604 733.357971 
L 606.48 736.314859 
L 608.96 739.644965 
L 611.44 743.295228 
L 615.16 749.196145 
L 622.6 761.205673 
L 625.08 764.833254 
L 627.56 768.081463 
L 630.04 770.85431 
L 632.52 773.076619 
L 633.76 773.964638 
L 635 774.698456 
L 636.24 775.276272 
L 637.48 775.698159 
L 638.72 775.966063 
L 639.96 776.083791 
L 641.2 776.05696 
L 642.44 775.892926 
L 643.68 775.600692 
L 646.16 774.675111 
L 648.64 773.380069 
L 652.36 771.002649 
L 657.32 767.695087 
L 659.8 766.266993 
L 662.28 765.139396 
L 664.76 764.402236 
L 666 764.20175 
L 667.24 764.12159 
L 668.48 764.165751 
L 669.72 764.336416 
L 670.96 764.633936 
L 672.2 765.056848 
L 674.68 766.264154 
L 677.16 767.912336 
L 679.64 769.931301 
L 682.12 772.231392 
L 687.08 777.253161 
L 690.8 780.951131 
L 693.28 783.188024 
L 695.76 785.141432 
L 698.24 786.747879 
L 700.72 787.968714 
L 703.2 788.792641 
L 705.68 789.236634 
L 708.16 789.345192 
L 710.64 789.187978 
L 714.36 788.657444 
L 718.08 788.106421 
L 720.56 787.92687 
L 723.04 788.034844 
L 725.52 788.53714 
L 726.76 788.965148 
L 728 789.523957 
L 729.24 790.220822 
L 731.72 791.938641 
L 732.96 793.50826 
L 734.2 798.886049 
L 735.44 804.826302 
L 737.92 793.973297 
L 739.16 807.098104 
L 740.4 826.545633 
L 741.64 835.312961 
L 742.88 835.411478 
L 744.12 840.078076 
L 745.36 844.142946 
L 746.6 839.204475 
L 747.84 830.713566 
L 749.08 825.283645 
L 750.32 827.644578 
L 751.56 836.189252 
L 752.8 842.547851 
L 752.8 842.547851 
" style="fill:none;stroke:#000000;stroke-dasharray:7.4,3.2;stroke-dashoffset:0;stroke-width:2;"/>
    <defs>
     <path d="M 0 2.5 
C 0.663008 2.5 1.29895 2.236584 1.767767 1.767767 
C 2.236584 1.29895 2.5 0.663008 2.5 0 
C 2.5 -0.663008 2.236584 -1.29895 1.767767 -1.767767 
C 1.29895 -2.236584 0.663008 -2.5 0 -2.5 
C -0.663008 -2.5 -1.29895 -2.236584 -1.767767 -1.767767 
C -2.236584 -1.29895 -2.5 -0.663008 -2.5 0 
C -2.5 0.663008 -2.236584 1.29895 -1.767767 1.767767 
C -1.29895 2.236584 -0.663008 2.5 0 2.5 
z
" id="me0fe05f0ff" style="stroke:#000000;"/>
    </defs>
    <g clip-path="url(#pb52e14380c)">
     <use style="fill:#ffffff;stroke:#000000;" x="132.8" xlink:href="#me0fe05f0ff" y="816.790426"/>
     <use style="fill:#ffffff;stroke:#000000;" x="194.8" xlink:href="#me0fe05f0ff" y="834.478284"/>
     <use style="fill:#ffffff;stroke:#000000;" x="256.8" xlink:href="#me0fe05f0ff" y="795.879444"/>
     <use style="fill:#ffffff;stroke:#000000;" x="318.8" xlink:href="#me0fe05f0ff" y="713.110844"/>
     <use style="fill:#ffffff;stroke:#000000;" x="380.8" xlink:href="#me0fe05f0ff" y="699.643848"/>
     <use style="fill:#ffffff;stroke:#000000;" x="442.8" xlink:href="#me0fe05f0ff" y="695.357352"/>
     <use style="fill:#ffffff;stroke:#000000;" x="504.8" xlink:href="#me0fe05f0ff" y="661.498227"/>
     <use style="fill:#ffffff;stroke:#000000;" x="566.8" xlink:href="#me0fe05f0ff" y="703.233593"/>
     <use style="fill:#ffffff;stroke:#000000;" x="628.8" xlink:href="#me0fe05f0ff" y="769.532551"/>
     <use style="fill:#ffffff;stroke:#000000;" x="690.8" xlink:href="#me0fe05f0ff" y="780.951131"/>
     <use style="fill:#ffffff;stroke:#000000;" x="752.8" xlink:href="#me0fe05f0ff" y="842.547851"/>
    </g>
   </g>
   <g id="line2d_16">
    <path clip-path="url(#pb52e14380c)" d="M 132.8 930.701068 
L 135.28 928.735615 
L 137.76 927.11474 
L 140.24 925.833138 
L 142.72 924.877173 
L 145.2 924.225397 
L 147.68 923.849257 
L 150.16 923.713993 
L 152.64 923.77968 
L 156.36 924.158168 
L 162.56 925.141136 
L 167.52 925.820497 
L 171.24 926.043784 
L 173.72 925.991067 
L 176.2 925.746319 
L 178.68 925.291245 
L 181.16 924.615365 
L 183.64 923.716359 
L 186.12 922.600198 
L 188.6 921.281052 
L 192.32 918.972021 
L 196.04 916.362403 
L 207.2 908.199674 
L 209.68 906.642261 
L 212.16 905.291364 
L 214.64 904.196208 
L 217.12 903.402133 
L 219.6 902.949365 
L 222.08 902.871925 
L 224.56 903.19667 
L 227.04 903.942527 
L 229.52 905.119903 
L 232 906.730319 
L 234.48 908.766254 
L 236.96 911.211219 
L 239.44 914.040047 
L 241.92 917.219404 
L 244.4 920.708501 
L 248.12 926.417795 
L 253.08 934.629562 
L 263 951.295964 
L 266.72 957.011174 
L 269.2 960.513861 
L 271.68 963.719541 
L 274.16 966.592393 
L 276.64 969.10449 
L 279.12 971.236347 
L 281.6 972.977258 
L 284.08 974.325414 
L 286.56 975.287792 
L 289.04 975.87983 
L 291.52 976.12489 
L 294 976.053518 
L 296.48 975.702538 
L 298.96 975.113979 
L 301.44 974.333886 
L 305.16 972.911721 
L 316.32 968.382163 
L 320.04 967.281967 
L 322.52 966.762419 
L 325 966.438861 
L 327.48 966.323886 
L 329.96 966.421951 
L 332.44 966.729254 
L 334.92 967.233842 
L 337.4 967.915928 
L 341.12 969.210779 
L 346.08 971.253024 
L 352.28 973.813159 
L 356 975.058248 
L 358.48 975.663791 
L 360.96 976.035291 
L 363.44 976.130353 
L 365.92 975.9117 
L 368.4 975.348249 
L 370.88 974.416036 
L 373.36 973.098971 
L 375.84 971.389387 
L 378.32 969.288387 
L 380.8 966.805969 
L 383.28 963.96093 
L 385.76 960.780542 
L 388.24 957.300021 
L 391.96 951.611046 
L 396.92 943.421022 
L 406.84 926.733984 
L 410.56 920.998291 
L 413.04 917.486485 
L 415.52 914.280875 
L 418 911.422809 
L 420.48 908.946242 
L 422.96 906.877014 
L 425.44 905.232318 
L 427.92 904.020394 
L 430.4 903.240441 
L 432.88 902.882745 
L 435.36 902.929042 
L 437.84 903.353079 
L 440.32 904.121374 
L 442.8 905.194156 
L 445.28 906.526449 
L 447.76 908.069289 
L 451.48 910.664942 
L 462.64 918.839957 
L 466.36 921.167884 
L 468.84 922.502348 
L 471.32 923.635299 
L 473.8 924.551925 
L 476.28 925.245597 
L 478.76 925.717977 
L 481.24 925.978903 
L 483.72 926.046067 
L 486.2 925.944466 
L 489.92 925.546276 
L 502.32 923.792263 
L 504.8 923.712417 
L 507.28 923.830155 
L 509.76 924.185764 
L 512.24 924.814457 
L 514.72 925.745314 
L 517.2 927.000378 
L 519.68 928.593929 
L 522.16 930.531949 
L 524.64 932.811802 
L 527.12 935.422135 
L 529.6 938.342995 
L 532.08 941.546174 
L 535.8 946.799814 
L 539.52 952.456708 
L 551.92 971.830669 
L 555.64 977.02414 
L 558.12 980.149438 
L 560.6 982.947935 
L 563.08 985.377473 
L 565.56 987.403068 
L 568.04 988.997715 
L 570.52 990.142978 
L 573 990.829391 
L 574.24 991.000069 
L 575.48 991.056623 
L 577.96 990.833425 
L 580.44 990.177356 
L 582.92 989.114288 
L 585.4 987.677718 
L 587.88 985.907884 
L 590.36 983.850728 
L 592.84 981.556719 
L 596.56 977.789655 
L 610.2 963.442325 
L 613.92 960.112265 
L 616.4 958.155149 
L 618.88 956.433668 
L 621.36 954.960367 
L 623.84 953.739422 
L 626.32 952.766649 
L 628.8 952.029743 
L 631.28 951.508724 
L 633.76 951.176588 
L 637.48 950.958476 
L 642.44 950.978568 
L 648.64 950.994307 
L 652.36 950.721172 
L 654.84 950.331339 
L 657.32 949.731578 
L 659.8 948.890517 
L 662.28 947.783292 
L 664.76 946.392354 
L 667.24 944.708079 
L 669.72 942.729178 
L 672.2 940.462889 
L 674.68 937.924948 
L 677.16 935.139341 
L 680.88 930.568007 
L 685.84 923.959773 
L 694.52 912.148914 
L 698.24 907.493392 
L 700.72 904.668818 
L 703.2 902.129558 
L 705.68 899.923644 
L 708.16 898.093246 
L 710.64 896.673647 
L 713.12 895.692385 
L 714.36 895.372447 
L 715.6 895.168578 
L 716.84 895.081773 
L 718.08 895.112459 
L 719.32 895.260485 
L 720.56 895.525126 
L 723.04 896.398514 
L 725.52 897.715592 
L 728 899.450781 
L 730.48 901.570576 
L 732.96 904.034365 
L 735.44 906.795416 
L 739.16 911.380175 
L 744.12 918.023368 
L 752.8 929.803873 
L 752.8 929.803873 
" style="fill:none;stroke:#da888e;stroke-linecap:square;stroke-width:4;"/>
   </g>
   <g id="line2d_17">
    <path clip-path="url(#pb52e14380c)" d="M 132.8 926.685066 
L 134.04 909.199897 
L 135.28 936.764098 
L 136.52 928.982589 
L 137.76 924.527436 
L 139 918.711046 
L 140.24 925.310685 
L 141.48 924.229498 
L 142.72 925.327077 
L 143.96 925.461107 
L 145.2 924.225397 
L 146.44 923.166091 
L 147.68 920.529884 
L 148.92 923.107043 
L 150.16 930.546054 
L 151.4 923.724383 
L 153.88 923.874281 
L 157.6 924.335562 
L 167.52 925.820497 
L 171.24 926.043784 
L 173.72 925.991067 
L 176.2 925.746319 
L 178.68 925.291245 
L 181.16 924.615365 
L 183.64 923.716359 
L 186.12 922.600198 
L 188.6 921.281052 
L 192.32 918.972021 
L 196.04 916.362403 
L 207.2 908.199674 
L 209.68 906.642261 
L 212.16 905.291364 
L 214.64 904.196208 
L 217.12 903.402133 
L 219.6 902.949365 
L 222.08 902.871925 
L 224.56 903.19667 
L 227.04 903.942527 
L 229.52 905.119903 
L 232 906.730319 
L 234.48 908.766254 
L 236.96 911.211219 
L 239.44 914.040047 
L 241.92 917.219404 
L 244.4 920.708501 
L 248.12 926.417795 
L 253.08 934.629562 
L 263 951.295964 
L 266.72 957.011174 
L 269.2 960.513861 
L 271.68 963.719541 
L 274.16 966.592393 
L 276.64 969.10449 
L 279.12 971.236347 
L 281.6 972.977258 
L 284.08 974.325414 
L 286.56 975.287792 
L 289.04 975.87983 
L 291.52 976.12489 
L 294 976.053518 
L 296.48 975.702538 
L 298.96 975.113979 
L 301.44 974.333886 
L 305.16 972.911721 
L 316.32 968.382163 
L 320.04 967.281967 
L 322.52 966.762419 
L 325 966.438861 
L 327.48 966.323886 
L 329.96 966.421951 
L 332.44 966.729254 
L 334.92 967.233842 
L 337.4 967.915928 
L 341.12 969.210779 
L 346.08 971.253024 
L 352.28 973.813159 
L 356 975.058248 
L 358.48 975.663791 
L 360.96 976.035291 
L 363.44 976.130353 
L 365.92 975.9117 
L 368.4 975.348249 
L 370.88 974.416036 
L 373.36 973.098971 
L 375.84 971.389387 
L 378.32 969.288387 
L 380.8 966.805969 
L 383.28 963.96093 
L 385.76 960.780542 
L 388.24 957.300021 
L 391.96 951.611046 
L 396.92 943.421022 
L 406.84 926.733984 
L 410.56 920.998291 
L 413.04 917.486485 
L 415.52 914.280875 
L 418 911.422809 
L 420.48 908.946242 
L 422.96 906.877014 
L 425.44 905.232318 
L 427.92 904.020394 
L 430.4 903.240441 
L 432.88 902.882745 
L 435.36 902.929042 
L 437.84 903.353079 
L 440.32 904.121374 
L 442.8 905.194156 
L 445.28 906.526449 
L 447.76 908.069289 
L 451.48 910.664942 
L 462.64 918.839957 
L 466.36 921.167884 
L 468.84 922.502348 
L 471.32 923.635299 
L 473.8 924.551925 
L 476.28 925.245597 
L 478.76 925.717977 
L 481.24 925.978903 
L 483.72 926.046067 
L 486.2 925.944466 
L 489.92 925.546276 
L 502.32 923.792263 
L 504.8 923.712417 
L 507.28 923.830155 
L 509.76 924.185764 
L 512.24 924.814457 
L 514.72 925.745314 
L 517.2 927.000378 
L 519.68 928.593929 
L 522.16 930.531949 
L 524.64 932.811802 
L 527.12 935.422135 
L 529.6 938.342995 
L 532.08 941.546174 
L 535.8 946.799814 
L 539.52 952.456708 
L 551.92 971.830669 
L 555.64 977.02414 
L 558.12 980.149438 
L 560.6 982.947935 
L 563.08 985.377473 
L 565.56 987.403068 
L 568.04 988.997715 
L 570.52 990.142978 
L 573 990.829391 
L 574.24 991.000069 
L 575.48 991.056623 
L 577.96 990.833425 
L 580.44 990.177356 
L 582.92 989.114288 
L 585.4 987.677718 
L 587.88 985.907884 
L 590.36 983.850728 
L 592.84 981.556719 
L 596.56 977.789655 
L 610.2 963.442325 
L 613.92 960.112265 
L 616.4 958.155149 
L 618.88 956.433668 
L 621.36 954.960367 
L 623.84 953.739422 
L 626.32 952.766649 
L 628.8 952.029743 
L 631.28 951.508724 
L 633.76 951.176588 
L 637.48 950.958476 
L 642.44 950.978568 
L 648.64 950.994307 
L 652.36 950.721172 
L 654.84 950.331339 
L 657.32 949.731578 
L 659.8 948.890517 
L 662.28 947.783292 
L 664.76 946.392354 
L 667.24 944.708079 
L 669.72 942.729178 
L 672.2 940.462889 
L 674.68 937.924948 
L 677.16 935.139341 
L 680.88 930.568007 
L 685.84 923.959773 
L 694.52 912.148914 
L 698.24 907.493392 
L 700.72 904.668818 
L 703.2 902.129558 
L 705.68 899.923644 
L 708.16 898.093246 
L 710.64 896.673647 
L 713.12 895.692385 
L 714.36 895.372447 
L 715.6 895.168578 
L 716.84 895.081773 
L 718.08 895.112459 
L 719.32 895.260485 
L 720.56 895.525126 
L 723.04 896.398514 
L 725.52 897.715592 
L 728 899.450781 
L 730.48 901.570576 
L 732.96 904.034365 
L 734.2 895.369846 
L 735.44 959.127292 
L 736.68 904.149025 
L 737.92 878.162927 
L 739.16 919.318947 
L 740.4 950.215159 
L 741.64 863.625808 
L 742.88 927.763059 
L 744.12 897.768462 
L 745.36 925.261245 
L 746.6 911.401179 
L 747.84 953.721382 
L 749.08 913.773851 
L 750.32 918.721449 
L 751.56 937.516374 
L 752.8 939.041205 
L 752.8 939.041205 
" style="fill:none;stroke:#000000;stroke-dasharray:7.4,3.2;stroke-dashoffset:0;stroke-width:2;"/>
    <defs>
     <path d="M -0 3.535534 
L 2.12132 0 
L -0 -3.535534 
L -2.12132 -0 
z
" id="ma4849a0741" style="stroke:#000000;stroke-linejoin:miter;"/>
    </defs>
    <g clip-path="url(#pb52e14380c)">
     <use style="fill:#ffffff;stroke:#000000;stroke-linejoin:miter;" x="132.8" xlink:href="#ma4849a0741" y="926.685066"/>
     <use style="fill:#ffffff;stroke:#000000;stroke-linejoin:miter;" x="194.8" xlink:href="#ma4849a0741" y="917.257841"/>
     <use style="fill:#ffffff;stroke:#000000;stroke-linejoin:miter;" x="256.8" xlink:href="#ma4849a0741" y="940.976154"/>
     <use style="fill:#ffffff;stroke:#000000;stroke-linejoin:miter;" x="318.8" xlink:href="#ma4849a0741" y="967.609156"/>
     <use style="fill:#ffffff;stroke:#000000;stroke-linejoin:miter;" x="380.8" xlink:href="#ma4849a0741" y="966.805969"/>
     <use style="fill:#ffffff;stroke:#000000;stroke-linejoin:miter;" x="442.8" xlink:href="#ma4849a0741" y="905.194156"/>
     <use style="fill:#ffffff;stroke:#000000;stroke-linejoin:miter;" x="504.8" xlink:href="#ma4849a0741" y="923.712417"/>
     <use style="fill:#ffffff;stroke:#000000;stroke-linejoin:miter;" x="566.8" xlink:href="#ma4849a0741" y="988.255619"/>
     <use style="fill:#ffffff;stroke:#000000;stroke-linejoin:miter;" x="628.8" xlink:href="#ma4849a0741" y="952.029743"/>
     <use style="fill:#ffffff;stroke:#000000;stroke-linejoin:miter;" x="690.8" xlink:href="#ma4849a0741" y="917.136033"/>
     <use style="fill:#ffffff;stroke:#000000;stroke-linejoin:miter;" x="752.8" xlink:href="#ma4849a0741" y="939.041205"/>
    </g>
   </g>
   <g id="line2d_18">
    <path clip-path="url(#pb52e14380c)" d="M 108 1008 
L 777.6 1008 
" style="fill:none;stroke:#000000;stroke-linecap:square;stroke-width:3;"/>
   </g>
   <g id="legend_1">
    <g id="patch_10">
     <path d="M 354.72 851.231786 
L 399.52 851.231786 
Q 402.32 851.231786 402.32 848.431786 
L 402.32 738.234286 
Q 402.32 735.434286 399.52 735.434286 
L 354.72 735.434286 
Q 351.92 735.434286 351.92 738.234286 
L 351.92 848.431786 
Q 351.92 851.231786 354.72 851.231786 
z
" style="fill:#ffffff;opacity:0.8;"/>
    </g>
    <g id="line2d_19">
     <path d="M 357.52 746.772098 
L 385.52 746.772098 
" style="fill:none;stroke:#8cbfb9;stroke-linecap:square;stroke-width:4;"/>
    </g>
    <g id="line2d_20"/>
    <g id="line2d_21">
     <path d="M 357.52 777.121473 
L 385.52 777.121473 
" style="fill:none;stroke:#000000;stroke-dasharray:7.4,3.2;stroke-dashoffset:0;stroke-width:2;"/>
    </g>
    <g id="line2d_22">
     <defs>
      <path d="M 0 3.75 
C 0.994512 3.75 1.948425 3.354876 2.65165 2.65165 
C 3.354876 1.948425 3.75 0.994512 3.75 0 
C 3.75 -0.994512 3.354876 -1.948425 2.65165 -2.65165 
C 1.948425 -3.354876 0.994512 -3.75 0 -3.75 
C -0.994512 -3.75 -1.948425 -3.354876 -2.65165 -2.65165 
C -3.354876 -1.948425 -3.75 -0.994512 -3.75 0 
C -3.75 0.994512 -3.354876 1.948425 -2.65165 2.65165 
C -1.948425 3.354876 -0.994512 3.75 0 3.75 
z
" id="m1763c1cb83" style="stroke:#000000;"/>
     </defs>
     <g>
      <use style="fill:#ffffff;stroke:#000000;" x="371.52" xlink:href="#m1763c1cb83" y="777.121473"/>
     </g>
    </g>
    <g id="line2d_23">
     <path d="M 357.52 807.470848 
L 385.52 807.470848 
" style="fill:none;stroke:#da888e;stroke-linecap:square;stroke-width:4;"/>
    </g>
    <g id="line2d_24"/>
    <g id="line2d_25">
     <path d="M 357.52 837.820223 
L 385.52 837.820223 
" style="fill:none;stroke:#000000;stroke-dasharray:7.4,3.2;stroke-dashoffset:0;stroke-width:2;"/>
    </g>
    <g id="line2d_26">
     <defs>
      <path d="M -0 5.303301 
L 3.181981 0 
L 0 -5.303301 
L -3.181981 -0 
z
" id="mc2038126d3" style="stroke:#000000;stroke-linejoin:miter;"/>
     </defs>
     <g>
      <use style="fill:#ffffff;stroke:#000000;stroke-linejoin:miter;" x="371.52" xlink:href="#mc2038126d3" y="837.820223"/>
     </g>
    </g>
   </g>
  </g>
 </g>
 <defs>
  <clipPath id="pcafda2e4f6">
   <rect height="124.251429" width="669.6" x="108" y="138.24"/>
  </clipPath>
  <clipPath id="pd142a26796">
   <rect height="124.251429" width="669.6" x="108" y="262.491429"/>
  </clipPath>
  <clipPath id="p80b7695643">
   <rect height="248.502857" width="669.6" x="108" y="386.742857"/>
  </clipPath>
  <clipPath id="pb52e14380c">
   <rect height="372.754286" width="669.6" x="108" y="635.245714"/>
  </clipPath>
 </defs>
</svg>
