<?xml version="1.0" encoding="utf-8" standalone="no"?>
<!DOCTYPE svg PUBLIC "-//W3C//DTD SVG 1.1//EN"
  "http://www.w3.org/Graphics/SVG/1.1/DTD/svg11.dtd">
<!-- Created with matplotlib (https://matplotlib.org/) -->
<svg height="144pt" version="1.1" viewBox="0 0 288 144" width="288pt" xmlns="http://www.w3.org/2000/svg" xmlns:xlink="http://www.w3.org/1999/xlink">
 <defs>
  <style type="text/css">
*{stroke-linecap:butt;stroke-linejoin:round;}
  </style>
 </defs>
 <g id="figure_1">
  <g id="patch_1">
   <path d="M 0 144 
L 288 144 
L 288 0 
L 0 0 
z
" style="fill:#ffffff;"/>
  </g>
  <g id="axes_1">
   <g id="patch_2">
    <path d="M 36 89.76 
L 259.2 89.76 
L 259.2 17.28 
L 36 17.28 
z
" style="fill:#ffffff;"/>
   </g>
   <g id="matplotlib.axis_1">
    <g id="xtick_1"/>
    <g id="xtick_2"/>
    <g id="xtick_3"/>
    <g id="xtick_4"/>
    <g id="xtick_5"/>
    <g id="xtick_6"/>
   </g>
   <g id="matplotlib.axis_2">
    <g id="ytick_1"/>
    <g id="ytick_2"/>
    <g id="ytick_3"/>
   </g>
   <g id="line2d_1">
    <path clip-path="url(#pe8c83c9893)" d="M 44.266667 49.049843 
L 48.4 39.44606 
L 50.88 34.208786 
L 52.946667 30.327573 
L 54.6 27.613334 
L 56.253333 25.295447 
L 57.906667 23.411248 
L 59.146667 22.30059 
L 60.386667 21.459641 
L 61.626667 20.894781 
L 62.866667 20.609583 
L 64.106667 20.604824 
L 65.346667 20.878536 
L 66.586667 21.426085 
L 67.826667 22.240284 
L 69.066667 23.311539 
L 70.306667 24.628011 
L 71.96 26.740482 
L 73.613333 29.226082 
L 75.68 32.792242 
L 78.16 37.622934 
L 81.053333 43.803087 
L 92.213333 68.276731 
L 94.693333 72.912394 
L 96.76 76.351092 
L 98.826667 79.34738 
L 100.48 81.396307 
L 102.133333 83.11579 
L 103.786667 84.491024 
L 105.44 85.510509 
L 106.68 86.036535 
L 107.92 86.355327 
L 109.16 86.465455 
L 110.4 86.366427 
L 111.64 86.058685 
L 112.88 85.543609 
L 114.12 84.823526 
L 115.773333 83.550353 
L 117.426667 81.929263 
L 119.08 79.974092 
L 120.733333 77.702078 
L 122.8 74.448516 
L 124.866667 70.78132 
L 127.346667 65.916813 
L 130.24 59.75234 
L 136.026667 46.714063 
L 139.746667 38.612454 
L 142.226667 33.683142 
L 144.293333 30.010193 
L 146.36 26.832586 
L 148.013333 24.704498 
L 149.666667 22.986045 
L 150.906667 21.985728 
L 152.146667 21.245389 
L 153.386667 20.773964 
L 154.626667 20.577938 
L 155.866667 20.661207 
L 157.106667 21.024977 
L 158.346667 21.66769 
L 159.586667 22.584988 
L 160.826667 23.769706 
L 162.066667 25.211914 
L 163.72 27.513195 
L 165.373333 30.212463 
L 167.44 34.077689 
L 169.92 39.300393 
L 173.226667 46.92309 
L 180.253333 63.364393 
L 182.733333 68.520285 
L 184.8 72.325529 
L 186.453333 74.98156 
L 188.106667 77.250455 
L 189.76 79.101723 
L 191 80.202455 
L 192.24 81.049431 
L 193.48 81.639164 
L 194.72 81.970853 
L 195.96 82.046322 
L 197.2 81.869922 
L 198.44 81.448408 
L 199.68 80.790787 
L 200.92 79.908144 
L 202.573333 78.403905 
L 204.226667 76.558119 
L 206.293333 73.83122 
L 208.36 70.717135 
L 211.253333 65.87795 
L 215.8 57.698882 
L 220.346667 49.632786 
L 223.24 44.934355 
L 225.72 41.335787 
L 227.786667 38.707685 
L 229.853333 36.461617 
L 231.506667 34.962773 
L 233.16 33.74394 
L 234.813333 32.815917 
L 236.466667 32.186686 
L 238.12 31.861545 
L 239.36 31.818968 
L 240.6 31.949208 
L 241.84 32.251662 
L 243.493333 32.920257 
L 245.146667 33.886758 
L 246.8 35.142821 
L 248.453333 36.677271 
L 250.106667 38.475952 
L 250.933333 39.469101 
L 250.933333 39.469101 
" style="fill:none;stroke:#ff6e54;stroke-linecap:square;stroke-width:3;"/>
   </g>
  </g>
  <g id="axes_2">
   <g id="patch_3">
    <path d="M 36 126 
L 259.2 126 
L 259.2 89.76 
L 36 89.76 
z
" style="fill:#ffffff;"/>
   </g>
   <g id="PolyCollection_1">
    <defs>
     <path d="M 44.266667 -32.345 
L 44.266667 -39.895 
L 44.68 -39.96294 
L 45.093333 -40.030818 
L 45.506667 -40.098575 
L 45.92 -40.166148 
L 46.333333 -40.233477 
L 46.746667 -40.300502 
L 47.16 -40.367162 
L 47.573333 -40.433396 
L 47.986667 -40.499147 
L 48.4 -40.564353 
L 48.813333 -40.628957 
L 49.226667 -40.692901 
L 49.64 -40.756127 
L 50.053333 -40.818577 
L 50.466667 -40.880197 
L 50.88 -40.94093 
L 51.293333 -41.000721 
L 51.706667 -41.059518 
L 52.12 -41.117267 
L 52.533333 -41.173915 
L 52.946667 -41.229413 
L 53.36 -41.28371 
L 53.773333 -41.336757 
L 54.186667 -41.388506 
L 54.6 -41.438912 
L 55.013333 -41.487928 
L 55.426667 -41.53551 
L 55.84 -41.581617 
L 56.253333 -41.626205 
L 56.666667 -41.669235 
L 57.08 -41.710669 
L 57.493333 -41.750469 
L 57.906667 -41.788599 
L 58.32 -41.825025 
L 58.733333 -41.859714 
L 59.146667 -41.892634 
L 59.56 -41.923758 
L 59.973333 -41.953055 
L 60.386667 -41.9805 
L 60.8 -42.006069 
L 61.213333 -42.029737 
L 61.626667 -42.051485 
L 62.04 -42.071291 
L 62.453333 -42.08914 
L 62.866667 -42.105013 
L 63.28 -42.118898 
L 63.693333 -42.130782 
L 64.106667 -42.140653 
L 64.52 -42.148504 
L 64.933333 -42.154326 
L 65.346667 -42.158115 
L 65.76 -42.159868 
L 66.173333 -42.159582 
L 66.586667 -42.157259 
L 67 -42.152899 
L 67.413333 -42.146508 
L 67.826667 -42.13809 
L 68.24 -42.127654 
L 68.653333 -42.115208 
L 69.066667 -42.100765 
L 69.48 -42.084336 
L 69.893333 -42.065937 
L 70.306667 -42.045585 
L 70.72 -42.023297 
L 71.133333 -41.999094 
L 71.546667 -41.972997 
L 71.96 -41.94503 
L 72.373333 -41.915218 
L 72.786667 -41.883589 
L 73.2 -41.850169 
L 73.613333 -41.81499 
L 74.026667 -41.778084 
L 74.44 -41.739482 
L 74.853333 -41.699221 
L 75.266667 -41.657336 
L 75.68 -41.613865 
L 76.093333 -41.568847 
L 76.506667 -41.522323 
L 76.92 -41.474334 
L 77.333333 -41.424924 
L 77.746667 -41.374137 
L 78.16 -41.322019 
L 78.573333 -41.268617 
L 78.986667 -41.213979 
L 79.4 -41.158154 
L 79.813333 -41.101192 
L 80.226667 -41.043144 
L 80.64 -40.984063 
L 81.053333 -40.924002 
L 81.466667 -40.863015 
L 81.88 -40.801157 
L 82.293333 -40.738484 
L 82.706667 -40.675051 
L 83.12 -40.610917 
L 83.533333 -40.546138 
L 83.946667 -40.480773 
L 84.36 -40.414881 
L 84.773333 -40.348521 
L 85.186667 -40.281753 
L 85.6 -40.214637 
L 86.013333 -40.147233 
L 86.426667 -40.079602 
L 86.84 -40.011806 
L 87.253333 -39.943904 
L 87.666667 -39.875958 
L 88.08 -39.808029 
L 88.493333 -39.740178 
L 88.906667 -39.672467 
L 89.32 -39.604956 
L 89.733333 -39.537706 
L 90.146667 -39.470778 
L 90.56 -39.404231 
L 90.973333 -39.338126 
L 91.386667 -39.272522 
L 91.8 -39.207478 
L 92.213333 -39.143054 
L 92.626667 -39.079305 
L 93.04 -39.016291 
L 93.453333 -38.954068 
L 93.866667 -38.892691 
L 94.28 -38.832217 
L 94.693333 -38.772698 
L 95.106667 -38.71419 
L 95.52 -38.656745 
L 95.933333 -38.600414 
L 96.346667 -38.545247 
L 96.76 -38.491296 
L 97.173333 -38.438608 
L 97.586667 -38.38723 
L 98 -38.33721 
L 98.413333 -38.288591 
L 98.826667 -38.241418 
L 99.24 -38.195733 
L 99.653333 -38.151577 
L 100.066667 -38.10899 
L 100.48 -38.068011 
L 100.893333 -38.028675 
L 101.306667 -37.99102 
L 101.72 -37.955077 
L 102.133333 -37.920881 
L 102.546667 -37.888461 
L 102.96 -37.857847 
L 103.373333 -37.829066 
L 103.786667 -37.802144 
L 104.2 -37.777106 
L 104.613333 -37.753974 
L 105.026667 -37.732768 
L 105.44 -37.713508 
L 105.853333 -37.696212 
L 106.266667 -37.680894 
L 106.68 -37.667569 
L 107.093333 -37.656249 
L 107.506667 -37.646943 
L 107.92 -37.63966 
L 108.333333 -37.634407 
L 108.746667 -37.631188 
L 109.16 -37.630006 
L 109.573333 -37.630863 
L 109.986667 -37.633758 
L 110.4 -37.638687 
L 110.813333 -37.645647 
L 111.226667 -37.654631 
L 111.64 -37.665632 
L 112.053333 -37.678638 
L 112.466667 -37.69364 
L 112.88 -37.710622 
L 113.293333 -37.72957 
L 113.706667 -37.750467 
L 114.12 -37.773294 
L 114.533333 -37.79803 
L 114.946667 -37.824653 
L 115.36 -37.85314 
L 115.773333 -37.883464 
L 116.186667 -37.915598 
L 116.6 -37.949513 
L 117.013333 -37.98518 
L 117.426667 -38.022565 
L 117.84 -38.061635 
L 118.253333 -38.102355 
L 118.666667 -38.144688 
L 119.08 -38.188597 
L 119.493333 -38.234041 
L 119.906667 -38.28098 
L 120.32 -38.329371 
L 120.733333 -38.379172 
L 121.146667 -38.430336 
L 121.56 -38.482819 
L 121.973333 -38.536572 
L 122.386667 -38.591548 
L 122.8 -38.647697 
L 123.213333 -38.704969 
L 123.626667 -38.763311 
L 124.04 -38.822672 
L 124.453333 -38.882998 
L 124.866667 -38.944234 
L 125.28 -39.006327 
L 125.693333 -39.069219 
L 126.106667 -39.132854 
L 126.52 -39.197175 
L 126.933333 -39.262124 
L 127.346667 -39.327642 
L 127.76 -39.393672 
L 128.173333 -39.460152 
L 128.586667 -39.527024 
L 129 -39.594226 
L 129.413333 -39.6617 
L 129.826667 -39.729383 
L 130.24 -39.797216 
L 130.653333 -39.865136 
L 131.066667 -39.933083 
L 131.48 -40.000997 
L 131.893333 -40.068814 
L 132.306667 -40.136475 
L 132.72 -40.203919 
L 133.133333 -40.271085 
L 133.546667 -40.337913 
L 133.96 -40.404342 
L 134.373333 -40.470312 
L 134.786667 -40.535765 
L 135.2 -40.600641 
L 135.613333 -40.664882 
L 136.026667 -40.728431 
L 136.44 -40.791229 
L 136.853333 -40.85322 
L 137.266667 -40.91435 
L 137.68 -40.974562 
L 138.093333 -41.033802 
L 138.506667 -41.092018 
L 138.92 -41.149156 
L 139.333333 -41.205166 
L 139.746667 -41.259997 
L 140.16 -41.313599 
L 140.573333 -41.365925 
L 140.986667 -41.416927 
L 141.4 -41.466559 
L 141.813333 -41.514777 
L 142.226667 -41.561537 
L 142.64 -41.606798 
L 143.053333 -41.650518 
L 143.466667 -41.692658 
L 143.88 -41.73318 
L 144.293333 -41.772048 
L 144.706667 -41.809227 
L 145.12 -41.844683 
L 145.533333 -41.878385 
L 145.946667 -41.910302 
L 146.36 -41.940405 
L 146.773333 -41.968667 
L 147.186667 -41.995064 
L 147.6 -42.01957 
L 148.013333 -42.042164 
L 148.426667 -42.062826 
L 148.84 -42.081538 
L 149.253333 -42.098281 
L 149.666667 -42.113042 
L 150.08 -42.125806 
L 150.493333 -42.136563 
L 150.906667 -42.145303 
L 151.32 -42.152017 
L 151.733333 -42.156701 
L 152.146667 -42.159349 
L 152.56 -42.159959 
L 152.973333 -42.158531 
L 153.386667 -42.155066 
L 153.8 -42.149567 
L 154.213333 -42.142039 
L 154.626667 -42.132489 
L 155.04 -42.120925 
L 155.453333 -42.107358 
L 155.866667 -42.0918 
L 156.28 -42.074266 
L 156.693333 -42.05477 
L 157.106667 -42.03333 
L 157.52 -42.009966 
L 157.933333 -41.984699 
L 158.346667 -41.957551 
L 158.76 -41.928547 
L 159.173333 -41.897712 
L 159.586667 -41.865076 
L 160 -41.830667 
L 160.413333 -41.794515 
L 160.826667 -41.756654 
L 161.24 -41.717118 
L 161.653333 -41.675942 
L 162.066667 -41.633164 
L 162.48 -41.588821 
L 162.893333 -41.542954 
L 163.306667 -41.495603 
L 163.72 -41.446813 
L 164.133333 -41.396625 
L 164.546667 -41.345087 
L 164.96 -41.292243 
L 165.373333 -41.238142 
L 165.786667 -41.182832 
L 166.2 -41.126364 
L 166.613333 -41.068787 
L 167.026667 -41.010154 
L 167.44 -40.950517 
L 167.853333 -40.88993 
L 168.266667 -40.828448 
L 168.68 -40.766126 
L 169.093333 -40.70302 
L 169.506667 -40.639187 
L 169.92 -40.574684 
L 170.333333 -40.50957 
L 170.746667 -40.443902 
L 171.16 -40.377741 
L 171.573333 -40.311145 
L 171.986667 -40.244174 
L 172.4 -40.176889 
L 172.813333 -40.109351 
L 173.226667 -40.041619 
L 173.64 -39.973756 
L 174.053333 -39.905822 
L 174.466667 -39.837878 
L 174.88 -39.769986 
L 175.293333 -39.702206 
L 175.706667 -39.634599 
L 176.12 -39.567227 
L 176.533333 -39.50015 
L 176.946667 -39.433428 
L 177.36 -39.367122 
L 177.773333 -39.30129 
L 178.186667 -39.235993 
L 178.6 -39.171289 
L 179.013333 -39.107236 
L 179.426667 -39.043892 
L 179.84 -38.981315 
L 180.253333 -38.919559 
L 180.666667 -38.858681 
L 181.08 -38.798736 
L 181.493333 -38.739777 
L 181.906667 -38.681858 
L 182.32 -38.625031 
L 182.733333 -38.569347 
L 183.146667 -38.514856 
L 183.56 -38.461606 
L 183.973333 -38.409647 
L 184.386667 -38.359024 
L 184.8 -38.309784 
L 185.213333 -38.26197 
L 185.626667 -38.215626 
L 186.04 -38.170793 
L 186.453333 -38.127512 
L 186.866667 -38.085821 
L 187.28 -38.045759 
L 187.693333 -38.007361 
L 188.106667 -37.970661 
L 188.52 -37.935694 
L 188.933333 -37.902489 
L 189.346667 -37.871078 
L 189.76 -37.841488 
L 190.173333 -37.813746 
L 190.586667 -37.787877 
L 191 -37.763904 
L 191.413333 -37.74185 
L 191.826667 -37.721732 
L 192.24 -37.703571 
L 192.653333 -37.687382 
L 193.066667 -37.673179 
L 193.48 -37.660976 
L 193.893333 -37.650784 
L 194.306667 -37.642611 
L 194.72 -37.636465 
L 195.133333 -37.632352 
L 195.546667 -37.630275 
L 195.96 -37.630236 
L 196.373333 -37.632235 
L 196.786667 -37.63627 
L 197.2 -37.642338 
L 197.613333 -37.650434 
L 198.026667 -37.660549 
L 198.44 -37.672675 
L 198.853333 -37.686802 
L 199.266667 -37.702915 
L 199.68 -37.721001 
L 200.093333 -37.741044 
L 200.506667 -37.763025 
L 200.92 -37.786924 
L 201.333333 -37.812721 
L 201.746667 -37.840392 
L 202.16 -37.869911 
L 202.573333 -37.901253 
L 202.986667 -37.93439 
L 203.4 -37.96929 
L 203.813333 -38.005924 
L 204.226667 -38.044258 
L 204.64 -38.084257 
L 205.053333 -38.125886 
L 205.466667 -38.169107 
L 205.88 -38.213881 
L 206.293333 -38.260168 
L 206.706667 -38.307927 
L 207.12 -38.357113 
L 207.533333 -38.407684 
L 207.946667 -38.459593 
L 208.36 -38.512794 
L 208.773333 -38.567238 
L 209.186667 -38.622878 
L 209.6 -38.679662 
L 210.013333 -38.73754 
L 210.426667 -38.79646 
L 210.84 -38.856369 
L 211.253333 -38.917212 
L 211.666667 -38.978935 
L 212.08 -39.041482 
L 212.493333 -39.104798 
L 212.906667 -39.168824 
L 213.32 -39.233505 
L 213.733333 -39.29878 
L 214.146667 -39.364592 
L 214.56 -39.430881 
L 214.973333 -39.497588 
L 215.386667 -39.564653 
L 215.8 -39.632015 
L 216.213333 -39.699614 
L 216.626667 -39.767388 
L 217.04 -39.835277 
L 217.453333 -39.903221 
L 217.866667 -39.971156 
L 218.28 -40.039023 
L 218.693333 -40.106761 
L 219.106667 -40.174308 
L 219.52 -40.241603 
L 219.933333 -40.308587 
L 220.346667 -40.375199 
L 220.76 -40.441378 
L 221.173333 -40.507065 
L 221.586667 -40.572202 
L 222 -40.63673 
L 222.413333 -40.700589 
L 222.826667 -40.763724 
L 223.24 -40.826077 
L 223.653333 -40.887593 
L 224.066667 -40.948215 
L 224.48 -41.007889 
L 224.893333 -41.066561 
L 225.306667 -41.124179 
L 225.72 -41.180691 
L 226.133333 -41.236047 
L 226.546667 -41.290195 
L 226.96 -41.343087 
L 227.373333 -41.394677 
L 227.786667 -41.444917 
L 228.2 -41.493761 
L 228.613333 -41.541168 
L 229.026667 -41.587092 
L 229.44 -41.631494 
L 229.853333 -41.674334 
L 230.266667 -41.715572 
L 230.68 -41.755171 
L 231.093333 -41.793097 
L 231.506667 -41.829314 
L 231.92 -41.863791 
L 232.333333 -41.896496 
L 232.746667 -41.9274 
L 233.16 -41.956474 
L 233.573333 -41.983694 
L 233.986667 -42.009033 
L 234.4 -42.032471 
L 234.813333 -42.053984 
L 235.226667 -42.073555 
L 235.64 -42.091165 
L 236.053333 -42.106799 
L 236.466667 -42.120443 
L 236.88 -42.132083 
L 237.293333 -42.141711 
L 237.706667 -42.149316 
L 238.12 -42.154893 
L 238.533333 -42.158436 
L 238.946667 -42.159942 
L 239.36 -42.15941 
L 239.773333 -42.15684 
L 240.186667 -42.152234 
L 240.6 -42.145597 
L 241.013333 -42.136935 
L 241.426667 -42.126255 
L 241.84 -42.113567 
L 242.253333 -42.098883 
L 242.666667 -42.082215 
L 243.08 -42.063579 
L 243.493333 -42.042991 
L 243.906667 -42.02047 
L 244.32 -41.996037 
L 244.733333 -41.969713 
L 245.146667 -41.941521 
L 245.56 -41.911488 
L 245.973333 -41.87964 
L 246.386667 -41.846006 
L 246.8 -41.810617 
L 247.213333 -41.773503 
L 247.626667 -41.734699 
L 248.04 -41.694239 
L 248.453333 -41.65216 
L 248.866667 -41.6085 
L 249.28 -41.563298 
L 249.693333 -41.516594 
L 250.106667 -41.468431 
L 250.52 -41.418852 
L 250.933333 -41.367902 
L 250.933333 -33.817902 
L 250.933333 -33.817902 
L 250.52 -33.868852 
L 250.106667 -33.918431 
L 249.693333 -33.966594 
L 249.28 -34.013298 
L 248.866667 -34.0585 
L 248.453333 -34.10216 
L 248.04 -34.144239 
L 247.626667 -34.184699 
L 247.213333 -34.223503 
L 246.8 -34.260617 
L 246.386667 -34.296006 
L 245.973333 -34.32964 
L 245.56 -34.361488 
L 245.146667 -34.391521 
L 244.733333 -34.419713 
L 244.32 -34.446037 
L 243.906667 -34.47047 
L 243.493333 -34.492991 
L 243.08 -34.513579 
L 242.666667 -34.532215 
L 242.253333 -34.548883 
L 241.84 -34.563567 
L 241.426667 -34.576255 
L 241.013333 -34.586935 
L 240.6 -34.595597 
L 240.186667 -34.602234 
L 239.773333 -34.60684 
L 239.36 -34.60941 
L 238.946667 -34.609942 
L 238.533333 -34.608436 
L 238.12 -34.604893 
L 237.706667 -34.599316 
L 237.293333 -34.591711 
L 236.88 -34.582083 
L 236.466667 -34.570443 
L 236.053333 -34.556799 
L 235.64 -34.541165 
L 235.226667 -34.523555 
L 234.813333 -34.503984 
L 234.4 -34.482471 
L 233.986667 -34.459033 
L 233.573333 -34.433694 
L 233.16 -34.406474 
L 232.746667 -34.3774 
L 232.333333 -34.346496 
L 231.92 -34.313791 
L 231.506667 -34.279314 
L 231.093333 -34.243097 
L 230.68 -34.205171 
L 230.266667 -34.165572 
L 229.853333 -34.124334 
L 229.44 -34.081494 
L 229.026667 -34.037092 
L 228.613333 -33.991168 
L 228.2 -33.943761 
L 227.786667 -33.894917 
L 227.373333 -33.844677 
L 226.96 -33.793087 
L 226.546667 -33.740195 
L 226.133333 -33.686047 
L 225.72 -33.630691 
L 225.306667 -33.574179 
L 224.893333 -33.516561 
L 224.48 -33.457889 
L 224.066667 -33.398215 
L 223.653333 -33.337593 
L 223.24 -33.276077 
L 222.826667 -33.213724 
L 222.413333 -33.150589 
L 222 -33.08673 
L 221.586667 -33.022202 
L 221.173333 -32.957065 
L 220.76 -32.891378 
L 220.346667 -32.825199 
L 219.933333 -32.758587 
L 219.52 -32.691603 
L 219.106667 -32.624308 
L 218.693333 -32.556761 
L 218.28 -32.489023 
L 217.866667 -32.421156 
L 217.453333 -32.353221 
L 217.04 -32.285277 
L 216.626667 -32.217388 
L 216.213333 -32.149614 
L 215.8 -32.082015 
L 215.386667 -32.014653 
L 214.973333 -31.947588 
L 214.56 -31.880881 
L 214.146667 -31.814592 
L 213.733333 -31.74878 
L 213.32 -31.683505 
L 212.906667 -31.618824 
L 212.493333 -31.554798 
L 212.08 -31.491482 
L 211.666667 -31.428935 
L 211.253333 -31.367212 
L 210.84 -31.306369 
L 210.426667 -31.24646 
L 210.013333 -31.18754 
L 209.6 -31.129662 
L 209.186667 -31.072878 
L 208.773333 -31.017238 
L 208.36 -30.962794 
L 207.946667 -30.909593 
L 207.533333 -30.857684 
L 207.12 -30.807113 
L 206.706667 -30.757927 
L 206.293333 -30.710168 
L 205.88 -30.663881 
L 205.466667 -30.619107 
L 205.053333 -30.575886 
L 204.64 -30.534257 
L 204.226667 -30.494258 
L 203.813333 -30.455924 
L 203.4 -30.41929 
L 202.986667 -30.38439 
L 202.573333 -30.351253 
L 202.16 -30.319911 
L 201.746667 -30.290392 
L 201.333333 -30.262721 
L 200.92 -30.236924 
L 200.506667 -30.213025 
L 200.093333 -30.191044 
L 199.68 -30.171001 
L 199.266667 -30.152915 
L 198.853333 -30.136802 
L 198.44 -30.122675 
L 198.026667 -30.110549 
L 197.613333 -30.100434 
L 197.2 -30.092338 
L 196.786667 -30.08627 
L 196.373333 -30.082235 
L 195.96 -30.080236 
L 195.546667 -30.080275 
L 195.133333 -30.082352 
L 194.72 -30.086465 
L 194.306667 -30.092611 
L 193.893333 -30.100784 
L 193.48 -30.110976 
L 193.066667 -30.123179 
L 192.653333 -30.137382 
L 192.24 -30.153571 
L 191.826667 -30.171732 
L 191.413333 -30.19185 
L 191 -30.213904 
L 190.586667 -30.237877 
L 190.173333 -30.263746 
L 189.76 -30.291488 
L 189.346667 -30.321078 
L 188.933333 -30.352489 
L 188.52 -30.385694 
L 188.106667 -30.420661 
L 187.693333 -30.457361 
L 187.28 -30.495759 
L 186.866667 -30.535821 
L 186.453333 -30.577512 
L 186.04 -30.620793 
L 185.626667 -30.665626 
L 185.213333 -30.71197 
L 184.8 -30.759784 
L 184.386667 -30.809024 
L 183.973333 -30.859647 
L 183.56 -30.911606 
L 183.146667 -30.964856 
L 182.733333 -31.019347 
L 182.32 -31.075031 
L 181.906667 -31.131858 
L 181.493333 -31.189777 
L 181.08 -31.248736 
L 180.666667 -31.308681 
L 180.253333 -31.369559 
L 179.84 -31.431315 
L 179.426667 -31.493892 
L 179.013333 -31.557236 
L 178.6 -31.621289 
L 178.186667 -31.685993 
L 177.773333 -31.75129 
L 177.36 -31.817122 
L 176.946667 -31.883428 
L 176.533333 -31.95015 
L 176.12 -32.017227 
L 175.706667 -32.084599 
L 175.293333 -32.152206 
L 174.88 -32.219986 
L 174.466667 -32.287878 
L 174.053333 -32.355822 
L 173.64 -32.423756 
L 173.226667 -32.491619 
L 172.813333 -32.559351 
L 172.4 -32.626889 
L 171.986667 -32.694174 
L 171.573333 -32.761145 
L 171.16 -32.827741 
L 170.746667 -32.893902 
L 170.333333 -32.95957 
L 169.92 -33.024684 
L 169.506667 -33.089187 
L 169.093333 -33.15302 
L 168.68 -33.216126 
L 168.266667 -33.278448 
L 167.853333 -33.33993 
L 167.44 -33.400517 
L 167.026667 -33.460154 
L 166.613333 -33.518787 
L 166.2 -33.576364 
L 165.786667 -33.632832 
L 165.373333 -33.688142 
L 164.96 -33.742243 
L 164.546667 -33.795087 
L 164.133333 -33.846625 
L 163.72 -33.896813 
L 163.306667 -33.945603 
L 162.893333 -33.992954 
L 162.48 -34.038821 
L 162.066667 -34.083164 
L 161.653333 -34.125942 
L 161.24 -34.167118 
L 160.826667 -34.206654 
L 160.413333 -34.244515 
L 160 -34.280667 
L 159.586667 -34.315076 
L 159.173333 -34.347712 
L 158.76 -34.378547 
L 158.346667 -34.407551 
L 157.933333 -34.434699 
L 157.52 -34.459966 
L 157.106667 -34.48333 
L 156.693333 -34.50477 
L 156.28 -34.524266 
L 155.866667 -34.5418 
L 155.453333 -34.557358 
L 155.04 -34.570925 
L 154.626667 -34.582489 
L 154.213333 -34.592039 
L 153.8 -34.599567 
L 153.386667 -34.605066 
L 152.973333 -34.608531 
L 152.56 -34.609959 
L 152.146667 -34.609349 
L 151.733333 -34.606701 
L 151.32 -34.602017 
L 150.906667 -34.595303 
L 150.493333 -34.586563 
L 150.08 -34.575806 
L 149.666667 -34.563042 
L 149.253333 -34.548281 
L 148.84 -34.531538 
L 148.426667 -34.512826 
L 148.013333 -34.492164 
L 147.6 -34.46957 
L 147.186667 -34.445064 
L 146.773333 -34.418667 
L 146.36 -34.390405 
L 145.946667 -34.360302 
L 145.533333 -34.328385 
L 145.12 -34.294683 
L 144.706667 -34.259227 
L 144.293333 -34.222048 
L 143.88 -34.18318 
L 143.466667 -34.142658 
L 143.053333 -34.100518 
L 142.64 -34.056798 
L 142.226667 -34.011537 
L 141.813333 -33.964777 
L 141.4 -33.916559 
L 140.986667 -33.866927 
L 140.573333 -33.815925 
L 140.16 -33.763599 
L 139.746667 -33.709997 
L 139.333333 -33.655166 
L 138.92 -33.599156 
L 138.506667 -33.542018 
L 138.093333 -33.483802 
L 137.68 -33.424562 
L 137.266667 -33.36435 
L 136.853333 -33.30322 
L 136.44 -33.241229 
L 136.026667 -33.178431 
L 135.613333 -33.114882 
L 135.2 -33.050641 
L 134.786667 -32.985765 
L 134.373333 -32.920312 
L 133.96 -32.854342 
L 133.546667 -32.787913 
L 133.133333 -32.721085 
L 132.72 -32.653919 
L 132.306667 -32.586475 
L 131.893333 -32.518814 
L 131.48 -32.450997 
L 131.066667 -32.383083 
L 130.653333 -32.315136 
L 130.24 -32.247216 
L 129.826667 -32.179383 
L 129.413333 -32.1117 
L 129 -32.044226 
L 128.586667 -31.977024 
L 128.173333 -31.910152 
L 127.76 -31.843672 
L 127.346667 -31.777642 
L 126.933333 -31.712124 
L 126.52 -31.647175 
L 126.106667 -31.582854 
L 125.693333 -31.519219 
L 125.28 -31.456327 
L 124.866667 -31.394234 
L 124.453333 -31.332998 
L 124.04 -31.272672 
L 123.626667 -31.213311 
L 123.213333 -31.154969 
L 122.8 -31.097697 
L 122.386667 -31.041548 
L 121.973333 -30.986572 
L 121.56 -30.932819 
L 121.146667 -30.880336 
L 120.733333 -30.829172 
L 120.32 -30.779371 
L 119.906667 -30.73098 
L 119.493333 -30.684041 
L 119.08 -30.638597 
L 118.666667 -30.594688 
L 118.253333 -30.552355 
L 117.84 -30.511635 
L 117.426667 -30.472565 
L 117.013333 -30.43518 
L 116.6 -30.399513 
L 116.186667 -30.365598 
L 115.773333 -30.333464 
L 115.36 -30.30314 
L 114.946667 -30.274653 
L 114.533333 -30.24803 
L 114.12 -30.223294 
L 113.706667 -30.200467 
L 113.293333 -30.17957 
L 112.88 -30.160622 
L 112.466667 -30.14364 
L 112.053333 -30.128638 
L 111.64 -30.115632 
L 111.226667 -30.104631 
L 110.813333 -30.095647 
L 110.4 -30.088687 
L 109.986667 -30.083758 
L 109.573333 -30.080863 
L 109.16 -30.080006 
L 108.746667 -30.081188 
L 108.333333 -30.084407 
L 107.92 -30.08966 
L 107.506667 -30.096943 
L 107.093333 -30.106249 
L 106.68 -30.117569 
L 106.266667 -30.130894 
L 105.853333 -30.146212 
L 105.44 -30.163508 
L 105.026667 -30.182768 
L 104.613333 -30.203974 
L 104.2 -30.227106 
L 103.786667 -30.252144 
L 103.373333 -30.279066 
L 102.96 -30.307847 
L 102.546667 -30.338461 
L 102.133333 -30.370881 
L 101.72 -30.405077 
L 101.306667 -30.44102 
L 100.893333 -30.478675 
L 100.48 -30.518011 
L 100.066667 -30.55899 
L 99.653333 -30.601577 
L 99.24 -30.645733 
L 98.826667 -30.691418 
L 98.413333 -30.738591 
L 98 -30.78721 
L 97.586667 -30.83723 
L 97.173333 -30.888608 
L 96.76 -30.941296 
L 96.346667 -30.995247 
L 95.933333 -31.050414 
L 95.52 -31.106745 
L 95.106667 -31.16419 
L 94.693333 -31.222698 
L 94.28 -31.282217 
L 93.866667 -31.342691 
L 93.453333 -31.404068 
L 93.04 -31.466291 
L 92.626667 -31.529305 
L 92.213333 -31.593054 
L 91.8 -31.657478 
L 91.386667 -31.722522 
L 90.973333 -31.788126 
L 90.56 -31.854231 
L 90.146667 -31.920778 
L 89.733333 -31.987706 
L 89.32 -32.054956 
L 88.906667 -32.122467 
L 88.493333 -32.190178 
L 88.08 -32.258029 
L 87.666667 -32.325958 
L 87.253333 -32.393904 
L 86.84 -32.461806 
L 86.426667 -32.529602 
L 86.013333 -32.597233 
L 85.6 -32.664637 
L 85.186667 -32.731753 
L 84.773333 -32.798521 
L 84.36 -32.864881 
L 83.946667 -32.930773 
L 83.533333 -32.996138 
L 83.12 -33.060917 
L 82.706667 -33.125051 
L 82.293333 -33.188484 
L 81.88 -33.251157 
L 81.466667 -33.313015 
L 81.053333 -33.374002 
L 80.64 -33.434063 
L 80.226667 -33.493144 
L 79.813333 -33.551192 
L 79.4 -33.608154 
L 78.986667 -33.663979 
L 78.573333 -33.718617 
L 78.16 -33.772019 
L 77.746667 -33.824137 
L 77.333333 -33.874924 
L 76.92 -33.924334 
L 76.506667 -33.972323 
L 76.093333 -34.018847 
L 75.68 -34.063865 
L 75.266667 -34.107336 
L 74.853333 -34.149221 
L 74.44 -34.189482 
L 74.026667 -34.228084 
L 73.613333 -34.26499 
L 73.2 -34.300169 
L 72.786667 -34.333589 
L 72.373333 -34.365218 
L 71.96 -34.39503 
L 71.546667 -34.422997 
L 71.133333 -34.449094 
L 70.72 -34.473297 
L 70.306667 -34.495585 
L 69.893333 -34.515937 
L 69.48 -34.534336 
L 69.066667 -34.550765 
L 68.653333 -34.565208 
L 68.24 -34.577654 
L 67.826667 -34.58809 
L 67.413333 -34.596508 
L 67 -34.602899 
L 66.586667 -34.607259 
L 66.173333 -34.609582 
L 65.76 -34.609868 
L 65.346667 -34.608115 
L 64.933333 -34.604326 
L 64.52 -34.598504 
L 64.106667 -34.590653 
L 63.693333 -34.580782 
L 63.28 -34.568898 
L 62.866667 -34.555013 
L 62.453333 -34.53914 
L 62.04 -34.521291 
L 61.626667 -34.501485 
L 61.213333 -34.479737 
L 60.8 -34.456069 
L 60.386667 -34.4305 
L 59.973333 -34.403055 
L 59.56 -34.373758 
L 59.146667 -34.342634 
L 58.733333 -34.309714 
L 58.32 -34.275025 
L 57.906667 -34.238599 
L 57.493333 -34.200469 
L 57.08 -34.160669 
L 56.666667 -34.119235 
L 56.253333 -34.076205 
L 55.84 -34.031617 
L 55.426667 -33.98551 
L 55.013333 -33.937928 
L 54.6 -33.888912 
L 54.186667 -33.838506 
L 53.773333 -33.786757 
L 53.36 -33.73371 
L 52.946667 -33.679413 
L 52.533333 -33.623915 
L 52.12 -33.567267 
L 51.706667 -33.509518 
L 51.293333 -33.450721 
L 50.88 -33.39093 
L 50.466667 -33.330197 
L 50.053333 -33.268577 
L 49.64 -33.206127 
L 49.226667 -33.142901 
L 48.813333 -33.078957 
L 48.4 -33.014353 
L 47.986667 -32.949147 
L 47.573333 -32.883396 
L 47.16 -32.817162 
L 46.746667 -32.750502 
L 46.333333 -32.683477 
L 45.92 -32.616148 
L 45.506667 -32.548575 
L 45.093333 -32.480818 
L 44.68 -32.41294 
L 44.266667 -32.345 
z
" id="md293a1aa33" style="stroke:#ff6e54;stroke-opacity:0.8;"/>
    </defs>
    <g clip-path="url(#p5cca7bcce4)">
     <use style="fill:#ff6e54;fill-opacity:0.8;stroke:#ff6e54;stroke-opacity:0.8;" x="0" xlink:href="#md293a1aa33" y="144"/>
    </g>
   </g>
   <g id="patch_4">
    <path clip-path="url(#p5cca7bcce4)" d="M 44.266667 107.88 
L 44.266667 104.105 
L 46.746667 104.105 
L 46.746667 102.595 
L 41.786667 101.085 
L 38.48 101.085 
L 38.48 114.675 
L 41.786667 114.675 
L 46.746667 113.165 
L 46.746667 111.655 
L 44.266667 111.655 
z
" style="fill:#808080;opacity:0.8;stroke:#000000;stroke-linejoin:miter;"/>
   </g>
   <g id="patch_5">
    <path clip-path="url(#p5cca7bcce4)" d="M 250.933333 106.407098 
L 250.933333 102.632098 
L 248.453333 102.632098 
L 248.453333 101.122098 
L 253.413333 99.612098 
L 256.72 99.612098 
L 256.72 113.202098 
L 253.413333 113.202098 
L 248.453333 111.692098 
L 248.453333 110.182098 
L 250.933333 110.182098 
z
" style="fill:#808080;opacity:0.8;stroke:#000000;stroke-linejoin:miter;"/>
   </g>
   <g id="matplotlib.axis_3">
    <g id="xtick_7"/>
    <g id="xtick_8"/>
    <g id="xtick_9"/>
    <g id="xtick_10"/>
    <g id="xtick_11"/>
    <g id="xtick_12"/>
   </g>
   <g id="matplotlib.axis_4">
    <g id="ytick_4"/>
    <g id="ytick_5"/>
    <g id="ytick_6"/>
   </g>
   <g id="line2d_2">
    <path clip-path="url(#p5cca7bcce4)" d="M 44.266667 107.88 
L 53.36 106.49129 
L 58.32 105.949975 
L 62.866667 105.669987 
L 67 105.622101 
L 71.546667 105.802003 
L 76.093333 106.206153 
L 81.466667 106.911985 
L 92.213333 108.631946 
L 98.413333 109.486409 
L 103.373333 109.945934 
L 107.92 110.13534 
L 112.053333 110.096362 
L 116.6 109.825487 
L 121.56 109.292181 
L 127.76 108.381328 
L 140.986667 106.358073 
L 145.946667 105.864698 
L 150.493333 105.638437 
L 154.626667 105.642511 
L 159.173333 105.877288 
L 164.133333 106.378375 
L 169.92 107.200316 
L 185.213333 109.51303 
L 190.173333 109.961254 
L 194.72 110.138535 
L 198.853333 110.088198 
L 203.4 109.80571 
L 208.36 109.262206 
L 214.56 108.344119 
L 227.373333 106.380323 
L 232.333333 105.878504 
L 236.88 105.642917 
L 241.013333 105.638065 
L 245.56 105.863512 
L 250.52 106.356148 
L 250.933333 106.407098 
L 250.933333 106.407098 
" style="fill:none;stroke:#000000;stroke-dasharray:11.1,4.8;stroke-dashoffset:0;stroke-width:3;"/>
   </g>
   <g id="line2d_3">
    <path clip-path="url(#p5cca7bcce4)" d="M 44.266667 104.105 
L 53.36 102.71629 
L 58.32 102.174975 
L 62.866667 101.894987 
L 67 101.847101 
L 71.546667 102.027003 
L 76.093333 102.431153 
L 81.466667 103.136985 
L 92.213333 104.856946 
L 98.413333 105.711409 
L 103.373333 106.170934 
L 107.92 106.36034 
L 112.053333 106.321362 
L 116.6 106.050487 
L 121.56 105.517181 
L 127.76 104.606328 
L 140.986667 102.583073 
L 145.946667 102.089698 
L 150.493333 101.863437 
L 154.626667 101.867511 
L 159.173333 102.102288 
L 164.133333 102.603375 
L 169.92 103.425316 
L 185.213333 105.73803 
L 190.173333 106.186254 
L 194.72 106.363535 
L 198.853333 106.313198 
L 203.4 106.03071 
L 208.36 105.487206 
L 214.56 104.569119 
L 227.373333 102.605323 
L 232.333333 102.103504 
L 236.88 101.867917 
L 241.013333 101.863065 
L 245.56 102.088512 
L 250.52 102.581148 
L 250.933333 102.632098 
L 250.933333 102.632098 
" style="fill:none;stroke:#ff6e54;stroke-linecap:square;stroke-width:2;"/>
   </g>
   <g id="line2d_4">
    <path clip-path="url(#p5cca7bcce4)" d="M 44.266667 111.655 
L 53.36 110.26629 
L 58.32 109.724975 
L 62.866667 109.444987 
L 67 109.397101 
L 71.546667 109.577003 
L 76.093333 109.981153 
L 81.466667 110.686985 
L 92.213333 112.406946 
L 98.413333 113.261409 
L 103.373333 113.720934 
L 107.92 113.91034 
L 112.053333 113.871362 
L 116.6 113.600487 
L 121.56 113.067181 
L 127.76 112.156328 
L 140.986667 110.133073 
L 145.946667 109.639698 
L 150.493333 109.413437 
L 154.626667 109.417511 
L 159.173333 109.652288 
L 164.133333 110.153375 
L 169.92 110.975316 
L 185.213333 113.28803 
L 190.173333 113.736254 
L 194.72 113.913535 
L 198.853333 113.863198 
L 203.4 113.58071 
L 208.36 113.037206 
L 214.56 112.119119 
L 227.373333 110.155323 
L 232.333333 109.653504 
L 236.88 109.417917 
L 241.013333 109.413065 
L 245.56 109.638512 
L 250.52 110.131148 
L 250.933333 110.182098 
L 250.933333 110.182098 
" style="fill:none;stroke:#ff6e54;stroke-linecap:square;stroke-width:2;"/>
   </g>
   <g id="line2d_5">
    <path clip-path="url(#p5cca7bcce4)" d="M 44.266667 111.655 
L 44.266667 104.105 
" style="fill:none;stroke:#ff6e54;stroke-linecap:square;stroke-width:2;"/>
   </g>
   <g id="line2d_6">
    <path clip-path="url(#p5cca7bcce4)" d="M 250.933333 110.182098 
L 250.933333 102.632098 
" style="fill:none;stroke:#ff6e54;stroke-linecap:square;stroke-width:2;"/>
   </g>
  </g>
 </g>
 <defs>
  <clipPath id="pe8c83c9893">
   <rect height="72.48" width="223.2" x="36" y="17.28"/>
  </clipPath>
  <clipPath id="p5cca7bcce4">
   <rect height="36.24" width="223.2" x="36" y="89.76"/>
  </clipPath>
 </defs>
</svg>
