<?xml version="1.0" encoding="utf-8" standalone="no"?>
<!DOCTYPE svg PUBLIC "-//W3C//DTD SVG 1.1//EN"
  "http://www.w3.org/Graphics/SVG/1.1/DTD/svg11.dtd">
<!-- Created with matplotlib (https://matplotlib.org/) -->
<svg height="144pt" version="1.1" viewBox="0 0 288 144" width="288pt" xmlns="http://www.w3.org/2000/svg" xmlns:xlink="http://www.w3.org/1999/xlink">
 <defs>
  <style type="text/css">
*{stroke-linecap:butt;stroke-linejoin:round;white-space:pre;}
  </style>
 </defs>
 <g id="figure_1">
  <g id="patch_1">
   <path d="M 0 144 
L 288 144 
L 288 0 
L 0 0 
z
" style="fill:none;"/>
  </g>
  <g id="axes_1">
   <g id="patch_2">
    <path d="M 36 91.2 
L 259.2 91.2 
L 259.2 17.28 
L 36 17.28 
z
" style="fill:none;"/>
   </g>
   <g id="matplotlib.axis_1">
    <g id="xtick_1"/>
    <g id="xtick_2"/>
    <g id="xtick_3"/>
    <g id="xtick_4"/>
    <g id="xtick_5"/>
    <g id="xtick_6"/>
   </g>
   <g id="matplotlib.axis_2">
    <g id="ytick_1"/>
    <g id="ytick_2"/>
    <g id="ytick_3"/>
   </g>
   <g id="line2d_1">
    <path clip-path="url(#pe0ee1046a5)" d="M 44.266667 49.681031 
L 48.4 39.886445 
L 50.88 34.545119 
L 52.946667 30.586796 
L 54.6 27.818632 
L 56.253333 25.454694 
L 57.906667 23.533061 
L 59.146667 22.400336 
L 60.386667 21.54268 
L 61.626667 20.966598 
L 62.866667 20.675733 
L 64.106667 20.67088 
L 65.346667 20.95003 
L 66.586667 21.508457 
L 67.826667 22.338833 
L 69.066667 23.431371 
L 70.306667 24.773998 
L 71.96 26.928439 
L 73.613333 29.463421 
L 75.68 33.100432 
L 78.16 38.027098 
L 81.053333 44.330036 
L 92.213333 69.289911 
L 94.693333 74.017674 
L 96.76 77.52469 
L 98.826667 80.580507 
L 100.48 82.67014 
L 102.133333 84.423786 
L 103.786667 85.826342 
L 105.026667 86.64068 
L 106.266667 87.247117 
L 107.506667 87.642903 
L 108.746667 87.826258 
L 109.986667 87.796363 
L 111.226667 87.553352 
L 112.466667 87.098311 
L 113.706667 86.433291 
L 114.946667 85.56132 
L 116.6 84.083885 
L 118.253333 82.258252 
L 119.906667 80.100247 
L 121.973333 76.965206 
L 124.04 73.387339 
L 126.52 68.587826 
L 129.413333 62.435895 
L 133.546667 53.027532 
L 138.92 40.813041 
L 141.813333 34.810567 
L 143.88 30.974824 
L 145.946667 27.625801 
L 147.6 25.356856 
L 149.253333 23.496479 
L 150.493333 22.390342 
L 151.733333 21.545781 
L 152.973333 20.97271 
L 154.213333 20.678591 
L 155.453333 20.668292 
L 156.693333 20.943968 
L 157.933333 21.504975 
L 159.173333 22.347821 
L 160.413333 23.466153 
L 161.653333 24.850776 
L 163.306667 27.090089 
L 164.96 29.745483 
L 167.026667 33.58275 
L 169.093333 37.901109 
L 171.986667 44.534713 
L 181.493333 66.981156 
L 183.56 71.151716 
L 185.626667 74.820637 
L 187.28 77.336427 
L 188.933333 79.440801 
L 190.173333 80.732592 
L 191.413333 81.769492 
L 192.653333 82.546103 
L 193.893333 83.059786 
L 195.133333 83.310625 
L 196.373333 83.301352 
L 197.613333 83.037237 
L 198.853333 82.525954 
L 200.093333 81.777415 
L 201.333333 80.803587 
L 202.986667 79.17882 
L 204.64 77.215437 
L 206.706667 74.348287 
L 208.773333 71.104202 
L 211.666667 66.104843 
L 217.453333 55.450398 
L 221.173333 48.859199 
L 224.066667 44.210136 
L 226.546667 40.697376 
L 228.613333 38.168262 
L 230.266667 36.434495 
L 231.92 34.976071 
L 233.573333 33.806252 
L 235.226667 32.935319 
L 236.88 32.370718 
L 238.12 32.151245 
L 239.36 32.107821 
L 240.6 32.240649 
L 241.84 32.549112 
L 243.493333 33.230991 
L 245.146667 34.216694 
L 246.8 35.497711 
L 248.453333 37.062647 
L 250.106667 38.897063 
L 250.933333 39.909945 
L 250.933333 39.909945 
" style="fill:none;stroke:#ff6e54;stroke-linecap:square;stroke-width:3;"/>
   </g>
  </g>
  <g id="axes_2">
   <g id="patch_3">
    <path d="M 36 128.16 
L 259.2 128.16 
L 259.2 91.2 
L 36 91.2 
z
" style="fill:none;"/>
   </g>
   <g id="PolyCollection_1">
    <defs>
     <path d="M 44.266667 -30.47 
L 44.266667 -38.17 
L 44.68 -38.23929 
L 45.093333 -38.308517 
L 45.506667 -38.377619 
L 45.92 -38.446535 
L 46.333333 -38.515202 
L 46.746667 -38.583558 
L 47.16 -38.651542 
L 47.573333 -38.719093 
L 47.986667 -38.78615 
L 48.4 -38.852652 
L 48.813333 -38.918539 
L 49.226667 -38.983753 
L 49.64 -39.048235 
L 50.053333 -39.111927 
L 50.466667 -39.17477 
L 50.88 -39.23671 
L 51.293333 -39.297689 
L 51.706667 -39.357654 
L 52.12 -39.41655 
L 52.533333 -39.474324 
L 52.946667 -39.530924 
L 53.36 -39.5863 
L 53.773333 -39.640401 
L 54.186667 -39.693179 
L 54.6 -39.744586 
L 55.013333 -39.794575 
L 55.426667 -39.843103 
L 55.84 -39.890126 
L 56.253333 -39.9356 
L 56.666667 -39.979485 
L 57.08 -40.021742 
L 57.493333 -40.062333 
L 57.906667 -40.10122 
L 58.32 -40.13837 
L 58.733333 -40.173748 
L 59.146667 -40.207323 
L 59.56 -40.239064 
L 59.973333 -40.268943 
L 60.386667 -40.296934 
L 60.8 -40.32301 
L 61.213333 -40.347149 
L 61.626667 -40.369329 
L 62.04 -40.389529 
L 62.453333 -40.407732 
L 62.866667 -40.423921 
L 63.28 -40.438082 
L 63.693333 -40.450201 
L 64.106667 -40.460269 
L 64.52 -40.468275 
L 64.933333 -40.474213 
L 65.346667 -40.478078 
L 65.76 -40.479865 
L 66.173333 -40.479574 
L 66.586667 -40.477204 
L 67 -40.472758 
L 67.413333 -40.46624 
L 67.826667 -40.457655 
L 68.24 -40.447011 
L 68.653333 -40.434319 
L 69.066667 -40.419588 
L 69.48 -40.402833 
L 69.893333 -40.384069 
L 70.306667 -40.363312 
L 70.72 -40.340581 
L 71.133333 -40.315897 
L 71.546667 -40.289282 
L 71.96 -40.260759 
L 72.373333 -40.230355 
L 72.786667 -40.198097 
L 73.2 -40.164014 
L 73.613333 -40.128136 
L 74.026667 -40.090496 
L 74.44 -40.051127 
L 74.853333 -40.010066 
L 75.266667 -39.967349 
L 75.68 -39.923014 
L 76.093333 -39.877102 
L 76.506667 -39.829654 
L 76.92 -39.780712 
L 77.333333 -39.73032 
L 77.746667 -39.678524 
L 78.16 -39.625371 
L 78.573333 -39.570908 
L 78.986667 -39.515184 
L 79.4 -39.458249 
L 79.813333 -39.400156 
L 80.226667 -39.340955 
L 80.64 -39.2807 
L 81.053333 -39.219446 
L 81.466667 -39.157248 
L 81.88 -39.09416 
L 82.293333 -39.030242 
L 82.706667 -38.965549 
L 83.12 -38.90014 
L 83.533333 -38.834074 
L 83.946667 -38.767411 
L 84.36 -38.70021 
L 84.773333 -38.632531 
L 85.186667 -38.564437 
L 85.6 -38.495987 
L 86.013333 -38.427244 
L 86.426667 -38.35827 
L 86.84 -38.289126 
L 87.253333 -38.219875 
L 87.666667 -38.150579 
L 88.08 -38.081301 
L 88.493333 -38.012102 
L 88.906667 -37.943046 
L 89.32 -37.874193 
L 89.733333 -37.805607 
L 90.146667 -37.737349 
L 90.56 -37.669481 
L 90.973333 -37.602062 
L 91.386667 -37.535155 
L 91.8 -37.468819 
L 92.213333 -37.403114 
L 92.626667 -37.338099 
L 93.04 -37.273833 
L 93.453333 -37.210374 
L 93.866667 -37.147778 
L 94.28 -37.086102 
L 94.693333 -37.025401 
L 95.106667 -36.96573 
L 95.52 -36.907144 
L 95.933333 -36.849693 
L 96.346667 -36.793431 
L 96.76 -36.738408 
L 97.173333 -36.684673 
L 97.586667 -36.632275 
L 98 -36.58126 
L 98.413333 -36.531675 
L 98.826667 -36.483565 
L 99.24 -36.436973 
L 99.653333 -36.39194 
L 100.066667 -36.348507 
L 100.48 -36.306713 
L 100.893333 -36.266596 
L 101.306667 -36.228192 
L 101.72 -36.191536 
L 102.133333 -36.15666 
L 102.546667 -36.123596 
L 102.96 -36.092374 
L 103.373333 -36.063021 
L 103.786667 -36.035564 
L 104.2 -36.010029 
L 104.613333 -35.986437 
L 105.026667 -35.96481 
L 105.44 -35.945168 
L 105.853333 -35.927527 
L 106.266667 -35.911905 
L 106.68 -35.898316 
L 107.093333 -35.88677 
L 107.506667 -35.877279 
L 107.92 -35.869852 
L 108.333333 -35.864494 
L 108.746667 -35.861212 
L 109.16 -35.860007 
L 109.573333 -35.86088 
L 109.986667 -35.863832 
L 110.4 -35.86886 
L 110.813333 -35.875958 
L 111.226667 -35.885121 
L 111.64 -35.89634 
L 112.053333 -35.909605 
L 112.466667 -35.924904 
L 112.88 -35.942224 
L 113.293333 -35.961548 
L 113.706667 -35.98286 
L 114.12 -36.00614 
L 114.533333 -36.031368 
L 114.946667 -36.05852 
L 115.36 -36.087573 
L 115.773333 -36.118499 
L 116.186667 -36.151272 
L 116.6 -36.185861 
L 117.013333 -36.222236 
L 117.426667 -36.260364 
L 117.84 -36.300211 
L 118.253333 -36.34174 
L 118.666667 -36.384914 
L 119.08 -36.429695 
L 119.493333 -36.476042 
L 119.906667 -36.523913 
L 120.32 -36.573266 
L 120.733333 -36.624056 
L 121.146667 -36.676237 
L 121.56 -36.729762 
L 121.973333 -36.784584 
L 122.386667 -36.840652 
L 122.8 -36.897916 
L 123.213333 -36.956326 
L 123.626667 -37.015827 
L 124.04 -37.076367 
L 124.453333 -37.137892 
L 124.866667 -37.200345 
L 125.28 -37.263671 
L 125.693333 -37.327812 
L 126.106667 -37.392712 
L 126.52 -37.458311 
L 126.933333 -37.52455 
L 127.346667 -37.59137 
L 127.76 -37.658711 
L 128.173333 -37.726513 
L 128.586667 -37.794713 
L 129 -37.863251 
L 129.413333 -37.932065 
L 129.826667 -38.001093 
L 130.24 -38.070273 
L 130.653333 -38.139543 
L 131.066667 -38.20884 
L 131.48 -38.278102 
L 131.893333 -38.347267 
L 132.306667 -38.416273 
L 132.72 -38.485057 
L 133.133333 -38.553557 
L 133.546667 -38.621712 
L 133.96 -38.689461 
L 134.373333 -38.756742 
L 134.786667 -38.823495 
L 135.2 -38.889661 
L 135.613333 -38.955178 
L 136.026667 -39.019989 
L 136.44 -39.084035 
L 136.853333 -39.147258 
L 137.266667 -39.209602 
L 137.68 -39.27101 
L 138.093333 -39.331428 
L 138.506667 -39.3908 
L 138.92 -39.449073 
L 139.333333 -39.506196 
L 139.746667 -39.562116 
L 140.16 -39.616783 
L 140.573333 -39.670148 
L 140.986667 -39.722163 
L 141.4 -39.772782 
L 141.813333 -39.821958 
L 142.226667 -39.869647 
L 142.64 -39.915807 
L 143.053333 -39.960395 
L 143.466667 -40.003373 
L 143.88 -40.0447 
L 144.293333 -40.084341 
L 144.706667 -40.122258 
L 145.12 -40.158419 
L 145.533333 -40.19279 
L 145.946667 -40.225341 
L 146.36 -40.256042 
L 146.773333 -40.284866 
L 147.186667 -40.311787 
L 147.6 -40.33678 
L 148.013333 -40.359823 
L 148.426667 -40.380896 
L 148.84 -40.399979 
L 149.253333 -40.417055 
L 149.666667 -40.432109 
L 150.08 -40.445127 
L 150.493333 -40.456097 
L 150.906667 -40.465011 
L 151.32 -40.471859 
L 151.733333 -40.476635 
L 152.146667 -40.479336 
L 152.56 -40.479958 
L 152.973333 -40.478502 
L 153.386667 -40.474968 
L 153.8 -40.46936 
L 154.213333 -40.461682 
L 154.626667 -40.451942 
L 155.04 -40.440149 
L 155.453333 -40.426312 
L 155.866667 -40.410445 
L 156.28 -40.392562 
L 156.693333 -40.372679 
L 157.106667 -40.350813 
L 157.52 -40.326985 
L 157.933333 -40.301216 
L 158.346667 -40.273528 
L 158.76 -40.243948 
L 159.173333 -40.212501 
L 159.586667 -40.179216 
L 160 -40.144123 
L 160.413333 -40.107254 
L 160.826667 -40.068641 
L 161.24 -40.028319 
L 161.653333 -39.986325 
L 162.066667 -39.942697 
L 162.48 -39.897473 
L 162.893333 -39.850694 
L 163.306667 -39.802403 
L 163.72 -39.752643 
L 164.133333 -39.701459 
L 164.546667 -39.648896 
L 164.96 -39.595003 
L 165.373333 -39.539827 
L 165.786667 -39.483418 
L 166.2 -39.425828 
L 166.613333 -39.367107 
L 167.026667 -39.307309 
L 167.44 -39.246488 
L 167.853333 -39.184697 
L 168.266667 -39.121994 
L 168.68 -39.058433 
L 169.093333 -38.994074 
L 169.506667 -38.928972 
L 169.92 -38.863188 
L 170.333333 -38.79678 
L 170.746667 -38.729808 
L 171.16 -38.662331 
L 171.573333 -38.594412 
L 171.986667 -38.526111 
L 172.4 -38.45749 
L 172.813333 -38.388609 
L 173.226667 -38.319532 
L 173.64 -38.250321 
L 174.053333 -38.181037 
L 174.466667 -38.111743 
L 174.88 -38.042502 
L 175.293333 -37.973375 
L 175.706667 -37.904426 
L 176.12 -37.835715 
L 176.533333 -37.767305 
L 176.946667 -37.699258 
L 177.36 -37.631634 
L 177.773333 -37.564495 
L 178.186667 -37.4979 
L 178.6 -37.431911 
L 179.013333 -37.366585 
L 179.426667 -37.301983 
L 179.84 -37.238162 
L 180.253333 -37.175179 
L 180.666667 -37.113092 
L 181.08 -37.051956 
L 181.493333 -36.991826 
L 181.906667 -36.932756 
L 182.32 -36.8748 
L 182.733333 -36.818009 
L 183.146667 -36.762435 
L 183.56 -36.708128 
L 183.973333 -36.655137 
L 184.386667 -36.603508 
L 184.8 -36.553289 
L 185.213333 -36.504526 
L 185.626667 -36.457261 
L 186.04 -36.411537 
L 186.453333 -36.367396 
L 186.866667 -36.324877 
L 187.28 -36.284019 
L 187.693333 -36.244858 
L 188.106667 -36.207429 
L 188.52 -36.171767 
L 188.933333 -36.137903 
L 189.346667 -36.105867 
L 189.76 -36.07569 
L 190.173333 -36.047397 
L 190.586667 -36.021014 
L 191 -35.996565 
L 191.413333 -35.974072 
L 191.826667 -35.953555 
L 192.24 -35.935033 
L 192.653333 -35.918522 
L 193.066667 -35.904037 
L 193.48 -35.891592 
L 193.893333 -35.881197 
L 194.306667 -35.872862 
L 194.72 -35.866594 
L 195.133333 -35.862399 
L 195.546667 -35.86028 
L 195.96 -35.86024 
L 196.373333 -35.862279 
L 196.786667 -35.866395 
L 197.2 -35.872584 
L 197.613333 -35.88084 
L 198.026667 -35.891156 
L 198.44 -35.903523 
L 198.853333 -35.91793 
L 199.266667 -35.934364 
L 199.68 -35.952809 
L 200.093333 -35.97325 
L 200.506667 -35.995667 
L 200.92 -36.020042 
L 201.333333 -36.046351 
L 201.746667 -36.074572 
L 202.16 -36.104678 
L 202.573333 -36.136642 
L 202.986667 -36.170437 
L 203.4 -36.206031 
L 203.813333 -36.243393 
L 204.226667 -36.282488 
L 204.64 -36.323282 
L 205.053333 -36.365738 
L 205.466667 -36.409818 
L 205.88 -36.455482 
L 206.293333 -36.502688 
L 206.706667 -36.551395 
L 207.12 -36.601559 
L 207.533333 -36.653134 
L 207.946667 -36.706075 
L 208.36 -36.760333 
L 208.773333 -36.815859 
L 209.186667 -36.872604 
L 209.6 -36.930517 
L 210.013333 -36.989545 
L 210.426667 -37.049635 
L 210.84 -37.110734 
L 211.253333 -37.172785 
L 211.666667 -37.235735 
L 212.08 -37.299525 
L 212.493333 -37.364098 
L 212.906667 -37.429397 
L 213.32 -37.495362 
L 213.733333 -37.561935 
L 214.146667 -37.629054 
L 214.56 -37.69666 
L 214.973333 -37.764693 
L 215.386667 -37.83309 
L 215.8 -37.90179 
L 216.213333 -37.970732 
L 216.626667 -38.039853 
L 217.04 -38.109091 
L 217.453333 -38.178384 
L 217.866667 -38.247669 
L 218.28 -38.316885 
L 218.693333 -38.385968 
L 219.106667 -38.454857 
L 219.52 -38.52349 
L 219.933333 -38.591804 
L 220.346667 -38.659739 
L 220.76 -38.727233 
L 221.173333 -38.794226 
L 221.586667 -38.860657 
L 222 -38.926466 
L 222.413333 -38.991595 
L 222.826667 -39.055984 
L 223.24 -39.119576 
L 223.653333 -39.182313 
L 224.066667 -39.244139 
L 224.48 -39.304999 
L 224.893333 -39.364837 
L 225.306667 -39.4236 
L 225.72 -39.481235 
L 226.133333 -39.53769 
L 226.546667 -39.592914 
L 226.96 -39.646857 
L 227.373333 -39.699472 
L 227.786667 -39.75071 
L 228.2 -39.800525 
L 228.613333 -39.848873 
L 229.026667 -39.89571 
L 229.44 -39.940994 
L 229.853333 -39.984685 
L 230.266667 -40.026742 
L 230.68 -40.067128 
L 231.093333 -40.105807 
L 231.506667 -40.142744 
L 231.92 -40.177906 
L 232.333333 -40.211261 
L 232.746667 -40.242778 
L 233.16 -40.272431 
L 233.573333 -40.300191 
L 233.986667 -40.326034 
L 234.4 -40.349937 
L 234.813333 -40.371878 
L 235.226667 -40.391838 
L 235.64 -40.409798 
L 236.053333 -40.425742 
L 236.466667 -40.439657 
L 236.88 -40.451529 
L 237.293333 -40.461347 
L 237.706667 -40.469104 
L 238.12 -40.474791 
L 238.533333 -40.478405 
L 238.946667 -40.479941 
L 239.36 -40.479398 
L 239.773333 -40.476777 
L 240.186667 -40.47208 
L 240.6 -40.465311 
L 241.013333 -40.456477 
L 241.426667 -40.445584 
L 241.84 -40.432645 
L 242.253333 -40.417668 
L 242.666667 -40.400669 
L 243.08 -40.381663 
L 243.493333 -40.360666 
L 243.906667 -40.337698 
L 244.32 -40.312779 
L 244.733333 -40.285932 
L 245.146667 -40.25718 
L 245.56 -40.226551 
L 245.973333 -40.19407 
L 246.386667 -40.159768 
L 246.8 -40.123675 
L 247.213333 -40.085824 
L 247.626667 -40.046249 
L 248.04 -40.004986 
L 248.453333 -39.962071 
L 248.866667 -39.917543 
L 249.28 -39.871443 
L 249.693333 -39.823811 
L 250.106667 -39.774691 
L 250.52 -39.724127 
L 250.933333 -39.672165 
L 250.933333 -31.972165 
L 250.933333 -31.972165 
L 250.52 -32.024127 
L 250.106667 -32.074691 
L 249.693333 -32.123811 
L 249.28 -32.171443 
L 248.866667 -32.217543 
L 248.453333 -32.262071 
L 248.04 -32.304986 
L 247.626667 -32.346249 
L 247.213333 -32.385824 
L 246.8 -32.423675 
L 246.386667 -32.459768 
L 245.973333 -32.49407 
L 245.56 -32.526551 
L 245.146667 -32.55718 
L 244.733333 -32.585932 
L 244.32 -32.612779 
L 243.906667 -32.637698 
L 243.493333 -32.660666 
L 243.08 -32.681663 
L 242.666667 -32.700669 
L 242.253333 -32.717668 
L 241.84 -32.732645 
L 241.426667 -32.745584 
L 241.013333 -32.756477 
L 240.6 -32.765311 
L 240.186667 -32.77208 
L 239.773333 -32.776777 
L 239.36 -32.779398 
L 238.946667 -32.779941 
L 238.533333 -32.778405 
L 238.12 -32.774791 
L 237.706667 -32.769104 
L 237.293333 -32.761347 
L 236.88 -32.751529 
L 236.466667 -32.739657 
L 236.053333 -32.725742 
L 235.64 -32.709798 
L 235.226667 -32.691838 
L 234.813333 -32.671878 
L 234.4 -32.649937 
L 233.986667 -32.626034 
L 233.573333 -32.600191 
L 233.16 -32.572431 
L 232.746667 -32.542778 
L 232.333333 -32.511261 
L 231.92 -32.477906 
L 231.506667 -32.442744 
L 231.093333 -32.405807 
L 230.68 -32.367128 
L 230.266667 -32.326742 
L 229.853333 -32.284685 
L 229.44 -32.240994 
L 229.026667 -32.19571 
L 228.613333 -32.148873 
L 228.2 -32.100525 
L 227.786667 -32.05071 
L 227.373333 -31.999472 
L 226.96 -31.946857 
L 226.546667 -31.892914 
L 226.133333 -31.83769 
L 225.72 -31.781235 
L 225.306667 -31.7236 
L 224.893333 -31.664837 
L 224.48 -31.604999 
L 224.066667 -31.544139 
L 223.653333 -31.482313 
L 223.24 -31.419576 
L 222.826667 -31.355984 
L 222.413333 -31.291595 
L 222 -31.226466 
L 221.586667 -31.160657 
L 221.173333 -31.094226 
L 220.76 -31.027233 
L 220.346667 -30.959739 
L 219.933333 -30.891804 
L 219.52 -30.82349 
L 219.106667 -30.754857 
L 218.693333 -30.685968 
L 218.28 -30.616885 
L 217.866667 -30.547669 
L 217.453333 -30.478384 
L 217.04 -30.409091 
L 216.626667 -30.339853 
L 216.213333 -30.270732 
L 215.8 -30.20179 
L 215.386667 -30.13309 
L 214.973333 -30.064693 
L 214.56 -29.99666 
L 214.146667 -29.929054 
L 213.733333 -29.861935 
L 213.32 -29.795362 
L 212.906667 -29.729397 
L 212.493333 -29.664098 
L 212.08 -29.599525 
L 211.666667 -29.535735 
L 211.253333 -29.472785 
L 210.84 -29.410734 
L 210.426667 -29.349635 
L 210.013333 -29.289545 
L 209.6 -29.230517 
L 209.186667 -29.172604 
L 208.773333 -29.115859 
L 208.36 -29.060333 
L 207.946667 -29.006075 
L 207.533333 -28.953134 
L 207.12 -28.901559 
L 206.706667 -28.851395 
L 206.293333 -28.802688 
L 205.88 -28.755482 
L 205.466667 -28.709818 
L 205.053333 -28.665738 
L 204.64 -28.623282 
L 204.226667 -28.582488 
L 203.813333 -28.543393 
L 203.4 -28.506031 
L 202.986667 -28.470437 
L 202.573333 -28.436642 
L 202.16 -28.404678 
L 201.746667 -28.374572 
L 201.333333 -28.346351 
L 200.92 -28.320042 
L 200.506667 -28.295667 
L 200.093333 -28.27325 
L 199.68 -28.252809 
L 199.266667 -28.234364 
L 198.853333 -28.21793 
L 198.44 -28.203523 
L 198.026667 -28.191156 
L 197.613333 -28.18084 
L 197.2 -28.172584 
L 196.786667 -28.166395 
L 196.373333 -28.162279 
L 195.96 -28.16024 
L 195.546667 -28.16028 
L 195.133333 -28.162399 
L 194.72 -28.166594 
L 194.306667 -28.172862 
L 193.893333 -28.181197 
L 193.48 -28.191592 
L 193.066667 -28.204037 
L 192.653333 -28.218522 
L 192.24 -28.235033 
L 191.826667 -28.253555 
L 191.413333 -28.274072 
L 191 -28.296565 
L 190.586667 -28.321014 
L 190.173333 -28.347397 
L 189.76 -28.37569 
L 189.346667 -28.405867 
L 188.933333 -28.437903 
L 188.52 -28.471767 
L 188.106667 -28.507429 
L 187.693333 -28.544858 
L 187.28 -28.584019 
L 186.866667 -28.624877 
L 186.453333 -28.667396 
L 186.04 -28.711537 
L 185.626667 -28.757261 
L 185.213333 -28.804526 
L 184.8 -28.853289 
L 184.386667 -28.903508 
L 183.973333 -28.955137 
L 183.56 -29.008128 
L 183.146667 -29.062435 
L 182.733333 -29.118009 
L 182.32 -29.1748 
L 181.906667 -29.232756 
L 181.493333 -29.291826 
L 181.08 -29.351956 
L 180.666667 -29.413092 
L 180.253333 -29.475179 
L 179.84 -29.538162 
L 179.426667 -29.601983 
L 179.013333 -29.666585 
L 178.6 -29.731911 
L 178.186667 -29.7979 
L 177.773333 -29.864495 
L 177.36 -29.931634 
L 176.946667 -29.999258 
L 176.533333 -30.067305 
L 176.12 -30.135715 
L 175.706667 -30.204426 
L 175.293333 -30.273375 
L 174.88 -30.342502 
L 174.466667 -30.411743 
L 174.053333 -30.481037 
L 173.64 -30.550321 
L 173.226667 -30.619532 
L 172.813333 -30.688609 
L 172.4 -30.75749 
L 171.986667 -30.826111 
L 171.573333 -30.894412 
L 171.16 -30.962331 
L 170.746667 -31.029808 
L 170.333333 -31.09678 
L 169.92 -31.163188 
L 169.506667 -31.228972 
L 169.093333 -31.294074 
L 168.68 -31.358433 
L 168.266667 -31.421994 
L 167.853333 -31.484697 
L 167.44 -31.546488 
L 167.026667 -31.607309 
L 166.613333 -31.667107 
L 166.2 -31.725828 
L 165.786667 -31.783418 
L 165.373333 -31.839827 
L 164.96 -31.895003 
L 164.546667 -31.948896 
L 164.133333 -32.001459 
L 163.72 -32.052643 
L 163.306667 -32.102403 
L 162.893333 -32.150694 
L 162.48 -32.197473 
L 162.066667 -32.242697 
L 161.653333 -32.286325 
L 161.24 -32.328319 
L 160.826667 -32.368641 
L 160.413333 -32.407254 
L 160 -32.444123 
L 159.586667 -32.479216 
L 159.173333 -32.512501 
L 158.76 -32.543948 
L 158.346667 -32.573528 
L 157.933333 -32.601216 
L 157.52 -32.626985 
L 157.106667 -32.650813 
L 156.693333 -32.672679 
L 156.28 -32.692562 
L 155.866667 -32.710445 
L 155.453333 -32.726312 
L 155.04 -32.740149 
L 154.626667 -32.751942 
L 154.213333 -32.761682 
L 153.8 -32.76936 
L 153.386667 -32.774968 
L 152.973333 -32.778502 
L 152.56 -32.779958 
L 152.146667 -32.779336 
L 151.733333 -32.776635 
L 151.32 -32.771859 
L 150.906667 -32.765011 
L 150.493333 -32.756097 
L 150.08 -32.745127 
L 149.666667 -32.732109 
L 149.253333 -32.717055 
L 148.84 -32.699979 
L 148.426667 -32.680896 
L 148.013333 -32.659823 
L 147.6 -32.63678 
L 147.186667 -32.611787 
L 146.773333 -32.584866 
L 146.36 -32.556042 
L 145.946667 -32.525341 
L 145.533333 -32.49279 
L 145.12 -32.458419 
L 144.706667 -32.422258 
L 144.293333 -32.384341 
L 143.88 -32.3447 
L 143.466667 -32.303373 
L 143.053333 -32.260395 
L 142.64 -32.215807 
L 142.226667 -32.169647 
L 141.813333 -32.121958 
L 141.4 -32.072782 
L 140.986667 -32.022163 
L 140.573333 -31.970148 
L 140.16 -31.916783 
L 139.746667 -31.862116 
L 139.333333 -31.806196 
L 138.92 -31.749073 
L 138.506667 -31.6908 
L 138.093333 -31.631428 
L 137.68 -31.57101 
L 137.266667 -31.509602 
L 136.853333 -31.447258 
L 136.44 -31.384035 
L 136.026667 -31.319989 
L 135.613333 -31.255178 
L 135.2 -31.189661 
L 134.786667 -31.123495 
L 134.373333 -31.056742 
L 133.96 -30.989461 
L 133.546667 -30.921712 
L 133.133333 -30.853557 
L 132.72 -30.785057 
L 132.306667 -30.716273 
L 131.893333 -30.647267 
L 131.48 -30.578102 
L 131.066667 -30.50884 
L 130.653333 -30.439543 
L 130.24 -30.370273 
L 129.826667 -30.301093 
L 129.413333 -30.232065 
L 129 -30.163251 
L 128.586667 -30.094713 
L 128.173333 -30.026513 
L 127.76 -29.958711 
L 127.346667 -29.89137 
L 126.933333 -29.82455 
L 126.52 -29.758311 
L 126.106667 -29.692712 
L 125.693333 -29.627812 
L 125.28 -29.563671 
L 124.866667 -29.500345 
L 124.453333 -29.437892 
L 124.04 -29.376367 
L 123.626667 -29.315827 
L 123.213333 -29.256326 
L 122.8 -29.197916 
L 122.386667 -29.140652 
L 121.973333 -29.084584 
L 121.56 -29.029762 
L 121.146667 -28.976237 
L 120.733333 -28.924056 
L 120.32 -28.873266 
L 119.906667 -28.823913 
L 119.493333 -28.776042 
L 119.08 -28.729695 
L 118.666667 -28.684914 
L 118.253333 -28.64174 
L 117.84 -28.600211 
L 117.426667 -28.560364 
L 117.013333 -28.522236 
L 116.6 -28.485861 
L 116.186667 -28.451272 
L 115.773333 -28.418499 
L 115.36 -28.387573 
L 114.946667 -28.35852 
L 114.533333 -28.331368 
L 114.12 -28.30614 
L 113.706667 -28.28286 
L 113.293333 -28.261548 
L 112.88 -28.242224 
L 112.466667 -28.224904 
L 112.053333 -28.209605 
L 111.64 -28.19634 
L 111.226667 -28.185121 
L 110.813333 -28.175958 
L 110.4 -28.16886 
L 109.986667 -28.163832 
L 109.573333 -28.16088 
L 109.16 -28.160007 
L 108.746667 -28.161212 
L 108.333333 -28.164494 
L 107.92 -28.169852 
L 107.506667 -28.177279 
L 107.093333 -28.18677 
L 106.68 -28.198316 
L 106.266667 -28.211905 
L 105.853333 -28.227527 
L 105.44 -28.245168 
L 105.026667 -28.26481 
L 104.613333 -28.286437 
L 104.2 -28.310029 
L 103.786667 -28.335564 
L 103.373333 -28.363021 
L 102.96 -28.392374 
L 102.546667 -28.423596 
L 102.133333 -28.45666 
L 101.72 -28.491536 
L 101.306667 -28.528192 
L 100.893333 -28.566596 
L 100.48 -28.606713 
L 100.066667 -28.648507 
L 99.653333 -28.69194 
L 99.24 -28.736973 
L 98.826667 -28.783565 
L 98.413333 -28.831675 
L 98 -28.88126 
L 97.586667 -28.932275 
L 97.173333 -28.984673 
L 96.76 -29.038408 
L 96.346667 -29.093431 
L 95.933333 -29.149693 
L 95.52 -29.207144 
L 95.106667 -29.26573 
L 94.693333 -29.325401 
L 94.28 -29.386102 
L 93.866667 -29.447778 
L 93.453333 -29.510374 
L 93.04 -29.573833 
L 92.626667 -29.638099 
L 92.213333 -29.703114 
L 91.8 -29.768819 
L 91.386667 -29.835155 
L 90.973333 -29.902062 
L 90.56 -29.969481 
L 90.146667 -30.037349 
L 89.733333 -30.105607 
L 89.32 -30.174193 
L 88.906667 -30.243046 
L 88.493333 -30.312102 
L 88.08 -30.381301 
L 87.666667 -30.450579 
L 87.253333 -30.519875 
L 86.84 -30.589126 
L 86.426667 -30.65827 
L 86.013333 -30.727244 
L 85.6 -30.795987 
L 85.186667 -30.864437 
L 84.773333 -30.932531 
L 84.36 -31.00021 
L 83.946667 -31.067411 
L 83.533333 -31.134074 
L 83.12 -31.20014 
L 82.706667 -31.265549 
L 82.293333 -31.330242 
L 81.88 -31.39416 
L 81.466667 -31.457248 
L 81.053333 -31.519446 
L 80.64 -31.5807 
L 80.226667 -31.640955 
L 79.813333 -31.700156 
L 79.4 -31.758249 
L 78.986667 -31.815184 
L 78.573333 -31.870908 
L 78.16 -31.925371 
L 77.746667 -31.978524 
L 77.333333 -32.03032 
L 76.92 -32.080712 
L 76.506667 -32.129654 
L 76.093333 -32.177102 
L 75.68 -32.223014 
L 75.266667 -32.267349 
L 74.853333 -32.310066 
L 74.44 -32.351127 
L 74.026667 -32.390496 
L 73.613333 -32.428136 
L 73.2 -32.464014 
L 72.786667 -32.498097 
L 72.373333 -32.530355 
L 71.96 -32.560759 
L 71.546667 -32.589282 
L 71.133333 -32.615897 
L 70.72 -32.640581 
L 70.306667 -32.663312 
L 69.893333 -32.684069 
L 69.48 -32.702833 
L 69.066667 -32.719588 
L 68.653333 -32.734319 
L 68.24 -32.747011 
L 67.826667 -32.757655 
L 67.413333 -32.76624 
L 67 -32.772758 
L 66.586667 -32.777204 
L 66.173333 -32.779574 
L 65.76 -32.779865 
L 65.346667 -32.778078 
L 64.933333 -32.774213 
L 64.52 -32.768275 
L 64.106667 -32.760269 
L 63.693333 -32.750201 
L 63.28 -32.738082 
L 62.866667 -32.723921 
L 62.453333 -32.707732 
L 62.04 -32.689529 
L 61.626667 -32.669329 
L 61.213333 -32.647149 
L 60.8 -32.62301 
L 60.386667 -32.596934 
L 59.973333 -32.568943 
L 59.56 -32.539064 
L 59.146667 -32.507323 
L 58.733333 -32.473748 
L 58.32 -32.43837 
L 57.906667 -32.40122 
L 57.493333 -32.362333 
L 57.08 -32.321742 
L 56.666667 -32.279485 
L 56.253333 -32.2356 
L 55.84 -32.190126 
L 55.426667 -32.143103 
L 55.013333 -32.094575 
L 54.6 -32.044586 
L 54.186667 -31.993179 
L 53.773333 -31.940401 
L 53.36 -31.8863 
L 52.946667 -31.830924 
L 52.533333 -31.774324 
L 52.12 -31.71655 
L 51.706667 -31.657654 
L 51.293333 -31.597689 
L 50.88 -31.53671 
L 50.466667 -31.47477 
L 50.053333 -31.411927 
L 49.64 -31.348235 
L 49.226667 -31.283753 
L 48.813333 -31.218539 
L 48.4 -31.152652 
L 47.986667 -31.08615 
L 47.573333 -31.019093 
L 47.16 -30.951542 
L 46.746667 -30.883558 
L 46.333333 -30.815202 
L 45.92 -30.746535 
L 45.506667 -30.677619 
L 45.093333 -30.608517 
L 44.68 -30.53929 
L 44.266667 -30.47 
z
" id="m1eb1becb26" style="stroke:#ff6e54;stroke-opacity:0.8;"/>
    </defs>
    <g clip-path="url(#p7b04b206ef)">
     <use style="fill:#ff6e54;fill-opacity:0.8;stroke:#ff6e54;stroke-opacity:0.8;" x="0" xlink:href="#m1eb1becb26" y="144"/>
    </g>
   </g>
   <g id="patch_4">
    <path clip-path="url(#p7b04b206ef)" d="M 44.266667 109.68 
L 44.266667 105.83 
L 46.746667 105.83 
L 46.746667 104.29 
L 41.786667 102.75 
L 38.48 102.75 
L 38.48 116.61 
L 41.786667 116.61 
L 46.746667 115.07 
L 46.746667 113.53 
L 44.266667 113.53 
z
" style="fill:#808080;opacity:0.8;stroke:#000000;stroke-linejoin:miter;"/>
   </g>
   <g id="patch_5">
    <path clip-path="url(#p7b04b206ef)" d="M 250.933333 108.177835 
L 250.933333 104.327835 
L 248.453333 104.327835 
L 248.453333 102.787835 
L 253.413333 101.247835 
L 256.72 101.247835 
L 256.72 115.107835 
L 253.413333 115.107835 
L 248.453333 113.567835 
L 248.453333 112.027835 
L 250.933333 112.027835 
z
" style="fill:#808080;opacity:0.8;stroke:#000000;stroke-linejoin:miter;"/>
   </g>
   <g id="matplotlib.axis_3">
    <g id="xtick_7"/>
    <g id="xtick_8"/>
    <g id="xtick_9"/>
    <g id="xtick_10"/>
    <g id="xtick_11"/>
    <g id="xtick_12"/>
   </g>
   <g id="matplotlib.axis_4">
    <g id="ytick_4"/>
    <g id="ytick_5"/>
    <g id="ytick_6"/>
   </g>
   <g id="line2d_2">
    <path clip-path="url(#p7b04b206ef)" d="M 44.266667 109.68 
L 53.36 108.2637 
L 58.32 107.71163 
L 62.866667 107.426079 
L 67 107.377242 
L 71.133333 107.534103 
L 75.68 107.926986 
L 81.053333 108.630554 
L 89.733333 110.044393 
L 97.173333 111.165327 
L 102.133333 111.69334 
L 106.68 111.951684 
L 110.813333 111.974042 
L 115.36 111.762427 
L 119.906667 111.326087 
L 125.28 110.586329 
L 143.88 107.8053 
L 148.426667 107.469104 
L 152.56 107.370042 
L 156.693333 107.477321 
L 161.24 107.821681 
L 166.2 108.424172 
L 173.226667 109.530468 
L 183.146667 111.087565 
L 188.106667 111.642571 
L 192.653333 111.931478 
L 196.786667 111.983605 
L 200.92 111.829958 
L 205.466667 111.440182 
L 210.84 110.739266 
L 219.52 109.32651 
L 226.96 108.203143 
L 231.92 107.672094 
L 236.466667 107.410343 
L 240.6 107.384689 
L 245.146667 107.59282 
L 249.693333 108.026189 
L 250.933333 108.177835 
L 250.933333 108.177835 
" style="fill:none;stroke:#000000;stroke-dasharray:11.1,4.8;stroke-dashoffset:0;stroke-width:3;"/>
   </g>
   <g id="line2d_3">
    <path clip-path="url(#p7b04b206ef)" d="M 44.266667 105.83 
L 53.36 104.4137 
L 58.32 103.86163 
L 62.866667 103.576079 
L 67 103.527242 
L 71.133333 103.684103 
L 75.68 104.076986 
L 81.053333 104.780554 
L 89.733333 106.194393 
L 97.173333 107.315327 
L 102.133333 107.84334 
L 106.68 108.101684 
L 110.813333 108.124042 
L 115.36 107.912427 
L 119.906667 107.476087 
L 125.28 106.736329 
L 143.88 103.9553 
L 148.426667 103.619104 
L 152.56 103.520042 
L 156.693333 103.627321 
L 161.24 103.971681 
L 166.2 104.574172 
L 173.226667 105.680468 
L 183.146667 107.237565 
L 188.106667 107.792571 
L 192.653333 108.081478 
L 196.786667 108.133605 
L 200.92 107.979958 
L 205.466667 107.590182 
L 210.84 106.889266 
L 219.52 105.47651 
L 226.96 104.353143 
L 231.92 103.822094 
L 236.466667 103.560343 
L 240.6 103.534689 
L 245.146667 103.74282 
L 249.693333 104.176189 
L 250.933333 104.327835 
L 250.933333 104.327835 
" style="fill:none;stroke:#ff6e54;stroke-linecap:square;stroke-width:2;"/>
   </g>
   <g id="line2d_4">
    <path clip-path="url(#p7b04b206ef)" d="M 44.266667 113.53 
L 53.36 112.1137 
L 58.32 111.56163 
L 62.866667 111.276079 
L 67 111.227242 
L 71.133333 111.384103 
L 75.68 111.776986 
L 81.053333 112.480554 
L 89.733333 113.894393 
L 97.173333 115.015327 
L 102.133333 115.54334 
L 106.68 115.801684 
L 110.813333 115.824042 
L 115.36 115.612427 
L 119.906667 115.176087 
L 125.28 114.436329 
L 143.88 111.6553 
L 148.426667 111.319104 
L 152.56 111.220042 
L 156.693333 111.327321 
L 161.24 111.671681 
L 166.2 112.274172 
L 173.226667 113.380468 
L 183.146667 114.937565 
L 188.106667 115.492571 
L 192.653333 115.781478 
L 196.786667 115.833605 
L 200.92 115.679958 
L 205.466667 115.290182 
L 210.84 114.589266 
L 219.52 113.17651 
L 226.96 112.053143 
L 231.92 111.522094 
L 236.466667 111.260343 
L 240.6 111.234689 
L 245.146667 111.44282 
L 249.693333 111.876189 
L 250.933333 112.027835 
L 250.933333 112.027835 
" style="fill:none;stroke:#ff6e54;stroke-linecap:square;stroke-width:2;"/>
   </g>
   <g id="line2d_5">
    <path clip-path="url(#p7b04b206ef)" d="M 44.266667 113.53 
L 44.266667 105.83 
" style="fill:none;stroke:#ff6e54;stroke-linecap:square;stroke-width:2;"/>
   </g>
   <g id="line2d_6">
    <path clip-path="url(#p7b04b206ef)" d="M 250.933333 112.027835 
L 250.933333 104.327835 
" style="fill:none;stroke:#ff6e54;stroke-linecap:square;stroke-width:2;"/>
   </g>
  </g>
 </g>
 <defs>
  <clipPath id="pe0ee1046a5">
   <rect height="73.92" width="223.2" x="36" y="17.28"/>
  </clipPath>
  <clipPath id="p7b04b206ef">
   <rect height="36.96" width="223.2" x="36" y="91.2"/>
  </clipPath>
 </defs>
</svg>
