<?xml version="1.0" encoding="utf-8" standalone="no"?>
<!DOCTYPE svg PUBLIC "-//W3C//DTD SVG 1.1//EN"
  "http://www.w3.org/Graphics/SVG/1.1/DTD/svg11.dtd">
<!-- Created with matplotlib (https://matplotlib.org/) -->
<svg height="144pt" version="1.1" viewBox="0 0 288 144" width="288pt" xmlns="http://www.w3.org/2000/svg" xmlns:xlink="http://www.w3.org/1999/xlink">
 <defs>
  <style type="text/css">
*{stroke-linecap:butt;stroke-linejoin:round;}
  </style>
 </defs>
 <g id="figure_1">
  <g id="patch_1">
   <path d="M 0 144 
L 288 144 
L 288 0 
L 0 0 
z
" style="fill:#ffffff;"/>
  </g>
  <g id="axes_1">
   <g id="patch_2">
    <path d="M 36 89.76 
L 259.2 89.76 
L 259.2 17.28 
L 36 17.28 
z
" style="fill:#ffffff;"/>
   </g>
   <g id="matplotlib.axis_1">
    <g id="xtick_1"/>
    <g id="xtick_2"/>
    <g id="xtick_3"/>
    <g id="xtick_4"/>
    <g id="xtick_5"/>
    <g id="xtick_6"/>
   </g>
   <g id="matplotlib.axis_2">
    <g id="ytick_1"/>
    <g id="ytick_2"/>
    <g id="ytick_3"/>
   </g>
   <g id="line2d_1">
    <path clip-path="url(#pf23ca328bd)" d="M 44.266667 49.537466 
L 50.466667 40.783907 
L 54.186667 35.910252 
L 57.08 32.436441 
L 59.973333 29.311387 
L 62.453333 26.955062 
L 64.933333 24.930963 
L 67 23.518551 
L 69.066667 22.370409 
L 71.133333 21.497889 
L 73.2 20.909768 
L 74.853333 20.648233 
L 76.506667 20.574545 
L 78.16 20.689449 
L 79.813333 20.992551 
L 81.466667 21.482328 
L 83.533333 22.352926 
L 85.6 23.503397 
L 87.666667 24.923524 
L 89.733333 26.600566 
L 92.213333 28.930663 
L 94.693333 31.578377 
L 97.586667 35.022361 
L 100.893333 39.3507 
L 104.613333 44.599253 
L 110.4 53.206545 
L 117.426667 63.602705 
L 121.146667 68.740345 
L 124.453333 72.936901 
L 127.346667 76.24631 
L 129.826667 78.76941 
L 132.306667 80.971138 
L 134.373333 82.541912 
L 136.44 83.859656 
L 138.506667 84.914787 
L 140.573333 85.700326 
L 142.64 86.21195 
L 144.706667 86.448028 
L 146.773333 86.409626 
L 148.84 86.100486 
L 150.906667 85.526978 
L 152.973333 84.698025 
L 155.04 83.625008 
L 157.106667 82.321636 
L 159.586667 80.476047 
L 162.066667 78.353008 
L 164.96 75.572306 
L 168.266667 72.068782 
L 172.4 67.345796 
L 185.213333 52.404492 
L 188.52 48.988514 
L 191.413333 46.29536 
L 193.893333 44.248932 
L 196.373333 42.475005 
L 198.853333 40.998108 
L 200.92 40.008702 
L 202.986667 39.248248 
L 205.053333 38.723083 
L 207.12 38.436991 
L 209.186667 38.391165 
L 211.253333 38.584203 
L 213.32 39.012125 
L 215.386667 39.668416 
L 217.453333 40.544103 
L 219.933333 41.868402 
L 222.413333 43.468344 
L 224.893333 45.315801 
L 227.786667 47.741124 
L 231.093333 50.799173 
L 235.64 55.337512 
L 245.973333 65.79006 
L 249.28 68.790558 
L 250.933333 70.172103 
L 250.933333 70.172103 
" style="fill:none;stroke:#257352;stroke-linecap:square;stroke-width:3;"/>
   </g>
  </g>
  <g id="axes_2">
   <g id="patch_3">
    <path d="M 36 126 
L 259.2 126 
L 259.2 89.76 
L 36 89.76 
z
" style="fill:#ffffff;"/>
   </g>
   <g id="PolyCollection_1">
    <defs>
     <path d="M 44.266667 -32.345 
L 44.266667 -39.895 
L 44.68 -39.925199 
L 45.093333 -39.955396 
L 45.506667 -39.985586 
L 45.92 -40.015768 
L 46.333333 -40.045937 
L 46.746667 -40.076091 
L 47.16 -40.106227 
L 47.573333 -40.136342 
L 47.986667 -40.166433 
L 48.4 -40.196497 
L 48.813333 -40.22653 
L 49.226667 -40.256531 
L 49.64 -40.286495 
L 50.053333 -40.31642 
L 50.466667 -40.346303 
L 50.88 -40.376141 
L 51.293333 -40.405931 
L 51.706667 -40.435669 
L 52.12 -40.465354 
L 52.533333 -40.494981 
L 52.946667 -40.524549 
L 53.36 -40.554053 
L 53.773333 -40.583492 
L 54.186667 -40.612862 
L 54.6 -40.64216 
L 55.013333 -40.671383 
L 55.426667 -40.700529 
L 55.84 -40.729594 
L 56.253333 -40.758576 
L 56.666667 -40.787471 
L 57.08 -40.816277 
L 57.493333 -40.844991 
L 57.906667 -40.87361 
L 58.32 -40.902131 
L 58.733333 -40.930551 
L 59.146667 -40.958868 
L 59.56 -40.987079 
L 59.973333 -41.01518 
L 60.386667 -41.043169 
L 60.8 -41.071043 
L 61.213333 -41.0988 
L 61.626667 -41.126437 
L 62.04 -41.15395 
L 62.453333 -41.181337 
L 62.866667 -41.208596 
L 63.28 -41.235723 
L 63.693333 -41.262717 
L 64.106667 -41.289573 
L 64.52 -41.31629 
L 64.933333 -41.342865 
L 65.346667 -41.369295 
L 65.76 -41.395578 
L 66.173333 -41.421711 
L 66.586667 -41.447691 
L 67 -41.473515 
L 67.413333 -41.499182 
L 67.826667 -41.524689 
L 68.24 -41.550032 
L 68.653333 -41.57521 
L 69.066667 -41.60022 
L 69.48 -41.62506 
L 69.893333 -41.649726 
L 70.306667 -41.674217 
L 70.72 -41.69853 
L 71.133333 -41.722663 
L 71.546667 -41.746613 
L 71.96 -41.770378 
L 72.373333 -41.793955 
L 72.786667 -41.817342 
L 73.2 -41.840537 
L 73.613333 -41.863538 
L 74.026667 -41.886342 
L 74.44 -41.908946 
L 74.853333 -41.931349 
L 75.266667 -41.953549 
L 75.68 -41.975543 
L 76.093333 -41.997328 
L 76.506667 -42.018904 
L 76.92 -42.040267 
L 77.333333 -42.061415 
L 77.746667 -42.082347 
L 78.16 -42.10306 
L 78.573333 -42.123553 
L 78.986667 -42.143822 
L 79.4 -42.163867 
L 79.813333 -42.183685 
L 80.226667 -42.203273 
L 80.64 -42.222631 
L 81.053333 -42.241757 
L 81.466667 -42.260647 
L 81.88 -42.279301 
L 82.293333 -42.297717 
L 82.706667 -42.315892 
L 83.12 -42.333825 
L 83.533333 -42.351515 
L 83.946667 -42.368959 
L 84.36 -42.386155 
L 84.773333 -42.403102 
L 85.186667 -42.419798 
L 85.6 -42.436242 
L 86.013333 -42.452432 
L 86.426667 -42.468366 
L 86.84 -42.484043 
L 87.253333 -42.499461 
L 87.666667 -42.514618 
L 88.08 -42.529514 
L 88.493333 -42.544146 
L 88.906667 -42.558513 
L 89.32 -42.572613 
L 89.733333 -42.586446 
L 90.146667 -42.60001 
L 90.56 -42.613303 
L 90.973333 -42.626325 
L 91.386667 -42.639073 
L 91.8 -42.651547 
L 92.213333 -42.663745 
L 92.626667 -42.675667 
L 93.04 -42.68731 
L 93.453333 -42.698674 
L 93.866667 -42.709758 
L 94.28 -42.72056 
L 94.693333 -42.73108 
L 95.106667 -42.741316 
L 95.52 -42.751268 
L 95.933333 -42.760934 
L 96.346667 -42.770313 
L 96.76 -42.779405 
L 97.173333 -42.788208 
L 97.586667 -42.796722 
L 98 -42.804946 
L 98.413333 -42.812879 
L 98.826667 -42.82052 
L 99.24 -42.827868 
L 99.653333 -42.834923 
L 100.066667 -42.841685 
L 100.48 -42.848151 
L 100.893333 -42.854322 
L 101.306667 -42.860198 
L 101.72 -42.865776 
L 102.133333 -42.871058 
L 102.546667 -42.876042 
L 102.96 -42.880728 
L 103.373333 -42.885116 
L 103.786667 -42.889204 
L 104.2 -42.892993 
L 104.613333 -42.896482 
L 105.026667 -42.899672 
L 105.44 -42.90256 
L 105.853333 -42.905148 
L 106.266667 -42.907435 
L 106.68 -42.90942 
L 107.093333 -42.911105 
L 107.506667 -42.912487 
L 107.92 -42.913568 
L 108.333333 -42.914347 
L 108.746667 -42.914824 
L 109.16 -42.914999 
L 109.573333 -42.914872 
L 109.986667 -42.914443 
L 110.4 -42.913712 
L 110.813333 -42.91268 
L 111.226667 -42.911345 
L 111.64 -42.909709 
L 112.053333 -42.907771 
L 112.466667 -42.905532 
L 112.88 -42.902992 
L 113.293333 -42.900152 
L 113.706667 -42.89701 
L 114.12 -42.893569 
L 114.533333 -42.889828 
L 114.946667 -42.885787 
L 115.36 -42.881447 
L 115.773333 -42.876809 
L 116.186667 -42.871872 
L 116.6 -42.866638 
L 117.013333 -42.861106 
L 117.426667 -42.855278 
L 117.84 -42.849154 
L 118.253333 -42.842734 
L 118.666667 -42.83602 
L 119.08 -42.829011 
L 119.493333 -42.82171 
L 119.906667 -42.814115 
L 120.32 -42.806229 
L 120.733333 -42.798051 
L 121.146667 -42.789583 
L 121.56 -42.780826 
L 121.973333 -42.77178 
L 122.386667 -42.762447 
L 122.8 -42.752826 
L 123.213333 -42.74292 
L 123.626667 -42.732729 
L 124.04 -42.722255 
L 124.453333 -42.711497 
L 124.866667 -42.700458 
L 125.28 -42.689139 
L 125.693333 -42.67754 
L 126.106667 -42.665663 
L 126.52 -42.653508 
L 126.933333 -42.641078 
L 127.346667 -42.628374 
L 127.76 -42.615395 
L 128.173333 -42.602145 
L 128.586667 -42.588625 
L 129 -42.574834 
L 129.413333 -42.560776 
L 129.826667 -42.546451 
L 130.24 -42.531862 
L 130.653333 -42.517008 
L 131.066667 -42.501892 
L 131.48 -42.486516 
L 131.893333 -42.47088 
L 132.306667 -42.454987 
L 132.72 -42.438838 
L 133.133333 -42.422434 
L 133.546667 -42.405778 
L 133.96 -42.388871 
L 134.373333 -42.371714 
L 134.786667 -42.354309 
L 135.2 -42.336659 
L 135.613333 -42.318765 
L 136.026667 -42.300628 
L 136.44 -42.28225 
L 136.853333 -42.263634 
L 137.266667 -42.244781 
L 137.68 -42.225693 
L 138.093333 -42.206372 
L 138.506667 -42.18682 
L 138.92 -42.167038 
L 139.333333 -42.14703 
L 139.746667 -42.126796 
L 140.16 -42.106339 
L 140.573333 -42.085661 
L 140.986667 -42.064764 
L 141.4 -42.04365 
L 141.813333 -42.022321 
L 142.226667 -42.000779 
L 142.64 -41.979026 
L 143.053333 -41.957066 
L 143.466667 -41.934899 
L 143.88 -41.912528 
L 144.293333 -41.889955 
L 144.706667 -41.867183 
L 145.12 -41.844214 
L 145.533333 -41.821049 
L 145.946667 -41.797693 
L 146.36 -41.774145 
L 146.773333 -41.75041 
L 147.186667 -41.72649 
L 147.6 -41.702386 
L 148.013333 -41.678101 
L 148.426667 -41.653639 
L 148.84 -41.629 
L 149.253333 -41.604188 
L 149.666667 -41.579205 
L 150.08 -41.554053 
L 150.493333 -41.528736 
L 150.906667 -41.503255 
L 151.32 -41.477614 
L 151.733333 -41.451814 
L 152.146667 -41.425859 
L 152.56 -41.39975 
L 152.973333 -41.373491 
L 153.386667 -41.347084 
L 153.8 -41.320532 
L 154.213333 -41.293838 
L 154.626667 -41.267003 
L 155.04 -41.240031 
L 155.453333 -41.212925 
L 155.866667 -41.185687 
L 156.28 -41.15832 
L 156.693333 -41.130827 
L 157.106667 -41.10321 
L 157.52 -41.075472 
L 157.933333 -41.047616 
L 158.346667 -41.019645 
L 158.76 -40.991562 
L 159.173333 -40.963368 
L 159.586667 -40.935068 
L 160 -40.906664 
L 160.413333 -40.878159 
L 160.826667 -40.849555 
L 161.24 -40.820856 
L 161.653333 -40.792065 
L 162.066667 -40.763184 
L 162.48 -40.734215 
L 162.893333 -40.705163 
L 163.306667 -40.67603 
L 163.72 -40.646819 
L 164.133333 -40.617533 
L 164.546667 -40.588174 
L 164.96 -40.558747 
L 165.373333 -40.529252 
L 165.786667 -40.499695 
L 166.2 -40.470076 
L 166.613333 -40.440401 
L 167.026667 -40.410671 
L 167.44 -40.380889 
L 167.853333 -40.351058 
L 168.266667 -40.321182 
L 168.68 -40.291264 
L 169.093333 -40.261306 
L 169.506667 -40.231311 
L 169.92 -40.201282 
L 170.333333 -40.171223 
L 170.746667 -40.141136 
L 171.16 -40.111025 
L 171.573333 -40.080892 
L 171.986667 -40.050741 
L 172.4 -40.020574 
L 172.813333 -39.990394 
L 173.226667 -39.960205 
L 173.64 -39.930009 
L 174.053333 -39.89981 
L 174.466667 -39.86961 
L 174.88 -39.839413 
L 175.293333 -39.809221 
L 175.706667 -39.779038 
L 176.12 -39.748867 
L 176.533333 -39.71871 
L 176.946667 -39.688571 
L 177.36 -39.658452 
L 177.773333 -39.628357 
L 178.186667 -39.598289 
L 178.6 -39.568251 
L 179.013333 -39.538245 
L 179.426667 -39.508275 
L 179.84 -39.478343 
L 180.253333 -39.448453 
L 180.666667 -39.418608 
L 181.08 -39.38881 
L 181.493333 -39.359063 
L 181.906667 -39.32937 
L 182.32 -39.299733 
L 182.733333 -39.270156 
L 183.146667 -39.240641 
L 183.56 -39.211192 
L 183.973333 -39.181811 
L 184.386667 -39.152501 
L 184.8 -39.123266 
L 185.213333 -39.094108 
L 185.626667 -39.065029 
L 186.04 -39.036034 
L 186.453333 -39.007125 
L 186.866667 -38.978305 
L 187.28 -38.949576 
L 187.693333 -38.920942 
L 188.106667 -38.892405 
L 188.52 -38.863968 
L 188.933333 -38.835635 
L 189.346667 -38.807407 
L 189.76 -38.779288 
L 190.173333 -38.751281 
L 190.586667 -38.723388 
L 191 -38.695613 
L 191.413333 -38.667957 
L 191.826667 -38.640424 
L 192.24 -38.613016 
L 192.653333 -38.585737 
L 193.066667 -38.558588 
L 193.48 -38.531573 
L 193.893333 -38.504695 
L 194.306667 -38.477955 
L 194.72 -38.451358 
L 195.133333 -38.424904 
L 195.546667 -38.398598 
L 195.96 -38.372441 
L 196.373333 -38.346437 
L 196.786667 -38.320587 
L 197.2 -38.294895 
L 197.613333 -38.269363 
L 198.026667 -38.243993 
L 198.44 -38.218789 
L 198.853333 -38.193752 
L 199.266667 -38.168885 
L 199.68 -38.144191 
L 200.093333 -38.119672 
L 200.506667 -38.09533 
L 200.92 -38.071168 
L 201.333333 -38.047189 
L 201.746667 -38.023395 
L 202.16 -37.999787 
L 202.573333 -37.97637 
L 202.986667 -37.953144 
L 203.4 -37.930112 
L 203.813333 -37.907277 
L 204.226667 -37.88464 
L 204.64 -37.862205 
L 205.053333 -37.839973 
L 205.466667 -37.817946 
L 205.88 -37.796127 
L 206.293333 -37.774518 
L 206.706667 -37.753121 
L 207.12 -37.731938 
L 207.533333 -37.710972 
L 207.946667 -37.690224 
L 208.36 -37.669696 
L 208.773333 -37.649391 
L 209.186667 -37.62931 
L 209.6 -37.609456 
L 210.013333 -37.589831 
L 210.426667 -37.570436 
L 210.84 -37.551274 
L 211.253333 -37.532346 
L 211.666667 -37.513654 
L 212.08 -37.4952 
L 212.493333 -37.476986 
L 212.906667 -37.459014 
L 213.32 -37.441286 
L 213.733333 -37.423803 
L 214.146667 -37.406567 
L 214.56 -37.38958 
L 214.973333 -37.372844 
L 215.386667 -37.35636 
L 215.8 -37.340129 
L 216.213333 -37.324154 
L 216.626667 -37.308437 
L 217.04 -37.292977 
L 217.453333 -37.277778 
L 217.866667 -37.262841 
L 218.28 -37.248167 
L 218.693333 -37.233758 
L 219.106667 -37.219615 
L 219.52 -37.205739 
L 219.933333 -37.192132 
L 220.346667 -37.178796 
L 220.76 -37.165731 
L 221.173333 -37.152939 
L 221.586667 -37.140421 
L 222 -37.128179 
L 222.413333 -37.116213 
L 222.826667 -37.104526 
L 223.24 -37.093117 
L 223.653333 -37.081988 
L 224.066667 -37.071141 
L 224.48 -37.060576 
L 224.893333 -37.050295 
L 225.306667 -37.040298 
L 225.72 -37.030587 
L 226.133333 -37.021162 
L 226.546667 -37.012024 
L 226.96 -37.003175 
L 227.373333 -36.994615 
L 227.786667 -36.986345 
L 228.2 -36.978365 
L 228.613333 -36.970678 
L 229.026667 -36.963283 
L 229.44 -36.956181 
L 229.853333 -36.949373 
L 230.266667 -36.942859 
L 230.68 -36.936641 
L 231.093333 -36.930718 
L 231.506667 -36.925092 
L 231.92 -36.919763 
L 232.333333 -36.914732 
L 232.746667 -36.909998 
L 233.16 -36.905563 
L 233.573333 -36.901427 
L 233.986667 -36.89759 
L 234.4 -36.894053 
L 234.813333 -36.890816 
L 235.226667 -36.88788 
L 235.64 -36.885244 
L 236.053333 -36.882909 
L 236.466667 -36.880876 
L 236.88 -36.879143 
L 237.293333 -36.877713 
L 237.706667 -36.876584 
L 238.12 -36.875757 
L 238.533333 -36.875232 
L 238.946667 -36.875009 
L 239.36 -36.875087 
L 239.773333 -36.875468 
L 240.186667 -36.876151 
L 240.6 -36.877136 
L 241.013333 -36.878422 
L 241.426667 -36.88001 
L 241.84 -36.8819 
L 242.253333 -36.884091 
L 242.666667 -36.886583 
L 243.08 -36.889376 
L 243.493333 -36.892469 
L 243.906667 -36.895863 
L 244.32 -36.899556 
L 244.733333 -36.903549 
L 245.146667 -36.907842 
L 245.56 -36.912433 
L 245.973333 -36.917322 
L 246.386667 -36.922509 
L 246.8 -36.927993 
L 247.213333 -36.933774 
L 247.626667 -36.939851 
L 248.04 -36.946224 
L 248.453333 -36.952891 
L 248.866667 -36.959853 
L 249.28 -36.967108 
L 249.693333 -36.974656 
L 250.106667 -36.982496 
L 250.52 -36.990627 
L 250.933333 -36.999049 
L 250.933333 -29.449049 
L 250.933333 -29.449049 
L 250.52 -29.440627 
L 250.106667 -29.432496 
L 249.693333 -29.424656 
L 249.28 -29.417108 
L 248.866667 -29.409853 
L 248.453333 -29.402891 
L 248.04 -29.396224 
L 247.626667 -29.389851 
L 247.213333 -29.383774 
L 246.8 -29.377993 
L 246.386667 -29.372509 
L 245.973333 -29.367322 
L 245.56 -29.362433 
L 245.146667 -29.357842 
L 244.733333 -29.353549 
L 244.32 -29.349556 
L 243.906667 -29.345863 
L 243.493333 -29.342469 
L 243.08 -29.339376 
L 242.666667 -29.336583 
L 242.253333 -29.334091 
L 241.84 -29.3319 
L 241.426667 -29.33001 
L 241.013333 -29.328422 
L 240.6 -29.327136 
L 240.186667 -29.326151 
L 239.773333 -29.325468 
L 239.36 -29.325087 
L 238.946667 -29.325009 
L 238.533333 -29.325232 
L 238.12 -29.325757 
L 237.706667 -29.326584 
L 237.293333 -29.327713 
L 236.88 -29.329143 
L 236.466667 -29.330876 
L 236.053333 -29.332909 
L 235.64 -29.335244 
L 235.226667 -29.33788 
L 234.813333 -29.340816 
L 234.4 -29.344053 
L 233.986667 -29.34759 
L 233.573333 -29.351427 
L 233.16 -29.355563 
L 232.746667 -29.359998 
L 232.333333 -29.364732 
L 231.92 -29.369763 
L 231.506667 -29.375092 
L 231.093333 -29.380718 
L 230.68 -29.386641 
L 230.266667 -29.392859 
L 229.853333 -29.399373 
L 229.44 -29.406181 
L 229.026667 -29.413283 
L 228.613333 -29.420678 
L 228.2 -29.428365 
L 227.786667 -29.436345 
L 227.373333 -29.444615 
L 226.96 -29.453175 
L 226.546667 -29.462024 
L 226.133333 -29.471162 
L 225.72 -29.480587 
L 225.306667 -29.490298 
L 224.893333 -29.500295 
L 224.48 -29.510576 
L 224.066667 -29.521141 
L 223.653333 -29.531988 
L 223.24 -29.543117 
L 222.826667 -29.554526 
L 222.413333 -29.566213 
L 222 -29.578179 
L 221.586667 -29.590421 
L 221.173333 -29.602939 
L 220.76 -29.615731 
L 220.346667 -29.628796 
L 219.933333 -29.642132 
L 219.52 -29.655739 
L 219.106667 -29.669615 
L 218.693333 -29.683758 
L 218.28 -29.698167 
L 217.866667 -29.712841 
L 217.453333 -29.727778 
L 217.04 -29.742977 
L 216.626667 -29.758437 
L 216.213333 -29.774154 
L 215.8 -29.790129 
L 215.386667 -29.80636 
L 214.973333 -29.822844 
L 214.56 -29.83958 
L 214.146667 -29.856567 
L 213.733333 -29.873803 
L 213.32 -29.891286 
L 212.906667 -29.909014 
L 212.493333 -29.926986 
L 212.08 -29.9452 
L 211.666667 -29.963654 
L 211.253333 -29.982346 
L 210.84 -30.001274 
L 210.426667 -30.020436 
L 210.013333 -30.039831 
L 209.6 -30.059456 
L 209.186667 -30.07931 
L 208.773333 -30.099391 
L 208.36 -30.119696 
L 207.946667 -30.140224 
L 207.533333 -30.160972 
L 207.12 -30.181938 
L 206.706667 -30.203121 
L 206.293333 -30.224518 
L 205.88 -30.246127 
L 205.466667 -30.267946 
L 205.053333 -30.289973 
L 204.64 -30.312205 
L 204.226667 -30.33464 
L 203.813333 -30.357277 
L 203.4 -30.380112 
L 202.986667 -30.403144 
L 202.573333 -30.42637 
L 202.16 -30.449787 
L 201.746667 -30.473395 
L 201.333333 -30.497189 
L 200.92 -30.521168 
L 200.506667 -30.54533 
L 200.093333 -30.569672 
L 199.68 -30.594191 
L 199.266667 -30.618885 
L 198.853333 -30.643752 
L 198.44 -30.668789 
L 198.026667 -30.693993 
L 197.613333 -30.719363 
L 197.2 -30.744895 
L 196.786667 -30.770587 
L 196.373333 -30.796437 
L 195.96 -30.822441 
L 195.546667 -30.848598 
L 195.133333 -30.874904 
L 194.72 -30.901358 
L 194.306667 -30.927955 
L 193.893333 -30.954695 
L 193.48 -30.981573 
L 193.066667 -31.008588 
L 192.653333 -31.035737 
L 192.24 -31.063016 
L 191.826667 -31.090424 
L 191.413333 -31.117957 
L 191 -31.145613 
L 190.586667 -31.173388 
L 190.173333 -31.201281 
L 189.76 -31.229288 
L 189.346667 -31.257407 
L 188.933333 -31.285635 
L 188.52 -31.313968 
L 188.106667 -31.342405 
L 187.693333 -31.370942 
L 187.28 -31.399576 
L 186.866667 -31.428305 
L 186.453333 -31.457125 
L 186.04 -31.486034 
L 185.626667 -31.515029 
L 185.213333 -31.544108 
L 184.8 -31.573266 
L 184.386667 -31.602501 
L 183.973333 -31.631811 
L 183.56 -31.661192 
L 183.146667 -31.690641 
L 182.733333 -31.720156 
L 182.32 -31.749733 
L 181.906667 -31.77937 
L 181.493333 -31.809063 
L 181.08 -31.83881 
L 180.666667 -31.868608 
L 180.253333 -31.898453 
L 179.84 -31.928343 
L 179.426667 -31.958275 
L 179.013333 -31.988245 
L 178.6 -32.018251 
L 178.186667 -32.048289 
L 177.773333 -32.078357 
L 177.36 -32.108452 
L 176.946667 -32.138571 
L 176.533333 -32.16871 
L 176.12 -32.198867 
L 175.706667 -32.229038 
L 175.293333 -32.259221 
L 174.88 -32.289413 
L 174.466667 -32.31961 
L 174.053333 -32.34981 
L 173.64 -32.380009 
L 173.226667 -32.410205 
L 172.813333 -32.440394 
L 172.4 -32.470574 
L 171.986667 -32.500741 
L 171.573333 -32.530892 
L 171.16 -32.561025 
L 170.746667 -32.591136 
L 170.333333 -32.621223 
L 169.92 -32.651282 
L 169.506667 -32.681311 
L 169.093333 -32.711306 
L 168.68 -32.741264 
L 168.266667 -32.771182 
L 167.853333 -32.801058 
L 167.44 -32.830889 
L 167.026667 -32.860671 
L 166.613333 -32.890401 
L 166.2 -32.920076 
L 165.786667 -32.949695 
L 165.373333 -32.979252 
L 164.96 -33.008747 
L 164.546667 -33.038174 
L 164.133333 -33.067533 
L 163.72 -33.096819 
L 163.306667 -33.12603 
L 162.893333 -33.155163 
L 162.48 -33.184215 
L 162.066667 -33.213184 
L 161.653333 -33.242065 
L 161.24 -33.270856 
L 160.826667 -33.299555 
L 160.413333 -33.328159 
L 160 -33.356664 
L 159.586667 -33.385068 
L 159.173333 -33.413368 
L 158.76 -33.441562 
L 158.346667 -33.469645 
L 157.933333 -33.497616 
L 157.52 -33.525472 
L 157.106667 -33.55321 
L 156.693333 -33.580827 
L 156.28 -33.60832 
L 155.866667 -33.635687 
L 155.453333 -33.662925 
L 155.04 -33.690031 
L 154.626667 -33.717003 
L 154.213333 -33.743838 
L 153.8 -33.770532 
L 153.386667 -33.797084 
L 152.973333 -33.823491 
L 152.56 -33.84975 
L 152.146667 -33.875859 
L 151.733333 -33.901814 
L 151.32 -33.927614 
L 150.906667 -33.953255 
L 150.493333 -33.978736 
L 150.08 -34.004053 
L 149.666667 -34.029205 
L 149.253333 -34.054188 
L 148.84 -34.079 
L 148.426667 -34.103639 
L 148.013333 -34.128101 
L 147.6 -34.152386 
L 147.186667 -34.17649 
L 146.773333 -34.20041 
L 146.36 -34.224145 
L 145.946667 -34.247693 
L 145.533333 -34.271049 
L 145.12 -34.294214 
L 144.706667 -34.317183 
L 144.293333 -34.339955 
L 143.88 -34.362528 
L 143.466667 -34.384899 
L 143.053333 -34.407066 
L 142.64 -34.429026 
L 142.226667 -34.450779 
L 141.813333 -34.472321 
L 141.4 -34.49365 
L 140.986667 -34.514764 
L 140.573333 -34.535661 
L 140.16 -34.556339 
L 139.746667 -34.576796 
L 139.333333 -34.59703 
L 138.92 -34.617038 
L 138.506667 -34.63682 
L 138.093333 -34.656372 
L 137.68 -34.675693 
L 137.266667 -34.694781 
L 136.853333 -34.713634 
L 136.44 -34.73225 
L 136.026667 -34.750628 
L 135.613333 -34.768765 
L 135.2 -34.786659 
L 134.786667 -34.804309 
L 134.373333 -34.821714 
L 133.96 -34.838871 
L 133.546667 -34.855778 
L 133.133333 -34.872434 
L 132.72 -34.888838 
L 132.306667 -34.904987 
L 131.893333 -34.92088 
L 131.48 -34.936516 
L 131.066667 -34.951892 
L 130.653333 -34.967008 
L 130.24 -34.981862 
L 129.826667 -34.996451 
L 129.413333 -35.010776 
L 129 -35.024834 
L 128.586667 -35.038625 
L 128.173333 -35.052145 
L 127.76 -35.065395 
L 127.346667 -35.078374 
L 126.933333 -35.091078 
L 126.52 -35.103508 
L 126.106667 -35.115663 
L 125.693333 -35.12754 
L 125.28 -35.139139 
L 124.866667 -35.150458 
L 124.453333 -35.161497 
L 124.04 -35.172255 
L 123.626667 -35.182729 
L 123.213333 -35.19292 
L 122.8 -35.202826 
L 122.386667 -35.212447 
L 121.973333 -35.22178 
L 121.56 -35.230826 
L 121.146667 -35.239583 
L 120.733333 -35.248051 
L 120.32 -35.256229 
L 119.906667 -35.264115 
L 119.493333 -35.27171 
L 119.08 -35.279011 
L 118.666667 -35.28602 
L 118.253333 -35.292734 
L 117.84 -35.299154 
L 117.426667 -35.305278 
L 117.013333 -35.311106 
L 116.6 -35.316638 
L 116.186667 -35.321872 
L 115.773333 -35.326809 
L 115.36 -35.331447 
L 114.946667 -35.335787 
L 114.533333 -35.339828 
L 114.12 -35.343569 
L 113.706667 -35.34701 
L 113.293333 -35.350152 
L 112.88 -35.352992 
L 112.466667 -35.355532 
L 112.053333 -35.357771 
L 111.64 -35.359709 
L 111.226667 -35.361345 
L 110.813333 -35.36268 
L 110.4 -35.363712 
L 109.986667 -35.364443 
L 109.573333 -35.364872 
L 109.16 -35.364999 
L 108.746667 -35.364824 
L 108.333333 -35.364347 
L 107.92 -35.363568 
L 107.506667 -35.362487 
L 107.093333 -35.361105 
L 106.68 -35.35942 
L 106.266667 -35.357435 
L 105.853333 -35.355148 
L 105.44 -35.35256 
L 105.026667 -35.349672 
L 104.613333 -35.346482 
L 104.2 -35.342993 
L 103.786667 -35.339204 
L 103.373333 -35.335116 
L 102.96 -35.330728 
L 102.546667 -35.326042 
L 102.133333 -35.321058 
L 101.72 -35.315776 
L 101.306667 -35.310198 
L 100.893333 -35.304322 
L 100.48 -35.298151 
L 100.066667 -35.291685 
L 99.653333 -35.284923 
L 99.24 -35.277868 
L 98.826667 -35.27052 
L 98.413333 -35.262879 
L 98 -35.254946 
L 97.586667 -35.246722 
L 97.173333 -35.238208 
L 96.76 -35.229405 
L 96.346667 -35.220313 
L 95.933333 -35.210934 
L 95.52 -35.201268 
L 95.106667 -35.191316 
L 94.693333 -35.18108 
L 94.28 -35.17056 
L 93.866667 -35.159758 
L 93.453333 -35.148674 
L 93.04 -35.13731 
L 92.626667 -35.125667 
L 92.213333 -35.113745 
L 91.8 -35.101547 
L 91.386667 -35.089073 
L 90.973333 -35.076325 
L 90.56 -35.063303 
L 90.146667 -35.05001 
L 89.733333 -35.036446 
L 89.32 -35.022613 
L 88.906667 -35.008513 
L 88.493333 -34.994146 
L 88.08 -34.979514 
L 87.666667 -34.964618 
L 87.253333 -34.949461 
L 86.84 -34.934043 
L 86.426667 -34.918366 
L 86.013333 -34.902432 
L 85.6 -34.886242 
L 85.186667 -34.869798 
L 84.773333 -34.853102 
L 84.36 -34.836155 
L 83.946667 -34.818959 
L 83.533333 -34.801515 
L 83.12 -34.783825 
L 82.706667 -34.765892 
L 82.293333 -34.747717 
L 81.88 -34.729301 
L 81.466667 -34.710647 
L 81.053333 -34.691757 
L 80.64 -34.672631 
L 80.226667 -34.653273 
L 79.813333 -34.633685 
L 79.4 -34.613867 
L 78.986667 -34.593822 
L 78.573333 -34.573553 
L 78.16 -34.55306 
L 77.746667 -34.532347 
L 77.333333 -34.511415 
L 76.92 -34.490267 
L 76.506667 -34.468904 
L 76.093333 -34.447328 
L 75.68 -34.425543 
L 75.266667 -34.403549 
L 74.853333 -34.381349 
L 74.44 -34.358946 
L 74.026667 -34.336342 
L 73.613333 -34.313538 
L 73.2 -34.290537 
L 72.786667 -34.267342 
L 72.373333 -34.243955 
L 71.96 -34.220378 
L 71.546667 -34.196613 
L 71.133333 -34.172663 
L 70.72 -34.14853 
L 70.306667 -34.124217 
L 69.893333 -34.099726 
L 69.48 -34.07506 
L 69.066667 -34.05022 
L 68.653333 -34.02521 
L 68.24 -34.000032 
L 67.826667 -33.974689 
L 67.413333 -33.949182 
L 67 -33.923515 
L 66.586667 -33.897691 
L 66.173333 -33.871711 
L 65.76 -33.845578 
L 65.346667 -33.819295 
L 64.933333 -33.792865 
L 64.52 -33.76629 
L 64.106667 -33.739573 
L 63.693333 -33.712717 
L 63.28 -33.685723 
L 62.866667 -33.658596 
L 62.453333 -33.631337 
L 62.04 -33.60395 
L 61.626667 -33.576437 
L 61.213333 -33.5488 
L 60.8 -33.521043 
L 60.386667 -33.493169 
L 59.973333 -33.46518 
L 59.56 -33.437079 
L 59.146667 -33.408868 
L 58.733333 -33.380551 
L 58.32 -33.352131 
L 57.906667 -33.32361 
L 57.493333 -33.294991 
L 57.08 -33.266277 
L 56.666667 -33.237471 
L 56.253333 -33.208576 
L 55.84 -33.179594 
L 55.426667 -33.150529 
L 55.013333 -33.121383 
L 54.6 -33.09216 
L 54.186667 -33.062862 
L 53.773333 -33.033492 
L 53.36 -33.004053 
L 52.946667 -32.974549 
L 52.533333 -32.944981 
L 52.12 -32.915354 
L 51.706667 -32.885669 
L 51.293333 -32.855931 
L 50.88 -32.826141 
L 50.466667 -32.796303 
L 50.053333 -32.76642 
L 49.64 -32.736495 
L 49.226667 -32.706531 
L 48.813333 -32.67653 
L 48.4 -32.646497 
L 47.986667 -32.616433 
L 47.573333 -32.586342 
L 47.16 -32.556227 
L 46.746667 -32.526091 
L 46.333333 -32.495937 
L 45.92 -32.465768 
L 45.506667 -32.435586 
L 45.093333 -32.405396 
L 44.68 -32.375199 
L 44.266667 -32.345 
z
" id="m9aaf6711b6" style="stroke:#257352;stroke-opacity:0.8;"/>
    </defs>
    <g clip-path="url(#p61a84554d4)">
     <use style="fill:#257352;fill-opacity:0.8;stroke:#257352;stroke-opacity:0.8;" x="0" xlink:href="#m9aaf6711b6" y="144"/>
    </g>
   </g>
   <g id="patch_4">
    <path clip-path="url(#p61a84554d4)" d="M 44.266667 107.88 
L 44.266667 104.105 
L 46.746667 104.105 
L 46.746667 102.595 
L 41.786667 101.085 
L 38.48 101.085 
L 38.48 114.675 
L 41.786667 114.675 
L 46.746667 113.165 
L 46.746667 111.655 
L 44.266667 111.655 
z
" style="fill:#808080;opacity:0.8;stroke:#000000;stroke-linejoin:miter;"/>
   </g>
   <g id="patch_5">
    <path clip-path="url(#p61a84554d4)" d="M 250.933333 110.775951 
L 250.933333 107.000951 
L 248.453333 107.000951 
L 248.453333 105.490951 
L 253.413333 103.980951 
L 256.72 103.980951 
L 256.72 117.570951 
L 253.413333 117.570951 
L 248.453333 116.060951 
L 248.453333 114.550951 
L 250.933333 114.550951 
z
" style="fill:#808080;opacity:0.8;stroke:#000000;stroke-linejoin:miter;"/>
   </g>
   <g id="matplotlib.axis_3">
    <g id="xtick_7"/>
    <g id="xtick_8"/>
    <g id="xtick_9"/>
    <g id="xtick_10"/>
    <g id="xtick_11"/>
    <g id="xtick_12"/>
   </g>
   <g id="matplotlib.axis_4">
    <g id="ytick_4"/>
    <g id="ytick_5"/>
    <g id="ytick_6"/>
   </g>
   <g id="line2d_2">
    <path clip-path="url(#p61a84554d4)" d="M 44.266667 107.88 
L 69.066667 106.17478 
L 83.12 105.441175 
L 95.106667 105.033684 
L 106.68 104.86558 
L 117.84 104.925846 
L 129.413333 105.214224 
L 141.813333 105.752679 
L 156.28 106.61668 
L 179.426667 108.266725 
L 200.093333 109.655328 
L 213.733333 110.351197 
L 225.72 110.744413 
L 237.293333 110.897287 
L 248.453333 110.822109 
L 250.933333 110.775951 
L 250.933333 110.775951 
" style="fill:none;stroke:#000000;stroke-dasharray:11.1,4.8;stroke-dashoffset:0;stroke-width:3;"/>
   </g>
   <g id="line2d_3">
    <path clip-path="url(#p61a84554d4)" d="M 44.266667 104.105 
L 69.066667 102.39978 
L 83.12 101.666175 
L 95.106667 101.258684 
L 106.68 101.09058 
L 117.84 101.150846 
L 129.413333 101.439224 
L 141.813333 101.977679 
L 156.28 102.84168 
L 179.426667 104.491725 
L 200.093333 105.880328 
L 213.733333 106.576197 
L 225.72 106.969413 
L 237.293333 107.122287 
L 248.453333 107.047109 
L 250.933333 107.000951 
L 250.933333 107.000951 
" style="fill:none;stroke:#257352;stroke-linecap:square;stroke-width:2;"/>
   </g>
   <g id="line2d_4">
    <path clip-path="url(#p61a84554d4)" d="M 44.266667 111.655 
L 69.066667 109.94978 
L 83.12 109.216175 
L 95.106667 108.808684 
L 106.68 108.64058 
L 117.84 108.700846 
L 129.413333 108.989224 
L 141.813333 109.527679 
L 156.28 110.39168 
L 179.426667 112.041725 
L 200.093333 113.430328 
L 213.733333 114.126197 
L 225.72 114.519413 
L 237.293333 114.672287 
L 248.453333 114.597109 
L 250.933333 114.550951 
L 250.933333 114.550951 
" style="fill:none;stroke:#257352;stroke-linecap:square;stroke-width:2;"/>
   </g>
   <g id="line2d_5">
    <path clip-path="url(#p61a84554d4)" d="M 44.266667 111.655 
L 44.266667 104.105 
" style="fill:none;stroke:#257352;stroke-linecap:square;stroke-width:2;"/>
   </g>
   <g id="line2d_6">
    <path clip-path="url(#p61a84554d4)" d="M 250.933333 114.550951 
L 250.933333 107.000951 
" style="fill:none;stroke:#257352;stroke-linecap:square;stroke-width:2;"/>
   </g>
  </g>
 </g>
 <defs>
  <clipPath id="pf23ca328bd">
   <rect height="72.48" width="223.2" x="36" y="17.28"/>
  </clipPath>
  <clipPath id="p61a84554d4">
   <rect height="36.24" width="223.2" x="36" y="89.76"/>
  </clipPath>
 </defs>
</svg>
