<?xml version="1.0" encoding="utf-8" standalone="no"?>
<!DOCTYPE svg PUBLIC "-//W3C//DTD SVG 1.1//EN"
  "http://www.w3.org/Graphics/SVG/1.1/DTD/svg11.dtd">
<!-- Created with matplotlib (https://matplotlib.org/) -->
<svg height="144pt" version="1.1" viewBox="0 0 288 144" width="288pt" xmlns="http://www.w3.org/2000/svg" xmlns:xlink="http://www.w3.org/1999/xlink">
 <defs>
  <style type="text/css">
*{stroke-linecap:butt;stroke-linejoin:round;white-space:pre;}
  </style>
 </defs>
 <g id="figure_1">
  <g id="patch_1">
   <path d="M 0 144 
L 288 144 
L 288 0 
L 0 0 
z
" style="fill:none;"/>
  </g>
  <g id="axes_1">
   <g id="patch_2">
    <path d="M 36 91.2 
L 259.2 91.2 
L 259.2 17.28 
L 36 17.28 
z
" style="fill:none;"/>
   </g>
   <g id="matplotlib.axis_1">
    <g id="xtick_1"/>
    <g id="xtick_2"/>
    <g id="xtick_3"/>
    <g id="xtick_4"/>
    <g id="xtick_5"/>
    <g id="xtick_6"/>
   </g>
   <g id="matplotlib.axis_2">
    <g id="ytick_1"/>
    <g id="ytick_2"/>
    <g id="ytick_3"/>
   </g>
   <g id="line2d_1">
    <path clip-path="url(#p01db8c30d4)" d="M 44.266667 50.178343 
L 50.466667 41.250872 
L 54.186667 36.28039 
L 57.08 32.737563 
L 59.973333 29.550421 
L 62.453333 27.147282 
L 64.933333 25.082969 
L 67 23.642496 
L 69.066667 22.471542 
L 71.133333 21.581689 
L 73.2 20.981883 
L 74.853333 20.715151 
L 76.506667 20.64 
L 78.16 20.757186 
L 79.813333 21.06631 
L 81.466667 21.565818 
L 83.533333 22.453713 
L 85.6 23.62704 
L 87.666667 25.075382 
L 89.733333 26.785742 
L 92.213333 29.162133 
L 94.693333 31.862451 
L 97.586667 35.374859 
L 100.893333 39.789191 
L 104.613333 45.14202 
L 110.4 53.920317 
L 117.426667 64.523024 
L 121.146667 69.762736 
L 124.453333 74.042667 
L 127.346667 77.417827 
L 129.826667 79.991054 
L 132.306667 82.236525 
L 134.373333 83.838506 
L 136.44 85.18243 
L 138.506667 86.258525 
L 140.573333 87.05967 
L 142.64 87.581459 
L 144.706667 87.822227 
L 146.36 87.813145 
L 148.426667 87.552652 
L 150.493333 87.021028 
L 152.56 86.22686 
L 154.626667 85.181263 
L 156.693333 83.897755 
L 159.173333 82.065868 
L 161.653333 79.945429 
L 164.546667 77.153869 
L 167.853333 73.620166 
L 171.986667 68.834448 
L 186.04 52.201329 
L 189.346667 48.802231 
L 192.24 46.14698 
L 194.72 44.149472 
L 197.2 42.43873 
L 199.266667 41.249232 
L 201.333333 40.286229 
L 203.4 39.558225 
L 205.466667 39.071167 
L 207.533333 38.828386 
L 209.6 38.830571 
L 211.666667 39.075762 
L 213.733333 39.559379 
L 215.8 40.274272 
L 217.866667 41.210794 
L 220.346667 42.610068 
L 222.826667 44.285974 
L 225.72 46.551418 
L 228.613333 49.100024 
L 232.333333 52.69689 
L 237.706667 58.264528 
L 245.146667 65.947022 
L 248.866667 69.44803 
L 250.933333 71.222939 
L 250.933333 71.222939 
" style="fill:none;stroke:#257352;stroke-linecap:square;stroke-width:3;"/>
   </g>
  </g>
  <g id="axes_2">
   <g id="patch_3">
    <path d="M 36 128.16 
L 259.2 128.16 
L 259.2 91.2 
L 36 91.2 
z
" style="fill:none;"/>
   </g>
   <g id="PolyCollection_1">
    <defs>
     <path d="M 44.266667 -30.47 
L 44.266667 -38.17 
L 44.68 -38.200799 
L 45.093333 -38.231596 
L 45.506667 -38.262386 
L 45.92 -38.293167 
L 46.333333 -38.323936 
L 46.746667 -38.354689 
L 47.16 -38.385424 
L 47.573333 -38.416137 
L 47.986667 -38.446826 
L 48.4 -38.477487 
L 48.813333 -38.508117 
L 49.226667 -38.538714 
L 49.64 -38.569273 
L 50.053333 -38.599793 
L 50.466667 -38.630269 
L 50.88 -38.6607 
L 51.293333 -38.691082 
L 51.706667 -38.721411 
L 52.12 -38.751685 
L 52.533333 -38.781902 
L 52.946667 -38.812056 
L 53.36 -38.842147 
L 53.773333 -38.872171 
L 54.186667 -38.902124 
L 54.6 -38.932004 
L 55.013333 -38.961808 
L 55.426667 -38.991533 
L 55.84 -39.021175 
L 56.253333 -39.050733 
L 56.666667 -39.080202 
L 57.08 -39.109581 
L 57.493333 -39.138865 
L 57.906667 -39.168053 
L 58.32 -39.19714 
L 58.733333 -39.226125 
L 59.146667 -39.255005 
L 59.56 -39.283776 
L 59.973333 -39.312435 
L 60.386667 -39.34098 
L 60.8 -39.369408 
L 61.213333 -39.397717 
L 61.626667 -39.425902 
L 62.04 -39.453962 
L 62.453333 -39.481894 
L 62.866667 -39.509694 
L 63.28 -39.53736 
L 63.693333 -39.56489 
L 64.106667 -39.59228 
L 64.52 -39.619528 
L 64.933333 -39.646631 
L 65.346667 -39.673586 
L 65.76 -39.700391 
L 66.173333 -39.727043 
L 66.586667 -39.753539 
L 67 -39.779877 
L 67.413333 -39.806053 
L 67.826667 -39.832067 
L 68.24 -39.857914 
L 68.653333 -39.883592 
L 69.066667 -39.909099 
L 69.48 -39.934432 
L 69.893333 -39.959588 
L 70.306667 -39.984566 
L 70.72 -40.009362 
L 71.133333 -40.033974 
L 71.546667 -40.0584 
L 71.96 -40.082637 
L 72.373333 -40.106683 
L 72.786667 -40.130535 
L 73.2 -40.15419 
L 73.613333 -40.177648 
L 74.026667 -40.200905 
L 74.44 -40.223958 
L 74.853333 -40.246807 
L 75.266667 -40.269447 
L 75.68 -40.291878 
L 76.093333 -40.314097 
L 76.506667 -40.336101 
L 76.92 -40.357888 
L 77.333333 -40.379457 
L 77.746667 -40.400804 
L 78.16 -40.421929 
L 78.573333 -40.442829 
L 78.986667 -40.463501 
L 79.4 -40.483944 
L 79.813333 -40.504155 
L 80.226667 -40.524133 
L 80.64 -40.543876 
L 81.053333 -40.563381 
L 81.466667 -40.582647 
L 81.88 -40.601672 
L 82.293333 -40.620453 
L 82.706667 -40.638989 
L 83.12 -40.657279 
L 83.533333 -40.67532 
L 83.946667 -40.69311 
L 84.36 -40.710648 
L 84.773333 -40.727932 
L 85.186667 -40.74496 
L 85.6 -40.761731 
L 86.013333 -40.778242 
L 86.426667 -40.794493 
L 86.84 -40.810481 
L 87.253333 -40.826205 
L 87.666667 -40.841664 
L 88.08 -40.856855 
L 88.493333 -40.871778 
L 88.906667 -40.88643 
L 89.32 -40.900811 
L 89.733333 -40.914919 
L 90.146667 -40.928752 
L 90.56 -40.942309 
L 90.973333 -40.95559 
L 91.386667 -40.968591 
L 91.8 -40.981313 
L 92.213333 -40.993754 
L 92.626667 -41.005912 
L 93.04 -41.017787 
L 93.453333 -41.029376 
L 93.866667 -41.04068 
L 94.28 -41.051697 
L 94.693333 -41.062426 
L 95.106667 -41.072866 
L 95.52 -41.083015 
L 95.933333 -41.092873 
L 96.346667 -41.102438 
L 96.76 -41.111711 
L 97.173333 -41.120689 
L 97.586667 -41.129372 
L 98 -41.137759 
L 98.413333 -41.14585 
L 98.826667 -41.153643 
L 99.24 -41.161137 
L 99.653333 -41.168332 
L 100.066667 -41.175228 
L 100.48 -41.181823 
L 100.893333 -41.188117 
L 101.306667 -41.194109 
L 101.72 -41.199799 
L 102.133333 -41.205185 
L 102.546667 -41.210268 
L 102.96 -41.215047 
L 103.373333 -41.219522 
L 103.786667 -41.223692 
L 104.2 -41.227556 
L 104.613333 -41.231115 
L 105.026667 -41.234367 
L 105.44 -41.237313 
L 105.853333 -41.239952 
L 106.266667 -41.242285 
L 106.68 -41.24431 
L 107.093333 -41.246027 
L 107.506667 -41.247437 
L 107.92 -41.24854 
L 108.333333 -41.249334 
L 108.746667 -41.24982 
L 109.16 -41.249999 
L 109.573333 -41.24987 
L 109.986667 -41.249432 
L 110.4 -41.248687 
L 110.813333 -41.247633 
L 111.226667 -41.246272 
L 111.64 -41.244604 
L 112.053333 -41.242628 
L 112.466667 -41.240344 
L 112.88 -41.237754 
L 113.293333 -41.234857 
L 113.706667 -41.231653 
L 114.12 -41.228143 
L 114.533333 -41.224328 
L 114.946667 -41.220207 
L 115.36 -41.21578 
L 115.773333 -41.21105 
L 116.186667 -41.206015 
L 116.6 -41.200677 
L 117.013333 -41.195035 
L 117.426667 -41.189091 
L 117.84 -41.182846 
L 118.253333 -41.176298 
L 118.666667 -41.169451 
L 119.08 -41.162303 
L 119.493333 -41.154856 
L 119.906667 -41.147111 
L 120.32 -41.139068 
L 120.733333 -41.130728 
L 121.146667 -41.122092 
L 121.56 -41.11316 
L 121.973333 -41.103935 
L 122.386667 -41.094416 
L 122.8 -41.084604 
L 123.213333 -41.074501 
L 123.626667 -41.064108 
L 124.04 -41.053425 
L 124.453333 -41.042454 
L 124.866667 -41.031196 
L 125.28 -41.019651 
L 125.693333 -41.007822 
L 126.106667 -40.995709 
L 126.52 -40.983313 
L 126.933333 -40.970636 
L 127.346667 -40.957679 
L 127.76 -40.944443 
L 128.173333 -40.93093 
L 128.586667 -40.91714 
L 129 -40.903076 
L 129.413333 -40.888739 
L 129.826667 -40.874129 
L 130.24 -40.85925 
L 130.653333 -40.844101 
L 131.066667 -40.828685 
L 131.48 -40.813003 
L 131.893333 -40.797057 
L 132.306667 -40.780848 
L 132.72 -40.764378 
L 133.133333 -40.747648 
L 133.546667 -40.730661 
L 133.96 -40.713418 
L 134.373333 -40.69592 
L 134.786667 -40.67817 
L 135.2 -40.660169 
L 135.613333 -40.641919 
L 136.026667 -40.623422 
L 136.44 -40.604679 
L 136.853333 -40.585693 
L 137.266667 -40.566465 
L 137.68 -40.546998 
L 138.093333 -40.527293 
L 138.506667 -40.507353 
L 138.92 -40.487178 
L 139.333333 -40.466772 
L 139.746667 -40.446136 
L 140.16 -40.425273 
L 140.573333 -40.404184 
L 140.986667 -40.382872 
L 141.4 -40.361338 
L 141.813333 -40.339585 
L 142.226667 -40.317615 
L 142.64 -40.295431 
L 143.053333 -40.273034 
L 143.466667 -40.250427 
L 143.88 -40.227611 
L 144.293333 -40.20459 
L 144.706667 -40.181366 
L 145.12 -40.15794 
L 145.533333 -40.134315 
L 145.946667 -40.110494 
L 146.36 -40.086479 
L 146.773333 -40.062273 
L 147.186667 -40.037877 
L 147.6 -40.013294 
L 148.013333 -39.988527 
L 148.426667 -39.963578 
L 148.84 -39.93845 
L 149.253333 -39.913145 
L 149.666667 -39.887666 
L 150.08 -39.862015 
L 150.493333 -39.836194 
L 150.906667 -39.810208 
L 151.32 -39.784057 
L 151.733333 -39.757744 
L 152.146667 -39.731273 
L 152.56 -39.704646 
L 152.973333 -39.677865 
L 153.386667 -39.650934 
L 153.8 -39.623854 
L 154.213333 -39.596629 
L 154.626667 -39.569261 
L 155.04 -39.541754 
L 155.453333 -39.514109 
L 155.866667 -39.48633 
L 156.28 -39.458419 
L 156.693333 -39.43038 
L 157.106667 -39.402214 
L 157.52 -39.373925 
L 157.933333 -39.345516 
L 158.346667 -39.316989 
L 158.76 -39.288348 
L 159.173333 -39.259594 
L 159.586667 -39.230732 
L 160 -39.201764 
L 160.413333 -39.172692 
L 160.826667 -39.14352 
L 161.24 -39.114251 
L 161.653333 -39.084887 
L 162.066667 -39.055432 
L 162.48 -39.025889 
L 162.893333 -38.996259 
L 163.306667 -38.966548 
L 163.72 -38.936756 
L 164.133333 -38.906888 
L 164.546667 -38.876946 
L 164.96 -38.846934 
L 165.373333 -38.816853 
L 165.786667 -38.786708 
L 166.2 -38.756502 
L 166.613333 -38.726237 
L 167.026667 -38.695916 
L 167.44 -38.665542 
L 167.853333 -38.635119 
L 168.266667 -38.60465 
L 168.68 -38.574137 
L 169.093333 -38.543583 
L 169.506667 -38.512992 
L 169.92 -38.482367 
L 170.333333 -38.451711 
L 170.746667 -38.421027 
L 171.16 -38.390317 
L 171.573333 -38.359585 
L 171.986667 -38.328835 
L 172.4 -38.298068 
L 172.813333 -38.267289 
L 173.226667 -38.2365 
L 173.64 -38.205705 
L 174.053333 -38.174905 
L 174.466667 -38.144106 
L 174.88 -38.113309 
L 175.293333 -38.082517 
L 175.706667 -38.051734 
L 176.12 -38.020964 
L 176.533333 -37.990208 
L 176.946667 -37.95947 
L 177.36 -37.928753 
L 177.773333 -37.89806 
L 178.186667 -37.867394 
L 178.6 -37.836759 
L 179.013333 -37.806157 
L 179.426667 -37.775591 
L 179.84 -37.745065 
L 180.253333 -37.714581 
L 180.666667 -37.684143 
L 181.08 -37.653754 
L 181.493333 -37.623416 
L 181.906667 -37.593132 
L 182.32 -37.562907 
L 182.733333 -37.532742 
L 183.146667 -37.502641 
L 183.56 -37.472606 
L 183.973333 -37.442642 
L 184.386667 -37.41275 
L 184.8 -37.382933 
L 185.213333 -37.353196 
L 185.626667 -37.32354 
L 186.04 -37.293969 
L 186.453333 -37.264485 
L 186.866667 -37.235092 
L 187.28 -37.205793 
L 187.693333 -37.176589 
L 188.106667 -37.147486 
L 188.52 -37.118484 
L 188.933333 -37.089588 
L 189.346667 -37.060799 
L 189.76 -37.032122 
L 190.173333 -37.003558 
L 190.586667 -36.975111 
L 191 -36.946784 
L 191.413333 -36.918578 
L 191.826667 -36.890498 
L 192.24 -36.862546 
L 192.653333 -36.834725 
L 193.066667 -36.807037 
L 193.48 -36.779485 
L 193.893333 -36.752073 
L 194.306667 -36.724802 
L 194.72 -36.697676 
L 195.133333 -36.670697 
L 195.546667 -36.643868 
L 195.96 -36.617192 
L 196.373333 -36.590671 
L 196.786667 -36.564307 
L 197.2 -36.538105 
L 197.613333 -36.512065 
L 198.026667 -36.486192 
L 198.44 -36.460486 
L 198.853333 -36.434952 
L 199.266667 -36.409591 
L 199.68 -36.384406 
L 200.093333 -36.3594 
L 200.506667 -36.334575 
L 200.92 -36.309933 
L 201.333333 -36.285478 
L 201.746667 -36.261211 
L 202.16 -36.237134 
L 202.573333 -36.213251 
L 202.986667 -36.189564 
L 203.4 -36.166075 
L 203.813333 -36.142786 
L 204.226667 -36.119699 
L 204.64 -36.096818 
L 205.053333 -36.074144 
L 205.466667 -36.05168 
L 205.88 -36.029428 
L 206.293333 -36.007389 
L 206.706667 -35.985567 
L 207.12 -35.963964 
L 207.533333 -35.942581 
L 207.946667 -35.92142 
L 208.36 -35.900485 
L 208.773333 -35.879776 
L 209.186667 -35.859297 
L 209.6 -35.839048 
L 210.013333 -35.819033 
L 210.426667 -35.799253 
L 210.84 -35.77971 
L 211.253333 -35.760405 
L 211.666667 -35.741342 
L 212.08 -35.722522 
L 212.493333 -35.703946 
L 212.906667 -35.685617 
L 213.32 -35.667537 
L 213.733333 -35.649706 
L 214.146667 -35.632128 
L 214.56 -35.614804 
L 214.973333 -35.597735 
L 215.386667 -35.580923 
L 215.8 -35.56437 
L 216.213333 -35.548078 
L 216.626667 -35.532048 
L 217.04 -35.516282 
L 217.453333 -35.500781 
L 217.866667 -35.485547 
L 218.28 -35.470581 
L 218.693333 -35.455885 
L 219.106667 -35.441461 
L 219.52 -35.42731 
L 219.933333 -35.413433 
L 220.346667 -35.399831 
L 220.76 -35.386507 
L 221.173333 -35.373461 
L 221.586667 -35.360694 
L 222 -35.348209 
L 222.413333 -35.336006 
L 222.826667 -35.324086 
L 223.24 -35.31245 
L 223.653333 -35.301101 
L 224.066667 -35.290038 
L 224.48 -35.279263 
L 224.893333 -35.268778 
L 225.306667 -35.258582 
L 225.72 -35.248678 
L 226.133333 -35.239066 
L 226.546667 -35.229746 
L 226.96 -35.220721 
L 227.373333 -35.211991 
L 227.786667 -35.203557 
L 228.2 -35.195419 
L 228.613333 -35.187579 
L 229.026667 -35.180037 
L 229.44 -35.172794 
L 229.853333 -35.16585 
L 230.266667 -35.159207 
L 230.68 -35.152865 
L 231.093333 -35.146825 
L 231.506667 -35.141087 
L 231.92 -35.135652 
L 232.333333 -35.130521 
L 232.746667 -35.125693 
L 233.16 -35.12117 
L 233.573333 -35.116952 
L 233.986667 -35.113039 
L 234.4 -35.109432 
L 234.813333 -35.10613 
L 235.226667 -35.103136 
L 235.64 -35.100448 
L 236.053333 -35.098066 
L 236.466667 -35.095992 
L 236.88 -35.094226 
L 237.293333 -35.092767 
L 237.706667 -35.091615 
L 238.12 -35.090772 
L 238.533333 -35.090236 
L 238.946667 -35.090009 
L 239.36 -35.090089 
L 239.773333 -35.090478 
L 240.186667 -35.091174 
L 240.6 -35.092178 
L 241.013333 -35.09349 
L 241.426667 -35.09511 
L 241.84 -35.097037 
L 242.253333 -35.099271 
L 242.666667 -35.101813 
L 243.08 -35.104661 
L 243.493333 -35.107816 
L 243.906667 -35.111277 
L 244.32 -35.115044 
L 244.733333 -35.119117 
L 245.146667 -35.123494 
L 245.56 -35.128176 
L 245.973333 -35.133163 
L 246.386667 -35.138453 
L 246.8 -35.144046 
L 247.213333 -35.149942 
L 247.626667 -35.15614 
L 248.04 -35.162639 
L 248.453333 -35.169439 
L 248.866667 -35.176539 
L 249.28 -35.183938 
L 249.693333 -35.191636 
L 250.106667 -35.199631 
L 250.52 -35.207924 
L 250.933333 -35.216513 
L 250.933333 -27.516513 
L 250.933333 -27.516513 
L 250.52 -27.507924 
L 250.106667 -27.499631 
L 249.693333 -27.491636 
L 249.28 -27.483938 
L 248.866667 -27.476539 
L 248.453333 -27.469439 
L 248.04 -27.462639 
L 247.626667 -27.45614 
L 247.213333 -27.449942 
L 246.8 -27.444046 
L 246.386667 -27.438453 
L 245.973333 -27.433163 
L 245.56 -27.428176 
L 245.146667 -27.423494 
L 244.733333 -27.419117 
L 244.32 -27.415044 
L 243.906667 -27.411277 
L 243.493333 -27.407816 
L 243.08 -27.404661 
L 242.666667 -27.401813 
L 242.253333 -27.399271 
L 241.84 -27.397037 
L 241.426667 -27.39511 
L 241.013333 -27.39349 
L 240.6 -27.392178 
L 240.186667 -27.391174 
L 239.773333 -27.390478 
L 239.36 -27.390089 
L 238.946667 -27.390009 
L 238.533333 -27.390236 
L 238.12 -27.390772 
L 237.706667 -27.391615 
L 237.293333 -27.392767 
L 236.88 -27.394226 
L 236.466667 -27.395992 
L 236.053333 -27.398066 
L 235.64 -27.400448 
L 235.226667 -27.403136 
L 234.813333 -27.40613 
L 234.4 -27.409432 
L 233.986667 -27.413039 
L 233.573333 -27.416952 
L 233.16 -27.42117 
L 232.746667 -27.425693 
L 232.333333 -27.430521 
L 231.92 -27.435652 
L 231.506667 -27.441087 
L 231.093333 -27.446825 
L 230.68 -27.452865 
L 230.266667 -27.459207 
L 229.853333 -27.46585 
L 229.44 -27.472794 
L 229.026667 -27.480037 
L 228.613333 -27.487579 
L 228.2 -27.495419 
L 227.786667 -27.503557 
L 227.373333 -27.511991 
L 226.96 -27.520721 
L 226.546667 -27.529746 
L 226.133333 -27.539066 
L 225.72 -27.548678 
L 225.306667 -27.558582 
L 224.893333 -27.568778 
L 224.48 -27.579263 
L 224.066667 -27.590038 
L 223.653333 -27.601101 
L 223.24 -27.61245 
L 222.826667 -27.624086 
L 222.413333 -27.636006 
L 222 -27.648209 
L 221.586667 -27.660694 
L 221.173333 -27.673461 
L 220.76 -27.686507 
L 220.346667 -27.699831 
L 219.933333 -27.713433 
L 219.52 -27.72731 
L 219.106667 -27.741461 
L 218.693333 -27.755885 
L 218.28 -27.770581 
L 217.866667 -27.785547 
L 217.453333 -27.800781 
L 217.04 -27.816282 
L 216.626667 -27.832048 
L 216.213333 -27.848078 
L 215.8 -27.86437 
L 215.386667 -27.880923 
L 214.973333 -27.897735 
L 214.56 -27.914804 
L 214.146667 -27.932128 
L 213.733333 -27.949706 
L 213.32 -27.967537 
L 212.906667 -27.985617 
L 212.493333 -28.003946 
L 212.08 -28.022522 
L 211.666667 -28.041342 
L 211.253333 -28.060405 
L 210.84 -28.07971 
L 210.426667 -28.099253 
L 210.013333 -28.119033 
L 209.6 -28.139048 
L 209.186667 -28.159297 
L 208.773333 -28.179776 
L 208.36 -28.200485 
L 207.946667 -28.22142 
L 207.533333 -28.242581 
L 207.12 -28.263964 
L 206.706667 -28.285567 
L 206.293333 -28.307389 
L 205.88 -28.329428 
L 205.466667 -28.35168 
L 205.053333 -28.374144 
L 204.64 -28.396818 
L 204.226667 -28.419699 
L 203.813333 -28.442786 
L 203.4 -28.466075 
L 202.986667 -28.489564 
L 202.573333 -28.513251 
L 202.16 -28.537134 
L 201.746667 -28.561211 
L 201.333333 -28.585478 
L 200.92 -28.609933 
L 200.506667 -28.634575 
L 200.093333 -28.6594 
L 199.68 -28.684406 
L 199.266667 -28.709591 
L 198.853333 -28.734952 
L 198.44 -28.760486 
L 198.026667 -28.786192 
L 197.613333 -28.812065 
L 197.2 -28.838105 
L 196.786667 -28.864307 
L 196.373333 -28.890671 
L 195.96 -28.917192 
L 195.546667 -28.943868 
L 195.133333 -28.970697 
L 194.72 -28.997676 
L 194.306667 -29.024802 
L 193.893333 -29.052073 
L 193.48 -29.079485 
L 193.066667 -29.107037 
L 192.653333 -29.134725 
L 192.24 -29.162546 
L 191.826667 -29.190498 
L 191.413333 -29.218578 
L 191 -29.246784 
L 190.586667 -29.275111 
L 190.173333 -29.303558 
L 189.76 -29.332122 
L 189.346667 -29.360799 
L 188.933333 -29.389588 
L 188.52 -29.418484 
L 188.106667 -29.447486 
L 187.693333 -29.476589 
L 187.28 -29.505793 
L 186.866667 -29.535092 
L 186.453333 -29.564485 
L 186.04 -29.593969 
L 185.626667 -29.62354 
L 185.213333 -29.653196 
L 184.8 -29.682933 
L 184.386667 -29.71275 
L 183.973333 -29.742642 
L 183.56 -29.772606 
L 183.146667 -29.802641 
L 182.733333 -29.832742 
L 182.32 -29.862907 
L 181.906667 -29.893132 
L 181.493333 -29.923416 
L 181.08 -29.953754 
L 180.666667 -29.984143 
L 180.253333 -30.014581 
L 179.84 -30.045065 
L 179.426667 -30.075591 
L 179.013333 -30.106157 
L 178.6 -30.136759 
L 178.186667 -30.167394 
L 177.773333 -30.19806 
L 177.36 -30.228753 
L 176.946667 -30.25947 
L 176.533333 -30.290208 
L 176.12 -30.320964 
L 175.706667 -30.351734 
L 175.293333 -30.382517 
L 174.88 -30.413309 
L 174.466667 -30.444106 
L 174.053333 -30.474905 
L 173.64 -30.505705 
L 173.226667 -30.5365 
L 172.813333 -30.567289 
L 172.4 -30.598068 
L 171.986667 -30.628835 
L 171.573333 -30.659585 
L 171.16 -30.690317 
L 170.746667 -30.721027 
L 170.333333 -30.751711 
L 169.92 -30.782367 
L 169.506667 -30.812992 
L 169.093333 -30.843583 
L 168.68 -30.874137 
L 168.266667 -30.90465 
L 167.853333 -30.935119 
L 167.44 -30.965542 
L 167.026667 -30.995916 
L 166.613333 -31.026237 
L 166.2 -31.056502 
L 165.786667 -31.086708 
L 165.373333 -31.116853 
L 164.96 -31.146934 
L 164.546667 -31.176946 
L 164.133333 -31.206888 
L 163.72 -31.236756 
L 163.306667 -31.266548 
L 162.893333 -31.296259 
L 162.48 -31.325889 
L 162.066667 -31.355432 
L 161.653333 -31.384887 
L 161.24 -31.414251 
L 160.826667 -31.44352 
L 160.413333 -31.472692 
L 160 -31.501764 
L 159.586667 -31.530732 
L 159.173333 -31.559594 
L 158.76 -31.588348 
L 158.346667 -31.616989 
L 157.933333 -31.645516 
L 157.52 -31.673925 
L 157.106667 -31.702214 
L 156.693333 -31.73038 
L 156.28 -31.758419 
L 155.866667 -31.78633 
L 155.453333 -31.814109 
L 155.04 -31.841754 
L 154.626667 -31.869261 
L 154.213333 -31.896629 
L 153.8 -31.923854 
L 153.386667 -31.950934 
L 152.973333 -31.977865 
L 152.56 -32.004646 
L 152.146667 -32.031273 
L 151.733333 -32.057744 
L 151.32 -32.084057 
L 150.906667 -32.110208 
L 150.493333 -32.136194 
L 150.08 -32.162015 
L 149.666667 -32.187666 
L 149.253333 -32.213145 
L 148.84 -32.23845 
L 148.426667 -32.263578 
L 148.013333 -32.288527 
L 147.6 -32.313294 
L 147.186667 -32.337877 
L 146.773333 -32.362273 
L 146.36 -32.386479 
L 145.946667 -32.410494 
L 145.533333 -32.434315 
L 145.12 -32.45794 
L 144.706667 -32.481366 
L 144.293333 -32.50459 
L 143.88 -32.527611 
L 143.466667 -32.550427 
L 143.053333 -32.573034 
L 142.64 -32.595431 
L 142.226667 -32.617615 
L 141.813333 -32.639585 
L 141.4 -32.661338 
L 140.986667 -32.682872 
L 140.573333 -32.704184 
L 140.16 -32.725273 
L 139.746667 -32.746136 
L 139.333333 -32.766772 
L 138.92 -32.787178 
L 138.506667 -32.807353 
L 138.093333 -32.827293 
L 137.68 -32.846998 
L 137.266667 -32.866465 
L 136.853333 -32.885693 
L 136.44 -32.904679 
L 136.026667 -32.923422 
L 135.613333 -32.941919 
L 135.2 -32.960169 
L 134.786667 -32.97817 
L 134.373333 -32.99592 
L 133.96 -33.013418 
L 133.546667 -33.030661 
L 133.133333 -33.047648 
L 132.72 -33.064378 
L 132.306667 -33.080848 
L 131.893333 -33.097057 
L 131.48 -33.113003 
L 131.066667 -33.128685 
L 130.653333 -33.144101 
L 130.24 -33.15925 
L 129.826667 -33.174129 
L 129.413333 -33.188739 
L 129 -33.203076 
L 128.586667 -33.21714 
L 128.173333 -33.23093 
L 127.76 -33.244443 
L 127.346667 -33.257679 
L 126.933333 -33.270636 
L 126.52 -33.283313 
L 126.106667 -33.295709 
L 125.693333 -33.307822 
L 125.28 -33.319651 
L 124.866667 -33.331196 
L 124.453333 -33.342454 
L 124.04 -33.353425 
L 123.626667 -33.364108 
L 123.213333 -33.374501 
L 122.8 -33.384604 
L 122.386667 -33.394416 
L 121.973333 -33.403935 
L 121.56 -33.41316 
L 121.146667 -33.422092 
L 120.733333 -33.430728 
L 120.32 -33.439068 
L 119.906667 -33.447111 
L 119.493333 -33.454856 
L 119.08 -33.462303 
L 118.666667 -33.469451 
L 118.253333 -33.476298 
L 117.84 -33.482846 
L 117.426667 -33.489091 
L 117.013333 -33.495035 
L 116.6 -33.500677 
L 116.186667 -33.506015 
L 115.773333 -33.51105 
L 115.36 -33.51578 
L 114.946667 -33.520207 
L 114.533333 -33.524328 
L 114.12 -33.528143 
L 113.706667 -33.531653 
L 113.293333 -33.534857 
L 112.88 -33.537754 
L 112.466667 -33.540344 
L 112.053333 -33.542628 
L 111.64 -33.544604 
L 111.226667 -33.546272 
L 110.813333 -33.547633 
L 110.4 -33.548687 
L 109.986667 -33.549432 
L 109.573333 -33.54987 
L 109.16 -33.549999 
L 108.746667 -33.54982 
L 108.333333 -33.549334 
L 107.92 -33.54854 
L 107.506667 -33.547437 
L 107.093333 -33.546027 
L 106.68 -33.54431 
L 106.266667 -33.542285 
L 105.853333 -33.539952 
L 105.44 -33.537313 
L 105.026667 -33.534367 
L 104.613333 -33.531115 
L 104.2 -33.527556 
L 103.786667 -33.523692 
L 103.373333 -33.519522 
L 102.96 -33.515047 
L 102.546667 -33.510268 
L 102.133333 -33.505185 
L 101.72 -33.499799 
L 101.306667 -33.494109 
L 100.893333 -33.488117 
L 100.48 -33.481823 
L 100.066667 -33.475228 
L 99.653333 -33.468332 
L 99.24 -33.461137 
L 98.826667 -33.453643 
L 98.413333 -33.44585 
L 98 -33.437759 
L 97.586667 -33.429372 
L 97.173333 -33.420689 
L 96.76 -33.411711 
L 96.346667 -33.402438 
L 95.933333 -33.392873 
L 95.52 -33.383015 
L 95.106667 -33.372866 
L 94.693333 -33.362426 
L 94.28 -33.351697 
L 93.866667 -33.34068 
L 93.453333 -33.329376 
L 93.04 -33.317787 
L 92.626667 -33.305912 
L 92.213333 -33.293754 
L 91.8 -33.281313 
L 91.386667 -33.268591 
L 90.973333 -33.25559 
L 90.56 -33.242309 
L 90.146667 -33.228752 
L 89.733333 -33.214919 
L 89.32 -33.200811 
L 88.906667 -33.18643 
L 88.493333 -33.171778 
L 88.08 -33.156855 
L 87.666667 -33.141664 
L 87.253333 -33.126205 
L 86.84 -33.110481 
L 86.426667 -33.094493 
L 86.013333 -33.078242 
L 85.6 -33.061731 
L 85.186667 -33.04496 
L 84.773333 -33.027932 
L 84.36 -33.010648 
L 83.946667 -32.99311 
L 83.533333 -32.97532 
L 83.12 -32.957279 
L 82.706667 -32.938989 
L 82.293333 -32.920453 
L 81.88 -32.901672 
L 81.466667 -32.882647 
L 81.053333 -32.863381 
L 80.64 -32.843876 
L 80.226667 -32.824133 
L 79.813333 -32.804155 
L 79.4 -32.783944 
L 78.986667 -32.763501 
L 78.573333 -32.742829 
L 78.16 -32.721929 
L 77.746667 -32.700804 
L 77.333333 -32.679457 
L 76.92 -32.657888 
L 76.506667 -32.636101 
L 76.093333 -32.614097 
L 75.68 -32.591878 
L 75.266667 -32.569447 
L 74.853333 -32.546807 
L 74.44 -32.523958 
L 74.026667 -32.500905 
L 73.613333 -32.477648 
L 73.2 -32.45419 
L 72.786667 -32.430535 
L 72.373333 -32.406683 
L 71.96 -32.382637 
L 71.546667 -32.3584 
L 71.133333 -32.333974 
L 70.72 -32.309362 
L 70.306667 -32.284566 
L 69.893333 -32.259588 
L 69.48 -32.234432 
L 69.066667 -32.209099 
L 68.653333 -32.183592 
L 68.24 -32.157914 
L 67.826667 -32.132067 
L 67.413333 -32.106053 
L 67 -32.079877 
L 66.586667 -32.053539 
L 66.173333 -32.027043 
L 65.76 -32.000391 
L 65.346667 -31.973586 
L 64.933333 -31.946631 
L 64.52 -31.919528 
L 64.106667 -31.89228 
L 63.693333 -31.86489 
L 63.28 -31.83736 
L 62.866667 -31.809694 
L 62.453333 -31.781894 
L 62.04 -31.753962 
L 61.626667 -31.725902 
L 61.213333 -31.697717 
L 60.8 -31.669408 
L 60.386667 -31.64098 
L 59.973333 -31.612435 
L 59.56 -31.583776 
L 59.146667 -31.555005 
L 58.733333 -31.526125 
L 58.32 -31.49714 
L 57.906667 -31.468053 
L 57.493333 -31.438865 
L 57.08 -31.409581 
L 56.666667 -31.380202 
L 56.253333 -31.350733 
L 55.84 -31.321175 
L 55.426667 -31.291533 
L 55.013333 -31.261808 
L 54.6 -31.232004 
L 54.186667 -31.202124 
L 53.773333 -31.172171 
L 53.36 -31.142147 
L 52.946667 -31.112056 
L 52.533333 -31.081902 
L 52.12 -31.051685 
L 51.706667 -31.021411 
L 51.293333 -30.991082 
L 50.88 -30.9607 
L 50.466667 -30.930269 
L 50.053333 -30.899793 
L 49.64 -30.869273 
L 49.226667 -30.838714 
L 48.813333 -30.808117 
L 48.4 -30.777487 
L 47.986667 -30.746826 
L 47.573333 -30.716137 
L 47.16 -30.685424 
L 46.746667 -30.654689 
L 46.333333 -30.623936 
L 45.92 -30.593167 
L 45.506667 -30.562386 
L 45.093333 -30.531596 
L 44.68 -30.500799 
L 44.266667 -30.47 
z
" id="me182d0bc16" style="stroke:#257352;stroke-opacity:0.8;"/>
    </defs>
    <g clip-path="url(#p1343e3a2a2)">
     <use style="fill:#257352;fill-opacity:0.8;stroke:#257352;stroke-opacity:0.8;" x="0" xlink:href="#me182d0bc16" y="144"/>
    </g>
   </g>
   <g id="patch_4">
    <path clip-path="url(#p1343e3a2a2)" d="M 44.266667 109.68 
L 44.266667 105.83 
L 46.746667 105.83 
L 46.746667 104.29 
L 41.786667 102.75 
L 38.48 102.75 
L 38.48 116.61 
L 41.786667 116.61 
L 46.746667 115.07 
L 46.746667 113.53 
L 44.266667 113.53 
z
" style="fill:#808080;opacity:0.8;stroke:#000000;stroke-linejoin:miter;"/>
   </g>
   <g id="patch_5">
    <path clip-path="url(#p1343e3a2a2)" d="M 250.933333 112.633487 
L 250.933333 108.783487 
L 248.453333 108.783487 
L 248.453333 107.243487 
L 253.413333 105.703487 
L 256.72 105.703487 
L 256.72 119.563487 
L 253.413333 119.563487 
L 248.453333 118.023487 
L 248.453333 116.483487 
L 250.933333 116.483487 
z
" style="fill:#808080;opacity:0.8;stroke:#000000;stroke-linejoin:miter;"/>
   </g>
   <g id="matplotlib.axis_3">
    <g id="xtick_7"/>
    <g id="xtick_8"/>
    <g id="xtick_9"/>
    <g id="xtick_10"/>
    <g id="xtick_11"/>
    <g id="xtick_12"/>
   </g>
   <g id="matplotlib.axis_4">
    <g id="ytick_4"/>
    <g id="ytick_5"/>
    <g id="ytick_6"/>
   </g>
   <g id="line2d_2">
    <path clip-path="url(#p1343e3a2a2)" d="M 44.266667 109.68 
L 69.066667 107.940901 
L 82.706667 107.211011 
L 94.693333 106.787574 
L 105.853333 106.610048 
L 117.013333 106.654965 
L 128.173333 106.91907 
L 140.16 107.424727 
L 153.8 108.226146 
L 173.64 109.644295 
L 198.853333 111.415048 
L 212.493333 112.146054 
L 224.48 112.570737 
L 235.64 112.749552 
L 246.8 112.705954 
L 250.933333 112.633487 
L 250.933333 112.633487 
" style="fill:none;stroke:#000000;stroke-dasharray:11.1,4.8;stroke-dashoffset:0;stroke-width:3;"/>
   </g>
   <g id="line2d_3">
    <path clip-path="url(#p1343e3a2a2)" d="M 44.266667 105.83 
L 69.066667 104.090901 
L 82.706667 103.361011 
L 94.693333 102.937574 
L 105.853333 102.760048 
L 117.013333 102.804965 
L 128.173333 103.06907 
L 140.16 103.574727 
L 153.8 104.376146 
L 173.64 105.794295 
L 198.853333 107.565048 
L 212.493333 108.296054 
L 224.48 108.720737 
L 235.64 108.899552 
L 246.8 108.855954 
L 250.933333 108.783487 
L 250.933333 108.783487 
" style="fill:none;stroke:#257352;stroke-linecap:square;stroke-width:2;"/>
   </g>
   <g id="line2d_4">
    <path clip-path="url(#p1343e3a2a2)" d="M 44.266667 113.53 
L 69.066667 111.790901 
L 82.706667 111.061011 
L 94.693333 110.637574 
L 105.853333 110.460048 
L 117.013333 110.504965 
L 128.173333 110.76907 
L 140.16 111.274727 
L 153.8 112.076146 
L 173.64 113.494295 
L 198.853333 115.265048 
L 212.493333 115.996054 
L 224.48 116.420737 
L 235.64 116.599552 
L 246.8 116.555954 
L 250.933333 116.483487 
L 250.933333 116.483487 
" style="fill:none;stroke:#257352;stroke-linecap:square;stroke-width:2;"/>
   </g>
   <g id="line2d_5">
    <path clip-path="url(#p1343e3a2a2)" d="M 44.266667 113.53 
L 44.266667 105.83 
" style="fill:none;stroke:#257352;stroke-linecap:square;stroke-width:2;"/>
   </g>
   <g id="line2d_6">
    <path clip-path="url(#p1343e3a2a2)" d="M 250.933333 116.483487 
L 250.933333 108.783487 
" style="fill:none;stroke:#257352;stroke-linecap:square;stroke-width:2;"/>
   </g>
  </g>
 </g>
 <defs>
  <clipPath id="p01db8c30d4">
   <rect height="73.92" width="223.2" x="36" y="17.28"/>
  </clipPath>
  <clipPath id="p1343e3a2a2">
   <rect height="36.96" width="223.2" x="36" y="91.2"/>
  </clipPath>
 </defs>
</svg>
