<?xml version="1.0" encoding="utf-8" standalone="no"?>
<!DOCTYPE svg PUBLIC "-//W3C//DTD SVG 1.1//EN"
  "http://www.w3.org/Graphics/SVG/1.1/DTD/svg11.dtd">
<!-- Created with matplotlib (https://matplotlib.org/) -->
<svg height="144pt" version="1.1" viewBox="0 0 288 144" width="288pt" xmlns="http://www.w3.org/2000/svg" xmlns:xlink="http://www.w3.org/1999/xlink">
 <defs>
  <style type="text/css">
*{stroke-linecap:butt;stroke-linejoin:round;}
  </style>
 </defs>
 <g id="figure_1">
  <g id="patch_1">
   <path d="M 0 144 
L 288 144 
L 288 0 
L 0 0 
z
" style="fill:#ffffff;"/>
  </g>
  <g id="axes_1">
   <g id="patch_2">
    <path d="M 36 89.76 
L 259.2 89.76 
L 259.2 17.28 
L 36 17.28 
z
" style="fill:#ffffff;"/>
   </g>
   <g id="matplotlib.axis_1">
    <g id="xtick_1"/>
    <g id="xtick_2"/>
    <g id="xtick_3"/>
    <g id="xtick_4"/>
    <g id="xtick_5"/>
    <g id="xtick_6"/>
   </g>
   <g id="matplotlib.axis_2">
    <g id="ytick_1"/>
    <g id="ytick_2"/>
   </g>
   <g id="line2d_1">
    <path clip-path="url(#p42c34bb9c5)" d="M 44.266667 70.907464 
L 47.573333 68.583772 
L 50.88 66.536854 
L 54.186667 64.775565 
L 57.08 63.473388 
L 59.973333 62.396355 
L 62.866667 61.544617 
L 65.76 60.916525 
L 68.653333 60.508654 
L 71.546667 60.315841 
L 74.44 60.331237 
L 77.333333 60.546375 
L 80.64 61.023926 
L 83.946667 61.732001 
L 87.666667 62.779752 
L 91.386667 64.063636 
L 95.52 65.726043 
L 100.48 67.980671 
L 106.68 71.065548 
L 122.386667 79.011439 
L 127.346667 81.210569 
L 131.48 82.819965 
L 135.2 84.056252 
L 138.92 85.06194 
L 142.226667 85.741993 
L 145.533333 86.204943 
L 148.84 86.438193 
L 152.146667 86.431755 
L 155.453333 86.178339 
L 158.76 85.673414 
L 162.066667 84.915239 
L 165.373333 83.904863 
L 168.68 82.646098 
L 171.986667 81.145455 
L 175.293333 79.412064 
L 179.013333 77.198367 
L 182.733333 74.724998 
L 186.866667 71.701067 
L 191.413333 68.08235 
L 196.373333 63.848091 
L 202.573333 58.250779 
L 225.306667 37.406058 
L 230.266667 33.324485 
L 234.813333 29.875421 
L 238.946667 27.02522 
L 242.666667 24.719816 
L 246.386667 22.681053 
L 249.693333 21.105781 
L 250.933333 20.574545 
L 250.933333 20.574545 
" style="fill:none;stroke:#8454ff;stroke-linecap:square;stroke-width:3;"/>
   </g>
  </g>
  <g id="axes_2">
   <g id="patch_3">
    <path d="M 36 126 
L 259.2 126 
L 259.2 89.76 
L 36 89.76 
z
" style="fill:#ffffff;"/>
   </g>
   <g id="PolyCollection_1">
    <defs>
     <path d="M 44.266667 -33.855 
L 44.266667 -41.405 
L 44.68 -41.40483 
L 45.093333 -41.404321 
L 45.506667 -41.403471 
L 45.92 -41.402283 
L 46.333333 -41.400755 
L 46.746667 -41.398889 
L 47.16 -41.396684 
L 47.573333 -41.394141 
L 47.986667 -41.391261 
L 48.4 -41.388044 
L 48.813333 -41.384492 
L 49.226667 -41.380604 
L 49.64 -41.376382 
L 50.053333 -41.371827 
L 50.466667 -41.366939 
L 50.88 -41.36172 
L 51.293333 -41.356172 
L 51.706667 -41.350294 
L 52.12 -41.344089 
L 52.533333 -41.337558 
L 52.946667 -41.330703 
L 53.36 -41.323524 
L 53.773333 -41.316024 
L 54.186667 -41.308204 
L 54.6 -41.300067 
L 55.013333 -41.291613 
L 55.426667 -41.282845 
L 55.84 -41.273764 
L 56.253333 -41.264374 
L 56.666667 -41.254675 
L 57.08 -41.244671 
L 57.493333 -41.234362 
L 57.906667 -41.223753 
L 58.32 -41.212844 
L 58.733333 -41.201639 
L 59.146667 -41.19014 
L 59.56 -41.17835 
L 59.973333 -41.16627 
L 60.386667 -41.153905 
L 60.8 -41.141257 
L 61.213333 -41.128328 
L 61.626667 -41.115122 
L 62.04 -41.101641 
L 62.453333 -41.087888 
L 62.866667 -41.073867 
L 63.28 -41.059581 
L 63.693333 -41.045033 
L 64.106667 -41.030227 
L 64.52 -41.015164 
L 64.933333 -40.99985 
L 65.346667 -40.984287 
L 65.76 -40.968479 
L 66.173333 -40.95243 
L 66.586667 -40.936143 
L 67 -40.919621 
L 67.413333 -40.902869 
L 67.826667 -40.88589 
L 68.24 -40.868688 
L 68.653333 -40.851267 
L 69.066667 -40.833631 
L 69.48 -40.815784 
L 69.893333 -40.797729 
L 70.306667 -40.779472 
L 70.72 -40.761015 
L 71.133333 -40.742364 
L 71.546667 -40.723522 
L 71.96 -40.704493 
L 72.373333 -40.685283 
L 72.786667 -40.665894 
L 73.2 -40.646332 
L 73.613333 -40.626601 
L 74.026667 -40.606706 
L 74.44 -40.58665 
L 74.853333 -40.566439 
L 75.266667 -40.546077 
L 75.68 -40.525568 
L 76.093333 -40.504917 
L 76.506667 -40.484129 
L 76.92 -40.463209 
L 77.333333 -40.44216 
L 77.746667 -40.420989 
L 78.16 -40.399699 
L 78.573333 -40.378296 
L 78.986667 -40.356784 
L 79.4 -40.335168 
L 79.813333 -40.313453 
L 80.226667 -40.291643 
L 80.64 -40.269745 
L 81.053333 -40.247762 
L 81.466667 -40.2257 
L 81.88 -40.203564 
L 82.293333 -40.181358 
L 82.706667 -40.159087 
L 83.12 -40.136758 
L 83.533333 -40.114373 
L 83.946667 -40.09194 
L 84.36 -40.069462 
L 84.773333 -40.046945 
L 85.186667 -40.024394 
L 85.6 -40.001813 
L 86.013333 -39.979209 
L 86.426667 -39.956585 
L 86.84 -39.933948 
L 87.253333 -39.911302 
L 87.666667 -39.888652 
L 88.08 -39.866004 
L 88.493333 -39.843363 
L 88.906667 -39.820732 
L 89.32 -39.798119 
L 89.733333 -39.775527 
L 90.146667 -39.752963 
L 90.56 -39.73043 
L 90.973333 -39.707934 
L 91.386667 -39.685481 
L 91.8 -39.663074 
L 92.213333 -39.64072 
L 92.626667 -39.618423 
L 93.04 -39.596188 
L 93.453333 -39.57402 
L 93.866667 -39.551925 
L 94.28 -39.529907 
L 94.693333 -39.507971 
L 95.106667 -39.486122 
L 95.52 -39.464365 
L 95.933333 -39.442704 
L 96.346667 -39.421146 
L 96.76 -39.399694 
L 97.173333 -39.378354 
L 97.586667 -39.35713 
L 98 -39.336027 
L 98.413333 -39.31505 
L 98.826667 -39.294203 
L 99.24 -39.273491 
L 99.653333 -39.25292 
L 100.066667 -39.232492 
L 100.48 -39.212214 
L 100.893333 -39.192089 
L 101.306667 -39.172123 
L 101.72 -39.152319 
L 102.133333 -39.132682 
L 102.546667 -39.113217 
L 102.96 -39.093928 
L 103.373333 -39.074819 
L 103.786667 -39.055894 
L 104.2 -39.037159 
L 104.613333 -39.018616 
L 105.026667 -39.00027 
L 105.44 -38.982126 
L 105.853333 -38.964187 
L 106.266667 -38.946458 
L 106.68 -38.928942 
L 107.093333 -38.911643 
L 107.506667 -38.894566 
L 107.92 -38.877714 
L 108.333333 -38.86109 
L 108.746667 -38.844699 
L 109.16 -38.828545 
L 109.573333 -38.81263 
L 109.986667 -38.796959 
L 110.4 -38.781535 
L 110.813333 -38.766362 
L 111.226667 -38.751443 
L 111.64 -38.73678 
L 112.053333 -38.722379 
L 112.466667 -38.708241 
L 112.88 -38.69437 
L 113.293333 -38.68077 
L 113.706667 -38.667442 
L 114.12 -38.654391 
L 114.533333 -38.641619 
L 114.946667 -38.629129 
L 115.36 -38.616924 
L 115.773333 -38.605006 
L 116.186667 -38.593379 
L 116.6 -38.582044 
L 117.013333 -38.571005 
L 117.426667 -38.560264 
L 117.84 -38.549823 
L 118.253333 -38.539684 
L 118.666667 -38.529851 
L 119.08 -38.520325 
L 119.493333 -38.511108 
L 119.906667 -38.502202 
L 120.32 -38.49361 
L 120.733333 -38.485333 
L 121.146667 -38.477374 
L 121.56 -38.469733 
L 121.973333 -38.462413 
L 122.386667 -38.455415 
L 122.8 -38.448741 
L 123.213333 -38.442393 
L 123.626667 -38.436371 
L 124.04 -38.430678 
L 124.453333 -38.425314 
L 124.866667 -38.420281 
L 125.28 -38.415579 
L 125.693333 -38.411211 
L 126.106667 -38.407176 
L 126.52 -38.403476 
L 126.933333 -38.400111 
L 127.346667 -38.397083 
L 127.76 -38.394392 
L 128.173333 -38.392039 
L 128.586667 -38.390024 
L 129 -38.388347 
L 129.413333 -38.387009 
L 129.826667 -38.386011 
L 130.24 -38.385352 
L 130.653333 -38.385033 
L 131.066667 -38.385053 
L 131.48 -38.385414 
L 131.893333 -38.386114 
L 132.306667 -38.387153 
L 132.72 -38.388532 
L 133.133333 -38.390249 
L 133.546667 -38.392306 
L 133.96 -38.3947 
L 134.373333 -38.397432 
L 134.786667 -38.4005 
L 135.2 -38.403906 
L 135.613333 -38.407646 
L 136.026667 -38.411721 
L 136.44 -38.41613 
L 136.853333 -38.420872 
L 137.266667 -38.425945 
L 137.68 -38.431349 
L 138.093333 -38.437082 
L 138.506667 -38.443144 
L 138.92 -38.449531 
L 139.333333 -38.456244 
L 139.746667 -38.463281 
L 140.16 -38.47064 
L 140.573333 -38.47832 
L 140.986667 -38.486318 
L 141.4 -38.494633 
L 141.813333 -38.503263 
L 142.226667 -38.512206 
L 142.64 -38.521461 
L 143.053333 -38.531024 
L 143.466667 -38.540895 
L 143.88 -38.55107 
L 144.293333 -38.561547 
L 144.706667 -38.572325 
L 145.12 -38.5834 
L 145.533333 -38.59477 
L 145.946667 -38.606433 
L 146.36 -38.618385 
L 146.773333 -38.630625 
L 147.186667 -38.643149 
L 147.6 -38.655955 
L 148.013333 -38.66904 
L 148.426667 -38.682401 
L 148.84 -38.696034 
L 149.253333 -38.709937 
L 149.666667 -38.724107 
L 150.08 -38.73854 
L 150.493333 -38.753234 
L 150.906667 -38.768184 
L 151.32 -38.783388 
L 151.733333 -38.798842 
L 152.146667 -38.814543 
L 152.56 -38.830487 
L 152.973333 -38.84667 
L 153.386667 -38.863089 
L 153.8 -38.87974 
L 154.213333 -38.89662 
L 154.626667 -38.913724 
L 155.04 -38.931049 
L 155.453333 -38.948591 
L 155.866667 -38.966346 
L 156.28 -38.98431 
L 156.693333 -39.002479 
L 157.106667 -39.020849 
L 157.52 -39.039415 
L 157.933333 -39.058174 
L 158.346667 -39.077121 
L 158.76 -39.096252 
L 159.173333 -39.115563 
L 159.586667 -39.135049 
L 160 -39.154706 
L 160.413333 -39.17453 
L 160.826667 -39.194516 
L 161.24 -39.214659 
L 161.653333 -39.234956 
L 162.066667 -39.255401 
L 162.48 -39.27599 
L 162.893333 -39.296718 
L 163.306667 -39.317581 
L 163.72 -39.338573 
L 164.133333 -39.359691 
L 164.546667 -39.38093 
L 164.96 -39.402284 
L 165.373333 -39.423749 
L 165.786667 -39.44532 
L 166.2 -39.466992 
L 166.613333 -39.48876 
L 167.026667 -39.51062 
L 167.44 -39.532566 
L 167.853333 -39.554594 
L 168.266667 -39.576698 
L 168.68 -39.598874 
L 169.093333 -39.621117 
L 169.506667 -39.643421 
L 169.92 -39.665782 
L 170.333333 -39.688195 
L 170.746667 -39.710654 
L 171.16 -39.733154 
L 171.573333 -39.755691 
L 171.986667 -39.778259 
L 172.4 -39.800854 
L 172.813333 -39.823469 
L 173.226667 -39.846101 
L 173.64 -39.868744 
L 174.053333 -39.891393 
L 174.466667 -39.914042 
L 174.88 -39.936687 
L 175.293333 -39.959323 
L 175.706667 -39.981945 
L 176.12 -40.004546 
L 176.533333 -40.027123 
L 176.946667 -40.049671 
L 177.36 -40.072184 
L 177.773333 -40.094656 
L 178.186667 -40.117084 
L 178.6 -40.139462 
L 179.013333 -40.161785 
L 179.426667 -40.184048 
L 179.84 -40.206245 
L 180.253333 -40.228373 
L 180.666667 -40.250426 
L 181.08 -40.272399 
L 181.493333 -40.294287 
L 181.906667 -40.316085 
L 182.32 -40.337788 
L 182.733333 -40.359392 
L 183.146667 -40.380891 
L 183.56 -40.402281 
L 183.973333 -40.423556 
L 184.386667 -40.444713 
L 184.8 -40.465746 
L 185.213333 -40.486651 
L 185.626667 -40.507423 
L 186.04 -40.528056 
L 186.453333 -40.548548 
L 186.866667 -40.568892 
L 187.28 -40.589085 
L 187.693333 -40.609121 
L 188.106667 -40.628997 
L 188.52 -40.648708 
L 188.933333 -40.668249 
L 189.346667 -40.687616 
L 189.76 -40.706805 
L 190.173333 -40.725811 
L 190.586667 -40.74463 
L 191 -40.763258 
L 191.413333 -40.781691 
L 191.826667 -40.799924 
L 192.24 -40.817954 
L 192.653333 -40.835776 
L 193.066667 -40.853386 
L 193.48 -40.870781 
L 193.893333 -40.887956 
L 194.306667 -40.904908 
L 194.72 -40.921632 
L 195.133333 -40.938126 
L 195.546667 -40.954384 
L 195.96 -40.970405 
L 196.373333 -40.986183 
L 196.786667 -41.001716 
L 197.2 -41.017 
L 197.613333 -41.032032 
L 198.026667 -41.046807 
L 198.44 -41.061324 
L 198.853333 -41.075578 
L 199.266667 -41.089566 
L 199.68 -41.103286 
L 200.093333 -41.116734 
L 200.506667 -41.129907 
L 200.92 -41.142802 
L 201.333333 -41.155416 
L 201.746667 -41.167747 
L 202.16 -41.179791 
L 202.573333 -41.191547 
L 202.986667 -41.20301 
L 203.4 -41.21418 
L 203.813333 -41.225052 
L 204.226667 -41.235625 
L 204.64 -41.245897 
L 205.053333 -41.255865 
L 205.466667 -41.265526 
L 205.88 -41.274879 
L 206.293333 -41.283922 
L 206.706667 -41.292652 
L 207.12 -41.301068 
L 207.533333 -41.309167 
L 207.946667 -41.316948 
L 208.36 -41.32441 
L 208.773333 -41.331549 
L 209.186667 -41.338366 
L 209.6 -41.344857 
L 210.013333 -41.351023 
L 210.426667 -41.35686 
L 210.84 -41.362369 
L 211.253333 -41.367548 
L 211.666667 -41.372395 
L 212.08 -41.37691 
L 212.493333 -41.381092 
L 212.906667 -41.384939 
L 213.32 -41.388451 
L 213.733333 -41.391627 
L 214.146667 -41.394467 
L 214.56 -41.396968 
L 214.973333 -41.399132 
L 215.386667 -41.400958 
L 215.8 -41.402445 
L 216.213333 -41.403592 
L 216.626667 -41.4044 
L 217.04 -41.404869 
L 217.453333 -41.404998 
L 217.866667 -41.404787 
L 218.28 -41.404236 
L 218.693333 -41.403346 
L 219.106667 -41.402116 
L 219.52 -41.400547 
L 219.933333 -41.39864 
L 220.346667 -41.396394 
L 220.76 -41.393811 
L 221.173333 -41.39089 
L 221.586667 -41.387632 
L 222 -41.384039 
L 222.413333 -41.380111 
L 222.826667 -41.375849 
L 223.24 -41.371253 
L 223.653333 -41.366325 
L 224.066667 -41.361067 
L 224.48 -41.355478 
L 224.893333 -41.349561 
L 225.306667 -41.343316 
L 225.72 -41.336746 
L 226.133333 -41.329851 
L 226.546667 -41.322634 
L 226.96 -41.315095 
L 227.373333 -41.307237 
L 227.786667 -41.299061 
L 228.2 -41.290569 
L 228.613333 -41.281763 
L 229.026667 -41.272645 
L 229.44 -41.263217 
L 229.853333 -41.253481 
L 230.266667 -41.24344 
L 230.68 -41.233095 
L 231.093333 -41.222449 
L 231.506667 -41.211504 
L 231.92 -41.200264 
L 232.333333 -41.188729 
L 232.746667 -41.176904 
L 233.16 -41.16479 
L 233.573333 -41.15239 
L 233.986667 -41.139708 
L 234.4 -41.126745 
L 234.813333 -41.113505 
L 235.226667 -41.099991 
L 235.64 -41.086206 
L 236.053333 -41.072153 
L 236.466667 -41.057835 
L 236.88 -41.043256 
L 237.293333 -41.028418 
L 237.706667 -41.013325 
L 238.12 -40.997981 
L 238.533333 -40.982388 
L 238.946667 -40.966551 
L 239.36 -40.950472 
L 239.773333 -40.934156 
L 240.186667 -40.917607 
L 240.6 -40.900827 
L 241.013333 -40.883821 
L 241.426667 -40.866592 
L 241.84 -40.849145 
L 242.253333 -40.831483 
L 242.666667 -40.81361 
L 243.08 -40.795531 
L 243.493333 -40.777249 
L 243.906667 -40.758769 
L 244.32 -40.740094 
L 244.733333 -40.721229 
L 245.146667 -40.702179 
L 245.56 -40.682946 
L 245.973333 -40.663537 
L 246.386667 -40.643954 
L 246.8 -40.624203 
L 247.213333 -40.604288 
L 247.626667 -40.584213 
L 248.04 -40.563983 
L 248.453333 -40.543603 
L 248.866667 -40.523077 
L 249.28 -40.502409 
L 249.693333 -40.481605 
L 250.106667 -40.460669 
L 250.52 -40.439605 
L 250.933333 -40.418419 
L 250.933333 -32.868419 
L 250.933333 -32.868419 
L 250.52 -32.889605 
L 250.106667 -32.910669 
L 249.693333 -32.931605 
L 249.28 -32.952409 
L 248.866667 -32.973077 
L 248.453333 -32.993603 
L 248.04 -33.013983 
L 247.626667 -33.034213 
L 247.213333 -33.054288 
L 246.8 -33.074203 
L 246.386667 -33.093954 
L 245.973333 -33.113537 
L 245.56 -33.132946 
L 245.146667 -33.152179 
L 244.733333 -33.171229 
L 244.32 -33.190094 
L 243.906667 -33.208769 
L 243.493333 -33.227249 
L 243.08 -33.245531 
L 242.666667 -33.26361 
L 242.253333 -33.281483 
L 241.84 -33.299145 
L 241.426667 -33.316592 
L 241.013333 -33.333821 
L 240.6 -33.350827 
L 240.186667 -33.367607 
L 239.773333 -33.384156 
L 239.36 -33.400472 
L 238.946667 -33.416551 
L 238.533333 -33.432388 
L 238.12 -33.447981 
L 237.706667 -33.463325 
L 237.293333 -33.478418 
L 236.88 -33.493256 
L 236.466667 -33.507835 
L 236.053333 -33.522153 
L 235.64 -33.536206 
L 235.226667 -33.549991 
L 234.813333 -33.563505 
L 234.4 -33.576745 
L 233.986667 -33.589708 
L 233.573333 -33.60239 
L 233.16 -33.61479 
L 232.746667 -33.626904 
L 232.333333 -33.638729 
L 231.92 -33.650264 
L 231.506667 -33.661504 
L 231.093333 -33.672449 
L 230.68 -33.683095 
L 230.266667 -33.69344 
L 229.853333 -33.703481 
L 229.44 -33.713217 
L 229.026667 -33.722645 
L 228.613333 -33.731763 
L 228.2 -33.740569 
L 227.786667 -33.749061 
L 227.373333 -33.757237 
L 226.96 -33.765095 
L 226.546667 -33.772634 
L 226.133333 -33.779851 
L 225.72 -33.786746 
L 225.306667 -33.793316 
L 224.893333 -33.799561 
L 224.48 -33.805478 
L 224.066667 -33.811067 
L 223.653333 -33.816325 
L 223.24 -33.821253 
L 222.826667 -33.825849 
L 222.413333 -33.830111 
L 222 -33.834039 
L 221.586667 -33.837632 
L 221.173333 -33.84089 
L 220.76 -33.843811 
L 220.346667 -33.846394 
L 219.933333 -33.84864 
L 219.52 -33.850547 
L 219.106667 -33.852116 
L 218.693333 -33.853346 
L 218.28 -33.854236 
L 217.866667 -33.854787 
L 217.453333 -33.854998 
L 217.04 -33.854869 
L 216.626667 -33.8544 
L 216.213333 -33.853592 
L 215.8 -33.852445 
L 215.386667 -33.850958 
L 214.973333 -33.849132 
L 214.56 -33.846968 
L 214.146667 -33.844467 
L 213.733333 -33.841627 
L 213.32 -33.838451 
L 212.906667 -33.834939 
L 212.493333 -33.831092 
L 212.08 -33.82691 
L 211.666667 -33.822395 
L 211.253333 -33.817548 
L 210.84 -33.812369 
L 210.426667 -33.80686 
L 210.013333 -33.801023 
L 209.6 -33.794857 
L 209.186667 -33.788366 
L 208.773333 -33.781549 
L 208.36 -33.77441 
L 207.946667 -33.766948 
L 207.533333 -33.759167 
L 207.12 -33.751068 
L 206.706667 -33.742652 
L 206.293333 -33.733922 
L 205.88 -33.724879 
L 205.466667 -33.715526 
L 205.053333 -33.705865 
L 204.64 -33.695897 
L 204.226667 -33.685625 
L 203.813333 -33.675052 
L 203.4 -33.66418 
L 202.986667 -33.65301 
L 202.573333 -33.641547 
L 202.16 -33.629791 
L 201.746667 -33.617747 
L 201.333333 -33.605416 
L 200.92 -33.592802 
L 200.506667 -33.579907 
L 200.093333 -33.566734 
L 199.68 -33.553286 
L 199.266667 -33.539566 
L 198.853333 -33.525578 
L 198.44 -33.511324 
L 198.026667 -33.496807 
L 197.613333 -33.482032 
L 197.2 -33.467 
L 196.786667 -33.451716 
L 196.373333 -33.436183 
L 195.96 -33.420405 
L 195.546667 -33.404384 
L 195.133333 -33.388126 
L 194.72 -33.371632 
L 194.306667 -33.354908 
L 193.893333 -33.337956 
L 193.48 -33.320781 
L 193.066667 -33.303386 
L 192.653333 -33.285776 
L 192.24 -33.267954 
L 191.826667 -33.249924 
L 191.413333 -33.231691 
L 191 -33.213258 
L 190.586667 -33.19463 
L 190.173333 -33.175811 
L 189.76 -33.156805 
L 189.346667 -33.137616 
L 188.933333 -33.118249 
L 188.52 -33.098708 
L 188.106667 -33.078997 
L 187.693333 -33.059121 
L 187.28 -33.039085 
L 186.866667 -33.018892 
L 186.453333 -32.998548 
L 186.04 -32.978056 
L 185.626667 -32.957423 
L 185.213333 -32.936651 
L 184.8 -32.915746 
L 184.386667 -32.894713 
L 183.973333 -32.873556 
L 183.56 -32.852281 
L 183.146667 -32.830891 
L 182.733333 -32.809392 
L 182.32 -32.787788 
L 181.906667 -32.766085 
L 181.493333 -32.744287 
L 181.08 -32.722399 
L 180.666667 -32.700426 
L 180.253333 -32.678373 
L 179.84 -32.656245 
L 179.426667 -32.634048 
L 179.013333 -32.611785 
L 178.6 -32.589462 
L 178.186667 -32.567084 
L 177.773333 -32.544656 
L 177.36 -32.522184 
L 176.946667 -32.499671 
L 176.533333 -32.477123 
L 176.12 -32.454546 
L 175.706667 -32.431945 
L 175.293333 -32.409323 
L 174.88 -32.386687 
L 174.466667 -32.364042 
L 174.053333 -32.341393 
L 173.64 -32.318744 
L 173.226667 -32.296101 
L 172.813333 -32.273469 
L 172.4 -32.250854 
L 171.986667 -32.228259 
L 171.573333 -32.205691 
L 171.16 -32.183154 
L 170.746667 -32.160654 
L 170.333333 -32.138195 
L 169.92 -32.115782 
L 169.506667 -32.093421 
L 169.093333 -32.071117 
L 168.68 -32.048874 
L 168.266667 -32.026698 
L 167.853333 -32.004594 
L 167.44 -31.982566 
L 167.026667 -31.96062 
L 166.613333 -31.93876 
L 166.2 -31.916992 
L 165.786667 -31.89532 
L 165.373333 -31.873749 
L 164.96 -31.852284 
L 164.546667 -31.83093 
L 164.133333 -31.809691 
L 163.72 -31.788573 
L 163.306667 -31.767581 
L 162.893333 -31.746718 
L 162.48 -31.72599 
L 162.066667 -31.705401 
L 161.653333 -31.684956 
L 161.24 -31.664659 
L 160.826667 -31.644516 
L 160.413333 -31.62453 
L 160 -31.604706 
L 159.586667 -31.585049 
L 159.173333 -31.565563 
L 158.76 -31.546252 
L 158.346667 -31.527121 
L 157.933333 -31.508174 
L 157.52 -31.489415 
L 157.106667 -31.470849 
L 156.693333 -31.452479 
L 156.28 -31.43431 
L 155.866667 -31.416346 
L 155.453333 -31.398591 
L 155.04 -31.381049 
L 154.626667 -31.363724 
L 154.213333 -31.34662 
L 153.8 -31.32974 
L 153.386667 -31.313089 
L 152.973333 -31.29667 
L 152.56 -31.280487 
L 152.146667 -31.264543 
L 151.733333 -31.248842 
L 151.32 -31.233388 
L 150.906667 -31.218184 
L 150.493333 -31.203234 
L 150.08 -31.18854 
L 149.666667 -31.174107 
L 149.253333 -31.159937 
L 148.84 -31.146034 
L 148.426667 -31.132401 
L 148.013333 -31.11904 
L 147.6 -31.105955 
L 147.186667 -31.093149 
L 146.773333 -31.080625 
L 146.36 -31.068385 
L 145.946667 -31.056433 
L 145.533333 -31.04477 
L 145.12 -31.0334 
L 144.706667 -31.022325 
L 144.293333 -31.011547 
L 143.88 -31.00107 
L 143.466667 -30.990895 
L 143.053333 -30.981024 
L 142.64 -30.971461 
L 142.226667 -30.962206 
L 141.813333 -30.953263 
L 141.4 -30.944633 
L 140.986667 -30.936318 
L 140.573333 -30.92832 
L 140.16 -30.92064 
L 139.746667 -30.913281 
L 139.333333 -30.906244 
L 138.92 -30.899531 
L 138.506667 -30.893144 
L 138.093333 -30.887082 
L 137.68 -30.881349 
L 137.266667 -30.875945 
L 136.853333 -30.870872 
L 136.44 -30.86613 
L 136.026667 -30.861721 
L 135.613333 -30.857646 
L 135.2 -30.853906 
L 134.786667 -30.8505 
L 134.373333 -30.847432 
L 133.96 -30.8447 
L 133.546667 -30.842306 
L 133.133333 -30.840249 
L 132.72 -30.838532 
L 132.306667 -30.837153 
L 131.893333 -30.836114 
L 131.48 -30.835414 
L 131.066667 -30.835053 
L 130.653333 -30.835033 
L 130.24 -30.835352 
L 129.826667 -30.836011 
L 129.413333 -30.837009 
L 129 -30.838347 
L 128.586667 -30.840024 
L 128.173333 -30.842039 
L 127.76 -30.844392 
L 127.346667 -30.847083 
L 126.933333 -30.850111 
L 126.52 -30.853476 
L 126.106667 -30.857176 
L 125.693333 -30.861211 
L 125.28 -30.865579 
L 124.866667 -30.870281 
L 124.453333 -30.875314 
L 124.04 -30.880678 
L 123.626667 -30.886371 
L 123.213333 -30.892393 
L 122.8 -30.898741 
L 122.386667 -30.905415 
L 121.973333 -30.912413 
L 121.56 -30.919733 
L 121.146667 -30.927374 
L 120.733333 -30.935333 
L 120.32 -30.94361 
L 119.906667 -30.952202 
L 119.493333 -30.961108 
L 119.08 -30.970325 
L 118.666667 -30.979851 
L 118.253333 -30.989684 
L 117.84 -30.999823 
L 117.426667 -31.010264 
L 117.013333 -31.021005 
L 116.6 -31.032044 
L 116.186667 -31.043379 
L 115.773333 -31.055006 
L 115.36 -31.066924 
L 114.946667 -31.079129 
L 114.533333 -31.091619 
L 114.12 -31.104391 
L 113.706667 -31.117442 
L 113.293333 -31.13077 
L 112.88 -31.14437 
L 112.466667 -31.158241 
L 112.053333 -31.172379 
L 111.64 -31.18678 
L 111.226667 -31.201443 
L 110.813333 -31.216362 
L 110.4 -31.231535 
L 109.986667 -31.246959 
L 109.573333 -31.26263 
L 109.16 -31.278545 
L 108.746667 -31.294699 
L 108.333333 -31.31109 
L 107.92 -31.327714 
L 107.506667 -31.344566 
L 107.093333 -31.361643 
L 106.68 -31.378942 
L 106.266667 -31.396458 
L 105.853333 -31.414187 
L 105.44 -31.432126 
L 105.026667 -31.45027 
L 104.613333 -31.468616 
L 104.2 -31.487159 
L 103.786667 -31.505894 
L 103.373333 -31.524819 
L 102.96 -31.543928 
L 102.546667 -31.563217 
L 102.133333 -31.582682 
L 101.72 -31.602319 
L 101.306667 -31.622123 
L 100.893333 -31.642089 
L 100.48 -31.662214 
L 100.066667 -31.682492 
L 99.653333 -31.70292 
L 99.24 -31.723491 
L 98.826667 -31.744203 
L 98.413333 -31.76505 
L 98 -31.786027 
L 97.586667 -31.80713 
L 97.173333 -31.828354 
L 96.76 -31.849694 
L 96.346667 -31.871146 
L 95.933333 -31.892704 
L 95.52 -31.914365 
L 95.106667 -31.936122 
L 94.693333 -31.957971 
L 94.28 -31.979907 
L 93.866667 -32.001925 
L 93.453333 -32.02402 
L 93.04 -32.046188 
L 92.626667 -32.068423 
L 92.213333 -32.09072 
L 91.8 -32.113074 
L 91.386667 -32.135481 
L 90.973333 -32.157934 
L 90.56 -32.18043 
L 90.146667 -32.202963 
L 89.733333 -32.225527 
L 89.32 -32.248119 
L 88.906667 -32.270732 
L 88.493333 -32.293363 
L 88.08 -32.316004 
L 87.666667 -32.338652 
L 87.253333 -32.361302 
L 86.84 -32.383948 
L 86.426667 -32.406585 
L 86.013333 -32.429209 
L 85.6 -32.451813 
L 85.186667 -32.474394 
L 84.773333 -32.496945 
L 84.36 -32.519462 
L 83.946667 -32.54194 
L 83.533333 -32.564373 
L 83.12 -32.586758 
L 82.706667 -32.609087 
L 82.293333 -32.631358 
L 81.88 -32.653564 
L 81.466667 -32.6757 
L 81.053333 -32.697762 
L 80.64 -32.719745 
L 80.226667 -32.741643 
L 79.813333 -32.763453 
L 79.4 -32.785168 
L 78.986667 -32.806784 
L 78.573333 -32.828296 
L 78.16 -32.849699 
L 77.746667 -32.870989 
L 77.333333 -32.89216 
L 76.92 -32.913209 
L 76.506667 -32.934129 
L 76.093333 -32.954917 
L 75.68 -32.975568 
L 75.266667 -32.996077 
L 74.853333 -33.016439 
L 74.44 -33.03665 
L 74.026667 -33.056706 
L 73.613333 -33.076601 
L 73.2 -33.096332 
L 72.786667 -33.115894 
L 72.373333 -33.135283 
L 71.96 -33.154493 
L 71.546667 -33.173522 
L 71.133333 -33.192364 
L 70.72 -33.211015 
L 70.306667 -33.229472 
L 69.893333 -33.247729 
L 69.48 -33.265784 
L 69.066667 -33.283631 
L 68.653333 -33.301267 
L 68.24 -33.318688 
L 67.826667 -33.33589 
L 67.413333 -33.352869 
L 67 -33.369621 
L 66.586667 -33.386143 
L 66.173333 -33.40243 
L 65.76 -33.418479 
L 65.346667 -33.434287 
L 64.933333 -33.44985 
L 64.52 -33.465164 
L 64.106667 -33.480227 
L 63.693333 -33.495033 
L 63.28 -33.509581 
L 62.866667 -33.523867 
L 62.453333 -33.537888 
L 62.04 -33.551641 
L 61.626667 -33.565122 
L 61.213333 -33.578328 
L 60.8 -33.591257 
L 60.386667 -33.603905 
L 59.973333 -33.61627 
L 59.56 -33.62835 
L 59.146667 -33.64014 
L 58.733333 -33.651639 
L 58.32 -33.662844 
L 57.906667 -33.673753 
L 57.493333 -33.684362 
L 57.08 -33.694671 
L 56.666667 -33.704675 
L 56.253333 -33.714374 
L 55.84 -33.723764 
L 55.426667 -33.732845 
L 55.013333 -33.741613 
L 54.6 -33.750067 
L 54.186667 -33.758204 
L 53.773333 -33.766024 
L 53.36 -33.773524 
L 52.946667 -33.780703 
L 52.533333 -33.787558 
L 52.12 -33.794089 
L 51.706667 -33.800294 
L 51.293333 -33.806172 
L 50.88 -33.81172 
L 50.466667 -33.816939 
L 50.053333 -33.821827 
L 49.64 -33.826382 
L 49.226667 -33.830604 
L 48.813333 -33.834492 
L 48.4 -33.838044 
L 47.986667 -33.841261 
L 47.573333 -33.844141 
L 47.16 -33.846684 
L 46.746667 -33.848889 
L 46.333333 -33.850755 
L 45.92 -33.852283 
L 45.506667 -33.853471 
L 45.093333 -33.854321 
L 44.68 -33.85483 
L 44.266667 -33.855 
z
" id="me01731220f" style="stroke:#8454ff;stroke-opacity:0.8;"/>
    </defs>
    <g clip-path="url(#p93f97cbb9f)">
     <use style="fill:#8454ff;fill-opacity:0.8;stroke:#8454ff;stroke-opacity:0.8;" x="0" xlink:href="#me01731220f" y="144"/>
    </g>
   </g>
   <g id="patch_4">
    <path clip-path="url(#p93f97cbb9f)" d="M 44.266667 106.37 
L 44.266667 102.595 
L 46.746667 102.595 
L 46.746667 101.085 
L 41.786667 99.575 
L 38.48 99.575 
L 38.48 113.165 
L 41.786667 113.165 
L 46.746667 111.655 
L 46.746667 110.145 
L 44.266667 110.145 
z
" style="fill:#808080;opacity:0.8;stroke:#000000;stroke-linejoin:miter;"/>
   </g>
   <g id="patch_5">
    <path clip-path="url(#p93f97cbb9f)" d="M 250.933333 107.356581 
L 250.933333 103.581581 
L 248.453333 103.581581 
L 248.453333 102.071581 
L 253.413333 100.561581 
L 256.72 100.561581 
L 256.72 114.151581 
L 253.413333 114.151581 
L 248.453333 112.641581 
L 248.453333 111.131581 
L 250.933333 111.131581 
z
" style="fill:#808080;opacity:0.8;stroke:#000000;stroke-linejoin:miter;"/>
   </g>
   <g id="matplotlib.axis_3">
    <g id="xtick_7"/>
    <g id="xtick_8"/>
    <g id="xtick_9"/>
    <g id="xtick_10"/>
    <g id="xtick_11"/>
    <g id="xtick_12"/>
   </g>
   <g id="matplotlib.axis_4">
    <g id="ytick_3"/>
    <g id="ytick_4"/>
    <g id="ytick_5"/>
   </g>
   <g id="line2d_2">
    <path clip-path="url(#p93f97cbb9f)" d="M 44.266667 106.37 
L 55.013333 106.483387 
L 66.586667 106.838857 
L 81.053333 107.527238 
L 110.813333 109.008638 
L 122.386667 109.319585 
L 133.133333 109.384751 
L 143.88 109.22393 
L 155.453333 108.826409 
L 171.16 108.041846 
L 195.546667 106.820616 
L 207.533333 106.465833 
L 218.28 106.370764 
L 229.026667 106.502355 
L 240.6 106.874173 
L 250.933333 107.356581 
L 250.933333 107.356581 
" style="fill:none;stroke:#000000;stroke-dasharray:11.1,4.8;stroke-dashoffset:0;stroke-width:3;"/>
   </g>
   <g id="line2d_3">
    <path clip-path="url(#p93f97cbb9f)" d="M 44.266667 102.595 
L 55.013333 102.708387 
L 66.586667 103.063857 
L 81.053333 103.752238 
L 110.813333 105.233638 
L 122.386667 105.544585 
L 133.133333 105.609751 
L 143.88 105.44893 
L 155.453333 105.051409 
L 171.16 104.266846 
L 195.546667 103.045616 
L 207.533333 102.690833 
L 218.28 102.595764 
L 229.026667 102.727355 
L 240.6 103.099173 
L 250.933333 103.581581 
L 250.933333 103.581581 
" style="fill:none;stroke:#8454ff;stroke-linecap:square;stroke-width:2;"/>
   </g>
   <g id="line2d_4">
    <path clip-path="url(#p93f97cbb9f)" d="M 44.266667 110.145 
L 55.013333 110.258387 
L 66.586667 110.613857 
L 81.053333 111.302238 
L 110.813333 112.783638 
L 122.386667 113.094585 
L 133.133333 113.159751 
L 143.88 112.99893 
L 155.453333 112.601409 
L 171.16 111.816846 
L 195.546667 110.595616 
L 207.533333 110.240833 
L 218.28 110.145764 
L 229.026667 110.277355 
L 240.6 110.649173 
L 250.933333 111.131581 
L 250.933333 111.131581 
" style="fill:none;stroke:#8454ff;stroke-linecap:square;stroke-width:2;"/>
   </g>
   <g id="line2d_5">
    <path clip-path="url(#p93f97cbb9f)" d="M 44.266667 110.145 
L 44.266667 102.595 
" style="fill:none;stroke:#8454ff;stroke-linecap:square;stroke-width:2;"/>
   </g>
   <g id="line2d_6">
    <path clip-path="url(#p93f97cbb9f)" d="M 250.933333 111.131581 
L 250.933333 103.581581 
" style="fill:none;stroke:#8454ff;stroke-linecap:square;stroke-width:2;"/>
   </g>
  </g>
 </g>
 <defs>
  <clipPath id="p42c34bb9c5">
   <rect height="72.48" width="223.2" x="36" y="17.28"/>
  </clipPath>
  <clipPath id="p93f97cbb9f">
   <rect height="36.24" width="223.2" x="36" y="89.76"/>
  </clipPath>
 </defs>
</svg>
