<?xml version="1.0" encoding="utf-8" standalone="no"?>
<!DOCTYPE svg PUBLIC "-//W3C//DTD SVG 1.1//EN"
  "http://www.w3.org/Graphics/SVG/1.1/DTD/svg11.dtd">
<!-- Created with matplotlib (https://matplotlib.org/) -->
<svg height="144pt" version="1.1" viewBox="0 0 288 144" width="288pt" xmlns="http://www.w3.org/2000/svg" xmlns:xlink="http://www.w3.org/1999/xlink">
 <defs>
  <style type="text/css">
*{stroke-linecap:butt;stroke-linejoin:round;white-space:pre;}
  </style>
 </defs>
 <g id="figure_1">
  <g id="patch_1">
   <path d="M 0 144 
L 288 144 
L 288 0 
L 0 0 
z
" style="fill:none;"/>
  </g>
  <g id="axes_1">
   <g id="patch_2">
    <path d="M 36 91.2 
L 259.2 91.2 
L 259.2 17.28 
L 36 17.28 
z
" style="fill:none;"/>
   </g>
   <g id="matplotlib.axis_1">
    <g id="xtick_1"/>
    <g id="xtick_2"/>
    <g id="xtick_3"/>
    <g id="xtick_4"/>
    <g id="xtick_5"/>
    <g id="xtick_6"/>
   </g>
   <g id="matplotlib.axis_2">
    <g id="ytick_1"/>
    <g id="ytick_2"/>
   </g>
   <g id="line2d_1">
    <path clip-path="url(#p20b87b735b)" d="M 44.266667 71.97291 
L 47.573333 69.603052 
L 50.88 67.515467 
L 53.773333 65.927557 
L 56.666667 64.566827 
L 59.56 63.435541 
L 62.453333 62.534117 
L 65.346667 61.861135 
L 68.24 61.413357 
L 71.133333 61.185768 
L 74.026667 61.171625 
L 76.92 61.362526 
L 80.226667 61.81889 
L 83.533333 62.512688 
L 86.84 63.424293 
L 90.56 64.683044 
L 94.693333 66.331458 
L 99.24 68.390545 
L 105.026667 71.27496 
L 124.453333 81.203917 
L 129 83.165058 
L 133.133333 84.709715 
L 136.853333 85.869421 
L 140.573333 86.782156 
L 143.88 87.36678 
L 147.186667 87.723238 
L 150.493333 87.84 
L 153.8 87.708246 
L 156.693333 87.384288 
L 159.586667 86.863134 
L 162.893333 86.025383 
L 166.2 84.931129 
L 169.506667 83.584956 
L 172.813333 81.994181 
L 176.12 80.168765 
L 179.84 77.850333 
L 183.56 75.272123 
L 187.693333 72.133051 
L 192.24 68.391196 
L 197.613333 63.654873 
L 204.226667 57.503354 
L 222.826667 39.992802 
L 228.2 35.340213 
L 232.746667 31.685671 
L 236.88 28.635308 
L 240.6 26.141485 
L 244.32 23.908871 
L 248.04 21.955966 
L 250.933333 20.64 
L 250.933333 20.64 
" style="fill:none;stroke:#8454ff;stroke-linecap:square;stroke-width:3;"/>
   </g>
  </g>
  <g id="axes_2">
   <g id="patch_3">
    <path d="M 36 128.16 
L 259.2 128.16 
L 259.2 91.2 
L 36 91.2 
z
" style="fill:none;"/>
   </g>
   <g id="PolyCollection_1">
    <defs>
     <path d="M 44.266667 -32.01 
L 44.266667 -39.71 
L 44.68 -39.709827 
L 45.093333 -39.709307 
L 45.506667 -39.708441 
L 45.92 -39.707229 
L 46.333333 -39.705671 
L 46.746667 -39.703767 
L 47.16 -39.701519 
L 47.573333 -39.698925 
L 47.986667 -39.695988 
L 48.4 -39.692707 
L 48.813333 -39.689084 
L 49.226667 -39.685119 
L 49.64 -39.680813 
L 50.053333 -39.676168 
L 50.466667 -39.671183 
L 50.88 -39.66586 
L 51.293333 -39.660201 
L 51.706667 -39.654207 
L 52.12 -39.647879 
L 52.533333 -39.641218 
L 52.946667 -39.634226 
L 53.36 -39.626905 
L 53.773333 -39.619256 
L 54.186667 -39.611281 
L 54.6 -39.602982 
L 55.013333 -39.59436 
L 55.426667 -39.585418 
L 55.84 -39.576157 
L 56.253333 -39.56658 
L 56.666667 -39.556689 
L 57.08 -39.546485 
L 57.493333 -39.535972 
L 57.906667 -39.525152 
L 58.32 -39.514027 
L 58.733333 -39.502599 
L 59.146667 -39.490871 
L 59.56 -39.478847 
L 59.973333 -39.466528 
L 60.386667 -39.453917 
L 60.8 -39.441017 
L 61.213333 -39.427831 
L 61.626667 -39.414362 
L 62.04 -39.400614 
L 62.453333 -39.386588 
L 62.866667 -39.372289 
L 63.28 -39.357719 
L 63.693333 -39.342882 
L 64.106667 -39.327781 
L 64.52 -39.312419 
L 64.933333 -39.296801 
L 65.346667 -39.280929 
L 65.76 -39.264807 
L 66.173333 -39.248439 
L 66.586667 -39.231828 
L 67 -39.214978 
L 67.413333 -39.197893 
L 67.826667 -39.180577 
L 68.24 -39.163033 
L 68.653333 -39.145266 
L 69.066667 -39.127279 
L 69.48 -39.109077 
L 69.893333 -39.090664 
L 70.306667 -39.072044 
L 70.72 -39.053221 
L 71.133333 -39.034199 
L 71.546667 -39.014982 
L 71.96 -38.995576 
L 72.373333 -38.975984 
L 72.786667 -38.95621 
L 73.2 -38.936259 
L 73.613333 -38.916136 
L 74.026667 -38.895846 
L 74.44 -38.875392 
L 74.853333 -38.854779 
L 75.266667 -38.834012 
L 75.68 -38.813096 
L 76.093333 -38.792035 
L 76.506667 -38.770834 
L 76.92 -38.749497 
L 77.333333 -38.728031 
L 77.746667 -38.706439 
L 78.16 -38.684726 
L 78.573333 -38.662898 
L 78.986667 -38.640958 
L 79.4 -38.618913 
L 79.813333 -38.596766 
L 80.226667 -38.574524 
L 80.64 -38.55219 
L 81.053333 -38.529771 
L 81.466667 -38.50727 
L 81.88 -38.484694 
L 82.293333 -38.462047 
L 82.706667 -38.439334 
L 83.12 -38.416561 
L 83.533333 -38.393732 
L 83.946667 -38.370853 
L 84.36 -38.347928 
L 84.773333 -38.324964 
L 85.186667 -38.301964 
L 85.6 -38.278935 
L 86.013333 -38.255882 
L 86.426667 -38.232809 
L 86.84 -38.209722 
L 87.253333 -38.186626 
L 87.666667 -38.163526 
L 88.08 -38.140428 
L 88.493333 -38.117337 
L 88.906667 -38.094257 
L 89.32 -38.071194 
L 89.733333 -38.048154 
L 90.146667 -38.025141 
L 90.56 -38.00216 
L 90.973333 -37.979218 
L 91.386667 -37.956318 
L 91.8 -37.933466 
L 92.213333 -37.910668 
L 92.626667 -37.887928 
L 93.04 -37.865251 
L 93.453333 -37.842643 
L 93.866667 -37.820109 
L 94.28 -37.797653 
L 94.693333 -37.775281 
L 95.106667 -37.752998 
L 95.52 -37.730809 
L 95.933333 -37.708718 
L 96.346667 -37.686732 
L 96.76 -37.664854 
L 97.173333 -37.64309 
L 97.586667 -37.621444 
L 98 -37.599922 
L 98.413333 -37.578527 
L 98.826667 -37.557267 
L 99.24 -37.536143 
L 99.653333 -37.515163 
L 100.066667 -37.49433 
L 100.48 -37.473649 
L 100.893333 -37.453124 
L 101.306667 -37.432761 
L 101.72 -37.412564 
L 102.133333 -37.392537 
L 102.546667 -37.372685 
L 102.96 -37.353013 
L 103.373333 -37.333524 
L 103.786667 -37.314223 
L 104.2 -37.295115 
L 104.613333 -37.276204 
L 105.026667 -37.257494 
L 105.44 -37.23899 
L 105.853333 -37.220694 
L 106.266667 -37.202613 
L 106.68 -37.184749 
L 107.093333 -37.167106 
L 107.506667 -37.14969 
L 107.92 -37.132503 
L 108.333333 -37.115549 
L 108.746667 -37.098832 
L 109.16 -37.082357 
L 109.573333 -37.066126 
L 109.986667 -37.050144 
L 110.4 -37.034414 
L 110.813333 -37.018939 
L 111.226667 -37.003723 
L 111.64 -36.988769 
L 112.053333 -36.974082 
L 112.466667 -36.959663 
L 112.88 -36.945517 
L 113.293333 -36.931646 
L 113.706667 -36.918054 
L 114.12 -36.904743 
L 114.533333 -36.891718 
L 114.946667 -36.878979 
L 115.36 -36.866532 
L 115.773333 -36.854377 
L 116.186667 -36.842519 
L 116.6 -36.830959 
L 117.013333 -36.8197 
L 117.426667 -36.808746 
L 117.84 -36.798097 
L 118.253333 -36.787758 
L 118.666667 -36.777729 
L 119.08 -36.768013 
L 119.493333 -36.758613 
L 119.906667 -36.749531 
L 120.32 -36.740768 
L 120.733333 -36.732327 
L 121.146667 -36.724209 
L 121.56 -36.716416 
L 121.973333 -36.708951 
L 122.386667 -36.701814 
L 122.8 -36.695008 
L 123.213333 -36.688533 
L 123.626667 -36.682392 
L 124.04 -36.676585 
L 124.453333 -36.671115 
L 124.866667 -36.665982 
L 125.28 -36.661187 
L 125.693333 -36.656731 
L 126.106667 -36.652616 
L 126.52 -36.648843 
L 126.933333 -36.645412 
L 127.346667 -36.642323 
L 127.76 -36.639579 
L 128.173333 -36.637179 
L 128.586667 -36.635123 
L 129 -36.633413 
L 129.413333 -36.632049 
L 129.826667 -36.631031 
L 130.24 -36.630359 
L 130.653333 -36.630033 
L 131.066667 -36.630054 
L 131.48 -36.630422 
L 131.893333 -36.631136 
L 132.306667 -36.632196 
L 132.72 -36.633602 
L 133.133333 -36.635354 
L 133.546667 -36.637451 
L 133.96 -36.639893 
L 134.373333 -36.642679 
L 134.786667 -36.645808 
L 135.2 -36.649281 
L 135.613333 -36.653096 
L 136.026667 -36.657252 
L 136.44 -36.661749 
L 136.853333 -36.666585 
L 137.266667 -36.671759 
L 137.68 -36.67727 
L 138.093333 -36.683117 
L 138.506667 -36.689299 
L 138.92 -36.695813 
L 139.333333 -36.70266 
L 139.746667 -36.709837 
L 140.16 -36.717342 
L 140.573333 -36.725174 
L 140.986667 -36.733331 
L 141.4 -36.741811 
L 141.813333 -36.750613 
L 142.226667 -36.759734 
L 142.64 -36.769172 
L 143.053333 -36.778926 
L 143.466667 -36.788992 
L 143.88 -36.799369 
L 144.293333 -36.810055 
L 144.706667 -36.821046 
L 145.12 -36.832341 
L 145.533333 -36.843938 
L 145.946667 -36.855832 
L 146.36 -36.868022 
L 146.773333 -36.880505 
L 147.186667 -36.893278 
L 147.6 -36.906339 
L 148.013333 -36.919683 
L 148.426667 -36.933309 
L 148.84 -36.947214 
L 149.253333 -36.961393 
L 149.666667 -36.975844 
L 150.08 -36.990564 
L 150.493333 -37.00555 
L 150.906667 -37.020797 
L 151.32 -37.036303 
L 151.733333 -37.052064 
L 152.146667 -37.068077 
L 152.56 -37.084337 
L 152.973333 -37.100842 
L 153.386667 -37.117587 
L 153.8 -37.13457 
L 154.213333 -37.151785 
L 154.626667 -37.169229 
L 155.04 -37.186898 
L 155.453333 -37.204789 
L 155.866667 -37.222896 
L 156.28 -37.241217 
L 156.693333 -37.259747 
L 157.106667 -37.278481 
L 157.52 -37.297417 
L 157.933333 -37.316548 
L 158.346667 -37.335872 
L 158.76 -37.355383 
L 159.173333 -37.375077 
L 159.586667 -37.394951 
L 160 -37.414998 
L 160.413333 -37.435216 
L 160.826667 -37.455599 
L 161.24 -37.476142 
L 161.653333 -37.496842 
L 162.066667 -37.517693 
L 162.48 -37.538691 
L 162.893333 -37.559831 
L 163.306667 -37.581109 
L 163.72 -37.602519 
L 164.133333 -37.624056 
L 164.546667 -37.645716 
L 164.96 -37.667495 
L 165.373333 -37.689386 
L 165.786667 -37.711385 
L 166.2 -37.733488 
L 166.613333 -37.755689 
L 167.026667 -37.777983 
L 167.44 -37.800365 
L 167.853333 -37.822831 
L 168.266667 -37.845374 
L 168.68 -37.867991 
L 169.093333 -37.890676 
L 169.506667 -37.913423 
L 169.92 -37.936228 
L 170.333333 -37.959086 
L 170.746667 -37.981991 
L 171.16 -38.004939 
L 171.573333 -38.027923 
L 171.986667 -38.05094 
L 172.4 -38.073983 
L 172.813333 -38.097048 
L 173.226667 -38.12013 
L 173.64 -38.143222 
L 174.053333 -38.166321 
L 174.466667 -38.18942 
L 174.88 -38.212516 
L 175.293333 -38.235601 
L 175.706667 -38.258672 
L 176.12 -38.281723 
L 176.533333 -38.304748 
L 176.946667 -38.327744 
L 177.36 -38.350704 
L 177.773333 -38.373623 
L 178.186667 -38.396496 
L 178.6 -38.419319 
L 179.013333 -38.442085 
L 179.426667 -38.46479 
L 179.84 -38.487429 
L 180.253333 -38.509997 
L 180.666667 -38.532487 
L 181.08 -38.554897 
L 181.493333 -38.57722 
L 181.906667 -38.599451 
L 182.32 -38.621585 
L 182.733333 -38.643618 
L 183.146667 -38.665544 
L 183.56 -38.687359 
L 183.973333 -38.709058 
L 184.386667 -38.730635 
L 184.8 -38.752086 
L 185.213333 -38.773406 
L 185.626667 -38.79459 
L 186.04 -38.815634 
L 186.453333 -38.836532 
L 186.866667 -38.857281 
L 187.28 -38.877875 
L 187.693333 -38.898309 
L 188.106667 -38.91858 
L 188.52 -38.938682 
L 188.933333 -38.958612 
L 189.346667 -38.978364 
L 189.76 -38.997934 
L 190.173333 -39.017317 
L 190.586667 -39.03651 
L 191 -39.055509 
L 191.413333 -39.074308 
L 191.826667 -39.092903 
L 192.24 -39.111291 
L 192.653333 -39.129467 
L 193.066667 -39.147427 
L 193.48 -39.165167 
L 193.893333 -39.182684 
L 194.306667 -39.199972 
L 194.72 -39.217029 
L 195.133333 -39.23385 
L 195.546667 -39.250432 
L 195.96 -39.26677 
L 196.373333 -39.282862 
L 196.786667 -39.298704 
L 197.2 -39.314292 
L 197.613333 -39.329622 
L 198.026667 -39.344691 
L 198.44 -39.359496 
L 198.853333 -39.374033 
L 199.266667 -39.388299 
L 199.68 -39.402292 
L 200.093333 -39.416007 
L 200.506667 -39.429441 
L 200.92 -39.442593 
L 201.333333 -39.455458 
L 201.746667 -39.468033 
L 202.16 -39.480317 
L 202.573333 -39.492306 
L 202.986667 -39.503997 
L 203.4 -39.515389 
L 203.813333 -39.526477 
L 204.226667 -39.53726 
L 204.64 -39.547736 
L 205.053333 -39.557902 
L 205.466667 -39.567755 
L 205.88 -39.577294 
L 206.293333 -39.586516 
L 206.706667 -39.59542 
L 207.12 -39.604003 
L 207.533333 -39.612263 
L 207.946667 -39.620199 
L 208.36 -39.627808 
L 208.773333 -39.63509 
L 209.186667 -39.642042 
L 209.6 -39.648662 
L 210.013333 -39.65495 
L 210.426667 -39.660904 
L 210.84 -39.666522 
L 211.253333 -39.671804 
L 211.666667 -39.676748 
L 212.08 -39.681352 
L 212.493333 -39.685617 
L 212.906667 -39.689541 
L 213.32 -39.693123 
L 213.733333 -39.696362 
L 214.146667 -39.699257 
L 214.56 -39.701809 
L 214.973333 -39.704016 
L 215.386667 -39.705878 
L 215.8 -39.707394 
L 216.213333 -39.708564 
L 216.626667 -39.709388 
L 217.04 -39.709866 
L 217.453333 -39.709997 
L 217.866667 -39.709782 
L 218.28 -39.709221 
L 218.693333 -39.708313 
L 219.106667 -39.707059 
L 219.52 -39.705459 
L 219.933333 -39.703514 
L 220.346667 -39.701223 
L 220.76 -39.698588 
L 221.173333 -39.695609 
L 221.586667 -39.692287 
L 222 -39.688623 
L 222.413333 -39.684616 
L 222.826667 -39.680269 
L 223.24 -39.675583 
L 223.653333 -39.670557 
L 224.066667 -39.665194 
L 224.48 -39.659494 
L 224.893333 -39.653459 
L 225.306667 -39.647091 
L 225.72 -39.64039 
L 226.133333 -39.633358 
L 226.546667 -39.625997 
L 226.96 -39.618309 
L 227.373333 -39.610294 
L 227.786667 -39.601956 
L 228.2 -39.593295 
L 228.613333 -39.584314 
L 229.026667 -39.575015 
L 229.44 -39.5654 
L 229.853333 -39.555471 
L 230.266667 -39.54523 
L 230.68 -39.534679 
L 231.093333 -39.523822 
L 231.506667 -39.51266 
L 231.92 -39.501196 
L 232.333333 -39.489432 
L 232.746667 -39.477372 
L 233.16 -39.465017 
L 233.573333 -39.452371 
L 233.986667 -39.439437 
L 234.4 -39.426217 
L 234.813333 -39.412714 
L 235.226667 -39.398931 
L 235.64 -39.384873 
L 236.053333 -39.37054 
L 236.466667 -39.355938 
L 236.88 -39.341069 
L 237.293333 -39.325936 
L 237.706667 -39.310543 
L 238.12 -39.294894 
L 238.533333 -39.278992 
L 238.946667 -39.26284 
L 239.36 -39.246442 
L 239.773333 -39.229802 
L 240.186667 -39.212923 
L 240.6 -39.19581 
L 241.013333 -39.178466 
L 241.426667 -39.160895 
L 241.84 -39.143101 
L 242.253333 -39.125089 
L 242.666667 -39.106861 
L 243.08 -39.088423 
L 243.493333 -39.069778 
L 243.906667 -39.05093 
L 244.32 -39.031884 
L 244.733333 -39.012645 
L 245.146667 -38.993215 
L 245.56 -38.973601 
L 245.973333 -38.953806 
L 246.386667 -38.933834 
L 246.8 -38.913691 
L 247.213333 -38.89338 
L 247.626667 -38.872906 
L 248.04 -38.852274 
L 248.453333 -38.831489 
L 248.866667 -38.810555 
L 249.28 -38.789477 
L 249.693333 -38.768259 
L 250.106667 -38.746907 
L 250.52 -38.725425 
L 250.933333 -38.703818 
L 250.933333 -31.003818 
L 250.933333 -31.003818 
L 250.52 -31.025425 
L 250.106667 -31.046907 
L 249.693333 -31.068259 
L 249.28 -31.089477 
L 248.866667 -31.110555 
L 248.453333 -31.131489 
L 248.04 -31.152274 
L 247.626667 -31.172906 
L 247.213333 -31.19338 
L 246.8 -31.213691 
L 246.386667 -31.233834 
L 245.973333 -31.253806 
L 245.56 -31.273601 
L 245.146667 -31.293215 
L 244.733333 -31.312645 
L 244.32 -31.331884 
L 243.906667 -31.35093 
L 243.493333 -31.369778 
L 243.08 -31.388423 
L 242.666667 -31.406861 
L 242.253333 -31.425089 
L 241.84 -31.443101 
L 241.426667 -31.460895 
L 241.013333 -31.478466 
L 240.6 -31.49581 
L 240.186667 -31.512923 
L 239.773333 -31.529802 
L 239.36 -31.546442 
L 238.946667 -31.56284 
L 238.533333 -31.578992 
L 238.12 -31.594894 
L 237.706667 -31.610543 
L 237.293333 -31.625936 
L 236.88 -31.641069 
L 236.466667 -31.655938 
L 236.053333 -31.67054 
L 235.64 -31.684873 
L 235.226667 -31.698931 
L 234.813333 -31.712714 
L 234.4 -31.726217 
L 233.986667 -31.739437 
L 233.573333 -31.752371 
L 233.16 -31.765017 
L 232.746667 -31.777372 
L 232.333333 -31.789432 
L 231.92 -31.801196 
L 231.506667 -31.81266 
L 231.093333 -31.823822 
L 230.68 -31.834679 
L 230.266667 -31.84523 
L 229.853333 -31.855471 
L 229.44 -31.8654 
L 229.026667 -31.875015 
L 228.613333 -31.884314 
L 228.2 -31.893295 
L 227.786667 -31.901956 
L 227.373333 -31.910294 
L 226.96 -31.918309 
L 226.546667 -31.925997 
L 226.133333 -31.933358 
L 225.72 -31.94039 
L 225.306667 -31.947091 
L 224.893333 -31.953459 
L 224.48 -31.959494 
L 224.066667 -31.965194 
L 223.653333 -31.970557 
L 223.24 -31.975583 
L 222.826667 -31.980269 
L 222.413333 -31.984616 
L 222 -31.988623 
L 221.586667 -31.992287 
L 221.173333 -31.995609 
L 220.76 -31.998588 
L 220.346667 -32.001223 
L 219.933333 -32.003514 
L 219.52 -32.005459 
L 219.106667 -32.007059 
L 218.693333 -32.008313 
L 218.28 -32.009221 
L 217.866667 -32.009782 
L 217.453333 -32.009997 
L 217.04 -32.009866 
L 216.626667 -32.009388 
L 216.213333 -32.008564 
L 215.8 -32.007394 
L 215.386667 -32.005878 
L 214.973333 -32.004016 
L 214.56 -32.001809 
L 214.146667 -31.999257 
L 213.733333 -31.996362 
L 213.32 -31.993123 
L 212.906667 -31.989541 
L 212.493333 -31.985617 
L 212.08 -31.981352 
L 211.666667 -31.976748 
L 211.253333 -31.971804 
L 210.84 -31.966522 
L 210.426667 -31.960904 
L 210.013333 -31.95495 
L 209.6 -31.948662 
L 209.186667 -31.942042 
L 208.773333 -31.93509 
L 208.36 -31.927808 
L 207.946667 -31.920199 
L 207.533333 -31.912263 
L 207.12 -31.904003 
L 206.706667 -31.89542 
L 206.293333 -31.886516 
L 205.88 -31.877294 
L 205.466667 -31.867755 
L 205.053333 -31.857902 
L 204.64 -31.847736 
L 204.226667 -31.83726 
L 203.813333 -31.826477 
L 203.4 -31.815389 
L 202.986667 -31.803997 
L 202.573333 -31.792306 
L 202.16 -31.780317 
L 201.746667 -31.768033 
L 201.333333 -31.755458 
L 200.92 -31.742593 
L 200.506667 -31.729441 
L 200.093333 -31.716007 
L 199.68 -31.702292 
L 199.266667 -31.688299 
L 198.853333 -31.674033 
L 198.44 -31.659496 
L 198.026667 -31.644691 
L 197.613333 -31.629622 
L 197.2 -31.614292 
L 196.786667 -31.598704 
L 196.373333 -31.582862 
L 195.96 -31.56677 
L 195.546667 -31.550432 
L 195.133333 -31.53385 
L 194.72 -31.517029 
L 194.306667 -31.499972 
L 193.893333 -31.482684 
L 193.48 -31.465167 
L 193.066667 -31.447427 
L 192.653333 -31.429467 
L 192.24 -31.411291 
L 191.826667 -31.392903 
L 191.413333 -31.374308 
L 191 -31.355509 
L 190.586667 -31.33651 
L 190.173333 -31.317317 
L 189.76 -31.297934 
L 189.346667 -31.278364 
L 188.933333 -31.258612 
L 188.52 -31.238682 
L 188.106667 -31.21858 
L 187.693333 -31.198309 
L 187.28 -31.177875 
L 186.866667 -31.157281 
L 186.453333 -31.136532 
L 186.04 -31.115634 
L 185.626667 -31.09459 
L 185.213333 -31.073406 
L 184.8 -31.052086 
L 184.386667 -31.030635 
L 183.973333 -31.009058 
L 183.56 -30.987359 
L 183.146667 -30.965544 
L 182.733333 -30.943618 
L 182.32 -30.921585 
L 181.906667 -30.899451 
L 181.493333 -30.87722 
L 181.08 -30.854897 
L 180.666667 -30.832487 
L 180.253333 -30.809997 
L 179.84 -30.787429 
L 179.426667 -30.76479 
L 179.013333 -30.742085 
L 178.6 -30.719319 
L 178.186667 -30.696496 
L 177.773333 -30.673623 
L 177.36 -30.650704 
L 176.946667 -30.627744 
L 176.533333 -30.604748 
L 176.12 -30.581723 
L 175.706667 -30.558672 
L 175.293333 -30.535601 
L 174.88 -30.512516 
L 174.466667 -30.48942 
L 174.053333 -30.466321 
L 173.64 -30.443222 
L 173.226667 -30.42013 
L 172.813333 -30.397048 
L 172.4 -30.373983 
L 171.986667 -30.35094 
L 171.573333 -30.327923 
L 171.16 -30.304939 
L 170.746667 -30.281991 
L 170.333333 -30.259086 
L 169.92 -30.236228 
L 169.506667 -30.213423 
L 169.093333 -30.190676 
L 168.68 -30.167991 
L 168.266667 -30.145374 
L 167.853333 -30.122831 
L 167.44 -30.100365 
L 167.026667 -30.077983 
L 166.613333 -30.055689 
L 166.2 -30.033488 
L 165.786667 -30.011385 
L 165.373333 -29.989386 
L 164.96 -29.967495 
L 164.546667 -29.945716 
L 164.133333 -29.924056 
L 163.72 -29.902519 
L 163.306667 -29.881109 
L 162.893333 -29.859831 
L 162.48 -29.838691 
L 162.066667 -29.817693 
L 161.653333 -29.796842 
L 161.24 -29.776142 
L 160.826667 -29.755599 
L 160.413333 -29.735216 
L 160 -29.714998 
L 159.586667 -29.694951 
L 159.173333 -29.675077 
L 158.76 -29.655383 
L 158.346667 -29.635872 
L 157.933333 -29.616548 
L 157.52 -29.597417 
L 157.106667 -29.578481 
L 156.693333 -29.559747 
L 156.28 -29.541217 
L 155.866667 -29.522896 
L 155.453333 -29.504789 
L 155.04 -29.486898 
L 154.626667 -29.469229 
L 154.213333 -29.451785 
L 153.8 -29.43457 
L 153.386667 -29.417587 
L 152.973333 -29.400842 
L 152.56 -29.384337 
L 152.146667 -29.368077 
L 151.733333 -29.352064 
L 151.32 -29.336303 
L 150.906667 -29.320797 
L 150.493333 -29.30555 
L 150.08 -29.290564 
L 149.666667 -29.275844 
L 149.253333 -29.261393 
L 148.84 -29.247214 
L 148.426667 -29.233309 
L 148.013333 -29.219683 
L 147.6 -29.206339 
L 147.186667 -29.193278 
L 146.773333 -29.180505 
L 146.36 -29.168022 
L 145.946667 -29.155832 
L 145.533333 -29.143938 
L 145.12 -29.132341 
L 144.706667 -29.121046 
L 144.293333 -29.110055 
L 143.88 -29.099369 
L 143.466667 -29.088992 
L 143.053333 -29.078926 
L 142.64 -29.069172 
L 142.226667 -29.059734 
L 141.813333 -29.050613 
L 141.4 -29.041811 
L 140.986667 -29.033331 
L 140.573333 -29.025174 
L 140.16 -29.017342 
L 139.746667 -29.009837 
L 139.333333 -29.00266 
L 138.92 -28.995813 
L 138.506667 -28.989299 
L 138.093333 -28.983117 
L 137.68 -28.97727 
L 137.266667 -28.971759 
L 136.853333 -28.966585 
L 136.44 -28.961749 
L 136.026667 -28.957252 
L 135.613333 -28.953096 
L 135.2 -28.949281 
L 134.786667 -28.945808 
L 134.373333 -28.942679 
L 133.96 -28.939893 
L 133.546667 -28.937451 
L 133.133333 -28.935354 
L 132.72 -28.933602 
L 132.306667 -28.932196 
L 131.893333 -28.931136 
L 131.48 -28.930422 
L 131.066667 -28.930054 
L 130.653333 -28.930033 
L 130.24 -28.930359 
L 129.826667 -28.931031 
L 129.413333 -28.932049 
L 129 -28.933413 
L 128.586667 -28.935123 
L 128.173333 -28.937179 
L 127.76 -28.939579 
L 127.346667 -28.942323 
L 126.933333 -28.945412 
L 126.52 -28.948843 
L 126.106667 -28.952616 
L 125.693333 -28.956731 
L 125.28 -28.961187 
L 124.866667 -28.965982 
L 124.453333 -28.971115 
L 124.04 -28.976585 
L 123.626667 -28.982392 
L 123.213333 -28.988533 
L 122.8 -28.995008 
L 122.386667 -29.001814 
L 121.973333 -29.008951 
L 121.56 -29.016416 
L 121.146667 -29.024209 
L 120.733333 -29.032327 
L 120.32 -29.040768 
L 119.906667 -29.049531 
L 119.493333 -29.058613 
L 119.08 -29.068013 
L 118.666667 -29.077729 
L 118.253333 -29.087758 
L 117.84 -29.098097 
L 117.426667 -29.108746 
L 117.013333 -29.1197 
L 116.6 -29.130959 
L 116.186667 -29.142519 
L 115.773333 -29.154377 
L 115.36 -29.166532 
L 114.946667 -29.178979 
L 114.533333 -29.191718 
L 114.12 -29.204743 
L 113.706667 -29.218054 
L 113.293333 -29.231646 
L 112.88 -29.245517 
L 112.466667 -29.259663 
L 112.053333 -29.274082 
L 111.64 -29.288769 
L 111.226667 -29.303723 
L 110.813333 -29.318939 
L 110.4 -29.334414 
L 109.986667 -29.350144 
L 109.573333 -29.366126 
L 109.16 -29.382357 
L 108.746667 -29.398832 
L 108.333333 -29.415549 
L 107.92 -29.432503 
L 107.506667 -29.44969 
L 107.093333 -29.467106 
L 106.68 -29.484749 
L 106.266667 -29.502613 
L 105.853333 -29.520694 
L 105.44 -29.53899 
L 105.026667 -29.557494 
L 104.613333 -29.576204 
L 104.2 -29.595115 
L 103.786667 -29.614223 
L 103.373333 -29.633524 
L 102.96 -29.653013 
L 102.546667 -29.672685 
L 102.133333 -29.692537 
L 101.72 -29.712564 
L 101.306667 -29.732761 
L 100.893333 -29.753124 
L 100.48 -29.773649 
L 100.066667 -29.79433 
L 99.653333 -29.815163 
L 99.24 -29.836143 
L 98.826667 -29.857267 
L 98.413333 -29.878527 
L 98 -29.899922 
L 97.586667 -29.921444 
L 97.173333 -29.94309 
L 96.76 -29.964854 
L 96.346667 -29.986732 
L 95.933333 -30.008718 
L 95.52 -30.030809 
L 95.106667 -30.052998 
L 94.693333 -30.075281 
L 94.28 -30.097653 
L 93.866667 -30.120109 
L 93.453333 -30.142643 
L 93.04 -30.165251 
L 92.626667 -30.187928 
L 92.213333 -30.210668 
L 91.8 -30.233466 
L 91.386667 -30.256318 
L 90.973333 -30.279218 
L 90.56 -30.30216 
L 90.146667 -30.325141 
L 89.733333 -30.348154 
L 89.32 -30.371194 
L 88.906667 -30.394257 
L 88.493333 -30.417337 
L 88.08 -30.440428 
L 87.666667 -30.463526 
L 87.253333 -30.486626 
L 86.84 -30.509722 
L 86.426667 -30.532809 
L 86.013333 -30.555882 
L 85.6 -30.578935 
L 85.186667 -30.601964 
L 84.773333 -30.624964 
L 84.36 -30.647928 
L 83.946667 -30.670853 
L 83.533333 -30.693732 
L 83.12 -30.716561 
L 82.706667 -30.739334 
L 82.293333 -30.762047 
L 81.88 -30.784694 
L 81.466667 -30.80727 
L 81.053333 -30.829771 
L 80.64 -30.85219 
L 80.226667 -30.874524 
L 79.813333 -30.896766 
L 79.4 -30.918913 
L 78.986667 -30.940958 
L 78.573333 -30.962898 
L 78.16 -30.984726 
L 77.746667 -31.006439 
L 77.333333 -31.028031 
L 76.92 -31.049497 
L 76.506667 -31.070834 
L 76.093333 -31.092035 
L 75.68 -31.113096 
L 75.266667 -31.134012 
L 74.853333 -31.154779 
L 74.44 -31.175392 
L 74.026667 -31.195846 
L 73.613333 -31.216136 
L 73.2 -31.236259 
L 72.786667 -31.25621 
L 72.373333 -31.275984 
L 71.96 -31.295576 
L 71.546667 -31.314982 
L 71.133333 -31.334199 
L 70.72 -31.353221 
L 70.306667 -31.372044 
L 69.893333 -31.390664 
L 69.48 -31.409077 
L 69.066667 -31.427279 
L 68.653333 -31.445266 
L 68.24 -31.463033 
L 67.826667 -31.480577 
L 67.413333 -31.497893 
L 67 -31.514978 
L 66.586667 -31.531828 
L 66.173333 -31.548439 
L 65.76 -31.564807 
L 65.346667 -31.580929 
L 64.933333 -31.596801 
L 64.52 -31.612419 
L 64.106667 -31.627781 
L 63.693333 -31.642882 
L 63.28 -31.657719 
L 62.866667 -31.672289 
L 62.453333 -31.686588 
L 62.04 -31.700614 
L 61.626667 -31.714362 
L 61.213333 -31.727831 
L 60.8 -31.741017 
L 60.386667 -31.753917 
L 59.973333 -31.766528 
L 59.56 -31.778847 
L 59.146667 -31.790871 
L 58.733333 -31.802599 
L 58.32 -31.814027 
L 57.906667 -31.825152 
L 57.493333 -31.835972 
L 57.08 -31.846485 
L 56.666667 -31.856689 
L 56.253333 -31.86658 
L 55.84 -31.876157 
L 55.426667 -31.885418 
L 55.013333 -31.89436 
L 54.6 -31.902982 
L 54.186667 -31.911281 
L 53.773333 -31.919256 
L 53.36 -31.926905 
L 52.946667 -31.934226 
L 52.533333 -31.941218 
L 52.12 -31.947879 
L 51.706667 -31.954207 
L 51.293333 -31.960201 
L 50.88 -31.96586 
L 50.466667 -31.971183 
L 50.053333 -31.976168 
L 49.64 -31.980813 
L 49.226667 -31.985119 
L 48.813333 -31.989084 
L 48.4 -31.992707 
L 47.986667 -31.995988 
L 47.573333 -31.998925 
L 47.16 -32.001519 
L 46.746667 -32.003767 
L 46.333333 -32.005671 
L 45.92 -32.007229 
L 45.506667 -32.008441 
L 45.093333 -32.009307 
L 44.68 -32.009827 
L 44.266667 -32.01 
z
" id="mc021eba8f4" style="stroke:#8454ff;stroke-opacity:0.8;"/>
    </defs>
    <g clip-path="url(#pa11870e5dc)">
     <use style="fill:#8454ff;fill-opacity:0.8;stroke:#8454ff;stroke-opacity:0.8;" x="0" xlink:href="#mc021eba8f4" y="144"/>
    </g>
   </g>
   <g id="patch_4">
    <path clip-path="url(#pa11870e5dc)" d="M 44.266667 108.14 
L 44.266667 104.29 
L 46.746667 104.29 
L 46.746667 102.75 
L 41.786667 101.21 
L 38.48 101.21 
L 38.48 115.07 
L 41.786667 115.07 
L 46.746667 113.53 
L 46.746667 111.99 
L 44.266667 111.99 
z
" style="fill:#808080;opacity:0.8;stroke:#000000;stroke-linejoin:miter;"/>
   </g>
   <g id="patch_5">
    <path clip-path="url(#pa11870e5dc)" d="M 250.933333 109.146182 
L 250.933333 105.296182 
L 248.453333 105.296182 
L 248.453333 103.756182 
L 253.413333 102.216182 
L 256.72 102.216182 
L 256.72 116.076182 
L 253.413333 116.076182 
L 248.453333 114.536182 
L 248.453333 112.996182 
L 250.933333 112.996182 
z
" style="fill:#808080;opacity:0.8;stroke:#000000;stroke-linejoin:miter;"/>
   </g>
   <g id="matplotlib.axis_3">
    <g id="xtick_7"/>
    <g id="xtick_8"/>
    <g id="xtick_9"/>
    <g id="xtick_10"/>
    <g id="xtick_11"/>
    <g id="xtick_12"/>
   </g>
   <g id="matplotlib.axis_4">
    <g id="ytick_3"/>
    <g id="ytick_4"/>
    <g id="ytick_5"/>
   </g>
   <g id="line2d_2">
    <path clip-path="url(#pa11870e5dc)" d="M 44.266667 108.14 
L 54.6 108.247018 
L 65.76 108.585193 
L 79.4 109.231087 
L 112.053333 110.875918 
L 123.213333 111.161467 
L 133.96 111.210107 
L 144.706667 111.028954 
L 156.693333 110.590253 
L 173.226667 109.72987 
L 195.133333 108.61615 
L 207.12 108.245997 
L 217.866667 108.140218 
L 228.613333 108.265686 
L 240.186667 108.637077 
L 250.933333 109.146182 
L 250.933333 109.146182 
" style="fill:none;stroke:#000000;stroke-dasharray:11.1,4.8;stroke-dashoffset:0;stroke-width:3;"/>
   </g>
   <g id="line2d_3">
    <path clip-path="url(#pa11870e5dc)" d="M 44.266667 104.29 
L 54.6 104.397018 
L 65.76 104.735193 
L 79.4 105.381087 
L 112.053333 107.025918 
L 123.213333 107.311467 
L 133.96 107.360107 
L 144.706667 107.178954 
L 156.693333 106.740253 
L 173.226667 105.87987 
L 195.133333 104.76615 
L 207.12 104.395997 
L 217.866667 104.290218 
L 228.613333 104.415686 
L 240.186667 104.787077 
L 250.933333 105.296182 
L 250.933333 105.296182 
" style="fill:none;stroke:#8454ff;stroke-linecap:square;stroke-width:2;"/>
   </g>
   <g id="line2d_4">
    <path clip-path="url(#pa11870e5dc)" d="M 44.266667 111.99 
L 54.6 112.097018 
L 65.76 112.435193 
L 79.4 113.081087 
L 112.053333 114.725918 
L 123.213333 115.011467 
L 133.96 115.060107 
L 144.706667 114.878954 
L 156.693333 114.440253 
L 173.226667 113.57987 
L 195.133333 112.46615 
L 207.12 112.095997 
L 217.866667 111.990218 
L 228.613333 112.115686 
L 240.186667 112.487077 
L 250.933333 112.996182 
L 250.933333 112.996182 
" style="fill:none;stroke:#8454ff;stroke-linecap:square;stroke-width:2;"/>
   </g>
   <g id="line2d_5">
    <path clip-path="url(#pa11870e5dc)" d="M 44.266667 111.99 
L 44.266667 104.29 
" style="fill:none;stroke:#8454ff;stroke-linecap:square;stroke-width:2;"/>
   </g>
   <g id="line2d_6">
    <path clip-path="url(#pa11870e5dc)" d="M 250.933333 112.996182 
L 250.933333 105.296182 
" style="fill:none;stroke:#8454ff;stroke-linecap:square;stroke-width:2;"/>
   </g>
  </g>
 </g>
 <defs>
  <clipPath id="p20b87b735b">
   <rect height="73.92" width="223.2" x="36" y="17.28"/>
  </clipPath>
  <clipPath id="pa11870e5dc">
   <rect height="36.96" width="223.2" x="36" y="91.2"/>
  </clipPath>
 </defs>
</svg>
