<?xml version="1.0" encoding="utf-8" standalone="no"?>
<!DOCTYPE svg PUBLIC "-//W3C//DTD SVG 1.1//EN"
  "http://www.w3.org/Graphics/SVG/1.1/DTD/svg11.dtd">
<!-- Created with matplotlib (https://matplotlib.org/) -->
<svg height="172.8pt" version="1.1" viewBox="0 0 1015.2 172.8" width="1015.2pt" xmlns="http://www.w3.org/2000/svg" xmlns:xlink="http://www.w3.org/1999/xlink">
 <defs>
  <style type="text/css">
*{stroke-linecap:butt;stroke-linejoin:round;}
  </style>
 </defs>
 <g id="figure_1">
  <g id="patch_1">
   <path d="M 0 172.8 
L 1015.2 172.8 
L 1015.2 0 
L 0 0 
z
" style="fill:#ffffff;"/>
  </g>
  <g id="axes_1">
   <g id="patch_2">
    <path d="M 126.9 151.2 
L 913.68 151.2 
L 913.68 20.736 
L 126.9 20.736 
z
" style="fill:#ffffff;"/>
   </g>
   <g id="PolyCollection_1">
    <defs>
     <path d="M 162.662727 -73.242 
L 162.662727 -100.422 
L 164.093236 -100.422 
L 165.523745 -100.422 
L 166.954255 -100.422 
L 168.384764 -100.422 
L 169.815273 -100.422 
L 171.245782 -100.422 
L 172.676291 -100.422 
L 174.1068 -100.422 
L 175.537309 -100.422 
L 176.967818 -100.422 
L 178.398327 -100.422 
L 179.828836 -100.422 
L 181.259345 -100.422 
L 182.689855 -100.422 
L 184.120364 -100.422 
L 185.550873 -100.422 
L 186.981382 -100.422 
L 188.411891 -100.422 
L 189.8424 -100.422 
L 191.272909 -100.422 
L 192.703418 -100.422 
L 194.133927 -100.422 
L 195.564436 -100.422 
L 196.994945 -100.422 
L 198.425455 -100.422 
L 199.855964 -100.422 
L 201.286473 -100.422 
L 202.716982 -100.422 
L 204.147491 -100.422 
L 205.578 -100.422 
L 207.008509 -100.422 
L 208.439018 -100.422 
L 209.869527 -100.422 
L 211.300036 -100.422 
L 212.730545 -100.422 
L 214.161055 -100.422 
L 215.591564 -100.422 
L 217.022073 -100.422 
L 218.452582 -100.422 
L 219.883091 -100.422 
L 221.3136 -100.422 
L 222.744109 -100.422 
L 224.174618 -100.422 
L 225.605127 -100.422 
L 227.035636 -100.422 
L 228.466145 -100.422 
L 229.896655 -100.422 
L 231.327164 -100.422 
L 232.757673 -100.422 
L 234.188182 -100.422 
L 235.618691 -100.422 
L 237.0492 -100.422 
L 238.479709 -100.422 
L 239.910218 -100.422 
L 241.340727 -100.422 
L 242.771236 -100.422 
L 244.201745 -100.422 
L 245.632255 -100.422 
L 247.062764 -100.422 
L 248.493273 -100.422 
L 249.923782 -100.422 
L 251.354291 -100.422 
L 252.7848 -100.422 
L 254.215309 -100.422 
L 255.645818 -100.422 
L 257.076327 -100.422 
L 258.506836 -100.422 
L 259.937345 -100.422 
L 261.367855 -100.422 
L 262.798364 -100.422 
L 264.228873 -100.422 
L 265.659382 -100.422 
L 267.089891 -100.422 
L 268.5204 -100.422 
L 269.950909 -100.422 
L 271.381418 -100.422 
L 272.811927 -100.422 
L 274.242436 -100.422 
L 275.672945 -100.422 
L 277.103455 -100.422 
L 278.533964 -100.422 
L 279.964473 -100.422 
L 281.394982 -100.422 
L 282.825491 -100.422 
L 284.256 -100.422 
L 285.686509 -100.422 
L 287.117018 -100.422 
L 288.547527 -100.422 
L 289.978036 -100.422 
L 291.408545 -100.422 
L 292.839055 -100.422 
L 294.269564 -100.422 
L 295.700073 -100.422 
L 297.130582 -100.422 
L 298.561091 -100.422 
L 299.9916 -100.422 
L 301.422109 -100.422 
L 302.852618 -100.422 
L 304.283127 -100.422 
L 305.713636 -100.422 
L 307.144145 -100.422 
L 308.574655 -100.422 
L 310.005164 -100.422 
L 311.435673 -100.422 
L 312.866182 -100.422 
L 314.296691 -100.422 
L 315.7272 -100.422 
L 317.157709 -100.422 
L 318.588218 -100.422 
L 320.018727 -100.422 
L 321.449236 -100.422 
L 322.879745 -100.422 
L 324.310255 -100.422 
L 325.740764 -100.422 
L 327.171273 -100.422 
L 328.601782 -100.422 
L 330.032291 -100.422 
L 331.4628 -100.422 
L 332.893309 -100.422 
L 334.323818 -100.422 
L 335.754327 -100.422 
L 337.184836 -100.422 
L 338.615345 -100.422 
L 340.045855 -100.422 
L 341.476364 -100.422 
L 342.906873 -100.422 
L 344.337382 -100.422 
L 345.767891 -100.422 
L 347.1984 -100.422 
L 348.628909 -100.422 
L 350.059418 -100.422 
L 351.489927 -100.422 
L 352.920436 -100.422 
L 354.350945 -100.422 
L 355.781455 -100.422 
L 357.211964 -100.422 
L 358.642473 -100.422 
L 360.072982 -100.422 
L 361.503491 -100.422 
L 362.934 -100.422 
L 364.364509 -100.422 
L 365.795018 -100.422 
L 367.225527 -100.422 
L 368.656036 -100.422 
L 370.086545 -100.422 
L 371.517055 -100.422 
L 372.947564 -100.422 
L 374.378073 -100.422 
L 375.808582 -100.422 
L 377.239091 -100.422 
L 378.6696 -100.422 
L 380.100109 -100.422 
L 381.530618 -100.422 
L 382.961127 -100.422 
L 384.391636 -100.422 
L 385.822145 -100.422 
L 387.252655 -100.422 
L 388.683164 -100.422 
L 390.113673 -100.422 
L 391.544182 -100.422 
L 392.974691 -100.422 
L 394.4052 -100.422 
L 395.835709 -100.422 
L 397.266218 -100.422 
L 398.696727 -100.422 
L 400.127236 -100.422 
L 401.557745 -100.422 
L 402.988255 -100.422 
L 404.418764 -100.422 
L 405.849273 -100.422 
L 407.279782 -100.422 
L 408.710291 -100.422 
L 410.1408 -100.422 
L 411.571309 -100.422 
L 413.001818 -100.422 
L 414.432327 -100.422 
L 415.862836 -100.422 
L 417.293345 -100.422 
L 418.723855 -100.422 
L 420.154364 -100.422 
L 421.584873 -100.422 
L 423.015382 -100.422 
L 424.445891 -100.422 
L 425.8764 -100.422 
L 427.306909 -100.422 
L 428.737418 -100.422 
L 430.167927 -100.422 
L 431.598436 -100.422 
L 433.028945 -100.422 
L 434.459455 -100.422 
L 435.889964 -100.422 
L 437.320473 -100.422 
L 438.750982 -100.422 
L 440.181491 -100.422 
L 441.612 -100.422 
L 443.042509 -100.422 
L 444.473018 -100.422 
L 445.903527 -100.422 
L 447.334036 -100.422 
L 448.764545 -100.422 
L 450.195055 -100.422 
L 451.625564 -100.422 
L 453.056073 -100.422 
L 454.486582 -100.422 
L 455.917091 -100.422 
L 457.3476 -100.422 
L 458.778109 -100.422 
L 460.208618 -100.422 
L 461.639127 -100.422 
L 463.069636 -100.422 
L 464.500145 -100.422 
L 465.930655 -100.422 
L 467.361164 -100.422 
L 468.791673 -100.422 
L 470.222182 -100.422 
L 471.652691 -100.422 
L 473.0832 -100.422 
L 474.513709 -100.422 
L 475.944218 -100.422 
L 477.374727 -100.422 
L 478.805236 -100.422 
L 480.235745 -100.422 
L 481.666255 -100.422 
L 483.096764 -100.422 
L 484.527273 -100.422 
L 485.957782 -100.422 
L 487.388291 -100.422 
L 488.8188 -100.422 
L 490.249309 -100.422 
L 491.679818 -100.422 
L 493.110327 -100.422 
L 494.540836 -100.422 
L 495.971345 -100.422 
L 497.401855 -100.422 
L 498.832364 -100.422 
L 500.262873 -100.422 
L 501.693382 -100.422 
L 503.123891 -100.422 
L 504.5544 -100.422 
L 505.984909 -100.422 
L 507.415418 -100.422 
L 508.845927 -100.422 
L 510.276436 -100.422 
L 511.706945 -100.422 
L 513.137455 -100.422 
L 514.567964 -100.422 
L 515.998473 -100.422 
L 517.428982 -100.422 
L 518.859491 -100.422 
L 520.29 -100.422 
L 521.720509 -100.422 
L 523.151018 -100.422 
L 524.581527 -100.422 
L 526.012036 -100.422 
L 527.442545 -100.422 
L 528.873055 -100.422 
L 530.303564 -100.422 
L 531.734073 -100.422 
L 533.164582 -100.422 
L 534.595091 -100.422 
L 536.0256 -100.422 
L 537.456109 -100.422 
L 538.886618 -100.422 
L 540.317127 -100.422 
L 541.747636 -100.422 
L 543.178145 -100.422 
L 544.608655 -100.422 
L 546.039164 -100.422 
L 547.469673 -100.422 
L 548.900182 -100.422 
L 550.330691 -100.422 
L 551.7612 -100.422 
L 553.191709 -100.422 
L 554.622218 -100.422 
L 556.052727 -100.422 
L 557.483236 -100.422 
L 558.913745 -100.422 
L 560.344255 -100.422 
L 561.774764 -100.422 
L 563.205273 -100.422 
L 564.635782 -100.422 
L 566.066291 -100.422 
L 567.4968 -100.422 
L 568.927309 -100.422 
L 570.357818 -100.422 
L 571.788327 -100.422 
L 573.218836 -100.422 
L 574.649345 -100.422 
L 576.079855 -100.422 
L 577.510364 -100.422 
L 578.940873 -100.422 
L 580.371382 -100.422 
L 581.801891 -100.422 
L 583.2324 -100.422 
L 584.662909 -100.422 
L 586.093418 -100.422 
L 587.523927 -100.422 
L 588.954436 -100.422 
L 590.384945 -100.422 
L 591.815455 -100.422 
L 593.245964 -100.422 
L 594.676473 -100.422 
L 596.106982 -100.422 
L 597.537491 -100.422 
L 598.968 -100.422 
L 600.398509 -100.422 
L 601.829018 -100.422 
L 603.259527 -100.422 
L 604.690036 -100.422 
L 606.120545 -100.422 
L 607.551055 -100.422 
L 608.981564 -100.422 
L 610.412073 -100.422 
L 611.842582 -100.422 
L 613.273091 -100.422 
L 614.7036 -100.422 
L 616.134109 -100.422 
L 617.564618 -100.422 
L 618.995127 -100.422 
L 620.425636 -100.422 
L 621.856145 -100.422 
L 623.286655 -100.422 
L 624.717164 -100.422 
L 626.147673 -100.422 
L 627.578182 -100.422 
L 629.008691 -100.422 
L 630.4392 -100.422 
L 631.869709 -100.422 
L 633.300218 -100.422 
L 634.730727 -100.422 
L 636.161236 -100.422 
L 637.591745 -100.422 
L 639.022255 -100.422 
L 640.452764 -100.422 
L 641.883273 -100.422 
L 643.313782 -100.422 
L 644.744291 -100.422 
L 646.1748 -100.422 
L 647.605309 -100.422 
L 649.035818 -100.422 
L 650.466327 -100.422 
L 651.896836 -100.422 
L 653.327345 -100.422 
L 654.757855 -100.422 
L 656.188364 -100.422 
L 657.618873 -100.422 
L 659.049382 -100.422 
L 660.479891 -100.422 
L 661.9104 -100.422 
L 663.340909 -100.422 
L 664.771418 -100.422 
L 666.201927 -100.422 
L 667.632436 -100.422 
L 669.062945 -100.422 
L 670.493455 -100.422 
L 671.923964 -100.422 
L 673.354473 -100.422 
L 674.784982 -100.422 
L 676.215491 -100.422 
L 677.646 -100.422 
L 679.076509 -100.422 
L 680.507018 -100.422 
L 681.937527 -100.422 
L 683.368036 -100.422 
L 684.798545 -100.422 
L 686.229055 -100.422 
L 687.659564 -100.422 
L 689.090073 -100.422 
L 690.520582 -100.422 
L 691.951091 -100.422 
L 693.3816 -100.422 
L 694.812109 -100.422 
L 696.242618 -100.422 
L 697.673127 -100.422 
L 699.103636 -100.422 
L 700.534145 -100.422 
L 701.964655 -100.422 
L 703.395164 -100.422 
L 704.825673 -100.422 
L 706.256182 -100.422 
L 707.686691 -100.422 
L 709.1172 -100.422 
L 710.547709 -100.422 
L 711.978218 -100.422 
L 713.408727 -100.422 
L 714.839236 -100.422 
L 716.269745 -100.422 
L 717.700255 -100.422 
L 719.130764 -100.422 
L 720.561273 -100.422 
L 721.991782 -100.422 
L 723.422291 -100.422 
L 724.8528 -100.422 
L 726.283309 -100.422 
L 727.713818 -100.422 
L 729.144327 -100.422 
L 730.574836 -100.422 
L 732.005345 -100.422 
L 733.435855 -100.422 
L 734.866364 -100.422 
L 736.296873 -100.422 
L 737.727382 -100.422 
L 739.157891 -100.422 
L 740.5884 -100.422 
L 742.018909 -100.422 
L 743.449418 -100.422 
L 744.879927 -100.422 
L 746.310436 -100.422 
L 747.740945 -100.422 
L 749.171455 -100.422 
L 750.601964 -100.422 
L 752.032473 -100.422 
L 753.462982 -100.422 
L 754.893491 -100.422 
L 756.324 -100.422 
L 757.754509 -100.422 
L 759.185018 -100.422 
L 760.615527 -100.422 
L 762.046036 -100.422 
L 763.476545 -100.422 
L 764.907055 -100.422 
L 766.337564 -100.422 
L 767.768073 -100.422 
L 769.198582 -100.422 
L 770.629091 -100.422 
L 772.0596 -100.422 
L 773.490109 -100.422 
L 774.920618 -100.422 
L 776.351127 -100.422 
L 777.781636 -100.422 
L 779.212145 -100.422 
L 780.642655 -100.422 
L 782.073164 -100.422 
L 783.503673 -100.422 
L 784.934182 -100.422 
L 786.364691 -100.422 
L 787.7952 -100.422 
L 789.225709 -100.422 
L 790.656218 -100.422 
L 792.086727 -100.422 
L 793.517236 -100.422 
L 794.947745 -100.422 
L 796.378255 -100.422 
L 797.808764 -100.422 
L 799.239273 -100.422 
L 800.669782 -100.422 
L 802.100291 -100.422 
L 803.5308 -100.422 
L 804.961309 -100.422 
L 806.391818 -100.422 
L 807.822327 -100.422 
L 809.252836 -100.422 
L 810.683345 -100.422 
L 812.113855 -100.422 
L 813.544364 -100.422 
L 814.974873 -100.422 
L 816.405382 -100.422 
L 817.835891 -100.422 
L 819.2664 -100.422 
L 820.696909 -100.422 
L 822.127418 -100.422 
L 823.557927 -100.422 
L 824.988436 -100.422 
L 826.418945 -100.422 
L 827.849455 -100.422 
L 829.279964 -100.422 
L 830.710473 -100.422 
L 832.140982 -100.422 
L 833.571491 -100.422 
L 835.002 -100.422 
L 836.432509 -100.422 
L 837.863018 -100.422 
L 839.293527 -100.422 
L 840.724036 -100.422 
L 842.154545 -100.422 
L 843.585055 -100.422 
L 845.015564 -100.422 
L 846.446073 -100.422 
L 847.876582 -100.422 
L 849.307091 -100.422 
L 850.7376 -100.422 
L 852.168109 -100.422 
L 853.598618 -100.422 
L 855.029127 -100.422 
L 856.459636 -100.422 
L 857.890145 -100.422 
L 859.320655 -100.422 
L 860.751164 -100.422 
L 862.181673 -100.422 
L 863.612182 -100.422 
L 865.042691 -100.422 
L 866.4732 -100.422 
L 867.903709 -100.422 
L 869.334218 -100.422 
L 870.764727 -100.422 
L 872.195236 -100.422 
L 873.625745 -100.422 
L 875.056255 -100.422 
L 876.486764 -100.422 
L 877.917273 -100.422 
L 877.917273 -73.242 
L 877.917273 -73.242 
L 876.486764 -73.242 
L 875.056255 -73.242 
L 873.625745 -73.242 
L 872.195236 -73.242 
L 870.764727 -73.242 
L 869.334218 -73.242 
L 867.903709 -73.242 
L 866.4732 -73.242 
L 865.042691 -73.242 
L 863.612182 -73.242 
L 862.181673 -73.242 
L 860.751164 -73.242 
L 859.320655 -73.242 
L 857.890145 -73.242 
L 856.459636 -73.242 
L 855.029127 -73.242 
L 853.598618 -73.242 
L 852.168109 -73.242 
L 850.7376 -73.242 
L 849.307091 -73.242 
L 847.876582 -73.242 
L 846.446073 -73.242 
L 845.015564 -73.242 
L 843.585055 -73.242 
L 842.154545 -73.242 
L 840.724036 -73.242 
L 839.293527 -73.242 
L 837.863018 -73.242 
L 836.432509 -73.242 
L 835.002 -73.242 
L 833.571491 -73.242 
L 832.140982 -73.242 
L 830.710473 -73.242 
L 829.279964 -73.242 
L 827.849455 -73.242 
L 826.418945 -73.242 
L 824.988436 -73.242 
L 823.557927 -73.242 
L 822.127418 -73.242 
L 820.696909 -73.242 
L 819.2664 -73.242 
L 817.835891 -73.242 
L 816.405382 -73.242 
L 814.974873 -73.242 
L 813.544364 -73.242 
L 812.113855 -73.242 
L 810.683345 -73.242 
L 809.252836 -73.242 
L 807.822327 -73.242 
L 806.391818 -73.242 
L 804.961309 -73.242 
L 803.5308 -73.242 
L 802.100291 -73.242 
L 800.669782 -73.242 
L 799.239273 -73.242 
L 797.808764 -73.242 
L 796.378255 -73.242 
L 794.947745 -73.242 
L 793.517236 -73.242 
L 792.086727 -73.242 
L 790.656218 -73.242 
L 789.225709 -73.242 
L 787.7952 -73.242 
L 786.364691 -73.242 
L 784.934182 -73.242 
L 783.503673 -73.242 
L 782.073164 -73.242 
L 780.642655 -73.242 
L 779.212145 -73.242 
L 777.781636 -73.242 
L 776.351127 -73.242 
L 774.920618 -73.242 
L 773.490109 -73.242 
L 772.0596 -73.242 
L 770.629091 -73.242 
L 769.198582 -73.242 
L 767.768073 -73.242 
L 766.337564 -73.242 
L 764.907055 -73.242 
L 763.476545 -73.242 
L 762.046036 -73.242 
L 760.615527 -73.242 
L 759.185018 -73.242 
L 757.754509 -73.242 
L 756.324 -73.242 
L 754.893491 -73.242 
L 753.462982 -73.242 
L 752.032473 -73.242 
L 750.601964 -73.242 
L 749.171455 -73.242 
L 747.740945 -73.242 
L 746.310436 -73.242 
L 744.879927 -73.242 
L 743.449418 -73.242 
L 742.018909 -73.242 
L 740.5884 -73.242 
L 739.157891 -73.242 
L 737.727382 -73.242 
L 736.296873 -73.242 
L 734.866364 -73.242 
L 733.435855 -73.242 
L 732.005345 -73.242 
L 730.574836 -73.242 
L 729.144327 -73.242 
L 727.713818 -73.242 
L 726.283309 -73.242 
L 724.8528 -73.242 
L 723.422291 -73.242 
L 721.991782 -73.242 
L 720.561273 -73.242 
L 719.130764 -73.242 
L 717.700255 -73.242 
L 716.269745 -73.242 
L 714.839236 -73.242 
L 713.408727 -73.242 
L 711.978218 -73.242 
L 710.547709 -73.242 
L 709.1172 -73.242 
L 707.686691 -73.242 
L 706.256182 -73.242 
L 704.825673 -73.242 
L 703.395164 -73.242 
L 701.964655 -73.242 
L 700.534145 -73.242 
L 699.103636 -73.242 
L 697.673127 -73.242 
L 696.242618 -73.242 
L 694.812109 -73.242 
L 693.3816 -73.242 
L 691.951091 -73.242 
L 690.520582 -73.242 
L 689.090073 -73.242 
L 687.659564 -73.242 
L 686.229055 -73.242 
L 684.798545 -73.242 
L 683.368036 -73.242 
L 681.937527 -73.242 
L 680.507018 -73.242 
L 679.076509 -73.242 
L 677.646 -73.242 
L 676.215491 -73.242 
L 674.784982 -73.242 
L 673.354473 -73.242 
L 671.923964 -73.242 
L 670.493455 -73.242 
L 669.062945 -73.242 
L 667.632436 -73.242 
L 666.201927 -73.242 
L 664.771418 -73.242 
L 663.340909 -73.242 
L 661.9104 -73.242 
L 660.479891 -73.242 
L 659.049382 -73.242 
L 657.618873 -73.242 
L 656.188364 -73.242 
L 654.757855 -73.242 
L 653.327345 -73.242 
L 651.896836 -73.242 
L 650.466327 -73.242 
L 649.035818 -73.242 
L 647.605309 -73.242 
L 646.1748 -73.242 
L 644.744291 -73.242 
L 643.313782 -73.242 
L 641.883273 -73.242 
L 640.452764 -73.242 
L 639.022255 -73.242 
L 637.591745 -73.242 
L 636.161236 -73.242 
L 634.730727 -73.242 
L 633.300218 -73.242 
L 631.869709 -73.242 
L 630.4392 -73.242 
L 629.008691 -73.242 
L 627.578182 -73.242 
L 626.147673 -73.242 
L 624.717164 -73.242 
L 623.286655 -73.242 
L 621.856145 -73.242 
L 620.425636 -73.242 
L 618.995127 -73.242 
L 617.564618 -73.242 
L 616.134109 -73.242 
L 614.7036 -73.242 
L 613.273091 -73.242 
L 611.842582 -73.242 
L 610.412073 -73.242 
L 608.981564 -73.242 
L 607.551055 -73.242 
L 606.120545 -73.242 
L 604.690036 -73.242 
L 603.259527 -73.242 
L 601.829018 -73.242 
L 600.398509 -73.242 
L 598.968 -73.242 
L 597.537491 -73.242 
L 596.106982 -73.242 
L 594.676473 -73.242 
L 593.245964 -73.242 
L 591.815455 -73.242 
L 590.384945 -73.242 
L 588.954436 -73.242 
L 587.523927 -73.242 
L 586.093418 -73.242 
L 584.662909 -73.242 
L 583.2324 -73.242 
L 581.801891 -73.242 
L 580.371382 -73.242 
L 578.940873 -73.242 
L 577.510364 -73.242 
L 576.079855 -73.242 
L 574.649345 -73.242 
L 573.218836 -73.242 
L 571.788327 -73.242 
L 570.357818 -73.242 
L 568.927309 -73.242 
L 567.4968 -73.242 
L 566.066291 -73.242 
L 564.635782 -73.242 
L 563.205273 -73.242 
L 561.774764 -73.242 
L 560.344255 -73.242 
L 558.913745 -73.242 
L 557.483236 -73.242 
L 556.052727 -73.242 
L 554.622218 -73.242 
L 553.191709 -73.242 
L 551.7612 -73.242 
L 550.330691 -73.242 
L 548.900182 -73.242 
L 547.469673 -73.242 
L 546.039164 -73.242 
L 544.608655 -73.242 
L 543.178145 -73.242 
L 541.747636 -73.242 
L 540.317127 -73.242 
L 538.886618 -73.242 
L 537.456109 -73.242 
L 536.0256 -73.242 
L 534.595091 -73.242 
L 533.164582 -73.242 
L 531.734073 -73.242 
L 530.303564 -73.242 
L 528.873055 -73.242 
L 527.442545 -73.242 
L 526.012036 -73.242 
L 524.581527 -73.242 
L 523.151018 -73.242 
L 521.720509 -73.242 
L 520.29 -73.242 
L 518.859491 -73.242 
L 517.428982 -73.242 
L 515.998473 -73.242 
L 514.567964 -73.242 
L 513.137455 -73.242 
L 511.706945 -73.242 
L 510.276436 -73.242 
L 508.845927 -73.242 
L 507.415418 -73.242 
L 505.984909 -73.242 
L 504.5544 -73.242 
L 503.123891 -73.242 
L 501.693382 -73.242 
L 500.262873 -73.242 
L 498.832364 -73.242 
L 497.401855 -73.242 
L 495.971345 -73.242 
L 494.540836 -73.242 
L 493.110327 -73.242 
L 491.679818 -73.242 
L 490.249309 -73.242 
L 488.8188 -73.242 
L 487.388291 -73.242 
L 485.957782 -73.242 
L 484.527273 -73.242 
L 483.096764 -73.242 
L 481.666255 -73.242 
L 480.235745 -73.242 
L 478.805236 -73.242 
L 477.374727 -73.242 
L 475.944218 -73.242 
L 474.513709 -73.242 
L 473.0832 -73.242 
L 471.652691 -73.242 
L 470.222182 -73.242 
L 468.791673 -73.242 
L 467.361164 -73.242 
L 465.930655 -73.242 
L 464.500145 -73.242 
L 463.069636 -73.242 
L 461.639127 -73.242 
L 460.208618 -73.242 
L 458.778109 -73.242 
L 457.3476 -73.242 
L 455.917091 -73.242 
L 454.486582 -73.242 
L 453.056073 -73.242 
L 451.625564 -73.242 
L 450.195055 -73.242 
L 448.764545 -73.242 
L 447.334036 -73.242 
L 445.903527 -73.242 
L 444.473018 -73.242 
L 443.042509 -73.242 
L 441.612 -73.242 
L 440.181491 -73.242 
L 438.750982 -73.242 
L 437.320473 -73.242 
L 435.889964 -73.242 
L 434.459455 -73.242 
L 433.028945 -73.242 
L 431.598436 -73.242 
L 430.167927 -73.242 
L 428.737418 -73.242 
L 427.306909 -73.242 
L 425.8764 -73.242 
L 424.445891 -73.242 
L 423.015382 -73.242 
L 421.584873 -73.242 
L 420.154364 -73.242 
L 418.723855 -73.242 
L 417.293345 -73.242 
L 415.862836 -73.242 
L 414.432327 -73.242 
L 413.001818 -73.242 
L 411.571309 -73.242 
L 410.1408 -73.242 
L 408.710291 -73.242 
L 407.279782 -73.242 
L 405.849273 -73.242 
L 404.418764 -73.242 
L 402.988255 -73.242 
L 401.557745 -73.242 
L 400.127236 -73.242 
L 398.696727 -73.242 
L 397.266218 -73.242 
L 395.835709 -73.242 
L 394.4052 -73.242 
L 392.974691 -73.242 
L 391.544182 -73.242 
L 390.113673 -73.242 
L 388.683164 -73.242 
L 387.252655 -73.242 
L 385.822145 -73.242 
L 384.391636 -73.242 
L 382.961127 -73.242 
L 381.530618 -73.242 
L 380.100109 -73.242 
L 378.6696 -73.242 
L 377.239091 -73.242 
L 375.808582 -73.242 
L 374.378073 -73.242 
L 372.947564 -73.242 
L 371.517055 -73.242 
L 370.086545 -73.242 
L 368.656036 -73.242 
L 367.225527 -73.242 
L 365.795018 -73.242 
L 364.364509 -73.242 
L 362.934 -73.242 
L 361.503491 -73.242 
L 360.072982 -73.242 
L 358.642473 -73.242 
L 357.211964 -73.242 
L 355.781455 -73.242 
L 354.350945 -73.242 
L 352.920436 -73.242 
L 351.489927 -73.242 
L 350.059418 -73.242 
L 348.628909 -73.242 
L 347.1984 -73.242 
L 345.767891 -73.242 
L 344.337382 -73.242 
L 342.906873 -73.242 
L 341.476364 -73.242 
L 340.045855 -73.242 
L 338.615345 -73.242 
L 337.184836 -73.242 
L 335.754327 -73.242 
L 334.323818 -73.242 
L 332.893309 -73.242 
L 331.4628 -73.242 
L 330.032291 -73.242 
L 328.601782 -73.242 
L 327.171273 -73.242 
L 325.740764 -73.242 
L 324.310255 -73.242 
L 322.879745 -73.242 
L 321.449236 -73.242 
L 320.018727 -73.242 
L 318.588218 -73.242 
L 317.157709 -73.242 
L 315.7272 -73.242 
L 314.296691 -73.242 
L 312.866182 -73.242 
L 311.435673 -73.242 
L 310.005164 -73.242 
L 308.574655 -73.242 
L 307.144145 -73.242 
L 305.713636 -73.242 
L 304.283127 -73.242 
L 302.852618 -73.242 
L 301.422109 -73.242 
L 299.9916 -73.242 
L 298.561091 -73.242 
L 297.130582 -73.242 
L 295.700073 -73.242 
L 294.269564 -73.242 
L 292.839055 -73.242 
L 291.408545 -73.242 
L 289.978036 -73.242 
L 288.547527 -73.242 
L 287.117018 -73.242 
L 285.686509 -73.242 
L 284.256 -73.242 
L 282.825491 -73.242 
L 281.394982 -73.242 
L 279.964473 -73.242 
L 278.533964 -73.242 
L 277.103455 -73.242 
L 275.672945 -73.242 
L 274.242436 -73.242 
L 272.811927 -73.242 
L 271.381418 -73.242 
L 269.950909 -73.242 
L 268.5204 -73.242 
L 267.089891 -73.242 
L 265.659382 -73.242 
L 264.228873 -73.242 
L 262.798364 -73.242 
L 261.367855 -73.242 
L 259.937345 -73.242 
L 258.506836 -73.242 
L 257.076327 -73.242 
L 255.645818 -73.242 
L 254.215309 -73.242 
L 252.7848 -73.242 
L 251.354291 -73.242 
L 249.923782 -73.242 
L 248.493273 -73.242 
L 247.062764 -73.242 
L 245.632255 -73.242 
L 244.201745 -73.242 
L 242.771236 -73.242 
L 241.340727 -73.242 
L 239.910218 -73.242 
L 238.479709 -73.242 
L 237.0492 -73.242 
L 235.618691 -73.242 
L 234.188182 -73.242 
L 232.757673 -73.242 
L 231.327164 -73.242 
L 229.896655 -73.242 
L 228.466145 -73.242 
L 227.035636 -73.242 
L 225.605127 -73.242 
L 224.174618 -73.242 
L 222.744109 -73.242 
L 221.3136 -73.242 
L 219.883091 -73.242 
L 218.452582 -73.242 
L 217.022073 -73.242 
L 215.591564 -73.242 
L 214.161055 -73.242 
L 212.730545 -73.242 
L 211.300036 -73.242 
L 209.869527 -73.242 
L 208.439018 -73.242 
L 207.008509 -73.242 
L 205.578 -73.242 
L 204.147491 -73.242 
L 202.716982 -73.242 
L 201.286473 -73.242 
L 199.855964 -73.242 
L 198.425455 -73.242 
L 196.994945 -73.242 
L 195.564436 -73.242 
L 194.133927 -73.242 
L 192.703418 -73.242 
L 191.272909 -73.242 
L 189.8424 -73.242 
L 188.411891 -73.242 
L 186.981382 -73.242 
L 185.550873 -73.242 
L 184.120364 -73.242 
L 182.689855 -73.242 
L 181.259345 -73.242 
L 179.828836 -73.242 
L 178.398327 -73.242 
L 176.967818 -73.242 
L 175.537309 -73.242 
L 174.1068 -73.242 
L 172.676291 -73.242 
L 171.245782 -73.242 
L 169.815273 -73.242 
L 168.384764 -73.242 
L 166.954255 -73.242 
L 165.523745 -73.242 
L 164.093236 -73.242 
L 162.662727 -73.242 
z
" id="m905f8b48e4" style="stroke:#000000;stroke-opacity:0.8;"/>
    </defs>
    <g clip-path="url(#pe9fee9d9b8)">
     <use style="fill-opacity:0.8;stroke:#000000;stroke-opacity:0.8;" x="0" xlink:href="#m905f8b48e4" y="172.8"/>
    </g>
   </g>
   <g id="patch_3">
    <path clip-path="url(#pe9fee9d9b8)" d="M 162.662727 85.968 
L 162.662727 72.378 
L 171.245782 72.378 
L 171.245782 66.942 
L 154.079673 61.506 
L 142.6356 61.506 
L 142.6356 110.43 
L 154.079673 110.43 
L 171.245782 104.994 
L 171.245782 99.558 
L 162.662727 99.558 
z
" style="fill:#808080;opacity:0.8;stroke:#000000;stroke-linejoin:miter;"/>
   </g>
   <g id="patch_4">
    <path clip-path="url(#pe9fee9d9b8)" d="M 877.917273 85.968 
L 877.917273 72.378 
L 869.334218 72.378 
L 869.334218 66.942 
L 886.500327 61.506 
L 897.9444 61.506 
L 897.9444 110.43 
L 886.500327 110.43 
L 869.334218 104.994 
L 869.334218 99.558 
L 877.917273 99.558 
z
" style="fill:#808080;opacity:0.8;stroke:#000000;stroke-linejoin:miter;"/>
   </g>
   <g id="matplotlib.axis_1">
    <g id="xtick_1"/>
    <g id="xtick_2"/>
    <g id="xtick_3"/>
    <g id="xtick_4"/>
    <g id="xtick_5"/>
    <g id="xtick_6"/>
   </g>
   <g id="matplotlib.axis_2">
    <g id="ytick_1"/>
    <g id="ytick_2"/>
    <g id="ytick_3"/>
    <g id="ytick_4"/>
    <g id="ytick_5"/>
   </g>
   <g id="line2d_1">
    <path clip-path="url(#pe9fee9d9b8)" d="M 162.662727 85.968 
L 877.917273 85.968 
L 877.917273 85.968 
" style="fill:none;stroke:#000000;stroke-dasharray:11.1,4.8;stroke-dashoffset:0;stroke-width:3;"/>
   </g>
   <g id="line2d_2">
    <path clip-path="url(#pe9fee9d9b8)" d="M 162.662727 72.378 
L 877.917273 72.378 
L 877.917273 72.378 
" style="fill:none;stroke:#000000;stroke-linecap:square;stroke-width:2;"/>
   </g>
   <g id="line2d_3">
    <path clip-path="url(#pe9fee9d9b8)" d="M 162.662727 99.558 
L 877.917273 99.558 
L 877.917273 99.558 
" style="fill:none;stroke:#000000;stroke-linecap:square;stroke-width:2;"/>
   </g>
   <g id="line2d_4">
    <path clip-path="url(#pe9fee9d9b8)" d="M 162.662727 99.558 
L 162.662727 72.378 
" style="fill:none;stroke:#000000;stroke-linecap:square;stroke-width:2;"/>
   </g>
   <g id="line2d_5">
    <path clip-path="url(#pe9fee9d9b8)" d="M 877.917273 99.558 
L 877.917273 72.378 
" style="fill:none;stroke:#000000;stroke-linecap:square;stroke-width:2;"/>
   </g>
  </g>
 </g>
 <defs>
  <clipPath id="pe9fee9d9b8">
   <rect height="130.464" width="786.78" x="126.9" y="20.736"/>
  </clipPath>
 </defs>
</svg>
