<?xml version="1.0" encoding="utf-8" standalone="no"?>
<!DOCTYPE svg PUBLIC "-//W3C//DTD SVG 1.1//EN"
  "http://www.w3.org/Graphics/SVG/1.1/DTD/svg11.dtd">
<!-- Created with matplotlib (https://matplotlib.org/) -->
<svg height="172.8pt" version="1.1" viewBox="0 0 1015.2 172.8" width="1015.2pt" xmlns="http://www.w3.org/2000/svg" xmlns:xlink="http://www.w3.org/1999/xlink">
 <defs>
  <style type="text/css">
*{stroke-linecap:butt;stroke-linejoin:round;white-space:pre;}
  </style>
 </defs>
 <g id="figure_1">
  <g id="patch_1">
   <path d="M 0 172.8 
L 1015.2 172.8 
L 1015.2 0 
L 0 0 
z
" style="fill:none;"/>
  </g>
  <g id="axes_1">
   <g id="patch_2">
    <path d="M 126.9 153.792 
L 913.68 153.792 
L 913.68 20.736 
L 126.9 20.736 
z
" style="fill:none;"/>
   </g>
   <g id="PolyCollection_1">
    <defs>
     <path d="M 162.662727 -71.676 
L 162.662727 -99.396 
L 164.093236 -99.396 
L 165.523745 -99.396 
L 166.954255 -99.396 
L 168.384764 -99.396 
L 169.815273 -99.396 
L 171.245782 -99.396 
L 172.676291 -99.396 
L 174.1068 -99.396 
L 175.537309 -99.396 
L 176.967818 -99.396 
L 178.398327 -99.396 
L 179.828836 -99.396 
L 181.259345 -99.396 
L 182.689855 -99.396 
L 184.120364 -99.396 
L 185.550873 -99.396 
L 186.981382 -99.396 
L 188.411891 -99.396 
L 189.8424 -99.396 
L 191.272909 -99.396 
L 192.703418 -99.396 
L 194.133927 -99.396 
L 195.564436 -99.396 
L 196.994945 -99.396 
L 198.425455 -99.396 
L 199.855964 -99.396 
L 201.286473 -99.396 
L 202.716982 -99.396 
L 204.147491 -99.396 
L 205.578 -99.396 
L 207.008509 -99.396 
L 208.439018 -99.396 
L 209.869527 -99.396 
L 211.300036 -99.396 
L 212.730545 -99.396 
L 214.161055 -99.396 
L 215.591564 -99.396 
L 217.022073 -99.396 
L 218.452582 -99.396 
L 219.883091 -99.396 
L 221.3136 -99.396 
L 222.744109 -99.396 
L 224.174618 -99.396 
L 225.605127 -99.396 
L 227.035636 -99.396 
L 228.466145 -99.396 
L 229.896655 -99.396 
L 231.327164 -99.396 
L 232.757673 -99.396 
L 234.188182 -99.396 
L 235.618691 -99.396 
L 237.0492 -99.396 
L 238.479709 -99.396 
L 239.910218 -99.396 
L 241.340727 -99.396 
L 242.771236 -99.396 
L 244.201745 -99.396 
L 245.632255 -99.396 
L 247.062764 -99.396 
L 248.493273 -99.396 
L 249.923782 -99.396 
L 251.354291 -99.396 
L 252.7848 -99.396 
L 254.215309 -99.396 
L 255.645818 -99.396 
L 257.076327 -99.396 
L 258.506836 -99.396 
L 259.937345 -99.396 
L 261.367855 -99.396 
L 262.798364 -99.396 
L 264.228873 -99.396 
L 265.659382 -99.396 
L 267.089891 -99.396 
L 268.5204 -99.396 
L 269.950909 -99.396 
L 271.381418 -99.396 
L 272.811927 -99.396 
L 274.242436 -99.396 
L 275.672945 -99.396 
L 277.103455 -99.396 
L 278.533964 -99.396 
L 279.964473 -99.396 
L 281.394982 -99.396 
L 282.825491 -99.396 
L 284.256 -99.396 
L 285.686509 -99.396 
L 287.117018 -99.396 
L 288.547527 -99.396 
L 289.978036 -99.396 
L 291.408545 -99.396 
L 292.839055 -99.396 
L 294.269564 -99.396 
L 295.700073 -99.396 
L 297.130582 -99.396 
L 298.561091 -99.396 
L 299.9916 -99.396 
L 301.422109 -99.396 
L 302.852618 -99.396 
L 304.283127 -99.396 
L 305.713636 -99.396 
L 307.144145 -99.396 
L 308.574655 -99.396 
L 310.005164 -99.396 
L 311.435673 -99.396 
L 312.866182 -99.396 
L 314.296691 -99.396 
L 315.7272 -99.396 
L 317.157709 -99.396 
L 318.588218 -99.396 
L 320.018727 -99.396 
L 321.449236 -99.396 
L 322.879745 -99.396 
L 324.310255 -99.396 
L 325.740764 -99.396 
L 327.171273 -99.396 
L 328.601782 -99.396 
L 330.032291 -99.396 
L 331.4628 -99.396 
L 332.893309 -99.396 
L 334.323818 -99.396 
L 335.754327 -99.396 
L 337.184836 -99.396 
L 338.615345 -99.396 
L 340.045855 -99.396 
L 341.476364 -99.396 
L 342.906873 -99.396 
L 344.337382 -99.396 
L 345.767891 -99.396 
L 347.1984 -99.396 
L 348.628909 -99.396 
L 350.059418 -99.396 
L 351.489927 -99.396 
L 352.920436 -99.396 
L 354.350945 -99.396 
L 355.781455 -99.396 
L 357.211964 -99.396 
L 358.642473 -99.396 
L 360.072982 -99.396 
L 361.503491 -99.396 
L 362.934 -99.396 
L 364.364509 -99.396 
L 365.795018 -99.396 
L 367.225527 -99.396 
L 368.656036 -99.396 
L 370.086545 -99.396 
L 371.517055 -99.396 
L 372.947564 -99.396 
L 374.378073 -99.396 
L 375.808582 -99.396 
L 377.239091 -99.396 
L 378.6696 -99.396 
L 380.100109 -99.396 
L 381.530618 -99.396 
L 382.961127 -99.396 
L 384.391636 -99.396 
L 385.822145 -99.396 
L 387.252655 -99.396 
L 388.683164 -99.396 
L 390.113673 -99.396 
L 391.544182 -99.396 
L 392.974691 -99.396 
L 394.4052 -99.396 
L 395.835709 -99.396 
L 397.266218 -99.396 
L 398.696727 -99.396 
L 400.127236 -99.396 
L 401.557745 -99.396 
L 402.988255 -99.396 
L 404.418764 -99.396 
L 405.849273 -99.396 
L 407.279782 -99.396 
L 408.710291 -99.396 
L 410.1408 -99.396 
L 411.571309 -99.396 
L 413.001818 -99.396 
L 414.432327 -99.396 
L 415.862836 -99.396 
L 417.293345 -99.396 
L 418.723855 -99.396 
L 420.154364 -99.396 
L 421.584873 -99.396 
L 423.015382 -99.396 
L 424.445891 -99.396 
L 425.8764 -99.396 
L 427.306909 -99.396 
L 428.737418 -99.396 
L 430.167927 -99.396 
L 431.598436 -99.396 
L 433.028945 -99.396 
L 434.459455 -99.396 
L 435.889964 -99.396 
L 437.320473 -99.396 
L 438.750982 -99.396 
L 440.181491 -99.396 
L 441.612 -99.396 
L 443.042509 -99.396 
L 444.473018 -99.396 
L 445.903527 -99.396 
L 447.334036 -99.396 
L 448.764545 -99.396 
L 450.195055 -99.396 
L 451.625564 -99.396 
L 453.056073 -99.396 
L 454.486582 -99.396 
L 455.917091 -99.396 
L 457.3476 -99.396 
L 458.778109 -99.396 
L 460.208618 -99.396 
L 461.639127 -99.396 
L 463.069636 -99.396 
L 464.500145 -99.396 
L 465.930655 -99.396 
L 467.361164 -99.396 
L 468.791673 -99.396 
L 470.222182 -99.396 
L 471.652691 -99.396 
L 473.0832 -99.396 
L 474.513709 -99.396 
L 475.944218 -99.396 
L 477.374727 -99.396 
L 478.805236 -99.396 
L 480.235745 -99.396 
L 481.666255 -99.396 
L 483.096764 -99.396 
L 484.527273 -99.396 
L 485.957782 -99.396 
L 487.388291 -99.396 
L 488.8188 -99.396 
L 490.249309 -99.396 
L 491.679818 -99.396 
L 493.110327 -99.396 
L 494.540836 -99.396 
L 495.971345 -99.396 
L 497.401855 -99.396 
L 498.832364 -99.396 
L 500.262873 -99.396 
L 501.693382 -99.396 
L 503.123891 -99.396 
L 504.5544 -99.396 
L 505.984909 -99.396 
L 507.415418 -99.396 
L 508.845927 -99.396 
L 510.276436 -99.396 
L 511.706945 -99.396 
L 513.137455 -99.396 
L 514.567964 -99.396 
L 515.998473 -99.396 
L 517.428982 -99.396 
L 518.859491 -99.396 
L 520.29 -99.396 
L 521.720509 -99.396 
L 523.151018 -99.396 
L 524.581527 -99.396 
L 526.012036 -99.396 
L 527.442545 -99.396 
L 528.873055 -99.396 
L 530.303564 -99.396 
L 531.734073 -99.396 
L 533.164582 -99.396 
L 534.595091 -99.396 
L 536.0256 -99.396 
L 537.456109 -99.396 
L 538.886618 -99.396 
L 540.317127 -99.396 
L 541.747636 -99.396 
L 543.178145 -99.396 
L 544.608655 -99.396 
L 546.039164 -99.396 
L 547.469673 -99.396 
L 548.900182 -99.396 
L 550.330691 -99.396 
L 551.7612 -99.396 
L 553.191709 -99.396 
L 554.622218 -99.396 
L 556.052727 -99.396 
L 557.483236 -99.396 
L 558.913745 -99.396 
L 560.344255 -99.396 
L 561.774764 -99.396 
L 563.205273 -99.396 
L 564.635782 -99.396 
L 566.066291 -99.396 
L 567.4968 -99.396 
L 568.927309 -99.396 
L 570.357818 -99.396 
L 571.788327 -99.396 
L 573.218836 -99.396 
L 574.649345 -99.396 
L 576.079855 -99.396 
L 577.510364 -99.396 
L 578.940873 -99.396 
L 580.371382 -99.396 
L 581.801891 -99.396 
L 583.2324 -99.396 
L 584.662909 -99.396 
L 586.093418 -99.396 
L 587.523927 -99.396 
L 588.954436 -99.396 
L 590.384945 -99.396 
L 591.815455 -99.396 
L 593.245964 -99.396 
L 594.676473 -99.396 
L 596.106982 -99.396 
L 597.537491 -99.396 
L 598.968 -99.396 
L 600.398509 -99.396 
L 601.829018 -99.396 
L 603.259527 -99.396 
L 604.690036 -99.396 
L 606.120545 -99.396 
L 607.551055 -99.396 
L 608.981564 -99.396 
L 610.412073 -99.396 
L 611.842582 -99.396 
L 613.273091 -99.396 
L 614.7036 -99.396 
L 616.134109 -99.396 
L 617.564618 -99.396 
L 618.995127 -99.396 
L 620.425636 -99.396 
L 621.856145 -99.396 
L 623.286655 -99.396 
L 624.717164 -99.396 
L 626.147673 -99.396 
L 627.578182 -99.396 
L 629.008691 -99.396 
L 630.4392 -99.396 
L 631.869709 -99.396 
L 633.300218 -99.396 
L 634.730727 -99.396 
L 636.161236 -99.396 
L 637.591745 -99.396 
L 639.022255 -99.396 
L 640.452764 -99.396 
L 641.883273 -99.396 
L 643.313782 -99.396 
L 644.744291 -99.396 
L 646.1748 -99.396 
L 647.605309 -99.396 
L 649.035818 -99.396 
L 650.466327 -99.396 
L 651.896836 -99.396 
L 653.327345 -99.396 
L 654.757855 -99.396 
L 656.188364 -99.396 
L 657.618873 -99.396 
L 659.049382 -99.396 
L 660.479891 -99.396 
L 661.9104 -99.396 
L 663.340909 -99.396 
L 664.771418 -99.396 
L 666.201927 -99.396 
L 667.632436 -99.396 
L 669.062945 -99.396 
L 670.493455 -99.396 
L 671.923964 -99.396 
L 673.354473 -99.396 
L 674.784982 -99.396 
L 676.215491 -99.396 
L 677.646 -99.396 
L 679.076509 -99.396 
L 680.507018 -99.396 
L 681.937527 -99.396 
L 683.368036 -99.396 
L 684.798545 -99.396 
L 686.229055 -99.396 
L 687.659564 -99.396 
L 689.090073 -99.396 
L 690.520582 -99.396 
L 691.951091 -99.396 
L 693.3816 -99.396 
L 694.812109 -99.396 
L 696.242618 -99.396 
L 697.673127 -99.396 
L 699.103636 -99.396 
L 700.534145 -99.396 
L 701.964655 -99.396 
L 703.395164 -99.396 
L 704.825673 -99.396 
L 706.256182 -99.396 
L 707.686691 -99.396 
L 709.1172 -99.396 
L 710.547709 -99.396 
L 711.978218 -99.396 
L 713.408727 -99.396 
L 714.839236 -99.396 
L 716.269745 -99.396 
L 717.700255 -99.396 
L 719.130764 -99.396 
L 720.561273 -99.396 
L 721.991782 -99.396 
L 723.422291 -99.396 
L 724.8528 -99.396 
L 726.283309 -99.396 
L 727.713818 -99.396 
L 729.144327 -99.396 
L 730.574836 -99.396 
L 732.005345 -99.396 
L 733.435855 -99.396 
L 734.866364 -99.396 
L 736.296873 -99.396 
L 737.727382 -99.396 
L 739.157891 -99.396 
L 740.5884 -99.396 
L 742.018909 -99.396 
L 743.449418 -99.396 
L 744.879927 -99.396 
L 746.310436 -99.396 
L 747.740945 -99.396 
L 749.171455 -99.396 
L 750.601964 -99.396 
L 752.032473 -99.396 
L 753.462982 -99.396 
L 754.893491 -99.396 
L 756.324 -99.396 
L 757.754509 -99.396 
L 759.185018 -99.396 
L 760.615527 -99.396 
L 762.046036 -99.396 
L 763.476545 -99.396 
L 764.907055 -99.396 
L 766.337564 -99.396 
L 767.768073 -99.396 
L 769.198582 -99.396 
L 770.629091 -99.396 
L 772.0596 -99.396 
L 773.490109 -99.396 
L 774.920618 -99.396 
L 776.351127 -99.396 
L 777.781636 -99.396 
L 779.212145 -99.396 
L 780.642655 -99.396 
L 782.073164 -99.396 
L 783.503673 -99.396 
L 784.934182 -99.396 
L 786.364691 -99.396 
L 787.7952 -99.396 
L 789.225709 -99.396 
L 790.656218 -99.396 
L 792.086727 -99.396 
L 793.517236 -99.396 
L 794.947745 -99.396 
L 796.378255 -99.396 
L 797.808764 -99.396 
L 799.239273 -99.396 
L 800.669782 -99.396 
L 802.100291 -99.396 
L 803.5308 -99.396 
L 804.961309 -99.396 
L 806.391818 -99.396 
L 807.822327 -99.396 
L 809.252836 -99.396 
L 810.683345 -99.396 
L 812.113855 -99.396 
L 813.544364 -99.396 
L 814.974873 -99.396 
L 816.405382 -99.396 
L 817.835891 -99.396 
L 819.2664 -99.396 
L 820.696909 -99.396 
L 822.127418 -99.396 
L 823.557927 -99.396 
L 824.988436 -99.396 
L 826.418945 -99.396 
L 827.849455 -99.396 
L 829.279964 -99.396 
L 830.710473 -99.396 
L 832.140982 -99.396 
L 833.571491 -99.396 
L 835.002 -99.396 
L 836.432509 -99.396 
L 837.863018 -99.396 
L 839.293527 -99.396 
L 840.724036 -99.396 
L 842.154545 -99.396 
L 843.585055 -99.396 
L 845.015564 -99.396 
L 846.446073 -99.396 
L 847.876582 -99.396 
L 849.307091 -99.396 
L 850.7376 -99.396 
L 852.168109 -99.396 
L 853.598618 -99.396 
L 855.029127 -99.396 
L 856.459636 -99.396 
L 857.890145 -99.396 
L 859.320655 -99.396 
L 860.751164 -99.396 
L 862.181673 -99.396 
L 863.612182 -99.396 
L 865.042691 -99.396 
L 866.4732 -99.396 
L 867.903709 -99.396 
L 869.334218 -99.396 
L 870.764727 -99.396 
L 872.195236 -99.396 
L 873.625745 -99.396 
L 875.056255 -99.396 
L 876.486764 -99.396 
L 877.917273 -99.396 
L 877.917273 -71.676 
L 877.917273 -71.676 
L 876.486764 -71.676 
L 875.056255 -71.676 
L 873.625745 -71.676 
L 872.195236 -71.676 
L 870.764727 -71.676 
L 869.334218 -71.676 
L 867.903709 -71.676 
L 866.4732 -71.676 
L 865.042691 -71.676 
L 863.612182 -71.676 
L 862.181673 -71.676 
L 860.751164 -71.676 
L 859.320655 -71.676 
L 857.890145 -71.676 
L 856.459636 -71.676 
L 855.029127 -71.676 
L 853.598618 -71.676 
L 852.168109 -71.676 
L 850.7376 -71.676 
L 849.307091 -71.676 
L 847.876582 -71.676 
L 846.446073 -71.676 
L 845.015564 -71.676 
L 843.585055 -71.676 
L 842.154545 -71.676 
L 840.724036 -71.676 
L 839.293527 -71.676 
L 837.863018 -71.676 
L 836.432509 -71.676 
L 835.002 -71.676 
L 833.571491 -71.676 
L 832.140982 -71.676 
L 830.710473 -71.676 
L 829.279964 -71.676 
L 827.849455 -71.676 
L 826.418945 -71.676 
L 824.988436 -71.676 
L 823.557927 -71.676 
L 822.127418 -71.676 
L 820.696909 -71.676 
L 819.2664 -71.676 
L 817.835891 -71.676 
L 816.405382 -71.676 
L 814.974873 -71.676 
L 813.544364 -71.676 
L 812.113855 -71.676 
L 810.683345 -71.676 
L 809.252836 -71.676 
L 807.822327 -71.676 
L 806.391818 -71.676 
L 804.961309 -71.676 
L 803.5308 -71.676 
L 802.100291 -71.676 
L 800.669782 -71.676 
L 799.239273 -71.676 
L 797.808764 -71.676 
L 796.378255 -71.676 
L 794.947745 -71.676 
L 793.517236 -71.676 
L 792.086727 -71.676 
L 790.656218 -71.676 
L 789.225709 -71.676 
L 787.7952 -71.676 
L 786.364691 -71.676 
L 784.934182 -71.676 
L 783.503673 -71.676 
L 782.073164 -71.676 
L 780.642655 -71.676 
L 779.212145 -71.676 
L 777.781636 -71.676 
L 776.351127 -71.676 
L 774.920618 -71.676 
L 773.490109 -71.676 
L 772.0596 -71.676 
L 770.629091 -71.676 
L 769.198582 -71.676 
L 767.768073 -71.676 
L 766.337564 -71.676 
L 764.907055 -71.676 
L 763.476545 -71.676 
L 762.046036 -71.676 
L 760.615527 -71.676 
L 759.185018 -71.676 
L 757.754509 -71.676 
L 756.324 -71.676 
L 754.893491 -71.676 
L 753.462982 -71.676 
L 752.032473 -71.676 
L 750.601964 -71.676 
L 749.171455 -71.676 
L 747.740945 -71.676 
L 746.310436 -71.676 
L 744.879927 -71.676 
L 743.449418 -71.676 
L 742.018909 -71.676 
L 740.5884 -71.676 
L 739.157891 -71.676 
L 737.727382 -71.676 
L 736.296873 -71.676 
L 734.866364 -71.676 
L 733.435855 -71.676 
L 732.005345 -71.676 
L 730.574836 -71.676 
L 729.144327 -71.676 
L 727.713818 -71.676 
L 726.283309 -71.676 
L 724.8528 -71.676 
L 723.422291 -71.676 
L 721.991782 -71.676 
L 720.561273 -71.676 
L 719.130764 -71.676 
L 717.700255 -71.676 
L 716.269745 -71.676 
L 714.839236 -71.676 
L 713.408727 -71.676 
L 711.978218 -71.676 
L 710.547709 -71.676 
L 709.1172 -71.676 
L 707.686691 -71.676 
L 706.256182 -71.676 
L 704.825673 -71.676 
L 703.395164 -71.676 
L 701.964655 -71.676 
L 700.534145 -71.676 
L 699.103636 -71.676 
L 697.673127 -71.676 
L 696.242618 -71.676 
L 694.812109 -71.676 
L 693.3816 -71.676 
L 691.951091 -71.676 
L 690.520582 -71.676 
L 689.090073 -71.676 
L 687.659564 -71.676 
L 686.229055 -71.676 
L 684.798545 -71.676 
L 683.368036 -71.676 
L 681.937527 -71.676 
L 680.507018 -71.676 
L 679.076509 -71.676 
L 677.646 -71.676 
L 676.215491 -71.676 
L 674.784982 -71.676 
L 673.354473 -71.676 
L 671.923964 -71.676 
L 670.493455 -71.676 
L 669.062945 -71.676 
L 667.632436 -71.676 
L 666.201927 -71.676 
L 664.771418 -71.676 
L 663.340909 -71.676 
L 661.9104 -71.676 
L 660.479891 -71.676 
L 659.049382 -71.676 
L 657.618873 -71.676 
L 656.188364 -71.676 
L 654.757855 -71.676 
L 653.327345 -71.676 
L 651.896836 -71.676 
L 650.466327 -71.676 
L 649.035818 -71.676 
L 647.605309 -71.676 
L 646.1748 -71.676 
L 644.744291 -71.676 
L 643.313782 -71.676 
L 641.883273 -71.676 
L 640.452764 -71.676 
L 639.022255 -71.676 
L 637.591745 -71.676 
L 636.161236 -71.676 
L 634.730727 -71.676 
L 633.300218 -71.676 
L 631.869709 -71.676 
L 630.4392 -71.676 
L 629.008691 -71.676 
L 627.578182 -71.676 
L 626.147673 -71.676 
L 624.717164 -71.676 
L 623.286655 -71.676 
L 621.856145 -71.676 
L 620.425636 -71.676 
L 618.995127 -71.676 
L 617.564618 -71.676 
L 616.134109 -71.676 
L 614.7036 -71.676 
L 613.273091 -71.676 
L 611.842582 -71.676 
L 610.412073 -71.676 
L 608.981564 -71.676 
L 607.551055 -71.676 
L 606.120545 -71.676 
L 604.690036 -71.676 
L 603.259527 -71.676 
L 601.829018 -71.676 
L 600.398509 -71.676 
L 598.968 -71.676 
L 597.537491 -71.676 
L 596.106982 -71.676 
L 594.676473 -71.676 
L 593.245964 -71.676 
L 591.815455 -71.676 
L 590.384945 -71.676 
L 588.954436 -71.676 
L 587.523927 -71.676 
L 586.093418 -71.676 
L 584.662909 -71.676 
L 583.2324 -71.676 
L 581.801891 -71.676 
L 580.371382 -71.676 
L 578.940873 -71.676 
L 577.510364 -71.676 
L 576.079855 -71.676 
L 574.649345 -71.676 
L 573.218836 -71.676 
L 571.788327 -71.676 
L 570.357818 -71.676 
L 568.927309 -71.676 
L 567.4968 -71.676 
L 566.066291 -71.676 
L 564.635782 -71.676 
L 563.205273 -71.676 
L 561.774764 -71.676 
L 560.344255 -71.676 
L 558.913745 -71.676 
L 557.483236 -71.676 
L 556.052727 -71.676 
L 554.622218 -71.676 
L 553.191709 -71.676 
L 551.7612 -71.676 
L 550.330691 -71.676 
L 548.900182 -71.676 
L 547.469673 -71.676 
L 546.039164 -71.676 
L 544.608655 -71.676 
L 543.178145 -71.676 
L 541.747636 -71.676 
L 540.317127 -71.676 
L 538.886618 -71.676 
L 537.456109 -71.676 
L 536.0256 -71.676 
L 534.595091 -71.676 
L 533.164582 -71.676 
L 531.734073 -71.676 
L 530.303564 -71.676 
L 528.873055 -71.676 
L 527.442545 -71.676 
L 526.012036 -71.676 
L 524.581527 -71.676 
L 523.151018 -71.676 
L 521.720509 -71.676 
L 520.29 -71.676 
L 518.859491 -71.676 
L 517.428982 -71.676 
L 515.998473 -71.676 
L 514.567964 -71.676 
L 513.137455 -71.676 
L 511.706945 -71.676 
L 510.276436 -71.676 
L 508.845927 -71.676 
L 507.415418 -71.676 
L 505.984909 -71.676 
L 504.5544 -71.676 
L 503.123891 -71.676 
L 501.693382 -71.676 
L 500.262873 -71.676 
L 498.832364 -71.676 
L 497.401855 -71.676 
L 495.971345 -71.676 
L 494.540836 -71.676 
L 493.110327 -71.676 
L 491.679818 -71.676 
L 490.249309 -71.676 
L 488.8188 -71.676 
L 487.388291 -71.676 
L 485.957782 -71.676 
L 484.527273 -71.676 
L 483.096764 -71.676 
L 481.666255 -71.676 
L 480.235745 -71.676 
L 478.805236 -71.676 
L 477.374727 -71.676 
L 475.944218 -71.676 
L 474.513709 -71.676 
L 473.0832 -71.676 
L 471.652691 -71.676 
L 470.222182 -71.676 
L 468.791673 -71.676 
L 467.361164 -71.676 
L 465.930655 -71.676 
L 464.500145 -71.676 
L 463.069636 -71.676 
L 461.639127 -71.676 
L 460.208618 -71.676 
L 458.778109 -71.676 
L 457.3476 -71.676 
L 455.917091 -71.676 
L 454.486582 -71.676 
L 453.056073 -71.676 
L 451.625564 -71.676 
L 450.195055 -71.676 
L 448.764545 -71.676 
L 447.334036 -71.676 
L 445.903527 -71.676 
L 444.473018 -71.676 
L 443.042509 -71.676 
L 441.612 -71.676 
L 440.181491 -71.676 
L 438.750982 -71.676 
L 437.320473 -71.676 
L 435.889964 -71.676 
L 434.459455 -71.676 
L 433.028945 -71.676 
L 431.598436 -71.676 
L 430.167927 -71.676 
L 428.737418 -71.676 
L 427.306909 -71.676 
L 425.8764 -71.676 
L 424.445891 -71.676 
L 423.015382 -71.676 
L 421.584873 -71.676 
L 420.154364 -71.676 
L 418.723855 -71.676 
L 417.293345 -71.676 
L 415.862836 -71.676 
L 414.432327 -71.676 
L 413.001818 -71.676 
L 411.571309 -71.676 
L 410.1408 -71.676 
L 408.710291 -71.676 
L 407.279782 -71.676 
L 405.849273 -71.676 
L 404.418764 -71.676 
L 402.988255 -71.676 
L 401.557745 -71.676 
L 400.127236 -71.676 
L 398.696727 -71.676 
L 397.266218 -71.676 
L 395.835709 -71.676 
L 394.4052 -71.676 
L 392.974691 -71.676 
L 391.544182 -71.676 
L 390.113673 -71.676 
L 388.683164 -71.676 
L 387.252655 -71.676 
L 385.822145 -71.676 
L 384.391636 -71.676 
L 382.961127 -71.676 
L 381.530618 -71.676 
L 380.100109 -71.676 
L 378.6696 -71.676 
L 377.239091 -71.676 
L 375.808582 -71.676 
L 374.378073 -71.676 
L 372.947564 -71.676 
L 371.517055 -71.676 
L 370.086545 -71.676 
L 368.656036 -71.676 
L 367.225527 -71.676 
L 365.795018 -71.676 
L 364.364509 -71.676 
L 362.934 -71.676 
L 361.503491 -71.676 
L 360.072982 -71.676 
L 358.642473 -71.676 
L 357.211964 -71.676 
L 355.781455 -71.676 
L 354.350945 -71.676 
L 352.920436 -71.676 
L 351.489927 -71.676 
L 350.059418 -71.676 
L 348.628909 -71.676 
L 347.1984 -71.676 
L 345.767891 -71.676 
L 344.337382 -71.676 
L 342.906873 -71.676 
L 341.476364 -71.676 
L 340.045855 -71.676 
L 338.615345 -71.676 
L 337.184836 -71.676 
L 335.754327 -71.676 
L 334.323818 -71.676 
L 332.893309 -71.676 
L 331.4628 -71.676 
L 330.032291 -71.676 
L 328.601782 -71.676 
L 327.171273 -71.676 
L 325.740764 -71.676 
L 324.310255 -71.676 
L 322.879745 -71.676 
L 321.449236 -71.676 
L 320.018727 -71.676 
L 318.588218 -71.676 
L 317.157709 -71.676 
L 315.7272 -71.676 
L 314.296691 -71.676 
L 312.866182 -71.676 
L 311.435673 -71.676 
L 310.005164 -71.676 
L 308.574655 -71.676 
L 307.144145 -71.676 
L 305.713636 -71.676 
L 304.283127 -71.676 
L 302.852618 -71.676 
L 301.422109 -71.676 
L 299.9916 -71.676 
L 298.561091 -71.676 
L 297.130582 -71.676 
L 295.700073 -71.676 
L 294.269564 -71.676 
L 292.839055 -71.676 
L 291.408545 -71.676 
L 289.978036 -71.676 
L 288.547527 -71.676 
L 287.117018 -71.676 
L 285.686509 -71.676 
L 284.256 -71.676 
L 282.825491 -71.676 
L 281.394982 -71.676 
L 279.964473 -71.676 
L 278.533964 -71.676 
L 277.103455 -71.676 
L 275.672945 -71.676 
L 274.242436 -71.676 
L 272.811927 -71.676 
L 271.381418 -71.676 
L 269.950909 -71.676 
L 268.5204 -71.676 
L 267.089891 -71.676 
L 265.659382 -71.676 
L 264.228873 -71.676 
L 262.798364 -71.676 
L 261.367855 -71.676 
L 259.937345 -71.676 
L 258.506836 -71.676 
L 257.076327 -71.676 
L 255.645818 -71.676 
L 254.215309 -71.676 
L 252.7848 -71.676 
L 251.354291 -71.676 
L 249.923782 -71.676 
L 248.493273 -71.676 
L 247.062764 -71.676 
L 245.632255 -71.676 
L 244.201745 -71.676 
L 242.771236 -71.676 
L 241.340727 -71.676 
L 239.910218 -71.676 
L 238.479709 -71.676 
L 237.0492 -71.676 
L 235.618691 -71.676 
L 234.188182 -71.676 
L 232.757673 -71.676 
L 231.327164 -71.676 
L 229.896655 -71.676 
L 228.466145 -71.676 
L 227.035636 -71.676 
L 225.605127 -71.676 
L 224.174618 -71.676 
L 222.744109 -71.676 
L 221.3136 -71.676 
L 219.883091 -71.676 
L 218.452582 -71.676 
L 217.022073 -71.676 
L 215.591564 -71.676 
L 214.161055 -71.676 
L 212.730545 -71.676 
L 211.300036 -71.676 
L 209.869527 -71.676 
L 208.439018 -71.676 
L 207.008509 -71.676 
L 205.578 -71.676 
L 204.147491 -71.676 
L 202.716982 -71.676 
L 201.286473 -71.676 
L 199.855964 -71.676 
L 198.425455 -71.676 
L 196.994945 -71.676 
L 195.564436 -71.676 
L 194.133927 -71.676 
L 192.703418 -71.676 
L 191.272909 -71.676 
L 189.8424 -71.676 
L 188.411891 -71.676 
L 186.981382 -71.676 
L 185.550873 -71.676 
L 184.120364 -71.676 
L 182.689855 -71.676 
L 181.259345 -71.676 
L 179.828836 -71.676 
L 178.398327 -71.676 
L 176.967818 -71.676 
L 175.537309 -71.676 
L 174.1068 -71.676 
L 172.676291 -71.676 
L 171.245782 -71.676 
L 169.815273 -71.676 
L 168.384764 -71.676 
L 166.954255 -71.676 
L 165.523745 -71.676 
L 164.093236 -71.676 
L 162.662727 -71.676 
z
" id="mabb13fa3ee" style="stroke:#000000;stroke-opacity:0.8;"/>
    </defs>
    <g clip-path="url(#p4e227a25fb)">
     <use style="fill-opacity:0.8;stroke:#000000;stroke-opacity:0.8;" x="0" xlink:href="#mabb13fa3ee" y="172.8"/>
    </g>
   </g>
   <g id="patch_3">
    <path clip-path="url(#p4e227a25fb)" d="M 162.662727 87.264 
L 162.662727 73.404 
L 171.245782 73.404 
L 171.245782 67.86 
L 154.079673 62.316 
L 142.6356 62.316 
L 142.6356 112.212 
L 154.079673 112.212 
L 171.245782 106.668 
L 171.245782 101.124 
L 162.662727 101.124 
z
" style="fill:#808080;opacity:0.8;stroke:#000000;stroke-linejoin:miter;"/>
   </g>
   <g id="patch_4">
    <path clip-path="url(#p4e227a25fb)" d="M 877.917273 87.264 
L 877.917273 73.404 
L 869.334218 73.404 
L 869.334218 67.86 
L 886.500327 62.316 
L 897.9444 62.316 
L 897.9444 112.212 
L 886.500327 112.212 
L 869.334218 106.668 
L 869.334218 101.124 
L 877.917273 101.124 
z
" style="fill:#808080;opacity:0.8;stroke:#000000;stroke-linejoin:miter;"/>
   </g>
   <g id="matplotlib.axis_1">
    <g id="xtick_1"/>
    <g id="xtick_2"/>
    <g id="xtick_3"/>
    <g id="xtick_4"/>
    <g id="xtick_5"/>
    <g id="xtick_6"/>
   </g>
   <g id="matplotlib.axis_2">
    <g id="ytick_1"/>
    <g id="ytick_2"/>
    <g id="ytick_3"/>
    <g id="ytick_4"/>
    <g id="ytick_5"/>
   </g>
   <g id="line2d_1">
    <path clip-path="url(#p4e227a25fb)" d="M 162.662727 87.264 
L 877.917273 87.264 
L 877.917273 87.264 
" style="fill:none;stroke:#000000;stroke-dasharray:11.1,4.8;stroke-dashoffset:0;stroke-width:3;"/>
   </g>
   <g id="line2d_2">
    <path clip-path="url(#p4e227a25fb)" d="M 162.662727 73.404 
L 877.917273 73.404 
L 877.917273 73.404 
" style="fill:none;stroke:#000000;stroke-linecap:square;stroke-width:2;"/>
   </g>
   <g id="line2d_3">
    <path clip-path="url(#p4e227a25fb)" d="M 162.662727 101.124 
L 877.917273 101.124 
L 877.917273 101.124 
" style="fill:none;stroke:#000000;stroke-linecap:square;stroke-width:2;"/>
   </g>
   <g id="line2d_4">
    <path clip-path="url(#p4e227a25fb)" d="M 162.662727 101.124 
L 162.662727 73.404 
" style="fill:none;stroke:#000000;stroke-linecap:square;stroke-width:2;"/>
   </g>
   <g id="line2d_5">
    <path clip-path="url(#p4e227a25fb)" d="M 877.917273 101.124 
L 877.917273 73.404 
" style="fill:none;stroke:#000000;stroke-linecap:square;stroke-width:2;"/>
   </g>
  </g>
 </g>
 <defs>
  <clipPath id="p4e227a25fb">
   <rect height="133.056" width="786.78" x="126.9" y="20.736"/>
  </clipPath>
 </defs>
</svg>
