<?xml version="1.0" encoding="utf-8" standalone="no"?>
<!DOCTYPE svg PUBLIC "-//W3C//DTD SVG 1.1//EN"
  "http://www.w3.org/Graphics/SVG/1.1/DTD/svg11.dtd">
<!-- Created with matplotlib (https://matplotlib.org/) -->
<svg height="504pt" version="1.1" viewBox="0 0 1015.2 504" width="1015.2pt" xmlns="http://www.w3.org/2000/svg" xmlns:xlink="http://www.w3.org/1999/xlink">
 <defs>
  <style type="text/css">
*{stroke-linecap:butt;stroke-linejoin:round;white-space:pre;}
  </style>
 </defs>
 <g id="figure_1">
  <g id="patch_1">
   <path d="M 0 504 
L 1015.2 504 
L 1015.2 0 
L 0 0 
z
" style="fill:none;"/>
  </g>
  <g id="axes_1">
   <g id="patch_2">
    <path d="M 126.9 448.56 
L 913.68 448.56 
L 913.68 60.48 
L 126.9 60.48 
z
" style="fill:none;"/>
   </g>
   <g id="patch_3">
    <path clip-path="url(#p41305e0070)" d="M 162.662727 448.56 
L 162.662727 60.48 
L 184.120364 60.48 
L 184.120364 448.56 
z
" style="fill:#808080;opacity:0.1;stroke:#808080;stroke-linejoin:miter;"/>
   </g>
   <g id="patch_4">
    <path clip-path="url(#p41305e0070)" d="M 856.459636 448.56 
L 856.459636 60.48 
L 877.917273 60.48 
L 877.917273 448.56 
z
" style="fill:#808080;opacity:0.1;stroke:#808080;stroke-linejoin:miter;"/>
   </g>
   <g id="matplotlib.axis_1">
    <g id="xtick_1"/>
    <g id="xtick_2"/>
    <g id="xtick_3"/>
    <g id="xtick_4"/>
    <g id="xtick_5"/>
    <g id="xtick_6"/>
   </g>
   <g id="matplotlib.axis_2">
    <g id="ytick_1"/>
    <g id="ytick_2"/>
    <g id="ytick_3"/>
    <g id="ytick_4"/>
    <g id="ytick_5"/>
    <g id="ytick_6"/>
    <g id="ytick_7"/>
    <g id="ytick_8"/>
   </g>
   <g id="line2d_1">
    <path clip-path="url(#p41305e0070)" d="M 162.662727 266.092955 
L 166.954255 261.561141 
L 169.815273 258.886879 
L 172.676291 256.621924 
L 174.1068 255.672948 
L 175.537309 254.859543 
L 176.967818 254.189639 
L 178.398327 253.669417 
L 179.828836 253.303222 
L 181.259345 253.093483 
L 182.689855 253.040679 
L 184.120364 253.143318 
L 185.550873 253.397955 
L 186.981382 253.799225 
L 188.411891 254.339919 
L 191.272909 255.802065 
L 194.133927 257.693856 
L 196.994945 259.903528 
L 208.439018 269.298519 
L 211.300036 271.133413 
L 214.161055 272.541836 
L 215.591564 273.062099 
L 217.022073 273.450318 
L 218.452582 273.70172 
L 219.883091 273.813426 
L 221.3136 273.784472 
L 222.744109 273.615808 
L 224.174618 273.310265 
L 225.605127 272.872499 
L 228.466145 271.627496 
L 231.327164 269.950673 
L 234.188182 267.933229 
L 238.479709 264.504556 
L 245.632255 258.683229 
L 248.493273 256.635332 
L 251.354291 254.879797 
L 254.215309 253.474466 
L 257.076327 252.450044 
L 259.937345 251.808027 
L 262.798364 251.520351 
L 265.659382 251.53077 
L 268.5204 251.757902 
L 277.103455 252.652069 
L 279.964473 252.611441 
L 282.825491 252.197815 
L 284.256 251.817135 
L 285.686509 251.304636 
L 287.117018 250.650094 
L 288.547527 249.844842 
L 289.978036 248.881893 
L 291.408545 247.756059 
L 292.839055 246.464027 
L 294.269564 245.00442 
L 297.130582 241.586799 
L 299.9916 237.531325 
L 302.852618 232.896145 
L 305.713636 227.76651 
L 310.005164 219.385841 
L 321.449236 196.150214 
L 324.310255 190.847861 
L 327.171273 185.963507 
L 330.032291 181.565873 
L 332.893309 177.695033 
L 335.754327 174.360767 
L 338.615345 171.54265 
L 341.476364 169.191874 
L 344.337382 167.234687 
L 347.1984 165.577251 
L 351.489927 163.414857 
L 357.211964 160.532213 
L 360.072982 158.847417 
L 362.934 156.880922 
L 365.795018 154.569649 
L 368.656036 151.876823 
L 371.517055 148.794483 
L 374.378073 145.34431 
L 377.239091 141.576708 
L 381.530618 135.503657 
L 388.683164 125.158101 
L 391.544182 121.302962 
L 394.4052 117.797172 
L 397.266218 114.753035 
L 400.127236 112.264955 
L 401.557745 111.252661 
L 402.988255 110.403923 
L 404.418764 109.723264 
L 405.849273 109.2133 
L 407.279782 108.874693 
L 408.710291 108.706137 
L 410.1408 108.704365 
L 411.571309 108.86419 
L 413.001818 109.178568 
L 414.432327 109.638688 
L 415.862836 110.23409 
L 418.723855 111.781501 
L 421.584873 113.709909 
L 425.8764 117.03777 
L 431.598436 121.575594 
L 434.459455 123.593931 
L 437.320473 125.294522 
L 440.181491 126.590163 
L 441.612 127.065958 
L 443.042509 127.419883 
L 444.473018 127.648897 
L 445.903527 127.751873 
L 447.334036 127.729599 
L 448.764545 127.584742 
L 451.625564 126.947019 
L 454.486582 125.894949 
L 457.3476 124.508705 
L 461.639127 122.022838 
L 468.791673 117.747668 
L 471.652691 116.320969 
L 474.513709 115.201912 
L 477.374727 114.46124 
L 480.235745 114.144324 
L 483.096764 114.268218 
L 485.957782 114.820366 
L 488.8188 115.759047 
L 491.679818 117.015545 
L 495.971345 119.28991 
L 501.693382 122.441909 
L 504.5544 123.78698 
L 507.415418 124.815144 
L 508.845927 125.176022 
L 510.276436 125.418625 
L 511.706945 125.532538 
L 513.137455 125.508887 
L 514.567964 125.340473 
L 515.998473 125.02188 
L 517.428982 124.549566 
L 518.859491 123.921918 
L 520.29 123.139283 
L 521.720509 122.203978 
L 523.151018 121.120262 
L 526.012036 118.534026 
L 528.873055 115.450956 
L 531.734073 111.966649 
L 536.0256 106.24512 
L 543.178145 96.500169 
L 546.039164 92.919917 
L 548.900182 89.700762 
L 551.7612 86.936858 
L 554.622218 84.697151 
L 556.052727 83.787668 
L 557.483236 83.022029 
L 558.913745 82.400541 
L 560.344255 81.921601 
L 561.774764 81.581746 
L 563.205273 81.375718 
L 564.635782 81.29656 
L 567.4968 81.483253 
L 570.357818 82.057212 
L 573.218836 82.916363 
L 578.940873 85.033714 
L 583.2324 86.519209 
L 586.093418 87.268193 
L 588.954436 87.731694 
L 591.815455 87.857289 
L 594.676473 87.620204 
L 597.537491 87.02507 
L 600.398509 86.10594 
L 603.259527 84.924581 
L 607.551055 82.854819 
L 611.842582 80.760565 
L 614.7036 79.557009 
L 617.564618 78.65451 
L 618.995127 78.353583 
L 620.425636 78.171261 
L 621.856145 78.12 
L 623.286655 78.210956 
L 624.717164 78.453827 
L 626.147673 78.856702 
L 627.578182 79.42594 
L 629.008691 80.16607 
L 630.4392 81.079717 
L 631.869709 82.167558 
L 633.300218 83.428299 
L 634.730727 84.858684 
L 637.591745 88.205799 
L 640.452764 92.145654 
L 643.313782 96.58862 
L 646.1748 101.423386 
L 650.466327 109.129487 
L 657.618873 122.047248 
L 660.479891 126.863596 
L 663.340909 131.318084 
L 666.201927 135.333941 
L 669.062945 138.862181 
L 671.923964 141.883772 
L 674.784982 144.410089 
L 677.646 146.481624 
L 680.507018 148.165029 
L 683.368036 149.548668 
L 687.659564 151.293218 
L 693.3816 153.604024 
L 696.242618 155.002771 
L 699.103636 156.690425 
L 701.964655 158.737525 
L 704.825673 161.189402 
L 707.686691 164.063158 
L 710.547709 167.34631 
L 713.408727 170.997171 
L 717.700255 177.005897 
L 729.144327 193.592131 
L 732.005345 197.198702 
L 734.866364 200.355585 
L 737.727382 202.972358 
L 739.157891 204.056475 
L 740.5884 204.982908 
L 742.018909 205.747839 
L 743.449418 206.349377 
L 744.879927 206.787592 
L 746.310436 207.064522 
L 747.740945 207.184154 
L 749.171455 207.152373 
L 750.601964 206.976889 
L 752.032473 206.667136 
L 754.893491 205.690404 
L 757.754509 204.326836 
L 760.615527 202.698552 
L 769.198582 197.566603 
L 772.0596 196.209996 
L 774.920618 195.218741 
L 776.351127 194.886839 
L 777.781636 194.675096 
L 779.212145 194.589552 
L 780.642655 194.634391 
L 782.073164 194.811891 
L 783.503673 195.122413 
L 784.934182 195.564412 
L 786.364691 196.134479 
L 789.225709 197.636264 
L 792.086727 199.566322 
L 794.947745 201.84015 
L 799.239273 205.668661 
L 806.391818 212.20228 
L 809.252836 214.542216 
L 812.113855 216.584275 
L 814.974873 218.261848 
L 817.835891 219.534365 
L 820.696909 220.389945 
L 823.557927 220.846357 
L 826.418945 220.950239 
L 829.279964 220.774624 
L 833.571491 220.200629 
L 837.863018 219.603303 
L 840.724036 219.400995 
L 843.585055 219.499392 
L 845.015564 219.696965 
L 846.446073 220.0105 
L 847.876582 220.451226 
L 849.307091 221.028927 
L 850.7376 221.75179 
L 852.168109 222.626282 
L 853.598618 223.657049 
L 855.029127 224.846841 
L 856.459636 226.196459 
L 859.320655 229.368559 
L 862.181673 233.140719 
L 865.042691 237.450638 
L 867.903709 242.2095 
L 872.195236 249.942873 
L 877.917273 260.676811 
L 877.917273 260.676811 
" style="fill:none;stroke:#8cbfb9;stroke-linecap:square;stroke-width:4;"/>
   </g>
   <g id="line2d_2">
    <path clip-path="url(#p41305e0070)" d="M 162.662727 249.488885 
L 164.093236 250.95061 
L 165.523745 251.62772 
L 166.954255 254.383099 
L 168.384764 257.464449 
L 169.815273 257.404411 
L 171.245782 255.657181 
L 172.676291 254.375786 
L 174.1068 253.746492 
L 175.537309 253.944127 
L 176.967818 254.524699 
L 178.398327 255.464063 
L 179.828836 256.217452 
L 181.259345 256.392792 
L 182.689855 256.413919 
L 184.120364 255.0475 
L 185.550873 253.873177 
L 186.981382 253.901692 
L 188.411891 254.405998 
L 191.272909 255.855822 
L 194.133927 257.733628 
L 196.994945 259.927408 
L 208.439018 269.257395 
L 211.300036 271.080044 
L 214.161055 272.479274 
L 215.591564 272.996235 
L 217.022073 273.382072 
L 218.452582 273.632036 
L 219.883091 273.74326 
L 221.3136 273.714779 
L 222.744109 273.547525 
L 224.174618 273.244303 
L 225.605127 272.809724 
L 228.466145 271.573466 
L 231.327164 269.908058 
L 234.188182 267.903975 
L 238.479709 264.497157 
L 245.632255 258.709656 
L 248.493273 256.671937 
L 251.354291 254.923641 
L 254.215309 253.522153 
L 257.076327 252.497919 
L 259.937345 251.852391 
L 262.798364 251.557676 
L 265.659382 251.557911 
L 268.5204 251.77228 
L 277.103455 252.620404 
L 279.964473 252.564785 
L 282.825491 252.137824 
L 284.256 251.751347 
L 285.686509 251.233749 
L 287.117018 250.574884 
L 288.547527 249.766149 
L 289.978036 248.800612 
L 291.408545 247.673127 
L 292.839055 246.380409 
L 294.269564 244.921096 
L 297.130582 241.506994 
L 299.9916 237.458795 
L 302.852618 232.834283 
L 305.713636 227.718152 
L 310.005164 219.361464 
L 321.449236 196.190756 
L 324.310255 190.900174 
L 327.171273 186.024418 
L 330.032291 181.631797 
L 332.893309 177.762179 
L 335.754327 174.425355 
L 338.615345 171.601129 
L 341.476364 169.241122 
L 344.337382 167.27219 
L 347.1984 165.601247 
L 351.489927 163.41716 
L 357.211964 160.507623 
L 360.072982 158.812148 
L 362.934 156.837758 
L 365.795018 154.521883 
L 368.656036 151.828059 
L 371.517055 148.748432 
L 374.378073 145.304566 
L 377.239091 141.546539 
L 381.530618 135.492796 
L 388.683164 125.186314 
L 391.544182 121.346658 
L 394.4052 117.854922 
L 397.266218 114.822599 
L 400.127236 112.343403 
L 401.557745 111.334281 
L 402.988255 110.487798 
L 404.418764 109.808443 
L 405.849273 109.298809 
L 407.279782 108.959549 
L 408.710291 108.789363 
L 410.1408 108.785003 
L 411.571309 108.941314 
L 413.001818 109.251297 
L 414.432327 109.706198 
L 415.862836 110.295628 
L 418.723855 111.829163 
L 421.584873 113.741752 
L 425.8764 117.044123 
L 431.598436 121.54946 
L 434.459455 123.554158 
L 437.320473 125.243838 
L 440.181491 126.531851 
L 441.612 127.005185 
L 443.042509 127.357591 
L 444.473018 127.586042 
L 445.903527 127.689409 
L 447.334036 127.668464 
L 448.764545 127.52585 
L 451.625564 126.895167 
L 454.486582 125.853131 
L 457.3476 124.479271 
L 461.639127 122.01466 
L 468.791673 117.774703 
L 471.652691 116.359477 
L 474.513709 115.249274 
L 477.374727 114.51428 
L 480.235745 114.199499 
L 483.096764 114.321823 
L 485.957782 114.86875 
L 488.8188 115.798833 
L 491.679818 117.043823 
L 495.971345 119.296913 
L 501.693382 122.417373 
L 504.5544 123.747335 
L 507.415418 124.762012 
L 508.845927 125.117004 
L 510.276436 125.354413 
L 511.706945 125.4639 
L 513.137455 125.436659 
L 514.567964 125.265545 
L 515.998473 124.945185 
L 517.428982 124.472068 
L 518.859491 123.844594 
L 520.29 123.063115 
L 521.720509 122.129935 
L 523.151018 121.04929 
L 526.012036 118.47186 
L 528.873055 115.400752 
L 531.734073 111.930931 
L 536.0256 106.234144 
L 543.178145 96.531024 
L 546.039164 92.965105 
L 548.900182 89.757731 
L 551.7612 87.002453 
L 554.622218 84.767799 
L 556.052727 83.859426 
L 557.483236 83.09394 
L 558.913745 82.471655 
L 560.344255 81.990989 
L 561.774764 81.648513 
L 563.205273 81.439017 
L 564.635782 81.355601 
L 567.4968 81.531704 
L 570.357818 82.092887 
L 573.218836 82.93788 
L 578.940873 85.026307 
L 583.2324 86.493062 
L 586.093418 87.232447 
L 588.954436 87.689386 
L 591.815455 87.81188 
L 594.676473 87.575374 
L 597.537491 86.984501 
L 600.398509 86.073099 
L 603.259527 84.902521 
L 607.551055 82.853296 
L 611.842582 80.782467 
L 614.7036 79.594659 
L 617.564618 78.706951 
L 618.995127 78.412789 
L 620.425636 78.236679 
L 621.856145 78.190982 
L 623.286655 78.286775 
L 624.717164 78.53368 
L 626.147673 78.939726 
L 627.578182 79.511222 
L 629.008691 80.25266 
L 630.4392 81.166644 
L 631.869709 82.253839 
L 633.300218 83.512955 
L 634.730727 84.940755 
L 637.591745 88.279956 
L 640.452764 92.208595 
L 643.313782 96.637633 
L 646.1748 101.456495 
L 650.466327 109.136913 
L 657.618873 122.014566 
L 660.479891 126.818304 
L 663.340909 131.263186 
L 666.201927 135.272915 
L 669.062945 138.798775 
L 671.923964 141.821791 
L 674.784982 144.353177 
L 677.646 146.433054 
L 680.507018 148.127519 
L 683.368036 149.524225 
L 687.659564 151.290314 
L 693.3816 153.628768 
L 696.242618 155.038936 
L 699.103636 156.735419 
L 701.964655 158.788193 
L 704.825673 161.242211 
L 707.686691 164.114406 
L 710.547709 167.392342 
L 713.408727 171.034595 
L 717.700255 177.025106 
L 727.713818 191.618776 
L 730.574836 195.395504 
L 733.435855 198.777262 
L 736.296873 201.664115 
L 737.727382 202.896511 
L 739.157891 203.977794 
L 740.5884 204.902323 
L 742.018909 205.666312 
L 743.449418 206.267885 
L 744.879927 206.707117 
L 746.310436 206.986036 
L 747.740945 207.108605 
L 749.171455 207.08067 
L 750.601964 206.909893 
L 752.032473 206.605643 
L 754.893491 205.642007 
L 757.754509 204.29372 
L 760.615527 202.682079 
L 769.198582 197.599189 
L 772.0596 196.255722 
L 774.920618 195.274759 
L 776.351127 194.946765 
L 777.781636 194.738036 
L 779.212145 194.65458 
L 780.642655 194.700557 
L 782.073164 194.878239 
L 783.503673 195.187992 
L 784.934182 195.628291 
L 786.364691 196.195761 
L 789.225709 197.689855 
L 792.086727 199.609337 
L 794.947745 201.870376 
L 799.239273 205.677325 
L 806.391818 212.176064 
L 809.252836 214.504926 
L 812.113855 216.538649 
L 814.974873 218.211144 
L 817.835891 219.482173 
L 820.696909 220.339977 
L 823.557927 220.802224 
L 826.418945 220.915246 
L 829.279964 220.751568 
L 833.571491 220.199221 
L 837.863018 219.625543 
L 840.724036 219.438609 
L 843.585055 219.551023 
L 845.015564 219.754835 
L 846.446073 220.073971 
L 847.876582 220.519576 
L 849.307091 221.10136 
L 850.7376 221.826876 
L 853.598618 223.615324 
L 855.029127 225.249477 
L 856.459636 230.848373 
L 857.890145 237.032858 
L 860.751164 225.733634 
L 862.181673 239.398064 
L 863.612182 259.645174 
L 865.042691 268.77297 
L 866.4732 268.875537 
L 867.903709 273.734002 
L 869.334218 277.965998 
L 870.764727 272.824482 
L 872.195236 263.984471 
L 873.625745 258.331301 
L 875.056255 260.789303 
L 876.486764 269.685289 
L 877.917273 276.305321 
L 877.917273 276.305321 
" style="fill:none;stroke:#000000;stroke-dasharray:7.4,3.2;stroke-dashoffset:0;stroke-width:2;"/>
    <defs>
     <path d="M 0 2.5 
C 0.663008 2.5 1.29895 2.236584 1.767767 1.767767 
C 2.236584 1.29895 2.5 0.663008 2.5 0 
C 2.5 -0.663008 2.236584 -1.29895 1.767767 -1.767767 
C 1.29895 -2.236584 0.663008 -2.5 0 -2.5 
C -0.663008 -2.5 -1.29895 -2.236584 -1.767767 -1.767767 
C -2.236584 -1.29895 -2.5 -0.663008 -2.5 0 
C -2.5 0.663008 -2.236584 1.29895 -1.767767 1.767767 
C -1.29895 2.236584 -0.663008 2.5 0 2.5 
z
" id="m5e33b52320" style="stroke:#000000;"/>
    </defs>
    <g clip-path="url(#p41305e0070)">
     <use style="fill:#ffffff;stroke:#000000;" x="162.662727" xlink:href="#m5e33b52320" y="249.488885"/>
     <use style="fill:#ffffff;stroke:#000000;" x="234.188182" xlink:href="#m5e33b52320" y="267.903975"/>
     <use style="fill:#ffffff;stroke:#000000;" x="305.713636" xlink:href="#m5e33b52320" y="227.718152"/>
     <use style="fill:#ffffff;stroke:#000000;" x="377.239091" xlink:href="#m5e33b52320" y="141.546539"/>
     <use style="fill:#ffffff;stroke:#000000;" x="448.764545" xlink:href="#m5e33b52320" y="127.52585"/>
     <use style="fill:#ffffff;stroke:#000000;" x="520.29" xlink:href="#m5e33b52320" y="123.063115"/>
     <use style="fill:#ffffff;stroke:#000000;" x="591.815455" xlink:href="#m5e33b52320" y="87.81188"/>
     <use style="fill:#ffffff;stroke:#000000;" x="663.340909" xlink:href="#m5e33b52320" y="131.263186"/>
     <use style="fill:#ffffff;stroke:#000000;" x="734.866364" xlink:href="#m5e33b52320" y="200.288012"/>
     <use style="fill:#ffffff;stroke:#000000;" x="806.391818" xlink:href="#m5e33b52320" y="212.176064"/>
     <use style="fill:#ffffff;stroke:#000000;" x="877.917273" xlink:href="#m5e33b52320" y="276.305321"/>
    </g>
   </g>
   <g id="line2d_3">
    <path clip-path="url(#p41305e0070)" d="M 162.662727 368.082938 
L 165.523745 366.036677 
L 168.384764 364.34916 
L 171.245782 363.014864 
L 174.1068 362.019596 
L 176.967818 361.341021 
L 179.828836 360.949417 
L 182.689855 360.808591 
L 185.550873 360.87698 
L 189.8424 361.271028 
L 196.994945 362.294412 
L 202.716982 363.001704 
L 207.008509 363.234171 
L 209.869527 363.179287 
L 212.730545 362.924476 
L 215.591564 362.450692 
L 218.452582 361.747023 
L 221.3136 360.811055 
L 224.174618 359.649003 
L 227.035636 358.27562 
L 229.896655 356.713872 
L 234.188182 354.086997 
L 241.340727 349.293965 
L 247.062764 345.530966 
L 251.354291 343.034959 
L 254.215309 341.62852 
L 257.076327 340.488337 
L 259.937345 339.661613 
L 262.798364 339.19023 
L 265.659382 339.109606 
L 268.5204 339.447703 
L 271.381418 340.224226 
L 274.242436 341.45001 
L 277.103455 343.126637 
L 279.964473 345.24628 
L 282.825491 347.791769 
L 285.686509 350.736903 
L 288.547527 354.046979 
L 291.408545 357.679529 
L 295.700073 363.62356 
L 299.9916 369.991679 
L 312.866182 389.524589 
L 317.157709 395.474779 
L 320.018727 399.121479 
L 322.879745 402.458959 
L 325.740764 405.449928 
L 328.601782 408.065309 
L 331.4628 410.284817 
L 334.323818 412.097305 
L 337.184836 413.50089 
L 340.045855 414.502836 
L 342.906873 415.119216 
L 345.767891 415.374351 
L 348.628909 415.300045 
L 351.489927 414.934635 
L 354.350945 414.321878 
L 357.211964 413.509711 
L 361.503491 412.029074 
L 372.947564 407.769348 
L 377.239091 406.508495 
L 380.100109 405.873035 
L 382.961127 405.431993 
L 385.822145 405.202597 
L 388.683164 405.193751 
L 391.544182 405.405798 
L 394.4052 405.83051 
L 397.266218 406.451308 
L 401.557745 407.694598 
L 405.849273 409.209961 
L 417.293345 413.437963 
L 420.154364 414.263855 
L 423.015382 414.894295 
L 425.8764 415.281069 
L 428.737418 415.38004 
L 431.598436 415.152397 
L 434.459455 414.565779 
L 437.320473 413.595239 
L 440.181491 412.224023 
L 443.042509 410.444149 
L 445.903527 408.256767 
L 448.764545 405.672285 
L 451.625564 402.710273 
L 454.486582 399.399124 
L 457.3476 395.775502 
L 461.639127 389.852626 
L 465.930655 383.503144 
L 480.235745 361.906419 
L 484.527273 356.116256 
L 487.388291 352.613628 
L 490.249309 349.452216 
L 493.110327 346.671328 
L 495.971345 344.30217 
L 498.832364 342.3672 
L 501.693382 340.879682 
L 504.5544 339.843486 
L 507.415418 339.253105 
L 510.276436 339.093918 
L 513.137455 339.342662 
L 515.998473 339.96813 
L 518.859491 340.932059 
L 521.720509 342.190182 
L 524.581527 343.693433 
L 528.873055 346.292363 
L 534.595091 350.11153 
L 541.747636 354.851762 
L 546.039164 357.39153 
L 548.900182 358.877401 
L 551.7612 360.164281 
L 554.622218 361.232604 
L 557.483236 362.071181 
L 560.344255 362.677423 
L 563.205273 363.057349 
L 566.066291 363.225345 
L 568.927309 363.203718 
L 573.218836 362.882161 
L 578.940873 362.11631 
L 586.093418 361.132929 
L 590.384945 360.825596 
L 593.245964 360.839795 
L 596.106982 361.08126 
L 598.968 361.589438 
L 601.829018 362.397926 
L 604.690036 363.533444 
L 607.551055 365.014983 
L 610.412073 366.853146 
L 613.273091 369.049701 
L 616.134109 371.597366 
L 618.995127 374.479814 
L 621.856145 377.671916 
L 624.717164 381.14021 
L 629.008691 386.768692 
L 634.730727 394.802429 
L 643.313782 407.030719 
L 647.605309 412.766899 
L 650.466327 416.310574 
L 653.327345 419.564368 
L 656.188364 422.477925 
L 659.049382 425.007352 
L 661.9104 427.11623 
L 664.771418 428.77644 
L 667.632436 429.96879 
L 669.062945 430.386067 
L 670.493455 430.683425 
L 671.923964 430.86112 
L 673.354473 430.92 
L 674.784982 430.861499 
L 676.215491 430.687625 
L 679.076509 430.004581 
L 681.937527 428.897806 
L 684.798545 427.402171 
L 687.659564 425.559571 
L 690.520582 423.417836 
L 693.3816 421.029509 
L 697.673127 417.107563 
L 713.408727 402.170345 
L 716.269745 399.807743 
L 719.130764 397.655066 
L 721.991782 395.737974 
L 724.8528 394.073816 
L 727.713818 392.67131 
L 730.574836 391.530435 
L 733.435855 390.642563 
L 736.296873 389.990817 
L 739.157891 389.55064 
L 742.018909 389.290577 
L 746.310436 389.155025 
L 760.615527 389.058953 
L 763.476545 388.748274 
L 766.337564 388.237603 
L 769.198582 387.491254 
L 772.0596 386.479836 
L 774.920618 385.18118 
L 777.781636 383.581072 
L 780.642655 381.673793 
L 783.503673 379.46243 
L 786.364691 376.95896 
L 789.225709 374.184106 
L 792.086727 371.166963 
L 796.378255 366.269557 
L 802.100291 359.291623 
L 810.683345 348.768017 
L 814.974873 343.921084 
L 817.835891 340.980378 
L 820.696909 338.336717 
L 823.557927 336.040108 
L 826.418945 334.134453 
L 829.279964 332.656487 
L 832.140982 331.634881 
L 833.571491 331.301789 
L 835.002 331.089537 
L 836.432509 330.999164 
L 837.863018 331.031111 
L 839.293527 331.185223 
L 840.724036 331.460745 
L 842.154545 331.856329 
L 845.015564 332.999378 
L 847.876582 334.59212 
L 850.7376 336.603706 
L 853.598618 338.995434 
L 856.459636 341.721698 
L 859.320655 344.731095 
L 863.612182 349.652753 
L 869.334218 356.660863 
L 876.486764 365.456784 
L 877.917273 367.148856 
L 877.917273 367.148856 
" style="fill:none;stroke:#da888e;stroke-linecap:square;stroke-width:4;"/>
   </g>
   <g id="line2d_4">
    <path clip-path="url(#p41305e0070)" d="M 162.662727 363.90182 
L 164.093236 345.697752 
L 165.523745 374.395249 
L 166.954255 366.293805 
L 168.384764 361.655479 
L 169.815273 355.59995 
L 171.245782 362.470931 
L 172.676291 361.345292 
L 174.1068 362.487998 
L 175.537309 362.627538 
L 176.967818 361.341021 
L 178.398327 360.238163 
L 179.828836 357.493569 
L 181.259345 360.176686 
L 182.689855 367.921551 
L 184.120364 360.819409 
L 186.981382 360.97547 
L 191.272909 361.455716 
L 202.716982 363.001704 
L 207.008509 363.234171 
L 209.869527 363.179287 
L 212.730545 362.924476 
L 215.591564 362.450692 
L 218.452582 361.747023 
L 221.3136 360.811055 
L 224.174618 359.649003 
L 227.035636 358.27562 
L 229.896655 356.713872 
L 234.188182 354.086997 
L 241.340727 349.293965 
L 247.062764 345.530966 
L 251.354291 343.034959 
L 254.215309 341.62852 
L 257.076327 340.488337 
L 259.937345 339.661613 
L 262.798364 339.19023 
L 265.659382 339.109606 
L 268.5204 339.447703 
L 271.381418 340.224226 
L 274.242436 341.45001 
L 277.103455 343.126637 
L 279.964473 345.24628 
L 282.825491 347.791769 
L 285.686509 350.736903 
L 288.547527 354.046979 
L 291.408545 357.679529 
L 295.700073 363.62356 
L 299.9916 369.991679 
L 312.866182 389.524589 
L 317.157709 395.474779 
L 320.018727 399.121479 
L 322.879745 402.458959 
L 325.740764 405.449928 
L 328.601782 408.065309 
L 331.4628 410.284817 
L 334.323818 412.097305 
L 337.184836 413.50089 
L 340.045855 414.502836 
L 342.906873 415.119216 
L 345.767891 415.374351 
L 348.628909 415.300045 
L 351.489927 414.934635 
L 354.350945 414.321878 
L 357.211964 413.509711 
L 361.503491 412.029074 
L 372.947564 407.769348 
L 377.239091 406.508495 
L 380.100109 405.873035 
L 382.961127 405.431993 
L 385.822145 405.202597 
L 388.683164 405.193751 
L 391.544182 405.405798 
L 394.4052 405.83051 
L 397.266218 406.451308 
L 401.557745 407.694598 
L 405.849273 409.209961 
L 417.293345 413.437963 
L 420.154364 414.263855 
L 423.015382 414.894295 
L 425.8764 415.281069 
L 428.737418 415.38004 
L 431.598436 415.152397 
L 434.459455 414.565779 
L 437.320473 413.595239 
L 440.181491 412.224023 
L 443.042509 410.444149 
L 445.903527 408.256767 
L 448.764545 405.672285 
L 451.625564 402.710273 
L 454.486582 399.399124 
L 457.3476 395.775502 
L 461.639127 389.852626 
L 465.930655 383.503144 
L 480.235745 361.906419 
L 484.527273 356.116256 
L 487.388291 352.613628 
L 490.249309 349.452216 
L 493.110327 346.671328 
L 495.971345 344.30217 
L 498.832364 342.3672 
L 501.693382 340.879682 
L 504.5544 339.843486 
L 507.415418 339.253105 
L 510.276436 339.093918 
L 513.137455 339.342662 
L 515.998473 339.96813 
L 518.859491 340.932059 
L 521.720509 342.190182 
L 524.581527 343.693433 
L 528.873055 346.292363 
L 534.595091 350.11153 
L 541.747636 354.851762 
L 546.039164 357.39153 
L 548.900182 358.877401 
L 551.7612 360.164281 
L 554.622218 361.232604 
L 557.483236 362.071181 
L 560.344255 362.677423 
L 563.205273 363.057349 
L 566.066291 363.225345 
L 568.927309 363.203718 
L 573.218836 362.882161 
L 578.940873 362.11631 
L 586.093418 361.132929 
L 590.384945 360.825596 
L 593.245964 360.839795 
L 596.106982 361.08126 
L 598.968 361.589438 
L 601.829018 362.397926 
L 604.690036 363.533444 
L 607.551055 365.014983 
L 610.412073 366.853146 
L 613.273091 369.049701 
L 616.134109 371.597366 
L 618.995127 374.479814 
L 621.856145 377.671916 
L 624.717164 381.14021 
L 629.008691 386.768692 
L 634.730727 394.802429 
L 643.313782 407.030719 
L 647.605309 412.766899 
L 650.466327 416.310574 
L 653.327345 419.564368 
L 656.188364 422.477925 
L 659.049382 425.007352 
L 661.9104 427.11623 
L 664.771418 428.77644 
L 667.632436 429.96879 
L 669.062945 430.386067 
L 670.493455 430.683425 
L 671.923964 430.86112 
L 673.354473 430.92 
L 674.784982 430.861499 
L 676.215491 430.687625 
L 679.076509 430.004581 
L 681.937527 428.897806 
L 684.798545 427.402171 
L 687.659564 425.559571 
L 690.520582 423.417836 
L 693.3816 421.029509 
L 697.673127 417.107563 
L 713.408727 402.170345 
L 716.269745 399.807743 
L 719.130764 397.655066 
L 721.991782 395.737974 
L 724.8528 394.073816 
L 727.713818 392.67131 
L 730.574836 391.530435 
L 733.435855 390.642563 
L 736.296873 389.990817 
L 739.157891 389.55064 
L 742.018909 389.290577 
L 746.310436 389.155025 
L 760.615527 389.058953 
L 763.476545 388.748274 
L 766.337564 388.237603 
L 769.198582 387.491254 
L 772.0596 386.479836 
L 774.920618 385.18118 
L 777.781636 383.581072 
L 780.642655 381.673793 
L 783.503673 379.46243 
L 786.364691 376.95896 
L 789.225709 374.184106 
L 792.086727 371.166963 
L 796.378255 366.269557 
L 802.100291 359.291623 
L 810.683345 348.768017 
L 814.974873 343.921084 
L 817.835891 340.980378 
L 820.696909 338.336717 
L 823.557927 336.040108 
L 826.418945 334.134453 
L 829.279964 332.656487 
L 832.140982 331.634881 
L 833.571491 331.301789 
L 835.002 331.089537 
L 836.432509 330.999164 
L 837.863018 331.031111 
L 839.293527 331.185223 
L 840.724036 331.460745 
L 842.154545 331.856329 
L 845.015564 332.999378 
L 847.876582 334.59212 
L 850.7376 336.603706 
L 853.598618 338.995434 
L 855.029127 340.31984 
L 856.459636 331.299081 
L 857.890145 397.6779 
L 859.320655 340.439214 
L 860.751164 313.384703 
L 862.181673 356.232845 
L 863.612182 388.399347 
L 865.042691 298.249893 
L 866.4732 365.024134 
L 867.903709 333.796315 
L 869.334218 362.419459 
L 870.764727 347.989539 
L 872.195236 392.049728 
L 873.625745 350.459763 
L 875.056255 355.61078 
L 876.486764 375.178455 
L 877.917273 376.765978 
L 877.917273 376.765978 
" style="fill:none;stroke:#000000;stroke-dasharray:7.4,3.2;stroke-dashoffset:0;stroke-width:2;"/>
    <defs>
     <path d="M 0 3.535534 
L 2.12132 0 
L 0 -3.535534 
L -2.12132 0 
z
" id="m1980563cba" style="stroke:#000000;stroke-linejoin:miter;"/>
    </defs>
    <g clip-path="url(#p41305e0070)">
     <use style="fill:#ffffff;stroke:#000000;stroke-linejoin:miter;" x="162.662727" xlink:href="#m1980563cba" y="363.90182"/>
     <use style="fill:#ffffff;stroke:#000000;stroke-linejoin:miter;" x="234.188182" xlink:href="#m1980563cba" y="354.086997"/>
     <use style="fill:#ffffff;stroke:#000000;stroke-linejoin:miter;" x="305.713636" xlink:href="#m1980563cba" y="378.780483"/>
     <use style="fill:#ffffff;stroke:#000000;stroke-linejoin:miter;" x="377.239091" xlink:href="#m1980563cba" y="406.508495"/>
     <use style="fill:#ffffff;stroke:#000000;stroke-linejoin:miter;" x="448.764545" xlink:href="#m1980563cba" y="405.672285"/>
     <use style="fill:#ffffff;stroke:#000000;stroke-linejoin:miter;" x="520.29" xlink:href="#m1980563cba" y="341.527315"/>
     <use style="fill:#ffffff;stroke:#000000;stroke-linejoin:miter;" x="591.815455" xlink:href="#m1980563cba" y="360.80695"/>
     <use style="fill:#ffffff;stroke:#000000;stroke-linejoin:miter;" x="663.340909" xlink:href="#m1980563cba" y="428.003833"/>
     <use style="fill:#ffffff;stroke:#000000;stroke-linejoin:miter;" x="734.866364" xlink:href="#m1980563cba" y="390.288537"/>
     <use style="fill:#ffffff;stroke:#000000;stroke-linejoin:miter;" x="806.391818" xlink:href="#m1980563cba" y="353.96018"/>
     <use style="fill:#ffffff;stroke:#000000;stroke-linejoin:miter;" x="877.917273" xlink:href="#m1980563cba" y="376.765978"/>
    </g>
   </g>
   <g id="legend_1">
    <g id="patch_5">
     <path d="M 412.073 297.9704 
L 456.873 297.9704 
Q 459.673 297.9704 459.673 295.1704 
L 459.673 184.9729 
Q 459.673 182.1729 456.873 182.1729 
L 412.073 182.1729 
Q 409.273 182.1729 409.273 184.9729 
L 409.273 295.1704 
Q 409.273 297.9704 412.073 297.9704 
z
" style="fill:#ffffff;opacity:0.8;"/>
    </g>
    <g id="line2d_5">
     <path d="M 414.873 193.510712 
L 442.873 193.510712 
" style="fill:none;stroke:#8cbfb9;stroke-linecap:square;stroke-width:4;"/>
    </g>
    <g id="line2d_6"/>
    <g id="line2d_7">
     <path d="M 414.873 223.860087 
L 442.873 223.860087 
" style="fill:none;stroke:#000000;stroke-dasharray:7.4,3.2;stroke-dashoffset:0;stroke-width:2;"/>
    </g>
    <g id="line2d_8">
     <defs>
      <path d="M 0 3.75 
C 0.994512 3.75 1.948425 3.354876 2.65165 2.65165 
C 3.354876 1.948425 3.75 0.994512 3.75 0 
C 3.75 -0.994512 3.354876 -1.948425 2.65165 -2.65165 
C 1.948425 -3.354876 0.994512 -3.75 0 -3.75 
C -0.994512 -3.75 -1.948425 -3.354876 -2.65165 -2.65165 
C -3.354876 -1.948425 -3.75 -0.994512 -3.75 0 
C -3.75 0.994512 -3.354876 1.948425 -2.65165 2.65165 
C -1.948425 3.354876 -0.994512 3.75 0 3.75 
z
" id="mc25ce3a8bc" style="stroke:#000000;"/>
     </defs>
     <g>
      <use style="fill:#ffffff;stroke:#000000;" x="428.873" xlink:href="#mc25ce3a8bc" y="223.860087"/>
     </g>
    </g>
    <g id="line2d_9">
     <path d="M 414.873 254.209463 
L 442.873 254.209463 
" style="fill:none;stroke:#da888e;stroke-linecap:square;stroke-width:4;"/>
    </g>
    <g id="line2d_10"/>
    <g id="line2d_11">
     <path d="M 414.873 284.558837 
L 442.873 284.558837 
" style="fill:none;stroke:#000000;stroke-dasharray:7.4,3.2;stroke-dashoffset:0;stroke-width:2;"/>
    </g>
    <g id="line2d_12">
     <defs>
      <path d="M 0 5.303301 
L 3.181981 0 
L 0 -5.303301 
L -3.181981 0 
z
" id="mfcb4adbda1" style="stroke:#000000;stroke-linejoin:miter;"/>
     </defs>
     <g>
      <use style="fill:#ffffff;stroke:#000000;stroke-linejoin:miter;" x="428.873" xlink:href="#mfcb4adbda1" y="284.558837"/>
     </g>
    </g>
   </g>
  </g>
 </g>
 <defs>
  <clipPath id="p41305e0070">
   <rect height="388.08" width="786.78" x="126.9" y="60.48"/>
  </clipPath>
 </defs>
</svg>
