<?xml version="1.0" encoding="utf-8" standalone="no"?>
<!DOCTYPE svg PUBLIC "-//W3C//DTD SVG 1.1//EN"
  "http://www.w3.org/Graphics/SVG/1.1/DTD/svg11.dtd">
<!-- Created with matplotlib (https://matplotlib.org/) -->
<svg height="504pt" version="1.1" viewBox="0 0 1015.2 504" width="1015.2pt" xmlns="http://www.w3.org/2000/svg" xmlns:xlink="http://www.w3.org/1999/xlink">
 <defs>
  <style type="text/css">
*{stroke-linecap:butt;stroke-linejoin:round;}
  </style>
 </defs>
 <g id="figure_1">
  <g id="patch_1">
   <path d="M 0 504 
L 1015.2 504 
L 1015.2 0 
L 0 0 
z
" style="fill:none;"/>
  </g>
  <g id="axes_1">
   <g id="patch_2">
    <path d="M 126.9 441 
L 913.68 441 
L 913.68 60.48 
L 126.9 60.48 
z
" style="fill:none;"/>
   </g>
   <g id="patch_3">
    <path clip-path="url(#p156fca8dc6)" d="M 162.662727 441 
L 162.662727 60.48 
L 184.120364 60.48 
L 184.120364 441 
z
" style="fill:#808080;opacity:0.1;stroke:#808080;stroke-linejoin:miter;"/>
   </g>
   <g id="patch_4">
    <path clip-path="url(#p156fca8dc6)" d="M 856.459636 441 
L 856.459636 60.48 
L 877.917273 60.48 
L 877.917273 441 
z
" style="fill:#808080;opacity:0.1;stroke:#808080;stroke-linejoin:miter;"/>
   </g>
   <g id="matplotlib.axis_1">
    <g id="xtick_1"/>
    <g id="xtick_2"/>
    <g id="xtick_3"/>
    <g id="xtick_4"/>
    <g id="xtick_5"/>
    <g id="xtick_6"/>
   </g>
   <g id="matplotlib.axis_2">
    <g id="ytick_1"/>
    <g id="ytick_2"/>
    <g id="ytick_3"/>
    <g id="ytick_4"/>
    <g id="ytick_5"/>
    <g id="ytick_6"/>
    <g id="ytick_7"/>
    <g id="ytick_8"/>
   </g>
   <g id="line2d_1">
    <path clip-path="url(#p156fca8dc6)" d="M 162.662727 262.087507 
L 166.954255 257.643976 
L 169.815273 255.021809 
L 172.676291 252.800977 
L 174.1068 251.870488 
L 175.537309 251.072929 
L 176.967818 250.416074 
L 178.398327 249.905987 
L 179.828836 249.546925 
L 181.259345 249.341272 
L 182.689855 249.289497 
L 184.120364 249.390137 
L 185.550873 249.639813 
L 186.981382 250.033266 
L 188.411891 250.563427 
L 191.272909 251.997089 
L 194.133927 253.852028 
L 196.994945 256.018654 
L 208.439018 265.230626 
L 211.300036 267.029775 
L 214.161055 268.410762 
L 215.591564 268.920889 
L 217.022073 269.301545 
L 218.452582 269.54805 
L 219.883091 269.65758 
L 221.3136 269.62919 
L 222.744109 269.463812 
L 224.174618 269.164221 
L 225.605127 268.734983 
L 228.466145 267.514233 
L 231.327164 265.870076 
L 234.188182 263.891933 
L 238.479709 260.530051 
L 245.632255 254.822127 
L 248.493273 252.814125 
L 251.354291 251.092788 
L 254.215309 249.714834 
L 257.076327 248.710367 
L 259.937345 248.080858 
L 262.798364 247.798786 
L 265.659382 247.809002 
L 269.950909 248.192137 
L 275.672945 248.827608 
L 278.533964 248.927141 
L 281.394982 248.718463 
L 282.825491 248.463052 
L 284.256 248.089788 
L 285.686509 247.587272 
L 287.117018 246.945482 
L 288.547527 246.155916 
L 289.978036 245.211726 
L 291.408545 244.107824 
L 292.839055 242.840961 
L 294.269564 241.409788 
L 297.130582 238.058744 
L 299.9916 234.082273 
L 302.852618 229.537389 
L 305.713636 224.507682 
L 310.005164 216.290273 
L 321.449236 193.507287 
L 324.310255 188.308227 
L 327.171273 183.519023 
L 330.032291 179.207057 
L 332.893309 175.411623 
L 335.754327 172.14231 
L 338.615345 169.379092 
L 341.476364 167.07411 
L 344.337382 165.15505 
L 347.1984 163.529902 
L 351.489927 161.409632 
L 357.211964 158.583144 
L 360.072982 156.931168 
L 362.934 155.002982 
L 365.795018 152.736734 
L 368.656036 150.096366 
L 371.517055 147.074071 
L 374.378073 143.691109 
L 377.239091 139.996902 
L 381.530618 134.042157 
L 388.683164 123.898138 
L 391.544182 120.118099 
L 394.4052 116.680604 
L 397.266218 113.695768 
L 400.127236 111.256158 
L 401.557745 110.263584 
L 402.988255 109.431379 
L 404.418764 108.76398 
L 405.849273 108.26395 
L 407.279782 107.931939 
L 408.710291 107.766667 
L 410.1408 107.764929 
L 411.571309 107.921641 
L 413.001818 108.229895 
L 414.432327 108.681051 
L 415.862836 109.264854 
L 418.723855 110.782121 
L 421.584873 112.672962 
L 425.8764 115.935995 
L 431.598436 120.38542 
L 434.459455 122.364439 
L 437.320473 124.031902 
L 440.181491 125.302303 
L 441.612 125.768829 
L 443.042509 126.115859 
L 444.473018 126.340412 
L 445.903527 126.441382 
L 447.334036 126.419541 
L 448.764545 126.277507 
L 451.625564 125.652207 
L 454.486582 124.620632 
L 457.3476 123.261393 
L 461.639127 120.823952 
L 468.791673 116.632064 
L 471.652691 115.233158 
L 474.513709 114.135901 
L 477.374727 113.409657 
L 480.235745 113.098915 
L 483.096764 113.220396 
L 485.957782 113.761787 
L 488.8188 114.682183 
L 491.679818 115.914204 
L 495.971345 118.144262 
L 501.693382 121.234859 
L 504.5544 122.553727 
L 507.415418 123.561862 
L 508.845927 123.91571 
L 510.276436 124.153587 
L 511.706945 124.265281 
L 513.137455 124.242091 
L 514.567964 124.076957 
L 515.998473 123.764571 
L 517.428982 123.301458 
L 518.859491 122.686036 
L 520.29 121.918648 
L 521.720509 121.001563 
L 523.151018 119.938958 
L 526.012036 117.403104 
L 528.873055 114.380093 
L 531.734073 110.963662 
L 536.0256 105.353592 
L 543.178145 95.798478 
L 546.039164 92.28797 
L 548.900182 89.131527 
L 551.7612 86.421464 
L 554.622218 84.225389 
L 556.052727 83.333622 
L 557.483236 82.582899 
L 558.913745 81.973517 
L 560.344255 81.503907 
L 561.774764 81.170673 
L 563.205273 80.968659 
L 564.635782 80.891043 
L 567.4968 81.074099 
L 570.357818 81.636876 
L 573.218836 82.479291 
L 578.940873 84.555395 
L 583.2324 86.011952 
L 586.093418 86.746345 
L 588.954436 87.200817 
L 591.815455 87.323965 
L 594.676473 87.091499 
L 597.537491 86.507958 
L 600.398509 85.606733 
L 603.259527 84.448388 
L 607.551055 82.418946 
L 611.842582 80.365489 
L 614.7036 79.185379 
L 617.564618 78.300461 
L 618.995127 78.005396 
L 620.425636 77.826626 
L 621.856145 77.776364 
L 623.286655 77.865548 
L 624.717164 78.103688 
L 626.147673 78.498715 
L 627.578182 79.056863 
L 629.008691 79.782575 
L 630.4392 80.678424 
L 631.869709 81.745073 
L 633.300218 82.981254 
L 634.730727 84.383775 
L 637.591745 87.665686 
L 640.452764 91.528791 
L 643.313782 95.885205 
L 646.1748 100.625787 
L 650.466327 108.18177 
L 657.618873 120.847886 
L 660.479891 125.570409 
L 663.340909 129.938121 
L 666.201927 133.875748 
L 669.062945 137.335256 
L 671.923964 140.297984 
L 674.784982 142.775087 
L 677.646 144.806268 
L 680.507018 146.456879 
L 683.368036 147.813564 
L 687.659564 149.524129 
L 693.3816 151.78992 
L 696.242618 153.161419 
L 699.103636 154.816195 
L 701.964655 156.823418 
L 704.825673 159.227531 
L 707.686691 162.045304 
L 710.547709 165.264499 
L 713.408727 168.84424 
L 717.700255 174.735912 
L 729.144327 190.999038 
L 732.005345 194.535351 
L 734.866364 197.630736 
L 737.727382 200.196533 
L 739.157891 201.259531 
L 740.5884 202.167917 
L 742.018909 202.917946 
L 743.449418 203.507766 
L 744.879927 203.937444 
L 746.310436 204.208979 
L 747.740945 204.326281 
L 749.171455 204.295119 
L 750.601964 204.123054 
L 752.032473 203.819335 
L 754.893491 202.86163 
L 757.754509 201.524625 
L 760.615527 199.928061 
L 769.198582 194.896085 
L 772.0596 193.565905 
L 774.920618 192.59396 
L 776.351127 192.268524 
L 777.781636 192.060905 
L 779.212145 191.977029 
L 780.642655 192.020994 
L 782.073164 192.195036 
L 783.503673 192.499509 
L 784.934182 192.932898 
L 786.364691 193.491859 
L 789.225709 194.964389 
L 792.086727 196.856848 
L 794.947745 199.08638 
L 799.239273 202.840311 
L 806.391818 209.246651 
L 809.252836 211.541004 
L 812.113855 213.543283 
L 814.974873 215.188176 
L 817.835891 216.435903 
L 820.696909 217.274816 
L 823.557927 217.722337 
L 826.418945 217.824195 
L 829.279964 217.652002 
L 833.571491 217.089189 
L 837.863018 216.503499 
L 840.724036 216.305131 
L 843.585055 216.401611 
L 845.015564 216.595336 
L 846.446073 216.902763 
L 847.876582 217.334904 
L 849.307091 217.901351 
L 850.7376 218.610132 
L 852.168109 219.467588 
L 853.598618 220.478276 
L 855.029127 221.644889 
L 856.459636 222.968217 
L 859.320655 226.078522 
L 862.181673 229.777199 
L 865.042691 234.003158 
L 867.903709 238.669315 
L 872.195236 246.252038 
L 877.917273 256.776873 
L 877.917273 256.776873 
" style="fill:none;stroke:#8cbfb9;stroke-linecap:square;stroke-width:4;"/>
   </g>
   <g id="line2d_2">
    <path clip-path="url(#p156fca8dc6)" d="M 162.662727 245.806893 
L 164.093236 247.240144 
L 165.523745 247.904063 
L 166.954255 250.605766 
L 168.384764 253.62709 
L 169.815273 253.568221 
L 171.245782 251.855028 
L 172.676291 250.598595 
L 174.1068 249.98156 
L 175.537309 250.175346 
L 176.967818 250.744607 
L 178.398327 251.665672 
L 179.828836 252.404385 
L 181.259345 252.576309 
L 182.689855 252.597024 
L 184.120364 251.257224 
L 185.550873 250.105777 
L 186.981382 250.133737 
L 188.411891 250.628219 
L 191.272909 252.0498 
L 194.133927 253.891025 
L 196.994945 256.042069 
L 208.439018 265.190303 
L 211.300036 266.977446 
L 214.161055 268.349418 
L 215.591564 268.856308 
L 217.022073 269.234629 
L 218.452582 269.479724 
L 219.883091 269.588781 
L 221.3136 269.560854 
L 222.744109 269.396859 
L 224.174618 269.099544 
L 225.605127 268.67343 
L 228.466145 267.461256 
L 231.327164 265.82829 
L 234.188182 263.863248 
L 238.479709 260.522796 
L 245.632255 254.84804 
L 248.493273 252.850016 
L 251.354291 251.135778 
L 254.215309 249.761592 
L 257.076327 248.75731 
L 259.937345 248.124357 
L 262.798364 247.835384 
L 265.659382 247.835614 
L 269.950909 248.199246 
L 275.672945 248.804253 
L 278.533964 248.888592 
L 281.394982 248.665925 
L 282.825491 248.40423 
L 284.256 248.025281 
L 285.686509 247.517767 
L 287.117018 246.871737 
L 288.547527 246.078756 
L 289.978036 245.132029 
L 291.408545 244.026507 
L 292.839055 242.758972 
L 294.269564 241.328087 
L 297.130582 237.980494 
L 299.9916 234.011157 
L 302.852618 229.476732 
L 305.713636 224.460266 
L 310.005164 216.266371 
L 321.449236 193.54704 
L 324.310255 188.359521 
L 327.171273 183.578748 
L 330.032291 179.271697 
L 332.893309 175.477462 
L 335.754327 172.205641 
L 338.615345 169.436432 
L 341.476364 167.122399 
L 344.337382 165.191823 
L 347.1984 163.55343 
L 351.489927 161.41189 
L 357.211964 158.559033 
L 360.072982 156.896587 
L 362.934 154.960659 
L 365.795018 152.689898 
L 368.656036 150.048552 
L 371.517055 147.028917 
L 374.378073 143.652139 
L 377.239091 139.96732 
L 381.530618 134.031508 
L 388.683164 123.925802 
L 391.544182 120.160944 
L 394.4052 116.737229 
L 397.266218 113.763977 
L 400.127236 111.333077 
L 401.557745 110.343613 
L 402.988255 109.51362 
L 404.418764 108.847499 
L 405.849273 108.347793 
L 407.279782 108.015142 
L 408.710291 107.848272 
L 410.1408 107.843997 
L 411.571309 107.997263 
L 413.001818 108.301206 
L 414.432327 108.747246 
L 415.862836 109.325194 
L 418.723855 110.828855 
L 421.584873 112.704185 
L 425.8764 115.942225 
L 431.598436 120.359796 
L 434.459455 122.325441 
L 437.320473 123.982205 
L 440.181491 125.245126 
L 441.612 125.70924 
L 443.042509 126.054781 
L 444.473018 126.278781 
L 445.903527 126.380135 
L 447.334036 126.359598 
L 448.764545 126.219762 
L 451.625564 125.601365 
L 454.486582 124.579629 
L 457.3476 123.232532 
L 461.639127 120.815933 
L 468.791673 116.658572 
L 471.652691 115.270915 
L 474.513709 114.18234 
L 477.374727 113.461664 
L 480.235745 113.153015 
L 483.096764 113.272956 
L 485.957782 113.809229 
L 488.8188 114.721193 
L 491.679818 115.94193 
L 495.971345 118.151129 
L 501.693382 121.210801 
L 504.5544 122.514855 
L 507.415418 123.509765 
L 508.845927 123.857842 
L 510.276436 124.090626 
L 511.706945 124.19798 
L 513.137455 124.17127 
L 514.567964 124.003489 
L 515.998473 123.68937 
L 517.428982 123.225469 
L 518.859491 122.610219 
L 520.29 121.843963 
L 521.720509 120.928963 
L 523.151018 119.869368 
L 526.012036 117.342149 
L 528.873055 114.330867 
L 531.734073 110.92864 
L 536.0256 105.34283 
L 543.178145 95.828731 
L 546.039164 92.332278 
L 548.900182 89.187385 
L 551.7612 86.485782 
L 554.622218 84.29466 
L 556.052727 83.403982 
L 557.483236 82.653409 
L 558.913745 82.043246 
L 560.344255 81.571944 
L 561.774764 81.23614 
L 563.205273 81.030724 
L 564.635782 80.948933 
L 567.4968 81.121606 
L 570.357818 81.671857 
L 573.218836 82.500389 
L 578.940873 84.548133 
L 583.2324 85.986314 
L 586.093418 86.711295 
L 588.954436 87.159333 
L 591.815455 87.27944 
L 594.676473 87.047542 
L 597.537491 86.468179 
L 600.398509 85.574533 
L 603.259527 84.426758 
L 607.551055 82.417453 
L 611.842582 80.386965 
L 614.7036 79.222295 
L 617.564618 78.35188 
L 618.995127 78.063449 
L 620.425636 77.89077 
L 621.856145 77.845963 
L 623.286655 77.939889 
L 624.717164 78.181985 
L 626.147673 78.58012 
L 627.578182 79.140483 
L 629.008691 79.867478 
L 630.4392 80.763657 
L 631.869709 81.829673 
L 633.300218 83.064261 
L 634.730727 84.464247 
L 637.591745 87.738398 
L 640.452764 91.590506 
L 643.313782 95.933264 
L 646.1748 100.658252 
L 650.466327 108.189051 
L 657.618873 120.81584 
L 660.479891 125.525999 
L 663.340909 129.884293 
L 666.201927 133.81591 
L 669.062945 137.273084 
L 671.923964 140.23721 
L 674.784982 142.719284 
L 677.646 144.758644 
L 680.507018 146.420099 
L 683.368036 147.789597 
L 687.659564 149.521282 
L 693.3816 151.814182 
L 696.242618 153.196879 
L 699.103636 154.860313 
L 701.964655 156.873098 
L 704.825673 159.279311 
L 707.686691 162.095554 
L 710.547709 165.309634 
L 713.408727 168.880934 
L 717.700255 174.754747 
L 727.713818 189.064125 
L 730.574836 192.76728 
L 733.435855 196.08316 
L 736.296873 198.913775 
L 737.727382 200.122163 
L 739.157891 201.182382 
L 740.5884 202.088901 
L 742.018909 202.838007 
L 743.449418 203.427861 
L 744.879927 203.858537 
L 746.310436 204.132023 
L 747.740945 204.252203 
L 749.171455 204.224813 
L 750.601964 204.057362 
L 752.032473 203.75904 
L 754.893491 202.814175 
L 757.754509 201.492154 
L 760.615527 199.911908 
L 769.198582 194.928036 
L 772.0596 193.61074 
L 774.920618 192.648887 
L 776.351127 192.327283 
L 777.781636 192.12262 
L 779.212145 192.04079 
L 780.642655 192.085871 
L 782.073164 192.260091 
L 783.503673 192.56381 
L 784.934182 192.995532 
L 786.364691 193.551947 
L 789.225709 195.016936 
L 792.086727 196.899025 
L 794.947745 199.116018 
L 799.239273 202.848806 
L 806.391818 209.220946 
L 809.252836 211.504441 
L 812.113855 213.498546 
L 814.974873 215.138459 
L 817.835891 216.384729 
L 820.696909 217.225821 
L 823.557927 217.679064 
L 826.418945 217.789884 
L 829.279964 217.629395 
L 833.571491 217.087808 
L 837.863018 216.525305 
L 840.724036 216.342013 
L 843.585055 216.452236 
L 845.015564 216.652078 
L 846.446073 216.964997 
L 847.876582 217.401922 
L 849.307091 217.972372 
L 850.7376 218.683755 
L 853.598618 220.437363 
L 855.029127 222.039682 
L 856.459636 227.529508 
L 857.890145 233.593516 
L 860.751164 222.514407 
L 862.181673 235.912648 
L 863.612182 255.765333 
L 865.042691 264.715315 
L 866.4732 264.815883 
L 867.903709 269.579703 
L 869.334218 273.729258 
L 870.764727 268.687902 
L 872.195236 260.020099 
L 873.625745 254.477055 
L 875.056255 256.887173 
L 876.486764 265.609862 
L 877.917273 272.100932 
L 877.917273 272.100932 
" style="fill:none;stroke:#000000;stroke-dasharray:7.4,3.2;stroke-dashoffset:0;stroke-width:2;"/>
    <defs>
     <path d="M 0 2.5 
C 0.663008 2.5 1.29895 2.236584 1.767767 1.767767 
C 2.236584 1.29895 2.5 0.663008 2.5 0 
C 2.5 -0.663008 2.236584 -1.29895 1.767767 -1.767767 
C 1.29895 -2.236584 0.663008 -2.5 0 -2.5 
C -0.663008 -2.5 -1.29895 -2.236584 -1.767767 -1.767767 
C -2.236584 -1.29895 -2.5 -0.663008 -2.5 0 
C -2.5 0.663008 -2.236584 1.29895 -1.767767 1.767767 
C -1.29895 2.236584 -0.663008 2.5 0 2.5 
z
" id="m36de08bc0b" style="stroke:#000000;"/>
    </defs>
    <g clip-path="url(#p156fca8dc6)">
     <use style="fill:#ffffff;stroke:#000000;" x="162.662727" xlink:href="#m36de08bc0b" y="245.806893"/>
     <use style="fill:#ffffff;stroke:#000000;" x="234.188182" xlink:href="#m36de08bc0b" y="263.863248"/>
     <use style="fill:#ffffff;stroke:#000000;" x="305.713636" xlink:href="#m36de08bc0b" y="224.460266"/>
     <use style="fill:#ffffff;stroke:#000000;" x="377.239091" xlink:href="#m36de08bc0b" y="139.96732"/>
     <use style="fill:#ffffff;stroke:#000000;" x="448.764545" xlink:href="#m36de08bc0b" y="126.219762"/>
     <use style="fill:#ffffff;stroke:#000000;" x="520.29" xlink:href="#m36de08bc0b" y="121.843963"/>
     <use style="fill:#ffffff;stroke:#000000;" x="591.815455" xlink:href="#m36de08bc0b" y="87.27944"/>
     <use style="fill:#ffffff;stroke:#000000;" x="663.340909" xlink:href="#m36de08bc0b" y="129.884293"/>
     <use style="fill:#ffffff;stroke:#000000;" x="734.866364" xlink:href="#m36de08bc0b" y="197.564479"/>
     <use style="fill:#ffffff;stroke:#000000;" x="806.391818" xlink:href="#m36de08bc0b" y="209.220946"/>
     <use style="fill:#ffffff;stroke:#000000;" x="877.917273" xlink:href="#m36de08bc0b" y="272.100932"/>
    </g>
   </g>
   <g id="line2d_3">
    <path clip-path="url(#p156fca8dc6)" d="M 162.662727 362.090673 
L 165.523745 360.084274 
L 168.384764 358.429631 
L 171.245782 357.121328 
L 174.1068 356.145448 
L 176.967818 355.480092 
L 179.828836 355.096116 
L 182.689855 354.958034 
L 185.550873 355.02509 
L 189.8424 355.411463 
L 196.994945 356.41491 
L 202.716982 357.108424 
L 207.008509 357.336363 
L 209.869527 357.282548 
L 212.730545 357.032701 
L 215.591564 356.568146 
L 218.452582 355.878185 
L 221.3136 354.96045 
L 224.174618 353.821036 
L 227.035636 352.474407 
L 231.327164 350.117271 
L 235.618691 347.453286 
L 248.493273 339.120501 
L 251.354291 337.530642 
L 254.215309 336.1516 
L 257.076327 335.033629 
L 259.937345 334.22301 
L 262.798364 333.76081 
L 265.659382 333.681756 
L 268.5204 334.013268 
L 271.381418 334.774663 
L 274.242436 335.976568 
L 277.103455 337.620534 
L 279.964473 339.698885 
L 282.825491 342.194786 
L 285.686509 345.082548 
L 288.547527 348.328141 
L 291.408545 351.889928 
L 295.700073 357.718166 
L 299.9916 363.96223 
L 312.866182 383.11463 
L 317.157709 388.948907 
L 320.018727 392.524567 
L 322.879745 395.797031 
L 325.740764 398.729734 
L 328.601782 401.294166 
L 331.4628 403.470437 
L 334.323818 405.247618 
L 337.184836 406.62386 
L 340.045855 407.606287 
L 342.906873 408.21066 
L 345.767891 408.460825 
L 348.628909 408.387967 
L 351.489927 408.029675 
L 354.350945 407.428854 
L 357.211964 406.632509 
L 361.503491 405.180715 
L 374.378073 400.556791 
L 377.239091 399.76768 
L 380.100109 399.144599 
L 382.961127 398.712149 
L 385.822145 398.487221 
L 388.683164 398.478548 
L 391.544182 398.686465 
L 394.4052 399.102903 
L 397.266218 399.711607 
L 401.557745 400.930678 
L 405.849273 402.416521 
L 417.293345 406.562159 
L 420.154364 407.371961 
L 423.015382 407.99012 
L 425.8764 408.36936 
L 428.737418 408.466402 
L 431.598436 408.243194 
L 434.459455 407.668004 
L 437.320473 406.71637 
L 440.181491 405.371866 
L 443.042509 403.626666 
L 445.903527 401.481895 
L 448.764545 398.94776 
L 451.625564 396.04345 
L 454.486582 392.796804 
L 457.3476 389.243771 
L 461.639127 383.436276 
L 465.930655 377.210485 
L 480.235745 356.034476 
L 484.527273 350.357108 
L 487.388291 346.922713 
L 490.249309 343.822887 
L 493.110327 341.096172 
L 495.971345 338.773167 
L 498.832364 336.87589 
L 501.693382 335.41735 
L 504.5544 334.40134 
L 507.415418 333.822461 
L 510.276436 333.666374 
L 513.137455 333.910272 
L 515.998473 334.523556 
L 518.859491 335.468707 
L 521.720509 336.702321 
L 524.581527 338.176288 
L 528.873055 340.72459 
L 534.595091 344.469357 
L 541.747636 349.117247 
L 546.039164 351.607539 
L 548.900182 353.064464 
L 551.7612 354.326275 
L 554.622218 355.373787 
L 557.483236 356.196028 
L 560.344255 356.790461 
L 563.205273 357.162985 
L 566.066291 357.327709 
L 568.927309 357.306502 
L 573.218836 356.99121 
L 578.940873 356.240278 
L 586.093418 355.276054 
L 590.384945 354.974708 
L 593.245964 354.98863 
L 596.106982 355.225391 
L 598.968 355.723669 
L 601.829018 356.516408 
L 604.690036 357.629806 
L 607.551055 359.082484 
L 610.412073 360.884838 
L 613.273091 363.038603 
L 616.134109 365.536639 
L 618.995127 368.362935 
L 621.856145 371.492853 
L 624.717164 374.893583 
L 629.008691 380.412419 
L 634.730727 388.289655 
L 643.313782 400.279731 
L 647.605309 405.904167 
L 650.466327 409.37881 
L 653.327345 412.569218 
L 656.188364 415.426017 
L 659.049382 417.90617 
L 661.9104 419.973966 
L 664.771418 421.601834 
L 667.632436 422.770957 
L 669.062945 423.180105 
L 670.493455 423.47167 
L 671.923964 423.645904 
L 673.354473 423.703636 
L 674.784982 423.646275 
L 677.646 423.194697 
L 680.507018 422.313413 
L 683.368036 421.032829 
L 686.229055 419.390702 
L 689.090073 417.431162 
L 691.951091 415.203576 
L 696.242618 411.477059 
L 701.964655 406.086226 
L 709.1172 399.30128 
L 713.408727 395.51404 
L 716.269745 393.197462 
L 719.130764 391.086721 
L 721.991782 389.206974 
L 724.8528 387.575236 
L 727.713818 386.200051 
L 730.574836 385.081401 
L 733.435855 384.210825 
L 736.296873 383.571775 
L 739.157891 383.140173 
L 742.018909 382.885176 
L 746.310436 382.752265 
L 760.615527 382.658064 
L 763.476545 382.353438 
L 766.337564 381.852715 
L 769.198582 381.120904 
L 772.0596 380.12919 
L 774.920618 378.855832 
L 777.781636 377.286895 
L 780.642655 375.416771 
L 783.503673 373.248487 
L 786.364691 370.793785 
L 789.225709 368.072987 
L 792.086727 365.11462 
L 796.378255 360.312617 
L 802.100291 353.470618 
L 810.683345 343.152017 
L 814.974873 338.399505 
L 817.835891 335.516085 
L 820.696909 332.923924 
L 823.557927 330.672054 
L 826.418945 328.803522 
L 829.279964 327.354348 
L 832.140982 326.352643 
L 833.571491 326.02604 
L 835.002 325.817923 
L 836.432509 325.72931 
L 837.863018 325.760635 
L 839.293527 325.911745 
L 840.724036 326.181899 
L 842.154545 326.569777 
L 845.015564 327.690559 
L 847.876582 329.252274 
L 850.7376 331.224673 
L 853.598618 333.569809 
L 856.459636 336.242964 
L 859.320655 339.193736 
L 863.612182 344.019518 
L 869.334218 350.891106 
L 876.486764 359.515678 
L 877.917273 361.174787 
L 877.917273 361.174787 
" style="fill:none;stroke:#da888e;stroke-linecap:square;stroke-width:4;"/>
   </g>
   <g id="line2d_4">
    <path clip-path="url(#p156fca8dc6)" d="M 162.662727 357.991005 
L 164.093236 340.141562 
L 165.523745 368.280017 
L 166.954255 360.336393 
L 168.384764 355.788424 
L 169.815273 349.85086 
L 171.245782 356.587991 
L 172.676291 355.48428 
L 174.1068 356.604725 
L 175.537309 356.741547 
L 176.967818 355.480092 
L 178.398327 354.398718 
L 179.828836 351.70759 
L 181.259345 354.338439 
L 182.689855 361.93243 
L 184.120364 354.968641 
L 186.981382 355.121662 
L 191.272909 355.592553 
L 202.716982 357.108424 
L 207.008509 357.336363 
L 209.869527 357.282548 
L 212.730545 357.032701 
L 215.591564 356.568146 
L 218.452582 355.878185 
L 221.3136 354.96045 
L 224.174618 353.821036 
L 227.035636 352.474407 
L 231.327164 350.117271 
L 235.618691 347.453286 
L 248.493273 339.120501 
L 251.354291 337.530642 
L 254.215309 336.1516 
L 257.076327 335.033629 
L 259.937345 334.22301 
L 262.798364 333.76081 
L 265.659382 333.681756 
L 268.5204 334.013268 
L 271.381418 334.774663 
L 274.242436 335.976568 
L 277.103455 337.620534 
L 279.964473 339.698885 
L 282.825491 342.194786 
L 285.686509 345.082548 
L 288.547527 348.328141 
L 291.408545 351.889928 
L 295.700073 357.718166 
L 299.9916 363.96223 
L 312.866182 383.11463 
L 317.157709 388.948907 
L 320.018727 392.524567 
L 322.879745 395.797031 
L 325.740764 398.729734 
L 328.601782 401.294166 
L 331.4628 403.470437 
L 334.323818 405.247618 
L 337.184836 406.62386 
L 340.045855 407.606287 
L 342.906873 408.21066 
L 345.767891 408.460825 
L 348.628909 408.387967 
L 351.489927 408.029675 
L 354.350945 407.428854 
L 357.211964 406.632509 
L 361.503491 405.180715 
L 374.378073 400.556791 
L 377.239091 399.76768 
L 380.100109 399.144599 
L 382.961127 398.712149 
L 385.822145 398.487221 
L 388.683164 398.478548 
L 391.544182 398.686465 
L 394.4052 399.102903 
L 397.266218 399.711607 
L 401.557745 400.930678 
L 405.849273 402.416521 
L 417.293345 406.562159 
L 420.154364 407.371961 
L 423.015382 407.99012 
L 425.8764 408.36936 
L 428.737418 408.466402 
L 431.598436 408.243194 
L 434.459455 407.668004 
L 437.320473 406.71637 
L 440.181491 405.371866 
L 443.042509 403.626666 
L 445.903527 401.481895 
L 448.764545 398.94776 
L 451.625564 396.04345 
L 454.486582 392.796804 
L 457.3476 389.243771 
L 461.639127 383.436276 
L 465.930655 377.210485 
L 480.235745 356.034476 
L 484.527273 350.357108 
L 487.388291 346.922713 
L 490.249309 343.822887 
L 493.110327 341.096172 
L 495.971345 338.773167 
L 498.832364 336.87589 
L 501.693382 335.41735 
L 504.5544 334.40134 
L 507.415418 333.822461 
L 510.276436 333.666374 
L 513.137455 333.910272 
L 515.998473 334.523556 
L 518.859491 335.468707 
L 521.720509 336.702321 
L 524.581527 338.176288 
L 528.873055 340.72459 
L 534.595091 344.469357 
L 541.747636 349.117247 
L 546.039164 351.607539 
L 548.900182 353.064464 
L 551.7612 354.326275 
L 554.622218 355.373787 
L 557.483236 356.196028 
L 560.344255 356.790461 
L 563.205273 357.162985 
L 566.066291 357.327709 
L 568.927309 357.306502 
L 573.218836 356.99121 
L 578.940873 356.240278 
L 586.093418 355.276054 
L 590.384945 354.974708 
L 593.245964 354.98863 
L 596.106982 355.225391 
L 598.968 355.723669 
L 601.829018 356.516408 
L 604.690036 357.629806 
L 607.551055 359.082484 
L 610.412073 360.884838 
L 613.273091 363.038603 
L 616.134109 365.536639 
L 618.995127 368.362935 
L 621.856145 371.492853 
L 624.717164 374.893583 
L 629.008691 380.412419 
L 634.730727 388.289655 
L 643.313782 400.279731 
L 647.605309 405.904167 
L 650.466327 409.37881 
L 653.327345 412.569218 
L 656.188364 415.426017 
L 659.049382 417.90617 
L 661.9104 419.973966 
L 664.771418 421.601834 
L 667.632436 422.770957 
L 669.062945 423.180105 
L 670.493455 423.47167 
L 671.923964 423.645904 
L 673.354473 423.703636 
L 674.784982 423.646275 
L 677.646 423.194697 
L 680.507018 422.313413 
L 683.368036 421.032829 
L 686.229055 419.390702 
L 689.090073 417.431162 
L 691.951091 415.203576 
L 696.242618 411.477059 
L 701.964655 406.086226 
L 709.1172 399.30128 
L 713.408727 395.51404 
L 716.269745 393.197462 
L 719.130764 391.086721 
L 721.991782 389.206974 
L 724.8528 387.575236 
L 727.713818 386.200051 
L 730.574836 385.081401 
L 733.435855 384.210825 
L 736.296873 383.571775 
L 739.157891 383.140173 
L 742.018909 382.885176 
L 746.310436 382.752265 
L 760.615527 382.658064 
L 763.476545 382.353438 
L 766.337564 381.852715 
L 769.198582 381.120904 
L 772.0596 380.12919 
L 774.920618 378.855832 
L 777.781636 377.286895 
L 780.642655 375.416771 
L 783.503673 373.248487 
L 786.364691 370.793785 
L 789.225709 368.072987 
L 792.086727 365.11462 
L 796.378255 360.312617 
L 802.100291 353.470618 
L 810.683345 343.152017 
L 814.974873 338.399505 
L 817.835891 335.516085 
L 820.696909 332.923924 
L 823.557927 330.672054 
L 826.418945 328.803522 
L 829.279964 327.354348 
L 832.140982 326.352643 
L 833.571491 326.02604 
L 835.002 325.817923 
L 836.432509 325.72931 
L 837.863018 325.760635 
L 839.293527 325.911745 
L 840.724036 326.181899 
L 842.154545 326.569777 
L 845.015564 327.690559 
L 847.876582 329.252274 
L 850.7376 331.224673 
L 853.598618 333.569809 
L 855.029127 334.868414 
L 856.459636 326.023385 
L 857.890145 391.10911 
L 859.320655 334.985463 
L 860.751164 308.457988 
L 862.181673 350.471426 
L 863.612182 382.011308 
L 865.042691 293.618012 
L 866.4732 359.091456 
L 867.903709 328.471971 
L 869.334218 356.537521 
L 870.764727 342.388704 
L 872.195236 385.590578 
L 873.625745 344.810806 
L 875.056255 349.861479 
L 876.486764 369.047965 
L 877.917273 370.604563 
L 877.917273 370.604563 
" style="fill:none;stroke:#000000;stroke-dasharray:7.4,3.2;stroke-dashoffset:0;stroke-width:2;"/>
    <defs>
     <path d="M -0 3.535534 
L 2.12132 0 
L -0 -3.535534 
L -2.12132 -0 
z
" id="mf3942bc303" style="stroke:#000000;stroke-linejoin:miter;"/>
    </defs>
    <g clip-path="url(#p156fca8dc6)">
     <use style="fill:#ffffff;stroke:#000000;stroke-linejoin:miter;" x="162.662727" xlink:href="#mf3942bc303" y="357.991005"/>
     <use style="fill:#ffffff;stroke:#000000;stroke-linejoin:miter;" x="234.188182" xlink:href="#mf3942bc303" y="348.36738"/>
     <use style="fill:#ffffff;stroke:#000000;stroke-linejoin:miter;" x="305.713636" xlink:href="#mf3942bc303" y="372.579824"/>
     <use style="fill:#ffffff;stroke:#000000;stroke-linejoin:miter;" x="377.239091" xlink:href="#mf3942bc303" y="399.76768"/>
     <use style="fill:#ffffff;stroke:#000000;stroke-linejoin:miter;" x="448.764545" xlink:href="#mf3942bc303" y="398.94776"/>
     <use style="fill:#ffffff;stroke:#000000;stroke-linejoin:miter;" x="520.29" xlink:href="#mf3942bc303" y="336.052367"/>
     <use style="fill:#ffffff;stroke:#000000;stroke-linejoin:miter;" x="591.815455" xlink:href="#mf3942bc303" y="354.956425"/>
     <use style="fill:#ffffff;stroke:#000000;stroke-linejoin:miter;" x="663.340909" xlink:href="#mf3942bc303" y="420.844278"/>
     <use style="fill:#ffffff;stroke:#000000;stroke-linejoin:miter;" x="734.866364" xlink:href="#mf3942bc303" y="383.863696"/>
     <use style="fill:#ffffff;stroke:#000000;stroke-linejoin:miter;" x="806.391818" xlink:href="#mf3942bc303" y="348.243033"/>
     <use style="fill:#ffffff;stroke:#000000;stroke-linejoin:miter;" x="877.917273" xlink:href="#mf3942bc303" y="370.604563"/>
    </g>
   </g>
   <g id="legend_1">
    <g id="patch_5">
     <path d="M 412.073 293.2076 
L 456.873 293.2076 
Q 459.673 293.2076 459.673 290.4076 
L 459.673 180.2101 
Q 459.673 177.4101 456.873 177.4101 
L 412.073 177.4101 
Q 409.273 177.4101 409.273 180.2101 
L 409.273 290.4076 
Q 409.273 293.2076 412.073 293.2076 
z
" style="fill:#ffffff;opacity:0.8;"/>
    </g>
    <g id="line2d_5">
     <path d="M 414.873 188.747913 
L 442.873 188.747913 
" style="fill:none;stroke:#8cbfb9;stroke-linecap:square;stroke-width:4;"/>
    </g>
    <g id="line2d_6"/>
    <g id="line2d_7">
     <path d="M 414.873 219.097288 
L 442.873 219.097288 
" style="fill:none;stroke:#000000;stroke-dasharray:7.4,3.2;stroke-dashoffset:0;stroke-width:2;"/>
    </g>
    <g id="line2d_8">
     <defs>
      <path d="M 0 3.75 
C 0.994512 3.75 1.948425 3.354876 2.65165 2.65165 
C 3.354876 1.948425 3.75 0.994512 3.75 0 
C 3.75 -0.994512 3.354876 -1.948425 2.65165 -2.65165 
C 1.948425 -3.354876 0.994512 -3.75 0 -3.75 
C -0.994512 -3.75 -1.948425 -3.354876 -2.65165 -2.65165 
C -3.354876 -1.948425 -3.75 -0.994512 -3.75 0 
C -3.75 0.994512 -3.354876 1.948425 -2.65165 2.65165 
C -1.948425 3.354876 -0.994512 3.75 0 3.75 
z
" id="m5f90c50d27" style="stroke:#000000;"/>
     </defs>
     <g>
      <use style="fill:#ffffff;stroke:#000000;" x="428.873" xlink:href="#m5f90c50d27" y="219.097288"/>
     </g>
    </g>
    <g id="line2d_9">
     <path d="M 414.873 249.446663 
L 442.873 249.446663 
" style="fill:none;stroke:#da888e;stroke-linecap:square;stroke-width:4;"/>
    </g>
    <g id="line2d_10"/>
    <g id="line2d_11">
     <path d="M 414.873 279.796038 
L 442.873 279.796038 
" style="fill:none;stroke:#000000;stroke-dasharray:7.4,3.2;stroke-dashoffset:0;stroke-width:2;"/>
    </g>
    <g id="line2d_12">
     <defs>
      <path d="M -0 5.303301 
L 3.181981 0 
L 0 -5.303301 
L -3.181981 -0 
z
" id="m1b54e7be4d" style="stroke:#000000;stroke-linejoin:miter;"/>
     </defs>
     <g>
      <use style="fill:#ffffff;stroke:#000000;stroke-linejoin:miter;" x="428.873" xlink:href="#m1b54e7be4d" y="279.796038"/>
     </g>
    </g>
   </g>
  </g>
 </g>
 <defs>
  <clipPath id="p156fca8dc6">
   <rect height="380.52" width="786.78" x="126.9" y="60.48"/>
  </clipPath>
 </defs>
</svg>
